<?xml version="1.0" encoding="UTF-8"?>
<svg width="47px" height="35px" viewBox="0 0 47 35" version="1.1" xmlns="http://www.w3.org/2000/svg" xmlns:xlink="http://www.w3.org/1999/xlink">
    <!-- Generator: Sketch 54.1 (76490) - https://sketchapp.com -->
    <title>logo-mcdonalds</title>
    <desc>Created with Sketch.</desc>
    <g id="Home-One-Page-Landing" stroke="none" stroke-width="1" fill="none" fill-rule="evenodd" fill-opacity="0.841100306">
        <g id="Artboard" transform="translate(-512.000000, -537.000000)" fill="#FFFFFF">
            <g id="Group-2" transform="translate(30.000000, 536.000000)">
                <g id="logo-mcdonalds" transform="translate(482.000000, 1.000000)">
                    <path d="M33.7139535,2.52895349 C37.7243023,2.52895349 40.9760465,16.7910465 40.9760465,34.405 L46.8267442,34.405 C46.8267442,15.4415116 40.9255814,0.0911627907 33.6976744,0.0911627907 C29.5668605,0.0911627907 25.9187209,4.69 23.5102326,11.9162791 C21.1009302,4.69081395 17.4527907,0.0911627907 13.3569767,0.0911627907 C6.12906977,0.0911627907 0.244186047,15.4268605 0.244186047,34.3911628 L6.09488372,34.3911628 C6.09488372,16.7772093 9.31325581,2.52895349 13.3227907,2.52895349 C17.3323256,2.52895349 20.5840698,15.7027907 20.5840698,31.9533721 L26.4005814,31.9533721 C26.4005814,15.7027907 29.6702326,2.52895349 33.6797674,2.52895349" id="Path"></path>
                </g>
            </g>
        </g>
    </g>
</svg>