<?xml version="1.0" encoding="UTF-8"?>
<svg width="108px" height="23px" viewBox="0 0 108 23" version="1.1" xmlns="http://www.w3.org/2000/svg" xmlns:xlink="http://www.w3.org/1999/xlink">
    <!-- Generator: Sketch 54.1 (76490) - https://sketchapp.com -->
    <title>logo-unilever</title>
    <desc>Created with Sketch.</desc>
    <g id="Home-One-Page-Landing" stroke="none" stroke-width="1" fill="none" fill-rule="evenodd" fill-opacity="0.841100306">
        <g id="Artboard" transform="translate(-155.000000, -543.000000)" fill="#FFFFFF" fill-rule="nonzero">
            <g id="Group-2" transform="translate(30.000000, 536.000000)">
                <g id="logo-unilever" transform="translate(125.000000, 7.000000)">
                    <path d="M50.1093333,0 C50.0526,0 49.9958667,0.00153333333 49.9383667,0.00536666667 C47.4237,0.1587 45.1267667,5.76533333 45.494,11.7261667 C45.5660667,12.8915 46.0743667,16.0923333 46.7881333,17.6755 C45.54,19.6726667 43.9553,19.9716667 43.0353,19.9716667 C41.7411667,19.9716667 39.7754333,19.2349 39.7754333,16.2249667 C40.7015667,13.7003333 40.0851667,10.8138333 38.7925667,10.8138333 C36.9479667,10.8138333 36.3338667,14.0645 36.2717667,16.3445667 C35.6584333,17.7000333 34.9799333,18.8048 34.0561,18.8048 C31.2922667,18.8048 31.0477,10.1951333 29.0160333,10.1951333 C27.3577333,10.1951333 24.5049667,15.6691333 23.6417,15.6691333 C23.1525667,15.6691333 22.7178667,14.1181667 22.4089,12.5978667 C22.3230333,12.1723667 22.2387,11.6587 21.9627,11.6318667 C21.4160667,11.5812667 20.7322,12.0527667 20.4799667,12.7098 C20.2239,13.3645333 19.7677333,15.4146 19.2709333,17.2845 C18.9734667,18.3609 18.2420667,20.6386667 18.1546667,21.4881333 C18.0902667,22.1014667 18.3486333,22.5614667 18.9642667,22.6258667 C20.4937667,22.7845667 26.1257,15.8546667 27.9089667,15.8546667 C30.1859667,15.8546667 30.7364333,22.678 33.3216333,22.678 C34.8580333,22.678 36.2717667,18.745 37.1956,18.745 C38.2382667,18.745 38.7304667,22.678 41.6813667,22.678 C45.3736333,22.678 46.5995333,20.2798667 47.7073667,20.2798667 C48.6296667,20.2798667 49.6140667,22.6159 51.8872333,22.6159 C53.3009667,22.6159 54.5345333,22.1865667 56.0088333,21.2006333 C56.8667333,22.1865667 57.9094,22.678 58.8991667,22.678 C64.9788333,22.678 66.7015333,17.2055333 67.9358667,17.2055333 C69.0406333,17.2055333 68.7968333,22.6159 71.9363333,22.6159 C76.1131333,22.6159 78.9444333,15.2980667 78.9444333,11.3627667 C78.9444333,10.3201 78.6339333,9.4622 77.7737333,9.4622 C76.3569333,9.4622 75.3112,11.1220333 75.3112,13.087 C75.3112,14.8695 75.7420667,14.9937 75.7420667,16.2249667 C75.7420667,17.8809667 74.8818667,20.0337667 73.8330667,20.0337667 C71.3820333,20.0337667 70.7648667,10.3201 69.2875,10.3201 C68.4296,10.3201 67.9964333,11.3627667 67.7518667,12.1026 C66.3933333,15.9781 64.5571667,20.2216 61.0504333,20.2216 C60.3711667,20.2216 59.5753667,19.9103333 59.1445,19.4825333 C61.6009,17.9469 63.2622667,16.3445667 63.2622667,14.3796 C63.2622667,12.7167 62.1567333,10.1951333 60.2492667,10.1951333 C57.8526667,10.1951333 55.0842333,13.8237667 55.0842333,18.1263 C55.0842333,18.929 55.2092,19.4833 55.3326333,19.9103333 C55.1486333,20.1595 54.4072667,20.4661667 53.7916333,20.4661667 C52.1325667,20.4661667 50.3746,18.7013 50.1653,17.6647667 C51.4042333,14.9906333 53.8775,11.8902333 53.4244,4.46276667 C53.2595667,1.72653333 51.8703667,0.00383333333 50.1093333,0 Z M39.5293333,0.852533333 C38.3624667,0.852533333 37.2638333,2.07766667 37.3803667,3.6156 C37.4547333,4.6299 38.0535,5.4648 39.2280333,5.4648 C40.5758333,5.4648 41.5587,3.92763333 41.4345,2.51083333 C41.3486333,1.52643333 40.5758333,0.852533333 39.5293333,0.852533333 Z M15.2819667,2.0585 C15.0936335,2.06019047 14.9064921,2.08858435 14.7261333,2.14283333 C13.7394333,2.45256667 12.6661,3.80496667 12.9735333,5.85963333 C13.1138333,6.7873 13.6252,8.0431 13.8015333,8.602 C14.1112667,9.58333333 14.4792667,11.1220333 13.9901333,14.3167333 C13.3722,18.3156667 11.8986667,21.0833333 8.57823333,21.0189333 C6.36563333,21.0189333 4.33243333,19.2954667 4.0917,14.8702667 C3.84253333,10.6881 4.15456667,8.9079 4.8277,5.22023333 C5.13436667,3.5535 5.25626667,2.14206667 3.90463333,2.38893333 C2.18653333,2.75463333 1.69126667,3.43466667 1.13773333,5.34213333 C0.0935333333,8.90713333 -0.0858666667,11.4279333 0.0306666667,13.9487333 C0.279833333,19.2962333 2.67566667,22.8029667 8.08833333,22.9202667 C14.3581333,23.0475333 16.8804667,16.9594333 17.1227333,11.9163 C17.3082667,8.22786667 17.2469333,5.64803333 16.6926333,3.6823 C16.3453333,2.63196667 15.9949667,2.0677 15.2819667,2.0585 Z M50.0733,3.68766667 C50.9373333,3.6777 51.3306333,4.4574 51.4333667,6.12183333 C51.6687333,9.92986667 50.0441667,14.6494667 49.3664333,14.6901 C48.9992,14.7131 48.6074333,14.3067667 48.4472,11.6663667 C48.1972667,7.6176 48.7630667,3.7651 49.9882,3.69073333 C50.0165667,3.68843333 50.0449333,3.68766667 50.0725333,3.68766667 L50.0733,3.68766667 Z M103.901733,9.154 C98.1218333,9.154 96.8959333,17.8219333 95.9713333,17.8219333 C94.4341667,17.8219333 94.9256,10.8744 93.817,10.8744 C92.8326,10.8744 92.3503667,12.0474 92.2192667,12.5955667 C91.4572,15.7565333 89.1464667,20.4063667 85.7003,20.4063667 C84.9022,20.4063667 83.4869333,20.0974 83.4869333,19.2962333 C83.4869333,18.4352667 88.9011333,18.3149 88.9011333,14.1940667 C88.9011333,12.6592 87.4881667,10.5041 85.3951667,10.5041 C82.6290333,10.5041 79.9303667,13.5194 79.9303667,17.7000333 C79.9303667,21.4475 82.2587333,22.678 84.594,22.678 C88.6542667,22.678 91.1129667,19.3560333 92.4025,16.5891333 C93.0204333,18.4352667 93.3838333,22.678 94.9248333,22.678 C95.5404667,22.678 95.9713333,22.3705667 96.7111667,20.7122667 C98.5511667,16.5891333 100.3352,11.8572667 102.796967,11.8572667 C103.716967,11.8572667 103.164967,13.5194 105.377567,13.5194 C106.420233,13.5194 107.156233,12.6592 107.156233,11.6709667 C107.156233,10.2557 105.8667,9.15323333 103.901733,9.15323333 L103.901733,9.154 Z M84.594,12.9681667 C85.8866,12.9681667 86.2576667,14.4976667 85.9502333,15.4238 C85.6397333,16.3445667 84.5365,17.3933667 82.8145667,17.7000333 C82.4442667,16.7762 82.2587333,12.9681667 84.594,12.9681667 Z M59.3308,13.1491 C60.0031667,13.1491 60.5574667,14.0093 60.5574667,15.0519667 C60.5574667,16.2824667 60.0629667,17.7621333 58.2835333,18.3156667 C58.0336,18.0028667 57.4846667,17.2722333 57.4846667,15.7289333 C57.4846667,13.7609 58.7726667,13.1491 59.3308,13.1491 L59.3308,13.1491 Z" id="Shape"></path>
                </g>
            </g>
        </g>
    </g>
</svg>