<?xml version="1.0" encoding="UTF-8"?>
<svg width="51px" height="35px" viewBox="0 0 51 35" version="1.1" xmlns="http://www.w3.org/2000/svg" xmlns:xlink="http://www.w3.org/1999/xlink">
    <!-- Generator: Sketch 54.1 (76490) - https://sketchapp.com -->
    <title>logo-usda</title>
    <desc>Created with Sketch.</desc>
    <g id="Home-One-Page-Landing" stroke="none" stroke-width="1" fill="none" fill-rule="evenodd" fill-opacity="0.841100306">
        <g id="Artboard" transform="translate(-429.000000, -536.000000)" fill="#FFFFFF">
            <g id="Group-2" transform="translate(30.000000, 536.000000)">
                <g id="logo-usda" transform="translate(399.000000, 0.000000)">
                    <path d="M11.4302222,1.40233333 L11.368,10.0916667 C11.368,13.7036667 9.22055556,15.1052222 6.335,15.1052222 C3.84688889,15.1052222 0.680555556,14.0015556 0.680555556,10.2394444 L0.680555556,1.40233333 C0.680555556,0.912333333 0.339888889,0.616 0,0.445666667 L4.07866667,0.445666667 C3.74111111,0.616 3.42066667,0.912333333 3.42066667,1.40233333 L3.42066667,10.304 C3.42066667,11.7911111 3.93166667,13.895 6.69122222,13.895 C9.22055556,13.895 10.136,12.2383333 10.136,10.1336667 L10.0947778,1.40233333 C10.0947778,0.912333333 9.83966667,0.616 9.51922222,0.445666667 L11.9847778,0.445666667 C11.6651111,0.616 11.4302222,0.912333333 11.4302222,1.40233333 M17.185,15.1052222 C15.2553333,15.1052222 13.8514444,14.4464444 13.1094444,14.0863333 L13.0013333,10.4961111 C13.4057778,12.0034444 14.6782222,14.0015556 16.8902222,14.0015556 C18.9941111,14.0015556 19.6311111,12.4926667 19.6311111,11.4512222 C19.6311111,9.41111111 17.78,9.135 15.8503333,8.09433333 C13.895,7.01011111 13.0448889,5.86444444 13.0448889,4.249 C13.0448889,1.35955556 15.7422222,0.212333333 17.6773333,0.212333333 C18.3991111,0.212333333 19.7998889,0.360111111 20.8841111,0.997888889 L20.9891111,4.14244444 C20.6935556,3.01622222 19.4817778,1.316 17.4408889,1.316 C15.827,1.316 15.1907778,2.44222222 15.1907778,3.35611111 C15.1907778,4.65188889 16.1046667,5.14188889 18.1004444,6.055 C20.0783333,6.98988889 22.1378889,7.69144444 22.1378889,10.6454444 C22.1378889,13.3007778 19.7998889,15.1052222 17.185,15.1052222" id="Shape"></path>
                    <path d="M28.7458889,1.50811111 C28.2341111,1.50811111 27.1086667,1.50811111 26.789,1.55088889 L26.789,13.7884444 L28.4884444,13.7884444 C33.292,13.7884444 34.6313333,10.5583333 34.6313333,7.45655556 C34.6313333,4.90855556 33.1426667,1.50811111 28.7458889,1.50811111 L28.7458889,1.50811111 Z M28.9986667,14.8936667 L23.5402222,14.8936667 C23.8575556,14.7015556 24.0932222,14.4036667 24.0932222,13.937 L24.0932222,1.40233333 C24.0932222,0.912333333 23.8575556,0.616 23.5402222,0.445666667 L29.1931111,0.445666667 C36.1814444,0.445666667 37.583,5.397 37.583,7.45655556 C37.583,11.1541111 34.7363333,14.8928889 28.9986667,14.8928889 L28.9986667,14.8936667 Z M42.4861111,4.58888889 C42.4861111,4.58888889 41.0402222,8.20166667 40.362,9.79377778 L44.6537778,9.79377778 C43.6558889,7.43477778 42.4861111,4.58966667 42.4861111,4.58966667 L42.4861111,4.58888889 Z M45.8422222,14.8928889 C46.3936667,14.5957778 46.5025556,14.2986667 46.3532222,13.853 C46.2886667,13.6398889 45.7372222,12.3433333 45.143,10.8997778 L39.9365556,10.8997778 C39.2987778,12.3433333 38.7893333,13.5971111 38.7457778,13.832 C38.556,14.3414444 38.6617778,14.6377778 39.2357778,14.8928889 L36.3051111,14.8928889 C36.8993333,14.49 37.0891111,14.2558889 37.3006667,13.853 C37.7051111,13.0456667 43.2942222,0 43.2942222,0 C43.2942222,0 48.9471111,13.0456667 49.3282222,13.853 C49.5405556,14.2986667 49.6875556,14.5327778 50.3914444,14.8928889 L45.8422222,14.8928889 Z" id="Shape"></path>
                    <g id="Group" transform="translate(0.000000, 16.333333)">
                        <path d="M49.7528889,0.600444444 C49.7528889,0.600444444 18.8331111,-0.166444444 0.521111111,9.59155556 C0.521111111,9.59155556 19.929,1.91644444 49.7528889,2.68411111 L49.7528889,0.600444444 M0.521111111,0.600444444 C0.521111111,0.600444444 10.9378889,0.710111111 17.4058889,3.12277778 C17.4058889,3.12277778 4.13933333,2.02611111 0.521111111,2.57522222 L0.521111111,0.600444444 M0.521111111,4.00088889 C0.521111111,4.00088889 7.97766667,3.67111111 12.4716667,4.10977778 C12.4716667,4.10977778 1.61933333,5.42422222 0.521111111,5.97255556 L0.521111111,4.00088889" id="Shape"></path>
                        <path d="M44.6288889,4.33533333 C44.5791111,4.33222222 44.5122222,4.33844444 44.4694444,4.33922222 C35.4783333,4.51188889 16.6226667,5.59611111 0.529666667,11.2816667 L0.529666667,18.1338889 L49.7583333,18.1338889 L49.7583333,4.33611111 C49.7583333,4.33611111 47.8481111,4.27622222 44.6288889,4.33611111" id="Path"></path>
                    </g>
                </g>
            </g>
        </g>
    </g>
</svg>