<?xml version="1.0" encoding="UTF-8"?>
<svg width="93px" height="23px" viewBox="0 0 93 23" version="1.1" xmlns="http://www.w3.org/2000/svg" xmlns:xlink="http://www.w3.org/1999/xlink">
    <!-- Generator: Sketch 54.1 (76490) - https://sketchapp.com -->
    <title>logo-marriott</title>
    <desc>Created with Sketch.</desc>
    <g id="Home-One-Page-Landing" stroke="none" stroke-width="1" fill="none" fill-rule="evenodd" fill-opacity="0.841100306">
        <g id="Artboard" transform="translate(-30.000000, -543.000000)" fill="#FFFFFF">
            <g id="Group-2" transform="translate(30.000000, 536.000000)">
                <g id="logo-marriott" transform="translate(0.000000, 7.000000)">
                    <path d="M85.5983333,19.0118 C84.4383667,18.4061333 84.2574333,16.6949333 84.2835,12.5334667 L84.3088,6.1548 L82.0931333,6.1525 L82.6083333,4.97183333 L84.3088,4.97183333 L84.3088,1.95116667 L88.3813333,0.442366667 L88.3813333,4.87216667 L90.2627333,4.87523333 L89.7736,6.18393333 L88.3813333,6.18163333 L88.3813333,17.2185667 C88.4587667,18.1079 88.7685,18.6307667 89.1802,19.0125667 L85.5983333,19.0125667 M53.6421333,5.46403333 C54.3896333,4.83536667 55.7044667,4.82233333 56.5547,5.22483333 C56.9150333,5.405 57.2500667,5.64496667 57.4823667,5.9593 L55.8332667,8.51536667 C55.6262667,8.35053333 55.4721667,8.27616667 55.2145667,8.142 C54.3896333,7.78933333 53.5394,7.9948 53.0495,8.441 L53.0495,15.9006667 C53.0242,17.1925 53.2565,18.3701 53.9258,18.9811333 L50.1890667,18.9811333 C49.3902,18.3831333 49.2100333,17.4271 49.1326,16.5891333 L49.1073,6.66846667 C49.1326,5.86346667 48.9263667,5.5108 48.6166333,5.06 L52.4829333,5.07533333 C52.7919,5.2992 52.8179667,5.68866667 52.9728333,5.98766667 L53.6421333,5.46403333 M58.3586667,7.91736667 C58.3326,6.97436667 58.5388333,5.84583333 57.9201333,5.03163333 L61.5027667,5.03163333 C61.7603667,5.2118 61.8891667,5.5108 61.9666,5.79446667 C62.1728333,6.0467 62.1467667,6.4078 62.2242,6.7068 L62.2755667,17.2776 C62.4043667,17.9062667 62.6619667,18.5403 63.1265667,19.0348 L59.2855667,19.0424667 C58.0236333,17.8265333 58.4361,15.8263 58.3326,13.7624333 L58.3586667,7.91736667" id="Shape"></path>
                    <path d="M64.0534667,8.02086667 C64.4406333,6.946 65.6512,6.4078 66.5275,5.82283333 C67.8676333,5.33063333 69.3626333,4.10396667 70.8568667,5.106 C72.1195667,5.92786667 73.2281667,6.85553333 74.0270333,8.12666667 C74.2072,8.61886667 74.3107,9.1724 74.4395,9.69603333 C74.4395,10.3990667 74.5936,10.9227 74.5683,11.6257333 C74.6196667,12.3885667 74.6196667,13.0770333 74.5683,13.8245333 C74.5161667,15.0949 73.9243,16.2318667 72.9184333,17.1127667 C71.4234333,18.4444667 69.5428,19.9548 67.5073,18.9221 C65.6772667,18.0688 63.5382667,16.3806 63.6670667,14.0614333 C63.5904,12.4169333 63.5122,10.9970667 63.7437333,9.39703333 C63.8219333,8.9332 63.7958667,8.42566667 64.0534667,8.02086667 L64.0534667,8.02086667 Z M67.7902,15.4966333 C67.9711333,16.1559667 68.3061667,16.9632667 69.1050333,17.0529667 C69.5688667,17.0683 69.9039,16.6796 70.1868,16.3499333 C71.0117333,14.7054333 70.8829333,12.9122 70.8829333,11.0407667 C70.6253333,9.65233333 70.9596,7.75253333 69.4653667,6.9 C68.9241,6.7068 68.5377,7.06483333 68.2026667,7.3945 C67.6100333,8.27616667 67.5586667,9.28586667 67.5073,10.4075 C67.3263667,12.2007333 67.5326,13.6873 67.7909667,15.4966333 L67.7902,15.4966333 Z" id="Shape"></path>
                    <path d="M77.2225,19.0118 C76.0625333,18.4061333 75.8823667,16.6949333 75.9076667,12.5334667 L75.9337333,6.1548 L73.7433667,6.1525 L74.2332667,4.97183333 L75.9337333,4.97183333 L75.9337333,1.95116667 L80.0323333,0.442366667 L80.0323333,4.87216667 L81.8876667,4.87523333 L81.3977667,6.18393333 L80.0323333,6.18163333 L80.0323333,17.2185667 C80.109,18.1079 80.4187333,18.6307667 80.8312,19.0125667 L77.2232667,19.0125667 M39.9073,6.6677 C39.8812333,5.86346667 39.7263667,5.51003333 39.4166333,5.06 L43.2829333,5.07533333 C43.5919,5.2992 43.6179667,5.68866667 43.7728333,5.98766667 L44.4421333,5.46403333 C45.1896333,4.83536667 46.5044667,4.82233333 47.3547,5.22483333 C47.7150333,5.405 48.0500667,5.64496667 48.2823667,5.9593 L46.6332667,8.51536667 C46.4262667,8.35053333 46.2721667,8.27616667 46.0145667,8.142 C45.1896333,7.78933333 44.3394,7.9948 43.8495,8.441 L43.8495,15.9006667 C43.8242,17.1925 44.0565,18.3701 44.7258,18.9811333 L40.9890667,18.9811333 C40.2162667,18.3831333 39.9847333,17.4938 39.9326,16.5891333 L39.9073,6.66846667 M10.6060667,10.5922667 L9.21456667,13.4895 C8.23553333,15.1976333 6.8954,17.2921667 4.83383333,17.8135 C4.03496667,18.0918 3.31276667,17.8395667 2.53996667,17.7851333 L0.0406333333,21.8699333 C0.2461,22.0708 0.504466667,22.2379333 0.7613,22.3360667 C5.1428,24.0112333 6.9207,22.2095667 11.2247667,12.4407 L15.3218333,21.1423667 L20.7598,21.1423667 L18.1822667,15.2697 L19.6512,12.2337 L23.6716,21.0089667 L28.8772667,21.0427 L19.7539333,1.02426667 L15.5541333,3.1096 L18.8523333,10.58 L17.4094667,13.5148 L11.3788667,0.506 L6.97283333,2.75846667 L10.6060667,10.5922667" id="Shape"></path>
                    <path d="M27.3316667,14.1227667 C27.4344,12.6722333 28.2332667,11.3114 29.5734,10.58 C30.9127667,9.75506667 32.4591333,9.4277 33.8514,8.70933333 C34.0829333,8.51536667 34.3666,8.27616667 34.3919,7.96183333 C34.4274611,7.6023121 34.2156788,7.26415385 33.8767,7.1392 C31.7637667,6.6907 30.0372333,8.00553333 28.5161667,9.30656667 C28.6971,8.35053333 28.8512,7.30403333 29.3150333,6.4078 C29.5220333,6.16783333 29.6761333,5.83816667 29.9590333,5.6603 C31.4540333,4.92583333 33.3093667,4.7173 34.9592333,4.83536667 C36.3246667,4.92583333 37.5873667,5.8972 38.0512,7.1392 C38.2835,7.72186667 38.2582,8.3812 38.3088,8.9792 L38.3348667,17.0844 C38.3348667,17.7851333 38.6699,18.4444667 39.0823667,19.0118 L35.2168333,19.0118 C34.753,18.5939667 34.5207,18.0688 34.3919,17.4117667 C33.3093667,18.3701 31.0415667,19.7899667 29.7022,18.8469667 C28.3099333,18.2206 27.0219333,16.1099667 27.3309,14.1227667 L27.3316667,14.1227667 Z M34.1856667,11.3037333 C34.1603667,10.7417667 33.7739667,10.6827333 33.4903,10.6827333 C32.5626333,10.8169 31.7637667,11.5927667 31.2999333,12.3885667 C30.9127667,13.0977333 30.8100333,13.6957333 30.7839667,14.3167333 C30.7839667,14.9868 30.7326,15.4836 31.0162667,15.9911333 C31.1711333,16.3208 31.4801,16.4710667 31.8151333,16.5584667 C32.4077667,16.6796 32.9490333,16.5147667 33.4128667,16.2004333 C34.5207,15.5871 34.3144667,14.3604333 34.3405333,13.2702333 L34.1856667,11.3037333 L34.1856667,11.3037333 Z M89.6693333,17.7981667 C89.6693333,16.9678667 90.3394,16.3568333 91.1382667,16.3568333 C91.9371333,16.3568333 92.6072,16.9678667 92.6072,17.7981667 C92.6072,18.6330667 91.9371333,19.2433333 91.1382667,19.2433333 C90.3394,19.2433333 89.6693333,18.6330667 89.6693333,17.7981667 Z M91.1382667,19.0041333 C91.8083333,19.0041333 92.3235333,18.4935333 92.3235333,17.7981667 C92.3235333,17.1150667 91.8083333,16.5968 91.1382667,16.5968 C90.4942667,16.5968 89.953,17.1150667 89.953,17.7981667 C89.953,18.4935333 90.4942667,19.0041333 91.1382667,19.0041333 Z M90.8293,18.6330667 L90.597,18.6330667 L90.597,16.9678667 L91.2157,16.9678667 C91.6021,16.9678667 91.8083333,17.1150667 91.8083333,17.4424333 C91.8083333,17.7414333 91.6281667,17.8702333 91.3705667,17.9009 L91.8597,18.6330667 L91.5760333,18.6330667 L91.1382667,17.9116333 L90.8293,17.9116333 L90.8293,18.6323 L90.8293,18.6330667 Z M91.1382667,17.6977333 C91.3445,17.6977333 91.5507333,17.6824 91.5507333,17.4271 C91.5507333,17.2201 91.3705667,17.1817667 91.1904,17.1817667 L90.8293,17.1817667 L90.8293,17.6977333 L91.1382667,17.6977333 Z" id="Shape"></path>
                </g>
            </g>
        </g>
    </g>
</svg>