<?xml version="1.0" encoding="UTF-8"?>
<svg width="101px" height="23px" viewBox="0 0 101 23" version="1.1" xmlns="http://www.w3.org/2000/svg" xmlns:xlink="http://www.w3.org/1999/xlink">
    <!-- Generator: Sketch 54.1 (76490) - https://sketchapp.com -->
    <title>logo-yamaha</title>
    <desc>Created with Sketch.</desc>
    <g id="Home-One-Page-Landing" stroke="none" stroke-width="1" fill="none" fill-rule="evenodd" fill-opacity="0.841100306">
        <g id="Artboard" transform="translate(-295.000000, -543.000000)" fill="#FFFFFF">
            <g id="Group-2" transform="translate(30.000000, 536.000000)">
                <g id="logo-yamaha" transform="translate(265.000000, 7.000000)">
                    <g id="Group">
                        <path d="M10.9487667,0.3565 C4.90206667,0.3565 0,5.25856667 0,11.3060333 C0,17.3527333 4.90206667,22.2555667 10.9487667,22.2555667 C16.9954667,22.2555667 21.8983,17.3527333 21.8983,11.3060333 C21.8983,5.25856667 16.997,0.3565 10.9487667,0.3565 Z M10.9487667,21.0197 C5.5844,21.0197 1.2351,16.6704 1.2351,11.3060333 C1.2351,5.9409 5.58363333,1.59236667 10.9487667,1.59236667 C16.3139,1.59236667 20.6624333,5.9409 20.6624333,11.3060333 C20.6624333,16.6704 16.3139,21.0197 10.9487667,21.0197 Z" id="Shape"></path>
                        <path d="M18.9067667,15.7159 L17.3174667,13.8590333 C17.2363411,13.7663984 17.1034498,13.7391306 16.9924,13.7923333 C16.7550943,13.9053715 16.4787395,13.9017426 16.2444837,13.7825125 C16.010228,13.6632823 15.8446612,13.4419843 15.7964,13.1836 L15.7971667,13.1836 C15.6823512,12.5661923 15.3026625,12.0301448 14.7583333,11.7169667 L14.0468667,11.3060333 L18.0948667,8.97 L17.5934667,8.10136667 L13.0448333,10.7272 L12.4982,10.4128667 L12.4982,9.78113333 L17.0460667,7.15453333 L16.5454333,6.28666667 L12.4982,8.62423333 L12.4982,7.80236667 C12.4982,7.1484 12.2068667,6.56343333 11.7468667,6.16936667 C11.5469117,5.99858444 11.4377846,5.74450146 11.4516056,5.4819038 C11.4654265,5.21930614 11.6006224,4.97808227 11.8174,4.82923333 C11.9192998,4.76013778 11.9623254,4.63137479 11.9224333,4.5149 L11.1097667,2.20953333 C11.0870163,2.14031683 11.0223928,2.09353282 10.9495333,2.09353282 C10.8766739,2.09353282 10.8120504,2.14031683 10.7893,2.20953333 L9.97663333,4.51413333 C9.93675188,4.63066392 9.97938117,4.75949213 10.0809,4.82923333 L10.0816667,4.82923333 C10.2979081,4.97846503 10.4326711,5.2195821 10.4464802,5.48195543 C10.4602893,5.74432875 10.3515815,5.99826008 10.1522,6.16936667 C9.6922,6.56343333 9.40086667,7.14916667 9.40086667,7.80236667 L9.40086667,8.62423333 L5.35286667,6.28666667 L4.853,7.15453333 L9.40086667,9.78113333 L9.40086667,10.4128667 L8.85423333,10.7272 L4.30636667,8.10136667 L3.80573333,8.97 L7.85373333,11.3060333 L7.14073333,11.7169667 C6.59655368,12.0301542 6.21711072,12.5662505 6.10266667,13.1836 C6.05412233,13.4418173 5.88851648,13.6628963 5.65436058,13.7820756 C5.42020467,13.901255 5.14400391,13.9050442 4.90666667,13.7923333 C4.79581655,13.7395234 4.66337749,13.7667626 4.58236667,13.8590333 L2.9923,15.7143667 C2.94383798,15.7691649 2.93581264,15.8488009 2.97236667,15.9121667 C3.00909346,15.9747418 3.08131761,16.0073195 3.15253333,15.9934333 L5.5545,15.5434 C5.6754435,15.5199546 5.76581868,15.4185963 5.7753,15.2957667 C5.79633309,15.0337993 5.93775594,14.7964284 6.15812132,14.6532209 C6.37848669,14.5100135 6.65283669,14.4771887 6.90076667,14.5643667 C7.47193333,14.766 8.12436667,14.7253667 8.69016667,14.398 L9.40163333,13.9878333 L9.40163333,18.6614333 L10.4036667,18.6614333 L10.4036667,13.4097667 L10.9503,13.0939 L11.4969333,13.409 L11.4969333,18.6606667 L12.4989667,18.6606667 L12.4989667,13.9878333 L13.2112,14.398 C13.777,14.7253667 14.4294333,14.766 15.0006,14.5643667 C15.2483228,14.4768451 15.5226534,14.5094362 15.7429747,14.6525625 C15.9632959,14.7956887 16.1045771,15.0330894 16.1253,15.295 C16.1347067,15.4180145 16.2250367,15.5196358 16.3461,15.5434 L18.7480667,15.9934333 C18.8191738,16.006587 18.8909022,15.9737881 18.9274667,15.9114 C18.9624704,15.8483858 18.9541904,15.7701866 18.9067667,15.7159 L18.9067667,15.7159 Z M9.4001,12.8309333 L8.06456667,13.6022 C7.80289415,13.7529369 7.46857025,13.6630058 7.31783333,13.4013333 C7.16709642,13.1396608 7.25702749,12.8053369 7.5187,12.6546 L8.85423333,11.8833333 L9.40086667,12.1992 L9.40086667,12.8309333 L9.4001,12.8309333 Z M10.4029,7.66053333 C10.4029,7.35863608 10.6476361,7.1139 10.9495333,7.1139 C11.2514306,7.1139 11.4961667,7.35863608 11.4961667,7.66053333 L11.4961667,9.20153333 L10.9495333,9.5174 L10.4029,9.2023 L10.4029,7.66053333 L10.4029,7.66053333 Z M11.5782,11.6686667 L10.9495333,12.0313 L10.3208667,11.6686667 L10.3208667,10.9426333 L10.9495333,10.5792333 L11.5782,10.9426333 L11.5782,11.6686667 Z M14.5804667,13.4021 C14.4289462,13.6633025 14.0947163,13.7527732 13.8329667,13.6022 L12.4974333,12.8309333 L12.4974333,12.1999667 L13.0440667,11.8841 L14.3796,12.6553667 C14.6409838,12.8063254 14.7308426,13.1403804 14.5804667,13.4021 Z" id="Shape"></path>
                    </g>
                    <path d="M83.8503333,9.08193333 L80.1964,9.08193333 L80.1964,1.7756 L76.8583333,1.7756 L76.8583333,20.8357 L80.1964,20.8357 L80.1964,12.466 L83.8503333,12.466 L83.8503333,20.8357 L87.262,20.8357 L87.262,1.77636667 L83.8503333,1.77636667 L83.8503333,9.08193333 Z M24.3355333,1.7756 L28.0400667,13.4626667 L28.0400667,20.8357 L31.7484333,20.8357 L31.7484333,13.0847 L35.5894333,1.77636667 L32.4683333,1.77636667 L29.9475333,9.20153333 L27.6651667,1.7756 L24.3355333,1.7756 Z M56.5301667,1.7756 L54.9316667,10.8422 L53.0771,1.7756 L47.8660667,1.7756 L47.8660667,20.8357 L50.8537667,20.8357 L50.8537667,6.46836667 L53.4044667,18.9581333 L56.1951333,18.9581333 L58.4568,6.2652 L58.4568,20.8357 L61.9604667,20.8357 L61.9604667,1.77636667 L56.5301667,1.7756 Z" id="Shape"></path>
                    <path d="M97.4326,1.7756 L92.2706333,1.7756 L88.7876667,20.8357 L91.8765667,20.8357 L92.6148667,16.4005333 L96.4574,16.4005333 L97.1742333,20.8357 L100.578233,20.8357 L97.4326,1.77636667 L97.4326,1.7756 Z M93.1446333,13.2234667 L94.5652667,4.6989 L95.9437333,13.2234667 L93.1454,13.2234667 L93.1446333,13.2234667 Z M66.9706333,1.7756 L63.4861333,20.8357 L66.5758,20.8357 L67.3148667,16.4005333 L71.1574,16.4005333 L71.8742333,20.8357 L75.2767,20.8357 L72.1318333,1.77636667 L66.9706333,1.77636667 L66.9706333,1.7756 Z M67.8446333,13.2234667 L69.2645,4.6989 L70.6429667,13.2234667 L67.8446333,13.2234667 Z M37.9768333,1.7756 L34.4931,20.8357 L37.5827667,20.8357 L38.3226,16.4005333 L42.1636,16.4005333 L42.8812,20.8357 L46.2836667,20.8357 L43.1388,1.77636667 L37.9768333,1.77636667 L37.9768333,1.7756 Z M38.8508333,13.2234667 L40.2714667,4.6989 L41.6499333,13.2234667 L38.8516,13.2234667 L38.8508333,13.2234667 Z" id="Shape"></path>
                </g>
            </g>
        </g>
    </g>
</svg>