<?xml version="1.0" encoding="UTF-8"?>
<svg width="59px" height="24px" viewBox="0 0 59 24" version="1.1" xmlns="http://www.w3.org/2000/svg" xmlns:xlink="http://www.w3.org/1999/xlink">
    <!-- Generator: Sketch 54.1 (76490) - https://sketchapp.com -->
    <title>logo-jet</title>
    <desc>Created with Sketch.</desc>
    <g id="Home-One-Page-Landing" stroke="none" stroke-width="1" fill="none" fill-rule="evenodd" fill-opacity="0.841100306">
        <g id="Artboard" transform="translate(-591.000000, -542.000000)" fill="#FFFFFF">
            <g id="Group-2" transform="translate(30.000000, 536.000000)">
                <g id="logo-jet" transform="translate(561.000000, 6.000000)">
                    <path d="M0.2856,13.8664 L0.2856,15.4072 C0.2856,20.5352 3.7616,24 8.668,24 C13.6376,24 17.0856,20.476 17.0856,15.3776 L17.0856,7.2 L12.1888,7.2 L12.1888,15.6736 C12.1888,17.5288 11.008,19.2472 8.6792,19.2472 C6.4632,19.2472 5.1848,17.6664 5.1848,15.676 L5.1848,13.8664 L0.2856,13.8664 Z" id="Path"></path>
                    <path d="M29.548,4 C24.1696,4 19.4856,8.3552 19.4856,14.0432 C19.4856,19.4816 23.9416,24 29.556,24 C33.8104,24 37.788,21.8648 39.0264,17.476 L33.6544,17.476 C32.996,18.6952 31.62,19.7016 29.4968,19.7016 C26.8776,19.7016 25.0808,17.9448 24.6064,15.9176 L39.4128,15.9176 L39.4856,14.4408 C39.4856,7.7368 34.8832,4 29.548,4 Z M29.5192,8.3 C31.9048,8.3 33.8504,9.7456 34.4232,11.9344 L24.6616,11.9344 C25.1976,10.208 26.7976,8.3 29.5192,8.3 Z" id="Shape"></path>
                    <path d="M58.6856,13.7776 L58.6856,15.4072 C58.6856,20.5352 55.2096,24 50.304,24 C45.3352,24 41.8864,20.476 41.8864,15.3776 L41.8864,0.8 L46.7832,0.8 L46.7832,4.9776 L53.7912,4.9776 L53.7912,9.6888 L46.7832,9.6888 L46.7832,15.6736 C46.7832,17.5288 47.964,19.2472 50.2928,19.2472 C52.5088,19.2472 53.788,17.6664 53.788,15.676 L53.788,13.7776 L58.6864,13.7776 L58.6856,13.7776 Z M17.8856,2.8 C17.8856,4.3463973 16.6319973,5.6 15.0856,5.6 C13.5392027,5.6 12.2856,4.3463973 12.2856,2.8 C12.2856,1.2536027 13.5392027,2.84068575e-16 15.0856,0 C16.6319973,-2.84068575e-16 17.8856,1.2536027 17.8856,2.8 Z M5.8856,2.8 C5.88560001,3.80034366 5.35192303,4.72469933 4.48560001,5.22487117 C3.61927699,5.725043 2.55192301,5.725043 1.68559999,5.22487117 C0.819276967,4.72469933 0.285599985,3.80034366 0.2856,2.8 C0.2856,1.2536027 1.5392027,1.172247e-15 3.0856,8.8817842e-16 C4.6319973,6.04109844e-16 5.8856,1.2536027 5.8856,2.8 Z" id="Shape"></path>
                </g>
            </g>
        </g>
    </g>
</svg>