<svg width="182" height="183" viewBox="0 0 182 183" fill="none" xmlns="http://www.w3.org/2000/svg">
<path opacity="0.25" fill-rule="evenodd" clip-rule="evenodd" d="M29.4566 130.979C28.5258 132.234 27.2388 133.917 25.6852 135.917C24.215 137.807 22.8654 139.526 21.5155 141.234C21.0429 141.832 20.6041 142.386 20.2105 142.881C19.9748 143.178 19.8061 143.39 19.7179 143.501C18.2917 145.292 18.4044 147.86 19.982 149.518L33.0846 163.294C34.7745 165.07 37.563 165.203 39.414 163.595C39.5232 163.5 39.5232 163.5 40.0223 163.068C40.5082 162.647 41.0507 162.177 41.6361 161.672C43.3081 160.228 44.9879 158.785 46.5654 157.439C48.506 155.784 50.0005 154.523 51.1723 153.552C57.6851 158.171 65.5561 161.384 74.5757 163.382C74.7209 164.628 74.8923 166.204 75.0843 168.05C75.129 168.479 75.1747 168.922 75.2211 169.376C75.4303 171.419 75.6474 173.61 75.8598 175.801C75.9341 176.569 76.0026 177.281 76.0635 177.92C76.126 178.577 76.126 178.577 76.1396 178.721C76.3614 181.077 78.3388 182.876 80.7047 182.876L99.4238 182.876C101.73 182.876 103.677 181.164 103.971 178.877C103.99 178.734 103.99 178.734 104.074 178.085C104.156 177.453 104.248 176.749 104.347 175.991C104.631 173.824 104.919 171.658 105.193 169.638C105.246 169.25 105.246 169.25 105.299 168.862C105.577 166.825 105.82 165.092 106.02 163.74C114.93 162.038 123.217 158.682 130.283 153.836C131.432 154.735 132.906 155.934 134.624 157.364C136.578 158.994 138.21 160.377 139.827 161.76C140.393 162.244 140.917 162.694 141.385 163.097C141.665 163.338 141.865 163.511 141.968 163.6C143.789 165.176 146.518 165.076 148.218 163.37L161.321 150.22C162.904 148.63 163.105 146.127 161.795 144.306C161.71 144.188 161.71 144.188 161.324 143.65C160.949 143.127 160.53 142.544 160.08 141.914C158.793 140.116 157.506 138.311 156.305 136.617C154.784 134.47 153.607 132.794 152.719 131.507C157.858 124.643 161.5 115.702 162.638 106.856C162.887 106.834 163.148 106.811 163.422 106.788C164.776 106.675 166.393 106.555 168.214 106.431C170.279 106.291 172.494 106.153 174.71 106.023C175.486 105.977 176.207 105.936 176.853 105.9C177.24 105.878 177.517 105.863 177.661 105.855C180.094 105.724 182 103.713 182 101.277L182 82.4922C182 80.144 180.226 78.1753 177.89 77.9316C177.743 77.9163 177.464 77.8868 177.072 77.8448C176.417 77.7746 175.686 77.695 174.899 77.6076C172.651 77.3582 170.404 77.0969 168.312 76.8369C167.116 76.6883 166.005 76.5442 164.996 76.4062C163.96 76.2647 163.044 76.1312 162.267 76.0082C161.057 68.2189 157.658 60.804 152.099 52.4531C153.047 51.1825 154.354 49.5 155.93 47.5126C157.544 45.4817 158.954 43.7308 160.364 41.9944C160.857 41.3863 161.315 40.8237 161.727 40.3205C161.973 40.0192 162.149 39.8042 162.24 39.6926C163.761 37.8389 163.597 35.1263 161.864 33.4694L148.763 20.9458C147.108 19.3635 144.539 19.2449 142.745 20.6682C142.634 20.7559 142.42 20.9251 142.121 21.1616C141.62 21.5567 141.06 21.9972 140.455 22.4717C138.726 23.8268 136.982 25.1816 135.333 26.4439C132.865 28.329 131.143 29.6127 129.862 30.5226C120.642 24.8519 113.49 21.6441 105.795 20.4457C105.768 20.18 105.74 19.8992 105.711 19.604C105.577 18.2241 105.435 16.5631 105.288 14.6837C105.125 12.6099 104.966 10.384 104.816 8.15758C104.764 7.3779 104.717 6.65404 104.675 6.00478C104.65 5.61616 104.633 5.33807 104.624 5.19351C104.474 2.77538 102.47 0.890614 100.047 0.890614L81.953 0.890612C79.602 0.890612 77.632 2.66862 77.3917 5.00724C77.3767 5.15352 77.3477 5.43163 77.3063 5.82263C77.2371 6.47635 77.1586 7.20528 77.0722 7.99047C76.8257 10.2323 76.5663 12.4734 76.3066 14.5603C76.1383 15.9136 75.9753 17.1569 75.8198 18.2655C75.6809 19.2561 75.5498 20.126 75.429 20.8568C66.521 22.8492 58.2889 26.2816 51.1094 31.0629C49.8946 30.1267 48.3079 28.8435 46.4463 27.2983C46.209 27.1012 46.209 27.1012 45.9718 26.9037C44.3699 25.5692 42.6775 24.1366 41.0029 22.7035C40.4164 22.2017 39.8743 21.7358 39.3899 21.318C39.1001 21.0681 38.8947 20.8903 38.7869 20.7968C36.9341 19.1894 34.1444 19.3248 32.456 21.104L19.9784 34.2526C18.325 35.9948 18.2963 38.7177 19.9126 40.4945C20.007 40.5983 20.1868 40.7965 20.4397 41.0763C20.8627 41.5442 21.3343 42.0679 21.8423 42.6348C23.293 44.2532 24.7433 45.8903 26.0939 47.4414C26.3105 47.6903 26.3105 47.6903 26.5266 47.9394C28.001 49.6399 29.2371 51.1036 30.1613 52.2503C25.2612 59.0689 21.8867 66.7822 20.0381 75.5644C19.5218 75.6418 18.9373 75.7235 18.2914 75.8083C16.9954 75.9785 15.4793 76.1584 13.7894 76.3445C11.6906 76.5756 9.43669 76.8042 7.18208 77.0197C6.3924 77.0952 5.6593 77.1637 5.00185 77.2238C4.60862 77.2598 4.32894 77.2849 4.18184 77.2979C1.81502 77.5069 2.61048e-06 79.4894 2.40276e-06 81.8654L6.51134e-07 101.902C4.39891e-07 104.318 1.87517 106.32 4.28636 106.477C4.43148 106.487 4.7103 106.505 5.09997 106.532C5.75093 106.576 6.47665 106.626 7.25833 106.681C9.4905 106.838 11.7221 107.005 13.8015 107.174C15.4272 107.306 16.8922 107.433 18.1555 107.554C18.8554 107.621 19.4863 107.686 20.0409 107.747C22.4012 116.645 25.2996 123.785 29.4566 130.979Z" fill="#81CBDF"/>
<path fill-rule="evenodd" clip-rule="evenodd" d="M92.0906 136.97C117.369 136.97 137.855 116.416 137.855 91.0679C137.855 65.72 117.369 45.1653 92.0906 45.1653C66.8134 45.1653 46.3276 65.7203 46.3276 91.0679C46.3276 116.415 66.8134 136.97 92.0906 136.97Z" fill="#F6F7FA"/>
</svg>
