<svg xmlns="http://www.w3.org/2000/svg" style="display: none;">
  <symbol fill="none" xmlns="http://www.w3.org/2000/svg" viewBox="0 0 15 14" id="info-circle">
    <path d="M7.5 9.5V7M7.5 4.5H7.50625M13.75 7C13.75 10.4518 10.9518 13.25 7.5 13.25C4.04822 13.25 1.25 10.4518 1.25 7C1.25 3.54822 4.04822 0.75 7.5 0.75C10.9518 0.75 13.75 3.54822 13.75 7Z" stroke="#768BA1" stroke-width="1.25" stroke-linecap="round" stroke-linejoin="round"></path>
  </symbol>
  <symbol  fill="none" xmlns="http://www.w3.org/2000/svg" viewBox="0 0 22 23" id="dataflow-04">
    <path d="M3 17.9429V17.7429C3 16.0627 3 15.2226 3.32698 14.5809C3.6146 14.0164 4.07354 13.5575 4.63803 13.2699C5.27976 12.9429 6.11984 12.9429 7.8 12.9429H14.2C15.8802 12.9429 16.7202 12.9429 17.362 13.2699C17.9265 13.5575 18.3854 14.0164 18.673 14.5809C19 15.2226 19 16.0627 19 17.7429V17.9429M3 17.9429C1.89543 17.9429 1 18.8383 1 19.9429C1 21.0474 1.89543 21.9429 3 21.9429C4.10457 21.9429 5 21.0474 5 19.9429C5 18.8383 4.10457 17.9429 3 17.9429ZM19 17.9429C17.8954 17.9429 17 18.8383 17 19.9429C17 21.0474 17.8954 21.9429 19 21.9429C20.1046 21.9429 21 21.0474 21 19.9429C21 18.8383 20.1046 17.9429 19 17.9429ZM11 17.9429C9.89543 17.9429 9 18.8383 9 19.9429C9 21.0474 9.89543 21.9429 11 21.9429C12.1046 21.9429 13 21.0474 13 19.9429C13 18.8383 12.1046 17.9429 11 17.9429ZM11 17.9429V7.94287M5 7.94287H17C17.9319 7.94287 18.3978 7.94287 18.7654 7.79063C19.2554 7.58764 19.6448 7.19829 19.8478 6.70824C20 6.3407 20 5.87475 20 4.94287C20 4.01099 20 3.54505 19.8478 3.1775C19.6448 2.68745 19.2554 2.2981 18.7654 2.09511C18.3978 1.94287 17.9319 1.94287 17 1.94287H5C4.06812 1.94287 3.60218 1.94287 3.23463 2.09511C2.74458 2.2981 2.35523 2.68745 2.15224 3.1775C2 3.54505 2 4.01099 2 4.94287C2 5.87475 2 6.3407 2.15224 6.70824C2.35523 7.19829 2.74458 7.58764 3.23463 7.79063C3.60218 7.94287 4.06812 7.94287 5 7.94287Z" stroke="#071621" stroke-width="2" stroke-linecap="round" stroke-linejoin="round"/>
  </symbol>
  <symbol fill="none" xmlns="http://www.w3.org/2000/svg" viewBox="0 0 24 25" id="dataflow-03">
    <path d="M11 5.44287H18.3C19.4201 5.44287 19.9802 5.44287 20.408 5.66086C20.7843 5.8526 21.0903 6.15857 21.282 6.53489C21.5 6.96271 21.5 7.52277 21.5 8.64287V9.94287C21.5 10.8748 21.5 11.3407 21.3478 11.7082C21.1448 12.1983 20.7554 12.5876 20.2654 12.7906C19.8978 12.9429 19.4319 12.9429 18.5 12.9429M13 20.4429H5.7C4.5799 20.4429 4.01984 20.4429 3.59202 20.2249C3.21569 20.0331 2.90973 19.7272 2.71799 19.3509C2.5 18.923 2.5 18.363 2.5 17.2429V15.9429C2.5 15.011 2.5 14.545 2.65224 14.1775C2.85523 13.6874 3.24458 13.2981 3.73463 13.0951C4.10218 12.9429 4.56812 12.9429 5.5 12.9429M10.3 15.4429H13.7C13.98 15.4429 14.12 15.4429 14.227 15.3884C14.3211 15.3404 14.3976 15.2639 14.4455 15.1699C14.5 15.0629 14.5 14.9229 14.5 14.6429V11.2429C14.5 10.9628 14.5 10.8228 14.4455 10.7159C14.3976 10.6218 14.3211 10.5453 14.227 10.4974C14.12 10.4429 13.98 10.4429 13.7 10.4429H10.3C10.02 10.4429 9.87996 10.4429 9.773 10.4974C9.67892 10.5453 9.60243 10.6218 9.5545 10.7159C9.5 10.8228 9.5 10.9628 9.5 11.2429V14.6429C9.5 14.9229 9.5 15.0629 9.5545 15.1699C9.60243 15.2639 9.67892 15.3404 9.773 15.3884C9.87996 15.4429 10.02 15.4429 10.3 15.4429ZM17.8 22.9429H21.2C21.48 22.9429 21.62 22.9429 21.727 22.8884C21.8211 22.8404 21.8976 22.7639 21.9455 22.6699C22 22.5629 22 22.4229 22 22.1429V18.7429C22 18.4628 22 18.3228 21.9455 18.2159C21.8976 18.1218 21.8211 18.0453 21.727 17.9974C21.62 17.9429 21.48 17.9429 21.2 17.9429H17.8C17.52 17.9429 17.38 17.9429 17.273 17.9974C17.1789 18.0453 17.1024 18.1218 17.0545 18.2159C17 18.3228 17 18.4628 17 18.7429V22.1429C17 22.4229 17 22.5629 17.0545 22.6699C17.1024 22.7639 17.1789 22.8404 17.273 22.8884C17.38 22.9429 17.52 22.9429 17.8 22.9429ZM2.8 7.94287H6.2C6.48003 7.94287 6.62004 7.94287 6.727 7.88837C6.82108 7.84044 6.89757 7.76395 6.9455 7.66987C7 7.56291 7 7.4229 7 7.14287V3.74287C7 3.46284 7 3.32283 6.9455 3.21588C6.89757 3.12179 6.82108 3.0453 6.727 2.99737C6.62004 2.94287 6.48003 2.94287 6.2 2.94287H2.8C2.51997 2.94287 2.37996 2.94287 2.273 2.99737C2.17892 3.0453 2.10243 3.12179 2.0545 3.21588C2 3.32283 2 3.46284 2 3.74287V7.14287C2 7.4229 2 7.56291 2.0545 7.66987C2.10243 7.76395 2.17892 7.84044 2.273 7.88837C2.37996 7.94287 2.51997 7.94287 2.8 7.94287Z" stroke="#071621" stroke-width="2" stroke-linecap="round" stroke-linejoin="round"/>
  </symbol>
  <symbol fill="none" xmlns="http://www.w3.org/2000/svg" viewBox="0 0 24 25" id="map-02">
    <path d="M8 3.94287L16 21.9429M3 17.9429L12 12.9429M7.8 21.9429H16.2C17.8802 21.9429 18.7202 21.9429 19.362 21.6159C19.9265 21.3283 20.3854 20.8693 20.673 20.3048C21 19.6631 21 18.823 21 17.1429V8.74287C21 7.06271 21 6.22263 20.673 5.5809C20.3854 5.01641 19.9265 4.55747 19.362 4.26985C18.7202 3.94287 17.8802 3.94287 16.2 3.94287H7.8C6.11984 3.94287 5.27976 3.94287 4.63803 4.26985C4.07354 4.55747 3.6146 5.01641 3.32698 5.5809C3 6.22263 3 7.06271 3 8.74287V17.1429C3 18.823 3 19.6631 3.32698 20.3048C3.6146 20.8693 4.07354 21.3283 4.63803 21.6159C5.27976 21.9429 6.11984 21.9429 7.8 21.9429Z" stroke="#071621" stroke-width="2" stroke-linecap="round" stroke-linejoin="round"/>
  </symbol>
  <symbol fill="none" xmlns="http://www.w3.org/2000/svg" viewBox="0 0 24 24" id="x-close">
    <path d="M18 6L6 18M6 6L18 18" stroke="#071621" stroke-width="2" stroke-linecap="round" stroke-linejoin="round"/>
  </symbol>
  <symbol viewBox="0 0 24 24" fill="none" xmlns="http://www.w3.org/2000/svg" id="search-lg">
    <path d="M21 21L17.5001 17.5M20 11.5C20 16.1944 16.1944 20 11.5 20C6.80558 20 3 16.1944 3 11.5C3 6.80558 6.80558 3 11.5 3C16.1944 3 20 6.80558 20 11.5Z" stroke-width="2" stroke-linecap="round" stroke-linejoin="round"/>
  </symbol>
  <symbol viewBox="0 0 20 21" fill="none" xmlns="http://www.w3.org/2000/svg" id="stars-01">
    <path d="M5.41699 11.3083L6.07071 12.6158C6.29195 13.0582 6.40257 13.2795 6.55035 13.4712C6.68149 13.6413 6.834 13.7938 7.00412 13.925C7.19584 14.0728 7.41708 14.1834 7.85956 14.4046L9.16699 15.0583L7.85956 15.712C7.41708 15.9333 7.19584 16.0439 7.00412 16.1917C6.834 16.3228 6.68149 16.4753 6.55035 16.6455C6.40257 16.8372 6.29195 17.0584 6.07071 17.5009L5.41699 18.8083L4.76328 17.5009C4.54204 17.0584 4.43142 16.8372 4.28363 16.6455C4.1525 16.4753 3.99999 16.3228 3.82986 16.1917C3.63815 16.0439 3.4169 15.9333 2.97442 15.712L1.66699 15.0583L2.97442 14.4046C3.4169 14.1834 3.63815 14.0728 3.82986 13.925C3.99999 13.7938 4.1525 13.6413 4.28363 13.4712C4.43142 13.2795 4.54204 13.0582 4.76328 12.6158L5.41699 11.3083Z" fill="currentColor" />
    <path d="M12.5003 2.14166L13.4825 4.69535C13.7175 5.30637 13.835 5.61188 14.0178 5.86886C14.1797 6.09662 14.3787 6.29562 14.6065 6.45757C14.8634 6.6403 15.169 6.7578 15.78 6.99281L18.3337 7.975L15.78 8.95718C15.169 9.19219 14.8634 9.3097 14.6065 9.49242C14.3787 9.65438 14.1797 9.85337 14.0178 10.0811C13.835 10.3381 13.7175 10.6436 13.4825 11.2546L12.5003 13.8083L11.5181 11.2546C11.2831 10.6436 11.1656 10.3381 10.9829 10.0811C10.8209 9.85337 10.622 9.65438 10.3942 9.49242C10.1372 9.3097 9.8317 9.19219 9.22067 8.95718L6.66699 7.975L9.22067 6.99281C9.8317 6.7578 10.1372 6.6403 10.3942 6.45757C10.622 6.29562 10.8209 6.09662 10.9829 5.86886C11.1656 5.61188 11.2831 5.30637 11.5181 4.69534L12.5003 2.14166Z" fill="currentColor"/>
  </symbol>
  <symbol viewBox="0 0 24 24" fill="none" xmlns="http://www.w3.org/2000/svg" id="stars-02">
    <path d="M4.5 22V17M4.5 7V2M2 4.5H7M2 19.5H7M13 3L11.2658 7.50886C10.9838 8.24209 10.8428 8.60871 10.6235 8.91709C10.4292 9.1904 10.1904 9.42919 9.91709 9.62353C9.60871 9.8428 9.24209 9.98381 8.50886 10.2658L4 12L8.50886 13.7342C9.24209 14.0162 9.60871 14.1572 9.91709 14.3765C10.1904 14.5708 10.4292 14.8096 10.6235 15.0829C10.8428 15.3913 10.9838 15.7579 11.2658 16.4911L13 21L14.7342 16.4911C15.0162 15.7579 15.1572 15.3913 15.3765 15.0829C15.5708 14.8096 15.8096 14.5708 16.0829 14.3765C16.3913 14.1572 16.7579 14.0162 17.4911 13.7342L22 12L17.4911 10.2658C16.7579 9.98381 16.3913 9.8428 16.0829 9.62353C15.8096 9.42919 15.5708 9.1904 15.3765 8.91709C15.1572 8.60871 15.0162 8.24209 14.7342 7.50886L13 3Z" stroke="currentColor" stroke-width="2" stroke-linecap="round" stroke-linejoin="round"/>
  </symbol>
  <symbol viewBox="0 0 24 25" fill="none" xmlns="http://www.w3.org/2000/svg" id="chart-breakout-square">
    <path d="M11 3.47498H7.8C6.11984 3.47498 5.27976 3.47498 4.63803 3.80196C4.07354 4.08958 3.6146 4.54852 3.32698 5.113C3 5.75474 3 6.59482 3 8.27498V16.675C3 18.3551 3 19.1952 3.32698 19.8369C3.6146 20.4014 4.07354 20.8604 4.63803 21.148C5.27976 21.475 6.11984 21.475 7.8 21.475H16.2C17.8802 21.475 18.7202 21.475 19.362 21.148C19.9265 20.8604 20.3854 20.4014 20.673 19.8369C21 19.1952 21 18.3551 21 16.675V13.475M12 8.47498H16V12.475M15.5 3.97498V2.47498M19.4393 5.03564L20.5 3.97498M20.5103 8.97498H22.0103M3 13.8221C3.65194 13.9227 4.31987 13.975 5 13.975C9.38636 13.975 13.2653 11.8026 15.6197 8.47498" stroke="currentColor" stroke-width="2" stroke-linecap="round" stroke-linejoin="round"/>
  </symbol>
  <symbol viewBox="0 0 24 25" fill="none" xmlns="http://www.w3.org/2000/svg" id="user-square">
    <path d="M4.00002 22.2924C4.6026 22.475 5.41649 22.475 6.8 22.475H17.2C18.5835 22.475 19.3974 22.475 20 22.2924M4.00002 22.2924C3.87082 22.2533 3.75133 22.2057 3.63803 22.148C3.07354 21.8604 2.6146 21.4014 2.32698 20.8369C2 20.1952 2 19.3551 2 17.675V7.27498C2 5.59482 2 4.75474 2.32698 4.113C2.6146 3.54852 3.07354 3.08958 3.63803 2.80196C4.27976 2.47498 5.11984 2.47498 6.8 2.47498H17.2C18.8802 2.47498 19.7202 2.47498 20.362 2.80196C20.9265 3.08958 21.3854 3.54852 21.673 4.113C22 4.75474 22 5.59482 22 7.27498V17.675C22 19.3551 22 20.1952 21.673 20.8369C21.3854 21.4014 20.9265 21.8604 20.362 22.148C20.2487 22.2057 20.1292 22.2533 20 22.2924M4.00002 22.2924C4.00035 21.4831 4.00521 21.0548 4.07686 20.6946C4.39249 19.1079 5.63288 17.8675 7.21964 17.5518C7.60603 17.475 8.07069 17.475 9 17.475H15C15.9293 17.475 16.394 17.475 16.7804 17.5518C18.3671 17.8675 19.6075 19.1079 19.9231 20.6946C19.9948 21.0548 19.9996 21.4831 20 22.2924M16 9.97498C16 12.1841 14.2091 13.975 12 13.975C9.79086 13.975 8 12.1841 8 9.97498C8 7.76584 9.79086 5.97498 12 5.97498C14.2091 5.97498 16 7.76584 16 9.97498Z" stroke="currentColor" stroke-width="2" stroke-linecap="round" stroke-linejoin="round"/>
  </symbol>
  <symbol viewBox="0 0 24 25" fill="none" xmlns="http://www.w3.org/2000/svg" id="settings-02">
    <path d="M9.39504 19.8461L9.97949 21.1605C10.1532 21.5518 10.4368 21.8843 10.7957 22.1176C11.1547 22.3509 11.5736 22.475 12.0017 22.475C12.4298 22.475 12.8488 22.3509 13.2077 22.1176C13.5667 21.8843 13.8502 21.5518 14.0239 21.1605L14.6084 19.8461C14.8164 19.3797 15.1664 18.9908 15.6084 18.735C16.0532 18.4784 16.5677 18.3691 17.0784 18.4228L18.5084 18.575C18.934 18.62 19.3636 18.5406 19.7451 18.3463C20.1265 18.152 20.4434 17.8513 20.6573 17.4805C20.8714 17.11 20.9735 16.6853 20.951 16.2579C20.9285 15.8305 20.7825 15.4188 20.5306 15.0728L19.6839 13.9094C19.3825 13.4921 19.2214 12.9898 19.2239 12.475C19.2238 11.9616 19.3864 11.4613 19.6884 11.0461L20.535 9.88275C20.7869 9.53673 20.933 9.12505 20.9554 8.69765C20.9779 8.27025 20.8759 7.84552 20.6617 7.47498C20.4478 7.10421 20.1309 6.80346 19.7495 6.6092C19.3681 6.41494 18.9385 6.33551 18.5128 6.38053L17.0828 6.53275C16.5722 6.58638 16.0576 6.4771 15.6128 6.22053C15.1699 5.96323 14.8199 5.57233 14.6128 5.10386L14.0239 3.78942C13.8502 3.39815 13.5667 3.06569 13.2077 2.83237C12.8488 2.59906 12.4298 2.47491 12.0017 2.47498C11.5736 2.47491 11.1547 2.59906 10.7957 2.83237C10.4368 3.06569 10.1532 3.39815 9.97949 3.78942L9.39504 5.10386C9.18797 5.57233 8.83792 5.96323 8.39504 6.22053C7.95026 6.4771 7.43571 6.58638 6.92504 6.53275L5.4906 6.38053C5.06493 6.33551 4.63534 6.41494 4.25391 6.6092C3.87249 6.80346 3.55561 7.10421 3.34171 7.47498C3.12753 7.84552 3.02549 8.27025 3.04798 8.69765C3.07046 9.12505 3.2165 9.53673 3.46838 9.88275L4.31504 11.0461C4.61698 11.4613 4.77958 11.9616 4.77949 12.475C4.77958 12.9884 4.61698 13.4886 4.31504 13.9039L3.46838 15.0672C3.2165 15.4132 3.07046 15.8249 3.04798 16.2523C3.02549 16.6797 3.12753 17.1044 3.34171 17.475C3.55582 17.8455 3.87274 18.1461 4.25411 18.3404C4.63548 18.5346 5.06496 18.6142 5.4906 18.5694L6.9206 18.4172C7.43127 18.3636 7.94581 18.4729 8.3906 18.7294C8.83513 18.986 9.18681 19.377 9.39504 19.8461Z" stroke="currentColor" stroke-width="2" stroke-linecap="round" stroke-linejoin="round"/>
    <path d="M11.9999 15.475C13.6568 15.475 14.9999 14.1318 14.9999 12.475C14.9999 10.8181 13.6568 9.47498 11.9999 9.47498C10.3431 9.47498 8.99992 10.8181 8.99992 12.475C8.99992 14.1318 10.3431 15.475 11.9999 15.475Z" stroke="currentColor" stroke-width="2" stroke-linecap="round" stroke-linejoin="round"/>
  </symbol>
  <symbol viewBox="0 0 24 25" fill="none" xmlns="http://www.w3.org/2000/svg" id="upkeep-logo">
    <path fill-rule="evenodd" clip-rule="evenodd" d="M20.1156 7.31959C20.2384 7.15407 20.4081 6.93214 20.613 6.66845C20.8068 6.4192 20.9848 6.19256 21.1628 5.96732C21.2251 5.88845 21.283 5.81541 21.3349 5.75003C21.366 5.71086 21.3882 5.6829 21.3999 5.66829C21.5879 5.43219 21.5731 5.09355 21.365 4.87483L19.6372 3.0583C19.4144 2.82402 19.0467 2.8065 18.8026 3.01854C18.7882 3.03105 18.7882 3.03105 18.7224 3.0881C18.6583 3.14362 18.5867 3.2055 18.5095 3.27215C18.2891 3.46253 18.0675 3.65288 17.8595 3.83038C17.6036 4.04858 17.4065 4.2149 17.252 4.34294C16.3932 3.7338 15.3553 3.31007 14.1659 3.04668C14.1467 2.88235 14.1241 2.67447 14.0988 2.43114C14.0929 2.37449 14.0869 2.31616 14.0807 2.2563C14.0532 1.98686 14.0245 1.69791 13.9965 1.40893C13.9867 1.30776 13.9777 1.21382 13.9697 1.12954C13.9614 1.04292 13.9614 1.04292 13.9596 1.02391C13.9304 0.713307 13.6696 0.475952 13.3576 0.475952H10.8892C10.5851 0.475952 10.3283 0.701768 10.2895 1.00335C10.2871 1.02219 10.2871 1.02219 10.276 1.10782C10.2651 1.19113 10.253 1.28399 10.2399 1.38399C10.2025 1.66965 10.1645 1.95528 10.1284 2.22167C10.1214 2.27288 10.1214 2.27288 10.1144 2.32396C10.0778 2.59257 10.0457 2.8212 10.0194 2.99945C8.84437 3.22391 7.75159 3.66639 6.8198 4.30545C6.66831 4.18696 6.47395 4.02877 6.24745 3.84027C5.98974 3.62523 5.77448 3.44293 5.56127 3.26058C5.48661 3.19672 5.41756 3.13744 5.35583 3.08428C5.3189 3.05247 5.29254 3.0297 5.27894 3.01792C5.03888 2.81005 4.67893 2.82329 4.45479 3.04824L2.72697 4.78235C2.5181 4.99199 2.49164 5.32199 2.66444 5.56222C2.67563 5.57777 2.67563 5.57777 2.72651 5.64862C2.77601 5.71758 2.83118 5.79454 2.8906 5.87756C3.06033 6.11469 3.23004 6.35274 3.38833 6.57606C3.5889 6.85917 3.74408 7.08019 3.86127 7.24991C3.18356 8.15505 2.70328 9.33416 2.55324 10.5006C2.52039 10.5036 2.48592 10.5065 2.44989 10.5095C2.27127 10.5245 2.05813 10.5403 1.81798 10.5566C1.54569 10.5752 1.25351 10.5934 0.961267 10.6105C0.858932 10.6165 0.763922 10.622 0.678695 10.6267C0.627666 10.6296 0.59116 10.6316 0.572114 10.6326C0.251282 10.6499 0 10.9151 0 11.2364V13.7135C0 14.0231 0.233942 14.2827 0.541929 14.3148C0.561303 14.3169 0.598092 14.3208 0.649801 14.3263C0.736231 14.3356 0.832599 14.3461 0.936403 14.3576C1.23279 14.3905 1.52909 14.4249 1.80506 14.4592C1.96273 14.4788 2.10924 14.4978 2.24234 14.516C2.37894 14.5347 2.49967 14.5523 2.60219 14.5685C2.76166 15.5956 3.20999 16.5734 3.94303 17.6747C3.81795 17.8422 3.64561 18.0641 3.43775 18.3261C3.22492 18.594 3.03906 18.8248 2.85316 19.0538C2.78807 19.134 2.72763 19.2082 2.67343 19.2746C2.64098 19.3143 2.61777 19.3426 2.60569 19.3574C2.4051 19.6018 2.42672 19.9595 2.65529 20.178L4.38289 21.8295C4.60117 22.0381 4.93993 22.0538 5.1765 21.8661C5.19109 21.8545 5.21928 21.8322 5.25878 21.801C5.3248 21.7489 5.39863 21.6908 5.47845 21.6283C5.70641 21.4496 5.93647 21.2709 6.15386 21.1044C6.47931 20.8559 6.70642 20.6866 6.87528 20.5666C8.09119 21.3144 9.03428 21.7374 10.049 21.8954C10.0526 21.9305 10.0563 21.9675 10.0601 22.0064C10.0778 22.1884 10.0965 22.4074 10.1159 22.6552C10.1373 22.9287 10.1583 23.2222 10.1781 23.5158C10.185 23.6186 10.1912 23.7141 10.1967 23.7997C10.2 23.851 10.2023 23.8876 10.2035 23.9067C10.2232 24.2256 10.4875 24.4741 10.807 24.4741H13.193C13.503 24.4741 13.7628 24.2396 13.7945 23.9313C13.7965 23.912 13.8003 23.8753 13.8058 23.8237C13.8149 23.7375 13.8253 23.6414 13.8366 23.5379C13.8692 23.2422 13.9034 22.9467 13.9376 22.6715C13.9598 22.4931 13.9813 22.3291 14.0018 22.1829C14.0201 22.0523 14.0374 21.9376 14.0533 21.8412C15.228 21.5785 16.3136 21.1258 17.2603 20.4953C17.4205 20.6188 17.6297 20.788 17.8752 20.9918C17.9065 21.0178 17.9065 21.0178 17.9378 21.0438C18.149 21.2198 18.3722 21.4087 18.593 21.5977C18.6704 21.6639 18.7419 21.7253 18.8057 21.7804C18.844 21.8133 18.871 21.8368 18.8853 21.8491C19.1296 22.0611 19.4975 22.0432 19.7201 21.8086L21.3655 20.0747C21.5835 19.845 21.5873 19.4859 21.3742 19.2516C21.3617 19.2379 21.338 19.2118 21.3047 19.1749C21.2489 19.1132 21.1867 19.0441 21.1197 18.9694C20.9284 18.756 20.7372 18.5401 20.5591 18.3355C20.5305 18.3027 20.5305 18.3027 20.502 18.2699C20.3076 18.0456 20.1446 17.8526 20.0227 17.7014C20.6689 16.8022 21.1139 15.7851 21.3576 14.627C21.4257 14.6168 21.5028 14.606 21.588 14.5948C21.7589 14.5724 21.9588 14.5487 22.1816 14.5241C22.4584 14.4937 22.7556 14.4635 23.0529 14.4351C23.1571 14.4251 23.2537 14.4161 23.3404 14.4082C23.3923 14.4034 23.4292 14.4001 23.4486 14.3984C23.7607 14.3708 24 14.1094 24 13.7961V11.154C24 10.8353 23.7527 10.5714 23.4348 10.5506C23.4157 10.5493 23.3789 10.5469 23.3275 10.5434C23.2417 10.5376 23.146 10.531 23.0429 10.5237C22.7485 10.503 22.4542 10.481 22.18 10.4587C21.9657 10.4413 21.7725 10.4245 21.6059 10.4085C21.5136 10.3997 21.4304 10.3912 21.3573 10.3831C21.046 9.20976 20.6638 8.26829 20.1156 7.31959ZM22.048 13.3221C21.8174 13.3475 21.6094 13.3722 21.4292 13.3959C21.216 13.4239 21.0442 13.4501 20.9154 13.4752C20.833 13.4912 20.7652 13.5072 20.7059 13.5261C20.6547 13.5423 20.6082 13.5608 20.559 13.5877C20.5116 13.6137 20.4663 13.645 20.4209 13.6884C20.3319 13.7735 20.2629 13.8847 20.2381 14.0322C20.0243 15.3125 19.5501 16.3795 18.8096 17.2973C18.6791 17.4585 18.6557 17.6275 18.6814 17.7869C18.692 17.8517 18.7098 17.9053 18.733 17.9577C18.7566 18.0111 18.7851 18.0605 18.8208 18.115C18.8692 18.189 18.9352 18.278 19.0204 18.3859C19.1599 18.5626 19.3524 18.7915 19.587 19.0621C19.6164 19.096 19.6164 19.096 19.6457 19.1297C19.792 19.2977 19.9465 19.4726 20.1025 19.6475L19.2375 20.559C19.0594 20.4072 18.8814 20.2571 18.7105 20.1147C18.6784 20.088 18.6784 20.088 18.6463 20.0613C18.3679 19.8302 18.1326 19.6405 17.9518 19.5027C17.8421 19.4192 17.752 19.3544 17.6783 19.3071C17.6253 19.2732 17.5778 19.2461 17.5276 19.2235C17.4791 19.2016 17.4301 19.1845 17.3708 19.173C17.2149 19.143 17.0521 19.1575 16.8841 19.2815C15.9142 19.9986 14.7441 20.4894 13.4515 20.73C13.2975 20.7587 13.1869 20.8332 13.1029 20.9274C13.0626 20.9727 13.0337 21.0171 13.0096 21.0635C12.9845 21.1117 12.9669 21.158 12.9509 21.2095C12.9315 21.2721 12.9141 21.346 12.8961 21.4365C12.8675 21.5813 12.8365 21.7754 12.8029 22.015C12.7814 22.168 12.7592 22.338 12.7362 22.5223C12.7067 22.7599 12.6772 23.0113 12.6489 23.2648H11.3718C11.3552 23.0244 11.3379 22.7864 11.3203 22.561C11.3003 22.3062 11.281 22.08 11.2625 21.8895C11.2438 21.6973 11.2262 21.5435 11.2092 21.4295C11.1984 21.3569 11.1876 21.2976 11.1746 21.2458C11.1629 21.1992 11.1495 21.157 11.1286 21.1107C11.1026 21.0548 11.1026 21.0548 11.0368 20.9632C10.925 20.837 10.925 20.837 10.6108 20.7437C9.56762 20.6659 8.617 20.2444 7.2049 19.3473C7.02951 19.236 6.88058 19.2335 6.73051 19.2685C6.67987 19.2804 6.63768 19.2959 6.59536 19.3151C6.55039 19.3355 6.50632 19.3599 6.45631 19.3905C6.38413 19.4346 6.29404 19.4954 6.18373 19.5736C5.9999 19.7039 5.75936 19.8831 5.47433 20.1008C5.44582 20.1225 5.44582 20.1225 5.41734 20.1443C5.23 20.2878 5.03399 20.4397 4.838 20.5929L3.89319 19.6897C4.04701 19.4996 4.19937 19.3099 4.34349 19.1286C4.3637 19.1032 4.3637 19.1032 4.38392 19.0777C4.6103 18.7923 4.79686 18.5518 4.93258 18.3689C5.01367 18.2596 5.0767 18.1708 5.12235 18.1005C5.15368 18.0523 5.17869 18.0102 5.19982 17.9676C5.22011 17.9267 5.23679 17.8862 5.25036 17.8368C5.29577 17.6714 5.29753 17.5102 5.16236 17.3175C4.29344 16.0777 3.83255 15.0726 3.75632 14.0365C3.74269 13.8495 3.65841 13.7162 3.54707 13.6186C3.49856 13.5761 3.45182 13.547 3.40259 13.5228C3.35423 13.4989 3.30799 13.4823 3.25582 13.4671C3.19217 13.4486 3.11549 13.4315 3.02066 13.4136C2.86734 13.3847 2.66034 13.3528 2.40481 13.3179C2.26647 13.299 2.11517 13.2793 1.95291 13.2592C1.71461 13.2296 1.46236 13.1999 1.20801 13.1713V11.8073C1.44401 11.7931 1.67756 11.7783 1.89877 11.7632C2.14468 11.7465 2.36377 11.7302 2.54941 11.7147C2.74388 11.6984 2.8993 11.6832 3.01362 11.6686C3.08495 11.6595 3.14273 11.6505 3.19211 11.6399C3.23565 11.6305 3.27464 11.6199 3.31773 11.6033C3.37017 11.5825 3.37017 11.5825 3.46278 11.525C3.60175 11.4232 3.60175 11.4232 3.71611 11.0581C3.77052 9.85113 4.30468 8.54207 5.05891 7.69101C5.30418 7.41304 5.28177 7.31935 5.15773 7.03785C5.14561 7.01034 5.13356 6.98738 5.11935 6.9625C5.10355 6.93483 5.08416 6.90359 5.05954 6.86551C5.0196 6.80374 4.96326 6.72007 4.89082 6.61468C4.76642 6.43367 4.59595 6.1906 4.39021 5.90018C4.23632 5.68305 4.09063 5.47855 3.9438 5.27318L4.91414 4.2993C5.08435 4.44422 5.25412 4.58758 5.417 4.72352C5.44476 4.74669 5.44476 4.74669 5.47257 4.76984C5.74065 4.99295 5.96692 5.17644 6.14012 5.30981C6.2448 5.39041 6.33044 5.45303 6.39984 5.49877C6.44954 5.53152 6.49369 5.55772 6.54018 5.57998C6.58608 5.60196 6.63226 5.61959 6.68896 5.63245C6.85422 5.66992 7.02553 5.6595 7.20578 5.5193C8.14677 4.78893 9.33105 4.30896 10.6251 4.12393C10.9743 4.07372 11.018 3.99525 11.1146 3.71686C11.124 3.68949 11.1306 3.66561 11.1368 3.63918C11.1436 3.61042 11.1502 3.57754 11.1574 3.53705C11.1691 3.47215 11.1834 3.38318 11.2004 3.27014C11.2299 3.07488 11.2675 2.80905 11.3113 2.48755C11.3184 2.43597 11.3184 2.43597 11.3254 2.3843C11.3557 2.1608 11.3873 1.92415 11.4187 1.68531H12.8071C12.8303 1.92252 12.8537 2.1574 12.8764 2.37949C12.8826 2.44002 12.8887 2.49902 12.8947 2.55638C12.9267 2.86456 12.9546 3.11799 12.9773 3.3038C12.9905 3.41166 13.0019 3.49674 13.0118 3.55977C13.0182 3.60069 13.0243 3.63443 13.0314 3.66526C13.0381 3.69508 13.0456 3.72245 13.0571 3.75423C13.1402 3.98419 13.2064 4.09277 13.5215 4.15007C14.8898 4.40269 16.0199 4.86785 16.8648 5.57028C17.1391 5.79804 17.2834 5.76395 17.5238 5.64739C17.5566 5.63146 17.5831 5.61568 17.6111 5.59722C17.6407 5.57775 17.6725 5.55464 17.7106 5.52556C17.7703 5.47997 17.8497 5.41626 17.9492 5.33448C18.119 5.19492 18.3459 5.0038 18.6166 4.77301C18.8086 4.60922 18.9822 4.46023 19.1571 4.30959L20.1256 5.32787C19.9751 5.51869 19.826 5.70892 19.6851 5.89001C19.4409 6.20431 19.2624 6.43776 19.1322 6.61384C19.0552 6.71784 18.9953 6.80157 18.952 6.86599C18.9236 6.90829 18.901 6.94435 18.8818 6.97908C18.8637 7.0117 18.8484 7.04323 18.8342 7.08163C18.7684 7.25878 18.7491 7.39962 18.8851 7.61996C19.5368 8.67604 19.9434 9.67221 20.2781 11.0525C20.3214 11.2294 20.4155 11.337 20.5299 11.4149C20.6113 11.4636 20.6113 11.4636 20.6605 11.4835C20.7028 11.5001 20.7424 11.5114 20.7865 11.5214C20.8398 11.5336 20.903 11.5444 20.9808 11.5554C21.1069 11.5732 21.2773 11.5921 21.4892 11.6124C21.6623 11.629 21.8612 11.6463 22.081 11.6641C22.3078 11.6825 22.5474 11.7007 22.7894 11.7182V13.2455C22.5362 13.2702 22.2852 13.296 22.048 13.3221Z" fill="currentColor"/>
    <path fill-rule="evenodd" clip-rule="evenodd" d="M11.8562 6.52954C8.52276 6.52954 5.82129 9.24005 5.82129 12.5826C5.82129 15.9252 8.52276 18.6357 11.8562 18.6357C15.1895 18.6357 17.8909 15.9252 17.8909 12.5826C17.8909 9.24009 15.1895 6.52954 11.8562 6.52954ZM11.8549 7.73887C14.5194 7.73887 16.6803 9.90708 16.6803 12.5826C16.6803 15.2582 14.5194 17.4264 11.8549 17.4264C9.19025 17.4264 7.0293 15.2582 7.0293 12.5826C7.0293 9.90705 9.19025 7.73887 11.8549 7.73887Z" fill="currentColor"/>
  </symbol>
  <symbol viewBox="0 0 25 25" fill="none" xmlns="http://www.w3.org/2000/svg" id="chat-gpt">
    <path d="M0.959961 5.774C0.959961 2.585 3.54496 0 6.73396 0H19.225C22.415 0 25 2.585 25 5.774V24.05H6.73396C3.54496 24.05 0.959961 21.465 0.959961 18.276V5.774Z" fill="#74AA9C"/>
    <path d="M12.0233 2.98101C10.0433 2.98101 8.28432 4.25401 7.67132 6.13401C6.39832 6.39601 5.29932 7.19201 4.65532 8.32001C3.66232 10.034 3.88932 12.189 5.21932 13.658C4.80832 14.889 4.94932 16.235 5.60532 17.35C6.59232 19.07 8.57832 19.952 10.5213 19.542C11.3823 20.512 12.6193 21.065 13.9173 21.06C15.8973 21.06 17.6563 19.787 18.2703 17.907C19.5453 17.644 20.6423 16.848 21.2803 15.722C22.2793 14.008 22.0523 11.853 20.7223 10.383V10.377C21.1333 9.14601 20.9923 7.79901 20.3363 6.67901C19.3493 4.96501 17.3633 4.08301 15.4263 4.49301C14.5603 3.52501 13.3213 2.97501 12.0233 2.98101ZM12.0233 4.15601L12.0173 4.16201C12.8143 4.16201 13.5803 4.43701 14.1933 4.94601C14.1683 4.95801 14.1193 4.98901 14.0833 5.00701L10.4783 7.08301C10.2943 7.18701 10.1843 7.38301 10.1843 7.59701V12.47L8.63332 11.576V7.54801C8.63232 5.67701 10.1493 4.15901 12.0233 4.15601ZM16.3653 5.57501C17.5813 5.57301 18.7053 6.22001 19.3123 7.27301C19.7043 7.95901 19.8513 8.76101 19.7163 9.53801C19.6913 9.52001 19.6433 9.49501 19.6123 9.47701L16.0083 7.39501C15.8243 7.29101 15.5983 7.29101 15.4143 7.39501L11.1903 9.83201V8.04401L14.6773 6.03001C15.1903 5.73301 15.7723 5.57601 16.3653 5.57501ZM7.45032 7.42501V11.704C7.45032 11.918 7.56032 12.108 7.74432 12.218L11.9613 14.648L10.4043 15.548L6.92232 13.54C5.30232 12.602 4.74832 10.531 5.68432 8.91201C6.08132 8.22601 6.70532 7.70001 7.45032 7.42501ZM15.5293 8.48501L19.0173 10.493C20.6423 11.43 21.1933 13.499 20.2553 15.121L20.2613 15.127C19.8633 15.813 19.2373 16.339 18.4963 16.609V12.329C18.4963 12.115 18.3863 11.919 18.2023 11.815L13.9793 9.37801L15.5293 8.48501ZM12.9673 9.96001L14.7453 10.988V13.039L12.9673 14.067L11.1893 13.039V10.988L12.9673 9.96001ZM15.7623 11.576L17.3133 12.47V16.492C17.3133 18.365 15.7933 19.884 13.9233 19.884V19.878C13.1323 19.878 12.3603 19.602 11.7533 19.094C11.7783 19.082 11.8333 19.051 11.8633 19.033L15.4673 16.958C15.6513 16.854 15.7673 16.658 15.7613 16.444L15.7623 11.576ZM14.7503 14.209V15.997L11.2623 18.005C9.63732 18.936 7.56632 18.385 6.62832 16.768H6.63432C6.23632 16.088 6.09432 15.28 6.22932 14.503C6.25432 14.521 6.30332 14.546 6.33332 14.564L9.93732 16.646C10.1213 16.75 10.3473 16.75 10.5313 16.646L14.7503 14.209Z" fill="white"/>
  </symbol>
  <symbol width="20" height="20" viewBox="0 0 20 20" fill="none" xmlns="http://www.w3.org/2000/svg" id='check-circle'>
    <path d="M6.25008 9.99984L8.75008 12.4998L13.7501 7.49984M18.3334 9.99984C18.3334 14.6022 14.6025 18.3332 10.0001 18.3332C5.39771 18.3332 1.66675 14.6022 1.66675 9.99984C1.66675 5.39746 5.39771 1.6665 10.0001 1.6665C14.6025 1.6665 18.3334 5.39746 18.3334 9.99984Z" stroke="currentColor" stroke-width="2" stroke-linecap="round" stroke-linejoin="round"/>
  </symbol>
  <symbol width="17" height="16" viewBox="0 0 17 16" fill="none" xmlns="http://www.w3.org/2000/svg" id="log-in-02">
    <path d="M4.5 11.3333C4.5 11.9533 4.5 12.2633 4.56815 12.5176C4.75308 13.2078 5.29218 13.7469 5.98236 13.9319C6.2367 14 6.54669 14 7.16667 14H11.3C12.4201 14 12.9802 14 13.408 13.782C13.7843 13.5903 14.0903 13.2843 14.282 12.908C14.5 12.4802 14.5 11.9201 14.5 10.8V5.2C14.5 4.0799 14.5 3.51984 14.282 3.09202C14.0903 2.71569 13.7843 2.40973 13.408 2.21799C12.9802 2 12.4201 2 11.3 2L7.16667 2C6.54669 2 6.23669 2 5.98236 2.06815C5.29218 2.25308 4.75308 2.79218 4.56815 3.48236C4.5 3.7367 4.5 4.04669 4.5 4.66667M8.5 5.33333L11.1667 8M11.1667 8L8.5 10.6667M11.1667 8H2.5" stroke="currentColor" stroke-width="1.5" stroke-linecap="round" stroke-linejoin="round"/>
  </symbol>
  <symbol width="20" height="20" viewBox="0 0 20 20" fill="none" xmlns="http://www.w3.org/2000/svg" id="globe-01">
    <g clip-path="url(#clip0_6927_9420)">
      <path d="M1.66699 9.99996H18.3337M1.66699 9.99996C1.66699 14.6023 5.39795 18.3333 10.0003 18.3333M1.66699 9.99996C1.66699 5.39759 5.39795 1.66663 10.0003 1.66663M18.3337 9.99996C18.3337 14.6023 14.6027 18.3333 10.0003 18.3333M18.3337 9.99996C18.3337 5.39759 14.6027 1.66663 10.0003 1.66663M10.0003 1.66663C12.0847 3.94859 13.2693 6.90999 13.3337 9.99996C13.2693 13.0899 12.0847 16.0513 10.0003 18.3333M10.0003 1.66663C7.91593 3.94859 6.73137 6.90999 6.66699 9.99996C6.73137 13.0899 7.91593 16.0513 10.0003 18.3333" stroke="currentColor" stroke-width="1.66667" stroke-linecap="round" stroke-linejoin="round"/>
    </g>
    <defs>
      <clipPath id="clip0_6927_9420">
        <rect width="20" height="20" fill="currentColor"/>
      </clipPath>
    </defs>
  </symbol>
  <symbol width="21" height="20" viewBox="0 0 21 20" fill="none" xmlns="http://www.w3.org/2000/svg" id='chevron-down'>
    <path d="M5.28516 7.5L10.2852 12.5L15.2852 7.5" stroke="currentColor" stroke-width="1.66667" stroke-linecap="round" stroke-linejoin="round"/>
  </symbol>
  <symbol width="21" height="20" viewBox="0 0 21 20" fill="none" xmlns="http://www.w3.org/2000/svg" id='chevron-up'>
    <path d="M15.2852 12.5L10.2852 7.5L5.28516 12.5" stroke="currentColor" stroke-width="1.66667" stroke-linecap="round" stroke-linejoin="round"/>
  </symbol>
  <symbol fill="none" xmlns="http://www.w3.org/2000/svg" viewBox="0 0 24 24" id="annotation-question">
    <g id="annotation-question">
      <path id="Icon" d="M10 8.50224C10.1762 8.00136 10.524 7.579 10.9817 7.30998C11.4395 7.04095 11.9777 6.9426 12.501 7.03237C13.0243 7.12213 13.499 7.39421 13.8409 7.80041C14.1829 8.20661 14.37 8.72072 14.3692 9.25168C14.3692 10.7506 12.1209 11.5 12.1209 11.5M12.1499 14.5H12.1599M9.9 19.2L11.36 21.1467C11.5771 21.4362 11.6857 21.5809 11.8188 21.6327C11.9353 21.678 12.0647 21.678 12.1812 21.6327C12.3143 21.5809 12.4229 21.4362 12.64 21.1467L14.1 19.2C14.3931 18.8091 14.5397 18.6137 14.7185 18.4645C14.9569 18.2656 15.2383 18.1248 15.5405 18.0535C15.7671 18 16.0114 18 16.5 18C17.8978 18 18.5967 18 19.1481 17.7716C19.8831 17.4672 20.4672 16.8831 20.7716 16.1481C21 15.5967 21 14.8978 21 13.5V7.8C21 6.11984 21 5.27976 20.673 4.63803C20.3854 4.07354 19.9265 3.6146 19.362 3.32698C18.7202 3 17.8802 3 16.2 3H7.8C6.11984 3 5.27976 3 4.63803 3.32698C4.07354 3.6146 3.6146 4.07354 3.32698 4.63803C3 5.27976 3 6.11984 3 7.8V13.5C3 14.8978 3 15.5967 3.22836 16.1481C3.53284 16.8831 4.11687 17.4672 4.85195 17.7716C5.40326 18 6.10218 18 7.5 18C7.98858 18 8.23287 18 8.45951 18.0535C8.76169 18.1248 9.04312 18.2656 9.2815 18.4645C9.46028 18.6137 9.60685 18.8091 9.9 19.2Z" stroke="currentColor" stroke-width="2" stroke-linecap="round" stroke-linejoin="round"></path>
    </g>
  </symbol>
  <symbol fill="none" xmlns="http://www.w3.org/2000/svg" viewBox="0 0 24 24" id="bar-chart-square-up">
    <g id="bar-chart-square-up">
      <path id="Icon" d="M12 3H16.2C17.8802 3 18.7202 3 19.362 3.32698C19.9265 3.6146 20.3854 4.07354 20.673 4.63803C21 5.27976 21 6.11984 21 7.8V16.2C21 17.8802 21 18.7202 20.673 19.362C20.3854 19.9265 19.9265 20.3854 19.362 20.673C18.7202 21 17.8802 21 16.2 21H7.8C6.11984 21 5.27976 21 4.63803 20.673C4.07354 20.3854 3.6146 19.9265 3.32698 19.362C3 18.7202 3 17.8802 3 16.2V12M8 13V17M16 11V17M12 7V17M2 5L5 2M5 2L8 5M5 2L5 8" stroke="currentColor" stroke-width="2" stroke-linecap="round" stroke-linejoin="round"></path>
    </g>
  </symbol>
  <symbol fill="none" xmlns="http://www.w3.org/2000/svg" viewBox="0 0 24 24" id="calculator">
    <g id="calculator">
      <path id="Icon" d="M17.5 6.5L6.5 17.5M8.5 10.5V6.5M6.5 8.5H10.5M13.5 15.5H17.5M7.8 21H16.2C17.8802 21 18.7202 21 19.362 20.673C19.9265 20.3854 20.3854 19.9265 20.673 19.362C21 18.7202 21 17.8802 21 16.2V7.8C21 6.11984 21 5.27976 20.673 4.63803C20.3854 4.07354 19.9265 3.6146 19.362 3.32698C18.7202 3 17.8802 3 16.2 3H7.8C6.11984 3 5.27976 3 4.63803 3.32698C4.07354 3.6146 3.6146 4.07354 3.32698 4.63803C3 5.27976 3 6.11984 3 7.8V16.2C3 17.8802 3 18.7202 3.32698 19.362C3.6146 19.9265 4.07354 20.3854 4.63803 20.673C5.27976 21 6.11984 21 7.8 21Z" stroke="currentColor" stroke-width="2" stroke-linecap="round" stroke-linejoin="round"></path>
    </g>
  </symbol>
  <symbol fill="none" xmlns="http://www.w3.org/2000/svg" viewBox="0 0 24 24" id="check-circle-broken">
    <g id="check-circle-broken">
      <path id="Icon" d="M22 11.0857V12.0057C21.9988 14.1621 21.3005 16.2604 20.0093 17.9875C18.7182 19.7147 16.9033 20.9782 14.8354 21.5896C12.7674 22.201 10.5573 22.1276 8.53447 21.3803C6.51168 20.633 4.78465 19.2518 3.61096 17.4428C2.43727 15.6338 1.87979 13.4938 2.02168 11.342C2.16356 9.19029 2.99721 7.14205 4.39828 5.5028C5.79935 3.86354 7.69279 2.72111 9.79619 2.24587C11.8996 1.77063 14.1003 1.98806 16.07 2.86572M22 4L12 14.01L9 11.01" stroke="currentColor" stroke-width="2" stroke-linecap="round" stroke-linejoin="round"></path>
    </g>
  </symbol>
  <symbol fill="none" xmlns="http://www.w3.org/2000/svg" viewBox="0 0 24 24" id="check-square">
    <g id="check-square">
      <path id="Icon" d="M7.5 12L10.5 15L16.5 9M7.8 21H16.2C17.8802 21 18.7202 21 19.362 20.673C19.9265 20.3854 20.3854 19.9265 20.673 19.362C21 18.7202 21 17.8802 21 16.2V7.8C21 6.11984 21 5.27976 20.673 4.63803C20.3854 4.07354 19.9265 3.6146 19.362 3.32698C18.7202 3 17.8802 3 16.2 3H7.8C6.11984 3 5.27976 3 4.63803 3.32698C4.07354 3.6146 3.6146 4.07354 3.32698 4.63803C3 5.27976 3 6.11984 3 7.8V16.2C3 17.8802 3 18.7202 3.32698 19.362C3.6146 19.9265 4.07354 20.3854 4.63803 20.673C5.27976 21 6.11984 21 7.8 21Z" stroke="currentColor" stroke-width="2" stroke-linecap="round" stroke-linejoin="round"></path>
    </g>
  </symbol>
  <symbol fill="none" xmlns="http://www.w3.org/2000/svg" viewBox="0 0 24 24" id="check-verified-02">
    <g id="check-verified-02">
      <path id="Icon" d="M9 12L11 14L15.5 9.5M17.9012 4.99851C18.1071 5.49653 18.5024 5.8924 19.0001 6.09907L20.7452 6.82198C21.2433 7.02828 21.639 7.42399 21.8453 7.92206C22.0516 8.42012 22.0516 8.97974 21.8453 9.47781L21.1229 11.2218C20.9165 11.7201 20.9162 12.2803 21.1236 12.7783L21.8447 14.5218C21.9469 14.7685 21.9996 15.0329 21.9996 15.2999C21.9997 15.567 21.9471 15.8314 21.8449 16.0781C21.7427 16.3249 21.5929 16.549 21.4041 16.7378C21.2152 16.9266 20.991 17.0764 20.7443 17.1785L19.0004 17.9009C18.5023 18.1068 18.1065 18.5021 17.8998 18.9998L17.1769 20.745C16.9706 21.2431 16.575 21.6388 16.0769 21.8451C15.5789 22.0514 15.0193 22.0514 14.5212 21.8451L12.7773 21.1227C12.2792 20.9169 11.7198 20.9173 11.2221 21.1239L9.47689 21.8458C8.97912 22.0516 8.42001 22.0514 7.92237 21.8453C7.42473 21.6391 7.02925 21.2439 6.82281 20.7464L6.09972 19.0006C5.8938 18.5026 5.49854 18.1067 5.00085 17.9L3.25566 17.1771C2.75783 16.9709 2.36226 16.5754 2.15588 16.0777C1.94951 15.5799 1.94923 15.0205 2.1551 14.5225L2.87746 12.7786C3.08325 12.2805 3.08283 11.7211 2.8763 11.2233L2.15497 9.47678C2.0527 9.2301 2.00004 8.96568 2 8.69863C1.99996 8.43159 2.05253 8.16715 2.15472 7.92043C2.25691 7.67372 2.40671 7.44955 2.59557 7.26075C2.78442 7.07195 3.00862 6.92222 3.25537 6.8201L4.9993 6.09772C5.49687 5.89197 5.89248 5.4972 6.0993 5.00006L6.82218 3.25481C7.02848 2.75674 7.42418 2.36103 7.92222 2.15473C8.42027 1.94842 8.97987 1.94842 9.47792 2.15473L11.2218 2.87712C11.7199 3.08291 12.2793 3.08249 12.7771 2.87595L14.523 2.15585C15.021 1.94966 15.5804 1.9497 16.0784 2.15597C16.5763 2.36223 16.972 2.75783 17.1783 3.25576L17.9014 5.00153L17.9012 4.99851Z" stroke="currentColor" stroke-width="2" stroke-linecap="round" stroke-linejoin="round"></path>
    </g>
  </symbol>
  <symbol fill="none" xmlns="http://www.w3.org/2000/svg" viewBox="0 0 24 24" id="coins-stacked-01">
    <g id="coins-stacked-01">
      <path id="Icon" d="M12 17C12 19.7614 14.2386 22 17 22C19.7614 22 22 19.7614 22 17C22 14.2386 19.7614 12 17 12C14.2386 12 12 14.2386 12 17ZM12 17C12 15.8742 12.3721 14.8353 13 13.9995V5M12 17C12 17.8254 12.2 18.604 12.5541 19.2901C11.7117 20.0018 9.76584 20.5 7.5 20.5C4.46243 20.5 2 19.6046 2 18.5V5M13 5C13 6.10457 10.5376 7 7.5 7C4.46243 7 2 6.10457 2 5M13 5C13 3.89543 10.5376 3 7.5 3C4.46243 3 2 3.89543 2 5M2 14C2 15.1046 4.46243 16 7.5 16C9.689 16 11.5793 15.535 12.4646 14.8618M13 9.5C13 10.6046 10.5376 11.5 7.5 11.5C4.46243 11.5 2 10.6046 2 9.5" stroke="currentColor" stroke-width="2" stroke-linecap="round" stroke-linejoin="round"></path>
    </g>
  </symbol>
  <symbol fill="none" xmlns="http://www.w3.org/2000/svg" viewBox="0 0 24 24" id="modem-01">
    <g id="modem-01">
      <path id="Icon" d="M16.2429 4.75732C18.586 7.10047 18.586 10.8995 16.2429 13.2426M7.75758 13.2426C5.41444 10.8995 5.41443 7.10047 7.75758 4.75732M4.85853 16C1.02383 12.0894 1.0473 5.81059 4.92893 1.92896M19.0715 1.92896C22.9531 5.81059 22.9766 12.0894 19.1419 16M12.0002 16V9M5.00022 22H19.0002C19.9321 22 20.398 22 20.7656 21.8478C21.2556 21.6448 21.645 21.2554 21.848 20.7654C22.0002 20.3978 22.0002 19.9319 22.0002 19C22.0002 18.0681 22.0002 17.6022 21.848 17.2346C21.645 16.7446 21.2556 16.3552 20.7656 16.1522C20.398 16 19.9321 16 19.0002 16H5.00022C4.06834 16 3.6024 16 3.23485 16.1522C2.7448 16.3552 2.35545 16.7446 2.15246 17.2346C2.00022 17.6022 2.00022 18.0681 2.00022 19C2.00022 19.9319 2.00022 20.3978 2.15246 20.7654C2.35545 21.2554 2.7448 21.6448 3.23485 21.8478C3.6024 22 4.06834 22 5.00022 22Z" stroke="currentColor" stroke-width="2" stroke-linecap="round" stroke-linejoin="round"></path>
    </g>
  </symbol>
  <symbol fill="none" xmlns="http://www.w3.org/2000/svg" viewBox="0 0 24 24" id="package-check">
    <g id="package-check">
      <path id="Icon" d="M20.5 7.27771L12 11.9999M12 11.9999L3.49997 7.27771M12 11.9999L12 21.5M14 20.8889L12.777 21.5683C12.4934 21.7258 12.3516 21.8046 12.2015 21.8355C12.0685 21.8628 11.9315 21.8628 11.7986 21.8355C11.6484 21.8046 11.5066 21.7258 11.223 21.5683L3.82297 17.4572C3.52346 17.2908 3.37368 17.2076 3.26463 17.0892C3.16816 16.9845 3.09515 16.8605 3.05048 16.7253C3 16.5725 3 16.4012 3 16.0585V7.94141C3 7.59877 3 7.42744 3.05048 7.27465C3.09515 7.13947 3.16816 7.01539 3.26463 6.9107C3.37368 6.79236 3.52345 6.70916 3.82297 6.54276L11.223 2.43165C11.5066 2.27409 11.6484 2.19531 11.7986 2.16442C11.9315 2.13709 12.0685 2.13709 12.2015 2.16442C12.3516 2.19531 12.4934 2.27409 12.777 2.43164L20.177 6.54276C20.4766 6.70916 20.6263 6.79236 20.7354 6.9107C20.8318 7.01539 20.9049 7.13947 20.9495 7.27464C21 7.42744 21 7.59876 21 7.94141L21 12.5M7.5 4.49996L16.5 9.49996M16 18L18 20L22 16" stroke="currentColor" stroke-width="2" stroke-linecap="round" stroke-linejoin="round"></path>
    </g>
  </symbol>
  <symbol fill="none" xmlns="http://www.w3.org/2000/svg" viewBox="0 0 24 24" id="qr-code-02">
    <g id="qr-code-02">
      <path id="Icon" d="M6.5 6.5H6.51M17.5 6.5H17.51M6.5 17.5H6.51M13 13H13.01M17.5 17.5H17.51M17 21H21V17M14 16.5V21M21 14H16.5M15.6 10H19.4C19.9601 10 20.2401 10 20.454 9.89101C20.6422 9.79513 20.7951 9.64215 20.891 9.45399C21 9.24008 21 8.96005 21 8.4V4.6C21 4.03995 21 3.75992 20.891 3.54601C20.7951 3.35785 20.6422 3.20487 20.454 3.10899C20.2401 3 19.9601 3 19.4 3H15.6C15.0399 3 14.7599 3 14.546 3.10899C14.3578 3.20487 14.2049 3.35785 14.109 3.54601C14 3.75992 14 4.03995 14 4.6V8.4C14 8.96005 14 9.24008 14.109 9.45399C14.2049 9.64215 14.3578 9.79513 14.546 9.89101C14.7599 10 15.0399 10 15.6 10ZM4.6 10H8.4C8.96005 10 9.24008 10 9.45399 9.89101C9.64215 9.79513 9.79513 9.64215 9.89101 9.45399C10 9.24008 10 8.96005 10 8.4V4.6C10 4.03995 10 3.75992 9.89101 3.54601C9.79513 3.35785 9.64215 3.20487 9.45399 3.10899C9.24008 3 8.96005 3 8.4 3H4.6C4.03995 3 3.75992 3 3.54601 3.10899C3.35785 3.20487 3.20487 3.35785 3.10899 3.54601C3 3.75992 3 4.03995 3 4.6V8.4C3 8.96005 3 9.24008 3.10899 9.45399C3.20487 9.64215 3.35785 9.79513 3.54601 9.89101C3.75992 10 4.03995 10 4.6 10ZM4.6 21H8.4C8.96005 21 9.24008 21 9.45399 20.891C9.64215 20.7951 9.79513 20.6422 9.89101 20.454C10 20.2401 10 19.9601 10 19.4V15.6C10 15.0399 10 14.7599 9.89101 14.546C9.79513 14.3578 9.64215 14.2049 9.45399 14.109C9.24008 14 8.96005 14 8.4 14H4.6C4.03995 14 3.75992 14 3.54601 14.109C3.35785 14.2049 3.20487 14.3578 3.10899 14.546C3 14.7599 3 15.0399 3 15.6V19.4C3 19.9601 3 20.2401 3.10899 20.454C3.20487 20.6422 3.35785 20.7951 3.54601 20.891C3.75992 21 4.03995 21 4.6 21Z" stroke="currentColor" stroke-width="2" stroke-linecap="round" stroke-linejoin="round"></path>
    </g>
  </symbol>
  <symbol fill="none" xmlns="http://www.w3.org/2000/svg" viewBox="0 0 24 24" id="tool-02">
    <g id="tool-02">
      <path id="Icon" d="M6 6L10.5 10.5M6 6H3L2 3L3 2L6 3V6ZM19.259 2.74101L16.6314 5.36863C16.2354 5.76465 16.0373 5.96265 15.9632 6.19098C15.8979 6.39183 15.8979 6.60817 15.9632 6.80902C16.0373 7.03735 16.2354 7.23535 16.6314 7.63137L16.8686 7.86863C17.2646 8.26465 17.4627 8.46265 17.691 8.53684C17.8918 8.6021 18.1082 8.6021 18.309 8.53684C18.5373 8.46265 18.7354 8.26465 19.1314 7.86863L21.5893 5.41072C21.854 6.05488 22 6.76039 22 7.5C22 10.5376 19.5376 13 16.5 13C16.1338 13 15.7759 12.9642 15.4298 12.8959C14.9436 12.8001 14.7005 12.7521 14.5532 12.7668C14.3965 12.7824 14.3193 12.8059 14.1805 12.8802C14.0499 12.9501 13.919 13.081 13.657 13.343L6.5 20.5C5.67157 21.3284 4.32843 21.3284 3.5 20.5C2.67157 19.6716 2.67157 18.3284 3.5 17.5L10.657 10.343C10.919 10.081 11.0499 9.95005 11.1198 9.81949C11.1941 9.68068 11.2176 9.60347 11.2332 9.44681C11.2479 9.29945 11.1999 9.05638 11.1041 8.57024C11.0358 8.22406 11 7.86621 11 7.5C11 4.46243 13.4624 2 16.5 2C17.5055 2 18.448 2.26982 19.259 2.74101ZM12.0001 14.9999L17.5 20.4999C18.3284 21.3283 19.6716 21.3283 20.5 20.4999C21.3284 19.6715 21.3284 18.3283 20.5 17.4999L15.9753 12.9753C15.655 12.945 15.3427 12.8872 15.0408 12.8043C14.6517 12.6975 14.2249 12.7751 13.9397 13.0603L12.0001 14.9999Z" stroke="currentColor" stroke-width="2" stroke-linecap="round" stroke-linejoin="round"></path>
    </g>
  </symbol>
  <symbol fill="none" xmlns="http://www.w3.org/2000/svg" viewBox="0 0 24 24" id="users-01">
    <g id="users-01">
      <path id="Icon" d="M22 21V19C22 17.1362 20.7252 15.5701 19 15.126M15.5 3.29076C16.9659 3.88415 18 5.32131 18 7C18 8.67869 16.9659 10.1159 15.5 10.7092M17 21C17 19.1362 17 18.2044 16.6955 17.4693C16.2895 16.4892 15.5108 15.7105 14.5307 15.3045C13.7956 15 12.8638 15 11 15H8C6.13623 15 5.20435 15 4.46927 15.3045C3.48915 15.7105 2.71046 16.4892 2.30448 17.4693C2 18.2044 2 19.1362 2 21M13.5 7C13.5 9.20914 11.7091 11 9.5 11C7.29086 11 5.5 9.20914 5.5 7C5.5 4.79086 7.29086 3 9.5 3C11.7091 3 13.5 4.79086 13.5 7Z" stroke="currentColor" stroke-width="2" stroke-linecap="round" stroke-linejoin="round"></path>
    </g>
  </symbol>
  <symbol fill="none" xmlns="http://www.w3.org/2000/svg" viewBox="0 0 24 24" id="wifi">
    <g id="wifi">
      <path id="Icon" d="M12 19.5H12.01M22.8064 8.70076C19.9595 6.09199 16.1656 4.5 11.9999 4.5C7.83414 4.5 4.04023 6.09199 1.19336 8.70076M4.73193 12.243C6.67006 10.5357 9.21407 9.5 12 9.5C14.7859 9.5 17.3299 10.5357 19.268 12.243M15.6983 15.7751C14.6792 14.9763 13.3952 14.5 11.9999 14.5C10.5835 14.5 9.28172 14.9908 8.25537 15.8116" stroke="currentColor" stroke-width="2" stroke-linecap="round" stroke-linejoin="round"></path>
    </g>
  </symbol>
  <symbol fill="none" xmlns="http://www.w3.org/2000/svg" viewBox="0 0 20 20" id="arrow-right">
    <g id="arrow-right">
      <path id="Icon" d="M4.16699 10.0001H15.8337M15.8337 10.0001L10.0003 4.16675M15.8337 10.0001L10.0003 15.8334" stroke="currentColor" stroke-width="1.66667" stroke-linecap="round" stroke-linejoin="round"></path>
    </g>
  </symbol>
  <symbol width="12" height="12" viewBox="0 0 12 12" fill="none" xmlns="http://www.w3.org/2000/svg" id="check-sm">
    <path id="Icon" d="M10 3L4.5 8.5L2 6" stroke="currentColor" stroke-width="1.6666" stroke-linecap="round" stroke-linejoin="round" />
  </symbol>
  <symbol width="14" height="14" viewBox="0 0 14 14" fill="none" xmlns="http://www.w3.org/2000/svg" id="check-md">
    <path id="Icon" d="M11.6666 3.5L5.24992 9.91667L2.33325 7" stroke="currentColor" stroke-width="2" stroke-linecap="round" stroke-linejoin="round"/>
  </symbol>
  <symbol width="12" height="12" viewBox="0 0 12 12" fill="none" xmlns="http://www.w3.org/2000/svg" id="minus-sm">
    <path id="Icon" d="M2.5 6H9.5" stroke="currentColor" stroke-width="1.66666" stroke-linecap="round" stroke-linejoin="round" />
  </symbol>
  <symbol width="14" height="14" viewBox="0 0 14 14" fill="none" xmlns="http://www.w3.org/2000/svg" id="minus-md">
    <path id="Icon" d="M2.91675 7H11.0834" stroke="currentColor" stroke-width="2" stroke-linecap="round" stroke-linejoin="round"/>
  </symbol>
  <symbol width="24" height="24" viewBox="0 0 24 24" fill="none" xmlns="http://www.w3.org/2000/svg" id="x-circle">
    <path id="Icon" d="M15 9L9 15M9 9L15 15M22 12C22 17.5228 17.5228 22 12 22C6.47715 22 2 17.5228 2 12C2 6.47715 6.47715 2 12 2C17.5228 2 22 6.47715 22 12Z" stroke="currentColor" stroke-width="2" stroke-linecap="round" stroke-linejoin="round"/>
  </symbol>
  <symbol xmlns="http://www.w3.org/2000/svg" width="18" height="18" viewBox="0 0 18 18" fill="none" id="home">
    <path d="M5.66667 13.1667H12.3333M8.18141 1.30333L2.52949 5.69927C2.15168 5.99312 1.96278 6.14005 1.82669 6.32405C1.70614 6.48704 1.61633 6.67065 1.56169 6.86588C1.5 7.08627 1.5 7.32558 1.5 7.80421V13.8333C1.5 14.7667 1.5 15.2335 1.68166 15.59C1.84144 15.9036 2.09641 16.1585 2.41002 16.3183C2.76654 16.5 3.23325 16.5 4.16667 16.5H13.8333C14.7668 16.5 15.2335 16.5 15.59 16.3183C15.9036 16.1585 16.1586 15.9036 16.3183 15.59C16.5 15.2335 16.5 14.7667 16.5 13.8333V7.80421C16.5 7.32558 16.5 7.08627 16.4383 6.86588C16.3837 6.67065 16.2939 6.48704 16.1733 6.32405C16.0372 6.14005 15.8483 5.99312 15.4705 5.69927L9.81859 1.30333C9.52582 1.07562 9.37943 0.961766 9.21779 0.918001C9.07516 0.879384 8.92484 0.879384 8.78221 0.918001C8.62057 0.961766 8.47418 1.07562 8.18141 1.30333Z" stroke="currentColor" strokeWidth="1.66667" strokeLinecap="round" strokeLinejoin="round" />
  </symbol>
  <symbol xmlns="http://www.w3.org/2000/svg" width="16" height="16" viewBox="0 0 16 16" fill="none" id="chevron-right">
    <path d="M6 12L10 8L6 4" stroke="currentColor" strokeWidth="1.33333" strokeLinecap="round" strokeLinejoin="round" />
  </symbol>
  <symbol fill="none" xmlns="http://www.w3.org/2000/svg" viewBox="0 0 24 24" id="trend-up-01">
    <g id="trend-up-01">
      <path id="Icon" d="M22 7L14.1314 14.8686C13.7354 15.2646 13.5373 15.4627 13.309 15.5368C13.1082 15.6021 12.8918 15.6021 12.691 15.5368C12.4627 15.4627 12.2646 15.2646 11.8686 14.8686L9.13137 12.1314C8.73535 11.7354 8.53735 11.5373 8.30902 11.4632C8.10817 11.3979 7.89183 11.3979 7.69098 11.4632C7.46265 11.5373 7.26465 11.7354 6.86863 12.1314L2 17M22 7H15M22 7V14" stroke="currentColor" stroke-width="2" stroke-linecap="round" stroke-linejoin="round"></path>
    </g>
  </symbol>
  <symbol fill="none" xmlns="http://www.w3.org/2000/svg" viewBox="0 0 24 24" id="hearts">
    <g id="hearts">
      <path id="Icon" d="M15.5455 9.92543C15.9195 9.26103 16.2313 8.66151 16.4236 8.20521C17.3573 5.98947 16.434 3.44077 14.1769 2.40112C11.9199 1.36148 9.65341 2.4395 8.65871 4.52093C6.75657 3.2157 4.21918 3.40739 2.81989 5.44424C1.42059 7.48108 1.85975 10.142 3.77629 11.594C4.6461 12.253 6.36636 13.2242 7.98596 14.0884M16.2972 11.7499C15.8751 9.482 13.9454 7.82334 11.5156 8.27415C9.08592 8.72497 7.51488 10.9171 7.84335 13.299C8.10725 15.2127 9.56392 19.7027 10.1264 21.394C10.2032 21.6248 10.2415 21.7402 10.3175 21.8206C10.3837 21.8907 10.4717 21.9416 10.5655 21.9638C10.6732 21.9894 10.7923 21.9649 11.0306 21.916C12.7765 21.5575 17.3933 20.574 19.1826 19.8457C21.4096 18.9392 22.5589 16.4841 21.6981 14.153C20.8372 11.8219 18.4723 10.9815 16.2972 11.7499Z" stroke="currentColor" stroke-width="2" stroke-linecap="round" stroke-linejoin="round"></path>
    </g>
  </symbol>
  <symbol fill="none" xmlns="http://www.w3.org/2000/svg" viewBox="0 0 24 24" id="phone-call-01">
    <g id="phone-call-01">
      <path id="Icon" d="M14.0497 6C15.0264 6.19057 15.924 6.66826 16.6277 7.37194C17.3314 8.07561 17.8091 8.97326 17.9997 9.95M14.0497 2C16.0789 2.22544 17.9713 3.13417 19.4159 4.57701C20.8606 6.01984 21.7717 7.91101 21.9997 9.94M10.2266 13.8631C9.02506 12.6615 8.07627 11.3028 7.38028 9.85323C7.32041 9.72854 7.29048 9.66619 7.26748 9.5873C7.18576 9.30695 7.24446 8.96269 7.41447 8.72526C7.46231 8.65845 7.51947 8.60129 7.63378 8.48698C7.98338 8.13737 8.15819 7.96257 8.27247 7.78679C8.70347 7.1239 8.70347 6.26932 8.27247 5.60643C8.15819 5.43065 7.98338 5.25585 7.63378 4.90624L7.43891 4.71137C6.90747 4.17993 6.64174 3.91421 6.35636 3.76987C5.7888 3.4828 5.11854 3.4828 4.55098 3.76987C4.2656 3.91421 3.99987 4.17993 3.46843 4.71137L3.3108 4.86901C2.78117 5.39863 2.51636 5.66344 2.31411 6.02348C2.08969 6.42298 1.92833 7.04347 1.9297 7.5017C1.93092 7.91464 2.01103 8.19687 2.17124 8.76131C3.03221 11.7947 4.65668 14.6571 7.04466 17.045C9.43264 19.433 12.295 21.0575 15.3284 21.9185C15.8928 22.0787 16.1751 22.1588 16.588 22.16C17.0462 22.1614 17.6667 22 18.0662 21.7756C18.4263 21.5733 18.6911 21.3085 19.2207 20.7789L19.3783 20.6213C19.9098 20.0898 20.1755 19.8241 20.3198 19.5387C20.6069 18.9712 20.6069 18.3009 20.3198 17.7333C20.1755 17.448 19.9098 17.1822 19.3783 16.6508L19.1835 16.4559C18.8339 16.1063 18.6591 15.9315 18.4833 15.8172C17.8204 15.3862 16.9658 15.3862 16.3029 15.8172C16.1271 15.9315 15.9523 16.1063 15.6027 16.4559C15.4884 16.5702 15.4313 16.6274 15.3644 16.6752C15.127 16.8453 14.7828 16.904 14.5024 16.8222C14.4235 16.7992 14.3612 16.7693 14.2365 16.7094C12.7869 16.0134 11.4282 15.0646 10.2266 13.8631Z" stroke="currentColor" stroke-width="2" stroke-linecap="round" stroke-linejoin="round"></path>
    </g>
  </symbol>
  <symbol fill="none" xmlns="http://www.w3.org/2000/svg" viewBox="0 0 24 24" id="bookmark-add">
    <path d="M12 13V7M9 10H15M19 21V7.8C19 6.11984 19 5.27976 18.673 4.63803C18.3854 4.07354 17.9265 3.6146 17.362 3.32698C16.7202 3 15.8802 3 14.2 3H9.8C8.11984 3 7.27976 3 6.63803 3.32698C6.07354 3.6146 5.6146 4.07354 5.32698 4.63803C5 5.27976 5 6.11984 5 7.8V21L12 17L19 21Z" stroke="currentColor" stroke-width="2" stroke-linecap="round" stroke-linejoin="round"></path>
  </symbol>
  <symbol fill="none" xmlns="http://www.w3.org/2000/svg" viewBox="0 0 25 24" id="coins-hand">
    <path d="M13.8635 8.35186C13.2911 8.75995 12.5906 9 11.834 9C9.90099 9 8.33398 7.433 8.33398 5.5C8.33398 3.567 9.90099 2 11.834 2C13.087 2 14.1862 2.65842 14.8045 3.64814M6.33398 20.0872H8.94427C9.28461 20.0872 9.62287 20.1277 9.9528 20.2086L12.7109 20.8789C13.3093 21.0247 13.9328 21.0388 14.5375 20.9214L17.587 20.3281C18.3925 20.1712 19.1336 19.7854 19.7143 19.2205L21.8719 17.1217C22.488 16.5234 22.488 15.5524 21.8719 14.9531C21.3171 14.4134 20.4387 14.3527 19.8111 14.8103L17.2966 16.6449C16.9365 16.9081 16.4983 17.0498 16.0476 17.0498H13.6195L15.1651 17.0498C16.0362 17.0498 16.7418 16.3633 16.7418 15.5159V15.2091C16.7418 14.5055 16.2495 13.892 15.5481 13.7219L13.1626 13.1417C12.7744 13.0476 12.3768 13 11.9771 13C11.0123 13 9.26588 13.7988 9.26588 13.7988L6.33398 15.0249M20.334 6.5C20.334 8.433 18.767 10 16.834 10C14.901 10 13.334 8.433 13.334 6.5C13.334 4.567 14.901 3 16.834 3C18.767 3 20.334 4.567 20.334 6.5ZM2.33398 14.6L2.33398 20.4C2.33398 20.9601 2.33398 21.2401 2.44298 21.454C2.53885 21.6422 2.69183 21.7951 2.87999 21.891C3.09391 22 3.37393 22 3.93398 22H4.73398C5.29404 22 5.57406 22 5.78797 21.891C5.97614 21.7951 6.12912 21.6422 6.22499 21.454C6.33398 21.2401 6.33398 20.9601 6.33398 20.4V14.6C6.33398 14.0399 6.33398 13.7599 6.22499 13.546C6.12912 13.3578 5.97614 13.2049 5.78798 13.109C5.57406 13 5.29404 13 4.73398 13L3.93398 13C3.37393 13 3.09391 13 2.87999 13.109C2.69183 13.2049 2.53885 13.3578 2.44298 13.546C2.33398 13.7599 2.33398 14.0399 2.33398 14.6Z" stroke="currentColor" stroke-width="2" stroke-linecap="round" stroke-linejoin="round"></path>
  </symbol>
  <symbol fill="none" xmlns="http://www.w3.org/2000/svg" viewBox="0 0 25 24" id="settings-03">
    <path d="M15.7165 9H6.16602C4.7853 9 3.66602 7.88071 3.66602 6.5C3.66602 5.11929 4.7853 4 6.16602 4H15.7165M9.61551 20H19.166C20.5467 20 21.666 18.8807 21.666 17.5C21.666 16.1193 20.5467 15 19.166 15H9.61551M3.66602 17.5C3.66602 19.433 5.23302 21 7.16602 21C9.09901 21 10.666 19.433 10.666 17.5C10.666 15.567 9.09901 14 7.16602 14C5.23302 14 3.66602 15.567 3.66602 17.5ZM21.666 6.5C21.666 8.433 20.099 10 18.166 10C16.233 10 14.666 8.433 14.666 6.5C14.666 4.567 16.233 3 18.166 3C20.099 3 21.666 4.567 21.666 6.5Z" stroke="currentColor" stroke-width="2" stroke-linecap="round" stroke-linejoin="round"></path>
  </symbol>
  <symbol fill="none" xmlns="http://www.w3.org/2000/svg" viewBox="0 0 24 24" id="shield-tick">
    <path d="M9 11.5L11 13.5L15.5 8.99999M20 12C20 16.9084 14.646 20.4784 12.698 21.6149C12.4766 21.744 12.3659 21.8086 12.2097 21.8421C12.0884 21.8681 11.9116 21.8681 11.7903 21.8421C11.6341 21.8086 11.5234 21.744 11.302 21.6149C9.35396 20.4784 4 16.9084 4 12V7.21759C4 6.41808 4 6.01833 4.13076 5.6747C4.24627 5.37113 4.43398 5.10027 4.67766 4.88552C4.9535 4.64243 5.3278 4.50207 6.0764 4.22134L11.4382 2.21067C11.6461 2.13271 11.75 2.09373 11.857 2.07827C11.9518 2.06457 12.0482 2.06457 12.143 2.07827C12.25 2.09373 12.3539 2.13271 12.5618 2.21067L17.9236 4.22134C18.6722 4.50207 19.0465 4.64243 19.3223 4.88552C19.566 5.10027 19.7537 5.37113 19.8692 5.6747C20 6.01833 20 6.41808 20 7.21759V12Z" stroke="currentColor" stroke-width="2" stroke-linecap="round" stroke-linejoin="round"></path>
  </symbol>
  <symbol fill="none" xmlns="http://www.w3.org/2000/svg" viewBox="0 0 25 24" id="speedometer-02">
    <path d="M22.334 12C22.334 17.5228 17.8568 22 12.334 22C6.81114 22 2.33398 17.5228 2.33398 12M22.334 12C22.334 6.47715 17.8568 2 12.334 2M22.334 12H19.834M2.33398 12C2.33398 6.47715 6.81114 2 12.334 2M2.33398 12H4.83398M12.334 2V4.5M19.4124 5L13.8339 10.5M19.4124 19.0784L19.2085 18.8745C18.5167 18.1827 18.1708 17.8368 17.7671 17.5894C17.4092 17.3701 17.0191 17.2085 16.6109 17.1105C16.1506 17 15.6614 17 14.683 17L9.98494 17C9.00658 17 8.5174 17 8.05705 17.1106C7.64891 17.2086 7.25873 17.3702 6.90085 17.5895C6.49718 17.8369 6.15128 18.1828 5.45948 18.8746L5.25562 19.0784M5.25562 5L6.99207 6.73645M14.334 12C14.334 13.1046 13.4386 14 12.334 14C11.2294 14 10.334 13.1046 10.334 12C10.334 10.8954 11.2294 10 12.334 10C13.4386 10 14.334 10.8954 14.334 12Z" stroke="currentColor" stroke-width="2" stroke-linecap="round" stroke-linejoin="round"></path>
  </symbol>
  <symbol fill="none" xmlns="http://www.w3.org/2000/svg" viewBox="0 0 25 24" id="tool-02">
    <path d="M6.66602 6L11.166 10.5M6.66602 6H3.66602L2.66602 3L3.66602 2L6.66602 3V6ZM19.925 2.74101L17.2974 5.36863C16.9014 5.76465 16.7034 5.96265 16.6292 6.19098C16.5639 6.39183 16.5639 6.60817 16.6292 6.80902C16.7034 7.03735 16.9014 7.23535 17.2974 7.63137L17.5346 7.86863C17.9307 8.26465 18.1287 8.46265 18.357 8.53684C18.5578 8.6021 18.7742 8.6021 18.975 8.53684C19.2034 8.46265 19.4014 8.26465 19.7974 7.86863L22.2553 5.41072C22.52 6.05488 22.666 6.76039 22.666 7.5C22.666 10.5376 20.2036 13 17.166 13C16.7998 13 16.442 12.9642 16.0958 12.8959C15.6096 12.8001 15.3666 12.7521 15.2192 12.7668C15.0625 12.7824 14.9853 12.8059 14.8465 12.8802C14.716 12.9501 14.585 13.081 14.323 13.343L7.16602 20.5C6.33759 21.3284 4.99444 21.3284 4.16602 20.5C3.33759 19.6716 3.33759 18.3284 4.16602 17.5L11.323 10.343C11.585 10.081 11.716 9.95005 11.7858 9.81949C11.8601 9.68068 11.8836 9.60347 11.8992 9.44681C11.9139 9.29945 11.866 9.05638 11.7701 8.57024C11.7018 8.22406 11.666 7.86621 11.666 7.5C11.666 4.46243 14.1284 2 17.166 2C18.1715 2 19.114 2.26982 19.925 2.74101ZM12.6661 14.9999L18.166 20.4999C18.9944 21.3283 20.3376 21.3283 21.166 20.4999C21.9944 19.6715 21.9944 18.3283 21.166 17.4999L16.6413 12.9753C16.321 12.945 16.0087 12.8872 15.7068 12.8043C15.3177 12.6975 14.891 12.7751 14.6057 13.0603L12.6661 14.9999Z" stroke="currentColor" stroke-width="2" stroke-linecap="round" stroke-linejoin="round"></path>
  </symbol>
  <symbol fill="none" xmlns="http://www.w3.org/2000/svg" viewBox="0 0 20 21" id="circle-check-01">
    <rect y="0.411133" width="20" height="19.9963" rx="9.99814" fill="currentColor"/>
    <path d="M6.27975 10.6418L8.6049 12.967L13.7202 7.85162" stroke="white" stroke-width="1.11607" stroke-linecap="round" stroke-linejoin="round"/>
  </symbol>
  <symbol fill="none" xmlns="http://www.w3.org/2000/svg" viewBox="0 0 15 16" id="star">
    <path d="M7.15375 1.5356C7.28185 1.22761 7.71815 1.22761 7.84625 1.5356L9.39581 5.26121C9.44982 5.39105 9.57192 5.47976 9.71209 5.491L13.7342 5.81345C14.0667 5.8401 14.2015 6.25504 13.9482 6.47204L10.8838 9.09705C10.777 9.18853 10.7303 9.33207 10.763 9.46885L11.6992 13.3937C11.7766 13.7182 11.4236 13.9747 11.139 13.8008L7.69547 11.6975C7.57546 11.6242 7.42454 11.6242 7.30453 11.6975L3.86104 13.8008C3.57638 13.9747 3.22341 13.7182 3.30081 13.3937L4.23704 9.46886C4.26967 9.33207 4.22303 9.18853 4.11623 9.09705L1.05181 6.47204C0.798483 6.25504 0.933305 5.8401 1.2658 5.81345L5.28791 5.491C5.42808 5.47976 5.55018 5.39105 5.60419 5.26121L7.15375 1.5356Z" fill="currentColor" />
  </symbol>
</svg>