<svg width="27" height="28" viewBox="0 0 27 28" fill="none" xmlns="http://www.w3.org/2000/svg">
<path d="M3.03091 17.053L12.5361 7.18703L11.2862 5.88973L1.78105 15.7557L1.76855 10.9297C1.76814 10.8092 1.74486 10.6899 1.70004 10.5787C1.65523 10.4675 1.58975 10.3666 1.50734 10.2817C1.42494 10.1967 1.32723 10.1295 1.21979 10.0838C1.11235 10.038 0.997278 10.0147 0.881154 10.0151C0.765029 10.0156 0.650123 10.0397 0.542995 10.0862C0.435867 10.1328 0.338616 10.2007 0.256794 10.2863C0.174972 10.3718 0.110181 10.4732 0.0661209 10.5847C0.0220611 10.6962 -0.000404814 10.8157 5.52111e-06 10.9362L0.0187532 18.8822L7.67412 18.9016C7.79547 18.9122 7.91762 18.8967 8.03291 18.856C8.1482 18.8153 8.25414 18.7502 8.34408 18.665C8.43403 18.5798 8.50603 18.4762 8.55558 18.3607C8.60512 18.2453 8.63115 18.1204 8.63201 17.994C8.63287 17.8676 8.60856 17.7424 8.5606 17.6262C8.51263 17.51 8.44205 17.4054 8.35328 17.3189C8.26451 17.2323 8.15947 17.1658 8.04475 17.1234C7.93003 17.081 7.8081 17.0636 7.68662 17.0724L3.03091 17.053Z" fill="black"/>
<path d="M12.5861 4.54054L14.4608 2.59459L15.7107 3.89189L13.8359 5.83784L12.5861 4.54054Z" fill="black"/>
<path d="M15.7107 1.2973L16.9605 0L18.2104 1.2973L16.9605 2.59459L15.7107 1.2973Z" fill="black"/>
<path d="M19.3228 5.15027C19.2066 5.14985 19.0916 5.17316 18.9841 5.2189C18.8767 5.26463 18.779 5.33188 18.6966 5.41681C18.6142 5.50173 18.5487 5.60268 18.5039 5.71387C18.4591 5.82507 18.4358 5.94433 18.4354 6.06487C18.435 6.1854 18.4574 6.30483 18.5015 6.41635C18.5456 6.52787 18.6103 6.62929 18.6922 6.71482C18.774 6.80035 18.8712 6.86832 18.9784 6.91484C19.0855 6.96136 19.2004 6.98552 19.3165 6.98595L23.966 6.99892L14.4608 16.8649L15.7107 18.1622L25.2158 8.29622L25.2346 13.1286C25.2261 13.2547 25.2428 13.3813 25.2837 13.5004C25.3245 13.6195 25.3886 13.7285 25.472 13.8206C25.5554 13.9128 25.6562 13.986 25.7681 14.0358C25.8801 14.0856 26.0007 14.1108 26.1225 14.1099C26.2443 14.109 26.3645 14.082 26.4758 14.0306C26.587 13.9792 26.6868 13.9044 26.7689 13.8111C26.8511 13.7177 26.9137 13.6078 26.9529 13.4881C26.9921 13.3684 27.0071 13.2416 26.9969 13.1157L26.9594 5.18919L19.3228 5.15027Z" fill="black"/>
<path d="M11.3362 20.1081L13.211 18.1622L14.4608 19.4595L12.5861 21.4054L11.3362 20.1081Z" fill="black"/>
<path d="M8.83648 22.7027L10.0863 21.4054L11.3362 22.7027L10.0863 24L8.83648 22.7027Z" fill="black"/>
</svg>
