<svg width="25" height="29" viewBox="0 0 25 29" fill="none" xmlns="http://www.w3.org/2000/svg">
<path d="M9.05 19.975C9.05 20.7711 8.81394 21.5493 8.37167 22.2112C7.92939 22.8731 7.30077 23.389 6.5653 23.6936C5.82983 23.9983 5.02054 24.078 4.23976 23.9227C3.45899 23.7674 2.7418 23.384 2.1789 22.8211C1.61599 22.2582 1.23265 21.541 1.07734 20.7602C0.922036 19.9795 1.00174 19.1702 1.30639 18.4347C1.61103 17.6992 2.12692 17.0706 2.78883 16.6283C3.45074 16.1861 4.22893 15.95 5.025 15.95H19.975C20.7711 15.95 21.5493 16.1861 22.2112 16.6283C22.8731 17.0706 23.389 17.6992 23.6936 18.4347C23.9983 19.1702 24.078 19.9795 23.9227 20.7602C23.7674 21.541 23.384 22.2582 22.8211 22.8211C22.2582 23.384 21.541 23.7674 20.7602 23.9227C19.9795 24.078 19.1702 23.9983 18.4347 23.6936C17.6992 23.389 17.0706 22.8731 16.6283 22.2112C16.1861 21.5493 15.95 20.7711 15.95 19.975V5.025C15.95 4.22893 16.1861 3.45074 16.6283 2.78883C17.0706 2.12692 17.6992 1.61103 18.4347 1.30639C19.1702 1.00174 19.9795 0.922036 20.7602 1.07734C21.541 1.23265 22.2582 1.61599 22.8211 2.1789C23.384 2.7418 23.7674 3.45899 23.9227 4.23976C24.078 5.02054 23.9983 5.82983 23.6936 6.5653C23.389 7.30077 22.8731 7.92939 22.2112 8.37167C21.5493 8.81394 20.7711 9.05 19.975 9.05H5.025C4.22893 9.05 3.45074 8.81394 2.78883 8.37167C2.12692 7.92939 1.61103 7.30077 1.30639 6.5653C1.00174 5.82983 0.922036 5.02054 1.07734 4.23976C1.23265 3.45899 1.61599 2.7418 2.1789 2.1789C2.7418 1.61599 3.45899 1.23265 4.23976 1.07734C5.02054 0.922036 5.82983 1.00174 6.5653 1.30639C7.30077 1.61103 7.92939 2.12692 8.37167 2.78883C8.81394 3.45074 9.05 4.22893 9.05 5.025V19.975Z" stroke="black" stroke-width="2"/>
</svg>
