<svg width="38" height="23" viewBox="0 0 38 23" fill="none" xmlns="http://www.w3.org/2000/svg">
<path d="M35.0304 0.88092C34.214 0.88092 33.5152 1.16884 32.9338 1.74469C32.3525 2.32053 32.0618 3.01277 32.0618 3.8214C32.0618 4.11544 32.1236 4.434 32.2473 4.77705L25.0114 10.9521C24.4424 10.511 23.824 10.2904 23.156 10.2904C22.3644 10.2904 21.6717 10.5722 21.078 11.1358L15.4006 8.30562C15.3511 7.546 15.048 6.90277 14.4914 6.37594C13.9348 5.8491 13.2607 5.58568 12.4691 5.58568C11.9248 5.58568 11.4239 5.71433 10.9662 5.97162C10.5086 6.22891 10.1499 6.58422 9.89011 7.03754C9.63036 7.49087 9.50048 7.98707 9.50048 8.52616C9.50048 8.94273 9.59943 9.35929 9.79734 9.77586L4.00858 16.3552C3.66224 16.2327 3.31591 16.1714 2.96957 16.1714C2.15321 16.1714 1.45435 16.4593 0.873001 17.0352C0.291651 17.611 0.000976562 18.3032 0.000976562 19.1119C0.000976562 19.9205 0.291651 20.6127 0.873001 21.1886C1.45435 21.7644 2.15321 22.0524 2.96957 22.0524C3.78594 22.0524 4.48479 21.7644 5.06614 21.1886C5.64749 20.6127 5.93817 19.9205 5.93817 19.1119C5.93817 18.7443 5.86395 18.3768 5.71552 18.0092L11.5785 11.3196C11.9001 11.4176 12.197 11.4666 12.4691 11.4666C12.8896 11.4666 13.2854 11.3809 13.6565 11.2093C14.0276 11.0378 14.3616 10.805 14.6584 10.511L20.1874 13.2677C20.1874 13.6597 20.2678 14.0334 20.4286 14.3887C20.5894 14.744 20.7997 15.0503 21.0594 15.3076C21.3192 15.5649 21.6346 15.7732 22.0057 15.9325C22.3768 16.0918 22.7602 16.1714 23.156 16.1714C23.3787 16.1714 23.6013 16.1469 23.824 16.0979C24.0466 16.0489 24.2569 15.9754 24.4548 15.8774C24.6527 15.7793 24.8382 15.6629 25.0114 15.5282C25.1846 15.3934 25.3392 15.2402 25.4752 15.0687C25.6113 14.8972 25.7288 14.7134 25.8278 14.5174C25.9267 14.3213 26.0009 14.1131 26.0504 13.8925C26.0999 13.672 26.1246 13.4515 26.1246 13.2309V13.0839L33.843 6.50458C34.214 6.67611 34.6098 6.76187 35.0304 6.76187C35.8468 6.76187 36.5456 6.47395 37.127 5.89811C37.7083 5.32227 37.999 4.63003 37.999 3.8214C37.999 3.01277 37.7083 2.32053 37.127 1.74469C36.5456 1.16884 35.8468 0.88092 35.0304 0.88092Z" fill="#F695CE"/>
</svg>
