<svg width="20" height="24" viewBox="0 0 20 24" fill="none" xmlns="http://www.w3.org/2000/svg">
<path d="M20 18.25V5.75C20 3.04 15.4212 0.75 10 0.75C4.57875 0.75 0 3.04 0 5.75V18.25C0 20.96 4.57875 23.25 10 23.25C15.4212 23.25 20 20.96 20 18.25ZM10 3.25C14.6138 3.25 17.4137 5.13375 17.5 5.7425C17.4137 6.36625 14.6138 8.25 10 8.25C5.38625 8.25 2.58625 6.36625 2.5 5.7575C2.58625 5.13375 5.38625 3.25 10 3.25ZM2.5 9.00875C4.34875 10.0675 7.04625 10.75 10 10.75C12.9537 10.75 15.6512 10.0675 17.5 9.00875V11.9925C17.4137 12.6163 14.6138 14.5 10 14.5C5.38625 14.5 2.58625 12.6163 2.5 12V9.00875ZM2.5 18.25V15.2588C4.34875 16.3175 7.04625 17 10 17C12.9537 17 15.6512 16.3175 17.5 15.2588V18.2425C17.4137 18.8662 14.6138 20.75 10 20.75C5.38625 20.75 2.58625 18.8662 2.5 18.25Z" fill="#DDB54B"/>
</svg>
