<svg width="22" height="22" viewBox="0 0 22 22" fill="none" xmlns="http://www.w3.org/2000/svg">
<path d="M17.6 9.9H14.102C13.64 8.624 12.43 7.7 11 7.7C9.57 7.7 8.36 8.624 7.898 9.9H4.4C4.037 9.9 2.2 9.79 2.2 7.7V6.6C2.2 4.587 3.894 4.4 4.4 4.4H15.598C16.06 5.676 17.27 6.6 18.7 6.6C19.5752 6.6 20.4146 6.25232 21.0335 5.63345C21.6523 5.01458 22 4.17521 22 3.3C22 2.42479 21.6523 1.58542 21.0335 0.966548C20.4146 0.347678 19.5752 0 18.7 0C17.27 0 16.06 0.924 15.598 2.2H4.4C2.629 2.2 0 3.366 0 6.6V7.7C0 10.934 2.629 12.1 4.4 12.1H7.898C8.36 13.376 9.57 14.3 11 14.3C12.43 14.3 13.64 13.376 14.102 12.1H17.6C17.963 12.1 19.8 12.21 19.8 14.3V15.4C19.8 17.413 18.106 17.6 17.6 17.6H6.402C5.94 16.324 4.73 15.4 3.3 15.4C2.42479 15.4 1.58542 15.7477 0.966548 16.3665C0.347678 16.9854 0 17.8248 0 18.7C0 19.5752 0.347678 20.4146 0.966548 21.0335C1.58542 21.6523 2.42479 22 3.3 22C4.73 22 5.94 21.076 6.402 19.8H17.6C19.371 19.8 22 18.623 22 15.4V14.3C22 11.077 19.371 9.9 17.6 9.9ZM18.7 2.2C18.9917 2.2 19.2715 2.31589 19.4778 2.52218C19.6841 2.72847 19.8 3.00826 19.8 3.3C19.8 3.59174 19.6841 3.87153 19.4778 4.07782C19.2715 4.28411 18.9917 4.4 18.7 4.4C18.4083 4.4 18.1285 4.28411 17.9222 4.07782C17.7159 3.87153 17.6 3.59174 17.6 3.3C17.6 3.00826 17.7159 2.72847 17.9222 2.52218C18.1285 2.31589 18.4083 2.2 18.7 2.2ZM3.3 19.8C3.00826 19.8 2.72847 19.6841 2.52218 19.4778C2.31589 19.2715 2.2 18.9917 2.2 18.7C2.2 18.4083 2.31589 18.1285 2.52218 17.9222C2.72847 17.7159 3.00826 17.6 3.3 17.6C3.59174 17.6 3.87153 17.7159 4.07782 17.9222C4.28411 18.1285 4.4 18.4083 4.4 18.7C4.4 18.9917 4.28411 19.2715 4.07782 19.4778C3.87153 19.6841 3.59174 19.8 3.3 19.8Z" fill="#AFE1E9"/>
</svg>
