<svg width="22" height="14" viewBox="0 0 22 14" fill="none" xmlns="http://www.w3.org/2000/svg">
<path fill-rule="evenodd" clip-rule="evenodd" d="M5.86667 12.8667C5.86667 12.6722 5.94393 12.4857 6.08146 12.3481C6.21898 12.2106 6.40551 12.1334 6.6 12.1334H21.2667C21.4612 12.1334 21.6477 12.2106 21.7852 12.3481C21.9227 12.4857 22 12.6722 22 12.8667C22 13.0612 21.9227 13.2477 21.7852 13.3852C21.6477 13.5228 21.4612 13.6 21.2667 13.6H6.6C6.40551 13.6 6.21898 13.5228 6.08146 13.3852C5.94393 13.2477 5.86667 13.0612 5.86667 12.8667ZM2.93333 7.00002C2.93333 6.80553 3.0106 6.61901 3.14812 6.48148C3.28565 6.34395 3.47217 6.26669 3.66667 6.26669H18.3333C18.5278 6.26669 18.7144 6.34395 18.8519 6.48148C18.9894 6.61901 19.0667 6.80553 19.0667 7.00002C19.0667 7.19452 18.9894 7.38104 18.8519 7.51857C18.7144 7.6561 18.5278 7.73336 18.3333 7.73336H3.66667C3.47217 7.73336 3.28565 7.6561 3.14812 7.51857C3.0106 7.38104 2.93333 7.19452 2.93333 7.00002ZM0 1.13336C0 0.938866 0.0772617 0.75234 0.214788 0.614813C0.352315 0.477286 0.538841 0.400024 0.733333 0.400024H15.4C15.5945 0.400024 15.781 0.477286 15.9185 0.614813C16.0561 0.75234 16.1333 0.938866 16.1333 1.13336C16.1333 1.32785 16.0561 1.51438 15.9185 1.6519C15.781 1.78943 15.5945 1.86669 15.4 1.86669H0.733333C0.538841 1.86669 0.352315 1.78943 0.214788 1.6519C0.0772617 1.51438 0 1.32785 0 1.13336Z" fill="#F695CE"/>
</svg>
