<svg width="22" height="20" viewBox="0 0 22 20" fill="none" xmlns="http://www.w3.org/2000/svg">
<path d="M15.7841 6.21533L11.8462 10.0866C11.4214 9.88196 10.938 9.83409 10.4813 9.95142C10.0246 10.0688 9.62414 10.3437 9.3506 10.7278C9.07705 11.1118 8.94807 11.5802 8.98645 12.0501C9.02482 12.5201 9.22808 12.9613 9.5603 13.2959C9.89252 13.6305 10.3323 13.8369 10.802 13.8785C11.2716 13.9202 11.7409 13.7946 12.1269 13.5238C12.5128 13.2529 12.7907 12.8544 12.9112 12.3986C13.0318 11.9427 12.9873 11.459 12.7857 11.0327L16.7302 7.16149L15.7841 6.21533Z" fill="#4945FB"/>
<path d="M11 0.838264C8.90294 0.835861 6.849 1.43363 5.08074 2.56098C3.31248 3.68833 1.90377 5.29817 1.02099 7.20036C0.1382 9.10255 -0.181789 11.2176 0.0988113 13.2958C0.379412 15.3741 1.24888 17.3285 2.60453 18.9285L2.80442 19.1617H19.1956L19.3955 18.9285C20.7511 17.3285 21.6206 15.3741 21.9012 13.2958C22.1818 11.2176 21.8618 9.10255 20.979 7.20036C20.0962 5.29817 18.6875 3.68833 16.9193 2.56098C15.151 1.43363 13.0971 0.835861 11 0.838264ZM18.5559 17.8291H3.44408C2.24851 16.333 1.52694 14.514 1.37186 12.6052H3.67062V11.2726H1.37186C1.48345 9.15693 2.29167 7.13753 3.67062 5.52907L5.30307 7.16152L6.24257 6.22203L4.62344 4.58291C6.21143 3.17936 8.21918 2.34065 10.3337 2.19753V4.52961H11.6663V2.20419C14.002 2.37358 16.1963 3.3873 17.8393 5.05607C19.4823 6.72484 20.4618 8.93456 20.5948 11.2726H18.2761V12.6052H20.6281C20.4731 14.514 19.7515 16.333 18.5559 17.8291Z" fill="#4945FB"/>
</svg>
