<svg width="22" height="14" viewBox="0 0 22 14" fill="none" xmlns="http://www.w3.org/2000/svg">
<path fill-rule="evenodd" clip-rule="evenodd" d="M0 2.875C0 2.14565 0.289731 1.44618 0.805456 0.930456C1.32118 0.414731 2.02065 0.125 2.75 0.125H13.0625C13.7295 0.124922 14.3738 0.367265 14.8754 0.806901C15.377 1.24654 15.7017 1.8535 15.7891 2.51475L20.0654 0.6145C20.2747 0.521236 20.504 0.481763 20.7324 0.499668C20.9609 0.517573 21.1812 0.592288 21.3735 0.717023C21.5657 0.841759 21.7237 1.01256 21.8331 1.2139C21.9425 1.41523 21.9999 1.64073 22 1.86988V12.1301C21.9998 12.3591 21.9424 12.5844 21.8331 12.7856C21.7237 12.9867 21.5659 13.1574 21.3738 13.2821C21.1818 13.4068 20.9617 13.4816 20.7334 13.4996C20.5052 13.5177 20.276 13.4785 20.0667 13.3855L15.7891 11.4853C15.7017 12.1465 15.377 12.7535 14.8754 13.1931C14.3738 13.6327 13.7295 13.8751 13.0625 13.875H2.75C2.02065 13.875 1.32118 13.5853 0.805456 13.0695C0.289731 12.5538 0 11.8543 0 11.125V2.875ZM15.8125 9.99063L20.625 12.1301V1.86988L15.8125 4.00937V9.99063ZM2.75 1.5C2.38533 1.5 2.03559 1.64487 1.77773 1.90273C1.51987 2.16059 1.375 2.51033 1.375 2.875V11.125C1.375 11.4897 1.51987 11.8394 1.77773 12.0973C2.03559 12.3551 2.38533 12.5 2.75 12.5H13.0625C13.4272 12.5 13.7769 12.3551 14.0348 12.0973C14.2926 11.8394 14.4375 11.4897 14.4375 11.125V2.875C14.4375 2.51033 14.2926 2.16059 14.0348 1.90273C13.7769 1.64487 13.4272 1.5 13.0625 1.5H2.75Z" fill="#992019"/>
</svg>
