<svg width="28" height="28" viewBox="0 0 28 28" fill="none" xmlns="http://www.w3.org/2000/svg">
<path d="M21 28V25.2H25.2V21H28V25.9C28 26.446 27.776 26.936 27.356 27.356C26.936 27.776 26.446 28 25.9 28H21ZM7 28H2.1C1.554 28 1.064 27.776 0.644 27.356C0.224 26.936 0 26.446 0 25.9V21H2.8V25.2H7V28ZM21 0H25.9C26.446 0 26.936 0.224 27.356 0.644C27.776 1.064 28 1.554 28 2.1V7H25.2V2.8H21V0ZM7 0V2.8H2.8V7H0V2.1C0 1.554 0.224 1.064 0.644 0.644C1.064 0.224 1.554 0 2.1 0H7ZM11.9 5.6C15.4 5.6 18.2 8.4 18.2 11.9C18.2 13.132 17.85 14.28 17.234 15.26L21.798 19.824L19.824 21.798L15.26 17.234C14.28 17.85 13.132 18.2 11.9 18.2C8.4 18.2 5.6 15.4 5.6 11.9C5.6 8.4 8.4 5.6 11.9 5.6ZM11.9 8.4C10.9717 8.4 10.0815 8.76875 9.42513 9.42513C8.76875 10.0815 8.4 10.9717 8.4 11.9C8.4 12.8283 8.76875 13.7185 9.42513 14.3749C10.0815 15.0313 10.9717 15.4 11.9 15.4C12.8283 15.4 13.7185 15.0313 14.3749 14.3749C15.0313 13.7185 15.4 12.8283 15.4 11.9C15.4 10.9717 15.0313 10.0815 14.3749 9.42513C13.7185 8.76875 12.8283 8.4 11.9 8.4Z" fill="black"/>
</svg>
