<svg width="22" height="16" viewBox="0 0 22 16" fill="none" xmlns="http://www.w3.org/2000/svg">
<path d="M6.336 12.7977C5.137 11.5757 4.4 9.87836 4.4 8C4.4 6.12164 5.137 4.42433 6.336 3.20226L7.898 4.80905C7.095 5.62376 6.6 6.7553 6.6 8C6.6 9.2447 7.095 10.3762 7.887 11.2023L6.336 12.7977ZM15.664 12.7977C16.863 11.5757 17.6 9.87836 17.6 8C17.6 6.12164 16.863 4.42433 15.664 3.20226L14.102 4.80905C14.905 5.62376 15.4 6.7553 15.4 8C15.4 9.2447 14.905 10.3762 14.113 11.2023L15.664 12.7977ZM11 5.73692C9.79 5.73692 8.8 6.7553 8.8 8C8.8 9.2447 9.79 10.2631 11 10.2631C12.21 10.2631 13.2 9.2447 13.2 8C13.2 6.7553 12.21 5.73692 11 5.73692ZM19.8 8C19.8 10.5007 18.81 12.7638 17.215 14.3932L18.777 16C20.768 13.9519 22 11.1231 22 8C22 4.87695 20.768 2.04809 18.777 0L17.215 1.60679C18.0356 2.44357 18.6865 3.43952 19.1303 4.53694C19.574 5.63436 19.8016 6.81144 19.8 8ZM4.785 1.60679L3.223 0C1.232 2.04809 0 4.87695 0 8C0 11.1231 1.232 13.9519 3.223 16L4.785 14.3932C3.19 12.7638 2.2 10.5007 2.2 8C2.2 5.49929 3.19 3.23621 4.785 1.60679Z" fill="#FFB689"/>
</svg>
