<svg width="22" height="24" viewBox="0 0 22 24" fill="none" xmlns="http://www.w3.org/2000/svg">
<path d="M21.5727 5.35358L21.0808 5.06957C21.1383 4.76362 21.1383 4.44965 21.0808 4.1437L21.5727 3.85969C21.6695 3.80462 21.7546 3.73092 21.8228 3.64285C21.8911 3.55479 21.9413 3.45408 21.9705 3.34654C21.9997 3.239 22.0073 3.12675 21.993 3.01624C21.9786 2.90574 21.9425 2.79917 21.8868 2.70267C21.8311 2.60616 21.7568 2.52163 21.6683 2.45395C21.5798 2.38626 21.4787 2.33675 21.371 2.30826C21.2633 2.27978 21.151 2.27289 21.0406 2.28799C20.9302 2.30308 20.8238 2.33987 20.7277 2.39622L20.2346 2.68087C19.9984 2.47848 19.727 2.32127 19.434 2.21709V1.64928C19.434 1.42518 19.3449 1.21026 19.1865 1.0518C19.028 0.893343 18.8131 0.804321 18.589 0.804321C18.3649 0.804321 18.15 0.893343 17.9915 1.0518C17.8331 1.21026 17.7441 1.42518 17.7441 1.64928V2.21709C17.451 2.32127 17.1796 2.47848 16.9435 2.68087L16.4503 2.39622C16.2563 2.28594 16.0266 2.25686 15.8113 2.31532C15.596 2.37378 15.4125 2.51504 15.3009 2.70827C15.1894 2.9015 15.1588 3.13102 15.2158 3.34673C15.2728 3.56245 15.4129 3.74685 15.6054 3.85969L16.0972 4.1437C16.0397 4.44965 16.0397 4.76362 16.0972 5.06957L15.6054 5.35358C15.5085 5.40866 15.4235 5.48235 15.3552 5.57042C15.2869 5.65849 15.2367 5.75919 15.2075 5.86673C15.1783 5.97427 15.1707 6.08652 15.1851 6.19703C15.1994 6.30753 15.2355 6.4141 15.2912 6.5106C15.3469 6.60711 15.4212 6.69164 15.5097 6.75933C15.5982 6.82701 15.6993 6.87652 15.807 6.90501C15.9147 6.93349 16.027 6.94038 16.1374 6.92529C16.2479 6.91019 16.3542 6.8734 16.4503 6.81705L16.9435 6.5324C17.1796 6.73479 17.451 6.892 17.7441 6.99618V7.56399C17.7441 7.78809 17.8331 8.00301 17.9915 8.16147C18.15 8.31993 18.3649 8.40895 18.589 8.40895C18.8131 8.40895 19.028 8.31993 19.1865 8.16147C19.3449 8.00301 19.434 7.78809 19.434 7.56399V6.99618C19.727 6.892 19.9984 6.73479 20.2346 6.5324L20.7277 6.81705C20.9217 6.92733 21.1514 6.95641 21.3667 6.89795C21.5821 6.83949 21.7655 6.69823 21.8771 6.505C21.9886 6.31177 22.0193 6.08225 21.9622 5.86654C21.9052 5.65082 21.7652 5.46642 21.5727 5.35358ZM17.7441 4.60664C17.7441 4.43952 17.7936 4.27615 17.8865 4.1372C17.9793 3.99825 18.1113 3.88995 18.2657 3.826C18.4201 3.76204 18.5899 3.74531 18.7539 3.77791C18.9178 3.81052 19.0683 3.89099 19.1865 4.00916C19.3047 4.12733 19.3851 4.27789 19.4177 4.44179C19.4503 4.6057 19.4336 4.77559 19.3697 4.92999C19.3057 5.08438 19.1974 5.21635 19.0584 5.30919C18.9195 5.40204 18.7561 5.45159 18.589 5.45159C18.365 5.45131 18.1502 5.3622 17.9918 5.2038C17.8334 5.0454 17.7443 4.83065 17.7441 4.60664ZM20.9517 10.1576C20.7292 10.1842 20.5264 10.298 20.3878 10.4742C20.2493 10.6503 20.1863 10.8743 20.2129 11.0968C20.2569 11.4666 20.2789 11.8388 20.2789 12.2113C20.2807 14.4865 19.4444 16.6827 17.9297 18.3805C16.9879 17.0148 15.6628 15.9584 14.1215 15.3445C14.9493 14.6924 15.5534 13.7986 15.8496 12.7873C16.1459 11.776 16.1197 10.6975 15.7746 9.70183C15.4296 8.70613 14.7828 7.8427 13.9243 7.23162C13.0658 6.62053 12.0382 6.29215 10.9844 6.29215C9.93059 6.29215 8.90299 6.62053 8.04447 7.23162C7.18595 7.8427 6.53919 8.70613 6.19413 9.70183C5.84907 10.6975 5.82285 11.776 6.11913 12.7873C6.41541 13.7986 7.01945 14.6924 7.84726 15.3445C6.30598 15.9584 4.9809 17.0148 4.03903 18.3805C2.84818 17.042 2.0698 15.3877 1.79768 13.6169C1.52557 11.8461 1.77133 10.0344 2.50535 8.40009C3.23938 6.76578 4.43035 5.3786 5.93475 4.40571C7.43916 3.43281 9.1928 2.91571 10.9844 2.91672C11.2724 2.91672 11.5629 2.93003 11.8478 2.95622C12.071 2.97677 12.2932 2.90782 12.4655 2.76455C12.6378 2.62129 12.7462 2.41543 12.7667 2.19227C12.7873 1.96911 12.7183 1.74693 12.5751 1.57461C12.4318 1.40228 12.2259 1.29393 12.0028 1.27338C11.6642 1.24234 11.3244 1.2268 10.9844 1.2268C8.77046 1.22577 6.60794 1.89408 4.78061 3.14402C2.95328 4.39395 1.54652 6.16713 0.744928 8.23084C-0.056663 10.2946 -0.215632 12.5524 0.288882 14.7081C0.793397 16.8637 1.93782 18.8165 3.57198 20.3102C3.61376 20.3572 3.66071 20.3994 3.71193 20.4359C5.71723 22.214 8.30446 23.1958 10.9845 23.1957C13.6646 23.1957 16.2518 22.2138 18.257 20.4357C18.308 20.3993 18.3548 20.3574 18.3965 20.3106C19.5225 19.2833 20.4218 18.0324 21.0369 16.6377C21.6521 15.2431 21.9695 13.7355 21.9688 12.2113C21.9688 11.7719 21.9428 11.3328 21.8909 10.8965C21.8778 10.7863 21.843 10.6798 21.7887 10.583C21.7344 10.4863 21.6616 10.4011 21.5744 10.3325C21.4871 10.2639 21.3873 10.2131 21.2804 10.1831C21.1736 10.1531 21.0619 10.1444 20.9517 10.1576ZM7.60455 11.3663C7.60455 10.6978 7.80277 10.0444 8.17415 9.48857C8.54553 8.93276 9.07339 8.49956 9.69098 8.24375C10.3086 7.98793 10.9881 7.921 11.6438 8.05141C12.2994 8.18182 12.9016 8.50372 13.3743 8.9764C13.847 9.44908 14.1689 10.0513 14.2993 10.7069C14.4297 11.3626 14.3628 12.0421 14.1069 12.6597C13.8511 13.2773 13.4179 13.8052 12.8621 14.1765C12.3063 14.5479 11.6529 14.7461 10.9844 14.7461C10.0883 14.7451 9.22921 14.3887 8.59559 13.7551C7.96197 13.1215 7.60555 12.2624 7.60455 11.3663ZM5.28968 19.5517C5.90138 18.5964 6.74357 17.8104 7.73872 17.2659C8.73388 16.7214 9.85002 16.4361 10.9844 16.4361C12.1187 16.4361 13.2349 16.7214 14.23 17.2659C15.2252 17.8104 16.0674 18.5964 16.6791 19.5517C15.051 20.8182 13.0471 21.5059 10.9844 21.5059C8.92166 21.5059 6.9178 20.8182 5.28968 19.5517Z" fill="#007BFF"/>
</svg>
