<svg width="27" height="27" viewBox="0 0 27 27" fill="none" xmlns="http://www.w3.org/2000/svg">
<path d="M19.182 9.58277L24.0147 4.75015L22.2498 2.98534L17.4172 7.81796L19.182 9.58277ZM26.5547 4.75015C26.5547 5.04704 26.4557 5.29444 26.2578 5.49236L5.04704 26.7031C4.84911 26.901 4.60171 27 4.30483 27C4.00794 27 3.76054 26.901 3.56261 26.7031L0.296885 23.4374C0.0989615 23.2395 0 22.9921 0 22.6952C0 22.3983 0.0989615 22.1509 0.296885 21.953L21.5076 0.742211C21.7056 0.544288 21.953 0.445327 22.2498 0.445327C22.5467 0.445327 22.7941 0.544288 22.9921 0.742211L26.2578 4.00794C26.4557 4.20586 26.5547 4.45327 26.5547 4.75015ZM4.27184 1.61637L5.88821 2.11118L4.27184 2.60599L3.77703 4.22236L3.28222 2.60599L1.66585 2.11118L3.28222 1.61637L3.77703 0L4.27184 1.61637ZM10.0446 4.28833L13.2773 5.27795L10.0446 6.26756L9.05498 9.50031L8.06536 6.26756L4.83262 5.27795L8.06536 4.28833L9.05498 1.05559L10.0446 4.28833ZM25.3836 12.1723L27 12.6671L25.3836 13.1619L24.8888 14.7783L24.394 13.1619L22.7776 12.6671L24.394 12.1723L24.8888 10.5559L25.3836 12.1723ZM14.8277 1.61637L16.4441 2.11118L14.8277 2.60599L14.3329 4.22236L13.8381 2.60599L12.2217 2.11118L13.8381 1.61637L14.3329 0L14.8277 1.61637Z" fill="#4945FB"/>
</svg>
