<?xml version="1.0" encoding="UTF-8"?>
<svg width="54px" height="54px" viewBox="0 0 54 54" version="1.1" xmlns="http://www.w3.org/2000/svg" xmlns:xlink="http://www.w3.org/1999/xlink">
    <!-- Generator: Sketch 54.1 (76490) - https://sketchapp.com -->
    <title>icon-asset-mgmt</title>
    <desc>Created with Sketch.</desc>
    <g id="Learning-Center" stroke="none" stroke-width="1" fill="none" fill-rule="evenodd">
        <g id="Website---Learning-Center---Listing" transform="translate(-254.000000, -141.000000)" fill="#007BFF">
            <g id="Solutions-Dropdown" transform="translate(234.000000, 63.000000)">
                <g id="Main-Items" transform="translate(20.000000, 74.000000)">
                    <g id="Asset-Management">
                        <g id="icon-asset-mgmt" transform="translate(0.000000, 4.000000)">
                            <circle id="Oval" fill-opacity="0.15" cx="27" cy="27" r="27"></circle>
                            <g id="ice" transform="translate(13.000000, 12.795181)" fill-rule="nonzero">
                                <g id="Group" transform="translate(0.000000, 0.204819)" fill-opacity="0.473503059">
                                    <path d="M15.8091813,13.1999596 L4.76955508,16.3992541 C4.64660345,16.4349407 4.52250061,16.4499427 4.40070025,16.4465332 C3.89991422,16.4324404 3.44310528,16.1042144 3.29436611,15.6039197 L0.0538776382,4.70540644 C-0.131240443,4.08373184 0.229555689,3.43182581 0.859279726,3.24930127 L11.8989059,0.0500067349 C12.52863,-0.132517862 13.189207,0.223439198 13.3740949,0.845341138 L14.7493569,5.4707368 L16.6148136,11.7436271 C16.7997015,12.3653017 16.4389053,13.017435 15.8091813,13.1999596 Z" id="Path"></path>
                                    <path d="M26.100046,7.47509769 L28.8388275,12.1584557 C29.1595608,12.7067114 28.9691469,13.4074875 28.4140228,13.7238938 L18.4019865,19.4303441 C17.8468623,19.7467504 17.1370125,19.5589978 16.8165094,19.0109695 L11.0361725,9.12691102 C10.7154392,8.57888271 10.9058531,7.87810649 11.4609772,7.56170024 L21.4730135,1.85502255 C22.0281377,1.5386163 22.7379875,1.72636889 23.0584906,2.27462454 L23.7773199,3.50342637" id="Path"></path>
                                    <path d="M15.5213732,26.9599946 L4.20084634,24.9324488 C3.55500508,24.8167514 3.12651647,24.2062146 3.24348166,23.5686288 L5.29727993,12.3928054 C5.41447536,11.7552196 6.03314756,11.3319808 6.67898882,11.4476782 L17.9995157,13.475224 C18.645357,13.5909213 19.0738456,14.2014581 18.9568804,14.839044 L16.9030821,26.0148673 C16.7858867,26.6524532 16.1672145,27.075692 15.5213732,26.9599946 Z" id="Path"></path>
                                </g>
                                <path d="M16.2299707,28.2048193 C16.5872556,28.2048193 16.9356141,28.0978801 17.2354497,27.892593 C17.6245492,27.6262625 17.8854748,27.2263145 17.9699323,26.7662273 L19.0909967,20.6621028 C22.5187347,18.9390933 25.7954106,16.8419098 29.1270181,14.9421002 C29.5305372,14.7119436 29.8191575,14.3402564 29.9397784,13.8957693 C30.0603992,13.4510561 29.998601,12.9866733 29.7653702,12.5880818 L27.042589,7.92955794 C26.6633314,7.28068805 25.6397708,7.86354052 26.0194861,8.51308862 L28.7422673,13.1716124 C28.8958472,13.4343256 28.8022345,13.7795605 28.5362734,13.931265 L18.5833362,19.6074067 C18.3173753,19.7591111 17.9678723,19.6666415 17.8142925,19.4037023 L12.067979,9.57253255 C11.9143991,9.30981941 12.0080119,8.96458446 12.2739728,8.81288003 L22.2269101,3.13673837 C22.492871,2.98503394 22.842374,3.07750353 22.9959539,3.34021672 L23.7105237,4.56266946 C24.0897813,5.21153929 25.1135709,4.62891295 24.7336266,3.97913878 L24.0192857,2.75668604 C23.7862837,2.35809454 23.4100015,2.07299877 22.9597905,1.95385088 C22.5095794,1.83447691 22.0394556,1.89574652 21.6359365,2.12590311 L15.6577655,5.53529596 L14.447437,1.46256371 C14.1720919,0.536284991 13.1853813,0.00407608413 12.2476514,0.2758327 L1.2736712,3.45823419 C0.819569158,3.58981683 0.444431474,3.88847782 0.217609318,4.29882585 C-0.00921283712,4.70917387 -0.0607112903,5.18237407 0.0724980506,5.6309308 L3.29401333,16.471127 C3.45972396,17.0288838 3.88613129,17.4543796 4.42102869,17.6343449 L3.22901082,24.1246261 C3.05460265,25.0741918 3.69501474,25.9871313 4.65631947,26.1594096 L16.2299707,28.2048193 Z M4.42766626,16.1421703 L1.20615103,5.30220019 C1.1152848,4.99675661 1.29724607,4.66757386 1.60669464,4.57804338 L12.5806749,1.39586802 C12.8930989,1.30520712 13.2220024,1.48268545 13.3137841,1.79129427 L14.6049079,6.13578319 L11.6834571,7.80204484 C11.2797091,8.03220143 10.9910888,8.40388856 10.8706968,8.84837574 C10.7498471,9.293089 10.8118741,9.75747179 11.0448761,10.1560633 L12.421144,12.51076 L7.33080655,11.5984987 C6.36904408,11.4262204 5.44504714,12.0585859 5.27063897,13.0083776 L4.63938223,16.4446748 C4.54027624,16.3709704 4.46451626,16.2665182 4.42766626,16.1421703 Z M16.8074402,26.557775 C16.7499908,26.8711317 16.4380245,27.0845579 16.1207939,27.02781 L4.86734872,25.0111135 C4.54691381,24.9536873 4.33336684,24.6493742 4.39150292,24.3328523 L6.43313107,13.2168299 C6.49126709,12.9000819 6.79957126,12.6893688 7.11977731,12.7467949 L13.1954521,13.8356301 L16.7911895,19.9872329 C17.0241915,20.3858244 17.4002448,20.6709202 17.8504558,20.790068 C17.8557201,20.7916507 17.8609844,20.7923289 17.8660198,20.7936854 L16.8074402,26.557775 Z" id="Shape"></path>
                                <path d="M5.97396486,4.62377085 C5.87450914,4.31471084 5.51860146,4.13781463 5.17955915,4.22863492 L2.45928367,4.9561007 C2.12445761,5.0455655 1.92703426,5.37473248 2.0252499,5.67972589 L2.70928711,7.80225432 C2.94143316,8.52226478 4.16937657,8.19242002 3.93772659,7.47353916 L3.43399942,5.91061725 L5.53993115,5.34762195 C5.87922152,5.25680165 6.07342057,4.93283087 5.97396486,4.62377085 Z" id="Path"></path>
                                <path d="M15.5224929,23.2134724 C15.2070896,23.1609612 14.9042933,23.3528848 14.847111,23.6415938 L14.5666023,25.0561037 L12.6656273,24.7406241 C11.9314871,24.6189215 11.7230193,25.6644108 12.4580599,25.7865253 L14.9308583,26.196937 C15.2356807,26.247389 15.5504087,26.0499054 15.6062403,25.7688156 L15.9905326,23.8314582 C16.0479401,23.5425432 15.8383465,23.2659837 15.5224929,23.2134724 Z" id="Path"></path>
                                <path d="M25.0094974,5.60747275 C24.9674407,5.81673997 25.0679096,6.03570444 25.2544392,6.14062899 C25.437464,6.24361402 25.6707233,6.22111639 25.8299938,6.08438477 C26.1672268,5.79559992 25.9697936,5.22733956 25.5268346,5.20542373 C25.2807246,5.19320515 25.058369,5.36756217 25.0094974,5.60747275 L25.0094974,5.60747275 Z" id="Path"></path>
                                <path d="M16.9627057,20.5139582 C16.8804613,20.3167845 16.6769842,20.1902518 16.4634205,20.2061654 C16.2549001,20.2216909 16.0743118,20.3703474 16.0184477,20.5719847 C15.8997366,21.0001001 16.3782666,21.3614558 16.7576767,21.1351718 C16.9677489,21.0098035 17.0565883,20.73966 16.9627057,20.5139582 L16.9627057,20.5139582 Z" id="Path"></path>
                            </g>
                        </g>
                    </g>
                </g>
            </g>
        </g>
    </g>
</svg>