<?xml version="1.0" encoding="UTF-8"?>
<svg width="54px" height="54px" viewBox="0 0 54 54" version="1.1" xmlns="http://www.w3.org/2000/svg" xmlns:xlink="http://www.w3.org/1999/xlink">
    <!-- Generator: Sketch 56.2 (81672) - https://sketch.com -->
    <title>icon-inventory-mgmt</title>
    <desc>Created with Sketch.</desc>
    <g id="Solutions-Dropdown" stroke="none" stroke-width="1" fill="none" fill-rule="evenodd">
        <g id="Header---Solutions-Dropdown" transform="translate(-254.000000, -327.000000)">
            <g id="Solutions-Dropdown" transform="translate(234.000000, 63.000000)">
                <g id="Main-Items" transform="translate(20.000000, 74.000000)">
                    <g id="Property-Management-Copy" transform="translate(0.000000, 186.000000)">
                        <g id="icon-inventory-mgmt" transform="translate(0.000000, 4.000000)">
                            <circle id="Oval" fill-opacity="0.15" fill="#007BFF" cx="27" cy="27" r="27"></circle>
                            <g id="bolt" transform="translate(13.000000, 13.000000)" fill-rule="nonzero">
                                <path d="M27.3421052,26.1644785 L27.3421052,28.3061095 C27.3421052,28.542161 27.1174648,28.735294 26.8417925,28.735294 L19.8424179,28.735294 C19.5677462,28.735294 19.3421052,28.542161 19.3421052,28.3061095 L19.3421052,26.1644785 C19.3421052,25.928427 19.5677462,25.735294 19.8424179,25.735294 L21.3433559,25.735294 L25.3408544,25.735294 L26.8417925,25.735294 C27.1174648,25.735294 27.3421052,25.928427 27.3421052,26.1644785 Z" id="Path" fill="#D7E9FF"></path>
                                <polygon id="Path" fill="#94C1FF" points="20.3421052 11.735294 20.3421052 13.0313927 20.3421052 14.3318262 20.3421052 15.6322597 20.3421052 16.9326931 20.3421052 18.2331266 20.3421052 19.5335601 20.3421052 20.8339936 20.3421052 22.134427 20.3421052 23.4348605 20.3421052 24.735294 24.3421052 24.735294 24.3421052 23.4348605 24.3421052 22.134427 24.3421052 20.8339936 24.3421052 19.5335601 24.3421052 18.2331266 24.3421052 16.9326931 24.3421052 15.6322597 24.3421052 14.3318262 24.3421052 13.0313927 24.3421052 11.735294"></polygon>
                                <path d="M18.3421052,17.782794 L18.3421052,20.6838565 L15.9974586,22.735294 L12.6877518,22.735294 L10.3421052,20.6838565 L10.3421052,17.782794 L12.6877518,15.735294 L15.9974586,15.735294 L18.3421052,17.782794 Z M16.3419802,19.2357315 C16.3419802,18.2688565 15.4474242,17.4857315 14.3418551,17.4857315 C13.2372861,17.4857315 12.3417301,18.2688565 12.3417301,19.2357315 C12.3417301,20.2026065 13.2372861,20.9857315 14.3418551,20.9857315 C15.4474242,20.9857315 16.3419802,20.2026065 16.3419802,19.2357315 Z" id="Shape" fill="#94C1FF"></path>
                                <path d="M18.3421052,8.787169 L18.3421052,11.687794 L15.9974586,13.735294 L12.6877518,13.735294 L10.3421052,11.687794 L10.3421052,8.787169 L12.6877518,6.735294 L15.9974586,6.735294 L18.3421052,8.787169 Z M16.3419802,10.2348565 C16.3419802,9.272794 15.4474242,8.4848565 14.3418551,8.4848565 C13.2372861,8.4848565 12.3417301,9.272794 12.3417301,10.2348565 C12.3417301,11.2017315 13.2372861,11.9848565 14.3418551,11.9848565 C15.4474242,11.9848565 16.3419802,11.2017315 16.3419802,10.2348565 Z" id="Shape" fill="#94C1FF"></path>
                                <polygon id="Path" fill="#94C1FF" points="3.34210516 4.735294 3.34210516 6.03616124 3.34210516 7.33702849 3.34210516 8.63789573 3.34210516 9.93876298 3.34210516 11.2396302 3.34210516 12.5404975 3.34210516 13.8413647 3.34210516 15.142232 3.34210516 16.4430992 3.34210516 17.735294 7.34210516 17.735294 7.34210516 16.4430992 7.34210516 15.142232 7.34210516 13.8413647 7.34210516 12.5404975 7.34210516 11.2396302 7.34210516 9.93876298 7.34210516 8.63789573 7.34210516 7.33702849 7.34210516 6.03616124 7.34210516 4.735294"></polygon>
                                <path d="M8.34210516,2.16386543 L8.34210516,4.30672257 C8.34210516,4.54243686 8.11743666,4.735294 7.84172988,4.735294 L6.34060403,4.735294 L2.34360628,4.735294 L0.842480439,4.735294 C0.566773659,4.735294 0.342105158,4.54243686 0.342105158,4.30672257 L0.342105158,2.16386543 C0.342105158,1.92815114 0.566773659,1.735294 0.842480439,1.735294 L7.84172988,1.735294 C8.11743666,1.735294 8.34210516,1.92815114 8.34210516,2.16386543 Z" id="Path" fill="#D7E9FF"></path>
                                <g id="Group" transform="translate(1.342105, 0.735294)" fill="#116FFF">
                                    <path d="M7.43042857,3.940125 L0.934142857,3.940125 C0.422035714,3.940125 0.00557142857,3.5476875 0.00557142857,3.065125 L0.00557142857,0.8780625 C0.00557142857,0.3955 0.422035714,0.0030625 0.934142857,0.0030625 L7.43042857,0.0030625 C7.94253571,0.0030625 8.359,0.3955 8.359,0.8780625 L8.359,3.065125 C8.359,3.54725 7.94207143,3.940125 7.43042857,3.940125 Z M7.43042857,3.065125 L7.43042857,3.502625 L7.43042857,3.065125 Z M0.934142857,0.8780625 L0.934142857,3.065125 L7.42903571,3.065125 L7.43042857,0.8780625 L0.934142857,0.8780625 Z" id="Shape"></path>
                                    <path d="M6.0385,17.056375 L2.327,17.056375 C2.07025,17.056375 1.86271429,16.8608125 1.86271429,16.618875 L1.86271429,3.502625 C1.86271429,3.2606875 2.07025,3.065125 2.327,3.065125 L6.0385,3.065125 C6.29525,3.065125 6.50278571,3.2606875 6.50278571,3.502625 L6.50278571,16.618875 C6.50278571,16.8608125 6.29525,17.056375 6.0385,17.056375 Z M2.79128571,16.181375 L5.57421429,16.181375 L5.57421429,3.940125 L2.79128571,3.940125 L2.79128571,16.181375 Z" id="Shape"></path>
                                    <path d="M6.50464286,7.877625 L1.86178571,7.877625 C1.60503571,7.877625 1.3975,7.6820625 1.3975,7.440125 C1.3975,7.1981875 1.60503571,7.002625 1.86178571,7.002625 L6.50464286,7.002625 C6.76139286,7.002625 6.96892857,7.1981875 6.96892857,7.440125 C6.96892857,7.6820625 6.76139286,7.877625 6.50464286,7.877625 Z" id="Path"></path>
                                    <path d="M6.50464286,9.190125 L1.86178571,9.190125 C1.60503571,9.190125 1.3975,8.9945625 1.3975,8.752625 C1.3975,8.5106875 1.60503571,8.315125 1.86178571,8.315125 L6.50464286,8.315125 C6.76139286,8.315125 6.96892857,8.5106875 6.96892857,8.752625 C6.96892857,8.9945625 6.76139286,9.190125 6.50464286,9.190125 Z" id="Path"></path>
                                    <path d="M6.50464286,10.502625 L1.86178571,10.502625 C1.60503571,10.502625 1.3975,10.3070625 1.3975,10.065125 C1.3975,9.8231875 1.60503571,9.627625 1.86178571,9.627625 L6.50464286,9.627625 C6.76139286,9.627625 6.96892857,9.8231875 6.96892857,10.065125 C6.96892857,10.3070625 6.76139286,10.502625 6.50464286,10.502625 Z" id="Path"></path>
                                    <path d="M6.50464286,11.815125 L1.86178571,11.815125 C1.60503571,11.815125 1.3975,11.6195625 1.3975,11.377625 C1.3975,11.1356875 1.60503571,10.940125 1.86178571,10.940125 L6.50464286,10.940125 C6.76139286,10.940125 6.96892857,11.1356875 6.96892857,11.377625 C6.96892857,11.6195625 6.76139286,11.815125 6.50464286,11.815125 Z" id="Path"></path>
                                    <path d="M6.50464286,13.127625 L1.86178571,13.127625 C1.60503571,13.127625 1.3975,12.9320625 1.3975,12.690125 C1.3975,12.4481875 1.60503571,12.252625 1.86178571,12.252625 L6.50464286,12.252625 C6.76139286,12.252625 6.96892857,12.4481875 6.96892857,12.690125 C6.96892857,12.9320625 6.76139286,13.127625 6.50464286,13.127625 Z" id="Path"></path>
                                    <path d="M6.50464286,14.440125 L1.86178571,14.440125 C1.60503571,14.440125 1.3975,14.2445625 1.3975,14.002625 C1.3975,13.7606875 1.60503571,13.565125 1.86178571,13.565125 L6.50464286,13.565125 C6.76139286,13.565125 6.96892857,13.7606875 6.96892857,14.002625 C6.96892857,14.2445625 6.76139286,14.440125 6.50464286,14.440125 Z" id="Path"></path>
                                    <path d="M6.50464286,15.752625 L1.86178571,15.752625 C1.60503571,15.752625 1.3975,15.5570625 1.3975,15.315125 C1.3975,15.0731875 1.60503571,14.877625 1.86178571,14.877625 L6.50464286,14.877625 C6.76139286,14.877625 6.96892857,15.0731875 6.96892857,15.315125 C6.96892857,15.5570625 6.76139286,15.752625 6.50464286,15.752625 Z" id="Path"></path>
                                    <path d="M25.0658571,27.9969375 L18.5695714,27.9969375 C18.0574643,27.9969375 17.641,27.6045 17.641,27.1219375 L17.641,24.934875 C17.641,24.4523125 18.0574643,24.059875 18.5695714,24.059875 L25.0658571,24.059875 C25.5779643,24.059875 25.9944286,24.4523125 25.9944286,24.934875 L25.9944286,27.1219375 C25.9944286,27.6045 25.5779643,27.9969375 25.0658571,27.9969375 Z M25.0658571,27.1219375 L25.0658571,27.5594375 L25.0658571,27.1219375 Z M18.5695714,24.934875 L18.5695714,27.1219375 L25.064,27.1219375 L25.0658571,24.934875 L18.5695714,24.934875 Z" id="Shape"></path>
                                    <path d="M23.673,24.934875 L19.9615,24.934875 C19.70475,24.934875 19.4972143,24.7393125 19.4972143,24.497375 L19.4972143,11.381125 C19.4972143,11.1391875 19.70475,10.943625 19.9615,10.943625 L23.673,10.943625 C23.92975,10.943625 24.1372857,11.1391875 24.1372857,11.381125 L24.1372857,24.497375 C24.1372857,24.7393125 23.92975,24.934875 23.673,24.934875 Z M20.4257857,24.059875 L23.2087143,24.059875 L23.2087143,11.818625 L20.4257857,11.818625 L20.4257857,24.059875 Z" id="Shape"></path>
                                    <path d="M24.1382143,20.997375 L19.4953571,20.997375 C19.2386071,20.997375 19.0310714,20.8018125 19.0310714,20.559875 C19.0310714,20.3179375 19.2386071,20.122375 19.4953571,20.122375 L24.1382143,20.122375 C24.3949643,20.122375 24.6025,20.3179375 24.6025,20.559875 C24.6025,20.8018125 24.3949643,20.997375 24.1382143,20.997375 Z" id="Path"></path>
                                    <path d="M24.1382143,19.684875 L19.4953571,19.684875 C19.2386071,19.684875 19.0310714,19.4893125 19.0310714,19.247375 C19.0310714,19.0054375 19.2386071,18.809875 19.4953571,18.809875 L24.1382143,18.809875 C24.3949643,18.809875 24.6025,19.0054375 24.6025,19.247375 C24.6025,19.4893125 24.3949643,19.684875 24.1382143,19.684875 Z" id="Path"></path>
                                    <path d="M24.1382143,18.372375 L19.4953571,18.372375 C19.2386071,18.372375 19.0310714,18.1768125 19.0310714,17.934875 C19.0310714,17.6929375 19.2386071,17.497375 19.4953571,17.497375 L24.1382143,17.497375 C24.3949643,17.497375 24.6025,17.6929375 24.6025,17.934875 C24.6025,18.1768125 24.3949643,18.372375 24.1382143,18.372375 Z" id="Path"></path>
                                    <path d="M24.1382143,17.059875 L19.4953571,17.059875 C19.2386071,17.059875 19.0310714,16.8643125 19.0310714,16.622375 C19.0310714,16.3804375 19.2386071,16.184875 19.4953571,16.184875 L24.1382143,16.184875 C24.3949643,16.184875 24.6025,16.3804375 24.6025,16.622375 C24.6025,16.8643125 24.3949643,17.059875 24.1382143,17.059875 Z" id="Path"></path>
                                    <path d="M24.1382143,15.747375 L19.4953571,15.747375 C19.2386071,15.747375 19.0310714,15.5518125 19.0310714,15.309875 C19.0310714,15.0679375 19.2386071,14.872375 19.4953571,14.872375 L24.1382143,14.872375 C24.3949643,14.872375 24.6025,15.0679375 24.6025,15.309875 C24.6025,15.5518125 24.3949643,15.747375 24.1382143,15.747375 Z" id="Path"></path>
                                    <path d="M24.1382143,14.434875 L19.4953571,14.434875 C19.2386071,14.434875 19.0310714,14.2393125 19.0310714,13.997375 C19.0310714,13.7554375 19.2386071,13.559875 19.4953571,13.559875 L24.1382143,13.559875 C24.3949643,13.559875 24.6025,13.7554375 24.6025,13.997375 C24.6025,14.2393125 24.3949643,14.434875 24.1382143,14.434875 Z" id="Path"></path>
                                    <path d="M24.1382143,13.122375 L19.4953571,13.122375 C19.2386071,13.122375 19.0310714,12.9268125 19.0310714,12.684875 C19.0310714,12.4429375 19.2386071,12.247375 19.4953571,12.247375 L24.1382143,12.247375 C24.3949643,12.247375 24.6025,12.4429375 24.6025,12.684875 C24.6025,12.9268125 24.3949643,13.122375 24.1382143,13.122375 Z" id="Path"></path>
                                    <path d="M14.5395714,22.7521875 L11.4636786,22.7521875 C11.3401786,22.7521875 11.22225,22.70625 11.1354286,22.624 L8.95885714,20.573875 C8.87157143,20.491625 8.82282143,20.3809375 8.82282143,20.2645625 L8.82282143,17.364375 C8.82282143,17.248 8.87157143,17.136875 8.95885714,17.0550625 L11.1354286,15.0049375 C11.2227143,14.9226875 11.3401786,14.87675 11.4636786,14.87675 L14.5395714,14.87675 C14.6630714,14.87675 14.781,14.9226875 14.8678214,15.0049375 L17.0443929,17.0550625 C17.1316786,17.1373125 17.1804286,17.248 17.1804286,17.364375 L17.1804286,20.2645625 C17.1804286,20.3809375 17.1316786,20.4920625 17.0443929,20.573875 L14.8678214,22.624 C14.781,22.7058125 14.6630714,22.7521875 14.5395714,22.7521875 Z M11.6558929,21.8771875 L14.3473571,21.8771875 L16.2518571,20.0834375 L16.2518571,17.5455 L14.3473571,15.75175 L11.6558929,15.75175 L9.75139286,17.5455 L9.75139286,20.0834375 L11.6558929,21.8771875 Z" id="Shape"></path>
                                    <path d="M13.0018571,21.0021875 C11.7218214,21.0021875 10.6804286,20.020875 10.6804286,18.8146875 C10.6804286,17.6085 11.7218214,16.6271875 13.0018571,16.6271875 C14.2818929,16.6271875 15.3232857,17.6085 15.3232857,18.8146875 C15.3232857,20.020875 14.2818929,21.0021875 13.0018571,21.0021875 Z M13.0018571,17.5021875 C12.2339286,17.5021875 11.609,18.0910625 11.609,18.8146875 C11.609,19.5383125 12.2339286,20.1271875 13.0018571,20.1271875 C13.7697857,20.1271875 14.3947143,19.5383125 14.3947143,18.8146875 C14.3947143,18.0910625 13.7697857,17.5021875 13.0018571,17.5021875 Z" id="Shape"></path>
                                    <path d="M14.5395714,13.1175625 L11.4636786,13.1175625 C11.3401786,13.1175625 11.22225,13.071625 11.1354286,12.989375 L8.95885714,10.93925 C8.87157143,10.857 8.82282143,10.7463125 8.82282143,10.6299375 L8.82282143,7.72975 C8.82282143,7.613375 8.87157143,7.50225 8.95885714,7.4204375 L11.1354286,5.3703125 C11.2227143,5.2880625 11.3401786,5.242125 11.4636786,5.242125 L14.5395714,5.242125 C14.6630714,5.242125 14.781,5.2880625 14.8678214,5.3703125 L17.0443929,7.4204375 C17.1316786,7.5026875 17.1804286,7.613375 17.1804286,7.72975 L17.1804286,10.6299375 C17.1804286,10.7463125 17.1316786,10.8574375 17.0443929,10.93925 L14.8678214,12.989375 C14.781,13.071625 14.6630714,13.1175625 14.5395714,13.1175625 L14.5395714,13.1175625 Z M11.6558929,12.2425625 L14.3473571,12.2425625 L16.2518571,10.4488125 L16.2518571,7.910875 L14.3473571,6.117125 L11.6558929,6.117125 L9.75139286,7.910875 L9.75139286,10.4488125 L11.6558929,12.2425625 Z" id="Shape"></path>
                                    <path d="M13.0018571,11.3675625 C11.7218214,11.3675625 10.6804286,10.38625 10.6804286,9.1800625 C10.6804286,7.973875 11.7218214,6.9925625 13.0018571,6.9925625 C14.2818929,6.9925625 15.3232857,7.973875 15.3232857,9.1800625 C15.3232857,10.38625 14.2818929,11.3675625 13.0018571,11.3675625 Z M13.0018571,7.8675625 C12.2339286,7.8675625 11.609,8.4564375 11.609,9.1800625 C11.609,9.9036875 12.2339286,10.4925625 13.0018571,10.4925625 C13.7697857,10.4925625 14.3947143,9.9036875 14.3947143,9.1800625 C14.3947143,8.4564375 13.7697857,7.8675625 13.0018571,7.8675625 Z" id="Shape"></path>
                                </g>
                            </g>
                        </g>
                    </g>
                </g>
            </g>
        </g>
    </g>
</svg>