<?xml version="1.0" encoding="UTF-8"?>
<svg width="54px" height="54px" viewBox="0 0 54 54" version="1.1" xmlns="http://www.w3.org/2000/svg" xmlns:xlink="http://www.w3.org/1999/xlink">
    <!-- Generator: Sketch 54.1 (76490) - https://sketchapp.com -->
    <title>icon-facility-mgmt</title>
    <desc>Created with Sketch.</desc>
    <g id="Learning-Center" stroke="none" stroke-width="1" fill="none" fill-rule="evenodd">
        <g id="Website---Learning-Center---Listing" transform="translate(-572.000000, -141.000000)">
            <g id="Solutions-Dropdown" transform="translate(234.000000, 63.000000)">
                <g id="Main-Items" transform="translate(20.000000, 74.000000)">
                    <g id="Facility-Management" transform="translate(318.000000, 0.000000)">
                        <g id="icon-facility-mgmt" transform="translate(0.000000, 4.000000)">
                            <circle id="Oval" fill-opacity="0.15" fill="#007BFF" cx="27" cy="27" r="27"></circle>
                            <g id="hospital" transform="translate(12.500000, 9.500000)" fill-rule="nonzero">
                                <path d="M26.9106725,3.5 L19.2972815,3.5 L19.2972815,7.39320265 C19.2972815,7.79508842 18.9604925,8.12091769 18.5449854,8.12091769 L11.2875402,8.12091769 C10.8720332,8.12091769 10.5352441,7.79516933 10.5352441,7.39320265 L10.5352441,3.5 L3.08924389,3.5 C1.65918689,3.5 0.5,4.62118605 0.5,6.00444337 L0.5,30.9955566 C0.5,32.378733 1.65918689,33.5 3.08924389,33.5 L12.8012508,33.5 L12.8012508,27.649718 C12.8012508,27.385624 13.022598,27.171533 13.2956431,27.171533 L16.8552679,27.171533 C17.1283966,27.171533 17.3496602,27.385624 17.3496602,27.649718 L17.3496602,33.5 L26.9106725,33.5 C28.3407295,33.5 29.5,32.378814 29.5,30.9955566 L29.5,6.00444337 C29.5000837,4.62118605 28.3406458,3.5 26.9106725,3.5 Z M10.363838,25.1684152 C10.363838,25.4325093 10.1424908,25.6466002 9.86944569,25.6466002 L6.30982092,25.6466002 C6.03669217,25.6466002 5.81542859,25.4325093 5.81542859,25.1684152 L5.81542859,21.7254832 C5.81542859,21.4613892 6.03677582,21.2472982 6.30982092,21.2472982 L9.86944569,21.2472982 C10.1425745,21.2472982 10.363838,21.4613892 10.363838,21.7254832 L10.363838,25.1684152 Z M10.363838,19.2975009 C10.363838,19.561595 10.1424908,19.7756859 9.86944569,19.7756859 L6.30982092,19.7756859 C6.03669217,19.7756859 5.81542859,19.561595 5.81542859,19.2975009 L5.81542859,15.8545689 C5.81542859,15.5904749 6.03677582,15.3763839 6.30982092,15.3763839 L9.86944569,15.3763839 C10.1425745,15.3763839 10.363838,15.5904749 10.363838,15.8545689 L10.363838,19.2975009 Z M10.363838,13.3732661 C10.363838,13.6373602 10.1424908,13.8514511 9.86944569,13.8514511 L6.30982092,13.8514511 C6.03669217,13.8514511 5.81542859,13.6373602 5.81542859,13.3732661 L5.81542859,9.93033414 C5.81542859,9.66624009 6.03677582,9.45214914 6.30982092,9.45214914 L9.86944569,9.45214914 C10.1425745,9.45214914 10.363838,9.66624009 10.363838,9.93033414 L10.363838,13.3732661 Z M17.3496602,25.1684152 C17.3496602,25.4325093 17.128313,25.6466002 16.8552679,25.6466002 L13.2956431,25.6466002 C13.0225143,25.6466002 12.8012508,25.4325093 12.8012508,25.1684152 L12.8012508,21.7254832 C12.8012508,21.4613892 13.022598,21.2472982 13.2956431,21.2472982 L16.8552679,21.2472982 C17.1283966,21.2472982 17.3496602,21.4613892 17.3496602,21.7254832 L17.3496602,25.1684152 Z M17.3496602,19.2975009 C17.3496602,19.561595 17.128313,19.7756859 16.8552679,19.7756859 L13.2956431,19.7756859 C13.0225143,19.7756859 12.8012508,19.561595 12.8012508,19.2975009 L12.8012508,15.8545689 C12.8012508,15.5904749 13.022598,15.3763839 13.2956431,15.3763839 L16.8552679,15.3763839 C17.1283966,15.3763839 17.3496602,15.5904749 17.3496602,15.8545689 L17.3496602,19.2975009 Z M17.3496602,13.3732661 C17.3496602,13.6373602 17.128313,13.8514511 16.8552679,13.8514511 L13.2956431,13.8514511 C13.0225143,13.8514511 12.8012508,13.6373602 12.8012508,13.3732661 L12.8012508,9.93033414 C12.8012508,9.66624009 13.022598,9.45214914 13.2956431,9.45214914 L16.8552679,9.45214914 C17.1283966,9.45214914 17.3496602,9.66624009 17.3496602,9.93033414 L17.3496602,13.3732661 Z M24.335566,25.1684152 C24.335566,25.4325093 24.1142188,25.6466002 23.8411737,25.6466002 L20.2815489,25.6466002 C20.0084202,25.6466002 19.7871566,25.4325093 19.7871566,25.1684152 L19.7871566,21.7254832 C19.7871566,21.4613892 20.0085038,21.2472982 20.2815489,21.2472982 L23.8411737,21.2472982 C24.1143024,21.2472982 24.335566,21.4613892 24.335566,21.7254832 L24.335566,25.1684152 Z M24.335566,19.2975009 C24.335566,19.561595 24.1142188,19.7756859 23.8411737,19.7756859 L20.2815489,19.7756859 C20.0084202,19.7756859 19.7871566,19.561595 19.7871566,19.2975009 L19.7871566,15.8545689 C19.7871566,15.5904749 20.0085038,15.3763839 20.2815489,15.3763839 L23.8411737,15.3763839 C24.1143024,15.3763839 24.335566,15.5904749 24.335566,15.8545689 L24.335566,19.2975009 Z M24.335566,13.3732661 C24.335566,13.6373602 24.1142188,13.8514511 23.8411737,13.8514511 L20.2815489,13.8514511 C20.0084202,13.8514511 19.7871566,13.6373602 19.7871566,13.3732661 L19.7871566,9.93033414 C19.7871566,9.66624009 20.0085038,9.45214914 20.2815489,9.45214914 L23.8411737,9.45214914 C24.1143024,9.45214914 24.335566,9.66624009 24.335566,9.93033414 L24.335566,13.3732661 Z" id="Shape" fill="#007BFF"></path>
                                <path d="M9.95652174,9.3 L6.04347826,9.3 C5.74323181,9.3 5.5,9.52385787 5.5,9.8 L5.5,13.4 C5.5,13.6761421 5.74332377,13.9 6.04347826,13.9 L9.95652174,13.9 C10.2567682,13.9 10.5,13.6761421 10.5,13.4 L10.5,9.8 C10.5,9.52385787 10.2566762,9.3 9.95652174,9.3 Z" id="Path" fill-opacity="0.47" fill="#007BFF"></path>
                                <path d="M16.9565217,9.3 L13.0434783,9.3 C12.7432318,9.3 12.5,9.52385787 12.5,9.8 L12.5,13.4 C12.5,13.6761421 12.7433238,13.9 13.0434783,13.9 L16.9565217,13.9 C17.2567682,13.9 17.5,13.6761421 17.5,13.4 L17.5,9.8 C17.5000919,9.52385787 17.2568601,9.3 16.9565217,9.3 Z" id="Path" fill-opacity="0.47" fill="#007BFF"></path>
                                <path d="M23.9565217,9.3 L20.0434783,9.3 C19.7432318,9.3 19.5,9.52385787 19.5,9.8 L19.5,13.4 C19.5,13.6761421 19.7433238,13.9 20.0434783,13.9 L23.9565217,13.9 C24.2567682,13.9 24.5,13.6761421 24.5,13.4 L24.5,9.8 C24.5000919,9.52385787 24.2568601,9.3 23.9565217,9.3 Z" id="Path" fill-opacity="0.47" fill="#007BFF"></path>
                                <path d="M9.95652174,15.4 L6.04347826,15.4 C5.74323181,15.4 5.5,15.6141249 5.5,15.8782609 L5.5,19.3217391 C5.5,19.5858751 5.74332377,19.8 6.04347826,19.8 L9.95652174,19.8 C10.2567682,19.8 10.5,19.5858751 10.5,19.3217391 L10.5,15.8782609 C10.5,15.6141249 10.2566762,15.4 9.95652174,15.4 Z" id="Path" fill-opacity="0.47" fill="#007BFF"></path>
                                <path d="M16.9565217,15.4 L13.0434783,15.4 C12.7432318,15.4 12.5,15.6141249 12.5,15.8782609 L12.5,19.3217391 C12.5,19.5858751 12.7433238,19.8 13.0434783,19.8 L16.9565217,19.8 C17.2567682,19.8 17.5,19.5858751 17.5,19.3217391 L17.5,15.8782609 C17.5000919,15.6141249 17.2568601,15.4 16.9565217,15.4 Z" id="Path" fill-opacity="0.47" fill="#007BFF"></path>
                                <path d="M23.9565217,15.4 L20.0434783,15.4 C19.7432318,15.4 19.5,15.6141249 19.5,15.8782609 L19.5,19.3217391 C19.5,19.5858751 19.7433238,19.8 20.0434783,19.8 L23.9565217,19.8 C24.2567682,19.8 24.5,19.5858751 24.5,19.3217391 L24.5,15.8782609 C24.5000919,15.6141249 24.2568601,15.4 23.9565217,15.4 Z" id="Path" fill-opacity="0.47" fill="#007BFF"></path>
                                <path d="M9.95652174,21.2 L6.04347826,21.2 C5.74323181,21.2 5.5,21.4189914 5.5,21.6891304 L5.5,25.2108696 C5.5,25.4810086 5.74332377,25.7 6.04347826,25.7 L9.95652174,25.7 C10.2567682,25.7 10.5,25.4810086 10.5,25.2108696 L10.5,21.6891304 C10.5,21.4189914 10.2566762,21.2 9.95652174,21.2 Z" id="Path" fill-opacity="0.47" fill="#007BFF"></path>
                                <path d="M16.9565217,21.2 L13.0434783,21.2 C12.7432318,21.2 12.5,21.4189914 12.5,21.6891304 L12.5,25.2108696 C12.5,25.4810086 12.7433238,25.7 13.0434783,25.7 L16.9565217,25.7 C17.2567682,25.7 17.5,25.4810086 17.5,25.2108696 L17.5,21.6891304 C17.5000919,21.4189914 17.2568601,21.2 16.9565217,21.2 Z" id="Path" fill-opacity="0.47" fill="#007BFF"></path>
                                <path d="M23.9565217,21.2 L20.0434783,21.2 C19.7432318,21.2 19.5,21.4189914 19.5,21.6891304 L19.5,25.2108696 C19.5,25.4810086 19.7433238,25.7 20.0434783,25.7 L23.9565217,25.7 C24.2567682,25.7 24.5,25.4810086 24.5,25.2108696 L24.5,21.6891304 C24.5000919,21.4189914 24.2568601,21.2 23.9565217,21.2 Z" id="Path" fill-opacity="0.47" fill="#007BFF"></path>
                                <path d="M16.9565217,26.5 L13.0434783,26.5 C12.7432318,26.5 12.5,26.7350508 12.5,27.025 L12.5,33.448033 L12.5,33.5 L17.5,33.5 L17.5,33.448033 L17.5,27.025 C17.5000919,26.7350508 17.2568601,26.5 16.9565217,26.5 Z" id="Path" fill-opacity="0.47" fill="#007BFF"></path>
                                <path d="M11.2727273,8.5 L18.7272727,8.5 C19.1540643,8.5 19.5,8.18025414 19.5,7.78569443 L19.5,3.96431053 L19.5,1.21430557 C19.5,0.819825275 19.1540643,0.5 18.7272727,0.5 L11.2727273,0.5 C10.8459357,0.5 10.5,0.819825275 10.5,1.21430557 L10.5,3.96431053 L10.5,7.78577385 C10.5,8.18025414 10.8459357,8.5 11.2727273,8.5 Z M12.9477573,1.98229922 L14.0928854,1.98229922 C14.2391304,1.98229922 14.3575357,2.09181972 14.3575357,2.22691353 L14.3575357,3.88703465 L15.6490806,3.88703465 L15.6490806,2.22691353 C15.6490806,2.09181972 15.7675717,1.98229922 15.913645,1.98229922 L17.0521567,1.98229922 C17.1982299,1.98229922 17.316807,2.09181972 17.316807,2.22691353 L17.316807,6.77324531 C17.316807,6.90833912 17.1982299,7.01785962 17.0521567,7.01785962 L15.913645,7.01785962 C15.7675717,7.01785962 15.6490806,6.90833912 15.6490806,6.77324531 L15.6490806,5.18809689 L14.3575357,5.18809689 L14.3575357,6.77324531 C14.3575357,6.90833912 14.2391304,7.01785962 14.0928854,7.01785962 L12.9477573,7.01785962 C12.8016841,7.01785962 12.6831071,6.90833912 12.6831071,6.77324531 L12.6831071,2.22691353 C12.6831071,2.09181972 12.8015982,1.98229922 12.9477573,1.98229922 Z" id="Shape" fill="#E0DCD3"></path>
                                <path d="M12.5,6.75710929 C12.5,6.8912512 12.6279507,7 12.7855712,7 L14.0212231,7 C14.1790291,7 14.3067944,6.8912512 14.3067944,6.75710929 L14.3067944,5.18313014 L15.7004376,5.18313014 L15.7004376,6.75710929 C15.7004376,6.8912512 15.8282957,7 15.9859161,7 L17.2144288,7 C17.3720493,7 17.5,6.8912512 17.5,6.75710929 L17.5,2.24289071 C17.5,2.1087488 17.3720493,2 17.2144288,2 L15.9859161,2 C15.8282957,2 15.7004376,2.1087488 15.7004376,2.24289071 L15.7004376,3.89131429 L14.3067944,3.89131429 L14.3067944,2.24289071 C14.3067944,2.1087488 14.1790291,2 14.0212231,2 L12.7855712,2 C12.6279507,2 12.5,2.1087488 12.5,2.24289071 L12.5,6.75710929 Z" id="Path" fill="#E74424"></path>
                            </g>
                        </g>
                    </g>
                </g>
            </g>
        </g>
    </g>
</svg>