<?xml version="1.0" encoding="UTF-8"?>
<svg width="68px" height="20px" viewBox="0 0 68 20" version="1.1" xmlns="http://www.w3.org/2000/svg" xmlns:xlink="http://www.w3.org/1999/xlink">
    <!-- Generator: Sketch 54.1 (76490) - https://sketchapp.com -->
    <title>logo-upkeep-type</title>
    <desc>Created with Sketch.</desc>
    <g id="Learning-Center" stroke="none" stroke-width="1" fill="none" fill-rule="evenodd">
        <g id="Header---Solutions-Dropdown" transform="translate(-255.000000, -347.000000)" fill="#2E2E2E">
            <g id="Solutions-Dropdown" transform="translate(234.000000, 63.000000)">
                <g id="Sensors" transform="translate(20.000000, 264.000000)">
                    <g id="Title-&amp;-Desc" transform="translate(0.000000, 17.000000)">
                        <g id="Title" transform="translate(1.000000, 0.000000)">
                            <g id="logo-upkeep-type" transform="translate(0.000000, 3.000000)">
                                <path d="M11.5809524,9.18588807 C11.5809524,10.060843 11.431793,10.8503976 11.1339255,11.5540964 C10.8358324,12.2582506 10.4294238,12.856053 9.91492539,13.3481867 C9.39997569,13.8403203 8.79047563,14.2197256 8.08642522,14.4861746 C7.38192349,14.7528514 6.61649432,14.8860759 5.79058902,14.8860759 C4.96423241,14.8860759 4.19880324,14.7528514 3.49475282,14.4861746 C2.79025109,14.2197256 2.17714052,13.8403203 1.65587242,13.3481867 C1.13437867,12.856053 0.727970078,12.2582506 0.43687231,11.5540964 C0.145548884,10.8503976 -5.59552404e-14,10.060843 -5.59552404e-14,9.18588807 L-5.59552404e-14,-1.00541797e-13 L2.56008076,-1.00541797e-13 L2.56008076,9.08340766 C2.56008076,9.50722107 2.61401283,9.92761847 2.72255393,10.3443721 C2.83086938,10.7615812 3.01026685,11.1339267 3.26097198,11.461864 C3.51145145,11.790029 3.84316751,12.0564781 4.25657148,12.2616666 C4.66952412,12.4666274 5.18108896,12.5691079 5.79058902,12.5691079 C6.40008908,12.5691079 6.9112026,12.4666274 7.3243809,12.2616666 C7.73755921,12.0564781 8.06927527,11.790029 8.3199804,11.461864 C8.57045988,11.1339267 8.74985734,10.7615812 8.85839845,10.3443721 C8.9667139,9.92761847 9.02087162,9.50722107 9.02087162,9.08340766 L9.02087162,-1.00541797e-13 L11.5809524,-1.00541797e-13 L11.5809524,9.18588807 Z" id="Fill-5"></path>
                                <path d="M21.2544536,9.77203084 C21.2544536,9.38588268 21.1957914,9.00295242 21.0789253,8.62346992 C20.9620592,8.24421726 20.7867601,7.90266002 20.5527987,7.59902804 C20.3188374,7.29585576 20.0232349,7.05060571 19.6657621,6.86442714 C19.3078311,6.67824856 18.888488,6.58492942 18.4072747,6.58492942 C17.9533301,6.58492942 17.5475068,6.68169631 17.1898049,6.87477039 C16.832103,7.06807432 16.5261888,7.31631242 16.2718332,7.61971455 C16.0172484,7.92334653 15.8247631,8.26835152 15.694148,8.65449968 C15.5633038,9.04064784 15.4979963,9.4272557 15.4979963,9.81340386 C15.4979963,10.199552 15.5633038,10.5824823 15.694148,10.9619648 C15.8247631,11.3414473 16.0172484,11.6827747 16.2718332,11.9864067 C16.5261888,12.2898088 16.832103,12.534829 17.1898049,12.7210076 C17.5475068,12.9071861 17.9533301,13.0002754 18.4072747,13.0002754 C18.888488,13.0002754 19.3078311,12.9039682 19.6657621,12.7106643 C20.0232349,12.5175902 20.3188374,12.2691223 20.5527987,11.9654903 C20.7867601,11.662318 20.9620592,11.317313 21.0789253,10.930935 C21.1957914,10.5447869 21.2544536,10.1584089 21.2544536,9.77203084 L21.2544536,9.77203084 Z M15.477602,4.84657315 L15.477602,6.23325877 L15.5394723,6.23325877 C15.6632129,6.04018469 15.8247631,5.84366286 16.0241229,5.64346343 C16.2234827,5.44349384 16.4677557,5.26421077 16.7567129,5.10538435 C17.0454409,4.94678779 17.3719785,4.81554338 17.7365549,4.71211084 C18.1009022,4.6086783 18.5103918,4.55696203 18.9641073,4.55696203 C19.6657621,4.55696203 20.3119629,4.69142433 20.9038553,4.96034894 C21.4950603,5.22950341 22.0040007,5.59887251 22.4304474,6.06753685 C22.8566649,6.53689075 23.1868689,7.08876083 23.4208303,7.72314709 C23.6545625,8.35799306 23.7714286,9.04064784 23.7714286,9.77203084 C23.7714286,10.5034138 23.6579997,11.1895164 23.431142,11.831028 C23.2042843,12.4725396 22.8809547,13.0315351 22.4613825,13.5073247 C22.0418103,13.9833443 21.5330991,14.3630567 20.9345613,14.6455424 C20.3362527,14.928258 19.6586585,15.0698457 18.902237,15.0698457 C18.2008112,15.0698457 17.5578185,14.9250401 16.9732589,14.6351992 C16.3884701,14.3453582 15.9381919,13.9523145 15.6217368,13.4556085 L15.5807191,13.4556085 L15.5807191,19.7468354 L13.1047619,19.7468354 L13.1047619,4.84657315 L15.477602,4.84657315 Z" id="Fill-7"></path>
                                <polygon id="Fill-9" points="24.6857143 -2.03215222e-13 27.2997225 -2.03215222e-13 27.2997225 6.30255478 27.3619334 6.30255478 33.5026063 -2.03215222e-13 37.0292709 -2.03215222e-13 30.1625742 6.73513912 37.4857143 14.5822785 33.8136606 14.5822785 27.3619334 7.27066526 27.2997225 7.27066526 27.2997225 14.5822785 24.6857143 14.5822785"></polygon>
                                <path d="M43.231086,8.74569798 C43.231086,8.43382369 43.1860372,8.13572516 43.0963993,7.85095074 C43.0065315,7.56640214 42.8651794,7.31572838 42.6721132,7.09870362 C42.4790469,6.88213053 42.2340367,6.70914305 41.9375421,6.58019285 C41.6408176,6.45146849 41.292379,6.38710631 40.8924561,6.38710631 C40.1475421,6.38710631 39.5163993,6.60751855 38.9990277,7.04789137 C38.481886,7.48849003 38.1952746,8.05419973 38.1403426,8.74569798 L43.231086,8.74569798 Z M45.7142857,9.84346838 L45.7142857,10.1688926 C45.7142857,10.2775179 45.7071607,10.3859174 45.6936,10.494091 L38.1403426,10.494091 C38.1679235,10.8470668 38.261009,11.1686518 38.4195991,11.4602012 C38.5781893,11.7517506 38.7887234,12.0024244 39.0509718,12.2124483 C39.3127604,12.4226981 39.6094848,12.5886848 39.9406854,12.7106342 C40.271886,12.8325836 40.6164173,12.8935583 40.9754286,12.8935583 C41.5962285,12.8935583 42.1202655,12.7817714 42.5479992,12.5579716 C42.9757329,12.3343977 43.3273893,12.0261368 43.603428,11.6329629 L45.2589711,12.9342081 C44.2793897,14.2356792 42.8585141,14.8860759 40.9958844,14.8860759 C40.2231597,14.8860759 39.5129517,14.7672882 38.8645709,14.5303902 C38.2159602,14.2932664 37.6539995,13.9579055 37.1779993,13.523856 C36.7022289,13.0900323 36.329657,12.5579716 36.0607433,11.9276739 C35.7915997,11.2973762 35.6571429,10.5826172 35.6571429,9.78271952 C35.6571429,8.99659757 35.7915997,8.28138694 36.0607433,7.63753929 C36.329657,6.99391747 36.6985514,6.44491936 37.1676564,5.99054494 C37.6365316,5.53662218 38.1920568,5.18409809 38.8335424,4.9331985 C39.475028,4.68252474 40.1684576,4.55696203 40.9133716,4.55696203 C41.6028939,4.55696203 42.2409319,4.6689748 42.8274856,4.8925487 C43.4138094,5.11612259 43.9206083,5.44854762 44.348342,5.88892044 C44.7760757,6.32951909 45.1107238,6.87851721 45.3522865,7.53591479 C45.5933895,8.19353821 45.7142857,8.96249691 45.7142857,9.84346838 L45.7142857,9.84346838 Z" id="Fill-11"></path>
                                <path d="M53.5929907,8.74569798 C53.5929907,8.43382369 53.5479419,8.13572516 53.458304,7.85095074 C53.3684363,7.56640214 53.2270842,7.31572838 53.034018,7.09870362 C52.8409517,6.88213053 52.5959414,6.70914305 52.2994468,6.58019285 C52.0027224,6.45146849 51.6542838,6.38710631 51.2543608,6.38710631 C50.5094469,6.38710631 49.8783041,6.60751855 49.3609325,7.04789137 C48.8437908,7.48849003 48.5571793,8.05419973 48.5022474,8.74569798 L53.5929907,8.74569798 Z M56.0761905,9.84346838 L56.0761905,10.1688926 C56.0761905,10.2775179 56.0690654,10.3859174 56.0555048,10.494091 L48.5022474,10.494091 C48.5298283,10.8470668 48.6229138,11.1686518 48.7815039,11.4602012 C48.940094,11.7517506 49.1506282,12.0024244 49.4128765,12.2124483 C49.6746652,12.4226981 49.9713896,12.5886848 50.3025902,12.7106342 C50.6337907,12.8325836 50.9783221,12.8935583 51.3373333,12.8935583 C51.9581333,12.8935583 52.4821703,12.7817714 52.9099039,12.5579716 C53.3376376,12.3343977 53.689294,12.0261368 53.9653328,11.6329629 L55.6208759,12.9342081 C54.6412945,14.2356792 53.2204188,14.8860759 51.3577892,14.8860759 C50.5850645,14.8860759 49.8748565,14.7672882 49.2264757,14.5303902 C48.577865,14.2932664 48.0159043,13.9579055 47.539904,13.523856 C47.0641336,13.0900323 46.6915617,12.5579716 46.422648,11.9276739 C46.1535045,11.2973762 46.0190476,10.5826172 46.0190476,9.78271952 C46.0190476,8.99659757 46.1535045,8.28138694 46.422648,7.63753929 C46.6915617,6.99391747 47.0604562,6.44491936 47.5295612,5.99054494 C47.9984364,5.53662218 48.5539615,5.18409809 49.1954472,4.9331985 C49.8369328,4.68252474 50.5303624,4.55696203 51.2752763,4.55696203 C51.9647987,4.55696203 52.6028367,4.6689748 53.1893903,4.8925487 C53.7757141,5.11612259 54.2825131,5.44854762 54.7102467,5.88892044 C55.1379804,6.32951909 55.4726286,6.87851721 55.7141913,7.53591479 C55.9552942,8.19353821 56.0761905,8.96249691 56.0761905,9.84346838 L56.0761905,9.84346838 Z" id="Fill-13"></path>
                                <path d="M64.8353519,9.77203084 C64.8353519,9.38588268 64.7766885,9.00295242 64.6598199,8.62346992 C64.5429513,8.24421726 64.3676483,7.90266002 64.133682,7.59902804 C63.8997156,7.29585576 63.6041068,7.05060571 63.2466263,6.86442714 C62.8889167,6.67824856 62.4695646,6.58492942 61.9881118,6.58492942 C61.5341575,6.58492942 61.1283255,6.68169631 60.770845,6.87477039 C60.4129063,7.06807432 60.1069855,7.31631242 59.8526244,7.61971455 C59.5980342,7.92334653 59.4055447,8.26835152 59.2749269,8.65449968 C59.1440798,9.04064784 59.0790001,9.4272557 59.0790001,9.81340386 C59.0790001,10.199552 59.1440798,10.5824823 59.2749269,10.9619648 C59.4055447,11.3414473 59.5980342,11.6827747 59.8526244,11.9864067 C60.1069855,12.2898088 60.4129063,12.534829 60.770845,12.7210076 C61.1283255,12.9071861 61.5341575,13.0002754 61.9881118,13.0002754 C62.4695646,13.0002754 62.8889167,12.9039682 63.2466263,12.7106643 C63.6041068,12.5175902 63.8997156,12.2691223 64.133682,11.9654903 C64.3676483,11.662318 64.5429513,11.317313 64.6598199,10.930935 C64.7766885,10.5447869 64.8353519,10.1584089 64.8353519,9.77203084 L64.8353519,9.77203084 Z M59.0583762,4.84657315 L59.0583762,6.23325877 L59.1202478,6.23325877 C59.2442202,6.04018469 59.4055447,5.84366286 59.605138,5.64346343 C59.8042729,5.44349384 60.0485512,5.26421077 60.3375146,5.10538435 C60.6264779,4.94678779 60.9530226,4.81554338 61.3173777,4.71211084 C61.6817327,4.6086783 62.0912312,4.55696203 62.5451855,4.55696203 C63.2466263,4.55696203 63.8930701,4.69142433 64.4847461,4.96034894 C65.0759638,5.22950341 65.5849151,5.59887251 66.011371,6.06753685 C66.4375976,6.53689075 66.7678088,7.08876083 67.0017751,7.72314709 C67.2355123,8.35799306 67.352381,9.04064784 67.352381,9.77203084 C67.352381,10.5034138 67.2389497,11.1895164 67.0120871,11.831028 C66.7852245,12.4725396 66.461888,13.0315351 66.0423068,13.5073247 C65.6227255,13.9833443 65.1140034,14.3630567 64.5154528,14.6455424 C63.9171313,14.928258 63.2395225,15.0698457 62.4833139,15.0698457 C61.7818731,15.0698457 61.1386374,14.9250401 60.5540652,14.6351992 C59.969493,14.3453582 59.518976,13.9523145 59.2027433,13.4556085 L59.1614956,13.4556085 L59.1614956,19.7468354 L56.6857143,19.7468354 L56.6857143,4.84657315 L59.0583762,4.84657315 Z" id="Fill-15"></path>
                            </g>
                        </g>
                    </g>
                </g>
            </g>
        </g>
    </g>
</svg>