<?xml version="1.0" encoding="UTF-8"?>
<svg width="115px" height="110px" viewBox="0 0 115 110" version="1.1" xmlns="http://www.w3.org/2000/svg" xmlns:xlink="http://www.w3.org/1999/xlink">
    <!-- Generator: sketchtool 41.2 (35397) - http://www.bohemiancoding.com/sketch -->
    <title>ADE904EE-0D2C-41E8-9EBA-D2674C4C8C1D</title>
    <desc>Created with sketchtool.</desc>
    <defs></defs>
    <g id="Symbols" stroke="none" stroke-width="1" fill="none" fill-rule="evenodd">
        <g id="elements/icon/pricing-enterprise" transform="translate(0.000000, -1.000000)" fill="#3F4B57">
            <g id="Enterprise-Icon" transform="translate(0.000000, 1.000000)">
                <path d="M113.39,107.09375 L98.828125,107.09375 L98.828125,92.963125 C102.541614,92.5717434 105.747262,90.1890811 107.192573,86.74608 C108.637884,83.303079 108.093463,79.3462036 105.772023,76.4214648 C103.450583,73.4967261 99.7205772,72.0683309 96.039375,72.694375 C94.8172845,65.1849217 88.0544565,59.8577746 80.4676374,60.428362 C72.8808183,60.9989494 66.9908423,67.2776852 66.9056837,74.8854537 C66.8205251,82.4932222 72.5684792,88.9022287 80.140625,89.6425 L80.140625,107.09375 L59.915,107.09375 L59.915,81.33375 L62.660625,81.33375 C63.4545343,81.33375 64.098125,80.6901593 64.098125,79.89625 L64.098125,72.953125 C64.098125,72.1592157 63.4545343,71.515625 62.660625,71.515625 L59.915,71.515625 L59.915,19.650625 L62.660625,19.650625 C63.4545343,19.650625 64.098125,19.0070343 64.098125,18.213125 L64.098125,11.255625 C64.098125,10.4617157 63.4545343,9.818125 62.660625,9.818125 L58.73625,9.818125 L35.50625,0.819375 C35.1732169,0.690866914 34.8042831,0.690866914 34.47125,0.819375 L11.226875,9.818125 L6.46875,9.818125 C5.67484067,9.818125 5.03125,10.4617157 5.03125,11.255625 L5.03125,18.19875 C5.03125,18.9926593 5.67484067,19.63625 6.46875,19.63625 L10.0625,19.63625 L10.0625,71.515625 L6.46875,71.515625 C5.67484067,71.515625 5.03125,72.1592157 5.03125,72.953125 L5.03125,79.89625 C5.03125,80.6901593 5.67484067,81.33375 6.46875,81.33375 L10.0625,81.33375 L10.0625,107.09375 L1.61,107.09375 C0.816090672,107.09375 0.1725,107.737341 0.1725,108.53125 C0.1725,109.325159 0.816090672,109.96875 1.61,109.96875 L113.39,109.96875 C114.183909,109.96875 114.8275,109.325159 114.8275,108.53125 C114.8275,107.737341 114.183909,107.09375 113.39,107.09375 Z M104.765,82.843125 C104.734708,86.4721659 102.058717,89.535177 98.4666016,90.0524416 C94.8744863,90.5697062 91.4429931,88.3861728 90.39,84.913125 C90.39,84.683125 90.24625,84.453125 90.203125,84.20875 C90.0195779,83.3075845 90.0195779,82.3786655 90.203125,81.4775 C90.203125,81.3625 90.203125,81.2475 90.289375,81.1325 C90.3563719,80.7910151 90.4476452,80.4547449 90.5625,80.12625 L90.691875,79.824375 C90.8515014,79.4698942 91.038963,79.128618 91.2525,78.80375 L91.324375,78.674375 C91.8449055,77.9124186 92.5030436,77.2542805 93.265,76.73375 L93.4375,76.67625 C93.7368475,76.4911595 94.0491102,76.3278221 94.371875,76.1875 L94.76,76.029375 C95.5938537,75.7026575 96.4806932,75.5321115 97.37625,75.52625 C101.432259,75.5182203 104.733382,78.7872318 104.765,82.843125 Z M69.77625,75.051875 C69.7525115,68.8320272 74.5656156,63.6640684 80.7714454,63.2460395 C86.9772751,62.8280105 92.4399876,67.3037832 93.250625,73.470625 L93.00625,73.6 C92.7475,73.729375 92.48875,73.85875 92.23,74.0025 L91.74125,74.304375 L91.180625,74.75 C90.8845128,74.9784246 90.6013652,75.2231793 90.3325,75.483125 L90.045,75.75625 C89.858125,75.943125 89.67125,76.144375 89.49875,76.36 L89.38375,76.518125 C89.0762324,76.90441 88.797563,77.3128048 88.55,77.74 L88.29125,78.2 C88.190625,78.386875 88.09,78.588125 88.00375,78.789375 C87.8624388,79.1085639 87.7376897,79.4348308 87.63,79.766875 C87.63,79.89625 87.558125,80.04 87.515,80.18375 C87.471875,80.3275 87.356875,80.830625 87.299375,81.16125 C87.241875,81.491875 87.299375,81.42 87.299375,81.549375 C87.1874502,82.3793687 87.1874502,83.2206313 87.299375,84.050625 L87.299375,84.26625 C87.299375,84.6016667 87.3616667,84.9322917 87.48625,85.258125 L87.48625,85.258125 C83.8377419,87.3783306 79.3341826,87.3864563 75.6780474,85.2794304 C72.0219122,83.1724044 69.7710113,79.271692 69.77625,75.051875 L69.77625,75.051875 Z M83.015625,89.6425 C84.9505657,89.4520185 86.8276147,88.875217 88.535625,87.94625 C90.1081876,90.667323 92.8422213,92.5165047 95.953125,92.963125 L95.953125,107.09375 L83.015625,107.09375 L83.015625,89.6425 Z M34.98875,3.694375 L50.80125,9.818125 L19.17625,9.818125 L34.98875,3.694375 Z M7.90625,16.775625 L7.90625,12.693125 L61.223125,12.693125 L61.223125,16.76125 L7.90625,16.76125 L7.90625,16.775625 Z M12.9375,19.650625 L57.04,19.650625 L57.04,71.515625 L12.9375,71.515625 L12.9375,19.650625 Z M7.90625,74.390625 L61.223125,74.390625 L61.223125,78.45875 L7.90625,78.45875 L7.90625,74.390625 Z M29.598125,107.09375 L29.598125,97.505625 C29.5981249,95.5797401 30.6255723,93.8001491 32.2934375,92.8372067 C33.9613027,91.8742642 36.0161973,91.8742642 37.6840625,92.8372067 C39.3519277,93.8001491 40.3793751,95.5797401 40.379375,97.505625 L40.379375,107.09375 L29.598125,107.09375 L29.598125,107.09375 Z M43.254375,107.09375 L43.254375,97.505625 C43.254375,92.9406464 39.5537286,89.24 34.98875,89.24 C30.4237714,89.24 26.723125,92.9406464 26.723125,97.505625 L26.723125,107.09375 L12.9375,107.09375 L12.9375,81.33375 L57.04,81.33375 L57.04,107.09375 L43.254375,107.09375 Z" id="Shape"></path>
                <path d="M22.28125,28.03125 C21.4873407,28.03125 20.84375,28.6748407 20.84375,29.46875 L20.84375,38.09375 C20.84375,38.8876593 21.4873407,39.53125 22.28125,39.53125 C23.0751593,39.53125 23.71875,38.8876593 23.71875,38.09375 L23.71875,29.46875 C23.71875,28.6748407 23.0751593,28.03125 22.28125,28.03125 Z" id="Shape"></path>
                <path d="M34.98875,28.03125 C34.1948407,28.03125 33.55125,28.6748407 33.55125,29.46875 L33.55125,38.09375 C33.55125,38.8876593 34.1948407,39.53125 34.98875,39.53125 C35.7826593,39.53125 36.42625,38.8876593 36.42625,38.09375 L36.42625,29.46875 C36.42625,28.6748407 35.7826593,28.03125 34.98875,28.03125 Z" id="Shape"></path>
                <path d="M47.69625,28.03125 C46.9023407,28.03125 46.25875,28.6748407 46.25875,29.46875 L46.25875,38.09375 C46.25875,38.8876593 46.9023407,39.53125 47.69625,39.53125 C48.4901593,39.53125 49.13375,38.8876593 49.13375,38.09375 L49.13375,29.46875 C49.13375,28.6748407 48.4901593,28.03125 47.69625,28.03125 Z" id="Shape"></path>
                <path d="M22.28125,50.62875 C21.4873407,50.62875 20.84375,51.2723407 20.84375,52.06625 L20.84375,60.69125 C20.84375,61.4851593 21.4873407,62.12875 22.28125,62.12875 C23.0751593,62.12875 23.71875,61.4851593 23.71875,60.69125 L23.71875,52.06625 C23.71875,51.2723407 23.0751593,50.62875 22.28125,50.62875 Z" id="Shape"></path>
                <path d="M34.98875,50.62875 C34.1948407,50.62875 33.55125,51.2723407 33.55125,52.06625 L33.55125,60.69125 C33.55125,61.4851593 34.1948407,62.12875 34.98875,62.12875 C35.7826593,62.12875 36.42625,61.4851593 36.42625,60.69125 L36.42625,52.06625 C36.42625,51.2723407 35.7826593,50.62875 34.98875,50.62875 Z" id="Shape"></path>
                <path d="M47.69625,50.62875 C46.9023407,50.62875 46.25875,51.2723407 46.25875,52.06625 L46.25875,60.69125 C46.25875,61.4851593 46.9023407,62.12875 47.69625,62.12875 C48.4901593,62.12875 49.13375,61.4851593 49.13375,60.69125 L49.13375,52.06625 C49.13375,51.2723407 48.4901593,50.62875 47.69625,50.62875 Z" id="Shape"></path>
                <path d="M81.73625,32.45875 L97.074375,32.45875 C97.8682843,32.45875 98.511875,31.8151593 98.511875,31.02125 C98.511875,30.2273407 97.8682843,29.58375 97.074375,29.58375 L81.73625,29.58375 C80.9423407,29.58375 80.29875,30.2273407 80.29875,31.02125 C80.29875,31.8151593 80.9423407,32.45875 81.73625,32.45875 Z" id="Shape"></path>
                <path d="M103.916875,40.365 C103.916875,39.5710907 103.273284,38.9275 102.479375,38.9275 L87.14125,38.9275 C86.3473407,38.9275 85.70375,39.5710907 85.70375,40.365 C85.70375,41.1589093 86.3473407,41.8025 87.14125,41.8025 L102.479375,41.8025 C103.273284,41.8025 103.916875,41.1589093 103.916875,40.365 Z" id="Shape"></path>
                <path d="M102.5225,32.45875 L105.871875,32.45875 C106.665784,32.45875 107.309375,31.8151593 107.309375,31.02125 C107.309375,30.2273407 106.665784,29.58375 105.871875,29.58375 L102.5225,29.58375 C101.728591,29.58375 101.085,30.2273407 101.085,31.02125 C101.085,31.8151593 101.728591,32.45875 102.5225,32.45875 Z" id="Shape"></path>
                <path d="M68.151875,51.390625 L88.650625,51.390625 C89.4445343,51.390625 90.088125,50.7470343 90.088125,49.953125 C90.088125,49.1592157 89.4445343,48.515625 88.650625,48.515625 L68.151875,48.515625 C67.3579657,48.515625 66.714375,49.1592157 66.714375,49.953125 C66.714375,50.7470343 67.3579657,51.390625 68.151875,51.390625 Z" id="Shape"></path>
                <path d="M68.31,41.8025 L71.67375,41.8025 C72.4676593,41.8025 73.11125,41.1589093 73.11125,40.365 C73.11125,39.5710907 72.4676593,38.9275 71.67375,38.9275 L68.31,38.9275 C67.5160907,38.9275 66.8725,39.5710907 66.8725,40.365 C66.8725,41.1589093 67.5160907,41.8025 68.31,41.8025 Z" id="Shape"></path>
                <path d="M100.840625,51.390625 L104.204375,51.390625 C104.998284,51.390625 105.641875,50.7470343 105.641875,49.953125 C105.641875,49.1592157 104.998284,48.515625 104.204375,48.515625 L100.840625,48.515625 C100.046716,48.515625 99.403125,49.1592157 99.403125,49.953125 C99.403125,50.7470343 100.046716,51.390625 100.840625,51.390625 Z" id="Shape"></path>
            </g>
        </g>
    </g>
</svg>