<?xml version="1.0" encoding="UTF-8"?>
<svg width="69px" height="56px" viewBox="0 0 69 56" version="1.1" xmlns="http://www.w3.org/2000/svg" xmlns:xlink="http://www.w3.org/1999/xlink">
    <!-- Generator: Sketch 41.2 (35397) - http://www.bohemiancoding.com/sketch -->
    <title>icon-industries-facility</title>
    <desc>Created with Sketch.</desc>
    <defs></defs>
    <g id="Page-1" stroke="none" stroke-width="1" fill="none" fill-rule="evenodd">
        <g id="icon-industries-facility" fill="#3F4B57">
            <g id="Page-1">
                <g>
                    <g id="Artboard">
                        <g id="icon-industries-facility">
                            <path d="M32,6.5 C32,11.1666667 25,11.1666667 25,6.5 C25,1.83333333 32,1.83333333 32,6.5" id="Fill-1"></path>
                            <path d="M32,13.5958589 L32,13.5958589 C32,8.80138037 25,8.80138037 25,13.5958589 L25,25 L32,17.8105828 L32,13.5958589 Z" id="Fill-2"></path>
                            <path d="M62.1,0 L55.2,0 C53.371776,0 51.612,0.73472 50.318112,2.04736 L10.945056,42 L6.9,42 C3.087888,42 0,45.13264 0,49 C0,52.86736 3.087888,56 6.9,56 L13.8,56 C15.628224,56 17.388,55.26528 18.681888,53.95264 L58.054944,14 L62.1,14 C65.912112,14 69,10.86736 69,7 C69,3.13264 65.912112,0 62.1,0 Z M62.1,10.5 L56.631888,10.5 L16.240944,51.47632 C15.594,52.13264 14.714112,52.5 13.8,52.5 L6.9,52.5 C2.298528,52.5 2.298528,45.5 6.9,45.5 L12.368112,45.5 L52.759056,4.52368 C53.406,3.86736 54.285888,3.5 55.2,3.5 L62.1,3.5 C66.701472,3.5 66.701472,10.5 62.1,10.5 Z" id="Fill-3"></path>
                        </g>
                    </g>
                </g>
            </g>
        </g>
    </g>
</svg>