<?xml version="1.0" encoding="UTF-8"?>
<svg width="65px" height="21px" viewBox="0 0 65 21" version="1.1" xmlns="http://www.w3.org/2000/svg" xmlns:xlink="http://www.w3.org/1999/xlink">
    <!-- Generator: Sketch 41.2 (35397) - http://www.bohemiancoding.com/sketch -->
    <title>icon-industries-fleet</title>
    <desc>Created with Sketch.</desc>
    <defs></defs>
    <g id="Page-1" stroke="none" stroke-width="1" fill="none" fill-rule="evenodd">
        <g id="icon-industries-fleet" fill="#3F4B57">
            <g id="Page-1">
                <g>
                    <g id="Artboard">
                        <g id="icon-industries-fleet">
                            <path d="M39.395,18.352 L39.395,19.824 C39.395,20.281 39.043,20.633 38.586,20.633 L35.602,20.633 C35.145,20.633 34.793,20.281 34.793,19.824 L34.793,18.539 C36.359,18.508 37.898,18.445 39.395,18.352 Z" id="Fill-1"></path>
                            <path d="M63.629,5.949 L60.855,5.949 C60.68,5.668 60.539,5.422 60.363,5.176 C60.223,5 60.117,4.789 59.977,4.613 C59.449,3.875 58.359,2.473 57.52,1.453 C56.816,0.574 55.836,0.188 54.781,0.188 L42.484,0.188 C41.965,0.188 41.473,0.273 41.02,0.469 C41.285,0.664 41.523,0.895 41.738,1.164 C41.93,1.398 42.141,1.656 42.355,1.922 C42.59,1.863 42.836,1.84 43.082,1.84 L46.629,1.84 L46.629,1.98 C46.629,2.438 46.98,2.789 47.438,2.789 L49.93,2.789 C50.387,2.789 50.738,2.438 50.738,1.98 L50.738,1.84 L54.32,1.84 C55.129,1.84 55.902,2.121 56.461,2.824 C57.059,3.562 57.867,4.613 58.285,5.176 C58.32,5.211 58.355,5.246 58.355,5.281 C58.531,5.527 58.742,5.809 58.918,6.09 C58.988,6.195 59.164,6.441 59.164,6.652 C59.164,7.074 58.812,7.426 58.391,7.426 L48.727,7.426 L48.727,7.707 C48.727,8.418 48.172,8.973 47.461,8.973 L46.379,8.973 C46.656,10.086 46.797,11.285 46.797,12.555 L46.797,18.09 C47.402,18.102 48.016,18.105 48.633,18.105 C51.934,18.105 55.059,17.965 57.867,17.719 L57.867,19.824 C57.867,20.281 58.219,20.633 58.676,20.633 L61.66,20.633 C62.117,20.633 62.469,20.281 62.469,19.824 L62.469,12.555 C62.469,11.008 62.258,9.676 61.906,8.516 L63.594,8.516 C64.051,8.516 64.402,8.164 64.402,7.707 L64.402,6.758 C64.434,6.336 64.086,5.949 63.629,5.949 Z M60.188,12.414 L58.234,12.414 C58.145,12.438 58.055,12.449 57.973,12.449 L53.195,12.449 C52.844,12.449 52.598,12.168 52.598,11.852 L52.668,10.973 C52.703,10.621 53.02,10.375 53.336,10.375 L53.508,10.375 C53.516,10.371 53.523,10.363 53.531,10.359 C53.539,10.355 53.543,10.352 53.551,10.348 C53.559,10.344 53.562,10.34 53.57,10.34 C53.578,10.336 53.59,10.332 53.602,10.328 C53.609,10.324 53.617,10.324 53.625,10.32 C53.633,10.316 53.641,10.316 53.652,10.316 C53.691,10.309 53.734,10.305 53.785,10.305 L60.055,10.305 L60.07,10.305 C60.414,10.312 60.688,10.555 60.723,10.902 L60.793,11.781 C60.816,12.133 60.539,12.414 60.188,12.414 Z" id="Fill-2"></path>
                            <path d="M30.203,18.539 L30.203,19.824 C30.203,20.281 29.852,20.633 29.395,20.633 L26.41,20.633 C25.953,20.633 25.602,20.281 25.602,19.824 L25.602,18.352 C27.102,18.445 28.637,18.508 30.203,18.539 Z" id="Fill-3"></path>
                            <path d="M22.512,0.191 L10.223,0.191 C9.168,0.191 8.219,0.543 7.484,1.457 C6.676,2.477 4.781,4.969 4.641,5.18 C4.465,5.426 4.324,5.707 4.148,5.953 C4.148,5.953 4.148,5.953 4.113,5.953 L1.406,5.953 C0.949,5.953 0.598,6.305 0.598,6.762 L0.598,7.711 C0.598,8.168 0.949,8.52 1.406,8.52 L3.09,8.52 C2.738,9.68 2.527,11.012 2.527,12.559 L2.527,19.828 C2.527,20.285 2.879,20.637 3.336,20.637 L6.32,20.637 C6.777,20.637 7.129,20.285 7.129,19.828 L7.129,17.719 C9.938,17.965 13.062,18.105 16.363,18.105 C16.98,18.105 17.594,18.102 18.199,18.09 L18.199,12.555 C18.199,11.289 18.34,10.086 18.617,8.977 L17.535,8.977 C16.824,8.977 16.27,8.418 16.27,7.711 L16.27,7.43 L6.711,7.43 C6.289,7.43 5.938,7.078 5.938,6.656 C5.938,6.445 6.113,6.199 6.184,6.094 C6.359,5.812 8.078,3.566 8.676,2.828 C9.238,2.125 10.012,1.844 10.816,1.844 L14.363,1.844 L14.363,1.984 C14.363,2.441 14.715,2.793 15.172,2.793 L17.664,2.793 C18.121,2.793 18.473,2.441 18.473,1.984 L18.473,1.844 L22.055,1.844 C22.266,1.844 22.477,1.863 22.684,1.902 C22.906,1.617 23.105,1.363 23.258,1.172 C23.473,0.902 23.711,0.672 23.969,0.48 C23.516,0.281 23.023,0.191 22.512,0.191 Z M11.66,10.305 C12.012,10.305 12.293,10.551 12.328,10.902 L12.398,11.781 C12.434,12.133 12.152,12.414 11.801,12.414 L9.863,12.414 C9.84,12.422 9.82,12.426 9.797,12.43 C9.777,12.434 9.754,12.438 9.734,12.441 L9.73,12.441 C9.711,12.445 9.688,12.445 9.668,12.449 L9.664,12.449 L9.621,12.449 L9.598,12.449 L4.82,12.449 L4.789,12.449 C4.449,12.438 4.215,12.164 4.215,11.852 L4.285,10.973 C4.32,10.629 4.625,10.387 4.934,10.375 L4.965,10.375 L5.137,10.375 C5.195,10.328 5.289,10.305 5.41,10.305 L11.66,10.305 Z" id="Fill-4"></path>
                            <path d="M24.434,17.809 C24.723,17.828 25.016,17.852 25.309,17.871 C25.406,17.879 25.504,17.883 25.602,17.891 L25.602,17.715 C25.219,17.75 24.828,17.781 24.434,17.809 Z M40.145,0.496 C40.203,0.523 40.262,0.551 40.316,0.578 C40.262,0.547 40.203,0.52 40.145,0.496 Z" id="Fill-5"></path>
                            <path d="M16.773,7.973 C16.77,7.965 16.77,7.961 16.766,7.953 C16.766,7.957 16.77,7.965 16.77,7.969 L16.777,7.988 C16.777,7.992 16.777,7.992 16.781,7.996 C16.781,7.988 16.777,7.98 16.773,7.973 Z M16.73,7.723 L16.73,7.75 C16.73,7.766 16.73,7.777 16.734,7.793 L16.734,7.801 C16.734,7.773 16.734,7.75 16.73,7.723 Z" id="Fill-6"></path>
                            <path d="M47.496,5.949 L44.723,5.949 C44.547,5.668 44.406,5.422 44.23,5.176 C44.09,5 43.984,4.789 43.844,4.613 C43.68,4.383 43.461,4.086 43.211,3.758 C43.188,3.727 43.16,3.691 43.137,3.66 C42.758,3.164 42.32,2.602 41.898,2.078 C41.723,1.859 41.551,1.648 41.387,1.453 C41.34,1.395 41.293,1.34 41.246,1.289 C41.227,1.266 41.203,1.242 41.18,1.219 C41.16,1.199 41.145,1.18 41.125,1.164 C41.094,1.133 41.059,1.098 41.023,1.066 C41.008,1.051 40.988,1.035 40.969,1.02 C40.84,0.906 40.703,0.805 40.562,0.715 L40.562,0.715 C40.535,0.699 40.508,0.684 40.484,0.668 C40.465,0.656 40.445,0.648 40.43,0.637 C40.414,0.629 40.398,0.621 40.387,0.613 C40.367,0.602 40.348,0.59 40.324,0.582 C40.27,0.551 40.211,0.523 40.152,0.5 C40.121,0.488 40.094,0.477 40.066,0.461 C40.039,0.449 40.012,0.438 39.984,0.43 C39.977,0.426 39.969,0.422 39.961,0.422 C39.914,0.402 39.867,0.387 39.82,0.371 C39.797,0.363 39.773,0.355 39.75,0.348 C39.727,0.34 39.703,0.332 39.68,0.328 C39.664,0.324 39.648,0.32 39.633,0.316 C39.617,0.312 39.602,0.309 39.586,0.305 C39.566,0.297 39.543,0.293 39.523,0.289 C39.484,0.281 39.445,0.273 39.402,0.262 C39.367,0.254 39.328,0.25 39.289,0.242 C39.25,0.234 39.211,0.23 39.168,0.227 L39.16,0.227 C39.121,0.223 39.082,0.219 39.043,0.215 L39.035,0.215 C38.996,0.211 38.953,0.207 38.91,0.207 L38.898,0.207 C38.867,0.207 38.84,0.203 38.812,0.203 C38.793,0.203 38.777,0.203 38.758,0.199 L38.652,0.199 L26.355,0.199 L26.246,0.199 L26.199,0.199 C26.164,0.199 26.129,0.203 26.094,0.203 C26.051,0.207 26.008,0.207 25.965,0.211 L25.961,0.211 C25.922,0.215 25.883,0.219 25.844,0.223 C25.836,0.223 25.828,0.227 25.816,0.227 C25.789,0.23 25.762,0.234 25.734,0.238 C25.723,0.238 25.707,0.242 25.691,0.246 C25.656,0.254 25.621,0.258 25.586,0.266 C25.547,0.273 25.508,0.281 25.469,0.289 C25.457,0.293 25.449,0.293 25.438,0.297 C25.414,0.305 25.387,0.309 25.363,0.316 C25.352,0.32 25.336,0.324 25.324,0.328 C25.309,0.332 25.293,0.336 25.281,0.34 C25.215,0.359 25.145,0.379 25.078,0.402 C25.047,0.414 25.016,0.426 24.984,0.438 C24.945,0.453 24.906,0.469 24.867,0.484 C24.828,0.5 24.793,0.52 24.754,0.535 C24.66,0.582 24.566,0.633 24.477,0.688 C24.461,0.699 24.441,0.711 24.422,0.723 C24.387,0.746 24.348,0.77 24.312,0.797 C24.293,0.809 24.277,0.824 24.258,0.836 C24.242,0.848 24.223,0.863 24.203,0.875 C24.188,0.887 24.168,0.902 24.152,0.918 C24.137,0.93 24.117,0.945 24.102,0.961 C24.074,0.98 24.051,1.004 24.023,1.027 C24.004,1.043 23.984,1.059 23.969,1.078 C23.945,1.102 23.922,1.121 23.898,1.145 C23.824,1.219 23.75,1.297 23.68,1.379 C23.656,1.406 23.633,1.434 23.609,1.465 C23.48,1.629 23.324,1.828 23.148,2.051 C23.035,2.199 22.914,2.355 22.789,2.516 C22.734,2.586 22.68,2.66 22.621,2.734 C22.281,3.176 21.926,3.645 21.613,4.051 C21.586,4.086 21.559,4.125 21.531,4.16 C21.488,4.215 21.449,4.27 21.41,4.32 C21.383,4.355 21.359,4.391 21.332,4.422 C21.168,4.641 21.027,4.824 20.93,4.961 C20.918,4.977 20.906,4.992 20.898,5.004 C20.879,5.027 20.863,5.051 20.852,5.07 C20.84,5.086 20.828,5.102 20.82,5.113 C20.816,5.121 20.809,5.125 20.809,5.133 C20.801,5.145 20.797,5.148 20.789,5.156 C20.785,5.164 20.781,5.168 20.777,5.172 C20.773,5.176 20.773,5.18 20.77,5.184 C20.727,5.242 20.691,5.301 20.652,5.359 C20.59,5.461 20.527,5.562 20.465,5.668 C20.406,5.766 20.344,5.863 20.277,5.957 C20.277,5.957 20.277,5.957 20.242,5.957 L17.539,5.957 C17.312,5.957 17.109,6.043 16.965,6.191 C16.945,6.211 16.93,6.227 16.914,6.246 C16.906,6.254 16.902,6.266 16.895,6.273 C16.883,6.289 16.867,6.309 16.855,6.328 C16.848,6.34 16.844,6.348 16.84,6.359 C16.832,6.375 16.824,6.391 16.816,6.406 C16.801,6.438 16.789,6.469 16.777,6.504 C16.773,6.516 16.77,6.523 16.766,6.535 C16.762,6.555 16.754,6.57 16.75,6.59 C16.746,6.609 16.742,6.629 16.738,6.648 C16.734,6.688 16.73,6.727 16.73,6.77 L16.73,7.719 L16.73,7.734 C16.73,7.758 16.73,7.785 16.734,7.809 C16.734,7.82 16.734,7.828 16.738,7.836 L16.738,7.844 C16.738,7.855 16.742,7.863 16.742,7.871 C16.742,7.875 16.742,7.879 16.746,7.883 C16.746,7.891 16.75,7.895 16.75,7.902 C16.75,7.91 16.754,7.914 16.754,7.922 L16.754,7.926 C16.754,7.934 16.758,7.938 16.758,7.945 L16.758,7.949 L16.758,7.953 L16.758,7.953 L16.758,7.957 L16.758,7.957 C16.762,7.965 16.762,7.973 16.766,7.977 C16.77,7.984 16.77,7.992 16.773,8 C16.777,8.008 16.777,8.016 16.781,8.023 C16.781,8.027 16.785,8.027 16.785,8.031 C16.789,8.043 16.793,8.051 16.797,8.062 C16.805,8.074 16.809,8.09 16.816,8.102 L16.816,8.105 L16.816,8.105 C16.82,8.109 16.82,8.117 16.824,8.121 C16.828,8.125 16.828,8.133 16.832,8.137 L16.836,8.145 C16.84,8.152 16.844,8.156 16.848,8.164 C16.852,8.168 16.852,8.172 16.855,8.176 C16.863,8.188 16.871,8.195 16.875,8.207 C16.883,8.219 16.891,8.23 16.898,8.238 C16.914,8.258 16.934,8.277 16.949,8.293 C17.094,8.438 17.297,8.527 17.523,8.527 L19.207,8.527 C19.02,9.145 18.875,9.809 18.777,10.527 C18.762,10.652 18.746,10.785 18.73,10.914 C18.727,10.957 18.723,11 18.719,11.043 C18.711,11.129 18.703,11.219 18.695,11.309 C18.688,11.398 18.684,11.488 18.676,11.578 C18.672,11.656 18.664,11.738 18.664,11.82 C18.66,11.902 18.656,11.98 18.656,12.062 C18.656,12.129 18.652,12.195 18.652,12.262 L18.652,12.312 L18.652,12.359 L18.652,12.566 L18.652,19.836 C18.652,19.879 18.656,19.918 18.66,19.957 C18.664,19.977 18.668,19.996 18.672,20.016 C18.676,20.035 18.68,20.055 18.684,20.07 C18.688,20.082 18.691,20.09 18.695,20.102 C18.707,20.133 18.719,20.168 18.734,20.199 C18.742,20.215 18.75,20.23 18.758,20.246 C18.762,20.254 18.77,20.266 18.773,20.273 C18.785,20.293 18.797,20.312 18.812,20.328 C18.82,20.336 18.824,20.348 18.832,20.355 C18.848,20.375 18.863,20.395 18.883,20.414 C19.027,20.559 19.23,20.648 19.457,20.648 L22.441,20.648 C22.898,20.648 23.25,20.297 23.25,19.84 L23.25,17.734 C23.344,17.742 23.441,17.75 23.539,17.762 C23.691,17.773 23.84,17.785 23.992,17.797 C24.133,17.809 24.273,17.82 24.418,17.828 C24.812,17.801 25.203,17.77 25.586,17.734 L25.586,17.91 C25.676,17.914 25.77,17.922 25.859,17.926 C25.895,17.93 25.934,17.93 25.969,17.934 C26.117,17.941 26.27,17.949 26.422,17.961 C26.516,17.965 26.609,17.973 26.703,17.977 C26.797,17.98 26.887,17.988 26.98,17.992 C27.09,17.996 27.199,18.004 27.309,18.008 C27.391,18.012 27.473,18.016 27.555,18.02 C28.031,18.039 28.516,18.059 29.004,18.074 C29.102,18.078 29.199,18.078 29.297,18.082 C29.59,18.09 29.887,18.098 30.188,18.102 C30.34,18.105 30.492,18.109 30.645,18.109 C30.758,18.109 30.875,18.113 30.988,18.113 C31.102,18.113 31.215,18.117 31.324,18.117 C31.465,18.117 31.605,18.121 31.746,18.121 L31.867,18.121 L32.152,18.121 L32.484,18.121 L32.816,18.121 L33.105,18.121 L33.223,18.121 C33.363,18.121 33.504,18.121 33.645,18.117 C33.758,18.117 33.871,18.113 33.98,18.113 C34.094,18.113 34.211,18.109 34.324,18.109 C34.477,18.105 34.633,18.102 34.785,18.102 C34.934,18.098 35.082,18.094 35.23,18.09 C35.328,18.086 35.422,18.086 35.52,18.082 C35.574,18.082 35.625,18.078 35.676,18.078 C35.773,18.074 35.871,18.07 35.969,18.07 C36.414,18.059 36.855,18.039 37.293,18.023 C37.383,18.02 37.469,18.016 37.555,18.012 C37.703,18.004 37.848,18 37.992,17.992 C38.086,17.988 38.176,17.984 38.27,17.977 C38.363,17.973 38.457,17.965 38.551,17.961 C38.832,17.945 39.109,17.93 39.383,17.914 C39.777,17.891 40.168,17.863 40.555,17.832 C40.699,17.82 40.844,17.812 40.988,17.801 C41.137,17.789 41.289,17.777 41.434,17.766 C41.531,17.758 41.629,17.75 41.723,17.742 L41.723,19.852 C41.723,19.992 41.758,20.125 41.816,20.242 C41.852,20.312 41.898,20.375 41.953,20.43 C42.098,20.574 42.301,20.66 42.527,20.66 L45.512,20.66 C45.969,20.66 46.32,20.309 46.32,19.852 L46.32,12.582 C46.32,11.035 46.109,9.703 45.758,8.543 L47.441,8.543 C47.898,8.543 48.25,8.191 48.25,7.734 L48.25,6.785 C48.301,6.336 47.953,5.949 47.496,5.949 Z M27.922,12.414 L25.984,12.414 C25.961,12.422 25.941,12.426 25.918,12.43 C25.898,12.434 25.875,12.438 25.855,12.441 L25.852,12.441 C25.832,12.445 25.809,12.445 25.789,12.449 L25.785,12.449 L25.723,12.449 L20.945,12.449 C20.594,12.449 20.348,12.168 20.348,11.852 L20.418,10.973 C20.453,10.621 20.77,10.375 21.086,10.375 L21.254,10.375 C21.312,10.328 21.406,10.305 21.527,10.305 L27.777,10.305 C28.129,10.305 28.41,10.551 28.445,10.902 L28.516,11.781 C28.551,12.133 28.273,12.414 27.922,12.414 Z M22.844,7.426 C22.422,7.426 22.07,7.074 22.07,6.652 C22.07,6.441 22.246,6.195 22.316,6.09 C22.469,5.848 23.766,4.145 24.504,3.207 C24.621,3.055 24.727,2.926 24.809,2.824 C25.082,2.48 25.406,2.238 25.762,2.082 C26.133,1.914 26.535,1.84 26.949,1.84 L30.496,1.84 L30.496,1.98 C30.496,2.438 30.848,2.789 31.305,2.789 L33.797,2.789 C34.254,2.789 34.605,2.438 34.605,1.98 L34.605,1.84 L38.188,1.84 C38.566,1.84 38.941,1.902 39.285,2.043 C39.676,2.199 40.031,2.453 40.328,2.824 C40.426,2.945 40.527,3.07 40.633,3.207 C41.176,3.895 41.801,4.707 42.152,5.176 C42.188,5.211 42.223,5.246 42.223,5.281 C42.398,5.527 42.609,5.809 42.785,6.09 C42.855,6.195 43.031,6.441 43.031,6.652 C43.031,7.074 42.68,7.426 42.258,7.426 L22.844,7.426 Z M44.055,12.414 L42.117,12.414 C42.027,12.438 41.938,12.449 41.855,12.449 L37.078,12.449 C36.727,12.449 36.48,12.168 36.48,11.852 L36.551,10.973 C36.586,10.621 36.902,10.375 37.219,10.375 L37.391,10.375 C37.398,10.371 37.406,10.363 37.414,10.359 C37.418,10.355 37.426,10.352 37.434,10.348 C37.438,10.344 37.445,10.34 37.453,10.34 C37.461,10.336 37.473,10.332 37.484,10.328 C37.492,10.324 37.5,10.324 37.508,10.32 C37.516,10.316 37.523,10.316 37.535,10.316 C37.574,10.309 37.617,10.305 37.668,10.305 L43.918,10.305 C44.27,10.305 44.551,10.551 44.586,10.902 L44.656,11.781 C44.684,12.133 44.402,12.414 44.055,12.414 Z" id="Fill-7"></path>
                        </g>
                    </g>
                </g>
            </g>
        </g>
    </g>
</svg>