<?xml version="1.0" encoding="UTF-8"?>
<svg width="110px" height="99px" viewBox="0 0 110 99" version="1.1" xmlns="http://www.w3.org/2000/svg" xmlns:xlink="http://www.w3.org/1999/xlink">
    <!-- Generator: sketchtool 41.2 (35397) - http://www.bohemiancoding.com/sketch -->
    <title>B3362C08-14A4-47FB-95A5-B4A746A9D2BB</title>
    <desc>Created with sketchtool.</desc>
    <defs></defs>
    <g id="Symbols" stroke="none" stroke-width="1" fill="none" fill-rule="evenodd">
        <g id="elements/icons/pricing-professional" transform="translate(-3.000000, -13.000000)" fill="#3F4B57">
            <g id="Professional-Icon" transform="translate(3.000000, 13.000000)">
                <path d="M108.271429,95.5952381 L95.0190476,95.5952381 L95.0190476,86.7035714 L99.3011905,86.7035714 L99.3011905,79.2654762 L95.0190476,79.2654762 L95.0190476,40.15 L100.938095,40.15 L100.938095,28.9797619 L81.2952381,28.9797619 L81.2952381,8.78690476 L73.4380952,8.78690476 L73.4380952,28.9797619 L19.0797619,28.9797619 L19.0797619,40.15 L26.2821429,40.15 L26.2821429,95.5952381 L14.4047619,95.5952381 C14.4581429,95.4615436 14.4891139,95.319962 14.4964286,95.1761905 L14.4964286,86.9130952 C21.0559931,86.0522701 25.7944198,80.2080486 25.2806209,73.6122228 C24.766822,67.0163971 19.1805445,61.9764451 12.5668036,62.1417886 C5.95306281,62.3071321 0.625603967,67.6199276 0.442032224,74.2331876 C0.258460482,80.8464476 5.28299642,86.446595 11.877381,86.9785714 L11.877381,95.2154762 C11.8846956,95.3592477 11.9156666,95.5008293 11.9690476,95.6345238 L6.44285714,95.6345238 C5.71962711,95.6345238 5.13333333,96.2208176 5.13333333,96.9440476 C5.13333333,97.6672776 5.71962711,98.2535714 6.44285714,98.2535714 L108.271429,98.2535714 C109.005507,98.2535714 109.600595,97.6584832 109.600595,96.9244048 C109.600595,96.1903263 109.005507,95.5952381 108.271429,95.5952381 Z M3.03809524,74.6428571 C3.03809524,69.2113996 7.44116153,64.8083333 12.872619,64.8083333 C18.3040766,64.8083333 22.7071429,69.2113996 22.7071429,74.6428571 C22.7071429,80.0743147 18.3040766,84.477381 12.872619,84.477381 C7.44415244,84.470167 3.04530916,80.0713238 3.03809524,74.6428571 L3.03809524,74.6428571 Z M96.6690476,84.15 L75.127381,84.15 L75.127381,81.8845238 L96.6690476,81.8845238 L96.6690476,84.097619 L96.6690476,84.15 Z M76.0440476,11.4059524 L78.6630952,11.4059524 L78.6630952,28.9797619 L76.0440476,28.9797619 L76.0440476,11.4059524 Z M81.2821429,31.5988095 L98.3059524,31.5988095 L98.3059524,37.5309524 L56.7285714,37.5309524 L56.7285714,31.5988095 L81.2690476,31.5988095 L81.2821429,31.5988095 Z M47.8892857,37.5309524 L47.8892857,31.5988095 L54.1095238,31.5988095 L54.1095238,37.5309524 L47.8892857,37.5309524 L47.8892857,37.5309524 Z M39.05,37.5309524 L39.05,31.5988095 L45.2702381,31.5988095 L45.2702381,37.5309524 L39.05,37.5309524 L39.05,37.5309524 Z M28.9011905,37.5309524 L28.9011905,31.5988095 L36.4309524,31.5988095 L36.4309524,37.5309524 L28.9011905,37.5309524 L28.9011905,37.5309524 Z M21.6988095,31.5988095 L26.2821429,31.5988095 L26.2821429,37.5309524 L21.6988095,37.5309524 L21.6988095,31.5988095 L21.6988095,31.5988095 Z M39.05,95.5952381 L39.05,66.3011905 L54.4369048,66.3011905 L54.4369048,95.5952381 L39.05,95.5952381 Z M57.0559524,95.5952381 L57.0559524,63.6821429 L36.4309524,63.6821429 L36.4309524,95.5952381 L28.9011905,95.5952381 L28.9011905,40.15 L66.2880952,40.15 L66.2880952,95.5952381 L57.1214286,95.5952381 L57.0559524,95.5952381 Z M68.8416667,95.5952381 L68.8416667,40.15 L92.4,40.15 L92.4,79.2654762 L72.5083333,79.2654762 L72.5083333,86.7166667 L92.4,86.7166667 L92.4,95.5952381 L68.9071429,95.5952381 L68.8416667,95.5952381 Z" id="Shape"></path>
                <path d="M37.7404762,47.1428571 C37.0172462,47.1428571 36.4309524,47.7291509 36.4309524,48.452381 L36.4309524,56.5059524 C36.4309524,57.2291824 37.0172462,57.8154762 37.7404762,57.8154762 C38.4637062,57.8154762 39.05,57.2291824 39.05,56.5059524 L39.05,48.452381 C39.05,47.7291509 38.4637062,47.1428571 37.7404762,47.1428571 Z" id="Shape"></path>
                <path d="M46.75,47.1428571 C46.02677,47.1428571 45.4404762,47.7291509 45.4404762,48.452381 L45.4404762,56.5059524 C45.4404762,57.2291824 46.02677,57.8154762 46.75,57.8154762 C47.47323,57.8154762 48.0595238,57.2291824 48.0595238,56.5059524 L48.0595238,48.452381 C48.0595238,47.7291509 47.47323,47.1428571 46.75,47.1428571 Z" id="Shape"></path>
                <path d="M55.7464286,47.1428571 C55.0231985,47.1428571 54.4369048,47.7291509 54.4369048,48.452381 L54.4369048,56.5059524 C54.4369048,57.2291824 55.0231985,57.8154762 55.7464286,57.8154762 C56.4696586,57.8154762 57.0559524,57.2291824 57.0559524,56.5059524 L57.0559524,48.452381 C57.0559524,47.7291509 56.4696586,47.1428571 55.7464286,47.1428571 Z" id="Shape"></path>
                <path d="M88.8119048,74.9702381 L88.8119048,49.0547619 L73.425,49.0547619 L73.425,74.9702381 L88.8119048,74.9702381 Z M86.1928571,72.3511905 L83.9011905,72.3511905 L83.9011905,51.6738095 L86.1928571,51.6738095 L86.1928571,72.3511905 Z M76.0440476,51.6738095 L81.2821429,51.6738095 L81.2821429,72.3511905 L76.0440476,72.3511905 L76.0440476,51.6738095 Z" id="Shape"></path>
                <path d="M55.9035714,2.78928571 L69.8761905,2.78928571 C70.5994205,2.78928571 71.1857143,2.20299193 71.1857143,1.4797619 C71.1857143,0.756531875 70.5994205,0.170238095 69.8761905,0.170238095 L55.9035714,0.170238095 C55.1803414,0.170238095 54.5940476,0.756531875 54.5940476,1.4797619 C54.5940476,2.20299193 55.1803414,2.78928571 55.9035714,2.78928571 Z" id="Shape"></path>
                <path d="M47.7321429,11.3011905 L61.7047619,11.3011905 C62.4279919,11.3011905 63.0142857,10.7148967 63.0142857,9.99166667 C63.0142857,9.26843664 62.4279919,8.68214286 61.7047619,8.68214286 L47.7321429,8.68214286 C47.0089128,8.68214286 46.422619,9.26843664 46.422619,9.99166667 C46.422619,10.7148967 47.0089128,11.3011905 47.7321429,11.3011905 Z" id="Shape"></path>
                <path d="M74.8392857,2.78928571 L77.8904762,2.78928571 C78.6137062,2.78928571 79.2,2.20299193 79.2,1.4797619 C79.2,0.756531875 78.6137062,0.170238095 77.8904762,0.170238095 L74.8392857,0.170238095 C74.1160557,0.170238095 73.5297619,0.756531875 73.5297619,1.4797619 C73.5297619,2.20299193 74.1160557,2.78928571 74.8392857,2.78928571 Z" id="Shape"></path>
                <path d="M30.4333333,20.0357143 L49.0940476,20.0357143 C49.8172776,20.0357143 50.4035714,19.4494205 50.4035714,18.7261905 C50.4035714,18.0029604 49.8172776,17.4166667 49.0940476,17.4166667 L30.4333333,17.4166667 C29.7101033,17.4166667 29.1238095,18.0029604 29.1238095,18.7261905 C29.1238095,19.4494205 29.7101033,20.0357143 30.4333333,20.0357143 Z" id="Shape"></path>
                <path d="M30.577381,11.3011905 L33.6285714,11.3011905 C34.3518015,11.3011905 34.9380952,10.7148967 34.9380952,9.99166667 C34.9380952,9.26843664 34.3518015,8.68214286 33.6285714,8.68214286 L30.577381,8.68214286 C29.8541509,8.68214286 29.2678571,9.26843664 29.2678571,9.99166667 C29.2678571,10.7148967 29.8541509,11.3011905 30.577381,11.3011905 Z" id="Shape"></path>
                <path d="M60.2380952,17.4166667 C59.5148652,17.4166667 58.9285714,18.0029604 58.9285714,18.7261905 C58.9285714,19.4494205 59.5148652,20.0357143 60.2380952,20.0357143 L63.302381,20.0357143 C64.025611,20.0357143 64.6119048,19.4494205 64.6119048,18.7261905 C64.6119048,18.0029604 64.025611,17.4166667 63.302381,17.4166667 L60.2380952,17.4166667 Z" id="Shape"></path>
            </g>
        </g>
    </g>
</svg>