<?xml version="1.0" encoding="utf-8"?>
<!-- Generator: Adobe Illustrator 19.0.0, SVG Export Plug-In . SVG Version: 6.00 Build 0)  -->
<svg version="1.1" id="Layer_1" xmlns="http://www.w3.org/2000/svg" xmlns:xlink="http://www.w3.org/1999/xlink" x="0px" y="0px"
	 viewBox="0 0 164.2 129" style="enable-background:new 0 0 164.2 129;" xml:space="preserve">
<style type="text/css">
	.st0{fill:#404B57;}
</style>
<g id="XMLID_2_">
	<path id="XMLID_3_" class="st0" d="M0,75.6C0,37.3,30,10.6,65.1,0c4.4,2.2,6.7,7.8,3.9,11.7c-20.6,9.5-42.3,25-42.3,47.8
		c0,21.1,17.2,30.6,27.8,31.1c7.8,0.6,15,5,15,15.6c0,8.3-5,22.8-26.7,22.8C20,129,0,104.5,0,75.6z M94,75.6C94,37.3,124,10.6,159,0
		c4.4,2.2,6.7,7.8,3.9,11.7c-20.6,9.5-42.3,25-42.3,47.8c0,21.1,17.2,30.6,27.8,31.1c7.8,0.6,15,5,15,15.6c0,8.3-5,22.8-26.7,22.8
		C114,129,94,104.5,94,75.6z"/>
</g>
</svg>
