<?xml version="1.0" encoding="UTF-8"?>
<svg width="62px" height="75px" viewBox="0 0 62 75" version="1.1" xmlns="http://www.w3.org/2000/svg" xmlns:xlink="http://www.w3.org/1999/xlink">
    <!-- Generator: Sketch 41.2 (35397) - http://www.bohemiancoding.com/sketch -->
    <title>icon-industries-physical-asset</title>
    <desc>Created with Sketch.</desc>
    <defs></defs>
    <g id="Page-1" stroke="none" stroke-width="1" fill="none" fill-rule="evenodd">
        <g id="icon-industries-physical-asset" fill="#3F4B57">
            <g id="Created-with-Sketch.">
                <path d="M60.3925,0.54 L54.1425,0.54 C53.6195,0.54 53.1345,0.801 52.8415,1.235 L47.6465,9.024 L47.4315,8.809 C46.8225,8.2 45.8305,8.2 45.2205,8.809 L32.2635,21.766 L30.2445,19.747 C29.6345,19.137 28.6425,19.137 28.0335,19.747 L16.8335,30.954 C14.6545,33.133 14.0605,36.29 15.0055,39.032 L13.0605,40.977 C12.1775,41.86 11.6895,43.04 11.6895,44.293 C11.6895,45.454 12.1235,46.54 12.8925,47.399 L7.7285,52.559 L3.0405,57.247 C-1.0135,61.301 -1.0135,67.899 3.0405,71.958 C5.0645,73.981 7.7325,75 10.3965,75 C13.0605,75 15.7245,73.985 17.7515,71.958 L41.1895,48.52 C44.0255,45.684 48.6425,45.684 51.4785,48.52 C54.3145,51.356 54.3145,55.973 51.4785,58.809 L40.5405,69.747 C39.9315,70.356 39.9315,71.348 40.5405,71.958 C41.1505,72.567 42.1425,72.567 42.7515,71.958 L53.6895,61.02 C57.7445,56.965 57.7445,50.368 53.6895,46.309 C49.6345,42.254 43.0335,42.254 38.9785,46.309 L15.5405,69.747 C12.7055,72.582 8.0875,72.582 5.2515,69.747 C2.4165,66.911 2.4165,62.293 5.2515,59.458 L15.1035,49.606 C15.9625,50.372 17.0485,50.809 18.2085,50.809 C19.4585,50.809 20.6385,50.321 21.5255,49.438 L23.4665,47.497 C24.2835,47.778 25.1345,47.958 26.0215,47.958 C28.1075,47.958 30.0685,47.145 31.5445,45.668 L42.7515,34.461 C43.3615,33.852 43.3615,32.86 42.7515,32.25 L40.7285,30.227 L53.6855,17.27 C54.2945,16.661 54.2945,15.668 53.6855,15.059 L53.4705,14.844 L61.2595,9.649 C61.6935,9.36 61.9555,8.872 61.9555,8.348 L61.9555,2.098 C61.9555,1.239 61.2595,0.54 60.3925,0.54 Z M38.5175,28.016 L34.4785,23.977 L46.3305,12.125 L46.7905,12.582 L50.3735,16.165 L38.5175,28.016 Z M58.8305,7.516 L51.2125,12.59 L49.9005,11.278 L54.9745,3.661 L58.8265,3.661 L58.8265,7.516 L58.8305,7.516 Z" id="Page-1"></path>
            </g>
        </g>
    </g>
</svg>