<?xml version="1.0" encoding="UTF-8"?>
<svg width="63px" height="52px" viewBox="0 0 63 52" version="1.1" xmlns="http://www.w3.org/2000/svg" xmlns:xlink="http://www.w3.org/1999/xlink">
    <!-- Generator: Sketch 41.2 (35397) - http://www.bohemiancoding.com/sketch -->
    <title>icon-chat-bubble</title>
    <desc>Created with Sketch.</desc>
    <defs></defs>
    <g id="Page-1" stroke="none" stroke-width="1" fill="none" fill-rule="evenodd">
        <g id="icon-chat-bubble" fill="#FF3B30">
            <path d="M10.58,51.879266 L10.578353,51.879266 C9.620594,51.879266 8.634834,51.832325 7.646605,51.740914 C7.285901,51.70715 6.990255,51.442798 6.916962,51.088682 C6.843668,50.733743 7.009197,50.373863 7.326254,50.199276 C13.813158,46.628472 17.140198,42.336261 17.729019,39.991686 C7.003432,36.495823 0.113,29.140924 0.113,21.114027 C0.113,9.538563 14.193627,0.120734 31.5,0.120734 C48.806373,0.120734 62.887,9.538563 62.887,21.114027 C62.887,32.631845 48.942255,42.012616 31.750352,42.103204 C31.398706,42.360967 30.898003,42.829552 30.331418,43.359079 C27.375788,46.125299 21.224058,51.879266 10.58,51.879266 Z M11.34096,48.500212 L11.434212,48.500212 C20.866681,48.500989 26.165742,43.543076 29.013045,40.879169 C29.764503,40.176669 30.306921,39.668444 30.777068,39.386355 C30.898296,39.314085 31.035843,39.27523 31.177276,39.27523 C46.651715,39.27523 59.240774,31.087679 59.240774,21.022649 C59.240774,10.956842 46.651715,2.76696 31.177276,2.76696 C15.702836,2.76696 3.113,10.957619 3.113,21.023426 C3.113,28.057757 9.457264,34.546562 19.274398,37.552394 C19.612438,37.655748 19.837798,37.973583 19.823033,38.326388 C19.721232,40.853525 16.792333,44.962842 11.34096,48.500212 Z M17.207727,19.970152 C17.207727,21.750612 18.646425,23.192604 20.43018,23.192604 C22.208993,23.192604 23.651809,21.751436 23.651809,19.970152 C23.651809,18.188867 22.209817,16.745229 20.43018,16.745229 C18.645602,16.746052 17.207727,18.189691 17.207727,19.970152 Z M28.276724,19.970152 C28.276724,21.750612 29.720363,23.192604 31.5,23.192604 C33.279637,23.192604 34.721629,21.751436 34.721629,19.970152 C34.721629,18.188867 33.278814,16.746052 31.5,16.746052 C29.721186,16.746052 28.276724,18.189691 28.276724,19.970152 Z M39.347368,19.970152 C39.347368,21.750612 40.791007,23.192604 42.56982,23.192604 C44.351928,23.192604 45.79639,21.751436 45.79639,19.970152 C45.79639,18.188867 44.351928,16.745229 42.56982,16.745229 C40.791007,16.746052 39.347368,18.189691 39.347368,19.970152 Z" id="Shape" transform="translate(31.500000, 26.000000) scale(-1, 1) translate(-31.500000, -26.000000) "></path>
        </g>
    </g>
</svg>