<?xml version="1.0" encoding="UTF-8"?>
<svg width="60px" height="60px" viewBox="0 0 60 60" version="1.1" xmlns="http://www.w3.org/2000/svg" xmlns:xlink="http://www.w3.org/1999/xlink">
    <!-- Generator: Sketch 41.2 (35397) - http://www.bohemiancoding.com/sketch -->
    <title>icon-enterprise</title>
    <desc>Created with Sketch.</desc>
    <defs></defs>
    <g id="Page-1" stroke="none" stroke-width="1" fill="none" fill-rule="evenodd">
        <g id="icon-enterprise" transform="translate(-1.000000, 0.000000)" fill="#222222">
            <g id="Shape">
                <path d="M37.7,32.9 C39.59,33.61 41.61,34 43.7,34 C48.24,34 52.51,32.23 55.72,29.02 C58.93,25.81 60.7,21.54 60.7,17 C60.7,12.46 58.93,8.19 55.72,4.98 C52.5,1.77 48.23,0 43.69,0 C39.15,0 34.88,1.77 31.67,4.98 C28.46,8.19 26.69,12.46 26.69,17 C26.69,19.08 27.08,21.1 27.79,23 L25.3,25.49 L23.89,24.08 L23.89,24.08 C25.45,22.52 25.45,19.98 23.89,18.42 C22.38,16.91 19.74,16.91 18.23,18.42 L16.11,20.54 L16.11,20.54 L16.11,20.54 L4.8,31.85 L5.51,32.56 L2.68,35.39 L4.09,36.8 L1.29,39.6 C0.9,39.99 0.9,40.62 1.29,41.01 C1.49,41.21 1.74,41.3 2,41.3 C2.26,41.3 2.51,41.2 2.71,41.01 L5.51,38.21 L6.92,39.62 L9.75,36.79 L10.46,37.5 L19.65,28.31 L21.06,29.72 L20.35,30.43 C18.73,32.05 18.03,34.36 18.43,36.6 L16.82,38.21 L17.53,38.92 L14.45,42 L15.86,43.41 L15.02,44.25 C14.63,44.64 14.63,45.27 15.02,45.66 C15.22,45.86 15.47,45.95 15.73,45.95 C15.99,45.95 16.24,45.85 16.44,45.66 L17.28,44.82 L18.69,46.23 L21.77,43.15 L22.48,43.86 L24.09,42.25 C24.49,42.32 24.9,42.37 25.32,42.37 C27.19,42.37 28.94,41.64 30.26,40.32 L30.97,39.61 L32.38,41.02 L23.19,50.21 L23.9,50.92 L21.07,53.75 L22.48,55.16 L19.68,57.96 C19.29,58.35 19.29,58.98 19.68,59.37 C19.88,59.57 20.13,59.66 20.39,59.66 C20.65,59.66 20.9,59.56 21.1,59.37 L23.9,56.57 L25.31,57.98 L28.14,55.15 L28.85,55.86 L42.29,42.43 C43.85,40.87 43.85,38.33 42.29,36.77 C40.78,35.26 38.14,35.26 36.63,36.77 L36.63,36.77 L35.22,35.36 L37.7,32.9 Z M6.92,36.8 L5.51,35.39 L6.92,33.98 L8.33,35.39 L6.92,36.8 Z M19.65,19.83 C20.4,19.08 21.72,19.08 22.48,19.83 C23.26,20.61 23.26,21.88 22.48,22.66 L22.48,22.66 L22.48,22.66 L21.07,24.07 L18.24,21.24 L19.65,19.83 Z M10.46,34.68 L7.63,31.85 L16.82,22.66 L19.65,25.49 L18.24,26.9 L18.24,26.9 L10.46,34.68 Z M22.48,25.49 L23.89,26.9 L22.48,28.31 L21.07,26.9 L22.48,25.49 Z M25.31,55.18 L23.9,53.77 L25.31,52.36 L26.72,53.77 L25.31,55.18 Z M38.17,30.94 L37.84,30.8 C36.5,30.23 35.27,29.49 34.16,28.58 C34.05,28.48 33.94,28.38 33.83,28.28 L35.24,26.87 C37.6,28.89 40.56,30 43.69,30 C46.83,30 49.79,28.89 52.14,26.87 L53.55,28.28 C50.82,30.68 47.36,32 43.69,32 C41.77,32 39.9,31.63 38.17,30.94 Z M33.69,16 L32.74,16 C32.94,13.84 33.77,11.73 35.24,9.96 L35.91,10.63 C36.11,10.83 36.36,10.92 36.62,10.92 C36.88,10.92 37.13,10.82 37.33,10.63 C37.72,10.24 37.72,9.61 37.33,9.22 L36.66,8.55 C38.38,7.11 40.47,6.25 42.7,6.05 L42.7,7 C42.7,7.55 43.15,8 43.7,8 C44.25,8 44.7,7.55 44.7,7 L44.7,6.05 C46.93,6.25 49.02,7.11 50.74,8.55 L50.07,9.22 C49.68,9.61 49.68,10.24 50.07,10.63 C50.27,10.83 50.52,10.92 50.78,10.92 C51.04,10.92 51.29,10.82 51.49,10.63 L52.16,9.96 C53.63,11.72 54.46,13.83 54.66,16 L53.71,16 C53.16,16 52.71,16.45 52.71,17 C52.71,17.55 53.16,18 53.71,18 L54.66,18 C54.46,20.16 53.63,22.27 52.16,24.04 L51.49,23.37 C51.1,22.98 50.47,22.98 50.08,23.37 C49.69,23.76 49.69,24.39 50.08,24.78 L50.75,25.45 C49.03,26.89 46.94,27.75 44.71,27.95 L44.71,27 C44.71,26.45 44.26,26 43.71,26 C43.16,26 42.71,26.45 42.71,27 L42.71,27.95 C40.48,27.75 38.39,26.89 36.67,25.45 L37.34,24.78 C37.73,24.39 37.73,23.76 37.34,23.37 C36.95,22.98 36.32,22.98 35.93,23.37 L35.26,24.04 C33.79,22.28 32.96,20.17 32.76,18 L33.71,18 C34.26,18 34.71,17.55 34.71,17 C34.71,16.45 34.24,16 33.69,16 Z M54.97,26.86 L53.55,25.44 C55.62,23.03 56.67,20.03 56.68,17.03 C56.68,17.02 56.69,17 56.69,16.99 C56.69,16.98 56.68,16.96 56.68,16.95 C56.67,13.95 55.62,10.96 53.55,8.54 L54.97,7.12 C57.37,9.85 58.69,13.31 58.69,16.98 C58.69,20.65 57.37,24.13 54.97,26.86 Z M53.56,5.72 L52.15,7.13 C49.79,5.11 46.83,4 43.69,4 C40.55,4 37.59,5.11 35.24,7.14 L33.83,5.73 C36.56,3.32 40.02,2 43.69,2 C47.36,2 50.82,3.32 53.56,5.72 Z M32.41,7.14 L33.83,8.56 C31.76,10.97 30.71,13.97 30.7,16.97 C30.7,16.98 30.69,17 30.69,17.01 C30.69,17.02 30.7,17.04 30.7,17.05 C30.71,20.05 31.76,23.04 33.83,25.46 L32.41,26.88 C32.31,26.77 32.2,26.66 32.11,26.55 C31.2,25.44 30.45,24.21 29.89,22.87 L29.75,22.54 C29.06,20.81 28.7,18.94 28.7,17.02 C28.69,13.33 30.02,9.87 32.41,7.14 Z M24.6,36.09 C24.7,36.19 24.78,36.29 24.85,36.4 C24.89,36.46 24.92,36.53 24.95,36.59 C24.98,36.64 25.01,36.69 25.03,36.74 C25.13,36.98 25.18,37.24 25.18,37.5 C25.18,37.77 25.13,38.03 25.03,38.26 C25.01,38.31 24.98,38.35 24.95,38.4 C24.92,38.47 24.89,38.54 24.84,38.6 C24.77,38.71 24.68,38.81 24.59,38.91 L22.47,41.03 L19.64,38.2 L21.76,36.08 C22.52,35.34 23.85,35.34 24.6,36.09 Z M20.36,41.75 L18.69,43.42 L17.98,42.71 L17.98,42.71 L17.98,42.71 L17.28,42 L18.95,40.33 L20.06,41.44 L20.36,41.75 Z M26.02,40.33 C26.21,40.14 26.38,39.93 26.52,39.71 C26.57,39.64 26.6,39.56 26.64,39.48 C26.73,39.33 26.82,39.18 26.88,39.02 C26.94,38.87 26.97,38.72 27.02,38.57 C27.05,38.47 27.09,38.38 27.11,38.28 C27.21,37.77 27.21,37.24 27.11,36.72 C27.09,36.6 27.04,36.5 27.01,36.38 C26.97,36.25 26.94,36.11 26.89,35.98 C26.82,35.81 26.73,35.65 26.64,35.5 C26.6,35.43 26.57,35.36 26.53,35.29 C26.38,35.07 26.21,34.86 26.02,34.67 C25.27,33.92 24.26,33.5 23.19,33.5 C22.92,33.5 22.66,33.53 22.4,33.58 C22.32,33.6 22.25,33.63 22.18,33.65 C22,33.7 21.83,33.74 21.66,33.81 C21.57,33.85 21.49,33.9 21.41,33.94 C21.26,34.01 21.11,34.08 20.98,34.17 C20.86,34.25 20.76,34.35 20.66,34.44 C20.57,34.52 20.47,34.58 20.38,34.67 C20.53,33.62 21.02,32.62 21.79,31.85 L28.68,24.96 C28.8,25.2 28.95,25.42 29.09,25.65 C29.19,25.83 29.3,26.01 29.41,26.18 C29.54,26.38 29.67,26.57 29.8,26.76 C29.98,27.01 30.16,27.26 30.35,27.5 C30.46,27.64 30.57,27.78 30.68,27.92 C30.79,28.05 30.9,28.17 31.01,28.3 L29.57,29.74 C29.18,30.13 29.18,30.76 29.57,31.15 C29.77,31.35 30.02,31.44 30.28,31.44 C30.54,31.44 30.79,31.34 30.99,31.15 L32.43,29.71 C32.55,29.82 32.68,29.93 32.81,30.04 C32.95,30.16 33.1,30.27 33.24,30.38 C33.47,30.56 33.71,30.74 33.96,30.91 C34.16,31.05 34.36,31.19 34.56,31.32 C34.72,31.42 34.89,31.52 35.05,31.61 C35.29,31.75 35.52,31.9 35.77,32.03 L28.88,38.92 C28.07,39.69 27.08,40.18 26.02,40.33 Z M33.79,42.46 L35.2,41.05 L38.03,43.88 L28.84,53.07 L26.01,50.24 L33.79,42.46 L33.79,42.46 Z M40.86,38.21 C41.64,38.99 41.64,40.26 40.86,41.04 L39.45,42.45 L36.62,39.62 L38.03,38.21 C38.79,37.46 40.11,37.46 40.86,38.21 Z M35.21,38.21 L34.5,38.92 L34.5,38.92 L34.5,38.92 L34.38,39.04 L33.79,39.63 L32.38,38.22 L33.79,36.81 L35.21,38.21 Z"></path>
                <path d="M43.69,21 C44.76,21 45.76,20.58 46.52,19.83 C47.28,19.08 47.69,18.07 47.69,17 C47.69,15.93 47.27,14.93 46.52,14.17 C45.01,12.66 42.37,12.66 40.86,14.17 C40.1,14.92 39.69,15.93 39.69,17 C39.69,18.07 40.11,19.07 40.86,19.83 C41.62,20.58 42.62,21 43.69,21 Z M42.28,15.59 C42.66,15.21 43.16,15 43.69,15 C44.22,15 44.73,15.21 45.1,15.59 C45.47,15.97 45.69,16.47 45.69,17 C45.69,17.53 45.48,18.04 45.1,18.41 C44.34,19.17 43.03,19.17 42.27,18.41 C41.89,18.03 41.68,17.53 41.68,17 C41.68,16.47 41.9,15.96 42.28,15.59 Z"></path>
            </g>
        </g>
    </g>
</svg>
