<?xml version="1.0" encoding="UTF-8"?>
<svg width="92px" height="86px" viewBox="0 0 92 86" version="1.1" xmlns="http://www.w3.org/2000/svg" xmlns:xlink="http://www.w3.org/1999/xlink">
    <!-- Generator: Sketch 41.2 (35397) - http://www.bohemiancoding.com/sketch -->
    <title>icon-marketing-user</title>
    <desc>Created with Sketch.</desc>
    <defs></defs>
    <g id="Page-1" stroke="none" stroke-width="1" fill="none" fill-rule="evenodd">
        <g id="icon-marketing-user" fill="#314355">
            <g id="icon-marketing-retain-user">
                <path d="M6.95,59.18 L1.52,53.75 C0.418564558,52.567961 0.451064496,50.7259611 1.5935128,49.5835128 C2.73596111,48.4410645 4.57796098,48.4085646 5.76,49.51 L8.76,52.51 L16.35,44.92 C17.5212702,43.7501865 19.4187298,43.7501865 20.59,44.92 L20.59,44.92 C21.7598135,46.0912702 21.7598135,47.9887298 20.59,49.16 L10.59,59.16 C10.1159609,59.6563656 9.460596,59.9388328 8.77424508,59.9426039 C8.08789415,59.9463751 7.42946484,59.6711265 6.95,59.18 L6.95,59.18 Z M91.36,82.76 C91.36,84.4168542 90.0168542,85.76 88.36,85.76 L7.22,85.76 C5.56314575,85.76 4.22,84.4168542 4.22,82.76 C4.22,67.48 23.5,61.37 31.79,59.46 C31.8955692,59.4356508 31.9676962,59.3380672 31.96,59.23 L31.96,56 C30.0436758,53.4879372 28.6156424,50.6386545 27.75,47.6 C25.59,45.46 24.63,42.07 24.11,40.24 C23.27,37.24 22.42,32.96 24.74,29.89 L24.84,29.76 C24.69,28.85 24.58,27.97 24.51,27.07 C23.51,20.07 24.27,14.91 26.92,11.65 C28.3406508,9.86635809 30.3988405,8.70459247 32.66,8.41 C34.01,3.75 40.6,-0.8 46.59,0.41 C52.42,1.62 64.59,0.25 64.66,0.24 C64.8146517,0.227056685 64.9684221,0.273545427 65.09,0.37 C65.2121066,0.468717296 65.2880825,0.613433418 65.3,0.77 C65.3414308,2.39153335 64.7245646,3.96075448 63.59,5.12 C73.28,11.58 71.88,24.33 70.76,29.73 L70.86,29.86 C73.18,32.93 72.34,37.24 71.5,40.21 C71,42.07 70,45.46 67.84,47.6 C66.9698513,50.6185347 65.5418861,53.4473304 63.63,55.94 L63.63,59.23 C63.6263147,59.3368622 63.6967595,59.4321699 63.8,59.46 C72.09,61.37 91.36,67.47 91.36,82.76 Z M60.82,64.68 C59.4906714,63.9264593 58.4864363,62.7085572 58,61.26 C56.6447922,62.1586527 55.1879945,62.8937649 53.66,63.45 C49.8781099,64.7875291 45.7518901,64.7875291 41.97,63.45 C40.4378563,62.9045945 38.9772615,62.175976 37.62,61.28 C37.119656,62.7111209 36.1130713,63.9097748 34.79,64.65 C37.8809929,68.7280025 42.7029363,71.1236849 47.82,71.1236849 C52.9370637,71.1236849 57.7590071,68.7280025 60.85,64.65 L60.82,64.68 Z M63.5,44.08 C63.81,44.08 64.92,43.6 66.29,38.77 C67.36,35 66.91,33.63 66.54,33.15 C66.2196285,32.7827347 65.7292939,32.6116878 65.25,32.7 C65.0536559,32.7181249 64.8615521,32.6352566 64.74,32.48 C64.6198671,32.3271296 64.5859403,32.1235692 64.65,31.94 L64.65,31.83 C64.92,30.93 66.04,26.34 62.14,23.46 C58.72,24.22 53.14,24.46 45.57,21.21 C41.89,19.64 38.8,19.58 36.39,21.05 C31.62,24 31,32.1 30.95,32.18 C30.928594,32.4910219 30.6612859,32.7271441 30.35,32.71 L30.09,32.71 C29.6821514,32.6774931 29.2848361,32.849913 29.03,33.17 C28.67,33.65 28.22,35.02 29.28,38.79 C30.65,43.61 31.76,44.07 32.07,44.1 C32.3336946,44.1200002 32.5490018,44.3187453 32.59,44.58 C33.37,49.58 37.19,56.1 43.73,58.4 C46.3393359,59.3316358 49.1906641,59.3316358 51.8,58.4 C58.09,56.1 62.18,49.71 63,44.56 C63.039071,44.305407 63.2440249,44.1086513 63.5,44.08 L63.5,44.08 L0,0 L63.5,44.08 Z" id="Shape"></path>
            </g>
        </g>
    </g>
</svg>