<?xml version="1.0" encoding="UTF-8"?>
<svg width="65px" height="67px" viewBox="0 0 65 67" version="1.1" xmlns="http://www.w3.org/2000/svg" xmlns:xlink="http://www.w3.org/1999/xlink">
    <!-- Generator: Sketch 41.2 (35397) - http://www.bohemiancoding.com/sketch -->
    <title>icon-industries-church</title>
    <desc>Created with Sketch.</desc>
    <defs></defs>
    <g id="Page-1" stroke="none" stroke-width="1" fill="none" fill-rule="evenodd">
        <g id="icon-industries-church" fill="#3F4B57">
            <g id="Page-1">
                <g id="Artboard">
                    <path d="M17.742,37.375 L15.492,37.375 L15.492,40.656 L12.492,40.656 L12.492,42.906 L15.492,42.906 L15.492,50.929 L17.742,50.929 L17.742,42.91 L20.66,42.91 L20.66,40.66 L17.742,40.66 L17.742,37.375 Z M47.332,50.933 L49.582,50.933 L49.582,42.91 L52.5,42.91 L52.5,40.66 L49.582,40.66 L49.582,37.378 L47.332,37.378 L47.332,40.66 L44.332,40.66 L44.332,42.91 L47.332,42.91 L47.332,50.933 Z M61.988,60.808 L61.988,56.871 L55.66,56.871 L55.66,33.054 L48.414,25.074 L45.715,28.046 L33.621,14.257 L33.621,7.023 L37.328,7.023 L37.328,4.773 L33.621,4.773 L33.621,0.964 L31.371,0.964 L31.371,4.773 L27.664,4.773 L27.664,7.023 L31.371,7.023 L31.371,14.238 L19.266,28.039 L16.574,25.074 L9.328,33.054 L9.328,56.875 L3,56.875 L3,60.812 L0,60.812 L0,67 L64.984,67 L64.984,60.812 L61.988,60.812 L61.988,60.808 Z M48.418,28.421 L53.414,33.921 L53.414,56.871 L43.422,56.871 L43.422,33.921 L48.418,28.421 Z M32.488,16.378 L44.195,29.726 L41.172,33.054 L41.172,56.875 L39.742,56.875 L39.742,33.054 L32.496,25.074 L25.25,33.054 L25.25,56.875 L23.82,56.875 L23.82,33.054 L20.789,29.714 L32.488,16.378 Z M37.492,33.921 L37.492,56.871 L27.5,56.871 L27.5,33.921 L32.496,28.421 L37.492,33.921 Z M11.582,33.921 L16.578,28.421 L21.574,33.921 L21.574,56.871 L11.586,56.871 L11.586,33.921 L11.582,33.921 Z M5.254,59.121 L59.738,59.121 L59.738,60.808 L5.254,60.808 L5.254,59.121 Z M62.738,64.746 L2.254,64.746 L2.254,63.058 L62.738,63.058 L62.738,64.746 Z" id="icon-industries-church"></path>
                </g>
            </g>
        </g>
    </g>
</svg>