<?xml version="1.0" encoding="UTF-8"?>
<svg width="57px" height="66px" viewBox="0 0 57 66" version="1.1" xmlns="http://www.w3.org/2000/svg" xmlns:xlink="http://www.w3.org/1999/xlink">
    <!-- Generator: Sketch 41.2 (35397) - http://www.bohemiancoding.com/sketch -->
    <title>icon-industries-manufacturing</title>
    <desc>Created with Sketch.</desc>
    <defs></defs>
    <g id="Page-1" stroke="none" stroke-width="1" fill="none" fill-rule="evenodd">
        <g id="icon-industries-manufacturing" fill="#3F4B57">
            <g id="Created-with-Sketch.">
                <path d="M32.999603,0 C29.702603,0 26.999603,2.703 26.999603,6 C26.999603,9.297 29.702603,12 32.999603,12 C36.296603,12 38.999603,9.297 38.999603,6 C38.999603,2.703 36.296603,0 32.999603,0 Z M32.999603,3 C34.675603,3 35.999603,4.324 35.999603,6 C35.999603,7.676 34.675603,9 32.999603,9 C31.323603,9 29.999603,7.676 29.999603,6 C29.999603,4.324 31.323603,3 32.999603,3 Z M20.999603,7.5 C17.702603,7.5 14.999603,10.203 14.999603,13.5 C14.999603,16.797 17.702603,19.5 20.999603,19.5 C24.296603,19.5 26.999603,16.797 26.999603,13.5 C26.999603,10.203 24.296603,7.5 20.999603,7.5 Z M20.999603,10.5 C22.675603,10.5 23.999603,11.824 23.999603,13.5 C23.999603,15.176 22.675603,16.5 20.999603,16.5 C19.323603,16.5 17.999603,15.176 17.999603,13.5 C17.999603,11.824 19.323603,10.5 20.999603,10.5 Z M50.999603,11.25 C47.702603,11.25 44.999603,13.953 44.999603,17.25 C44.999603,20.547 47.702603,23.25 50.999603,23.25 C54.296603,23.25 56.999603,20.547 56.999603,17.25 C56.999603,13.953 54.296603,11.25 50.999603,11.25 Z M50.999603,14.25 C52.675603,14.25 53.999603,15.574 53.999603,17.25 C53.999603,18.926 52.675603,20.25 50.999603,20.25 C49.323603,20.25 47.999603,18.926 47.999603,17.25 C47.999603,15.574 49.323603,14.25 50.999603,14.25 Z M38.999603,18.75 C35.702603,18.75 32.999603,21.453 32.999603,24.75 C32.999603,28.047 35.702603,30.75 38.999603,30.75 C42.296603,30.75 44.999603,28.047 44.999603,24.75 C44.999603,21.453 42.296603,18.75 38.999603,18.75 Z M38.999603,21.75 C40.675603,21.75 41.999603,23.074 41.999603,24.75 C41.999603,26.426 40.675603,27.75 38.999603,27.75 C37.323603,27.75 35.999603,26.426 35.999603,24.75 C35.999603,23.074 37.323603,21.75 38.999603,21.75 Z M9.608603,24 L9.608603,24 C8.835603,24.074 8.245603,24.723 8.249603,25.5 L8.249603,41.742 L0.093603,63.984 C-0.266397,64.961 0.456603,66 1.499603,66 L46.499603,66 C47.526603,65.992 48.241603,64.977 47.905603,64.008 L41.999603,47.016 L41.999603,34.5 C41.999603,33.672 41.327603,33 40.499603,33 L30.749603,33 C29.921603,33 29.249603,33.672 29.249603,34.5 L29.249603,47.016 L27.257603,52.688 L23.249603,41.742 L23.249603,25.5 C23.249603,24.672 22.577603,24 21.749603,24 L9.749603,24 C9.702603,23.996 9.655603,23.996 9.608603,24 Z M11.249603,27 L20.249603,27 L20.249603,42 C20.249603,42.176 20.280603,42.352 20.343603,42.516 L26.694603,59.836 C27.390603,61.48 29.862603,60.75 29.554603,58.992 L29.507603,58.805 L29.038603,56.672 L32.155603,47.742 C32.214603,47.586 32.245603,47.418 32.249603,47.25 L32.249603,36 L38.999603,36 L38.999603,47.25 C39.003603,47.418 39.034603,47.586 39.093603,47.742 L44.390603,63 L3.655603,63 L11.155603,42.516 C11.218603,42.352 11.249603,42.176 11.249603,42 L11.249603,27 Z" id="icon-industries-manufacturing"></path>
            </g>
        </g>
    </g>
</svg>