<?xml version="1.0" encoding="UTF-8"?>
<svg width="62px" height="62px" viewBox="0 0 62 62" version="1.1" xmlns="http://www.w3.org/2000/svg" xmlns:xlink="http://www.w3.org/1999/xlink">
    <!-- Generator: Sketch 41.2 (35397) - http://www.bohemiancoding.com/sketch -->
    <title>icon-industries-equipment</title>
    <desc>Created with Sketch.</desc>
    <defs></defs>
    <g id="Page-1" stroke="none" stroke-width="1" fill="none" fill-rule="evenodd">
        <g id="icon-industries-equipment" fill="#3F4B57">
            <g id="Created-with-Sketch.">
                <path d="M23.868603,45.520255 L44.306603,25.082255 C45.665603,25.578255 47.110603,25.832255 48.552603,25.832255 C55.630603,25.832255 60.958603,13.453255 61.009603,13.328255 C61.247603,12.754255 61.689603,11.684255 60.833603,10.824255 C60.720603,10.711255 60.591603,10.613255 60.454603,10.539255 C59.450603,9.977255 59.345603,9.918255 51.810603,14.485255 L48.610603,13.625255 L47.743603,10.395255 C52.310603,2.942255 52.255603,2.836255 51.739603,1.844255 C51.657603,1.688255 51.552603,1.543255 51.427603,1.418255 C50.552603,0.543255 49.532603,0.965255 48.548603,1.375255 C48.040603,1.586255 36.146603,6.590255 36.146603,13.426255 C36.146603,14.867255 36.403603,16.313255 36.896603,17.672255 L16.458603,38.110255 C15.099603,37.613255 13.653603,37.360255 12.212603,37.360255 C5.900603,37.360255 1.345603,47.586255 0.493603,49.637255 C0.040603,50.731255 -0.349397,51.672255 0.509603,52.531255 C1.083603,53.106255 1.982603,53.199255 2.665603,52.762255 L8.950603,48.731255 L12.360603,49.770255 L13.044603,52.778255 C12.646603,53.449255 11.962603,54.610255 11.278603,55.774255 C10.747603,56.676255 10.220603,57.578255 9.829603,58.262255 C9.013603,59.680255 8.521603,60.535255 9.474603,61.488255 C10.337603,62.352255 11.274603,61.965255 12.466603,61.473255 C14.497603,60.629255 24.622603,56.113255 24.622603,49.766255 C24.618603,48.324255 24.360603,46.875255 23.868603,45.520255 Z M14.888603,56.434255 C15.368603,55.617255 15.872603,54.766255 16.360603,53.946255 C16.587603,53.567255 16.657603,53.113255 16.560603,52.684255 L15.501603,48.031255 C15.427603,47.707255 15.267603,47.422255 15.040603,47.196255 C14.845603,46.996255 14.599603,46.848255 14.325603,46.766255 L9.192603,45.199255 C8.708603,45.051255 8.185603,45.125255 7.759603,45.399255 L5.884603,46.602255 C7.599603,43.746255 9.954603,40.809255 12.212603,40.809255 C13.552603,40.809255 14.900603,41.117255 16.107603,41.699255 C16.767603,42.020255 17.560603,41.887255 18.075603,41.367255 L40.150603,19.293255 C40.669603,18.774255 40.802603,17.985255 40.482603,17.324255 C39.896603,16.113255 39.587603,14.770255 39.587603,13.430255 C39.587603,10.969255 43.021603,8.281255 46.083603,6.465255 C45.540603,7.367255 44.966603,8.320255 44.407603,9.231255 C44.161603,9.633255 44.087603,10.121255 44.212603,10.578255 L45.528603,15.488255 C45.689603,16.082255 46.153603,16.547255 46.747603,16.707255 L51.618603,18.012255 C52.075603,18.133255 52.560603,18.063255 52.962603,17.820255 C53.806603,17.309255 54.685603,16.778255 55.528603,16.278255 C53.642603,19.211255 50.954603,22.387255 48.544603,22.387255 C47.204603,22.387255 45.857603,22.078255 44.650603,21.492255 C43.989603,21.172255 43.196603,21.305255 42.677603,21.824255 L20.610603,43.899255 C20.091603,44.418255 19.958603,45.207255 20.278603,45.867255 C20.864603,47.074255 21.173603,48.422255 21.169603,49.762255 C21.169603,52.207255 17.880603,54.711255 14.888603,56.434255 Z" id="Page-1"></path>
            </g>
        </g>
    </g>
</svg>