<?xml version="1.0" encoding="UTF-8"?>
<svg width="128px" height="112px" viewBox="0 0 128 112" version="1.1" xmlns="http://www.w3.org/2000/svg" xmlns:xlink="http://www.w3.org/1999/xlink">
    <!-- Generator: Sketch 41.2 (35397) - http://www.bohemiancoding.com/sketch -->
    <title>icon-smart-monitoring</title>
    <desc>Created with Sketch.</desc>
    <defs></defs>
    <g id="Page-1" stroke="none" stroke-width="1" fill="none" fill-rule="evenodd">
        <g id="icon-smart-monitoring" fill="#222222">
            <g id="smart-monitoring">
                <path d="M4,20 C4,19.9054711 4.00721146,19.6891272 4.03007365,19.3690566 C4.06970799,18.8141759 4.14167002,18.190505 4.25403785,17.516298 C4.57490927,15.5910695 5.1514733,13.6691894 6.03885438,11.8944272 C8.52377571,6.92458453 12.9106525,4 20,4 L108,4 C108.094529,4 108.310873,4.00721146 108.630943,4.03007365 C109.185824,4.06970799 109.809495,4.14167002 110.483702,4.25403785 C112.408931,4.57490927 114.330811,5.1514733 116.105573,6.03885438 C121.075415,8.52377571 124,12.9106525 124,20 L124,92 C124,92.0945289 123.992789,92.3108728 123.969926,92.6309434 C123.930292,93.1858241 123.85833,93.809495 123.745962,94.483702 C123.425091,96.4089305 122.848527,98.3308106 121.961146,100.105573 C119.476224,105.075415 115.089347,108 108,108 L20,108 C19.9054711,108 19.6891272,107.992789 19.3690566,107.969926 C18.8141759,107.930292 18.190505,107.85833 17.516298,107.745962 C15.5910695,107.425091 13.6691894,106.848527 11.8944272,105.961146 C6.92458453,103.476224 4,99.0893475 4,92 L4,20 Z M0,20 L0,92 C0,100.660653 3.82541547,106.398776 10.1055728,109.538854 C12.2683106,110.620223 14.5651805,111.309284 16.858702,111.691538 C18.2413154,111.921973 19.3336877,112 20,112 L108,112 C116.660653,112 122.398776,108.174585 125.538854,101.894427 C126.620223,99.7316894 127.309284,97.4348195 127.691538,95.141298 C127.921973,93.7586846 128,92.6663123 128,92 L128,20 C128,11.3393475 124.174585,5.60122429 117.894427,2.46114562 C115.731689,1.3797767 113.434819,0.690715735 111.141298,0.308462152 C109.758685,0.0780265967 108.666312,0 108,0 L20,0 C11.3393475,0 5.60122429,3.82541547 2.46114562,10.1055728 C1.3797767,12.2683106 0.690715735,14.5651805 0.308462152,16.858702 C0.0780265967,18.2413154 0,19.3336877 0,20 Z" id="Shape"></path>
                <path d="M110,102 C113.410653,102 115.773776,100.424585 117.038854,97.8944272 C117.76516,96.4418167 118,95.0327745 118,94 L118,18 C118,14.5893475 116.424585,12.2262243 113.894427,10.9611456 C112.441817,10.2348404 111.032775,10 110,10 L18,10 C14.5893475,10 12.2262243,11.5754155 10.9611456,14.1055728 C10.2348404,15.5581833 10,16.9672255 10,18 L10,94 C10,97.4106525 11.5754155,99.7737757 14.1055728,101.038854 C15.5581833,101.76516 16.9672255,102 18,102 L110,102 Z M110,98 L18,98 C17.9163123,98 17.6961846,97.9842766 17.391298,97.9334622 C16.8723195,97.8469657 16.3566894,97.6922767 15.8944272,97.4611456 C14.6745845,96.8512243 14,95.8393475 14,94 L14,18 C14,17.9163123 14.0157234,17.6961846 14.0665378,17.391298 C14.1530343,16.8723195 14.3077233,16.3566894 14.5388544,15.8944272 C15.1487757,14.6745845 16.1606525,14 18,14 L110,14 C110.083688,14 110.303815,14.0157234 110.608702,14.0665378 C111.127681,14.1530343 111.643311,14.3077233 112.105573,14.5388544 C113.325415,15.1487757 114,16.1606525 114,18 L114,94 C114,94.0836877 113.984277,94.3038154 113.933462,94.608702 C113.846966,95.1276805 113.692277,95.6433106 113.461146,96.1055728 C112.851224,97.3254155 111.839347,98 110,98 Z" id="Shape"></path>
                <polygon id="Shape" points="63.9618801 94.5943495 88.5808767 31.5697182 92.059715 45.4850713 95.940285 44.5149287 89.4191233 18.4302818 64.0381199 83.4056505 46.1772844 35.7767559 34.7121735 61 12 61 12 65 37.2878265 65 45.8227156 46.2232441"></polygon>
                <path d="M96,61 C100.970563,61 105,56.9705627 105,52 C105,47.0294373 100.970563,43 96,43 C91.0294373,43 87,47.0294373 87,52 C87,56.9705627 91.0294373,61 96,61 Z M96,57 C93.2385763,57 91,54.7614237 91,52 C91,49.2385763 93.2385763,47 96,47 C98.7614237,47 101,49.2385763 101,52 C101,54.7614237 98.7614237,57 96,57 Z" id="Oval"></path>
            </g>
        </g>
    </g>
</svg>
