<?xml version="1.0" encoding="UTF-8"?>
<svg width="63px" height="61px" viewBox="0 0 63 61" version="1.1" xmlns="http://www.w3.org/2000/svg" xmlns:xlink="http://www.w3.org/1999/xlink">
    <!-- Generator: Sketch 41.2 (35397) - http://www.bohemiancoding.com/sketch -->
    <title>icon-industries-restaurants</title>
    <desc>Created with Sketch.</desc>
    <defs></defs>
    <g id="Page-1" stroke="none" stroke-width="1" fill="none" fill-rule="evenodd">
        <g id="icon-industries-restaurants" fill="#3F4B57">
            <g id="Created-with-Sketch.">
                <g id="Page-1">
                    <path d="M61.477,10.828 L60.676,10.016 C60.129,9.461 59.547,9.344 59.156,9.344 C58.27,9.344 57.66,9.922 57.547,10.035 L48.219,19.469 L47.566,18.809 L56.906,9.359 C58.047,8.203 57.543,6.852 56.926,6.223 L56.125,5.41 C55.578,4.855 54.996,4.738 54.609,4.738 C54.609,4.738 54.609,4.738 54.605,4.738 C53.719,4.738 53.105,5.312 52.992,5.43 L43.668,14.867 L43.016,14.207 L52.359,4.754 C53.5,3.598 53,2.246 52.379,1.617 L51.578,0.805 C51.031,0.25 50.449,0.133 50.059,0.133 C49.172,0.133 48.559,0.707 48.445,0.824 L37.145,12.262 C36.363,13.051 35.492,13.934 35.398,14.031 C32.777,16.684 32.02,20.641 33.465,24.121 C33.68,24.637 34.27,24.883 34.789,24.668 C35.305,24.453 35.551,23.859 35.336,23.344 C34.203,20.617 34.797,17.523 36.844,15.449 C36.941,15.348 37.809,14.469 38.586,13.684 L49.887,2.246 C49.895,2.238 50.008,2.16 50.047,2.152 C50.055,2.156 50.09,2.176 50.137,2.223 L50.922,3.016 C51.062,3.176 51.02,3.223 50.922,3.324 L40.875,13.496 C40.484,13.891 40.484,14.527 40.875,14.918 L42.949,17.016 C43.332,17.402 44.008,17.402 44.387,17.016 L54.43,6.852 C54.438,6.844 54.551,6.766 54.59,6.758 C54.598,6.762 54.633,6.781 54.68,6.828 L55.465,7.621 C55.605,7.781 55.562,7.824 55.461,7.93 L45.426,18.098 C45.035,18.492 45.035,19.125 45.426,19.52 L47.5,21.617 C47.691,21.809 47.949,21.918 48.223,21.918 C48.492,21.918 48.754,21.809 48.941,21.617 L58.988,11.449 C58.996,11.441 59.109,11.363 59.148,11.359 C59.156,11.363 59.191,11.383 59.242,11.434 L60.027,12.227 C60.168,12.387 60.125,12.43 60.023,12.535 L46.969,25.746 C44.945,27.797 41.918,28.395 39.25,27.289 L38.57,26.906 C38.172,26.684 37.672,26.75 37.352,27.074 L6.562,58.23 L4.715,56.359 L31.023,29.375 C31.406,28.98 31.406,28.352 31.023,27.961 L4.168,0.602 C3.949,0.383 3.648,0.273 3.336,0.305 C3.027,0.34 2.754,0.512 2.586,0.773 C2.531,0.859 -2.73,9.5 5.398,17.75 L20.859,33.43 L22.301,32.008 L6.84,16.324 C1.453,10.859 2.758,5.387 3.719,3.035 L28.883,28.672 L2.57,55.656 C2.184,56.051 2.188,56.684 2.574,57.074 L5.844,60.383 C6.035,60.574 6.293,60.684 6.562,60.684 C6.832,60.684 7.094,60.574 7.281,60.383 L38.25,29.047 L38.305,29.078 C38.336,29.098 38.371,29.113 38.406,29.129 C41.859,30.594 45.785,29.824 48.41,27.168 L61.457,13.965 C62.598,12.805 62.094,11.453 61.477,10.828 Z" id="Fill-1"></path>
                    <path d="M36.449,33.969 C36.055,33.57 35.414,33.566 35.016,33.961 C34.617,34.352 34.613,34.996 35.008,35.391 L56.016,56.668 L54.293,58.414 L33.301,37.152 C32.906,36.758 32.266,36.75 31.867,37.145 C31.469,37.539 31.465,38.18 31.859,38.578 L53.574,60.566 C53.766,60.758 54.023,60.867 54.297,60.867 C54.566,60.867 54.828,60.758 55.02,60.566 L58.164,57.383 C58.555,56.988 58.555,56.355 58.164,55.961 L36.449,33.969 Z" id="Fill-2"></path>
                </g>
            </g>
        </g>
    </g>
</svg>