<?xml version="1.0" encoding="UTF-8"?>
<svg width="75px" height="57px" viewBox="0 0 75 57" version="1.1" xmlns="http://www.w3.org/2000/svg" xmlns:xlink="http://www.w3.org/1999/xlink">
    <!-- Generator: Sketch 41.2 (35397) - http://www.bohemiancoding.com/sketch -->
    <title>icon-marketing-downtime</title>
    <desc>Created with Sketch.</desc>
    <defs></defs>
    <g id="Page-1" stroke="none" stroke-width="1" fill="none" fill-rule="evenodd">
        <g id="icon-marketing-downtime" fill="#314355">
            <g id="marketing_downtime">
                <path d="M16.25,6.980312 L17.45,6.980312 C20,6.980312 20,6.980312 20,9.480312 C20,11.980312 20,11.980312 17.45,11.980312 L16.25,11.980312 C10.25,11.980312 5,17.230312 5,23.230312 C5,28.330312 8.65,32.030312 15.45,33.380312 C12.9,43.280312 21.35,51.980312 31.25,51.980312 C40,51.980312 46.95,45.630312 48,36.480312 C49,37.480312 52,39.480312 56.25,39.480312 C63.5,39.480312 70,32.980312 70,25.730312 C70,18.480312 63.5,11.980312 56.25,11.980312 L55.05,11.980312 C52.5,11.980312 52.5,11.980312 52.5,9.480312 C52.5,6.980312 52.5,6.980312 55.05,6.980312 L56.25,6.980312 C66.25,6.980312 75,15.730312 75,25.730312 C75,35.730312 66.25,44.480312 56.25,44.480312 C55,44.480312 52.5,43.980312 51.25,43.230312 C47.5,51.980312 40,56.980312 31.25,56.980312 C20,56.980312 10,48.230312 10,36.980312 C3.75,34.480312 0,29.480312 0,23.230312 C0,14.480312 7.5,6.980312 16.25,6.980312 Z M35.5,0.0303119958 C35.9,0.130311996 36.35,0.580311996 37.1,1.380312 C37.55,1.830312 37.9,2.180312 38.15,2.480312 L53.75,19.030312 C55.5,20.880312 55.5,20.830312 53.75,22.580312 C52,24.330312 51.95,24.430312 50.2,22.580312 L35.4,6.880312 L28.95,14.080312 C27.25,15.980312 27.15,15.830312 25.4,14.080312 C23.65,12.330312 23.7,12.430312 25.4,10.530312 L32.35,2.730312 C32.55,2.380312 32.95,1.980312 33.55,1.380312 C34.55,0.280311996 35,-0.119688004 35.5,0.0303119958 Z" id="Shape" transform="translate(37.500000, 28.490156) scale(1, -1) translate(-37.500000, -28.490156) "></path>
            </g>
        </g>
    </g>
</svg>