<?xml version="1.0" encoding="UTF-8"?>
<svg width="51px" height="57px" viewBox="0 0 51 57" version="1.1" xmlns="http://www.w3.org/2000/svg" xmlns:xlink="http://www.w3.org/1999/xlink">
    <!-- Generator: sketchtool 41.2 (35397) - http://www.bohemiancoding.com/sketch -->
    <title>F97193AA-FEC6-4B17-BD80-D330D77DCCD1</title>
    <desc>Created with sketchtool.</desc>
    <defs></defs>
    <g id="Symbols" stroke="none" stroke-width="1" fill="none" fill-rule="evenodd">
        <g id="elements/icons/doodle-book" transform="translate(-6.000000, -3.000000)" fill="#3F4B57">
            <g transform="translate(6.000000, 3.000000)" id="Shape">
                <path d="M50.9838698,19.6030711 C50.8027791,16.0834755 50.6216884,12.376892 50.72271,8.82638303 C50.7533907,7.74215456 50.7623704,6.65641812 50.7279482,5.57218965 C50.7025057,4.76995106 50.6269265,3.83727331 50.2677384,3.11043308 C49.9931091,2.55550113 49.5396341,2.26823336 48.884864,2.35569546 C48.5346556,2.40244245 48.1994133,2.50800016 47.8581846,2.59470827 C47.5506297,2.67312257 47.3463414,2.82995117 47.0313035,2.9068575 C45.9806782,3.16396592 44.9188282,3.59826049 44.0028984,4.13057294 C43.1655411,4.63121808 42.3311769,5.16202256 41.4758601,5.60008705 C40.2396543,6.21307574 38.8709977,6.67451373 37.6737039,7.43302127 C37.0541044,7.82509276 36.3095373,8.27295904 35.5806846,8.4222478 C34.9079552,8.5602268 34.3100566,9.01035503 33.6388237,9.18075534 C33.1853487,9.29686882 32.6981998,9.64219332 32.2484663,9.75604485 C31.872067,9.85180077 31.5547841,10.1074012 31.173895,10.2039111 C30.5355878,10.3660176 29.9025187,10.5545135 29.2574766,10.6879686 C27.1786752,11.1184933 25.3400809,10.5567755 23.4049547,9.84350695 C23.0973999,9.73040941 22.8586894,9.75981477 22.6327002,9.51175415 C22.4897732,9.35417157 22.0782035,9.22976427 21.8754118,9.13551632 C21.2827514,8.85428042 20.6915876,8.45391511 20.1026687,8.29105465 C19.4987836,8.12442426 18.9936753,7.82056886 18.4578863,7.54838076 C18.0508064,7.34103526 17.5112758,6.9248363 17.0368482,6.81927859 C16.8931729,6.78761128 16.4501742,6.56443212 16.3723501,6.4686762 C16.2675869,6.34049898 15.8911876,6.28922809 15.7370361,6.21382973 C15.5282579,6.11430389 15.312745,5.93108586 15.1039669,5.83231401 C14.970768,5.76897938 14.4409655,5.70413679 14.3885839,5.54730819 C14.3608965,5.46361601 13.911163,5.37916984 13.8266041,5.32714497 C13.5317705,5.1461889 13.1853036,4.97805055 12.8889734,4.81594407 C12.3322317,4.5151046 11.7395713,4.29192544 11.1798364,3.99033198 C10.2242463,3.46857531 9.40709324,3.02297098 8.45823788,2.46502309 C8.03245026,2.21319255 7.56550567,2.02318868 7.12924173,1.76608026 C6.70869227,1.52329753 6.34052442,1.19079074 5.92596143,0.939714193 C5.20758513,0.505419618 2.30489591,-0.868338567 2.19489454,0.818322827 C1.92999328,1.1696792 1.80128419,1.56325866 1.57230175,1.91461503 C1.47726655,2.06088786 1.30291063,2.38208489 1.27671983,2.54946926 C1.20563051,3.00336741 0.863653461,3.42635223 0.744672387,3.87874241 C0.596507275,4.44196818 0.558343534,5.02932144 0.534397658,5.60913485 C0.461063411,7.34932908 0.618956535,9.19960493 0.186434139,10.8892823 C-0.00513287372,11.6945368 0.126569447,12.6430482 0.169971349,13.4573505 C0.220108028,14.3900283 0.104868497,15.2081005 0.0517385832,16.1256986 C-0.0732289602,18.3167751 0.0622149042,20.4754302 0.10337188,22.6604748 C0.113099892,23.1724297 0.127317756,23.6851385 0.165481497,24.1963395 C0.188679065,24.5077347 0.314394917,24.8470273 0.229087732,25.1508827 C-0.0365618367,26.0926083 0.160243336,27.2152899 0.193168917,28.2128103 C0.223849571,29.1507659 0.220108028,30.0902295 0.281469337,31.0251692 C0.335347559,31.865107 0.597255584,33.0526312 0.412423349,33.8284804 C0.328612781,34.1670191 0.394463942,34.5779401 0.476777892,34.9119549 C0.575554633,35.3077963 0.418409818,35.7511387 0.404191954,36.151504 C0.361538361,37.3427981 0.378001152,38.5348463 0.369769756,39.7268944 C0.366776522,40.158173 0.296435509,40.6098092 0.297183818,41.0297781 C0.291197349,41.5530428 0.226094497,42.0981729 0.235822509,42.6229455 C0.251536991,43.2992689 0.332354324,44.4347682 0.829231263,44.9482311 C1.21610683,45.3478424 1.56032881,45.7210643 2.01230723,45.9977763 C2.24278629,46.1402792 2.71197581,46.5828676 2.9619109,46.6024712 C3.21708414,46.6228287 3.39069175,47.0013285 3.65783793,47.0149002 C3.80001658,47.0224401 4.43982047,47.3986779 4.54233875,47.5223312 C4.58274742,47.5713401 4.99356886,47.7884874 5.04969201,47.7786856 C5.16418323,47.7575741 5.97160826,48.3027043 6.0621536,48.4120319 C6.32106839,48.7226732 6.90923899,48.9692258 7.2654339,49.1758173 C7.74809298,49.4555452 8.20530956,49.7330112 8.65803629,50.0021834 C9.56573467,50.5367578 10.463705,51.078872 11.3811314,51.5644375 C11.7418162,51.7551953 12.0980111,51.9467072 12.4571993,52.1359571 C12.5941397,52.2083395 13.0678191,52.3274689 13.132922,52.4503683 C13.1733306,52.5265206 13.8423186,52.878631 13.9762658,52.8937106 C14.0877638,52.9065284 14.4768843,53.0980402 14.5427355,53.1772085 C14.7328059,53.4049115 15.3015204,53.5474144 15.576898,53.6725757 C16.1074488,53.9138505 16.7158238,54.2478652 17.2658306,54.3850903 C17.9393084,54.5547366 18.6180243,54.8224008 19.2907538,55.0191905 C20.1071585,55.2582033 20.8651952,55.7754361 21.6943212,55.9443284 C22.3169139,56.0709977 22.9454932,56.4472355 23.5381537,56.6832324 C24.1906788,56.9433567 24.8768778,57.0157392 25.5885193,56.9863338 C26.2739701,56.9576824 26.9414614,57.0979234 27.6067077,56.8468468 C28.2068513,56.6206517 28.962643,56.6824784 29.6046918,56.5588251 C30.7728016,56.333384 31.852611,55.8116273 32.9803121,55.592972 C33.2826288,55.5341613 33.6478034,55.4700727 33.7735193,55.3155061 C33.7967168,55.2868547 34.1940687,55.1179624 34.2127764,55.1202243 C34.4836642,55.1541536 34.7500621,54.7741458 34.9094518,54.8020432 C34.9296561,54.8058131 35.3479607,54.5238233 35.3546954,54.581126 C35.3427225,54.4793382 36.1172219,54.305922 36.17559,54.2915963 C36.740563,54.1490934 37.2681206,53.9130965 37.8196241,53.7796414 C38.3501749,53.6507102 38.9727677,53.4569364 39.4756311,53.2247094 C39.9545487,53.0037922 40.4648952,52.8416858 40.9191185,52.5958871 C41.3501443,52.3629062 41.7407614,52.2543325 42.2114475,52.1269093 C42.4052595,52.0748844 42.7839036,51.7084484 42.9358103,51.7295599 C42.9844504,51.7363457 43.1722758,51.6360659 43.2239091,51.5689614 C43.4267008,51.3065751 43.8958903,51.3382424 44.0717428,51.078872 C44.1869824,50.9092257 45.0220948,50.0353587 45.2727782,50.0692879 C45.4074737,50.0873835 45.6274765,49.8265052 45.7808798,49.7526148 C46.1587756,49.5724127 46.5516377,49.3477256 46.9183089,49.1139907 C47.3740289,48.820691 47.8521981,48.4746125 48.5369005,48.2273059 C49.1542551,48.0041267 49.7760996,47.9694435 50.1734515,47.3851062 C50.3455625,47.1310137 50.6478792,46.8248963 50.6785598,46.5059613 C50.8349563,44.8494592 50.935978,43.2676015 50.8431877,41.5997897 C50.7930511,40.6987793 50.9240051,39.8038007 50.8663853,38.9020363 C50.7990375,37.8509831 50.8095138,36.8067158 50.7698535,35.7549086 C50.7324381,34.7596502 50.6044773,33.7757016 50.5872662,32.7766732 C50.5723,31.8824486 50.7848197,30.9957639 50.7481525,30.1196349 C50.6710767,28.3010264 50.8484259,26.427377 50.8633921,24.6012287 C50.8761133,22.9560364 51.0534625,21.1683412 50.9838698,19.6030711 C50.9718968,19.3663203 50.9861147,19.6505721 50.9838698,19.6030711 Z M24.7968088,15.8851778 C24.6239495,16.8668645 24.7474204,17.8960522 24.7361958,18.8965885 C24.7227262,20.0765729 24.6613649,21.2460015 24.7129982,22.4259859 C24.7504137,23.2779874 24.811775,24.1096313 24.6965354,24.9495691 C24.6463988,25.3144972 24.6254461,25.6809332 24.6187113,26.0481233 C24.6112282,26.4311469 24.8072851,26.8563937 24.7234745,27.2235838 C24.5019752,28.1939607 24.6224529,29.3053326 24.5326558,30.300591 C24.4653081,31.0492967 24.3508168,31.8017724 24.3029251,32.5519861 C24.2393189,33.5525224 24.336599,34.538733 24.3104082,35.5392693 C24.2969386,36.060272 24.2774826,36.5820286 24.2939454,37.1030313 C24.2999319,37.304345 24.1921754,38.4323045 24.2924488,38.5190126 C24.5551051,38.7452077 24.2804758,40.0910685 24.2774826,40.4514727 C24.2707478,41.174543 24.1121064,41.8131671 24.1652363,42.5588569 C24.324626,44.8012043 24.011833,47.0827587 23.9010833,49.326614 C23.8524433,50.3090547 24.0425137,51.3322105 23.953465,52.2973096 C23.9055732,52.8213282 23.8404703,53.1885182 23.2642727,53.0256578 C22.7554228,52.8824009 22.3161656,52.5694977 21.8170438,52.3998513 C21.6075174,52.3289769 19.8467471,51.9451992 19.8564751,51.8599991 C19.8684481,51.7544414 18.8043532,51.4272125 18.6299973,51.3751876 C18.3478849,51.2914954 17.7814153,50.9129956 17.5748821,50.9439089 C17.526242,50.9514488 16.8879347,50.6385456 16.8639889,50.5224321 C16.8475261,50.4417558 15.768465,49.9132133 15.6756747,49.927539 C15.5073053,49.9531744 14.6744378,49.5075701 14.485864,49.3537575 C14.3496718,49.2429219 13.9994634,49.0250206 13.9036799,49.0385923 C13.799665,49.052918 13.2863252,48.6427509 13.1336703,48.5545348 C12.7969314,48.361515 12.5035944,48.1519075 12.1975362,47.9551178 C12.020187,47.8420203 11.7208636,47.7417404 11.5016091,47.6376907 C11.3452126,47.5645543 11.1252099,47.3300654 10.9321463,47.3202636 C10.8655468,47.3164937 10.4300312,47.0073604 10.4262896,47.0329958 C10.4382625,46.9447797 8.99253025,46.0822225 8.82715404,46.0045621 C8.14918641,45.6841191 7.48468833,45.3161751 6.81794533,44.9542629 C6.4168519,44.7363617 5.8975257,44.5041347 5.56901821,44.2259147 C5.20833344,43.9205514 4.58050249,43.6280057 4.41213305,43.2525219 C4.34104373,43.1017251 4.34104373,42.8219972 4.30213168,42.6523509 C4.19213031,42.1735713 4.32907079,41.5801862 4.39641856,41.1044225 C4.54308706,40.0556313 4.45852818,39.0784685 4.46825619,38.0274153 C4.47274605,37.5124445 4.55880154,37.0027515 4.58499234,36.4885347 C4.61716961,35.8551884 4.48546729,35.2339059 4.44505863,34.6050835 C4.38294901,33.6399845 4.30961476,32.6190907 4.32907079,31.6539916 C4.33805049,31.1985855 4.46601127,30.7009563 4.36947945,30.2508281 C4.29988675,29.9273691 4.24975007,29.5752587 4.25798147,29.2442599 C4.28267565,28.2957485 4.2085931,27.351761 4.14423855,26.3964637 C4.07614247,25.3929115 4.17117766,24.3870973 4.11206128,23.4106885 C4.00729807,21.6795421 3.9923319,19.9981586 3.93695706,18.2413767 C3.92124258,17.7475174 3.89804501,17.2385785 3.92947397,16.7454732 C3.95341985,16.3993947 4.0709043,16.1151428 4.00430484,15.7705723 C3.92872566,15.3800088 4.05219659,14.908015 4.05743475,14.5114196 C4.06566614,13.8848592 4.05369321,13.2582988 4.04995166,12.6317384 C4.03723042,10.395423 4.27070271,8.16740133 4.22505589,5.92882391 C4.21008971,5.20952352 4.05144828,4.16525619 4.6680546,3.68119869 C5.16792478,3.68044471 5.77929294,4.42915046 6.18712115,4.69832262 C6.48270306,4.8928504 6.81570041,5.03912322 7.10754078,5.26004043 C7.37543527,5.46210804 7.68673167,5.60536493 7.95911601,5.77878117 C8.15068303,5.90092652 8.51436103,5.98688065 8.65803629,6.16029689 C8.8668144,6.41438938 9.60988488,6.71673681 9.92118128,6.79515111 C10.3207781,6.89166102 10.7952058,7.33877331 11.1873195,7.55818255 C12.2371965,8.14327385 13.4322454,8.59792599 14.5412388,9.14607209 C15.2648533,9.4959205 16.0632986,9.87668223 16.7562324,10.2891113 C17.0795018,10.4783612 17.4783503,10.7724148 17.8382867,10.8621388 C18.2678159,10.9692045 18.6382287,11.3710778 19.0984385,11.4947311 C19.3693262,11.5671135 19.5728662,11.7480696 19.8407606,11.8543813 C20.0929407,11.9546611 20.3301545,12.1145057 20.5538988,12.1944279 C20.8285281,12.2924458 21.1585322,12.4530443 21.4398962,12.4794337 C22.1582725,12.5472923 22.9484864,13.0961924 23.6541415,13.3367131 C24.0499968,13.4701682 24.6127249,13.5802499 24.9202797,13.9082327 C24.9502121,14.5340392 24.9060619,15.2714352 24.7968088,15.8851778 C24.7855842,15.9454965 24.8147682,15.7818821 24.7968088,15.8851778 Z M46.8576959,9.60600211 C46.7454496,10.4640355 46.8202805,11.2602422 46.8210288,12.1303393 C46.8217771,13.341237 46.7566742,14.5521348 46.7940897,15.7630325 C46.8113008,16.3232423 46.8689205,16.8826982 46.8704171,17.443662 C46.8704171,17.6887067 47.0170856,18.7216643 46.8419814,18.8596433 C46.6855849,18.9825426 46.7955863,19.8141866 46.7933414,20.0094683 C46.7881032,20.4603505 46.6721154,20.9202806 46.6885781,21.3636229 C46.7185105,22.1756633 46.5643589,23.155842 46.5538826,24.0206613 C46.5396647,25.2436227 46.5478961,26.4673382 46.550141,27.6910536 C46.5538826,29.9070115 46.4199353,32.1252314 46.550141,34.3366654 C46.6100057,35.3568052 46.5935429,36.379207 46.6047676,37.4008549 C46.6100057,37.9067779 46.6204821,38.4134549 46.6511627,38.9186239 C46.6758569,39.3189892 46.552386,40.1951182 46.7544293,40.529133 C46.8344983,40.6618341 46.702796,41.2250599 46.702796,41.4203416 C46.702796,41.9315425 46.7147689,42.4434974 46.6923197,42.9539444 C46.6608907,43.6800306 46.7738853,44.8208078 46.0914278,45.227205 C45.6267282,45.505425 45.0924358,45.641142 44.6217497,45.9284098 C44.1076616,46.242067 43.2231608,46.6635438 42.8946533,47.1709748 C42.733767,47.4190354 42.2398833,47.4250673 42.1111742,47.6889616 C41.9959346,47.9257125 41.1683053,48.3298477 40.9101388,48.4859223 C38.5791574,49.929047 35.700414,50.570687 33.1995665,51.5568976 C32.9458899,51.6586854 32.6952065,51.770275 32.4415299,51.8705548 C32.1609141,51.9821444 31.7755352,52.2588564 31.4941711,52.2912777 C31.2958694,52.3138972 31.0182468,52.46017 30.7982441,52.5159648 C30.5079004,52.5589419 30.1127934,52.7512077 29.8074835,52.8409318 C29.3884306,52.9645851 28.1020881,53.6197969 27.9890935,52.967601 C27.8543979,52.1909979 27.699498,50.9846241 27.9135143,50.2298864 C28.1574629,49.3695911 28.1020881,48.2966724 28.1484832,47.4032018 C28.1918851,46.564772 28.2023614,45.8341618 28.256988,45.0010099 C28.4044048,42.9162452 28.3804589,40.805845 28.5241341,38.7120324 C28.6670611,36.6332995 28.3452884,34.5432569 28.5061747,32.4584921 C28.569781,31.6321261 28.7950219,30.7733387 28.7179461,29.9492346 C28.6139312,28.8340928 28.8780841,27.7242289 28.8159745,26.5970233 C28.7920286,26.1574509 28.5802573,25.6809332 28.6071964,25.2466387 C28.6266524,24.9344894 28.6483534,24.5265843 28.628149,24.1654261 C28.5780124,23.2734635 28.5847471,22.4342797 28.6012099,21.5264834 C28.6101896,21.0258383 28.6333872,20.5161453 28.5787607,20.0170082 C28.5278757,19.5502923 28.6880137,18.9923444 28.5645428,18.55051 C28.4942018,18.2994334 28.6288974,17.8802185 28.6461085,17.5921968 C28.6648162,17.2868334 28.6580814,17.0108754 28.6625712,16.7296395 C28.6685577,16.3466158 28.5967201,15.9854577 28.5727742,15.6077119 C28.5533182,15.3038564 28.6550882,15.0738914 28.6565848,14.8001954 C28.6603263,14.2776847 29.0748893,14.266375 29.5231262,14.2535572 C29.8643549,14.2437555 30.2123184,14.1683571 30.5498056,14.0914508 C31.8810467,13.7883493 33.1030347,13.3947699 34.3220295,12.9989285 C36.0109621,12.4500284 37.5749272,11.54751 39.2601182,11.0340471 C39.9814878,10.8146379 40.5584337,10.2340705 41.1989859,9.9980736 C41.6674271,9.82541135 42.1268887,9.54115951 42.5474381,9.31345646 C43.2216642,8.94928236 43.9205845,8.64768891 44.5805927,8.20811645 C44.964475,7.95628591 45.3655685,7.8002113 45.7816281,7.56873832 C46.1640138,7.35686892 46.8172872,6.7174908 46.9078326,7.56119849 C46.9781736,8.23299791 46.945248,8.93646464 46.8576959,9.60600211 C46.8038177,10.0184312 46.9415065,8.9613461 46.8576959,9.60600211 Z"></path>
                <path d="M8.0983772,17.4082133 C11.5248115,18.0022469 14.8584132,19.0259359 18.298544,19.562504 C19.2496972,19.7108454 20.2198735,19.7643017 21.1573301,19.9727815 C21.6975851,20.0930582 22.4280707,19.7983801 22.7857043,19.4101534 C23.2696511,18.8909587 22.857231,18.4913725 22.3086059,18.1652888 C22.2066423,18.1064868 21.266142,17.7536749 21.2570109,17.7971082 C21.266142,17.7523385 17.6730657,16.8789954 17.4447889,16.8322211 C15.6170529,16.4546857 13.8387769,15.8907212 12.0072364,15.5385775 C11.2896864,15.4002592 10.5949641,15.2011344 9.84012892,15.0882078 C9.54793466,15.046111 9.32194066,14.99065 9.00920149,15.0013413 C8.83266746,15.0073551 8.58536763,14.9792905 8.41948651,15.0534612 C8.32665396,15.0948899 8.08391967,15.3481393 7.99108712,15.3488075 C7.8959718,15.5125176 7.52692436,15.5646375 7.37626169,15.7196609 C7.26136239,15.8379331 7.08482835,16.1479799 7.0795019,16.3050079 C7.07189267,16.5442251 6.90448971,16.593004 7.0795019,16.8676359 C7.31767066,17.240494 7.62736614,17.3286969 8.0983772,17.4082133 C8.13794517,17.4148953 7.76965865,17.3527523 8.0983772,17.4082133 Z"></path>
                <path d="M30.0251001,20.2743822 C30.2944751,21.6583711 32.1689692,20.6811992 33.131447,20.4385957 C34.9651267,19.976365 36.8077113,19.4384475 38.6220969,18.9140454 C40.2717408,18.4369477 41.8575658,17.8524015 43.464169,17.2685312 C44.2240589,16.994842 44.4919498,16.9279402 44.8585373,16.2251333 C45.1553693,15.65613 44.9935959,15.2074149 44.2923303,15.0499591 C43.3454362,14.8384413 42.3265603,15.3554098 41.4160282,15.5419239 C39.874728,15.858187 38.3586585,16.322445 36.8181005,16.7123677 C35.9431881,16.9340222 35.0378505,17.0962084 34.1755536,17.3543547 C33.4831929,17.5611422 32.7566966,17.6327744 32.0880825,17.9179518 C31.4113055,18.2058323 30.8948179,18.3761278 30.3686831,18.8809324 C30.2447558,19.3701941 29.9056252,19.7391677 30.0251001,20.2743822 C30.0421679,20.3642604 30.0161951,20.2372145 30.0251001,20.2743822 Z"></path>
                <path d="M45.9879297,21.4653166 C46.1462861,20.9137235 44.6289572,21.0569331 44.5010539,21.0073606 C44.3449814,20.9467719 43.5905042,21.2780425 43.4428064,21.3496473 C42.914444,21.603805 42.2635076,21.6746229 41.769405,21.9555341 C41.4290908,22.1483162 41.0073145,22.1341526 40.6502511,22.2986076 C40.1774657,22.5173564 39.7031577,22.7243021 39.2197137,22.9170843 C37.5600162,23.5780517 35.8744335,24.1855123 34.2025547,24.8071364 C33.6117633,25.0227377 32.9067725,25.2296834 32.3266398,25.5554459 C32.0373347,25.7151797 31.7388937,25.9504526 31.4983137,26.1794306 C31.2181445,26.4461782 31.3483318,26.8285951 31.126785,27.1236698 C30.9189422,27.3998598 31.0141083,27.7570969 31.080344,28.0663353 C31.0925252,28.0923018 31.191498,28.4723581 31.1884527,28.4778662 C31.0369482,28.7454006 31.7084405,28.9672968 31.8591837,28.9916897 C32.2200537,29.0514915 32.5915823,28.7729409 32.9159085,28.654911 C34.6250924,28.0293526 36.2825059,27.245634 37.9802699,26.5830929 C39.7046804,25.9103225 41.4747706,25.261158 43.1154349,24.3885237 C43.3940813,24.2405929 45.4412953,23.3868433 45.4374887,23.1720289 C45.4352047,23.0122951 45.7937907,22.6298782 45.8455611,22.4520465 C45.9529085,22.1176285 45.8980928,21.7761286 45.9879297,21.4653166 C46.0267574,21.3291887 45.9567152,21.5723303 45.9879297,21.4653166 Z"></path>
                <path d="M30.1625974,34.5318314 C30.5067673,35.5922778 32.7423882,34.5515322 33.5672092,34.3239541 C35.3970953,33.8205648 37.3367598,33.3762778 39.1176907,32.7458523 C39.845343,32.4883833 40.6011817,32.3226249 41.3280922,32.0671939 C42.2070606,31.7580952 43.0482,31.3572858 43.9501625,31.1066102 C44.4701261,30.9625906 44.9099812,30.3695287 44.9871227,29.8661393 C45.0939341,29.1908776 44.5198231,29.0332712 43.8752462,29.0020216 C43.6119266,28.9931903 43.5258841,29.0135704 43.2825916,29.0577273 C43.1920986,29.0733521 42.8568297,29.2207684 42.800457,29.1935949 C42.6469157,29.1419652 41.3466359,29.4510639 41.1270792,29.5719861 C40.9831806,29.6514686 40.6338185,29.6969842 40.4676675,29.716685 C39.9655058,29.7757874 39.5301012,29.9422252 39.0509336,30.0828481 C38.1474876,30.3491485 37.2343989,30.5882754 36.3183432,30.8158536 C34.745101,31.2071522 33.2030122,31.530517 31.7024611,32.0692319 C31.4346909,32.1670565 31.2143925,32.2234416 30.9592321,32.3762926 C30.8153335,32.4625685 30.5928098,32.5522411 30.4963829,32.692864 C30.4429772,32.7709878 30.3843793,33.1045427 30.3079796,33.1480203 C30.324298,33.3579357 30.0149901,33.557661 30.0016387,33.7995053 C29.986062,34.0895825 30.0847142,34.2743624 30.1625974,34.5318314 Z"></path>
                <path d="M44.3305376,38.0754499 C43.4024887,37.8083227 42.3745865,38.3236009 41.464893,38.4885483 C39.927445,38.7666233 38.4076182,39.2052666 36.866499,39.5628959 C35.3723698,39.9095774 33.812161,40.1307237 32.3738322,40.5825044 C31.8473994,40.7474518 30.8547395,40.9744369 30.5192029,41.454682 C30.3606122,41.6867761 30.3738281,41.9750691 30.1689819,42.1838079 C29.9090695,42.4487455 30.1520949,42.8538154 30.005986,43.0742319 C29.9780858,43.1158337 30.0559127,43.4464583 30.0713312,43.4938989 C30.1638424,43.766865 30.5147976,44.0099069 30.8261051,43.999689 C31.4883678,43.9777933 32.1976203,43.6405999 32.8385908,43.4829511 C34.6609146,43.0348197 36.4744278,42.5385178 38.2952831,42.0787087 C40.03978,41.6378758 41.7159949,41.0277164 43.4120335,40.4350735 C44.175618,40.1708658 44.4428726,40.1102877 44.8371465,39.3665647 C45.1557962,38.7651636 45.0170294,38.2739707 44.3305376,38.0754499 C44.2321526,38.0469856 44.6565294,38.1696013 44.3305376,38.0754499 Z"></path>
                <path d="M20.3965132,41.1149201 C20.1921692,40.9646656 20.1091318,40.9364488 19.8889023,40.842628 C19.8008105,40.8052407 19.456386,40.7579776 19.4195607,40.6980169 C19.376959,40.5992581 18.0613585,40.1294485 17.8512379,40.1167509 C17.6873294,40.106875 17.3804522,39.957326 17.2360394,39.8839623 C16.7977466,39.6631659 16.3486228,39.569345 15.8800034,39.4317882 C14.995475,39.1714882 14.1196115,38.8815606 13.2488024,38.5810517 C11.7526859,38.0653898 10.3215552,37.5059918 8.79439,37.1568089 C8.52000571,37.0961428 8.31060717,37.02419 8.01383889,37.0171358 C7.84632006,37.0136087 7.61453754,36.9698726 7.45207315,37.0375929 C7.35964897,37.0756856 7.11559136,37.3289314 7.02605543,37.3246989 C6.92496648,37.4918834 6.57187722,37.5250381 6.41879967,37.6802305 C6.30182531,37.798741 6.11481075,38.1140637 6.09892535,38.2798374 C6.07509724,38.5316723 5.91407698,38.5732921 6.06137802,38.8723902 C6.22456447,39.2032321 6.39858188,39.3238589 6.75961384,39.4367261 C7.41091551,39.639887 8.07521433,39.8056607 8.72362774,40.0236355 C10.4789652,40.6140719 12.2992883,41.1896946 14.0878407,41.6820777 C14.8914978,41.9028741 15.695155,42.1652903 16.5060328,42.3571646 C17.3970597,42.5680851 18.3119147,42.6802469 19.1863341,42.9539498 C19.6903347,43.1119639 20.4015677,42.8431989 20.766932,42.4545125 C21.2586576,41.9339126 20.8940153,41.4902035 20.3965132,41.1149201 C20.3510232,41.0810599 20.506267,41.1974542 20.3965132,41.1149201 Z"></path>
                <path d="M22.7310955,26.0987656 C21.6625785,25.4898841 20.2268762,25.0727417 18.9638786,24.7690328 C18.2865756,24.6065669 17.5544575,24.3328629 16.8794071,24.3379857 C16.4731754,24.340913 15.9558119,24.1081915 15.5450749,24.0254949 C15.147103,23.9449937 14.6785475,23.8381467 14.2730667,23.7137358 C13.0528699,23.3090346 11.6502067,22.5369553 10.3166255,22.4169354 C8.91921857,22.2910608 6.96239835,21.3067512 6.12966096,22.8933559 C5.93593125,23.2621975 5.92316612,24.1938155 6.34366471,24.4082413 C7.03448382,24.7617145 7.78462327,24.9658948 8.52500114,25.0661553 C10.4127395,25.3215635 12.169072,26.0460739 14.0207675,26.4522389 C15.2199394,26.7149654 16.3139866,27.1343032 17.523671,27.3033556 C18.4247394,27.429962 19.2687401,27.7014705 20.1502854,27.8595455 C20.9657523,28.0051794 22.0124934,28.1808183 22.6905474,27.5690095 C23.0141811,27.2777416 23.1666119,26.3607603 22.7310955,26.0987656 C22.6988072,26.0804699 22.7446115,26.1068157 22.7310955,26.0987656 Z"></path>
                <path d="M21.4589482,32.9543489 C20.396515,32.4251305 19.1660589,32.1183999 18.0104427,31.7130259 C16.9450746,31.3112519 15.8687007,30.9260386 14.7372974,30.6610694 C13.94194,30.4745829 13.1517186,30.3046571 12.3636984,30.0893696 C11.6285064,29.8899227 10.9043203,29.6127131 10.2241576,29.5018292 C9.7281598,29.4204664 9.18813852,29.4010258 8.71782108,29.2116592 C8.41185793,29.0885349 8.21888837,28.9726109 7.88944604,29.0057321 C7.61870168,29.032373 7.2789872,29.061174 7.09115372,29.2843817 C6.91579354,29.4924689 6.53645794,29.52487 6.32147665,29.7214369 C6.00230646,30.014487 6.03459034,30.3348981 6.00304019,30.6992307 C5.92820028,31.4782977 7.25550802,31.5459801 7.73316271,31.6899851 C8.42506498,31.8937521 9.1874048,32.1709617 9.92406426,32.3617683 C10.2469031,32.4452912 10.6277061,32.555455 10.9101901,32.6454582 C11.3555609,32.7657023 11.8875112,32.7441016 12.3123377,32.9111474 C13.1392453,33.2531592 14.0549336,33.3114812 14.9170599,33.5670901 C15.5069745,33.7420561 16.0888181,33.9623838 16.6919397,34.1315896 C17.4491434,34.343997 18.1718621,34.5535243 18.9195274,34.7536912 C19.6136309,34.9394576 20.6613896,35.1777859 21.3202742,34.7976127 C22.0539988,34.3756781 22.3269443,33.3878039 21.4589482,32.9543489 C21.2725821,32.8614656 21.8500233,33.1494756 21.4589482,32.9543489 Z"></path>
            </g>
        </g>
    </g>
</svg>