<svg xmlns="http://www.w3.org/2000/svg" xmlns:xlink="http://www.w3.org/1999/xlink" version="1.1" x="0px" y="0px" viewBox="0 0 100 125" enable-background="new 0 0 100 100" xml:space="preserve"><path fill="#ffffff" d="M72,63.5c0.3-0.3,0-2.2,0-2.7c0-0.1,0-0.3,0-0.5c0.1-0.7,0.2-2.1,0-2.3c-3.6-2.8-7.2-5.7-10.7-8.5c0-0.1-0.1-0.3-0.1-0.3  c-0.4-0.5-0.6-0.6-1.2-0.7c0,0,0,0,0,0c0,0,0,0,0,0c0,0.7,0,1.4,0,2.2c-0.1,1.4-0.3,2.9,0,3.1c2.3,1.8,4.5,3.6,6.8,5.4  c-9,0.7-18.5,0.6-26.3-4.5c-4.1-2.7-7.1-6.8-9.2-11.2c-1.1-2.4-2-4.9-2.5-7.5c-0.1-0.3-0.3-2.6-0.5-3.7c0.1-0.7,0.2-1.3,0.3-2  c0.3-1.7-0.3-3.6,0-5.3c-1.9,10.9,0.2,23.4,7.9,31.7c7.7,8.3,19.4,8.7,30.1,7.9c-1.3,1.7-2.6,3.4-3.8,5.2c-0.3,0.5,0,2.1,0,2.7  c0,0.6,0.3,2.2,0,2.7C65.5,70.9,68.6,67.1,72,63.5z M28.2,31.9c0-0.2-0.1-0.4-0.1-0.4C28.1,31.6,28.2,31.7,28.2,31.9z M28.1,32.8  C28.1,32.8,28.1,32.8,28.1,32.8C28.1,33.8,28,34.8,28.1,32.8z"/></svg>
