<?xml version="1.0" encoding="UTF-8"?>
<svg width="53px" height="66px" viewBox="0 0 53 66" version="1.1" xmlns="http://www.w3.org/2000/svg" xmlns:xlink="http://www.w3.org/1999/xlink">
    <!-- Generator: Sketch 41.2 (35397) - http://www.bohemiancoding.com/sketch -->
    <title>icon-industries-school</title>
    <desc>Created with Sketch.</desc>
    <defs></defs>
    <g id="Page-1" stroke="none" stroke-width="1" fill="none" fill-rule="evenodd">
        <g id="icon-industries-school" fill="#3F4B57">
            <g id="Created-with-Sketch.">
                <path d="M8.25,-4.79616347e-14 C3.809,-4.79616347e-14 0,3.809 0,8.25 L0,59.25 C0,62.965 3.035,66 6.75,66 L51,66 C51.785,66 52.5,65.285 52.5,64.5 L52.5,15 C52.512,14.152 51.887,13.484 51,13.5 C48.379,13.5 45.75,10.871 45.75,8.25 C45.75,5.629 48.379,3 51,3 C51.793,3.012 52.5,2.293 52.5,1.5 C52.5,0.707 51.793,-0.012 51,-4.79616347e-14 L8.25,-4.79616347e-14 Z M8.25,3 L44.719,3 C43.5,4.441 42.75,6.281 42.75,8.25 C42.75,10.219 43.5,12.059 44.719,13.5 L8.25,13.5 C5.629,13.5 3,10.871 3,8.25 C3,5.629 5.629,3 8.25,3 Z M3,14.531 C4.441,15.75 6.281,16.5 8.25,16.5 L49.5,16.5 L49.5,63 L6.75,63 C4.648,63 3,61.352 3,59.25 L3,14.531 Z M12,26.25 C11.172,26.25 10.5,26.922 10.5,27.75 C10.5,28.578 11.172,29.25 12,29.25 L40.5,29.25 C41.328,29.25 42,28.578 42,27.75 C42,26.922 41.328,26.25 40.5,26.25 L12,26.25 Z M12,38.25 C11.172,38.25 10.5,38.922 10.5,39.75 C10.5,40.578 11.172,41.25 12,41.25 L40.5,41.25 C41.328,41.25 42,40.578 42,39.75 C42,38.922 41.328,38.25 40.5,38.25 L12,38.25 Z M12,50.25 C11.172,50.25 10.5,50.922 10.5,51.75 C10.5,52.578 11.172,53.25 12,53.25 L40.5,53.25 C41.328,53.25 42,52.578 42,51.75 C42,50.922 41.328,50.25 40.5,50.25 L12,50.25 Z" id="Page-1"></path>
            </g>
        </g>
    </g>
</svg>