<?xml version="1.0" encoding="UTF-8"?>
<svg width="32px" height="33px" viewBox="0 0 32 33" version="1.1" xmlns="http://www.w3.org/2000/svg" xmlns:xlink="http://www.w3.org/1999/xlink">
    <!-- Generator: Sketch 41.2 (35397) - http://www.bohemiancoding.com/sketch -->
    <title>icon-calendar</title>
    <desc>Created with Sketch.</desc>
    <defs></defs>
    <g id="Page-1" stroke="none" stroke-width="1" fill="none" fill-rule="evenodd">
        <g id="icon-calendar" fill="#FF3B30">
            <path d="M28.75,1.25 L27.627,1.25 C27.656,1.157 27.686,1.064 27.686,0.961 C27.686,0.431 27.254,0 26.723,0 C26.192,0 25.762,0.431 25.762,0.961 C25.762,1.064 25.79,1.157 25.821,1.25 L22.141,1.25 C22.17,1.157 22.2,1.064 22.2,0.961 C22.198,0.431 21.768,0 21.236,0 C20.706,0 20.275,0.431 20.275,0.961 C20.275,1.064 20.304,1.157 20.334,1.25 L16.652,1.25 C16.681,1.157 16.711,1.064 16.711,0.961 C16.711,0.431 16.281,0 15.75,0 C15.219,0 14.789,0.431 14.789,0.961 C14.789,1.064 14.817,1.157 14.847,1.25 L11.166,1.25 C11.195,1.157 11.225,1.064 11.225,0.961 C11.225,0.431 10.794,0 10.264,0 C9.733,0 9.302,0.431 9.302,0.961 C9.302,1.064 9.33,1.157 9.36,1.25 L5.68,1.25 C5.71,1.157 5.739,1.064 5.739,0.961 C5.739,0.43 5.309,0 4.778,0 C4.247,0 3.816,0.431 3.816,0.961 C3.816,1.064 3.844,1.157 3.874,1.25 L2.75,1.25 C1.232,1.25 0,2.483 0,4 L0,30 C0,31.518 1.232,32.75 2.75,32.75 L25.645,32.75 L31.5,26.895 L31.5,4 C31.5,2.483 30.268,1.25 28.75,1.25 Z M2.75,31.25 C2.061,31.25 1.5,30.689 1.5,30 L1.5,9 L30,9 L30,26.273 L29.689,26.584 L27.334,26.584 C26.232,26.584 25.334,27.484 25.334,28.584 L25.334,30.939 L25.023,31.25 L2.75,31.25 Z"></path>
        </g>
    </g>
</svg>