<?xml version="1.0" encoding="UTF-8"?>
<svg width="110px" height="85px" viewBox="0 0 110 85" version="1.1" xmlns="http://www.w3.org/2000/svg" xmlns:xlink="http://www.w3.org/1999/xlink">
    <!-- Generator: sketchtool 41.2 (35397) - http://www.bohemiancoding.com/sketch -->
    <title>2F1756D0-E60B-4724-B5A7-7E0E997107C9</title>
    <desc>Created with sketchtool.</desc>
    <defs></defs>
    <g id="Symbols" stroke="none" stroke-width="1" fill="none" fill-rule="evenodd">
        <g id="elements/icons/pricing-starter" transform="translate(-3.000000, -26.000000)" fill="#3F4B57">
            <g id="Starter-Icon" transform="translate(3.000000, 26.000000)">
                <path d="M15.9090122,34.1529753 C15.6783264,34.154643 15.4512694,34.092847 15.2505734,33.973774 L1.51553918,25.702943 C1.08692396,25.4682405 0.815733932,25.0064545 0.809187205,24.5001576 C0.802640477,23.9938606 1.06179099,23.5245605 1.48418061,23.2778005 C1.90657023,23.0310405 2.42419917,23.046546 2.83241686,23.3181868 L16.5674511,31.5890177 C17.075431,31.9044601 17.320632,32.5353603 17.1673016,33.132428 C17.0139712,33.7294958 16.49962,34.1466652 15.9090122,34.1529753 Z" id="Shape"></path>
                <path d="M108.617201,81.8067461 L100.439391,81.8067461 L100.439391,44.780993 L109.341484,44.780993 L109.341484,35.5314471 L26.5098776,35.5314471 L26.5098776,44.780993 L33.5420044,44.780993 L33.5420044,81.8067461 L22.1246749,81.8067461 L22.1246749,30.3759625 L6.954244,20.5750279 C6.65067244,20.3909398 6.28947586,20.3412615 5.95077839,20.437013 C5.61208092,20.5327645 5.3238852,20.7660293 5.15012158,21.0850625 C4.74513518,21.7858384 4.9569665,22.6974332 5.62419755,23.1252007 L19.4909195,32.0990523 L19.4909195,81.8067461 L6.22996128,81.8067461 C5.50266982,81.8067461 4.9130836,82.423909 4.9130836,83.185218 C4.9130836,83.9465269 5.50266982,84.5636898 6.22996128,84.5636898 L20.3732276,84.5636898 C20.6460383,84.6887815 20.9563874,84.6887815 21.2291981,84.5636898 L108.617201,84.5636898 C109.344492,84.5636898 109.934079,83.9465269 109.934079,83.185218 C109.934079,82.423909 109.344492,81.8067461 108.617201,81.8067461 Z M29.1436329,42.0240494 L29.1436329,38.2883908 L106.707728,38.2883908 L106.707728,42.0240494 L29.1436329,42.0240494 Z M42.5231102,81.8067461 L42.5231102,50.6946372 L52.6367307,50.6946372 L52.6367307,81.8067461 L42.5231102,81.8067461 Z M55.2704861,81.8067461 L55.2704861,47.9376935 L39.8893548,47.9376935 L39.8893548,81.8067461 L36.1757597,81.8067461 L36.1757597,44.780993 L97.8056352,44.780993 L97.8056352,81.8067461 L55.2704861,81.8067461 Z" id="Shape"></path>
                <path d="M58.7997183,47.9376935 L58.7997183,72.0609504 L95.0138545,72.0609504 L95.0138545,47.9376935 L58.7997183,47.9376935 Z M61.4334737,50.6946372 L85.8088795,50.6946372 L85.8088795,69.3040067 L61.4334737,69.3040067 L61.4334737,50.6946372 Z M92.3800992,69.3040067 L88.4294661,69.3040067 L88.4294661,50.6946372 L92.3800992,50.6946372 L92.3800992,69.3040067 Z" id="Shape"></path>
                <path d="M88.0739091,9.43697557 L74.0096555,9.43697557 C73.282364,9.43697557 72.6927778,8.81981271 72.6927778,8.05850375 C72.6927778,7.29719478 73.282364,6.68003193 74.0096555,6.68003193 L88.0739091,6.68003193 C88.8012006,6.68003193 89.3907868,7.29719478 89.3907868,8.05850375 C89.3907868,8.81981271 88.8012006,9.43697557 88.0739091,9.43697557 Z" id="Shape"></path>
                <path d="M79.8697612,18.3970424 L65.7923388,18.3970424 C65.0650473,18.3970424 64.4754611,17.7798795 64.4754611,17.0185706 C64.4754611,16.2572616 65.0650473,15.6400988 65.7923388,15.6400988 L79.8697612,15.6400988 C80.5970526,15.6400988 81.1866389,16.2572616 81.1866389,17.0185706 C81.1866389,17.7798795 80.5970526,18.3970424 79.8697612,18.3970424 Z" id="Shape"></path>
                <path d="M96.1332005,9.43697557 L93.038538,9.43697557 C92.3112465,9.43697557 91.7216603,8.81981271 91.7216603,8.05850375 C91.7216603,7.29719478 92.3112465,6.68003193 93.038538,6.68003193 L96.1200318,6.68003193 C96.8473232,6.67622538 97.4398574,7.29030242 97.4434938,8.05161139 C97.4471303,8.81292035 96.860492,9.43316902 96.1332005,9.43697557 L96.1332005,9.43697557 Z" id="Shape"></path>
                <path d="M67.1750603,27.5776647 L35.2407766,27.5776647 C34.5134851,27.5776647 33.9238989,26.9605019 33.9238989,26.1991929 C33.9238989,25.4378839 34.5134851,24.8207211 35.2407766,24.8207211 L67.1750603,24.8207211 C67.9023518,24.8207211 68.491938,25.4378839 68.491938,26.1991929 C68.491938,26.9605019 67.9023518,27.5776647 67.1750603,27.5776647 Z" id="Shape"></path>
                <path d="M56.8902457,18.3970424 L48.5412412,18.3970424 C47.8139497,18.3970424 47.2243635,17.7798795 47.2243635,17.0185706 C47.2243635,16.2572616 47.8139497,15.6400988 48.5412412,15.6400988 L56.8902457,15.6400988 C57.6175371,15.6400988 58.2071233,16.2572616 58.2071233,17.0185706 C58.2071233,17.7798795 57.6175371,18.3970424 56.8902457,18.3970424 Z" id="Shape"></path>
                <path d="M81.4236768,27.5776647 L78.3421831,27.5776647 C77.6148916,27.5776647 77.0253054,26.9605019 77.0253054,26.1991929 C77.0253054,25.4378839 77.6148916,24.8207211 78.3421831,24.8207211 L81.4236768,24.8207211 C82.1509683,24.8207211 82.7405545,25.4378839 82.7405545,26.1991929 C82.7405545,26.9605019 82.1509683,27.5776647 81.4236768,27.5776647 Z" id="Shape"></path>
                <path d="M29.670384,20.5750279 C25.084425,20.5908272 21.0411013,17.4303499 19.7530413,12.8231044 C18.4649813,8.21585887 20.2426119,3.27220711 24.1131602,0.697464225 C24.4941335,0.443194403 24.9730394,0.411125969 25.3818584,0.612509809 C25.7906774,0.813893648 26.0723231,1.22060901 26.127983,1.68996394 C26.2628178,2.84880423 26.555502,3.9814592 26.9971223,5.05343518 L26.9971223,5.05343518 C28.8436277,9.53922344 33.0634346,12.4442641 37.7296754,12.4420441 L37.7296754,12.4420441 C38.1809281,12.4433795 38.6001043,12.6864847 38.8404679,13.0862588 C39.0808314,13.4860328 39.1089065,13.9867986 38.9148653,14.4132588 C37.2225032,18.1578693 33.6277428,20.5539024 29.670384,20.5750279 Z M23.9683036,4.3917687 C22.0547198,6.52879244 21.4033901,9.58637372 22.2683554,12.3719511 C23.1333207,15.1575284 25.377583,17.2299066 28.1258031,17.7807872 C30.8740233,18.3316678 33.6909229,17.2737992 35.4778146,15.0197864 C30.6245292,14.2179913 26.5032341,10.8666589 24.5608986,6.14242792 L24.5608986,6.14242792 C24.3284288,5.57248576 24.1305048,4.98777376 23.9683036,4.3917687 L23.9683036,4.3917687 Z" id="Shape"></path>
            </g>
        </g>
    </g>
</svg>