<?xml version="1.0" encoding="utf-8"?>
<!-- Generator: Adobe Illustrator 19.0.0, SVG Export Plug-In . SVG Version: 6.00 Build 0)  -->
<svg version="1.1" id="Capa_1" xmlns="http://www.w3.org/2000/svg" xmlns:xlink="http://www.w3.org/1999/xlink" x="0px" y="0px"
	 viewBox="-275 367 60 60" style="enable-background:new -275 367 60 60;" xml:space="preserve">
<style type="text/css">
	.st0{fill:#FF3B30;}
</style>
<g>
	<path class="st0" d="M-229.4,396.2l-22-15c-0.3-0.2-0.7-0.2-1-0.1c-0.3,0.2-0.5,0.5-0.5,0.9v30c0,0.4,0.2,0.7,0.5,0.9
		c0.1,0.1,0.3,0.1,0.5,0.1c0.2,0,0.4-0.1,0.6-0.2l22-15c0.3-0.2,0.4-0.5,0.4-0.8S-229.2,396.4-229.4,396.2z M-251,410.1v-26.2
		l19.2,13.1L-251,410.1z"/>
	<path class="st0" d="M-245,367c-16.5,0-30,13.5-30,30s13.5,30,30,30s30-13.5,30-30S-228.5,367-245,367z M-245,425
		c-15.4,0-28-12.6-28-28s12.6-28,28-28s28,12.6,28,28S-229.6,425-245,425z"/>
</g>
</svg>
