<?xml version="1.0" encoding="UTF-8"?>
<svg width="61px" height="30px" viewBox="0 0 61 30" version="1.1" xmlns="http://www.w3.org/2000/svg" xmlns:xlink="http://www.w3.org/1999/xlink">
    <!-- Generator: sketchtool 41.2 (35397) - http://www.bohemiancoding.com/sketch -->
    <title>43EFBB05-2931-4C17-A727-D156AB50D451</title>
    <desc>Created with sketchtool.</desc>
    <defs></defs>
    <g id="Symbols" stroke="none" stroke-width="1" fill="none" fill-rule="evenodd">
        <g id="elements/icons/doodle-video" transform="translate(-1.000000, -16.000000)" fill="#3F4B57">
            <path d="M61.9418203,40.1139042 C61.8011338,38.7629286 61.8917128,37.3801539 61.6912827,36.0262875 C61.4918163,34.6261679 61.6064854,33.2154487 61.5457782,31.8085839 C61.4860347,30.4026827 61.3347485,28.9592009 61.2036981,27.5532997 C61.0793929,26.2235234 61.0630116,24.8879655 60.8278917,23.570716 C60.7190043,22.9607534 60.8201829,22.2274492 60.6158984,21.6550673 C60.3595792,20.9362172 60.1427679,20.4659774 60.1581856,19.6806385 C60.1649308,19.3192863 59.8401956,18.2872642 59.3564653,18.2622104 C59.0770196,18.2477564 58.684832,18.0299814 58.3321521,18.0232362 C58.1297949,18.0193817 56.8867431,17.9461477 56.7923097,18.1369417 C56.7778556,18.1658498 55.5415491,18.5378018 55.3661728,18.5753824 C54.8342623,18.6890879 54.6531044,18.8683186 54.1626289,19.1872722 C53.6548085,19.5168255 53.1142255,19.8386699 52.6661487,20.2472389 C52.4397013,20.4534505 52.0118602,21.0913577 51.7227784,21.1424288 C51.5204212,21.1780823 51.0540359,21.5519614 50.8497514,21.6830118 C50.4883991,21.9162045 50.0971751,22.2650299 49.7656946,22.516531 C49.0391357,23.0686773 48.3019771,23.6198599 47.597581,24.1845331 C47.2574281,24.4581972 46.8132057,24.7183708 46.5135243,25.0190159 C46.1309727,25.4025311 45.8553814,25.8409718 45.388996,26.1763067 C44.8647944,26.5521131 44.3801005,26.7708516 43.8443356,27.1042593 C42.6456097,27.8568356 42.9289099,26.4123902 42.8826568,25.6405418 C42.7728057,23.7856002 42.6465733,21.7196289 42.0057753,19.9234672 C41.9200144,19.6825657 41.835217,19.4407006 41.8429259,19.180527 C41.6261145,18.9434799 41.4102668,18.7073964 41.1857466,18.4770946 C40.8369212,18.1186331 40.4562968,17.7476448 40.030383,17.4787987 C39.7653913,17.3111313 39.494618,17.2350064 39.181446,17.1482819 C38.631227,16.9950685 38.0665539,16.6578064 37.5057352,16.595172 C36.8851729,16.5257924 36.300264,16.849564 35.7115008,16.5142291 C35.5621418,16.4294318 35.2701692,16.3321076 35.1632089,16.3224715 C33.9201572,16.2106932 32.5749631,16.4573764 31.3155301,16.4390678 C28.419894,16.3985964 25.4780048,16.4891754 22.6016408,16.1972027 C21.3595526,16.0709703 20.0432668,16.2935633 18.7838337,16.2386378 C17.4357489,16.1798578 16.1281355,16.3870331 14.7896868,16.3552341 C12.2987652,16.2954906 9.8174797,15.8821036 7.26970538,16.0439894 C6.23671972,16.1095146 5.24035109,15.9948455 4.21411068,16.0276081 C3.65425558,16.0459166 3.09536409,15.9900274 2.53550899,16.0015907 C1.85327592,16.0150812 2.14332133,16.8726906 1.7694422,17.2138071 C0.924359716,17.9846919 1.13635304,19.5784963 1.05541013,20.5999187 C0.960013139,21.7861177 1.00337541,22.9434085 1.06890062,24.1238259 C1.13538943,25.3264062 1.27703952,26.5395862 1.44181615,27.7315668 C1.63453735,29.13265 1.51601381,30.6522567 1.55937608,32.0687575 C1.60273836,33.4997125 1.64513702,34.931631 1.75113368,36.3596952 C1.79931398,37.0043476 1.85520313,37.649 1.91783753,38.2926888 C1.96794504,38.8101453 1.79738677,39.3362742 1.88603853,39.8315677 C2.03443385,40.6515964 2.16452067,41.5323323 2.25799045,42.3176712 C2.37940481,43.3304211 3.43166259,43.6281754 4.17267562,44.1388866 C4.35672437,44.2660826 4.53980951,44.4183323 4.64195175,44.6226168 C4.90694341,44.7045233 5.23842388,44.7141594 5.47643457,44.8731544 C5.77515244,45.0726208 6.57976347,45.0494943 6.94400654,45.096711 C8.35665297,45.2797961 9.92154915,45.0572031 11.3525041,45.0668392 C12.6080827,45.0755116 13.8251172,44.8037747 15.0739506,44.7767938 C16.6166838,44.7440312 18.1690531,44.9290435 19.7117863,44.9724058 C22.6209129,45.0533487 25.5146218,45.382902 28.4276028,45.3366489 C29.728471,45.3164131 31.0929371,45.2104165 32.3841692,45.4098829 C33.4855708,45.5804412 34.6120263,45.3723023 35.6363395,45.5178068 C36.1393418,45.5891137 36.6895609,45.4416819 37.2089445,45.4686629 C37.9191222,45.5052799 38.6321906,45.6238035 39.3452591,45.5765868 C40.0881993,45.5274429 40.6875623,44.9116986 41.4247209,44.8731544 C41.6868217,44.8596639 42.021193,44.5224018 42.1936785,44.3566615 C42.3729092,44.1832125 42.5338314,43.5616866 42.630192,43.5135063 C42.8113499,43.4248545 42.8392945,42.4121046 42.8498942,42.2771998 C42.8990381,41.6720552 42.7728057,40.9214061 42.9684177,40.3442061 C43.3442241,39.2370227 43.0262341,37.671163 43.075378,36.5061633 C43.0821232,36.3558407 43.0744144,35.4461967 43.1746294,35.3642901 C43.2719536,35.2852744 43.1563209,35.1204978 43.2334094,35.0347369 C43.3153159,34.9422307 43.6593232,35.0896624 43.7585747,35.1147162 C43.9079336,35.1522968 44.2143603,35.3748898 44.3425199,35.4481239 C44.5660765,35.5772471 44.7722882,35.7372057 45.0093353,35.8653653 C45.3649059,36.0571229 46.0481026,36.8463162 46.4277633,36.8665519 C46.5886855,36.8752244 46.8103149,37.2221226 46.924984,37.2028504 C47.3624612,37.1286528 47.9223163,38.1751289 48.3048679,38.2454722 C48.487953,38.2791984 49.0564806,38.798582 49.1615136,38.9604678 C49.3320719,39.2264231 49.7753307,39.4133627 50.0249046,39.7111169 C50.3438582,40.0917413 51.1359424,40.2256825 51.3488993,40.6583416 C51.4423691,40.8491356 51.8470836,41.102564 52.0186055,41.28854 C52.1207477,41.3993547 52.5938783,41.8098508 52.7220379,41.829123 C52.8020172,41.8416498 53.2828566,42.2145654 53.3108012,42.283945 C53.3522362,42.3860872 53.8802923,42.7464759 54.0267604,42.8091103 C54.4854369,43.0027951 54.9903665,43.4084732 55.4355524,43.7052639 C55.9886623,44.0781794 56.6901675,44.2159751 57.2702583,44.5397467 C58.4024954,45.1728359 59.3121395,46.3050729 60.7729662,45.7905073 C61.5689048,45.5110616 61.7423539,44.7430676 61.8165515,44.0280719 C61.9504928,42.7455123 62.0776888,41.3906822 61.9418203,40.1139042 C61.930257,40.0011623 61.9649469,40.33457 61.9418203,40.1139042 Z M37.8372156,31.272819 C37.7977078,33.5238026 37.6974928,35.7400965 37.6020958,37.9949346 C37.572224,38.6945126 37.6512397,39.4056538 37.5760784,40.1013774 C37.4854994,40.9397146 37.026823,40.9907857 36.2597926,40.9666956 C35.1121378,40.9300785 33.9741191,40.838536 32.8332096,40.8077006 C30.029116,40.7315757 27.2288769,40.7257941 24.4228562,40.7142308 C21.7189777,40.7036311 19.0873696,40.3644418 16.3459105,40.4222582 C15.723421,40.4357486 15.087441,40.2642268 14.4822965,40.2806081 C14.0785455,40.2912077 13.7162297,40.4511663 13.3490958,40.4530936 C12.1002624,40.4588752 10.8543198,40.5484905 9.60644998,40.5465633 C8.81629304,40.5455997 7.9779558,40.6467784 7.81125196,39.6590822 C7.61563994,38.4969733 7.65032976,37.3184832 7.58287734,36.1332477 C7.51638852,34.9547576 7.34679386,33.7155602 7.47688067,32.5611602 C7.53566064,32.0437038 7.41135546,31.4587949 7.39497416,30.9365205 C7.3853381,30.6406934 7.50289804,29.328262 7.26874177,29.1683034 C7.05963926,29.0256897 7.19454411,27.8019101 7.18876247,27.5494453 C7.17238117,26.8758847 7.08276581,26.2572496 6.94689736,25.5981431 C6.68768734,24.33871 6.5855451,22.6784168 6.73586764,21.4045297 C6.84764594,20.4563414 7.91146699,20.562338 8.67271575,20.5295754 C9.3848206,20.4997036 10.0275458,20.4409237 10.7598864,20.5228302 C12.4066891,20.7088061 14.0255472,20.8128756 15.6810224,20.716515 C17.6014892,20.6047367 19.5075019,20.9179086 21.4289323,20.8148028 C23.3599988,20.7107333 25.3296095,20.7627681 27.2645304,20.7627681 C29.2322139,20.7627681 31.1970065,20.7993851 33.1637264,20.8466018 C33.5761498,20.8562379 34.0116997,20.8639467 34.4154507,20.7627681 C34.6168443,20.7126606 34.9155622,20.9448896 35.0764844,20.8022759 C35.2692056,20.6317177 35.9967281,20.7714405 36.2501565,20.7627681 C36.7888123,20.743496 37.1944904,20.5218666 37.3419221,21.1992816 C37.6974928,22.834521 37.5298253,24.7366793 37.6213679,26.4066086 C37.7100196,27.9936677 37.8372156,29.8197011 37.8372156,31.272819 C37.8275796,31.854837 37.8372156,31.2651101 37.8372156,31.272819 Z M55.9366276,38.0286608 C55.453861,38.125985 55.1320165,37.5873292 54.8525708,37.3618454 C54.3630589,36.9638761 53.7771865,36.6603402 53.2674389,36.2777887 C52.9504125,36.039778 52.4223564,35.7179336 52.1332746,35.3960891 C52.0147511,35.2640751 51.755541,35.1831322 51.5984733,35.0260644 C51.2506115,34.6782027 50.8536058,34.3939389 50.464309,34.0971482 C50.124156,33.8389018 49.9747971,33.7242327 49.5970635,33.5247662 C49.4563771,33.449605 49.0217908,33.1826861 49.0131183,33.0246547 C48.9977006,32.7394273 48.1757447,32.0196136 47.9656786,31.7825666 C47.3345166,31.0675709 48.3549754,30.7033278 48.8791771,30.2735595 C49.6866789,29.6115622 50.4816539,28.7616617 51.3479357,28.1873525 C51.6765253,27.9695775 51.9424806,27.5822079 52.3019057,27.3952683 C52.6314589,27.2237465 53.4254703,26.2948303 53.7694776,26.3545738 C53.9843618,26.3921545 54.5702342,25.7773738 54.7089935,25.6337965 C55.5868386,24.7222252 55.5598576,26.1811247 55.5646756,26.7323074 C55.5781661,28.4243996 55.7371611,30.0143495 55.7949775,31.7189686 C55.8277401,32.6825746 55.8094316,33.6461806 55.8518302,34.6097866 C55.9029014,35.7429873 56.1640386,36.8983509 55.9366276,38.0286608 C55.6581454,38.0845499 56.1572934,36.9301499 55.9366276,38.0286608 Z"></path>
        </g>
    </g>
</svg>