<?xml version="1.0" encoding="UTF-8"?>
<svg width="96px" height="100px" viewBox="0 0 96 100" version="1.1" xmlns="http://www.w3.org/2000/svg" xmlns:xlink="http://www.w3.org/1999/xlink">
    <!-- Generator: Sketch 41.2 (35397) - http://www.bohemiancoding.com/sketch -->
    <title>icon-marketing-loop</title>
    <desc>Created with Sketch.</desc>
    <defs></defs>
    <g id="Page-1" stroke="none" stroke-width="1" fill="none" fill-rule="evenodd">
        <g id="icon-marketing-loop" fill="#314355">
            <g id="marketing_loop">
                <path d="M92.3,69.53 C97.542976,56.0132097 96.3399076,40.8438041 89.0318735,28.3224202 C81.7238394,15.8010363 69.1076181,7.29285217 54.76,5.21 L50.76,4.84 L57.24,15.22 L50.65,25.59 L51.8,25.7 C59.5543727,26.8245651 66.4320576,31.2766839 70.6327713,37.8909825 C74.8334851,44.5052812 75.9390221,52.6232673 73.66,60.12 L72.95,61.95 L68,59.14 L76.8,75.56 L95.41,74.73 L91.1,72.28 L92.3,69.53 Z" id="Shape"></path>
                <path d="M69.78,68.14 L69.11,69.08 C64.2481143,75.220732 56.9496557,78.9354419 49.1236727,79.2524778 C41.2976896,79.5695137 33.7226693,76.4573385 28.38,70.73 L27.15,69.2 L32.06,66.33 L13.44,65.71 L4.83,82.25 L9.11,79.75 L10.89,82.15 C19.9576551,93.461233 33.6857986,100.023628 48.1828388,99.9769074 C62.6798791,99.9301867 76.3654396,93.2794434 85.36,81.91 L87.69,78.64 L75.45,79 L69.78,68.14 Z" id="Shape"></path>
                <path d="M11.29,62.76 L23.57,63.3 L23.09,62.25 C20.2018654,54.9725629 20.6303241,46.7975548 24.2633784,39.8618985 C27.8964328,32.9262422 34.3729544,27.9193468 42,26.15 L43.94,25.85 L43.94,31.54 L53.79,15.72 L43.84,0 L43.84,5 L40.84,5.34 C26.5186517,7.54541075 13.9817088,16.1541337 6.780001,28.7279263 C-0.421706792,41.3017188 -1.50387431,56.4712265 3.84,69.94 L5.51,73.59 L11.29,62.76 Z" id="Shape"></path>
            </g>
        </g>
    </g>
</svg>