<?xml version="1.0" encoding="UTF-8"?>
<svg width="60px" height="60px" viewBox="0 0 60 60" version="1.1" xmlns="http://www.w3.org/2000/svg" xmlns:xlink="http://www.w3.org/1999/xlink">
    <!-- Generator: sketchtool 41.2 (35397) - http://www.bohemiancoding.com/sketch -->
    <title>3074EDAA-A70C-423F-BE7F-CFE99EAF945E</title>
    <desc>Created with sketchtool.</desc>
    <defs></defs>
    <g id="Symbols" stroke="none" stroke-width="1" fill="none" fill-rule="evenodd">
        <g id="elements/icons/doodle-question" transform="translate(-1.000000, -1.000000)" fill="#3F4B57">
            <g transform="translate(1.000000, 1.000000)" id="Shape">
                <path d="M31.646,46.366 C31.646,48.099 30.256,49.506 28.547,49.506 C26.834,49.506 25.443,48.1 25.443,46.366 C25.443,44.632 26.833,43.224 28.547,43.224 C30.257,43.227 31.646,44.632 31.646,46.366 Z"></path>
                <path d="M22.612,23.744 C23.986,18.111 36.688,19.796 35.569,26.569 C35.149,29.098 30.667,28.881 28.829,29.798 C25.923,31.244 25.269,34.11 26.085,37.102 C27.043,40.623 32.442,39.125 31.48,35.598 C31.088,34.163 32.847,34.41 34.31,34.078 C36.217,33.65 37.818,32.894 39.187,31.474 C42.773,27.76 41.09,22.037 38.302,18.51 C33.308,12.182 19.22,14.02 17.223,22.236 C16.356,25.784 21.751,27.288 22.612,23.744 L22.612,23.744 Z"></path>
                <path d="M58.141,16.805 C51.475,-1.521 30.007,-1.86 14.195,1.906 C10.728,2.73 12.142,8.052 15.557,7.382 C3.777,14.688 -4.114,28.153 2.282,42.32 C9.778,58.933 32.51,65.591 47.138,54.621 C58.268,46.277 62.9,29.886 58.141,16.805 Z M47.877,46.141 C39.532,56.598 25.918,56.129 15.351,49.502 C5.131,43.098 3.976,30.772 9.435,20.862 C14.813,11.103 25.849,6.682 36.421,7.466 C37.436,7.543 38.15,7.138 38.596,6.524 C44.135,7.971 48.996,11.11 52.117,16.934 C57.014,26.071 54.027,38.438 47.877,46.141 Z"></path>
            </g>
        </g>
    </g>
</svg>