<?xml version="1.0" encoding="UTF-8"?>
<svg width="66px" height="66px" viewBox="0 0 66 66" version="1.1" xmlns="http://www.w3.org/2000/svg" xmlns:xlink="http://www.w3.org/1999/xlink">
    <!-- Generator: Sketch 41.2 (35397) - http://www.bohemiancoding.com/sketch -->
    <title>icon-marketing-history</title>
    <desc>Created with Sketch.</desc>
    <defs></defs>
    <g id="Page-1" stroke="none" stroke-width="1" fill="none" fill-rule="evenodd">
        <g id="icon-marketing-history" fill="#314355">
            <g id="marketing_history">
                <path d="M33,0 C14.798294,0 0,14.79828 0,33 C0,51.2017 14.798294,66 33,66 C51.201706,66 66,51.2017 66,33 C66,24.410829 62.506545,16.783608 57.09375,11 L62,11 C62.7212718,11.0102006 63.3921627,10.6312494 63.7557754,10.0082543 C64.1193882,9.38525919 64.1193882,8.61474081 63.7557754,7.9917457 C63.3921627,7.36875059 62.7212718,6.98979942 62,7 L52,7 C51.9375344,6.99706899 51.8749656,6.99706899 51.8125,7 C50.7817888,7.09714157 49.995536,7.96473092 50,9 L50,19 C49.9897994,19.7212718 50.3687506,20.3921627 50.9917457,20.7557754 C51.6147408,21.1193882 52.3852592,21.1193882 53.0082543,20.7557754 C53.6312494,20.3921627 54.0102006,19.7212718 54,19 L54,13.53125 C58.890085,18.661025 62,25.397972 62,33 C62,49.0399 49.039946,62 33,62 C16.960054,62 4,49.0399 4,33 C4,16.96004 16.960054,4 33,4 C34.0690871,3.95117084 34.9107376,3.07020158 34.9107376,2 C34.9107376,0.929798417 34.0690871,0.0488291609 33,3.55271368e-15 L33,0 Z M32.78125,6.96875 C31.7508578,7.08198012 30.9777057,7.96364479 31,9 L31,13 C30.9897994,13.7212718 31.3687506,14.3921627 31.9917457,14.7557754 C32.6147408,15.1193882 33.3852592,15.1193882 34.0082543,14.7557754 C34.6312494,14.3921627 35.0102006,13.7212718 35,13 L35,9 C35.0124076,8.42400765 34.7758491,7.87063673 34.3509071,7.48160533 C33.9259651,7.09257392 33.3539119,6.90566651 32.78125,6.96875 Z M32.78125,17.96875 C31.7508578,18.0819801 30.9777057,18.9636448 31,20 L31,33 C31.004238,33.528809 31.2177184,34.0344205 31.59375,34.40625 L42.59375,45.40625 C43.0984082,45.9252899 43.8441374,46.1311331 44.5435921,45.9444638 C45.2430468,45.7577945 45.7870461,45.2077507 45.9659755,44.5062761 C46.1449048,43.8048016 45.9308343,43.0613923 45.40625,42.5625 L35,32.15625 L35,20 C35.0124076,19.4240077 34.7758491,18.8706367 34.3509071,18.4816053 C33.9259651,18.0925739 33.3539119,17.9056665 32.78125,17.96875 Z M8.8125,31 C8.09786685,31.0333552 7.4553308,31.4454782 7.12698541,32.08109 C6.79864002,32.7167019 6.83438264,33.4792111 7.22074624,34.081321 C7.60710983,34.6834309 8.28538025,35.033641 9,35 L13,35 C13.7212718,35.0102006 14.3921627,34.6312494 14.7557754,34.0082543 C15.1193882,33.3852592 15.1193882,32.6147408 14.7557754,31.9917457 C14.3921627,31.3687506 13.7212718,30.9897994 13,31 L9,31 C8.93753436,30.997069 8.87496564,30.997069 8.8125,31 Z M52.8125,31 C52.0978668,31.0333552 51.4553308,31.4454782 51.1269854,32.08109 C50.79864,32.7167019 50.8343826,33.4792111 51.2207462,34.081321 C51.6071098,34.6834309 52.2853802,35.033641 53,35 L57,35 C57.7212718,35.0102006 58.3921627,34.6312494 58.7557754,34.0082543 C59.1193882,33.3852592 59.1193882,32.6147408 58.7557754,31.9917457 C58.3921627,31.3687506 57.7212718,30.9897994 57,31 L53,31 C52.9375344,30.997069 52.8749656,30.997069 52.8125,31 Z M32.78125,50.96875 C31.7508578,51.0819801 30.9777057,51.9636448 31,53 L31,57 C30.9897994,57.7212718 31.3687506,58.3921627 31.9917457,58.7557754 C32.6147408,59.1193882 33.3852592,59.1193882 34.0082543,58.7557754 C34.6312494,58.3921627 35.0102006,57.7212718 35,57 L35,53 C35.0124076,52.4240077 34.7758491,51.8706367 34.3509071,51.4816053 C33.9259651,51.0925739 33.3539119,50.9056665 32.78125,50.96875 L32.78125,50.96875 Z" id="Shape"></path>
            </g>
        </g>
    </g>
</svg>