<?xml version="1.0" encoding="UTF-8"?>
<svg width="98px" height="98px" viewBox="0 0 98 98" version="1.1" xmlns="http://www.w3.org/2000/svg" xmlns:xlink="http://www.w3.org/1999/xlink">
    <!-- Generator: Sketch 41.2 (35397) - http://www.bohemiancoding.com/sketch -->
    <title>icon-marketing-lights</title>
    <desc>Created with Sketch.</desc>
    <defs></defs>
    <g id="Page-1" stroke="none" stroke-width="1" fill="none" fill-rule="evenodd">
        <g id="icon-marketing-lights" fill="#314355">
            <g id="Group">
                <g>
                    <path d="M49.001,22.768 C47.36,22.768 46.031,21.439 46.031,19.798 L46.031,2.97 C46.031,1.33 47.36,0 49.001,0 C50.641,0 51.97,1.33 51.97,2.97 L51.97,19.799 C51.97,21.439 50.641,22.768 49.001,22.768 Z" id="Shape"></path>
                    <path d="M49.001,98 C47.36,98 46.031,96.671 46.031,95.03 L46.031,78.203 C46.031,76.563 47.36,75.233 49.001,75.233 C50.641,75.233 51.97,76.563 51.97,78.203 L51.97,95.031 C51.97,96.671 50.641,98 49.001,98 Z" id="Shape"></path>
                    <path d="M95.032,51.968 L78.203,51.968 C76.563,51.968 75.233,50.64 75.233,48.999 C75.233,47.359 76.563,46.029 78.203,46.029 L95.032,46.029 C96.672,46.029 98.002,47.359 98.002,48.999 C98.001,50.64 96.671,51.968 95.032,51.968 Z" id="Shape"></path>
                    <path d="M19.798,51.968 L2.969,51.968 C1.329,51.968 0,50.64 0,49 C0,47.36 1.329,46.03 2.969,46.03 L19.798,46.03 C21.438,46.03 22.768,47.36 22.768,49 C22.768,50.64 21.438,51.968 19.798,51.968 Z" id="Shape"></path>
                    <path d="M81.549,84.519 C80.789,84.519 80.029,84.229 79.449,83.649 L67.55,71.75 C66.39,70.59 66.39,68.711 67.55,67.552 C68.709,66.392 70.589,66.392 71.749,67.552 L83.649,79.45 C84.809,80.61 84.809,82.49 83.649,83.649 C83.07,84.229 82.309,84.519 81.549,84.519 Z" id="Shape"></path>
                    <path d="M28.353,31.321 C27.594,31.321 26.834,31.031 26.254,30.451 L14.354,18.552 C13.194,17.393 13.194,15.513 14.354,14.353 C15.514,13.193 17.394,13.193 18.554,14.353 L30.454,26.252 C31.614,27.411 31.614,29.292 30.454,30.452 C29.873,31.031 29.113,31.321 28.353,31.321 Z" id="Shape"></path>
                    <path d="M16.454,84.521 C15.694,84.521 14.934,84.231 14.354,83.651 C13.194,82.492 13.194,80.612 14.354,79.452 L26.253,67.553 C27.413,66.393 29.292,66.393 30.452,67.553 C31.612,68.712 31.612,70.591 30.452,71.751 L18.553,83.651 C17.975,84.231 17.214,84.521 16.454,84.521 Z" id="Shape"></path>
                    <path d="M69.652,31.324 C68.892,31.324 68.131,31.034 67.552,30.454 C66.392,29.295 66.392,27.413 67.552,26.254 L79.451,14.354 C80.611,13.193 82.491,13.193 83.65,14.354 C84.81,15.513 84.81,17.394 83.65,18.553 L71.751,30.453 C71.171,31.034 70.412,31.324 69.652,31.324 Z" id="Shape"></path>
                    <path d="M49.001,68.362 C38.326,68.362 29.64,59.676 29.64,49 C29.64,38.325 38.326,29.639 49.001,29.639 C59.677,29.639 68.362,38.325 68.362,49 C68.362,59.676 59.677,68.362 49.001,68.362 Z M49.001,35.579 C41.6,35.579 35.579,41.599 35.579,49 C35.579,56.4 41.6,62.422 49.001,62.422 C56.402,62.422 62.422,56.401 62.422,49 C62.422,41.599 56.402,35.579 49.001,35.579 Z" id="Shape"></path>
                </g>
            </g>
        </g>
    </g>
</svg>