<?xml version="1.0" encoding="UTF-8"?>
<svg width="75px" height="75px" viewBox="0 0 75 75" version="1.1" xmlns="http://www.w3.org/2000/svg" xmlns:xlink="http://www.w3.org/1999/xlink">
    <!-- Generator: Sketch 41.2 (35397) - http://www.bohemiancoding.com/sketch -->
    <title>icon-industries-hospitality</title>
    <desc>Created with Sketch.</desc>
    <defs></defs>
    <g id="Page-1" stroke="none" stroke-width="1" fill="none" fill-rule="evenodd">
        <g id="icon-industries-hospitality" fill="#3F4B57">
            <g id="Created-with-Sketch.">
                <g id="Page-1">
                    <path d="M31.891,49.176 L35.438,49.176 L35.438,52.723 C35.438,53.863 36.359,54.789 37.504,54.789 C38.645,54.789 39.57,53.867 39.57,52.723 L39.57,49.176 L43.117,49.176 C44.258,49.176 45.184,48.254 45.184,47.109 C45.184,45.965 44.262,45.043 43.117,45.043 L39.57,45.043 L39.57,41.496 C39.57,40.355 38.648,39.43 37.504,39.43 C36.363,39.43 35.438,40.352 35.438,41.496 L35.438,45.043 L31.891,45.043 C30.75,45.043 29.824,45.965 29.824,47.109 C29.824,48.25 30.746,49.176 31.891,49.176 Z" id="Fill-1"></path>
                    <path d="M72.641,30.734 L53.336,30.734 C52.398,22.824 45.66,16.672 37.5,16.672 C29.34,16.672 22.617,22.824 21.68,30.734 L2.359,30.734 C1.219,30.734 0.293,31.656 0.293,32.801 C0.293,33.941 1.215,34.867 2.359,34.867 L3.852,34.867 L3.852,64.281 C3.852,65.422 4.773,66.348 5.918,66.348 L8.832,66.348 L8.832,72.633 C8.832,73.773 9.754,74.699 10.898,74.699 C12.039,74.699 12.965,73.777 12.965,72.633 L12.965,66.359 L62.008,66.359 L62.008,72.645 C62.008,73.785 62.93,74.711 64.074,74.711 C65.215,74.711 66.141,73.789 66.141,72.645 L66.141,66.359 L69.055,66.359 C70.195,66.359 71.121,65.438 71.121,64.293 L71.121,34.863 L72.613,34.863 C73.754,34.863 74.68,33.941 74.68,32.797 C74.707,31.656 73.785,30.734 72.641,30.734 Z M37.5,20.801 C43.316,20.801 48.148,25.02 49.133,30.543 L25.867,30.543 C26.852,25.02 31.684,20.801 37.5,20.801 Z M67,62.211 L7.984,62.211 L7.984,52.969 L11.426,52.969 C12.566,52.969 13.492,52.047 13.492,50.902 C13.492,49.758 12.57,48.836 11.426,48.836 L7.984,48.836 L7.984,44.703 L15.176,44.703 C16.316,44.703 17.242,43.781 17.242,42.637 C17.242,41.496 16.32,40.57 15.176,40.57 L7.984,40.57 L7.984,34.863 L67.004,34.863 L67.004,62.211 L67,62.211 Z" id="Fill-2"></path>
                    <path d="M37.5,15.352 C41.645,15.352 45.031,11.984 45.031,7.82 C45.031,3.664 41.645,0.293 37.5,0.293 C33.355,0.293 29.969,3.66 29.969,7.824 C29.969,11.984 33.355,15.352 37.5,15.352 Z M37.5,4.422 C39.375,4.422 40.898,5.945 40.898,7.82 C40.898,9.695 39.375,11.207 37.5,11.207 C35.625,11.207 34.102,9.684 34.102,7.809 C34.102,5.934 35.625,4.422 37.5,4.422 Z" id="Fill-3"></path>
                </g>
            </g>
        </g>
    </g>
</svg>