<?xml version="1.0" encoding="UTF-8"?>
<svg width="51px" height="69px" viewBox="0 0 51 69" version="1.1" xmlns="http://www.w3.org/2000/svg" xmlns:xlink="http://www.w3.org/1999/xlink">
    <!-- Generator: Sketch 41.2 (35397) - http://www.bohemiancoding.com/sketch -->
    <title>icon-industries-city</title>
    <desc>Created with Sketch.</desc>
    <defs></defs>
    <g id="Page-1" stroke="none" stroke-width="1" fill="none" fill-rule="evenodd">
        <g id="icon-industries-city" fill="#3F4B57">
            <g id="Created-with-Sketch.">
                <g id="Page-1">
                    <path d="M25.531,27.047 C20.523,27.047 16.445,31.121 16.445,36.133 C16.445,41.141 20.52,45.219 25.531,45.219 C30.539,45.219 34.617,41.145 34.617,36.133 C34.617,31.125 30.543,27.047 25.531,27.047 Z M25.531,42.969 C21.762,42.969 18.695,39.902 18.695,36.133 C18.695,32.363 21.762,29.297 25.531,29.297 C29.301,29.297 32.367,32.363 32.367,36.133 C32.367,39.902 29.301,42.969 25.531,42.969 Z" id="Fill-1"></path>
                    <polygon id="Fill-2" points="16.984 19.867 19.234 19.867 19.234 15.113 16.984 15.113"></polygon>
                    <polygon id="Fill-3" points="24.406 19.867 26.656 19.867 26.656 15.113 24.406 15.113"></polygon>
                    <polygon id="Fill-4" points="31.832 19.867 34.082 19.867 34.082 15.113 31.832 15.113"></polygon>
                    <path d="M25.531,31.305 L21.609,33.191 L20.641,37.434 L23.355,40.836 L27.707,40.836 L30.422,37.434 L29.453,33.191 L25.531,31.305 Z M26.625,38.59 L24.441,38.59 L23.078,36.883 L23.562,34.75 L25.531,33.801 L27.5,34.75 L27.984,36.879 L26.625,38.59 Z" id="Fill-5"></path>
                    <path d="M50.328,34.055 L45.824,33.711 L45.824,30.516 L39.129,28.945 L39.129,24.094 L40.746,24.094 L40.746,21.844 L39.398,21.844 L39.398,17.98 C39.398,11.48 34.898,6.027 28.852,4.535 L28.852,3.645 C28.852,1.816 27.363,0.324 25.531,0.324 C23.703,0.324 22.211,1.812 22.211,3.645 L22.211,4.531 C16.164,6.023 11.664,11.477 11.664,17.977 L11.664,21.84 L10.316,21.84 L10.316,24.09 L11.934,24.09 L11.934,28.926 L5.176,30.516 L5.176,33.711 L0.672,34.055 L0.672,39.676 L5.176,40.02 L5.176,43.215 L11.934,44.801 L11.934,66.422 L8.91,66.422 L8.91,68.672 L42.152,68.672 L42.152,66.422 L39.129,66.422 L39.129,44.785 L45.824,43.215 L45.824,40.02 L50.328,39.676 L50.328,34.055 Z M2.922,37.59 L2.922,36.137 L5.176,35.965 L5.176,37.758 L2.922,37.59 Z M11.867,42.473 L7.426,41.43 L7.426,32.301 L11.871,31.258 L11.871,42.473 L11.867,42.473 Z M24.465,3.645 C24.465,3.055 24.945,2.574 25.535,2.574 C26.125,2.574 26.602,3.055 26.602,3.645 L26.602,4.168 C26.246,4.141 25.895,4.113 25.531,4.113 C25.172,4.113 24.816,4.141 24.461,4.168 L24.461,3.645 L24.465,3.645 Z M13.918,17.98 C13.918,11.578 19.129,6.367 25.535,6.367 C31.941,6.367 37.152,11.578 37.152,17.98 L37.152,21.441 L13.918,21.441 L13.918,17.98 Z M36.879,66.422 L34.082,66.422 L34.082,54.551 L31.832,54.551 L31.832,66.426 L26.66,66.426 L26.66,54.551 L24.41,54.551 L24.41,66.426 L19.234,66.426 L19.234,54.551 L16.984,54.551 L16.984,66.426 L14.188,66.426 L14.188,24.098 L36.883,24.098 L36.883,66.422 L36.879,66.422 Z M43.574,41.43 L39.129,42.473 L39.129,31.258 L43.574,32.301 L43.574,41.43 Z M48.078,37.59 L45.824,37.762 L45.824,35.969 L48.078,36.141 L48.078,37.59 Z" id="Fill-6"></path>
                </g>
            </g>
        </g>
    </g>
</svg>