<?xml version="1.0" encoding="UTF-8"?>
<svg width="20px" height="24px" viewBox="0 0 20 24" version="1.1" xmlns="http://www.w3.org/2000/svg" xmlns:xlink="http://www.w3.org/1999/xlink">
    <!-- Generator: Sketch 41.2 (35397) - http://www.bohemiancoding.com/sketch -->
    <title>icon-platform-android</title>
    <desc>Created with Sketch.</desc>
    <defs></defs>
    <g id="Page-1" stroke="none" stroke-width="1" fill="none" fill-rule="evenodd">
        <g id="icon-platform-android" transform="translate(0.000000, -1.000000)" fill="#FFFFFF">
            <path d="M13,6 L12,6 L12,5 L13,5 L13,6 Z M8,6 L7,6 L7,5 L8,5 L8,6 Z M13.53,3.16 L14.84,1.85 C15.03,1.66 15.03,1.34 14.84,1.14 C14.64,0.95 14.32,0.95 14.13,1.14 L12.65,2.62 C11.85,2.23 10.95,2 10,2 C9.04,2 8.14,2.23 7.34,2.63 L5.85,1.14 C5.66,0.95 5.34,0.95 5.15,1.14 C4.95,1.34 4.95,1.66 5.15,1.85 L6.46,3.16 C4.97,4.26 4,6 4,8 L16,8 C16,6 15,4.25 13.53,3.16 L13.53,3.16 Z M18.5,9 C17.6715729,9 17,9.67157288 17,10.5 L17,17.5 C17,18.3284271 17.6715729,19 18.5,19 C19.3284271,19 20,18.3284271 20,17.5 L20,10.5 C20,9.67157288 19.3284271,9 18.5,9 L18.5,9 Z M1.5,9 C0.671572875,9 0,9.67157288 0,10.5 L0,17.5 C0,18.3284271 0.671572875,19 1.5,19 C2.32842712,19 3,18.3284271 3,17.5 L3,10.5 C3,9.67157288 2.32842712,9 1.5,9 L1.5,9 Z M4,19 C4,19.5522847 4.44771525,20 5,20 L6,20 L6,23.5 C6,24.3284271 6.67157288,25 7.5,25 C8.32842712,25 9,24.3284271 9,23.5 L9,20 L11,20 L11,23.5 C11,24.3284271 11.6715729,25 12.5,25 C13.3284271,25 14,24.3284271 14,23.5 L14,20 L15,20 C15.5522847,20 16,19.5522847 16,19 L16,9 L4,9 L4,19 Z" id="Shape"></path>
        </g>
    </g>
</svg>