<?xml version="1.0" encoding="UTF-8"?>
<svg width="22px" height="23px" viewBox="0 0 22 23" version="1.1" xmlns="http://www.w3.org/2000/svg" xmlns:xlink="http://www.w3.org/1999/xlink">
    <!-- Generator: Sketch 41.2 (35397) - http://www.bohemiancoding.com/sketch -->
    <title>icon-announcement</title>
    <desc>Created with Sketch.</desc>
    <defs></defs>
    <g id="Page-1" stroke="none" stroke-width="1" fill="none" fill-rule="evenodd">
        <g id="icon-announcement" fill="#FFFFFF">
            <g id="Layer_1">
                <g id="Group">
                    <path d="M11.354,2.371 C11.242,2.258 11.082,2.205 10.925,2.23 C10.767,2.254 10.631,2.352 10.557,2.493 L4.249,14.581 L3.003,15.85 L0.984,17.211 C0.86,17.294 0.78,17.429 0.766,17.577 C0.751,17.725 0.805,17.873 0.91,17.978 L3.886,20.955 C3.98,21.049 4.108,21.101 4.24,21.101 C4.256,21.101 4.271,21.1 4.286,21.099 C4.434,21.085 4.569,21.005 4.653,20.883 L5.773,19.229 L10.613,22.557 C10.86,22.697 11.074,22.747 11.255,22.747 C11.587,22.747 11.807,22.577 11.908,22.476 L12.491,21.894 C12.7,21.683 12.814,21.388 12.794,21.103 C12.775,20.839 12.649,20.606 12.425,20.437 L7.936,17.272 L19.369,11.305 C19.51,11.231 19.607,11.095 19.632,10.937 C19.657,10.779 19.604,10.62 19.491,10.508 L11.354,2.371 Z M3.996,16.255 L4.656,15.591 L6.273,17.209 L5.646,17.841 L3.996,16.255 Z M4.167,19.821 L2.044,17.699 L3.221,16.898 L4.996,18.604 L4.167,19.821 Z M11.256,21.749 C11.256,21.749 11.21,21.747 11.143,21.711 L6.427,18.466 L7.035,17.858 L11.783,21.187 L11.256,21.749 Z M7.072,16.595 L5.268,14.79 L11.129,3.56 L18.303,10.734 L7.072,16.595 Z" id="Shape"></path>
                    <path d="M19.902,2.142 C18.484,0.723 16.602,-0.025 14.576,0.044 C14.301,0.053 14.084,0.284 14.093,0.56 C14.102,0.83 14.324,1.043 14.593,1.043 L14.61,1.043 C16.338,0.993 17.975,1.627 19.196,2.849 C20.416,4.069 21.056,5.697 20.999,7.432 C20.99,7.708 21.207,7.939 21.482,7.948 L21.499,7.948 C21.768,7.948 21.99,7.735 21.999,7.465 C22.064,5.45 21.32,3.56 19.902,2.142 Z" id="Shape"></path>
                    <path d="M17.254,4.788 C17.745,5.279 18,5.961 17.954,6.659 C17.936,6.934 18.144,7.173 18.42,7.191 C18.432,7.191 18.442,7.192 18.454,7.192 C18.715,7.192 18.934,6.989 18.952,6.725 C19.016,5.74 18.655,4.776 17.961,4.081 C17.267,3.386 16.312,3.03 15.317,3.09 C15.042,3.108 14.834,3.346 14.851,3.622 C14.868,3.898 15.077,4.102 15.383,4.088 C16.081,4.044 16.763,4.297 17.254,4.788 Z" id="Shape"></path>
                </g>
            </g>
        </g>
    </g>
</svg>