<?xml version="1.0" encoding="UTF-8"?>
<svg width="69px" height="69px" viewBox="0 0 69 69" version="1.1" xmlns="http://www.w3.org/2000/svg" xmlns:xlink="http://www.w3.org/1999/xlink">
    <!-- Generator: Sketch 41.2 (35397) - http://www.bohemiancoding.com/sketch -->
    <title>icon-industries-assets</title>
    <desc>Created with Sketch.</desc>
    <defs></defs>
    <g id="Page-1" stroke="none" stroke-width="1" fill="none" fill-rule="evenodd">
        <g id="icon-industries-assets" fill="#3F4B57">
            <g id="Assets">
                <path d="M45.75,30.75 C45.75,33.25 42,33.25 42,30.75 C42,28.25 45.75,28.25 45.75,30.75" id="Fill-1"></path>
                <path d="M45.75,10.125 C45.75,12.625 42,12.625 42,10.125 C42,7.625 45.75,7.625 45.75,10.125" id="Fill-2"></path>
                <path d="M53.625,38.25 C54.523,37.273 55.125,35.926 55.125,34.5 L55.125,27 C55.125,23.926 52.574,21.375 49.5,21.375 L49.5,19.5 C52.574,19.5 55.125,16.949 55.125,13.875 L55.125,6.375 C55.125,3.301 52.574,0.75 49.5,0.75 L6.375,0.75 C3.301,0.75 0.75,3.301 0.75,6.375 L0.75,13.875 C0.75,16.949 3.301,19.5 6.375,19.5 L6.375,21.375 C3.301,21.375 0.75,23.926 0.75,27 L0.75,34.5 C0.75,37.574 3.301,40.125 6.375,40.125 L6.375,42 C3.301,42 0.75,44.551 0.75,47.625 L0.75,55.125 C0.75,58.199 3.301,60.75 6.375,60.75 L40.273,60.75 C42.898,65.25 47.699,68.25 53.25,68.25 C61.5,68.25 68.25,61.5 68.25,53.25 C68.25,45.148 61.727,38.477 53.625,38.25 Z M4.5,13.875 L4.5,6.375 C4.5,5.324 5.324,4.5 6.375,4.5 L49.5,4.5 C50.551,4.5 51.375,5.324 51.375,6.375 L51.375,13.875 C51.375,14.926 50.551,15.75 49.5,15.75 L6.375,15.75 C5.324,15.75 4.5,14.926 4.5,13.875 Z M45.75,19.5 L45.75,21.375 L10.125,21.375 L10.125,19.5 L45.75,19.5 Z M4.5,34.5 L4.5,27 C4.5,25.949 5.324,25.125 6.375,25.125 L49.5,25.125 C50.551,25.125 51.375,25.949 51.375,27 L51.375,34.5 C51.375,35.551 50.551,36.375 49.5,36.375 L6.375,36.375 C5.324,36.375 4.5,35.551 4.5,34.5 Z M45.75,40.125 L45.75,40.273 C44.926,40.797 44.102,41.324 43.352,42 L10.125,42 L10.125,40.125 L45.75,40.125 Z M38.25,53.25 C38.25,54.523 38.398,55.801 38.773,57 L6.375,57 C5.324,57 4.5,56.176 4.5,55.125 L4.5,47.625 C4.5,46.574 5.324,45.75 6.375,45.75 L40.273,45.75 C39,47.926 38.25,50.551 38.25,53.25 Z M53.25,64.5 C47.023,64.5 42,59.477 42,53.25 C42,47.023 47.023,42 53.25,42 C59.477,42 64.5,47.023 64.5,53.25 C64.5,59.477 59.477,64.5 53.25,64.5 Z" id="Fill-3"></path>
                <polygon id="Fill-4" points="51.977 54.375 48 50.398 45.375 53.023 51.977 59.625 61.273 50.398 58.648 47.699"></polygon>
            </g>
        </g>
    </g>
</svg>