<?xml version="1.0" encoding="UTF-8"?>
<svg width="68px" height="69px" viewBox="0 0 68 69" version="1.1" xmlns="http://www.w3.org/2000/svg" xmlns:xlink="http://www.w3.org/1999/xlink">
    <!-- Generator: Sketch 41.2 (35397) - http://www.bohemiancoding.com/sketch -->
    <title>icon-industries-building</title>
    <desc>Created with Sketch.</desc>
    <defs></defs>
    <g id="Page-1" stroke="none" stroke-width="1" fill="none" fill-rule="evenodd">
        <g id="icon-industries-building" fill="#3F4B57">
            <g id="Created-with-Sketch.">
                <g id="Page-1">
                    <path d="M66.125,18.938 L60.125,18.938 L60.125,9.562 C60.125,8.438 59.188,7.688 58.25,7.688 L54.5,7.688 L54.5,2.625 C54.5,1.688 53.562,0.75 52.625,0.75 C51.688,0.75 50.75,1.688 50.75,2.625 L50.75,7.688 L47,7.688 C46.062,7.688 45.125,8.438 45.125,9.562 L45.125,18.938 L41,18.938 L41,2.625 C41,1.688 40.062,0.75 39.125,0.75 L20.375,0.75 C19.25,0.75 18.5,1.688 18.5,2.625 L18.5,15.188 L13.25,15.188 L13.25,7.312 C13.25,6.375 12.312,5.438 11.375,5.438 C10.438,5.438 9.5,6.375 9.5,7.312 L9.5,15.188 L2.375,15.188 C1.438,15.188 0.5,15.938 0.5,17.062 L0.5,66.375 C0.5,67.5 1.438,68.25 2.375,68.25 L66.125,68.25 C67.062,68.25 68,67.5 68,66.375 L68,20.812 C68,19.688 67.062,18.938 66.125,18.938 Z M18.312,64.5 L4.25,64.5 L4.25,18.938 L18.312,18.938 L18.312,64.5 Z M22.062,4.5 L37.062,4.5 L37.062,64.5 L22.062,64.5 L22.062,4.5 Z M48.875,11.438 L56.375,11.438 L56.375,18.938 L48.875,18.938 L48.875,11.438 Z M64.25,64.5 L40.812,64.5 L40.812,22.688 L64.25,22.688 L64.25,64.5 Z" id="Fill-1"></path>
                    <path d="M11.375,60.75 C10.25,60.75 9.5,60 9.5,58.875 L9.5,57 C9.5,55.875 10.25,55.125 11.375,55.125 C12.5,55.125 13.25,55.875 13.25,57 L13.25,58.875 C13.25,60 12.312,60.75 11.375,60.75 Z M11.375,49.5 C10.25,49.5 9.5,48.75 9.5,47.625 L9.5,45.75 C9.5,44.625 10.25,43.875 11.375,43.875 C12.5,43.875 13.25,44.625 13.25,45.75 L13.25,47.625 C13.25,48.75 12.312,49.5 11.375,49.5 Z M11.375,38.25 C10.25,38.25 9.5,37.5 9.5,36.375 L9.5,34.5 C9.5,33.375 10.25,32.625 11.375,32.625 C12.5,32.625 13.25,33.375 13.25,34.5 L13.25,36.375 C13.25,37.5 12.312,38.25 11.375,38.25 Z M11.375,27 C10.25,27 9.5,26.25 9.5,25.125 L9.5,23.25 C9.5,22.125 10.25,21.375 11.375,21.375 C12.5,21.375 13.25,22.125 13.25,23.25 L13.25,25.125 C13.25,26.25 12.312,27 11.375,27 Z" id="Fill-2"></path>
                    <path d="M29.562,60.188 C28.438,60.188 27.688,59.438 27.688,58.312 L27.688,56.438 C27.688,55.312 28.438,54.562 29.562,54.562 C30.688,54.562 31.438,55.312 31.438,56.438 L31.438,58.312 C31.438,59.25 30.688,60.188 29.562,60.188 Z M29.562,48.938 C28.438,48.938 27.688,48.188 27.688,47.062 L27.688,45.188 C27.688,44.062 28.438,43.312 29.562,43.312 C30.688,43.312 31.438,44.062 31.438,45.188 L31.438,47.062 C31.438,48 30.688,48.938 29.562,48.938 Z M29.562,37.688 C28.438,37.688 27.688,36.938 27.688,35.812 L27.688,33.938 C27.688,32.812 28.438,32.062 29.562,32.062 C30.688,32.062 31.438,32.812 31.438,33.938 L31.438,35.812 C31.438,36.75 30.688,37.688 29.562,37.688 Z M29.562,26.438 C28.438,26.438 27.688,25.688 27.688,24.562 L27.688,22.688 C27.688,21.562 28.438,20.812 29.562,20.812 C30.688,20.812 31.438,21.562 31.438,22.688 L31.438,24.562 C31.438,25.5 30.688,26.438 29.562,26.438 Z M29.562,15.188 C28.438,15.188 27.688,14.438 27.688,13.312 L27.688,11.438 C27.688,10.312 28.438,9.562 29.562,9.562 C30.688,9.562 31.438,10.312 31.438,11.438 L31.438,13.312 C31.438,14.25 30.688,15.188 29.562,15.188 Z" id="Fill-3"></path>
                    <path d="M47.938,57.188 C46.812,57.188 46.062,56.438 46.062,55.312 L46.062,53.438 C46.062,52.312 46.812,51.562 47.938,51.562 C49.062,51.562 49.812,52.312 49.812,53.438 L49.812,55.312 C49.812,56.438 48.875,57.188 47.938,57.188 Z M47.938,45.938 C46.812,45.938 46.062,45.188 46.062,44.062 L46.062,42.188 C46.062,41.062 46.812,40.312 47.938,40.312 C49.062,40.312 49.812,41.062 49.812,42.188 L49.812,44.062 C49.812,45.188 48.875,45.938 47.938,45.938 Z M47.938,34.688 C46.812,34.688 46.062,33.938 46.062,32.812 L46.062,30.938 C46.062,29.812 46.812,29.062 47.938,29.062 C49.062,29.062 49.812,29.812 49.812,30.938 L49.812,32.812 C49.812,33.938 48.875,34.688 47.938,34.688 Z" id="Fill-4"></path>
                    <path d="M57.312,57.188 C56.188,57.188 55.438,56.438 55.438,55.312 L55.438,53.438 C55.438,52.312 56.188,51.562 57.312,51.562 C58.438,51.562 59.188,52.312 59.188,53.438 L59.188,55.312 C59.188,56.438 58.25,57.188 57.312,57.188 Z M57.312,45.938 C56.188,45.938 55.438,45.188 55.438,44.062 L55.438,42.188 C55.438,41.062 56.188,40.312 57.312,40.312 C58.438,40.312 59.188,41.062 59.188,42.188 L59.188,44.062 C59.188,45.188 58.25,45.938 57.312,45.938 Z M57.312,34.688 C56.188,34.688 55.438,33.938 55.438,32.812 L55.438,30.938 C55.438,29.812 56.188,29.062 57.312,29.062 C58.438,29.062 59.188,29.812 59.188,30.938 L59.188,32.812 C59.188,33.938 58.25,34.688 57.312,34.688 Z" id="Fill-5"></path>
                </g>
            </g>
        </g>
    </g>
</svg>