<svg xmlns="http://www.w3.org/2000/svg" width="395" height="287" viewBox="0 0 395 287"><g fill="none" fill-rule="evenodd"><path fill="#0E0E0E" d="M388.31 229.41c-9.785 20.13-29.662 33.589-50.254 42.465a185.862 185.862 0 0 1-51.737 13.764 193.65 193.65 0 0 1-10.274.94c-8.78.57-17.586.561-26.364-.029a200.27 200.27 0 0 1-15.785-1.678 199.544 199.544 0 0 1-52.776-15.322 190.305 190.305 0 0 1-14.249-7.128 182.345 182.345 0 0 1-22.271-14.52 178.806 178.806 0 0 1-4.627-3.647l-.626-.51c-1.197-.985-2.384-1.991-3.588-2.968a52.158 52.158 0 0 0-6.358-4.547c-.151-.088-.302-.176-.457-.26a23.007 23.007 0 0 0-1.26-.676c-.88-.442-1.783-.84-2.704-1.19-4.254-1.616-8.811-2.203-13.43-2.104-.767 0-1.533.051-2.303.103a53.432 53.432 0 0 0-3.23.323l-.398.055a73.415 73.415 0 0 0-10.141 2.17c-5.135 1.47-10.178 3.305-15.255 4.962a146.632 146.632 0 0 1-6.49 1.99l-.48.132a71.237 71.237 0 0 1-9.433 1.969 52.721 52.721 0 0 1-21.59-1.734l-.243-.07-.45-.132-.615-.19a55.383 55.383 0 0 1-3.068-1.062l-.616-.235a47.963 47.963 0 0 1-2.884-1.215l-.615-.28a53.637 53.637 0 0 1-2.884-1.443c-.34-.176-.674-.367-1.006-.547a61.232 61.232 0 0 1-7.286-4.782 59.377 59.377 0 0 1-7.136-6.415c-.121-.121-.235-.246-.35-.368a56.933 56.933 0 0 1-1.716-1.931 54.62 54.62 0 0 1-2.527-3.199c-.092-.121-.18-.246-.27-.367a53.052 53.052 0 0 1-6.214-11.201 7.556 7.556 0 0 1-.143-.367 58.313 58.313 0 0 1-1.345-3.845 39.255 39.255 0 0 1-.464-1.646 12.01 12.01 0 0 1-.133-.488C.232 194.207 0 185.911 0 177.663v-2.883c.059-13.342.265-26.912 2.24-40.07 0-.092.025-.184.04-.272.661-4.43 1.56-8.82 2.693-13.155a96.84 96.84 0 0 1 4.535-13.33c4.542-10.65 11.146-20.342 18.48-29.325C36.83 67.82 46.96 57.846 58.244 49.616c1.62-1.183 3.264-2.33 4.929-3.445l.77-.503c.268-.18.537-.367.806-.525a66.84 66.84 0 0 1 1.665-1.061l.627-.39 1.193-.734.368-.21.638-.367.63-.367a86.391 86.391 0 0 1 2.236-1.27 118.108 118.108 0 0 1 12.889-6.174 106.11 106.11 0 0 1 14.053-4.594 90.576 90.576 0 0 1 5.338-1.175 98.134 98.134 0 0 1 6.369-1.01c3.396-.426 6.811-.68 10.233-.76 24.062-.584 48.367 7.223 67.224 22.188 7.515 5.964 14.267 13.026 22.706 17.599 7.368 3.98 15.991 5.63 23.882 2.497 6.52-2.59 10.763-3.875 18.087-3.482a152.008 152.008 0 0 1 44.318 9.24c.575.21 1.15.426 1.72.643 37.099 14.157 68.996 42.27 85.565 78.395.437.955.863 1.917 1.278 2.887 9.884 23.008 13.45 49.982 2.542 72.413z" opacity=".1"/><path fill="#0E0E0E" d="M74 102.203v139.273l-.48.132a71.709 71.709 0 0 1-9.469 1.969 53.086 53.086 0 0 1-21.668-1.734l-.244-.07-.451-.132-.618-.19a55.713 55.713 0 0 1-3.08-1.062l-.617-.236a48.227 48.227 0 0 1-2.894-1.215l-.618-.28a53.904 53.904 0 0 1-2.895-1.443c-.34-.176-.676-.367-1.009-.547a61.468 61.468 0 0 1-7.313-4.782 59.524 59.524 0 0 1-7.16-6.418c-.123-.121-.237-.246-.352-.367a57.008 57.008 0 0 1-1.723-1.932c-.207-.243-.414-.485-.617-.735a54.654 54.654 0 0 1-1.919-2.465c-.092-.12-.181-.246-.27-.367a53.011 53.011 0 0 1-6.237-11.203 7.542 7.542 0 0 1-.144-.368 58.191 58.191 0 0 1-1.35-3.845 39.159 39.159 0 0 1-.465-1.646 11.98 11.98 0 0 1-.133-.489C.233 194.07 0 185.771 0 177.522v-2.883c.06-13.345.266-26.918 2.248-40.079 0-.091.026-.183.04-.271a124.71 124.71 0 0 1 2.703-13.158h37.754v-18.928h7.527V87h16.2v15.203H74zM388.31 229.39c-9.782 20.136-29.658 33.6-50.249 42.48a185.788 185.788 0 0 1-51.734 13.769c-3.413.404-6.837.717-10.273.94-8.778.57-17.585.561-26.362-.03-5.28-.35-10.54-.909-15.784-1.678a199.468 199.468 0 0 1-52.772-15.327 190.26 190.26 0 0 1-14.248-7.13 182.324 182.324 0 0 1-22.27-14.526 178.805 178.805 0 0 1-4.626-3.648l-.627-.51c-1.197-.985-2.383-1.992-3.587-2.97a52.155 52.155 0 0 0-6.358-4.547c-.15-.088-.302-.176-.457-.261a23.001 23.001 0 0 0-1.26-.676c-.88-.443-1.782-.84-2.703-1.19v-56.983h68.361v12.685h30.002v-92.79h35.313v37.104h17.467v-21.968h14.431V88.666h6.63V75c.575.21 1.15.426 1.72.643v13.023h6.454v23.482h14.42v21.97h21.265v83.697h33.8v-60.87h10.892c9.897 23.024 13.463 50.007 2.556 72.446z" opacity=".1"/><path fill="#0E0E0E" d="M234 110h16v16h-16zm0 33h16v16h-16zm0 33h16v16h-16zm0 32h16v16h-16zm0 33h16v16h-16zm16 33v12a212.434 212.434 0 0 1-16-1.62V274h16zm-120-77h55v7h-55zm0 22h55v7h-55zm56 21v7h-41.1a179.413 179.413 0 0 1-4.658-3.583l-.63-.502c-1.205-.967-2.4-1.955-3.612-2.915h50zm0 22v7h-4.412A198.26 198.26 0 0 1 167 262h19zm90-109h10v10h-10zM54 106h10v10H54zm0 23h10v10H54zm0 24h10v10H54zm0 24h10v10H54zm0 24h10v10H54zm0 24h10v10H54zm261-72h10v10h-10zm-39 26h10v10h-10zm39 0h10v10h-10zm-39 25h10v10h-10zm39 0h10v10h-10zm-39 25h10v10h-10zm39 0h10v10h-10zm-39 25h10v10h-10zm39 0h10v10h-10zm-39 32v-7h10v6.004z" opacity=".1"/><path fill="#0E0E0E" fill-rule="nonzero" d="M2 134v6h39v-6H2zm3.473 5.625H2.611v-5.25h2.862v5.25zm3.474 0H6.084v-5.25h2.863v5.25zm3.473 0H9.557v-5.25h2.863v5.25zm3.473 0h-2.862v-5.25h2.862v5.25zm3.474 0h-2.863v-5.25h2.863v5.25zm3.473 0h-2.863v-5.25h2.863v5.25zm3.473 0h-2.862v-5.25h2.862v5.25zm3.474 0h-2.863v-5.25h2.863v5.25zm3.473 0h-2.863v-5.25h2.863v5.25zm3.473 0h-2.862v-5.25h2.862v5.25zm3.656 0h-3.045v-5.25h3.045v5.25zM2 151v6h39v-6H2zm3.473 5.624H2.611v-5.248h2.862v5.248zm3.474 0H6.084v-5.248h2.863v5.248zm3.473 0H9.557v-5.248h2.863v5.248zm3.473 0h-2.862v-5.248h2.862v5.248zm3.474 0h-2.863v-5.248h2.863v5.248zm3.473 0h-2.863v-5.248h2.863v5.248zm3.473 0h-2.862v-5.248h2.862v5.248zm3.474 0h-2.863v-5.248h2.863v5.248zm3.473 0h-2.863v-5.248h2.863v5.248zm3.473 0h-2.862v-5.248h2.862v5.248zm3.656 0h-3.045v-5.248h3.045v5.248zM2 168v6h39v-6H2zm3.473 5.624H2.611v-5.248h2.862v5.248zm3.474 0H6.084v-5.248h2.863v5.248zm3.473 0H9.557v-5.248h2.863v5.248zm3.473 0h-2.862v-5.248h2.862v5.248zm3.474 0h-2.863v-5.248h2.863v5.248zm3.473 0h-2.863v-5.248h2.863v5.248zm3.473 0h-2.862v-5.248h2.862v5.248zm3.474 0h-2.863v-5.248h2.863v5.248zm3.473 0h-2.863v-5.248h2.863v5.248zm3.473 0h-2.862v-5.248h2.862v5.248zm3.656 0h-3.045v-5.248h3.045v5.248zM2 185v6h39v-6H2zm3.473 5.625H2.611v-5.25h2.862v5.25zm3.474 0H6.084v-5.25h2.863v5.25zm3.473 0H9.557v-5.25h2.863v5.25zm3.473 0h-2.862v-5.25h2.862v5.25zm3.474 0h-2.863v-5.25h2.863v5.25zm3.473 0h-2.863v-5.25h2.863v5.25zm3.473 0h-2.862v-5.25h2.862v5.25zm3.474 0h-2.863v-5.25h2.863v5.25zm3.473 0h-2.863v-5.25h2.863v5.25zm3.473 0h-2.862v-5.25h2.862v5.25zm3.656 0h-3.045v-5.25h3.045v5.25zM2 202c.14.563.297 1.125.462 1.68v-1.305h2.873v5.25H3.801c.044.124.092.251.143.375H41v-6H2zm6.82 5.625H5.948v-5.25H8.82v5.25zm3.486 0H9.433v-5.25h2.873v5.25zm3.485 0H12.92v-5.25h2.872v5.25zm3.486 0h-2.873v-5.25h2.873v5.25zm3.485 0H19.89v-5.25h2.873v5.25zm3.486 0h-2.873v-5.25h2.873v5.25zm3.485 0H26.86v-5.25h2.873v5.25zm3.485 0h-2.872v-5.25h2.872v5.25zm3.486 0H33.83v-5.25h2.873v5.25zm3.669 0h-3.057v-5.25h3.057v5.25zM11 219c.088.124.177.251.27.375h1.912v2.514c.203.252.41.499.616.75v-3.26h2.887v5.246h-1.169c.114.124.229.251.35.375H42v-5.996L11 219zm9.187 5.621H17.3v-5.246h2.887v5.246zm3.502 0h-2.887v-5.246h2.887v5.246zm3.502 0h-2.886v-5.246h2.886v5.246zm3.502 0h-2.886v-5.246h2.886v5.246zm3.503 0h-2.887v-5.246h2.887v5.246zm3.502 0H34.81v-5.246h2.887v5.246zm3.686 0h-3.07v-5.246h3.07v5.246z" opacity=".1"/><path fill="#0E0E0E" d="M30 236c.34.189.685.37 1.032.551v-.181h2.962v1.634l.631.282v-1.916h2.962v3.14l.631.236v-3.376h3.15v4.438L42 241v-5H30zM150.822 83.011s-8.782-.514-7.735 5.453c-.11.622.205 1.242.78 1.536 0 0 0-.443.9-.293.315.05.635.065.953.043.431-.028.841-.19 1.168-.465 0 0 2.468-.99 3.43-4.902 0 0 .707-.854.681-1.072l-1.473.615s.508 1.036.11 1.897c0 0-.048-1.858-.335-1.815-.055 0-.77.357-.77.357s.873 1.808.214 3.12c0 0 .25-2.223-.483-2.987l-1.068.596s1.02 1.865.328 3.387c0 0 .18-2.333-.545-3.24l-.947.714s.958 1.837.368 3.102c0 0-.077-2.72-.578-2.927-.36.294-.68.63-.954 1 0 0 .656 1.334.25 2.037 0 0-.25-1.807-.456-1.818 0 0-.822 1.2-.907 2.022a4.262 4.262 0 0 1 .708-2.144 2.503 2.503 0 0 0-1.26.633s.129-.847 1.473-.922c0 0 .682-.908.866-.965 0 0-1.33-.107-2.137.24 0 0 .711-.8 2.38-.436l.932-.74s-1.75-.232-2.49.025c0 0 .85-.715 2.74-.193l1.017-.59a9.555 9.555 0 0 0-2.38-.2s.936-.489 2.679.043l.736-.318s-1.105-.207-1.41-.239c-.306-.032-.34-.118-.34-.118a3.896 3.896 0 0 1 2.053.222s1.528-.565 1.502-.658zm-23.093 30.061s-3.01 8.043 3.2 8.778a1.536 1.536 0 0 0 1.74-.29s-.432-.14-.033-.925c.14-.279.246-.572.317-.875.093-.41.047-.84-.133-1.222 0 0-.277-2.584-3.88-4.595 0 0-.643-.907-.868-.943l.185 1.56s1.17-.18 1.912.437c0 0-1.846-.484-1.894-.205 0 .054.137.821.137.821s2.038-.301 3.15.688c0 0-2.135-.867-3.098-.398l.288 1.14s2.137-.415 3.448.66c0 0-2.26-.828-3.367-.412l.44 1.075s2.092-.358 3.178.534c0 0-2.717-.717-3.06-.294.188.418.429.811.715 1.172 0 0 1.51-.23 2.09.359 0 0-1.864-.283-1.93-.097 0 0 .955 1.111 1.746 1.434a4.526 4.526 0 0 1-1.917-1.273c-.049.469.045.941.27 1.359 0 0-.805-.359-.499-1.631 0 0-.708-.893-.708-1.076 0 0-.488 1.208-.37 2.062 0 0-.59-.893.244-2.345l-.465-1.075s-.739 1.566-.687 2.333c0 0-.458-1 .59-2.616l-.29-1.115a8.787 8.787 0 0 0-.876 2.15s-.221-1.014.801-2.487l-.107-.767s-.517.96-.638 1.251c-.122.29-.215.28-.215.28a3.63 3.63 0 0 1 .802-1.854s-.119-1.598-.218-1.598zm57.998-6.997s-3.005 8.059 3.202 8.776a1.54 1.54 0 0 0 1.742-.294s-.435-.14-.033-.921c.14-.28.246-.575.314-.879.094-.41.049-.839-.13-1.222 0 0-.276-2.585-3.88-4.596 0 0-.646-.903-.871-.939l.188 1.556s1.17-.176 1.913.44c0 0-1.846-.483-1.898-.207 0 .057.137.82.137.82s2.038-.297 3.153.689c0 0-2.134-.864-3.102-.398l.292 1.144s2.138-.42 3.448.66c0 0-2.263-.832-3.37-.417l.439 1.076s2.093-.359 3.179.534c0 0-2.714-.717-3.061-.29.195.419.443.812.738 1.172 0 0 1.507-.233 2.09.358 0 0-1.864-.283-1.93-.093 0 0 .952 1.108 1.742 1.434a4.485 4.485 0 0 1-1.913-1.273c-.049.469.044.94.266 1.36 0 0-.801-.36-.495-1.628 0 0-.709-.897-.712-1.076 0 0-.484 1.212-.37 2.061 0 0-.59-.889.244-2.344l-.465-1.075s-.738 1.566-.687 2.33c0 0-.458-.997.591-2.614l-.295-1.118c-.387.677-.68 1.4-.875 2.15 0 0-.218-1.014.805-2.487l-.108-.767s-.516.96-.642 1.25c-.126.291-.214.28-.214.28a3.65 3.65 0 0 1 .805-1.853s-.133-1.595-.237-1.599zm-82.998 67.993s-3.009 8.048 3.2 8.782c.584.28 1.286.16 1.739-.293 0 0-.432-.14-.034-.922.142-.279.249-.574.318-.878.095-.41.048-.84-.133-1.222 0 0-.277-2.585-3.88-4.592 0 0-.642-.907-.867-.943l.185 1.556s1.173-.176 1.912.44c0 0-1.846-.483-1.894-.207 0 .057.137.82.137.82s2.037-.297 3.148.689c0 0-2.133-.864-3.097-.398l.288 1.143s2.137-.419 3.448.66c0 0-2.26-.832-3.367-.416l.44 1.076s2.093-.359 3.178.534c0 0-2.713-.717-3.06-.29.189.417.43.81.716 1.172 0 0 1.51-.233 2.093.358 0 0-1.868-.283-1.934-.093 0 0 .956 1.107 1.746 1.434a4.5 4.5 0 0 1-1.916-1.27 2.34 2.34 0 0 0 .27 1.356s-.805-.359-.5-1.628c0 0-.704-.896-.708-1.075 0 0-.487 1.212-.369 2.061 0 0-.59-.889.244-2.344l-.465-1.076s-.739 1.567-.683 2.33c0 0-.458-.996.59-2.613l-.295-1.115a8.72 8.72 0 0 0-.875 2.151s-.221-1.018.801-2.488l-.107-.77s-.517.96-.638 1.25c-.122.291-.215.28-.215.28a3.62 3.62 0 0 1 .805-1.853s-.122-1.606-.221-1.606zM90.727 96.072s-3.005 8.044 3.202 8.778a1.544 1.544 0 0 0 1.742-.29s-.435-.14-.033-.925c.14-.28.245-.574.314-.878a1.878 1.878 0 0 0-.13-1.219s-.276-2.584-3.884-4.595c0 0-.642-.907-.867-.943l.188 1.56s1.17-.18 1.909.437c0 0-1.846-.484-1.894-.205 0 .054.137.821.137.821s2.038-.3 3.153.688c0 0-2.134-.867-3.102-.397l.288 1.14s2.138-.42 3.452.66c0 0-2.263-.833-3.37-.413l.439 1.075s2.093-.358 3.179.538c0 0-2.714-.717-3.061-.294.189.417.43.811.716 1.172 0 0 1.51-.23 2.094.359 0 0-1.865-.284-1.931-.097 0 0 .952 1.111 1.742 1.434a4.548 4.548 0 0 1-1.916-1.273 2.35 2.35 0 0 0 .27 1.359s-.805-.359-.495-1.631c0 0-.709-.893-.713-1.076 0 0-.483 1.208-.369 2.061 0 0-.594-.892.244-2.344l-.47-1.075s-.738 1.566-.682 2.333c0 0-.458-1 .59-2.616l-.295-1.115c-.386.677-.68 1.4-.875 2.15 0 0-.218-1.014.801-2.487l-.103-.767s-.52.96-.642 1.247c-.122.287-.215.283-.215.283.086-.678.365-1.32.805-1.853 0 0-.114-1.602-.218-1.602zM113 141.256s2.302 7.916 7.763 5.162c.636-.095 1.136-.564 1.237-1.163 0 0-.432.124-.567-.705a3.615 3.615 0 0 0-.264-.857 1.86 1.86 0 0 0-.823-.888s-1.746-1.88-5.856-1.521c0 0-1.054-.362-1.26-.269l1.07 1.119s.845-.768 1.807-.689c0 0-1.79.62-1.658.857.03.049.593.572.593.572s1.464-1.332 2.958-1.157c0 0-2.237.468-2.742 1.356l.904.74s1.486-1.476 3.184-1.339c0 0-2.324.565-2.975 1.487l.995.616s1.464-1.414 2.892-1.287c0 0-2.613.905-2.654 1.415.4.226.828.405 1.274.533 0 0 1.098-.991 1.9-.85 0 0-1.68.781-1.622.964 0 0 1.428.344 2.251.178a4.74 4.74 0 0 1-2.298.035 2.38 2.38 0 0 0 1.017.919s-.864.148-1.361-1.012c0 0-1.098-.32-1.216-.465 0 0 .322 1.212.915 1.817 0 0-1.002-.382-1.182-1.971l-1.014-.596s.333 1.621.817 2.196c0 0-.96-.537-1.062-2.368l-.893-.716c.087.743.277 1.472.564 2.168 0 0-.772-.688-.813-2.381l-.538-.547s.147 1.032.216 1.325c.07.292 0 .344 0 .344a3.36 3.36 0 0 1-.439-1.886s-1.036-1.187-1.12-1.136zm63 6.984s2.302 7.938 7.76 5.177c.638-.093 1.14-.565 1.24-1.167 0 0-.436.124-.571-.69a3.47 3.47 0 0 0-.26-.86 1.888 1.888 0 0 0-.827-.89s-1.746-1.885-5.856-1.522c0 0-1.054-.366-1.255-.273l1.065 1.122s.845-.77 1.808-.69c0 0-1.79.62-1.655.859.026.048.593.573.593.573s1.464-1.336 2.958-1.16c0 0-2.24.47-2.745 1.36l.907.742s1.464-1.48 3.18-1.342c0 0-2.32.566-2.971 1.49l.995.618s1.464-1.418 2.888-1.29c0 0-2.613.907-2.65 1.418.399.227.825.407 1.27.535 0 0 1.098-.994 1.9-.852 0 0-1.676.783-1.621.966 0 0 1.427.345 2.254.18-.751.2-1.545.212-2.302.034.237.394.59.714 1.017.922 0 0-.863.148-1.361-1.015 0 0-1.098-.321-1.212-.466 0 0 .319 1.215.912 1.822 0 0-1.003-.383-1.182-1.977l-1.014-.604s.333 1.625.82 2.202c0 0-.96-.539-1.062-2.375l-.897-.718c.087.745.278 1.476.568 2.174 0 0-.776-.69-.816-2.388l-.538-.549s.146 1.036.216 1.33c.07.292 0 .344 0 .344a3.378 3.378 0 0 1-.44-1.891s-1.032-1.201-1.116-1.15z" opacity=".1"/><path fill="#CED7E7" d="M152.538 233s18.828-6.338 14.93-28.793L143.554 198 138 216.425 152.538 233z"/><path fill="#000" d="M138 216.306L152.537 233s18.83-6.383 14.932-29L138 216.306z" opacity=".1"/><path fill="#FED253" d="M57.028 48.477s2.667 3.941 6.312 1.972c3.646-1.969.149-7.408.149-7.408s-6.983-.869-6.461 5.436z"/><path fill="#000" d="M63.343 50.452a4.082 4.082 0 0 1-2.939.45c-1.337-.308-2.366-1.243-2.919-1.856a5.85 5.85 0 0 1-.457-.564c-.187-2.251.583-3.591 1.65-4.38 1.467-1.084 3.499-1.13 4.375-1.095.27 0 .427.035.427.035l.072.11c.103.177.328.569.568 1.091.816 1.714 1.787 4.82-.777 6.209z" opacity=".1"/><path fill="#FFA2A2" d="M153.967 203l13.293 1.074 24.74.203-19.493 23.986s-6.185.336-7.459 1.207-19.16.406-19.16.406L143 217.58 153.967 203z"/><path fill="#000" d="M153.967 203l13.293 1.074 24.74.203-19.493 23.986s-6.185.336-7.459 1.207-19.16.406-19.16.406L143 217.58 153.967 203z" opacity=".05"/><path fill="#CED7E7" d="M141.379 138.517l3.075 5.208.669 9.081s2.142 7.742 3.748 10.012c1.606 2.27 2.274 8.282 2.274 8.282s.67 5.608 1.47 6.807c.801 1.2 1.874 9.902 1.874 9.902s7.092 14.154 13.511 15.888c0 0-31.84 10.416-15.117 29.11 0 0-11.905 2.934-14.716-.4-2.81-3.334-10.167-52.743-10.167-52.743L130.274 138l11.105.517z"/><path fill="#000" d="M141.379 138.517l3.075 5.208.669 9.081s2.142 7.742 3.748 10.012c1.606 2.27 2.274 8.282 2.274 8.282s.67 5.608 1.47 6.807c.801 1.2 1.874 9.902 1.874 9.902s7.092 14.154 13.511 15.888c0 0-31.84 10.416-15.117 29.11 0 0-11.905 2.934-14.716-.4-2.81-3.334-10.167-52.743-10.167-52.743L130.274 138l11.105.517z" opacity=".05"/><path fill="#FFA2A2" d="M102.555 87.879a28.931 28.931 0 0 0 .765 13.933L98.41 116S61.007 94.985 64.191 89.897c1.804-2.886 2.033-10.522 1.887-16.588-.105-4.61-.43-8.309-.43-8.309s45.9 4.555 39.791 15.129a25.103 25.103 0 0 0-2.885 7.75z"/><path fill="#000" d="M105.433 79.9a24.254 24.254 0 0 0-2.932 7.634C88.23 92 72.718 85.994 65.437 73.184 65.329 68.642 65 65 65 65s46.63 4.486 40.433 14.9z" opacity=".1"/><path fill="#FFA2A2" d="M124 56.983a30.995 30.995 0 0 1-21.292 29.456 31.003 31.003 0 0 1-34.64-11.016 30.99 30.99 0 0 1-.36-36.34c.438-.617.9-1.218 1.384-1.805a31.006 31.006 0 0 1 10.089-8.038 30.455 30.455 0 0 1 6.632-2.403 31.063 31.063 0 0 1 24.379 4.373 31.052 31.052 0 0 1 13.428 20.809c.258 1.642.385 3.302.38 4.964z"/><path fill="#CED7E7" d="M136.24 185.349c-.466 2.498.119 7.064 1.005 11.711.037.203.077.406.117.609l.151.77a170.4 170.4 0 0 0 1.287 5.775 256.02 256.02 0 0 0 1.155 4.606c.5 1.898.842 3.092.842 3.092a552.45 552.45 0 0 0 .21 6.873c0 .42.025.848.036 1.29l.056 2.388c0 .266 0 .53.018.8 0 .88.033 1.78.048 2.675.018 1.231.033 2.462.04 3.656v4.592c-.04 2.856-.154 5.012-.397 5.635a8.85 8.85 0 0 0-.235.689 23.347 23.347 0 0 0-.692 3.49l-.625-.512c-1.195-.988-2.379-1.998-3.581-2.978a52.073 52.073 0 0 0-6.348-4.562 18.33 18.33 0 0 0-.456-.262c-.411-.24-.83-.464-1.257-.678a28.765 28.765 0 0 0-2.7-1.194c-4.247-1.622-8.795-2.211-13.407-2.112a105.694 105.694 0 0 0-3.034 1.209l-2.338.708-.39.117c-2.534.774-6.097 1.873-7.38 2.33-2.075.737-20.083 4.492-20.083 4.492a29.84 29.84 0 0 1-5.023.921 70.791 70.791 0 0 1-9.417 1.976 52.367 52.367 0 0 1-21.553-1.74 3.515 3.515 0 0 1-.625-.018c.128 0 .253-.03.367-.052l-.448-.133-.614-.191a56.351 56.351 0 0 1-3.064-1.065l-.614-.236c-.98-.378-1.94-.785-2.879-1.22l-.614-.28a54.53 54.53 0 0 1-2.88-1.448c-.338-.177-.672-.369-1.003-.55-1-.56-1.981-1.147-2.942-1.761-.162-1.39-.247-2.318-.247-2.318l-1.434-7.157-.073-.368-1.03-5.16-.074-.368-2.239-11.226-.074-.368-1.03-5.16-.073-.368-2.269-11.218-.073-.369-1.03-5.16-.073-.368-2.251-11.24-.074-.368-1.03-5.141-.073-.369-.408-2.027-.614-3.07s-1.96-2.808-4.166-6.128l-.247-.369a383.206 383.206 0 0 1-1.905-2.852c-.21-.313-.412-.623-.614-.929-.306-.464-.603-.918-.89-1.36l-.198-.306-.04-.062c-3.17-4.916-1.049-7.054-1.049-7.054s1.331-1.806 3.049-4.194c.084-.121.173-.243.265-.368.735-1.032 1.544-2.16 2.338-3.288l.614-.877c.232-.328.46-.656.68-.98.089-.122.174-.247.254-.369 1.696-2.454 3.093-4.595 3.38-5.354.449-1.198 3.31-4.74 6.16-7.846 2.246-2.455 4.482-4.636 5.486-5.16 2.276-1.205 3.214-5.1 3.214-5.1s4.953-1.74 5.623-3.081c.669-1.341 10.042-7.37 10.042-7.37s3.792-2.448 5.325-3.922a3.12 3.12 0 0 0 .563-.66c.533-.958 4.015-1.746 5.431-2.03.368-.074.596-.114.596-.114a12.008 12.008 0 0 1 2.144-2.82c.577-.512 1.298-2.277 1.905-3.987.658-1.865 1.17-3.66 1.17-3.66 1.073-3.622 3.213-2.55 3.213-2.55-.003.495.044.989.14 1.474.893 4.423 5.747 6.265 8.296 8.333 2.813 2.277 7.23 8.185 10.712 9.39 2.883.999 6.226 4.765 7.285 6.022l.08.096c.177.206.265.324.265.324s1.975-.103 3.178-.125h.437c.245-.025.477-.12.67-.273 1.195-.815 2.974-3.203 3.75-3.752.934-.674 1.876-11.542 1.876-11.542l.048-.022c3.335-1.566 6.913 14.11 6.913 14.11s6.292 1.88 6.829 3.222c.103.265.577.737 1.29 1.308a70.731 70.731 0 0 0 10.334 6.578c.08.04.158.081.239.114.073.04.148.076.224.107a11.464 11.464 0 0 0 .945.402l.22.077a5.313 5.313 0 0 1 1.472.763 7.9 7.9 0 0 1 .393.302c.501.418.961.882 1.376 1.386.062.074.12.151.18.225.28.35.53.696.735 1.017.338.495.646 1.01.923 1.54 0 0 5.487 9.394 7.23 10.463 1.743 1.069 2.813 11.944 2.813 11.944l-5.884 21.858s-.276 5.528-.79 11.166c-.287 3.162-.651 6.38-1.085 8.694z"/><path fill="#63667E" d="M92 106.73s-3.897 2.068-6.941 2.264a5.846 5.846 0 0 1-1.192-.068c-3.189-.472-7.867-3.038-7.867-3.038L81.488 100l6.676 3.237 2.456 2.235L92 106.73z"/><path fill="#000" d="M124 51.954c-.14.196-.299.378-.474.544-1.935 1.822-5.37 1.068-8.006.645a29.353 29.353 0 0 1-6.668-1.91c-1.86-.788-4.093-1.75-5.766-.62-.644.43-1.085 1.12-1.754 1.498-.67.38-1.523.405-2.314.416-2.574 0-5.148.029-7.66-.547-3.747-.868-7.624-3.051-11.187-1.611-2.788 1.123-4.3 4.13-5.053 7.02-.368 1.419-.64 2.917-1.471 4.12-.831 1.203-2.438 2.056-3.806 1.49-2.02-.834-2.317-4.231-4.752-4.403-2.673-.186-2.64 2.552-1.86 4.531 1.154 2.917 2.666 5.833 2.732 8.873a30.718 30.718 0 0 1 1.78-32.968 3.34 3.34 0 0 0 1.327-1.538c.028-.087.05-.174.067-.263.202-1.017-.368-2.085-.401-3.15-.129-2.599 2.71-4.41 5.314-4.738 1.732-.22 3.504-.051 5.24-.106a11.99 11.99 0 0 0 2.593-.343 12.511 12.511 0 0 0 4.045-2.06 31.489 31.489 0 0 1 24.537 4.364c7.215 4.764 12.11 12.284 13.515 20.764l.022-.008z" opacity=".1"/><path fill="#896363" d="M123.806 50.562a4.073 4.073 0 0 1-1.108 1.924c-1.944 1.85-5.395 1.081-8.044.652a28.894 28.894 0 0 1-6.7-1.925c-1.87-.796-4.112-1.773-5.794-.625-.646.436-1.09 1.136-1.762 1.52-.673.386-1.53.412-2.324.419-2.587.018-5.174.033-7.697-.551-3.766-.885-7.66-3.098-11.24-1.64-2.802 1.14-4.32 4.197-5.078 7.132-.37 1.44-.643 2.96-1.478 4.178s-2.45 2.091-3.825 1.518c-2.028-.848-2.327-4.297-4.774-4.471-2.686-.189-2.653 2.59-1.87 4.6 1.375 3.505 3.245 6.991 2.632 10.707-.61 0-1.619-.022-2.217-.037.465-.796-.422-1.743-1.305-2.013-.883-.27-1.914-.267-2.586-.91-.673-.645-.677-1.64-.606-2.532a17.443 17.443 0 0 1 1.378-5.53c.484-1.11 1.108-2.313.739-3.475a9.88 9.88 0 0 0-.798-1.513c-.769-1.48-.588-3.331.07-4.86.28-.651.484-1.265.717-1.85.294-.831.72-1.61 1.26-2.306.846-1.055 1.674-2.642.739-3.623-.237-.248.236-.418.085-.74a.634.634 0 0 1-.056-.174c-.043-.39.051-.783.266-1.11.044-.086.092-.169.145-.249.042-.084.09-.166.144-.244a11.758 11.758 0 0 1 3.196-3.49c.802-.58 1.74-1.14 2.058-2.08.37-1.11-.28-2.29-.336-3.464-.13-2.639 2.723-4.478 5.34-4.811 2.615-.333 5.328.218 7.877-.46 3.618-.954 6.16-4.152 9.445-5.947a13.354 13.354 0 0 1 11.75-.421c3.836 1.754 6.73 5.3 10.735 6.632 1.419.473 2.956.662 4.234 1.447 1.478.91 2.376 2.502 3.145 4.07 1.171 2.38 1.408 4.771 2.217 7.292.643 1.998 1.533 4.611 1.607 6.913a6.939 6.939 0 0 1-.18 2.047z"/><path d="M63.66 45.847a1.653 1.653 0 0 0-.275-1.382c.096.288-.319.455-.091.695.18.191.307.429.366.687zm-.286-2.227a1.533 1.533 0 0 0-.077.398c.07-.118.165-.24.077-.399zm60.009 7.874c-1.932 1.847-5.353 1.083-7.99.65a28.353 28.353 0 0 1-6.64-1.931c-1.859-.798-4.081-1.773-5.753-.628-.638.436-1.078 1.134-1.749 1.518-.671.384-1.518.41-2.306.417-2.567 0-5.134.033-7.642-.554-3.732-.879-7.597-3.084-11.15-1.632-2.78 1.14-4.286 4.188-5.038 7.117-.367 1.437-.634 2.955-1.467 4.174-.832 1.22-2.434 2.083-3.795 1.515-2.013-.85-2.31-4.289-4.737-4.462-1.896-.137-2.424 1.23-2.295 2.748.11-1.16.733-2.054 2.295-1.943 2.427.173 2.724 3.616 4.737 4.462 1.36.572 2.967-.288 3.795-1.515.829-1.226 1.1-2.737 1.467-4.17.752-2.929 2.259-5.98 5.038-7.118 3.553-1.455 7.418.74 11.15 1.633 2.494.587 5.082.569 7.642.55.788 0 1.62-.022 2.306-.413.686-.392 1.1-1.083 1.749-1.522 1.672-1.141 3.894-.166 5.753.628a28.54 28.54 0 0 0 6.64 1.935c2.637.429 6.058 1.2 7.99-.653 1.049-1.009 1.364-2.468 1.294-4.064-.058 1.267-.425 2.416-1.294 3.258zM68.772 33.078c-.02.183-.028.369-.022.554.036.768.326 1.536.418 2.286.135-.92-.286-1.88-.396-2.84zm-7.451 26.206c.03.11.053.223.07.336a2.67 2.67 0 0 0-.07-1.14 9.602 9.602 0 0 0-.792-1.515 4.588 4.588 0 0 1-.48-1.755 4.896 4.896 0 0 0 .48 2.564c.309.478.574.984.792 1.51zm4.55 13.66l-2.145-.034a.933.933 0 0 1-.066.806c.605 0 1.61.022 2.2.037a9.115 9.115 0 0 0 .107-1.914c-.009.37-.04.739-.096 1.105zm-3.509-2.043c-.876-.266-1.895-.27-2.548-.916a2.351 2.351 0 0 1-.609-1.548c-.055.85 0 1.766.609 2.357.653.646 1.672.65 2.548.916a2.18 2.18 0 0 1 1.331 1.108c.37-.765-.48-1.662-1.33-1.917zM129 235a23.422 23.422 0 0 0-1.276-.673 29.5 29.5 0 0 0-2.738-1.186c-4.308-1.611-8.923-2.197-13.6-2.098-1.866.7-3.078 1.2-3.078 1.2l-2.372.704-.396.117c-.026-.257-.056-.513-.082-.773-.026-.26-.056-.508-.086-.765a725.1 725.1 0 0 1-1.492-15.739v-7.69l-.044-20.297-.374-6.69-.175-2.962-.033-.564-.068-1.156-.037-.689a6.1 6.1 0 0 1-.209-.666 4.455 4.455 0 0 1-.074-.3 30.68 30.68 0 0 1-.299-1.35c-.682-3.368-1.537-9.045-1.589-10.198-.067-1.538-1.425-10.732-1.425-10.732-.138-5.063-4.476-14.594-5.57-16.391-1.092-1.797-2.312-12.595-1.902-13.177.213-.312.351-2.153.437-3.851 0-.194.018-.384.026-.571.056-1.329.082-2.438.082-2.438l4.267-.827 1.146-.22.09-.018.036.073c.124.223.508.937.96 1.874.051.1.1.205.152.311a2.9 2.9 0 0 0 .075.154c.835 1.794 1.801 4.155 1.76 5.513-.067 2.4 2.72 8.199 2.72 8.199.268 1.332 6.177 14.59 6.177 14.59s4.823 12.994 4.551 15.128c-.272 2.134 2.31 16.259 2.31 16.259l2.648 14.528c1.287 2.862 2.984 9.458 2.984 9.458l.645 3.741.123.714 1.72 9.981.843 4.89a130.252 130.252 0 0 0 1.04 6.278 39.875 39.875 0 0 0 1.407 5.619c.3.88.54 1.779.72 2.69z" fill="#000" opacity=".1"/><path fill="#63667E" d="M130 236c-.153-.088-.305-.177-.462-.261a23.33 23.33 0 0 0-1.274-.678 29.344 29.344 0 0 0-2.734-1.193c-4.303-1.62-8.91-2.21-13.582-2.11a108.338 108.338 0 0 0-3.073 1.208l-2.37.707c-.03-.258-.055-.516-.085-.777a735.689 735.689 0 0 1-1.565-16.487v-7.804l-.044-20.369-.373-6.43-.074-1.333-.053-.902-.067-1.193-.067-1.212-.048-.872v-.192c0-.018 0-.04-.026-.062a9.64 9.64 0 0 1-.25-.884l-.044-.184a9.4 9.4 0 0 1-.06-.27c-.7-3.14-1.729-9.913-1.784-11.183-.067-1.547-1.423-10.798-1.423-10.798-.138-5.093-4.47-14.683-5.562-16.49-1.092-1.809-2.306-12.673-1.9-13.258.235-.368.373-2.604.462-4.449v-.427c.048-1.138.067-2.025.067-2.025l3.964-.774 1.005-.195.157-.03.372-.073s.488.891 1.073 2.118l.075.154c.853 1.82 1.862 4.294 1.833 5.7-.068 2.417 2.715 8.25 2.715 8.25.268 1.34 6.169 14.679 6.169 14.679s4.817 13.073 4.545 15.22c-.272 2.147 2.306 16.358 2.306 16.358l2.644 14.617c1.286 2.88 2.98 9.516 2.98 9.516l.6 3.506.123.71 1.352 7.925 1.248 7.303s.373 2.604.887 5.524c.048.265.097.53.149.799.33 1.924.8 3.821 1.404 5.679.33.962.594 1.945.79 2.942z"/><path fill="#FED253" d="M126 47.18S124.591 49 123.32 49c-1.273 0-6.225-.203-8.806-1.01-2.58-.806-15.235-1.417-15.235-1.417s-17.92.067-18.525-.54c-.605-.607-11.143-3.84-12.216-3.636-.225.044-.774.14-1.508.262l-.84.137c-1.273.204-2.862.44-4.315.614-1.795.211-3.374.318-3.875.134v-1.55s2.08-3.034 2.212-3.903c.133-.87 1.88-13.473 6.446-17.983a18.018 18.018 0 0 1 8.657-8.138c6.176-2.697 12.352-4.983 12.352-4.983l1.08-.156 3.485-.517a2.56 2.56 0 0 1 .343-.289c.966-.74 3.894-2.349 7.71 1.11l.675 1.08s11.744 2.76 17.179 12.39c5.435 9.628 5.708 19.058 6.11 23.368 0 0-.27 1.213.269 1.683.195.173.38.355.557.547.047.048.095.096.14.148.154.156.298.318.416.452.014.01.027.022.037.037.029.035.06.068.092.1l.24.24z"/><path fill="#000" d="M126 47.277S124.596 49 123.329 49c-1.268 0-6.202-.193-8.774-.956-2.572-.763-15.182-1.341-15.182-1.341s-17.856.063-18.459-.511c-.602-.575-11.103-3.635-12.172-3.443-.225.042-.772.133-1.503.249l-.191-1.12L67 41.6s20.267-4.143 33.777-1.972c13.51 2.171 23.478 4.588 23.478 4.588s-.268 1.148.268 1.593c.194.163.38.336.555.518.048.046.095.091.14.14.154.147.297.301.415.427.014.01.026.022.036.035.03.034.06.065.092.095l.239.252z" opacity=".05"/><path fill="#000" d="M123.79 49.962c-2.51.198-7.137-.423-9.16-.726a24.094 24.094 0 0 1-1.708-.318c-2.17-.48-8.847-1.823-12.902-1.202-4.9.749-18.724-.613-18.724-.613s-8.524-1.77-11.948-3.2c-1.258-.528-3.359-.692-5.45-.43-.532.067-1.061.163-1.584.288-2.854.685-5.261 2.245-4.845 4.906a6.245 6.245 0 0 1-.442-.61c-.18-2.433.564-3.88 1.596-4.734l.244-.101a29.389 29.389 0 0 1 3.841-.835c.203-.033.413-.063.627-.09 3.668-.5 8.973-.613 13.448 1.673 0 0 4.159 1.98 6.979 1.98 2.82 0 25.769.206 31.14 1.77 1.07.314 2.16.548 3.263.7 1.958.256 3.948.066 5.825-.558a7.107 7.107 0 0 1-.2 2.1z" opacity=".1"/><path fill="#000" d="M126 47.074S124.591 49 123.32 49c-1.273 0-6.225-.215-8.806-1.069-2.58-.853-15.235-1.5-15.235-1.5s-17.92.071-18.525-.57c-.605-.643-11.143-4.065-12.216-3.85-.225.048-.774.15-1.508.279l-.84.144a14.161 14.161 0 0 0-4.315.65c-1.795.224-3.374.337-3.875.141V42.9c.387-.238.79-.445 1.206-.618a30.864 30.864 0 0 1 7.632-1.26c3.22-.126 6.984.273 10.291 2.043 0 0 4.16 2.07 6.98 2.07 2.821 0 25.774.212 31.146 1.853 1.07.325 2.16.568 3.264.728 2.42.324 4.876-.051 7.112-1.085a.179.179 0 0 1 .037.04c.029.037.06.072.092.105l.24.298z" opacity=".1"/><path fill="#FED253" d="M58.642 49.014s-4.466-3.475 1.333-5.79c0 0 10.13-3.2 17.796.748 0 0 4.13 1.971 6.93 1.971 2.802 0 25.592.206 30.926 1.773 1.063.311 2.145.544 3.24.696a13.541 13.541 0 0 0 8.227-1.597c.366-.206.695-.31.794-.191.333.411.07 2.794-2.863 3.27-2.288.374-7.487-.333-9.672-.659a25.909 25.909 0 0 1-1.692-.318c-2.156-.479-8.786-1.822-12.832-1.2-4.862.748-18.595-.614-18.595-.614s-8.46-1.77-11.862-3.203c-3.4-1.432-12.997-.198-11.73 5.114z"/><path fill="#000" d="M96 13c-.367-.558-5.079-4.544-7-6.156l3.465-.542c.106-.11.22-.212.341-.302C95.326 8.793 96 13 96 13zM80.535 33.51L79 36l5.868-.217L85 33zM117 36l.606 2.324L121 39l-1.454-2.777zm-65 69c.39.687 13.224 18.484 16.613 17.99C72.003 122.496 52 105 52 105zm44 17s3.455 2.766 2.95 3.845C98.442 126.925 96 122 96 122zm-35.004 20s-3.18 13.56-1.513 13.99c1.667.432 1.513-13.99 1.513-13.99zM97 193c.44 1.4 4.099 10.497 4.92 10.985C102.74 204.473 97 193 97 193zm46-35c-.143.43-3.663 2.958-2.89 3.882.774.924 2.89-3.882 2.89-3.882zm-26.808 24c-.054.345-.6 7.497.438 8.873 1.038 1.376-.438-8.873-.438-8.873z" opacity=".1"/><path fill="#000" d="M150.955 219.07a63.663 63.663 0 0 1-2.988 1.557c-1.1.535-2.2 1.045-3.322 1.524-.448.195-.895.385-1.339.568a121.105 121.105 0 0 1-7.66 2.843c-.666.223-1.304.429-1.898.619-2.992.949-4.98 1.465-4.98 1.465a5.402 5.402 0 0 0-1.382-.113h-.396a17.41 17.41 0 0 0-1.851.234c-4.096.733-9.882 2.788-13.369 4.132-1.833.7-3.025 1.202-3.025 1.202l-2.332.703-.388.117c-2.527.77-6.08 1.861-7.36 2.316-2.067.732-20.022 4.465-20.022 4.465a29.77 29.77 0 0 1-5.009.916 91.55 91.55 0 0 1-12.547.286c-4.202.27-11-.652-14.956-1.275l-.63-.099c-1.53-.25-2.501-.429-2.501-.429l.513-.707 10.527-14.51.062-.088 9.808-13.514.367-.49.891-1.228s.535-.732 2.596-.78h.796c1.73.14 3.438.487 5.085 1.037l.477.143c7.102 2.033 18.08 1.524 18.08 1.524s6.83-1.1 12.198-1.759l.4-.051c1.754-.248 3.52-.4 5.29-.458 3.271.066 10.348-1.667 10.348-1.667 1.522-.326 2.163-.6 3.021-1.212.114-.08.235-.169.367-.264.367-.275.788-.612 1.33-1.03a76.68 76.68 0 0 1 4.566-3.23c.19-.125.392-.25.608-.367.217-.117.492-.274.756-.406a28.65 28.65 0 0 1 6.644-2.198 38.98 38.98 0 0 1 5.782-.795h.29c5.5-.293 11.116.648 14.402 3.736a9.01 9.01 0 0 1 1.488 1.832c.201.32.38.652.536.996.3.656.522 1.345.663 2.052.027.132.05.264.066.395v.118c0 .106.022.212.03.318.293 4.385-4.261 8.349-10.032 11.573z" opacity=".1"/><path fill="#FFA2A2" d="M43 239.106s11.88 2.197 18.087 1.798c0 0 11.414.6 17.556-1.198 0 0 17.966-3.734 20.023-4.466 2.057-.732 10.08-3.134 10.08-3.134s15.62-6.532 20.023-5.466c0 0 34.576-8.93 32.105-20.993-2.472-12.064-24.295-9.33-31.166-4.8-6.872 4.529-5.867 5-9.277 5.733 0 0-7.076 1.732-10.347 1.666-3.27-.066-17.89 2.266-17.89 2.266s-11.48.535-18.552-1.666c-7.073-2.2-8.477-.267-8.477-.267L43 239.106z"/><path fill="#000" d="M67.999 208.08a.18.18 0 0 1 0 .045 2.48 2.48 0 0 1-.21.788c-1.408 3.456-9.402 12.777-9.402 12.777a25.532 25.532 0 0 1-1.316 3.235 49.617 49.617 0 0 1-3.796 6.438 87.168 87.168 0 0 1-6.905 8.756h-.018c-.317.235-.646.452-.987.65-.861.513-2.156 1.148-3.377 1.225a3.512 3.512 0 0 1-.624-.019c.129 0 .253-.029.367-.05l-.447-.133-.613-.19a55.007 55.007 0 0 1-3.054-1.06l-.613-.236a47.659 47.659 0 0 1-2.871-1.214l-.612-.279a53.323 53.323 0 0 1-2.872-1.441c-.337-.176-.67-.367-1-.547a60.946 60.946 0 0 1-5.919-3.782c-.734-1.36-1.34-2.568-1.67-3.217-.6-1.207-.652-2.934-.579-4.185 0-.129 0-.25.022-.367.063-.785.158-1.324.158-1.324a18.856 18.856 0 0 1-1.467-2.29 2.693 2.693 0 0 1-.41-1.316 1.567 1.567 0 0 0-.052-.558c-.282-1.159-1.496-3.15-2.618-4.402-.836-.92-.888-4.361-.807-6.8.048-1.468.14-2.547.14-2.547a.855.855 0 0 1-.349-.45 10.905 10.905 0 0 1-.594-2.488c0-.12-.033-.242-.051-.367a51.311 51.311 0 0 1-.341-3.374c-2.714-1.978-4.005-5.063-4.606-7.814l-.077-.367c-.33-1.69-.47-3.413-.418-5.135V185.583s.36-7.949 1.364-11.052c.04-.132.084-.253.128-.367.074-.195.17-.38.286-.554.367-.488.627-1.409.844-2.498a28.7 28.7 0 0 0 .366-2.432c.085-.697.15-1.39.202-2.032.143-1.717.187-3.056.187-3.056l-.678-3.345a29.43 29.43 0 0 1-.43-2.755c0-.121-.029-.242-.043-.367a31.01 31.01 0 0 1-.092-5.117c0-.125 0-.246.022-.367a31.023 31.023 0 0 1 2.992-11.188l.184-.367c.244-.49.5-.97.77-1.442a30.256 30.256 0 0 1 2.446-3.68 29.885 29.885 0 0 1 4.092-4.285c3.704-3.183 7.103-4.566 10.191-4.672 13.502-.477 21.075 23.41 22.3 27.596.117.404.176.624.176.624s5.471 5.477 3.869 7.88c-.311.528-.5 1.12-.554 1.73-.44 3.233.821 8.555.821 8.555s.448 1.468 1.753 4.982l.385 1.027c.818 2.2 1.009 5.895.54 9.203-.452 3.17-1.512 5.972-3.21 6.691-3.472 1.468-2.537 2.935-1.738 4.142a16.49 16.49 0 0 1 1.185 2.707 81.747 81.747 0 0 1 1.221 3.57 7.248 7.248 0 0 1 1.507-.404c.657-.092 1.306-.026 1.43.535.066.301.444.657.976 1.013 1.577 1.086 4.496 2.223 4.496 2.223z" opacity=".1"/><path fill="#CED7E7" d="M67 207.127a2.42 2.42 0 0 1-.209.807c-1.401 3.461-9.403 12.81-9.403 12.81a26.107 26.107 0 0 1-1.317 3.237 46.769 46.769 0 0 1-2.996 5.237 86.299 86.299 0 0 1-7.621 9.873l-.085.092s-.322.246-.836.562A9.531 9.531 0 0 1 41.544 241l-.447-.132-.613-.191a54.996 54.996 0 0 1-3.055-1.06l-.612-.236a47.651 47.651 0 0 1-2.872-1.214l-.612-.28a53.318 53.318 0 0 1-2.872-1.442c-.337-.176-.67-.367-1-.547a60.95 60.95 0 0 1-7.254-4.779c-.496-.939-.892-1.732-1.138-2.224-.601-1.207-.653-2.936-.58-4.187 0-.129 0-.25.023-.367.062-.786.157-1.325.157-1.325s-.297-.4-.656-.944a15.5 15.5 0 0 1-.613-.994c-.366-.646-.652-1.3-.597-1.67a.82.82 0 0 0 0-.191 1.781 1.781 0 0 0-.055-.367c-.283-1.16-1.5-3.153-2.623-4.405-.836-.92-.887-4.364-.81-6.804v-.367a55.17 55.17 0 0 1 .128-2.18c-.414-.18-.733-1.513-.939-2.937l-.055-.367a51.46 51.46 0 0 1-.34-3.376c-2.715-1.979-4.006-5.066-4.603-7.818a22.428 22.428 0 0 1-.477-5.873v-.091s.315-7.994 1.32-11.103a5.29 5.29 0 0 1 .128-.367c.088-.19.198-.37.327-.536.557-.778.928-2.65 1.17-4.566l.044-.367c.304-2.57.389-5.09.389-5.09l-.683-3.348a30.557 30.557 0 0 1-.429-2.756c-.018-.121-.029-.246-.044-.367a31.05 31.05 0 0 1-.091-5.12c0-.125 0-.246.025-.367a30.978 30.978 0 0 1 2.993-11.195c.059-.125.117-.246.183-.367a28.9 28.9 0 0 1 1.57-2.775 28.363 28.363 0 0 1 1.658-2.349l.293-.367a29.932 29.932 0 0 1 3.766-3.909c4.035-3.46 7.702-4.797 11.003-4.675 13 .466 20.3 23.508 21.498 27.611.118.404.176.624.176.624s5.476 5.48 3.873 7.884c-.31.53-.5 1.12-.554 1.732-.443 3.234.822 8.56.822 8.56s.447 1.468 1.753 4.984c.117.326.246.668.367 1.027.817 2.203 1.008 5.899.539 9.21-.451 3.174-1.508 5.974-3.21 6.694-3.469 1.468-2.537 2.936-1.734 4.144a16.5 16.5 0 0 1 1.185 2.708 96.357 96.357 0 0 1 1.217 3.571 7.22 7.22 0 0 1 .734-.238 3.749 3.749 0 0 1 1.584-.165.7.7 0 0 1 .627.536c.1.44.858.987 1.779 1.504A33.956 33.956 0 0 0 67 207.127z"/><path fill="#000" d="M19 172.157c1.273-.065 14.942-5.284 17.758-3.502C39.573 170.437 57 182 57 182s-10.92-14.07-20.434-17.374C27.053 161.324 19 172.157 19 172.157zM39 194s13.89 2.97 16 5l-16-5zm-3 20c-.208.197-5.392 11-4.976 11 .416 0 4.837-6.437 4.837-6.437L36 214zm10-13s-4.479 1.815-3.958 1.986c.521.17 3.806-1.209 3.958-1.986zm-4 17c.605 1.398 2.538 5.595 2.963 4.929C45.388 222.263 42 218 42 218zm49-111.386l-.566.827s-4.499-3.25-6.346-4.878c-1.848-1.627-6.212 5.827-9.65 7.86C71 112.456 65.188 113 65.188 113s-4.495-4.61-4.357-5.957c.138-1.348-2.113-1.762-2.248-2.711-.134-.95-.925-3.66-1.982-5.016-.559-.714-.639-2.952-.588-4.9.363-.074.588-.115.588-.115a12.108 12.108 0 0 1 2.117-2.848c1.19-1.084 3.038-7.727 3.038-7.727 1.057-3.66 3.17-2.576 3.17-2.576 0 5.559 5.554 7.592 8.328 9.897 2.774 2.305 7.138 8.27 10.576 9.49 2.82.987 6.12 4.804 7.17 6.077z" opacity=".1"/><path fill="#CED7E7" d="M92 105.611l-.582.83s-4.643-3.242-6.543-4.88c-1.9-1.639-6.386 5.826-9.92 7.859-3.535 2.033-9.51 2.58-9.51 2.58s-4.62-4.613-4.479-5.957c.142-1.344-2.172-1.761-2.31-2.714-.138-.953-.952-3.66-2.038-5.015-.575-.715-.657-2.953-.605-4.9l.605-.112a12.137 12.137 0 0 1 2.176-2.848c1.224-1.087 3.124-7.725 3.124-7.725 1.086-3.66 3.258-2.58 3.258-2.58 0 5.558 5.71 7.595 8.562 9.9 2.851 2.304 7.338 8.265 10.872 9.486 2.919 1.002 6.311 4.803 7.39 6.076z"/><path fill="#000" d="M92 106.753s-3.834 2.047-6.828 2.241a5.714 5.714 0 0 1-1.172-.067s3.305-2.43 6.374-2.927l1.626.753zm7.984 11.137S94.734 115.688 93 119c.058-1.52.081-2.78.081-2.78l5.724-1.22s.55 1.098 1.195 2.576c-.016.196-.016.313-.016.313z" opacity=".1"/><path fill="#63667E" d="M83 108.407s6.079-3.7 9-3.388c3.064.323 9 .551 9 .551s-2.047 4.707-1.774 5.677c.274.97.341 5.677.341 5.677s-6.142-2.422-7.166 2.076c0 0-3.345-5.053-5.599-6.578A15.452 15.452 0 0 1 83 108.407z"/><path fill="#000" d="M117.65 113c-1.71 0-7.765-3.87-9.08-6.4-1.317-2.53-3.16.263-4.87 1.2-1.085.601-5.383-.655-7.7-1.567 1.175-.809 3.778-3.086 4.54-3.632.919-.67 1.844-11.468 1.844-11.468 3.29-1.732 6.843 13.998 6.843 13.998s6.189 1.868 6.713 3.2c.101.264.567.733 1.269 1.3.723 1.846 1.12 3.369.44 3.369z" opacity=".1"/><path fill="#CED7E7" d="M117.636 112c-1.78 0-8.078-3.869-9.447-6.4-1.37-2.531-3.287.264-5.066 1.198-1.128.6-4.712-.56-7.123-1.465 1.222-.806 3.042-3.18 3.836-3.73.955-.666 1.918-11.47 1.918-11.47 3.422-1.733 7.12 14.005 7.12 14.005s6.437 1.869 6.983 3.202c.105.264.59.733 1.32 1.3.752 1.836 1.166 3.36.459 3.36z"/><path fill="#0E0E0E" d="M141.295 229.543l58.35-48.803a3.12 3.12 0 0 1 2.085-.74l21.768.574s1.508 1.109-.704 3.534l-55.043 45.31a3.495 3.495 0 0 1-2.1.79l-23.803.792a.826.826 0 0 1-.553-1.457z"/><path fill="#FFA2A2" d="M169 223.397s12.84 18.466 27.106 1.29c14.266-17.176 10.14-26.2 5.815-26.678-4.326-.477-28.666 18.328-32.921 25.388z"/><path fill="#0E0E0E" d="M255 19.983s16.519-31.617 36.043-15.312c0 0 4.262 1.532 3.94 5.977 0 0-1.642-.889-2.947 2.507a16.332 16.332 0 0 1-1.853 3.41 8.143 8.143 0 0 1-4.114 3.064s-8.761 6.473-24.99 1.48c0 0-4.59.65-5.33.088l5.333-3.846s2.71 3.966 6.671 4.42c0 0-6.671-4.13-5.908-5.026.156-.183 2.92-1.912 2.92-1.912s4.741 6.875 10.886 7.383c0 0-8.61-3.87-9.844-8.041l4.325-2.38s4.648 7.512 11.627 8.353c0 0-8.858-4.354-10.644-8.81l4.577-1.761s4.68 7.237 10.488 7.899c0 0-9.717-6.05-9.413-8.236 0 0 4.302-1.367 5.622-1.188 0 0 3.48 5.118 6.89 5.21 0 0-6.06-4.723-5.66-5.45 0 0 6.086-.311 9.266 1.14 0 0-4.522-2.482-9.266-2.08 0 0 2.146-2.49 4.944-3.038 0 0-3.354-1.36-6.419 3.13 0 0-4.733.427-5.318.946 0 0 2.394-4.854 5.34-6.92 0 0-4.391.765-6.567 7.344l-4.64 1.67s2.82-6.579 5.307-8.611c0 0-4.358 1.462-6.441 9.138l-4.27 2.288s1.99-5.848 4.262-8.703c0 0-3.747 2.215-5.463 9.401l-2.668 1.853s1.53-4.247 2.083-5.428c.552-1.18.274-1.425.274-1.425a15.208 15.208 0 0 0-3.495 7.592s-5.24 4.167-5.548 3.874zm68 16.707s7.434-13.75 16.22-6.659c0 0 1.92.665 1.772 2.596 0 0-.738-.383-1.325 1.094a6.93 6.93 0 0 1-.827 1.48 3.678 3.678 0 0 1-1.846 1.334s-3.946 2.813-11.251.643c0 0-2.064.282-2.396.039l2.4-1.674s1.218 1.727 3.004 1.92c0 0-2.997-1.794-2.658-2.184.067-.077 1.31-.83 1.31-.83s2.134 2.99 4.903 3.211c0 0-3.876-1.685-4.43-3.517l1.95-1.03s2.089 3.267 5.23 3.633c0 0-3.987-1.893-4.799-3.83l2.06-.767s2.104 3.147 4.718 3.436c0 0-4.375-2.63-4.234-3.58 0 0 1.934-.595 2.528-.518 0 0 1.565 2.227 3.101 2.262 0 0-2.728-2.05-2.547-2.367 0 0 2.739-.134 4.164.496 0 0-2.034-1.08-4.164-.904a4.61 4.61 0 0 1 2.215-1.322s-1.51-.591-2.89 1.36c0 0-2.13.187-2.393.412 0 0 1.078-2.11 2.404-3.007 0 0-1.979.33-2.954 3.194l-2.067.738s1.266-2.86 2.389-3.746c0 0-1.964.637-2.902 3.971l-1.92.992s.894-2.546 1.916-3.784c0 0-1.687.963-2.454 4.087l-1.204.805s.69-1.847.938-2.36c.247-.514.122-.619.122-.619a6.54 6.54 0 0 0-1.573 3.31s-2.38 1.81-2.51 1.684zm-80 17s7.426-13.75 16.223-6.659c0 0 1.913.665 1.77 2.6 0 0-.738-.387-1.324 1.09a7.078 7.078 0 0 1-.826 1.48 3.676 3.676 0 0 1-1.862 1.334s-3.938 2.813-11.234.643c0 0-2.061.285-2.393.039l2.396-1.674s1.217 1.727 2.998 1.924c0 0-2.994-1.798-2.655-2.188.07-.077 1.313-.83 1.313-.83s2.131 2.99 4.892 3.211c0 0-3.867-1.685-4.424-3.517l1.947-1.027s2.09 3.264 5.228 3.63c0 0-3.982-1.893-4.793-3.83l2.057-.767s2.105 3.147 4.716 3.436c0 0-4.37-2.63-4.233-3.58 0 0 1.936-.595 2.53-.518 0 0 1.563 2.227 3.096 2.265 0 0-2.724-2.054-2.544-2.37 0 0 2.733-.134 4.16.496 0 0-2.036-1.08-4.163-.904a4.603 4.603 0 0 1 2.212-1.322s-1.504-.591-2.883 1.36c0 0-2.128.187-2.39.412 0 0 1.074-2.11 2.4-3.007 0 0-1.975.33-2.949 3.194l-2.09.738s1.268-2.86 2.385-3.742c0 0-1.958.633-2.894 3.967l-1.92.992s.895-2.546 1.916-3.784c0 0-1.685.963-2.455 4.087l-1.202.805s.69-1.847.936-2.36c.247-.514.126-.619.126-.619a6.51 6.51 0 0 0-1.57 3.31s-2.368 1.81-2.497 1.684z" opacity=".1"/></g></svg>