<svg width="683" height="420" viewBox="0 0 683 420" xmlns="http://www.w3.org/2000/svg"><g fill="none" fill-rule="evenodd"><path d="M682.903 269.559a139.822 139.822 0 0 1-4.096 33.739 131.47 131.47 0 0 1-3.204 10.926 129.024 129.024 0 0 1-5.167 12.93 118.362 118.362 0 0 1-3.123 6.268 84.324 84.324 0 0 1-7.05 33.884 87.354 87.354 0 0 1-42.394 43.68 89.173 89.173 0 0 1-37.846 8.69H130.107a113.36 113.36 0 0 1-57.015-15.242l-.267-.15a116.317 116.317 0 0 1-7.218-4.589 113.203 113.203 0 0 1-14.813-12.212 110.231 110.231 0 0 1-16.284-20.177 107.67 107.67 0 0 1-16.563-57.485C6.969 290.559.567 267.485.567 242.691c0-31.283 10.173-59.82 26.887-81.423a114.472 114.472 0 0 1 11.418-12.704 106.257 106.257 0 0 1 13.057-10.688 101.6 101.6 0 0 1 11.587-6.952 96 96 0 0 1 5.063-2.404 91.576 91.576 0 0 1 4.553-1.871 96.555 96.555 0 0 1 5.596-1.93 87.486 87.486 0 0 1 5.59-1.54 90.496 90.496 0 0 1 8.25-1.61c2.317-.343 4.634-.58 6.952-.76a88.673 88.673 0 0 1 5.573-.237h1.013c2.063 0 4.114.081 6.147.22.214-.429.446-.863.66-1.286a182.615 182.615 0 0 1 2.497-4.594.145.145 0 0 1 0-.04c.145-.267.29-.528.44-.783a115.816 115.816 0 0 1 2.127-3.667c.336-.579.666-1.124 1.008-1.668.072-.135.151-.267.237-.394.348-.58.701-1.159 1.06-1.738a194.92 194.92 0 0 1 5.579-8.423l.492-.707c.302-.429.58-.846.916-1.274.8-1.118 1.622-2.242 2.45-3.343.58-.788 1.159-1.57 1.784-2.317a304.176 304.176 0 0 1 4.635-5.793 150.53 150.53 0 0 1 4.936-5.718c.231-.26.463-.516.706-.77l2.474-2.7c.122-.128.226-.243.342-.36.295-.318.58-.637.898-.944a211.05 211.05 0 0 1 4.055-4.16 220.833 220.833 0 0 1 22.188-19.33c.307-.244.62-.476.926-.707a234.8 234.8 0 0 1 30.188-19.326 44.63 44.63 0 0 1 1.871-1.008 245.628 245.628 0 0 1 24.615-11.332 258.854 258.854 0 0 1 13.985-5.074 272.44 272.44 0 0 1 9.483-2.932A264.413 264.413 0 0 1 267.88 6.54 268.423 268.423 0 0 1 313.204.365 286.11 286.11 0 0 1 327.264 0a269.38 269.38 0 0 1 67.78 8.574 2.445 2.445 0 0 0 2.102 1.095h1.947c.845.231 1.685.463 2.531.706a255.7 255.7 0 0 1 13.967 4.455l1.16.417a249.358 249.358 0 0 1 32.968 14.483 237.917 237.917 0 0 1 27.604 17.055c1.355.973 2.692 1.954 4.009 2.943a107.465 107.465 0 0 1 4.877-2.943 95.945 95.945 0 0 1 20.207-8.614 92.168 92.168 0 0 1 45.325-1.773c19.262 4.084 36.7 14.222 50.782 28.641a118.498 118.498 0 0 1 15.23 19.338c.319.498.638 1.002.945 1.512a127.448 127.448 0 0 1 9.697 19.331c.099.25.197.481.284.724a133.873 133.873 0 0 1 5.967 19.32c.07.336.15.666.22 1.002a139.098 139.098 0 0 1 2.85 19.332c0 .232 0 .47.047.713.243 3.363.367 6.762.37 10.195 0 3.07-.104 6.118-.295 9.142 0 .33-.046.672-.075 1.014-.052.875-.128 1.738-.203 2.618a109.947 109.947 0 0 1 12.386 11.685 109.984 109.984 0 0 1 4.9 5.735 122.009 122.009 0 0 1 12.63 19.332c9.796 18.491 15.427 40.244 15.427 63.527z" fill="#007BFF" opacity=".1"/><path d="M617.44 408.842c0 3.957-13.63 7.665-37.417 10.851H130.107a113.36 113.36 0 0 1-57.015-15.242l-.267-.15c6.836-2.491 19.175-4.814 35.97-6.911l.753-.093c7.53-.921 15.948-1.796 25.147-2.624.232 0 .47-.035.701-.064 7.3-.649 15.064-1.257 23.294-1.825.261 0 .516-.046.777-.058a992.78 992.78 0 0 1 9.72-.649l1.275-.08c24.07-1.495 51.431-2.689 81.104-3.477h.034c4.156-.116 8.356-.218 12.6-.307 4.72-.112 9.497-.21 14.332-.295 3.69-.081 7.427-.14 11.175-.197h.087c16.91-.255 34.382-.383 52.248-.383 44.178 0 85.935.806 122.936 2.254h.104c5.689.22 11.273.463 16.719.713l4.634.22c6.145.293 12.131.608 17.959.944 68.532 3.899 113.047 10.23 113.047 17.373z" fill="#007BFF" opacity=".1"/><g opacity=".2" transform="translate(360.331 228.248)"><path d="M34.342 156.431c-.019.625-.09 1.247-.215 1.86a390.562 390.562 0 0 0-12.165-1.738v-.498a9.779 9.779 0 0 1 1.448-4.913c1.193-1.888 3.007-3.07 5.005-3.007 1.999.064 3.73 1.356 4.803 3.308a9.773 9.773 0 0 1 1.124 4.988z" fill="#3F3D56"/><ellipse fill="#3F3D56" transform="rotate(-88.19 28.479 146.336)" cx="28.479" cy="146.336" rx="8.116" ry="6.199"/><ellipse fill="#3F3D56" transform="rotate(-88.19 28.795 136.418)" cx="28.795" cy="136.418" rx="8.116" ry="6.199"/><ellipse fill="#3F3D56" transform="rotate(-88.19 29.105 126.5)" cx="29.105" cy="126.5" rx="8.116" ry="6.199"/><ellipse fill="#3F3D56" transform="rotate(-88.19 29.415 116.582)" cx="29.415" cy="116.582" rx="8.116" ry="6.199"/><path d="M8.33 47.961a28.769 28.769 0 0 1-2.2-3.476l16.37-2.16-17.622-.423a29.765 29.765 0 0 1 .18-23.544l23.241 13.006L7.01 14.657A29.707 29.707 0 1 1 55 49.415a29.429 29.429 0 0 1 3.216 5.521L36.728 65.248l22.785-6.854a29.742 29.742 0 0 1-5.69 27.755c9.194 12.474 7.256 29.92-4.452 40.07-11.708 10.152-29.252 9.599-40.297-1.27-11.045-10.869-11.88-28.401-1.92-40.271C-.98 73.638-.5 58.466 8.314 47.96h.016z" fill="#007BFF"/><path d="M60.775 67.994a29.545 29.545 0 0 1-6.951 18.155c9.193 12.474 7.255 29.92-4.453 40.07-11.708 10.152-29.252 9.599-40.297-1.27-11.045-10.869-11.88-28.401-1.92-40.271-3.806-5.173 53.726-20.015 53.621-16.684z" fill="#000" opacity=".1"/></g><g opacity=".2" transform="translate(272.276 228.248)"><path d="M34.342 156.431c-.019.625-.09 1.247-.215 1.86a390.562 390.562 0 0 0-12.165-1.738v-.498a9.779 9.779 0 0 1 1.448-4.913c1.193-1.888 3.007-3.07 5.005-3.007 1.999.064 3.73 1.356 4.803 3.308a9.773 9.773 0 0 1 1.124 4.988z" fill="#3F3D56"/><ellipse fill="#3F3D56" transform="rotate(-88.19 28.472 146.338)" cx="28.472" cy="146.338" rx="8.116" ry="6.199"/><ellipse fill="#3F3D56" transform="rotate(-88.19 28.788 136.42)" cx="28.788" cy="136.42" rx="8.116" ry="6.199"/><ellipse fill="#3F3D56" transform="rotate(-88.19 29.099 126.502)" cx="29.099" cy="126.502" rx="8.116" ry="6.199"/><ellipse fill="#3F3D56" transform="rotate(-88.19 29.409 116.584)" cx="29.409" cy="116.584" rx="8.116" ry="6.199"/><path d="M8.33 47.961a28.769 28.769 0 0 1-2.2-3.476l16.37-2.16-17.622-.423a29.765 29.765 0 0 1 .18-23.544l23.241 13.006L7.01 14.657A29.707 29.707 0 1 1 55 49.415a29.429 29.429 0 0 1 3.216 5.521L36.728 65.248l22.785-6.854a29.742 29.742 0 0 1-5.69 27.755c9.194 12.474 7.256 29.92-4.452 40.07-11.708 10.152-29.252 9.599-40.297-1.27-11.045-10.869-11.88-28.401-1.92-40.271C-.98 73.638-.5 58.466 8.314 47.96h.016z" fill="#007BFF"/><path d="M60.775 67.994a29.545 29.545 0 0 1-6.951 18.155c9.193 12.474 7.255 29.92-4.453 40.07-11.708 10.152-29.252 9.599-40.297-1.27-11.045-10.869-11.88-28.401-1.92-40.271-3.806-5.173 53.726-20.015 53.621-16.684z" fill="#000" opacity=".1"/></g><g opacity=".2" transform="translate(481.407 90.952)"><path d="M65.74 300.065a21.608 21.608 0 0 1-.423 3.523 678.527 678.527 0 0 0-23.456-3.326v-.956a18.828 18.828 0 0 1 2.792-9.46c2.317-3.632 5.793-5.909 9.634-5.793 3.841.116 7.184 2.613 9.27 6.373a18.845 18.845 0 0 1 2.183 9.64z" fill="#3F3D56"/><ellipse fill="#3F3D56" transform="rotate(-88.19 54.437 280.615)" cx="54.437" cy="280.615" rx="15.63" ry="11.94"/><ellipse fill="#3F3D56" transform="rotate(-88.19 55.039 261.521)" cx="55.039" cy="261.521" rx="15.63" ry="11.94"/><ellipse fill="#3F3D56" transform="rotate(-88.19 55.647 242.427)" cx="55.647" cy="242.427" rx="15.63" ry="11.94"/><ellipse fill="#3F3D56" transform="rotate(-88.282 55.564 222.483)" cx="55.564" cy="222.483" rx="15.637" ry="11.945"/><path d="M15.659 91.247a57.508 57.508 0 0 1-4.235-6.68l31.514-4.159-33.918-.817a57.294 57.294 0 0 1 .336-45.325l44.752 25.032-40.98-32.163A57.19 57.19 0 1 1 105.51 94.08a57.184 57.184 0 0 1 6.193 10.63l-41.369 19.865 43.86-13.208a57.207 57.207 0 0 1-10.909 53.383c17.696 24.014 13.962 57.596-8.577 77.137-22.538 19.54-56.31 18.476-77.573-2.446-21.263-20.921-22.874-54.672-3.7-77.524-15.651-21.251-14.732-50.45 2.224-70.676v.006z" fill="#007BFF"/><path d="M116.633 129.806a56.97 56.97 0 0 1-13.325 34.956c17.696 24.014 13.962 57.596-8.576 77.136-22.539 19.541-56.311 18.476-77.574-2.445-21.263-20.922-22.874-54.672-3.7-77.524-7.381-9.97 103.377-38.536 103.175-32.123z" fill="#000" opacity=".1"/></g><path fill="#F1C0C0" d="M92.006 392.037l6.077-.018h8.568l10.833-175.983L224.767 37.012l-4.664-5.005V19.332L104.08 211.889z"/><path fill="#000" opacity=".1" d="M98.732 392.02h7.919l10.833-175.984L224.767 37.012l-4.664-5.005-110.66 181.347z"/><path fill="#F1C0C0" d="M74.1 393.502l277.982 21.273.237.017 269.026-16.545.203-.012v-11.36l-296.433-5.44-247.314-.237h-1.807l-.197 1.274z"/><path fill="#000" opacity=".1" d="M74.1 393.502l277.982 21.273.237.017 269.026-16.545.203-.22v-10.914h-.238l-269.228 8.99-274.28-14.905h-.041l-.487.318-1.477.956z"/><path fill="#000" opacity=".1" d="M74.1 393.502l277.982 21.273v-18.672L77.274 381.516l-1.477.956z"/><path fill="#F1C0C0" d="M220.068 31.77l122.554 131.538-3.79 231.376 10.411 1.257.174.023h10.41l1.246-222.721 229.482 76.654 3.87 136.486 8.376.938 2.839.319-6.57-147.209-239.892-84.22L227.64 19.465h-7.572z"/><path fill="#000" opacity=".1" d="M360.128 168.985l.945 4.258 229.482 76.654 3.87 136.486 8.376.938-6.569-140.263zM220.068 31.77l122.554 131.538-3.79 231.376 10.411 1.257 2.839-240.205L220.068 19.465z"/><path fill="#F1C0C0" d="M360.574 261.842l84.168 16.575.03.005 147.416 29.041 6.75-2.705-.024-.475-.44-9.414-237.813-48.054z"/><path fill="#000" opacity=".1" d="M444.771 278.422l147.417 29.041 6.75-2.705-.024-.475z"/><path fill="#F1C0C0" d="M450.408 203.083l2.277 125.328 1.176 64.298 10.364-.348 6.523-.22-2.028-187.245-4.495-1.494-.985-.319z"/><path fill="#000" opacity=".1" d="M450.5 203.054v.029l2.185 125.328 1.176 64.298 10.364-.348V203.054z"/><path d="M288.068 235.09c.608.33 1.189.708 1.738 1.13a11.5 11.5 0 0 1 1.738 1.906c2.485 3.215 4.779 6.951 4.536 11.006a4.478 4.478 0 0 1-1.292 3.187c-1.026.874-2.497.915-3.841.915-1.46 0-2.995 0-4.258-.753s-2.317-2.219-3.812-2.184a1.952 1.952 0 0 1-.637 0c-.516-.168-.62-.846-.956-1.275-.58-.77-1.802-.579-2.711-.243-.91.336-1.918.84-2.815.452a2.926 2.926 0 0 1-1.223-1.222c-2.15-3.476-2.607-7.653-3.012-11.69-.25-2.457-2.15-10.834 3.093-8.928 2.318.834 4.484 2.503 6.593 3.725l6.859 3.974z" fill="#3F3D56"/><path d="M282.889 235.918c.963.693 2.275.64 3.18-.127a4.79 4.79 0 0 0 1.547-3c.58-.18.875.578 1.246 1.042.648.788 1.97.776 2.56 1.616.411.58.319 1.385.608 2.04.377.845 1.31 1.285 1.947 1.969A6.708 6.708 0 0 1 295.25 242l.95 2.85c.455 1.186.747 2.427.87 3.69a4.78 4.78 0 0 1-1.101 3.529c-1.275 1.372-3.366 1.517-5.214 1.477a6.708 6.708 0 0 1-1.83-.215c-1.64-.51-2.689-2.16-3.123-3.823-.435-1.663-.388-3.406-.643-5.11a20.027 20.027 0 0 0-1.449-4.854c-.51-1.205-1.911-3.001-1.888-4.281.417 0 .718.382 1.066.654z" fill="#3F3D56"/><path d="M284.969 230.05a9.564 9.564 0 0 1-.47-2.543c0-1.738.794-3.372 1.593-4.924l-6.621.898c-.8.11-1.692.272-2.144.938a2.317 2.317 0 0 0 0 2.138c.332.66.596 1.354.788 2.068.015.625.087 1.247.215 1.86.206.45.495.856.851 1.199 1.895 2.097 3.314 4.57 4.727 7.02-.04-.069 3.992-3.191 3.83-4.21-.093-.58-1.257-1.275-1.628-1.831a9.321 9.321 0 0 1-1.141-2.613z" fill="#BE6F72"/><path fill="#F1C0C0" d="M341.741 207.416v5.706l-97.712 19.06-5.07 3.07H221.47v-3.215l96.004-23.196z"/><path fill="#000" opacity=".1" d="M341.741 213.122l-97.712 19.06-5.07 3.07H221.47l96.716-20.699z"/><path d="M263.29 369.403a7.572 7.572 0 0 0-9.21-1.958c-.328.154-.617.38-.846.66-.58.811-.209 1.93-.156 2.932.133 2.444-1.814 4.431-3.563 6.14-.939.916-1.895 1.895-2.317 3.14-.423 1.246-.11 2.827 1.025 3.476a4.27 4.27 0 0 0 1.587.44 17.13 17.13 0 0 0 5.62.157c1.848-.354 3.66-1.402 4.46-3.105.154-.462.41-.884.748-1.234 1.02-.805 2.583.139 3.742-.435.956-.475.996-1.222 1.008-2.207.035-2.723-.37-5.805-2.097-8.006zM277.194 369.299c.713 1.877.811 3.922.904 5.926.052 1.159.087 2.398-.539 3.377-.625.98-1.848 1.495-3.018 1.738-2.416.499-5.214.03-6.772-1.888-1.194-1.466-1.443-3.476-1.223-5.376.186-1.558.58-3.383-.538-4.49-.29-.295-.666-.504-.933-.822-.58-.707-.487-1.773-.174-2.642.408-.831.713-1.708.91-2.613.046-.428 7.844.301 8.562.655.979.48.828 1.286 1.124 2.26.411 1.355 1.199 2.577 1.697 3.875z" fill="#007BFF"/><path d="M278.625 286.075c1.53.99 2.12 2.937 2.358 4.745.655 4.953-.493 9.958-.58 14.957-.08 7.004 1.947 14.136.215 20.92-1.037 4.054-.156 8.689-1.13 12.785-.29 1.216-.822 2.363-1.1 3.58-.58 2.636.029 5.393.845 7.971.261.695.427 1.422.493 2.16a7.774 7.774 0 0 1-.846 3.268l-3.476 8.22c-.388.922-1.917 1.072-2.896 1.194-1.843.22-3.9.377-5.365-.765-1.465-1.14-1.819-3.053-2.045-4.837a74.152 74.152 0 0 1-.58-10.329 8.51 8.51 0 0 0-.237-2.682c-.318-.99-1.02-1.848-1.21-2.897-.244-1.355.446-2.688.7-4.055a12.218 12.218 0 0 0-.057-3.76 148.63 148.63 0 0 0-.782-5.55c-.418-2.577.18-5.12.579-7.704.376-2.428-.104-4.901-.58-7.311a20.154 20.154 0 0 1-.724 5.793c-.307.921-.747 1.802-1.013 2.74-1.188 4.212 1.344 8.632.984 12.994-.168 2.04-.967 4.055-.741 6.065.156 1.472.84 2.822 1.31 4.224.468 1.401.712 3.006 0 4.315-1.884 3.557-.476 8.395 1.21 12.044.342.648.64 1.317.892 2.005.498 1.645.081 3.412.214 5.127a3.233 3.233 0 0 1-2.717-.817c-.254-.267-.463-.58-.712-.858a7.073 7.073 0 0 0-2.422-1.512 3.18 3.18 0 0 0-1.738-.4 3.476 3.476 0 0 0-1.65 1.026c-.574.504-1.181.967-1.82 1.385-.271.208-.59.35-.926.41a.817.817 0 0 1-.852-.434 1.031 1.031 0 0 1-.064-.3c-.215-1.75-.33-3.51-.342-5.273 0-3.03-3.626-5.115-4.084-8.11-.365-2.416.313-4.878.087-7.31-.11-1.252-.457-2.48-.434-3.732 0-.81.185-1.604.249-2.41.053-.893.04-1.79-.04-2.682l-.18-2.798c-.174-2.763-.365-5.584-1.454-8.11a27.558 27.558 0 0 1-2.26-9.315c-.116-2.028-.04-4.056-.272-6.089-.209-1.836-.672-3.661-.539-5.503.11-1.426.58-2.804.69-4.23.226-2.74-.817-5.404-1.634-8.029-.817-2.624-1.42-5.532-.348-8.064.154-.415.408-.786.742-1.077.41-.272.878-.446 1.367-.51a106.077 106.077 0 0 1 30.252-1.929c1.65.094 3.252.593 4.663 1.454z" fill="#3F3D56"/><circle fill="#BE6F72" cx="245.738" cy="215.266" r="9.281"/><path d="M243.942 226.858c.133.53.133 1.086 0 1.616-.146.37-.352.715-.608 1.02a26.185 26.185 0 0 1-2.972 3.232 5.382 5.382 0 0 0 2.775 2.74 16.11 16.11 0 0 0 3.829 1.095 5.4 5.4 0 0 0 2.016.14 5.347 5.347 0 0 0 1.738-.788l5.156-3.088a10.3 10.3 0 0 0 2.143-1.547 5.278 5.278 0 0 0 1.495-3.626.996.996 0 0 0-.186-.684 1.217 1.217 0 0 0-.706-.295c-1.814-.4-3.245-1.872-4.056-3.54a18.746 18.746 0 0 1-1.407-5.37l-5.498 2.896c-.817.435-1.628.87-2.474 1.246-.538.243-1.628.446-2.01.938-.73.91.574 2.92.765 4.015z" fill="#BE6F72"/><path d="M240.396 231.04a6.112 6.112 0 0 0-1.778 2.405c-.36 1.158 0 2.38.324 3.528a105.26 105.26 0 0 1 3.476 14.94c.487 3.476.666 7.004.904 10.52.487 7.172 1.193 18.608 2.138 25.733 3.475.157 6.864-.857 10.311-1.228 6.442-.683 13.075.88 19.384-.58-1.53-6.041-3.059-16.359-4.588-22.395a42.736 42.736 0 0 1-1.402-7.27c-.133-1.767-.052-3.54-.029-5.319.052-3.476-.139-6.951-.33-10.427-.22-4.055-.44-8.11-1.402-12.079a2.248 2.248 0 0 0-.672-1.326c-.58-.423-1.333-.273-2.022-.18a8.794 8.794 0 0 1-6.013-1.425c-.765-.522-1.79-1.159-2.503-.58-.304.35-.504.777-.58 1.234a6.17 6.17 0 0 1-3.626 3.575 18.15 18.15 0 0 1-5.132 1.054 2.52 2.52 0 0 1-1.593-.18c-.823-.503-.88-2.317-1.918-2.438-.91-.105-2.335 1.853-2.949 2.439z" fill="#3F3D56"/><path d="M254.103 245.187c-2.138-2.045-3.076-5.01-4.635-7.53a16.765 16.765 0 0 0-4.003-4.403 11.94 11.94 0 0 1-2.178-1.848c-.55-.678-.967-1.582-1.801-1.843-.7-.152-1.43.05-1.953.54a19.21 19.21 0 0 0-1.448 1.54c-2.456 2.543-6.772 2.897-8.719 5.84a4.785 4.785 0 0 0-1.037 2.172 16.835 16.835 0 0 0 3.094 12.107 4.113 4.113 0 0 0 2.143 1.738 6.708 6.708 0 0 0 .417 3.187 85.2 85.2 0 0 0 3.946 10.746 25.994 25.994 0 0 0-.777 4.165c-.405 3.54-.029 7.131-.411 10.677-.313 2.896-1.159 5.718-1.188 8.62 0 .463.04 1.014.44 1.251.213.11.451.16.69.145l7.126.214c4.136.122 8.313.244 12.385-.521a5.156 5.156 0 0 0 1.559-.492c1.378-.77 1.836-2.509 2.056-4.056.288-2.006.402-4.033.342-6.06.863 2.73 1.888 5.55 4.495 6.732 1.38.626 2.955.58 4.467.54a84.093 84.093 0 0 0 9.726-1.003 1.28 1.28 0 0 0 1.42-1.489l.035-3.163c.069-6.424-1.524-12.565-2.144-18.96-.197-2.017-.18-4.056-.672-6.031-.203-.829-.498-1.64-.678-2.474a17.68 17.68 0 0 1-.29-2.474l-.451-6.372c-.215-2.949-.522-5.793-.748-8.736a42.29 42.29 0 0 0-1.24-8.493c-.503-1.738-1.552-3.707-3.365-3.922-.968-.11-1.906.313-2.827.609a11.424 11.424 0 0 1-6.952-.03 9.79 9.79 0 0 0-2.166-.579 2.126 2.126 0 0 0-1.982.823c-.224.453-.33.955-.307 1.46-.272 5.787-.776 11.748-2.37 17.373z" fill="#007BFF"/><path d="M244.782 245.361c-2.67-2.815-5.411-5.683-8.852-7.473-1.356-.707-2.897-1.24-4.397-.973-1.5.266-2.897 1.57-2.827 3.093.046.945.62 1.779.8 2.706.208 1.042-.093 2.155.231 3.163a5.353 5.353 0 0 0 1.159 1.778l4.101 4.86c1.738 2.028 3.476 4.085 5.712 5.487 2.236 1.402 5.133 2.056 7.59 1.06a9.327 9.327 0 0 0 4.159-3.818c1.02-1.622 1.738-3.395 2.693-5.069a25.171 25.171 0 0 1 5.794-7.027c-1.205-.313-2.717-.753-3.476-1.738a5.74 5.74 0 0 1-.55-.996l-.94-2.028a2.317 2.317 0 0 0-1.737.655c-.403.465-.834.904-1.292 1.315-.817.614-1.923.782-2.665 1.483-.287.3-.546.627-.776.973a6.5 6.5 0 0 1-4.727 2.55z" fill="#3F3D56"/><path d="M261.159 233.248c2.01-3.667 1.917-8.064 2.49-12.206a5.573 5.573 0 0 1 1.107-3.03c1.159-1.31 3.204-1.327 4.954-1.159.515.058 1.158.301 1.13.817-.041.185-.132.355-.262.492a13.782 13.782 0 0 0-2.861 7.601c.91.631 2.317-.666 3.192 0 .579.487.313 1.448-.035 2.143-.807 1.611-1.64 3.21-2.497 4.797a15.404 15.404 0 0 1-2.647 3.818c-.736.707-1.6 1.263-2.347 1.958-1.737 1.628-2.786 3.928-4.582 5.515a.938.938 0 0 1-.58.295.973.973 0 0 1-.607-.272 8.782 8.782 0 0 1-2.19-2.647c-.684-1.263-.58-1.634.498-2.526 2.016-1.593 3.98-3.302 5.237-5.596z" fill="#BE6F72"/><path d="M241.422 242.87c.347.214.776.458 1.158.278.157-.094.29-.223.389-.376a13.637 13.637 0 0 0 1.645-2.862 1.1 1.1 0 0 0 .121-.464c0-.37-.33-.643-.637-.857a23.613 23.613 0 0 0-5.266-2.503c-1.53-.579-3.128-1.083-4.75-.938a4.53 4.53 0 0 0-3.169 1.61c-1.159 1.49.782 1.941 1.999 2.48 2.815 1.28 5.862 2.022 8.51 3.632z" fill="#007BFF"/><path d="M239.597 252.718c-.04.269.05.54.243.73.168-.822-.052-1.691.122-2.52.255-1.245 1.466-2.184 1.57-3.435-2.219-.435-1.918 3.881-1.935 5.225z" fill="#000" opacity=".1"/><path fill="#000" opacity=".2" d="M341.741 207.416v5.706l-23.555 1.431-.712-5.712z"/><path d="M237.384 216.645c1.471-1.2.62-3.714 1.616-5.324.58-.88 1.559-1.344 2.52-1.738a11.465 11.465 0 0 1 3.679-1.02 4.27 4.27 0 0 1 3.476 1.28c.376.43.631.95.985 1.397a3.766 3.766 0 0 0 3.65 1.263c.77-.174 1.57-.76 1.517-1.547a2.184 2.184 0 0 0-.695-1.24l-1.657-1.836c-1.883-2.086-3.974-4.299-6.737-4.82-1.924-.365-3.893.15-5.747.77-.747.25-1.587.62-1.796 1.38-.139.52.07 1.088-.052 1.615-.238 1.049-1.582 1.402-2.207 2.283-.626.88-.435 1.923-.614 2.896-.18.974-.701 1.924-.765 2.932-.04.608.266 1.738.95 1.958.684.22 1.454-.973 1.877-.25z" fill="#3F3D56"/><path d="M254.265 210.122a17.38 17.38 0 0 0-3.082-7.045 12.345 12.345 0 0 0-5.486-4.356 7.855 7.855 0 0 0-6.83.539 9.918 9.918 0 0 0-3.412 4.304c-1.5 3.232-2.057 7.183-.313 10.288.695-.845 1.889-.463 2.943-.77 1.32-.377 2.439-1.257 3.696-1.808 3.794-1.674 8.429-.318 12.484-1.152z" fill="#FED253"/><path d="M236.028 209.942c-.133-1.043-.22-2.253.522-2.995a.377.377 0 0 1 .307-.139.4.4 0 0 1 .237.209c.428.675.793 1.389 1.09 2.131a2.213 2.213 0 0 0-2.318.898M249.567 207l-.209-2.069a.944.944 0 0 1 .04-.51.655.655 0 0 1 .847-.231c.285.157.52.392.677.677.483.74.883 1.531 1.194 2.358a7.01 7.01 0 0 0-2.821.035M254.752 290.935v4.728l-3.992.266h-20.994v-4.994z" fill="#000" opacity=".1"/><path fill="#F1C0C0" d="M254.752 290.935v4.994h-24.986l-66.377-83.148v-3.928h13.915z"/><path fill="#000" opacity=".1" d="M254.752 290.935v4.994h-24.986l-66.377-83.148v-3.928h13.915z"/><path fill="#000" opacity=".1" d="M254.752 290.935v4.994h-24.986l-66.377-83.148v-3.928l66.736 82.082z"/><path d="M172.09 374.275a1.738 1.738 0 0 1-1.518 2.045c-1.61.545-3.32 1.083-4.46 2.317-1.142 1.234-1.368 3.522 0 4.525.698.421 1.5.64 2.317.631 2.624.18 5.358.145 7.74-.967 1.702-.788 3.307-2.132 5.178-2.01.968.057 1.999.51 2.862.069.863-.44 1.107-1.668 1.112-2.694.022-2.14-.3-4.27-.955-6.309-.087-.278-3.772-.492-4.212-.579l-4.467-.58c-.845-.11-2.67-.746-3.336-.04-.667.707-.261 2.752-.261 3.592zM198.744 359.815a13.99 13.99 0 0 0 .915 3.036c.62 1.576 1.414 3.25 2.932 4.015 1.378.689 3.07.44 4.472-.215a3.684 3.684 0 0 0 1.489-1.13 4.484 4.484 0 0 0 .579-2.6c0-2.242-.133-4.56-1.159-6.552-.88-1.738-2.415-3.233-2.438-5.156l-5.278 1.02a1.506 1.506 0 0 0-.776.306 1.338 1.338 0 0 0-.336.632 17.246 17.246 0 0 0-.4 6.644zM135.72 304.781c-.22 1.865-.127 3.864.847 5.474.973 1.61 3.024 2.677 4.796 2.034a.701.701 0 0 0 .435-.33.817.817 0 0 0-.076-.58 8.55 8.55 0 0 1 .18-6.442c.116-.266.365-.579.637-.475a.58.58 0 0 1 .261.267c.28.485.42 1.039.406 1.599a5.944 5.944 0 0 0-.047 1.535c.11.498.643.967 1.107.753.27-.166.461-.436.527-.747 1.292-3.737.707-7.821.116-11.731a.614.614 0 0 0-.69-.643c-2.734-.273-4.229-.927-5.793 1.616-1.344 2.143-2.705 5.092-2.705 7.67z" fill="#007BFF"/><path d="M167.687 295.274c-.81 3.372-1.628 6.784-1.68 10.248a47.08 47.08 0 0 0 .487 6.448l.608 5.017c.209 1.692.411 3.377.707 5.052.188.862.291 1.741.307 2.624-.057.87-.195 1.733-.411 2.578a30.124 30.124 0 0 0-.609 5.387c-.063 2.897.296 5.794.522 8.69a96.774 96.774 0 0 1-.203 17.333 6.5 6.5 0 0 0 .95 4.467c.343.417.626.881.84 1.378.434 1.327-.58 2.654-.84 4.015a4.055 4.055 0 0 0 3.372 4.634c4.634.55 9.396.302 13.573 2.422.44-1.286-.522-2.746-.081-4.055.278-.811 1.042-1.338 1.564-2.022.7-1.042 1.05-2.28.996-3.534.02-1.637-.27-3.263-.857-4.79-.493-1.275-1.2-2.532-1.159-3.9 0-.672.238-1.378-.035-1.998a3.122 3.122 0 0 0-.747-.933 11.777 11.777 0 0 1-3.03-6.865 31.619 31.619 0 0 1 .244-7.612c.284-2.398.666-4.93 2.19-6.8a43.64 43.64 0 0 1 1.222-16.946c.15-.51.388-1.1.91-1.222.42-.043.835.121 1.112.44.91.852 1.344 2.086 1.738 3.268.434 1.28.874 2.647.544 3.956-.139.58-.417 1.09-.58 1.645a4.878 4.878 0 0 0 .175 3.401c.226.393.368.83.417 1.28a3.545 3.545 0 0 1-.348 1.113 5.121 5.121 0 0 0 .48 4.142 14.998 14.998 0 0 0 2.706 3.32 12.166 12.166 0 0 0 .377 6.696c.11.196.136.427.075.643-.104.22-.37.301-.58.458-.578.475-.22 1.373.169 1.992a45.696 45.696 0 0 0 3.516 4.878c1.159 1.385 1.055 4.055 2.781 4.554a5.214 5.214 0 0 0 2.201 0c1.704-.261 3.604-.754 4.438-2.26.342-.62.48-1.373 1.014-1.836.533-.464 1.222-.545 1.517-1.1.296-.557-.034-1.287.064-1.93.099-.643.66-1.159.84-1.836.429-1.564-1.396-2.85-1.645-4.45-.36-2.317 2.56-4.055 2.439-6.372-.255-5.034-.417-10.091-.678-15.126-.327-4.51-.374-9.035-.139-13.55.203-2.81.58-5.752-.452-8.365-1.483-3.684-5.573-5.753-9.53-6.146-3.956-.394-7.901.544-11.823 1.158a74.731 74.731 0 0 1-19.668.411z" fill="#3F3D56"/><circle fill="#FBBEBE" cx="179.447" cy="230.623" r="9.281"/><path d="M175.67 241.636a3.957 3.957 0 0 1-3.783 2.393c-.336 1.39.47 2.792 1.39 3.887a16.499 16.499 0 0 0 15.793 5.416 7.792 7.792 0 0 0 3.11-1.297 6.9 6.9 0 0 0 2.376-4.113 20.45 20.45 0 0 0 .226-4.838 1.251 1.251 0 0 0-.255-.892 1.274 1.274 0 0 0-.811-.266c-1.958-.174-4.003-.25-5.724-1.211-1.72-.962-2.943-3.134-2.114-4.918-.134.278-3.517.411-3.963.469-1.396.197-2.792.417-4.183.672a7.606 7.606 0 0 0-1.963.37c-.84.435-.528.22-.33 1.009.295 1.205.73 2.068.231 3.32z" fill="#FBBEBE"/><path d="M182.732 247.279a15.37 15.37 0 0 1-3.714-.412 5.214 5.214 0 0 1-3.047-2.033c-.428-.649-.706-1.466-1.39-1.83-1.118-.58-2.393.399-3.285 1.297a11.934 11.934 0 0 1-2.792 2.248c-1.24.654-2.688.886-3.858 1.657a9.698 9.698 0 0 0-2.317 2.502l-8.21 11.18c-3.296 4.496-6.163 9.322-9.1 14.066-2.543 4.108-3.876 8.835-5.793 13.267a1.483 1.483 0 0 0-.18.892c.07.301.435.544.69.37-.864.858-.105 2.318-.308 3.523a4.322 4.322 0 0 1-1.378 2.16 10.891 10.891 0 0 1 3.823.18 11.72 11.72 0 0 1 3.615 1.738c.701-.11.637-1.355 1.159-1.819.312-.272.776-.237 1.187-.319 1.547-.3 2.161-2.16 3.349-3.209.99-.875 2.392-1.159 3.44-1.981 1.704-1.338 2.069-3.72 2.961-5.695.759-1.674 1.952-3.134 2.618-4.849.435-1.112.644-2.317 1.263-3.342.991-1.657 2.856-2.538 4.635-3.331 1.124-.504 2.317-1.026 3.528-.945-.064 2.694-.406 5.348.18 7.978.202.926.486 1.83.73 2.751 1.106 4.148 1.367 8.47 1.419 12.745a38.779 38.779 0 0 1 8.11-.973c2.15-.064 4.293.214 6.442.174 2.549-.047 5.069-.54 7.618-.713 2.549-.174 5.214 0 7.467 1.159a70.942 70.942 0 0 1 .307-11.007l.614-5.758c.139-1.673.396-3.335.77-4.971.337-1.32.823-2.595 1.194-3.91 1.304-4.635 1.066-9.582.817-14.408-.127-2.48-1.083-4.918-2.207-7.125-.407-.82-.872-1.61-1.39-2.364a13.69 13.69 0 0 0-11.97-5.62c-.294.01-.584.073-.856.186-.49.313-.871.768-1.095 1.304a14.193 14.193 0 0 1-5.046 5.237zM171.285 233.7c.26-.58.961-.794 1.39-1.258.823-.88.452-2.288.58-3.475.208-1.738 1.65-3.192 3.301-3.812a10.67 10.67 0 0 1 5.214-.33c.837.06 1.645.33 2.352.782.301.22.58.504.863.706a2.317 2.317 0 0 0 3.152-.735c-2.05-2.468-4.322-5.075-7.439-5.834a15.259 15.259 0 0 0-3.25-.307c-1.442-.029-2.93-.052-4.263.498-1.813.747-3.088 2.468-3.743 4.322a21.012 21.012 0 0 0-.909 5.793 21.823 21.823 0 0 0 0 3.94c.224 1.789.889 3.495 1.935 4.964a1.5 1.5 0 0 0 .58.539c2.64 1.158.022-5.313.237-5.793z" fill="#3F3D56"/><path d="M187.836 224.147c-.319-2.729-2.266-4.982-4.334-6.796a15.977 15.977 0 0 0-5.822-3.504c-2.184-.643-4.698-.504-6.57.8-1.505 1.048-2.461 2.716-3.197 4.396a13.84 13.84 0 0 0-1.396 6.372c.145 2.19 1.21 4.409 3.11 5.515.684-1.008 1.872-1.529 3.013-1.94a147.498 147.498 0 0 1 15.196-4.843z" fill="#FED253"/><path d="M170.265 223.011c.185 0 .307.191.4.348.472.735.877 1.51 1.21 2.317-.677.145-1.842.307-2.178-.29-.18-.3.035-2.404.568-2.375zM183.468 221.702c-.14.133-.302-.139-.302-.336v-2.248a.33.33 0 0 1 .04-.18.272.272 0 0 1 .192-.092c.47-.052.857.348 1.159.73.457.62.854 1.281 1.187 1.975l-2.45-.075" fill="#000" opacity=".1"/><path d="M214.05 258.923a15.16 15.16 0 0 1 1.703-1.396c1.604-1.072 3.545-1.495 5.347-2.179 1.801-.683 3.632-1.79 4.333-3.586a8.516 8.516 0 0 0 .336-3.475c.017-.49-.07-.978-.255-1.431-.22-.401-.535-.743-.915-.997-2.445-1.807-5.724-1.952-8.76-1.767a54.901 54.901 0 0 0-19.354 4.832 1.68 1.68 0 0 0-.811.58 1.657 1.657 0 0 0-.157.804 13.324 13.324 0 0 0 .655 5.046c.8 2.063 2.445 3.725 3.134 5.828.313.944.417 1.947.69 2.897a4.055 4.055 0 0 0 1.627 2.421c2.288 1.367 4.45-.47 6.037-1.894l6.39-5.683z" fill="#3F3D56"/><path d="M184.082 266.946l-2.937-6.407a22.425 22.425 0 0 1-1.113-2.74c-.336-1.118-.498-2.277-.81-3.4-1.032-3.743-3.633-6.86-4.902-10.527a1.999 1.999 0 0 0-.475-.886 1.547 1.547 0 0 0-1.292-.232c-1.772.307-3.157 1.657-4.779 2.422-.753.347-1.564.579-2.317.979a2.897 2.897 0 0 0-1.553 1.848c-.18.886.261 1.738.632 2.6 1.575 3.558 1.935 7.532 2.004 11.425.052 2.618-.081 5.428-1.628 7.53-2.972 4.056-1.071 10.011.04 14.918.134.58.29 1.205.383 1.82.098.768.143 1.542.133 2.316 0 2.602-.144 5.284-1.234 7.642a8.55 8.55 0 0 0 3.476.984c3.364.429 6.742.73 10.132.904 1.063.1 2.134.045 3.18-.162a5.793 5.793 0 0 0 4.282-5.677c.185 1.604.527 3.348 1.692 4.46 1.164 1.113 2.861 1.28 4.443 1.367a82.61 82.61 0 0 0 13.382-.376c.284-.013.562-.078.823-.191.857-.429.903-1.61.834-2.56-.128-1.78-.26-3.558-.475-5.325a21.788 21.788 0 0 1-.278-3.406c.088-1.174.282-2.337.579-3.476.776-3.615 1.39-7.305 1.13-11.007-.103-.902-.14-1.81-.11-2.717.15-2.045 1.228-3.991 1.025-6.025-.58-5.978-1.049-12.113-2.717-17.883-.301-1.031-.684-2.138-1.582-2.728-1.158-.777-2.786-.371-4.113-.864a10.289 10.289 0 0 1-1.767-1.048 8.11 8.11 0 0 0-3.991-1.228c-1.066-.04-2.253.197-2.897 1.054a4.206 4.206 0 0 0-.579 1.582c-.84 3.533-1.825 7.027-2.81 10.52l-.944 3.348-2.531 8.991c-.25.956-.081 1.251-.336 2.155z" fill="#007BFF"/><path fill="#F1C0C0" d="M198.895 231.869l56.036 58.887v4.994h-24.985l-42.11-54.96"/><path fill="#000" opacity=".1" d="M198.895 231.869l56.036 58.887v4.994h-24.985l-42.11-54.96"/><path fill="#000" opacity=".1" d="M188.728 240.014l.18.064 41.397 50.678h24.626v4.994h-24.985l-42.11-54.96z"/><path d="M195.175 241.254c-2.027.886-4.28 2.022-4.889 4.153-.12.375-.146.773-.075 1.16a2.364 2.364 0 0 0 2.126 1.627 6.952 6.952 0 0 0 2.786-.51l11.963-3.95c.324-.105.695-.261.776-.58a.996.996 0 0 0-.116-.58c-.37-.903-.735-2.751-1.512-3.383-.637-.51-1.9-.33-2.67-.318-2.966.023-5.753 1.222-8.389 2.38z" fill="#007BFF"/><path d="M205.84 244.202c2.016-.005 4.02.305 5.938.922a10.578 10.578 0 0 1 4.919 3.36c.374.438.64.958.776 1.517.116.58 2.005.927 1.587 1.321 1.27-.203.968.394 2.254.383 1.286-.012 2.676-.342 3.447-1.368.535-.842.774-1.839.678-2.832a4.826 4.826 0 0 0-.383-2.005c-.579-1.216-1.911-1.871-3.14-2.433l-10.346-4.733a6.87 6.87 0 0 0-1.912-.678 7.149 7.149 0 0 0-1.686.04l-4.686.54a7.027 7.027 0 0 1 3.203 6.18" fill="#3F3D56"/></g></svg>