<?xml version="1.0" encoding="UTF-8"?>
<svg width="1081px" height="838px" viewBox="0 0 1081 838" version="1.1" xmlns="http://www.w3.org/2000/svg" xmlns:xlink="http://www.w3.org/1999/xlink">
    <!-- Generator: Sketch 51.3 (57544) - http://www.bohemiancoding.com/sketch -->
    <title>illu-report</title>
    <desc>Created with Sketch.</desc>
    <defs>
        <linearGradient x1="49.9963627%" y1="100.004109%" x2="49.9963627%" y2="7.92274891e-06%" id="linearGradient-1">
            <stop stop-color="#808080" stop-opacity="0.25" offset="0%"></stop>
            <stop stop-color="#808080" stop-opacity="0.12" offset="54%"></stop>
            <stop stop-color="#808080" stop-opacity="0.1" offset="100%"></stop>
        </linearGradient>
        <linearGradient x1="49.9850541%" y1="99.9893978%" x2="49.9850541%" y2="0.00591134653%" id="linearGradient-2">
            <stop stop-color="#808080" stop-opacity="0.25" offset="0%"></stop>
            <stop stop-color="#808080" stop-opacity="0.12" offset="54%"></stop>
            <stop stop-color="#808080" stop-opacity="0.1" offset="100%"></stop>
        </linearGradient>
    </defs>
    <g id="Page-1" stroke="none" stroke-width="1" fill="none" fill-rule="evenodd">
        <g id="illu-report" fill-rule="nonzero">
            <path d="M234.42,1.63 C199.66,0.35 163.35,-0.55 131.92,14.35 C100.49,29.25 76.19,65.35 86.73,98.54 C90.17,109.36 96.87,118.79 102.52,128.64 C130.77,177.9 132.08,241.57 105.89,291.96 C85.73,330.75 51.56,360.27 26.96,396.41 C2.36,432.55 -11.62,482.64 12.58,519.05 C29.15,543.98 59.9,556.11 89.69,559.05 C119.48,561.99 149.44,557.36 179.36,556.17 C237.581985,553.932788 295.555703,564.896446 348.94,588.24 C422.43,620.46 485.74,675.58 563.12,696.85 C572.41,699.4 582.12,701.46 591.62,699.73 C608.47,696.66 620.72,682.73 633.91,671.73 C676.02,636.86 734.32,630.35 788.98,628.73 C843.64,627.11 900.57,628.36 949.98,604.89 C993.12,584.4 1026.33,546.28 1046.98,503.22 C1067.63,460.16 1076.6,412.31 1079.98,364.66 C1081.98,336.3 1081.91,307.02 1071.76,280.47 C1060.35,250.62 1037.21,226.85 1012.94,206.07 C987.58,184.35 959.94,164.67 928.63,152.95 C891.23,138.95 850.63,136.95 810.81,133.63 C729.154606,126.810342 648.134994,113.7996 568.45,94.71 C492.82,76.63 409.78,56.88 340.9,20.05 C306.33,1.56 273.39,3.03 234.42,1.63 Z" id="Shape" fill="#007BFF" opacity="0.1"></path>
            <g id="Group" opacity="0.1" transform="translate(695.000000, 457.000000)" fill="#007BFF">
                <path d="M18.88,173.67 C18.88,173.67 22.42,124.06 50.34,97.01 C62.1268167,85.7398649 69.9380288,70.9490926 72.6,54.86 C73.8018903,47.2116073 74.3039683,39.4695638 74.1,31.73" id="Shape"></path>
                <path d="M91.59,14.58 C89.54,20.06 73.69,32.24 73.69,32.24 C73.69,32.24 69.69,12.65 71.76,7.17 C73.8062152,1.69409698 79.9040967,-1.08621446 85.3799998,0.960000467 C90.8559029,3.0062154 93.6362147,9.10409679 91.59,14.58 Z" id="Shape"></path>
                <path d="M96.65,51.05 C91.95,54.53 72.03,56.14 72.03,56.14 C72.03,56.14 79.33,37.53 84.03,34.04 C88.7273697,30.7461024 95.1934715,31.7917942 98.6131829,36.3983784 C102.032894,41.0049626 101.16243,47.4969758 96.65,51.04 L96.65,51.05 Z" id="Shape"></path>
                <path d="M76.56,102.62 C70.74,103.26 52.73,94.62 52.73,94.62 C52.73,94.62 68.43,82.24 74.24,81.62 C79.8479201,81.3122419 84.7190484,85.4399387 85.3357701,91.022334 C85.9524919,96.6047292 82.0998614,101.696194 76.56,102.62 Z" id="Shape"></path>
                <path d="M52.57,138.22 C46.95,139.83 27.73,134.33 27.73,134.33 C27.73,134.33 41.11,119.48 46.73,117.87 C50.4040304,116.701331 54.4229081,117.621705 57.2221553,120.272837 C60.0214026,122.923969 61.1586846,126.88693 60.1912777,130.619008 C59.2238708,134.351087 56.3046438,137.262544 52.57,138.22 Z" id="Shape"></path>
                <path d="M50.81,49.42 C53.31,54.7 70.13,65.49 70.13,65.49 C70.13,65.49 72.45,45.64 69.94,40.35 C67.3373292,35.2450179 61.146208,33.1362188 55.9685273,35.5910836 C50.7908467,38.0459484 48.5049697,44.1738993 50.81,49.42 Z" id="Shape"></path>
                <path d="M23.28,91.41 C27.28,95.7 46.53,100.97 46.53,100.97 C46.53,100.97 42.8,81.33 38.83,77.03 C34.8539025,72.7604839 28.1735442,72.5110534 23.8901319,76.4721767 C19.6067196,80.4333001 19.3338993,87.1127441 23.28,91.41 Z" id="Shape"></path>
                <path d="M2.13,135.89 C5.31,140.79 23.43,149.24 23.43,149.24 C23.43,149.24 23.07,129.24 19.88,124.35 C16.6210045,119.634455 10.2015951,118.367951 5.39582917,121.492376 C0.590063283,124.616801 -0.85735782,130.997852 2.13,135.89 Z" id="Shape"></path>
                <path d="M91.59,14.58 C89.54,20.06 73.69,32.24 73.69,32.24 C73.69,32.24 69.69,12.65 71.76,7.17 C73.8062152,1.69409698 79.9040967,-1.08621446 85.3799998,0.960000467 C90.8559029,3.0062154 93.6362147,9.10409679 91.59,14.58 Z" id="Shape"></path>
                <path d="M96.65,51.05 C91.95,54.53 72.03,56.14 72.03,56.14 C72.03,56.14 79.33,37.53 84.03,34.04 C88.7273697,30.7461024 95.1934715,31.7917942 98.6131829,36.3983784 C102.032894,41.0049626 101.16243,47.4969758 96.65,51.04 L96.65,51.05 Z" id="Shape"></path>
                <path d="M76.56,102.62 C70.74,103.26 52.73,94.62 52.73,94.62 C52.73,94.62 68.43,82.24 74.24,81.62 C79.8479201,81.3122419 84.7190484,85.4399387 85.3357701,91.022334 C85.9524919,96.6047292 82.0998614,101.696194 76.56,102.62 Z" id="Shape"></path>
                <path d="M52.57,138.22 C46.95,139.83 27.73,134.33 27.73,134.33 C27.73,134.33 41.11,119.48 46.73,117.87 C50.4040304,116.701331 54.4229081,117.621705 57.2221553,120.272837 C60.0214026,122.923969 61.1586846,126.88693 60.1912777,130.619008 C59.2238708,134.351087 56.3046438,137.262544 52.57,138.22 Z" id="Shape"></path>
                <path d="M50.81,49.42 C53.31,54.7 70.13,65.49 70.13,65.49 C70.13,65.49 72.45,45.64 69.94,40.35 C67.3373292,35.2450179 61.146208,33.1362188 55.9685273,35.5910836 C50.7908467,38.0459484 48.5049697,44.1738993 50.81,49.42 Z" id="Shape"></path>
                <path d="M23.28,91.41 C27.28,95.7 46.53,100.97 46.53,100.97 C46.53,100.97 42.8,81.33 38.83,77.03 C34.8539025,72.7604839 28.1735442,72.5110534 23.8901319,76.4721767 C19.6067196,80.4333001 19.3338993,87.1127441 23.28,91.41 Z" id="Shape"></path>
                <path d="M2.13,135.89 C5.31,140.79 23.43,149.24 23.43,149.24 C23.43,149.24 23.07,129.24 19.88,124.35 C16.6210045,119.634455 10.2015951,118.367951 5.39582917,121.492376 C0.590063283,124.616801 -0.85735782,130.997852 2.13,135.89 Z" id="Shape"></path>
            </g>
            <g id="Group" opacity="0.1" transform="translate(705.000000, 269.000000)" fill="#007BFF">
                <path d="M18.68,173.89 C18.68,173.89 22.22,124.28 50.14,97.23 C61.9227346,85.9567825 69.7331815,71.1674593 72.4,55.08 C73.6114671,47.4326711 74.1136024,39.6897459 73.9,31.95" id="Shape"></path>
                <path d="M91.39,14.8 C89.39,20.27 73.5,32.45 73.5,32.45 C73.5,32.45 69.5,12.86 71.56,7.39 C73.606215,1.91409671 79.7040967,-0.866214998 85.18,1.18 C90.6559033,3.226215 93.436215,9.32409671 91.39,14.8 Z" id="Shape"></path>
                <path d="M96.48,51.26 C91.79,54.75 71.86,56.35 71.86,56.35 C71.86,56.35 79.16,37.75 83.86,34.26 C86.8894928,31.8813334 90.9716127,31.3351074 94.5199064,32.8336042 C98.0682001,34.332101 100.523088,37.6390018 100.930515,41.4691303 C101.337942,45.2992588 99.6336551,49.0485886 96.48,51.26 Z" id="Shape"></path>
                <path d="M76.36,102.84 C70.55,103.48 52.54,94.84 52.54,94.84 C52.54,94.84 68.24,82.47 74.05,81.84 C77.848942,81.3517627 81.6154522,82.9528938 83.8999724,86.027191 C86.1844926,89.1014881 86.6309405,93.1697684 85.0674985,96.666336 C83.5040566,100.162904 80.1744145,102.542757 76.36,102.89 L76.36,102.84 Z" id="Shape"></path>
                <path d="M52.37,138.44 C46.75,140.05 27.53,134.55 27.53,134.55 C27.53,134.55 40.92,119.7 46.53,118.08 C52.1217765,116.556196 57.8997181,119.810419 59.4951674,125.382177 C61.0906167,130.953935 57.9108212,136.773169 52.36,138.44 L52.37,138.44 Z" id="Shape"></path>
                <path d="M50.61,49.63 C53.11,54.92 69.94,65.71 69.94,65.71 C69.94,65.71 72.25,45.85 69.75,40.57 C68.1778877,37.0748146 64.8400431,34.7017545 61.022388,34.3650533 C57.2047329,34.028352 53.5030573,35.7805558 51.3434507,38.9466192 C49.183844,42.1126826 48.9033384,46.1985041 50.61,49.63 Z" id="Shape"></path>
                <path d="M23.08,91.62 C27.08,95.92 46.34,101.18 46.34,101.18 C46.34,101.18 42.6,81.54 38.63,77.25 C34.6255654,73.1330081 28.0693266,72.9583201 23.8513386,76.8562293 C19.6333506,80.7541385 19.2911626,87.3037713 23.08,91.62 Z" id="Shape"></path>
                <path d="M1.93,136.11 C5.12,141.01 23.23,149.46 23.23,149.46 C23.23,149.46 22.87,129.46 19.68,124.57 C17.6710208,121.280062 14.0330239,119.341621 10.1818358,119.509074 C6.33064769,119.676528 2.87463351,121.923424 1.15879621,125.375321 C-0.557041076,128.827218 -0.261653785,132.938826 1.93,136.11 Z" id="Shape"></path>
                <path d="M91.39,14.8 C89.39,20.27 73.5,32.45 73.5,32.45 C73.5,32.45 69.5,12.86 71.56,7.39 C73.606215,1.91409671 79.7040967,-0.866214998 85.18,1.18 C90.6559033,3.226215 93.436215,9.32409671 91.39,14.8 Z" id="Shape"></path>
                <path d="M96.48,51.26 C91.79,54.75 71.86,56.35 71.86,56.35 C71.86,56.35 79.16,37.75 83.86,34.26 C86.8894928,31.8813334 90.9716127,31.3351074 94.5199064,32.8336042 C98.0682001,34.332101 100.523088,37.6390018 100.930515,41.4691303 C101.337942,45.2992588 99.6336551,49.0485886 96.48,51.26 Z" id="Shape"></path>
                <path d="M76.36,102.84 C70.55,103.48 52.54,94.84 52.54,94.84 C52.54,94.84 68.24,82.47 74.05,81.84 C77.848942,81.3517627 81.6154522,82.9528938 83.8999724,86.027191 C86.1844926,89.1014881 86.6309405,93.1697684 85.0674985,96.666336 C83.5040566,100.162904 80.1744145,102.542757 76.36,102.89 L76.36,102.84 Z" id="Shape"></path>
                <path d="M52.37,138.44 C46.75,140.05 27.53,134.55 27.53,134.55 C27.53,134.55 40.92,119.7 46.53,118.08 C52.1217765,116.556196 57.8997181,119.810419 59.4951674,125.382177 C61.0906167,130.953935 57.9108212,136.773169 52.36,138.44 L52.37,138.44 Z" id="Shape"></path>
                <path d="M50.61,49.63 C53.11,54.92 69.94,65.71 69.94,65.71 C69.94,65.71 72.25,45.85 69.75,40.57 C68.1778877,37.0748146 64.8400431,34.7017545 61.022388,34.3650533 C57.2047329,34.028352 53.5030573,35.7805558 51.3434507,38.9466192 C49.183844,42.1126826 48.9033384,46.1985041 50.61,49.63 Z" id="Shape"></path>
                <path d="M23.08,91.62 C27.08,95.92 46.34,101.18 46.34,101.18 C46.34,101.18 42.6,81.54 38.63,77.25 C34.6255654,73.1330081 28.0693266,72.9583201 23.8513386,76.8562293 C19.6333506,80.7541385 19.2911626,87.3037713 23.08,91.62 Z" id="Shape"></path>
                <path d="M1.93,136.11 C5.12,141.01 23.23,149.46 23.23,149.46 C23.23,149.46 22.87,129.46 19.68,124.57 C17.6710208,121.280062 14.0330239,119.341621 10.1818358,119.509074 C6.33064769,119.676528 2.87463351,121.923424 1.15879621,125.375321 C-0.557041076,128.827218 -0.261653785,132.938826 1.93,136.11 Z" id="Shape"></path>
            </g>
            <g id="Group" opacity="0.1" transform="translate(65.000000, 368.000000)" fill="#007BFF">
                <path d="M128.19,139.89 C128.19,139.89 85.48,114.43 73.85,77.35 C69.0867775,61.7540011 59.3868157,48.1270286 46.21,38.52 C39.9181326,34.0005904 33.2231557,30.070639 26.21,26.78" id="Shape"></path>
                <path d="M18.76,3.42 C22.76,7.71 26.49,27.35 26.49,27.35 C26.49,27.35 7.2,22.1 3.23,17.81 C-0.550894364,13.4974727 -0.211639351,6.95881192 3.99525836,3.06072705 C8.20215606,-0.837357817 14.7476744,-0.678084614 18.76,3.42 Z" id="Shape"></path>
                <path d="M53.61,15.35 C54.61,21.11 47.09,39.63 47.09,39.63 C47.09,39.63 33.75,24.74 32.75,18.98 C31.9968591,15.2083897 33.3477784,11.3249349 36.2790878,8.83501717 C39.2103972,6.34509942 43.2612364,5.6401835 46.8613388,6.99352287 C50.4614413,8.34686223 53.0447991,11.5456849 53.61,15.35 Z" id="Shape"></path>
                <path d="M90.65,56.43 C88.65,61.91 72.76,74.1 72.76,74.1 C72.76,74.1 68.76,54.51 70.81,49.04 C72.0533098,45.3915626 75.1807526,42.7067684 78.9753959,42.0303091 C82.7700392,41.3538498 86.632567,42.7925635 89.0600147,45.7866263 C91.4874625,48.7806891 92.0964456,52.8572266 90.65,56.43 Z" id="Shape"></path>
                <path d="M111.66,93.86 C110.58,99.61 97.02,114.35 97.02,114.35 C97.02,114.35 89.77,95.72 90.86,89.98 C91.5620267,86.2644377 94.1929551,83.2056434 97.7617398,81.9558353 C101.330525,80.7060272 105.294982,81.455081 108.16174,83.9208354 C111.028498,86.3865897 112.362027,90.1944378 111.66,93.91 L111.66,93.86 Z" id="Shape"></path>
                <path d="M31.55,55.51 C37.39,55.65 54.6,45.51 54.6,45.51 C54.6,45.51 37.9,34.51 32.05,34.37 C26.2825232,34.3472396 21.5573423,38.9439554 21.421161,44.7098692 C21.2849798,50.475783 25.7878795,55.2904506 31.55,55.54 L31.55,55.51 Z" id="Shape"></path>
                <path d="M56.68,98.98 C62.3,97.36 75.68,82.5 75.68,82.5 C75.68,82.5 56.46,77.01 50.84,78.63 C45.3509207,80.348488 42.2371017,86.1341744 43.8262097,91.662097 C45.4153177,97.1900196 51.1262832,100.438851 56.69,98.98 L56.68,98.98 Z" id="Shape"></path>
                <path d="M86.9,137.87 C92.72,137.23 108.41,124.87 108.41,124.87 C108.41,124.87 90.41,116.21 84.58,116.87 C80.6665571,117.084767 77.1924747,119.445356 75.5516023,123.004667 C73.9107299,126.563979 74.3719453,130.738773 76.7502026,133.854067 C79.1284599,136.96936 83.0340513,138.514671 86.9,137.87 Z" id="Shape"></path>
                <path d="M18.76,3.42 C22.76,7.71 26.49,27.35 26.49,27.35 C26.49,27.35 7.2,22.1 3.23,17.81 C-0.550894364,13.4974727 -0.211639351,6.95881192 3.99525836,3.06072705 C8.20215606,-0.837357817 14.7476744,-0.678084614 18.76,3.42 Z" id="Shape"></path>
                <path d="M53.61,15.35 C54.61,21.11 47.09,39.63 47.09,39.63 C47.09,39.63 33.75,24.74 32.75,18.98 C31.9968591,15.2083897 33.3477784,11.3249349 36.2790878,8.83501717 C39.2103972,6.34509942 43.2612364,5.6401835 46.8613388,6.99352287 C50.4614413,8.34686223 53.0447991,11.5456849 53.61,15.35 Z" id="Shape"></path>
                <path d="M90.65,56.43 C88.65,61.91 72.76,74.1 72.76,74.1 C72.76,74.1 68.76,54.51 70.81,49.04 C72.0533098,45.3915626 75.1807526,42.7067684 78.9753959,42.0303091 C82.7700392,41.3538498 86.632567,42.7925635 89.0600147,45.7866263 C91.4874625,48.7806891 92.0964456,52.8572266 90.65,56.43 Z" id="Shape"></path>
                <path d="M111.66,93.86 C110.58,99.61 97.02,114.35 97.02,114.35 C97.02,114.35 89.77,95.72 90.86,89.98 C91.5620267,86.2644377 94.1929551,83.2056434 97.7617398,81.9558353 C101.330525,80.7060272 105.294982,81.455081 108.16174,83.9208354 C111.028498,86.3865897 112.362027,90.1944378 111.66,93.91 L111.66,93.86 Z" id="Shape"></path>
                <path d="M31.55,55.51 C37.39,55.65 54.6,45.51 54.6,45.51 C54.6,45.51 37.9,34.51 32.05,34.37 C26.2825232,34.3472396 21.5573423,38.9439554 21.421161,44.7098692 C21.2849798,50.475783 25.7878795,55.2904506 31.55,55.54 L31.55,55.51 Z" id="Shape"></path>
                <path d="M56.68,98.98 C62.3,97.36 75.68,82.5 75.68,82.5 C75.68,82.5 56.46,77.01 50.84,78.63 C45.3509207,80.348488 42.2371017,86.1341744 43.8262097,91.662097 C45.4153177,97.1900196 51.1262832,100.438851 56.69,98.98 L56.68,98.98 Z" id="Shape"></path>
                <path d="M86.9,137.87 C92.72,137.23 108.41,124.87 108.41,124.87 C108.41,124.87 90.41,116.21 84.58,116.87 C80.6665571,117.084767 77.1924747,119.445356 75.5516023,123.004667 C73.9107299,126.563979 74.3719453,130.738773 76.7502026,133.854067 C79.1284599,136.96936 83.0340513,138.514671 86.9,137.87 Z" id="Shape"></path>
            </g>
            <path d="M716.73,807.35 C745.44,819.84 780.47,812.24 813.05,813.12 C817.5,813.24 822.23,813.61 825.8,815.77 C829.37,817.93 831.14,821.42 833.59,824.42 C842.72,835.56 861.43,839.14 877.78,837.25 C894.13,835.36 909.12,829.1 924.55,824.34 C951.22,816.1 981.7,812.34 1008.01,821.34 C1010.42,822.16 1013.01,823.11 1015.55,822.78 C1021.32,822.05 1023.04,816.07 1027.07,812.66 C1034.35,806.49 1050.17,808.17 1053.37,800.04 C1055.24,795.28 1050.93,790.4 1046.23,787.15 C1028.23,774.71 1002.53,772.66 979,774.58 C955.47,776.5 932.34,781.79 908.69,781.81 C879.22,781.81 850.75,773.69 821.57,770.36 C801.36,768.06 779.3,768.36 760.35,775.13 C739.81,782.45 735.29,798.94 716.73,807.35 Z" id="Shape" fill="#007BFF" opacity="0.1"></path>
            <path d="M173.41,769.04 C222.41,783.15 282.21,774.56 337.81,775.56 C345.42,775.7 353.48,776.11 359.59,778.56 C365.7,781.01 368.7,784.96 372.89,788.34 C388.47,800.93 420.4,804.98 448.3,802.84 C476.2,800.7 501.8,793.63 528.14,788.25 C573.66,778.94 625.7,774.7 670.6,784.85 C674.72,785.78 679.06,786.85 683.48,786.48 C693.32,785.65 696.25,778.9 703.14,775.04 C715.57,768.04 742.56,769.97 748.02,760.79 C751.22,755.41 743.86,749.89 735.84,746.22 C705.16,732.17 661.26,729.85 621.09,732.02 C580.92,734.19 541.44,740.16 501.09,740.19 C450.79,740.19 402.19,731.02 352.38,727.25 C317.88,724.65 280.23,724.97 247.88,732.65 C212.81,740.94 205.08,759.57 173.41,769.04 Z" id="Shape" fill="#007BFF" opacity="0.1"></path>
            <path d="M42.25,803.62 C56.25,812.04 73.25,806.92 89.11,807.51 C91.28,807.59 93.58,807.84 95.32,809.29 C97.06,810.74 97.92,813.11 99.11,815.13 C103.55,822.64 112.65,825.06 120.6,823.78 C128.55,822.5 135.85,818.29 143.36,815.07 C156.36,809.52 171.17,806.99 183.96,813.07 C185.05603,813.770713 186.34007,814.119636 187.64,814.07 C190.44,813.57 191.28,809.54 193.24,807.24 C196.78,803.08 204.48,804.24 206.03,798.73 C206.94,795.52 204.84,792.23 202.56,790.04 C193.82,781.65 181.3,780.27 169.85,781.56 C158.4,782.85 147.15,786.35 135.64,786.35 C121.31,786.35 107.46,780.88 93.26,778.63 C83.42,777.07 72.69,777.27 63.47,781.85 C53.48,786.85 51.28,797.97 42.25,803.62 Z" id="Shape" fill="#007BFF" opacity="0.1"></path>
            <path d="M695.48,36.67 L230.86,36.67 C219.573304,36.6514208 208.741647,41.1179168 200.748556,49.0866274 C192.755465,57.0553381 188.2559,67.8732996 188.24,79.16 L188.24,722.89 C188.289657,746.381913 207.368066,765.3887 230.86,765.35 L695.48,765.35 C706.766696,765.368579 717.598353,760.902083 725.591444,752.933373 C733.584535,744.964662 738.0841,734.1467 738.1,722.86 L738.1,79.16 C738.0841,67.8732996 733.584535,57.0553381 725.591444,49.0866274 C717.598353,41.1179168 706.766696,36.6514208 695.48,36.67 Z" id="Shape" fill="url(#linearGradient-1)"></path>
            <rect id="Rectangle-path" fill="#535461" x="194.79" y="45.4" width="536.72" height="713.44" rx="20"></rect>
            <rect id="Rectangle-path" fill="#F6F7F9" x="222.06" y="112.88" width="482.18" height="578.47"></rect>
            <circle id="Oval" fill="#F6F7F9" cx="460.97" cy="78.12" r="6.55"></circle>
            <circle id="Oval" fill="#F6F7F9" cx="460.97" cy="723.93" r="19.64"></circle>
            <g id="Group" opacity="0.2" transform="translate(222.000000, 112.000000)" fill="#007BFF">
                <rect id="Rectangle-path" x="0.06" y="0.88" width="482.18" height="28.83"></rect>
            </g>
            <circle id="Oval" fill="#F6F7F9" cx="237.14" cy="127.3" r="6.15"></circle>
            <circle id="Oval" fill="#F6F7F9" cx="252.81" cy="127.3" r="6.15"></circle>
            <circle id="Oval" fill="#F6F7F9" cx="268.47" cy="127.3" r="6.15"></circle>
            <rect id="Rectangle-path" fill="#DCE0ED" x="236.46" y="282.93" width="449.01" height="1.5"></rect>
            <rect id="Rectangle-path" fill="#DCE0ED" x="236.46" y="317.76" width="449.01" height="1.5"></rect>
            <rect id="Rectangle-path" fill="#DCE0ED" x="236.46" y="352.6" width="449.01" height="1.5"></rect>
            <rect id="Rectangle-path" fill="#DCE0ED" x="236.46" y="387.43" width="449.01" height="1.5"></rect>
            <rect id="Rectangle-path" fill="#DCE0ED" x="236.46" y="422.26" width="449.01" height="1.5"></rect>
            <g id="Group" opacity="0.2" transform="translate(235.000000, 304.000000)" fill="#007BFF">
                <polygon id="Shape" points="450.47 119.76 0.91 119.76 0.91 51.26 42.14 71.58 84.81 77.37 122.25 66.08 167.42 31.05 190.14 17.93 206.75 14.73 222.64 15.58 248.77 28.49 284.3 51.12 312.18 54.7 334.28 47.08 381.14 8.71 405.06 0.18 430.09 4.05 450.47 15.82"></polygon>
            </g>
            <path d="M314.27,381.35 C273.78,381.35 236.37,356.59 235.9,356.27 L237.02,354.61 C237.6,355 295.18,393.09 344.11,374.01 C361.95,367.01 374.65,356.23 386.94,345.76 C399.77,334.83 411.88,324.51 428.4,320.03 C447.34,314.9 468.04,319.54 483.77,332.47 C497.22,343.52 524,361.26 552.29,355.96 C566.71,353.25 578.86,342.72 591.73,331.57 C616.4,310.19 641.92,288.08 686.06,319.8 L684.89,321.42 C642.03,290.62 617.13,312.21 593.04,333.08 C579.96,344.41 567.61,355.08 552.66,357.92 C523.56,363.38 496.22,345.28 482.5,334.01 C467.27,321.5 447.25,317.01 428.92,321.96 C412.84,326.32 400.92,336.5 388.23,347.28 C375.82,357.86 362.99,368.79 344.84,375.87 C335.080966,379.587294 324.712596,381.445936 314.27,381.35 Z" id="Shape" fill="#007BFF"></path>
            <circle id="Oval" fill="#007BFF" cx="452.52" cy="318.63" r="11.13"></circle>
            <g id="Group" opacity="0.2" transform="translate(455.000000, 171.000000)" fill="#007BFF">
                <path d="M142.7,0.35 L2.3,0.35 C1.04079077,0.35 0.02,1.37079077 0.02,2.63 L0.02,97.58 C0.0212061594,98.5141433 0.592111914,99.3530487 1.46065382,99.6969384 C2.32919572,100.040828 3.31964263,99.8201232 3.96,99.14 L28.29,73.19 C28.7196339,72.73031 29.3207942,72.4695658 29.95,72.47 L142.7,72.47 C143.959209,72.47 144.98,71.4492092 144.98,70.19 L144.98,2.61 C144.969022,1.35860823 143.95144,0.349951852 142.7,0.35 Z" id="Shape"></path>
            </g>
            <rect id="Rectangle-path" fill="#F6F7F9" x="487.52" y="188.93" width="79.95" height="10"></rect>
            <rect id="Rectangle-path" fill="#F6F7F9" x="487.52" y="211.09" width="21.95" height="10"></rect>
            <g id="Group" opacity="0.2" transform="translate(274.000000, 495.000000)" fill="#007BFF">
                <rect id="Rectangle-path" x="0.38" y="0.32" width="21.95" height="10"></rect>
            </g>
            <g id="Group" opacity="0.2" transform="translate(274.000000, 514.000000)" fill="#007BFF">
                <rect id="Rectangle-path" x="0.38" y="0.65" width="21.95" height="10"></rect>
            </g>
            <g id="Group" opacity="0.2" transform="translate(274.000000, 533.000000)" fill="#007BFF">
                <rect id="Rectangle-path" x="0.38" y="0.98" width="21.95" height="10"></rect>
            </g>
            <g id="Group" opacity="0.2" transform="translate(274.000000, 553.000000)" fill="#007BFF">
                <rect id="Rectangle-path" x="0.38" y="0.32" width="21.95" height="10"></rect>
            </g>
            <g id="Group" opacity="0.2" transform="translate(274.000000, 572.000000)" fill="#007BFF">
                <rect id="Rectangle-path" x="0.38" y="0.65" width="21.95" height="10"></rect>
            </g>
            <g id="Group" opacity="0.2" transform="translate(274.000000, 591.000000)" fill="#007BFF">
                <rect id="Rectangle-path" x="0.38" y="0.98" width="21.95" height="10"></rect>
            </g>
            <g id="Group" opacity="0.2" transform="translate(274.000000, 611.000000)" fill="#007BFF">
                <rect id="Rectangle-path" x="0.38" y="0.32" width="21.95" height="10"></rect>
            </g>
            <g id="Group" opacity="0.2" transform="translate(274.000000, 630.000000)" fill="#007BFF">
                <rect id="Rectangle-path" x="0.38" y="0.65" width="21.95" height="10"></rect>
            </g>
            <g id="Group" opacity="0.2" transform="translate(315.000000, 640.000000)" fill="#007BFF">
                <rect id="Rectangle-path" x="0.71" y="0.65" width="21.95" height="10"></rect>
            </g>
            <g id="Group" opacity="0.2" transform="translate(354.000000, 640.000000)" fill="#007BFF">
                <rect id="Rectangle-path" x="0.38" y="0.65" width="21.95" height="10"></rect>
            </g>
            <g id="Group" opacity="0.2" transform="translate(393.000000, 640.000000)" fill="#007BFF">
                <rect id="Rectangle-path" x="0.05" y="0.65" width="21.95" height="10"></rect>
            </g>
            <g id="Group" opacity="0.2" transform="translate(431.000000, 640.000000)" fill="#007BFF">
                <rect id="Rectangle-path" x="0.71" y="0.65" width="21.95" height="10"></rect>
            </g>
            <g id="Group" opacity="0.2" transform="translate(470.000000, 640.000000)" fill="#007BFF">
                <rect id="Rectangle-path" x="0.38" y="0.65" width="21.95" height="10"></rect>
            </g>
            <g id="Group" opacity="0.2" transform="translate(509.000000, 640.000000)" fill="#007BFF">
                <rect id="Rectangle-path" x="0.05" y="0.65" width="21.95" height="10"></rect>
            </g>
            <g id="Group" opacity="0.2" transform="translate(547.000000, 640.000000)" fill="#007BFF">
                <rect id="Rectangle-path" x="0.71" y="0.65" width="21.95" height="10"></rect>
            </g>
            <g id="Group" opacity="0.2" transform="translate(586.000000, 640.000000)" fill="#007BFF">
                <rect id="Rectangle-path" x="0.38" y="0.65" width="21.95" height="10"></rect>
            </g>
            <g id="Group" opacity="0.2" transform="translate(625.000000, 640.000000)" fill="#007BFF">
                <rect id="Rectangle-path" x="0.05" y="0.65" width="21.95" height="10"></rect>
            </g>
            <rect id="Rectangle-path" fill="#F6F7F9" x="534.14" y="211.09" width="33.33" height="10"></rect>
            <rect id="Rectangle-path" fill="#007BFF" x="315.71" y="567.98" width="21.95" height="62.67"></rect>
            <rect id="Rectangle-path" fill="#007BFF" x="354.38" y="538.98" width="21.95" height="91.67"></rect>
            <rect id="Rectangle-path" fill="#007BFF" x="393.05" y="514.65" width="21.95" height="116"></rect>
            <rect id="Rectangle-path" fill="#007BFF" x="431.71" y="527.26" width="21.95" height="103.38"></rect>
            <rect id="Rectangle-path" fill="#007BFF" x="470.38" y="505.32" width="21.95" height="125.33"></rect>
            <g id="Group" opacity="0.2" transform="translate(509.000000, 553.000000)" fill="#007BFF">
                <rect id="Rectangle-path" x="0.05" y="0.32" width="21.95" height="77.33"></rect>
            </g>
            <g id="Group" opacity="0.2" transform="translate(547.000000, 553.000000)" fill="#007BFF">
                <rect id="Rectangle-path" x="0.71" y="0.32" width="21.95" height="77.33"></rect>
            </g>
            <g id="Group" opacity="0.2" transform="translate(586.000000, 553.000000)" fill="#007BFF">
                <rect id="Rectangle-path" x="0.38" y="0.32" width="21.95" height="77.33"></rect>
            </g>
            <g id="Group" opacity="0.2" transform="translate(625.000000, 553.000000)" fill="#007BFF">
                <rect id="Rectangle-path" x="0.05" y="0.32" width="21.95" height="77.33"></rect>
            </g>
            <path d="M989.48,273.5 C965.71,259.83 956.73,256.44 956.68,256.42 L956.2,256.07 C953.607481,254.078909 951.546524,251.478669 950.2,248.5 C950.2,247.95 950.2,247.41 950.2,246.87 L950.2,247.03 C950.58,239.79 955.73,233.2 960.62,227.45 L973.11,212.75 C974.534444,211.298839 975.632296,209.560005 976.33,207.65 C976.587681,206.627436 976.702107,205.574042 976.67,204.52 C976.67,204.09 976.67,203.66 976.67,203.24 C976.61,199.59 976.5,195.93 976.37,192.24 C976.25,189.05 975.43,185.03 972.24,184.37 C970.58,184.03 968.39,184.63 967.51,183.2 C967.214881,182.615786 967.140321,181.944747 967.3,181.31 C967.295302,181.35989 967.295302,181.41011 967.3,181.46 L967.3,181.28 C967.920995,178.817401 968.319266,176.303945 968.49,173.77 C968.552822,172.48209 968.376514,171.193685 967.97,169.97 C966.12,164.67 959.76,162.5 954.13,161.5 C948.5,160.5 942.2,159.64 938.67,155.24 C937.58,153.88 936.84,152.24 935.6,151.01 C933.971171,149.567089 931.985794,148.586485 929.85,148.17 C922.867449,146.444307 915.509639,147.084423 908.93,149.99 C906.21,151.2 903.48,152.84 900.5,152.66 C897.52,152.48 894.75,150.33 891.69,149.81 C886.75,148.97 882.02,152.6 879.59,156.89 C878.146665,159.4417 877.375849,162.318495 877.35,165.25 C877.35,165.41 877.35,165.58 877.35,165.74 C877.276843,168.891426 878.42734,171.948664 880.56,174.27 C882.69,176.48 885.87,178 886.75,180.91 C887.11,182.09 887.02,183.37 887.34,184.57 C887.34,184.72 887.43,184.87 887.48,185.01 L887.32,185.22 C882.220845,191.754946 879.460358,199.811061 879.48,208.1 C879.587027,224.599511 890.356406,239.133925 906.11,244.04 C906.11,244.41 906.11,244.79 906.11,245.16 C906.11,249.7 904.82,254.33 900.94,257.74 L867.28,271.28 C867.28,271.28 846.99,268.87 839.67,298.53 C838.492236,303.454227 838.067415,308.528488 838.41,313.58 C838.68,318.05 838.06,325.93 832.86,336.12 C824.53,352.42 826.43,389.84 843.45,393.55 C859.52,397.05 865.81,395.55 866.45,395.42 L866.45,396.07 C866.19,403.07 863.64,463.66 854.37,470.99 C851.81,472.99 852.29,474.39 854.37,475.31 C854.37,475.31 854.37,475.7 854.31,476.4 C854.03,480.83 852.6,497.7 846.4,507.3 C839.21,518.41 839.96,582.52 839.96,582.52 L835.13,620.35 C835.13,620.35 838.13,643.69 835.13,647.77 C832.43,651.4 828.83,737.77 828.13,756.48 L827.81,756.48 C824.802211,756.660448 822.079311,758.319657 820.54,760.91 C816.54,767.37 802.64,779.3 802.64,779.3 C799.64,783.59 788.45,787.69 782.54,789.63 C781.747863,789.884646 780.983879,790.219726 780.26,790.63 C778.052143,791.834692 776.278621,793.702662 775.19,795.97 C774.412594,797.321624 774.214251,798.930005 774.64,800.43 C776.16,804.13 807.56,806.72 815.5,803.02 C821.75,800.1 846.5,796.27 856.77,794.77 C860.605524,794.282377 863.627155,791.264857 864.12,787.43 C864.303131,786.118248 863.941831,784.788665 863.12,783.75 C861.12,781.31 860.12,774.66 859.69,770.32 C860.525073,769.983228 861.304,769.521268 862,768.95 C861.156764,755.487854 863.086612,741.995936 867.67,729.31 C875.24,709.31 877.51,672.24 875.67,648.16 C875.67,648.16 898.75,548.86 916.91,539.59 C917.19,539.94 926,551.26 927.12,586.27 C928.26,621.84 941.12,645.18 941.12,645.18 C941.12,645.18 935.44,705.58 941.12,728.18 L933.69,763.84 C933.15,763.37 932.8,763.01 932.8,763.01 C932.8,763.01 933.02,764.01 933.33,765.59 L933.17,766.34 L933.49,766.42 C934.33,770.88 935.58,778.65 935.07,783.21 C934.77,785.8 934.07,789.36 933.55,792.85 C932.77,798.34 932.55,803.66 935.44,804.85 C940.17,806.75 967.98,809.35 972.71,803.24 C974.874326,800.697461 975.409169,797.147345 974.09,794.08 C973.745505,793.240481 973.28063,792.455585 972.71,791.75 C972.71,791.75 965.33,779.68 967.41,771.17 C967.808693,769.488528 967.489888,767.716983 966.53,766.28 C966.85,762.1 968.53,742.77 972.9,726.35 C977.63,708.52 987.62,669.43 980.27,643.72 C979.99,642.72 979.67,641.72 979.33,640.72 C975.088769,626.687574 973.674785,611.952913 975.17,597.37 C972.44144,584.917719 972.44144,572.022281 975.17,559.57 C979.71,538.82 982.88,518.44 982.88,518.44 C982.88,518.44 985.39,491.03 983.2,474.22 L983.05,473.14 L984.25,472.87 C984.25,472.87 977.82,444.34 975.55,426.19 C975.01,421.9 974.31,416.47 973.55,410.67 C975.646159,410.335035 977.710196,409.823207 979.72,409.14 C1000.08,402.07 1006.48,338.35 1006.48,338.35 L1006.48,318.15 C1006.48,318.15 1013.32,287.21 989.48,273.5 Z M837.28,765.57 C836.65,765.25 836.28,765.04 836.28,765.04 L837.28,765.57 Z" id="Shape" fill="url(#linearGradient-2)"></path>
            <path d="M977.15,641.26 C986.01,666.74 975.67,708.09 970.87,726.55 C966.07,745.01 964.59,767.18 964.59,767.18 C945.76,770.13 932.1,766.43 932.1,766.43 L939.85,728.43 C934.31,705.91 939.85,645.72 939.85,645.72 C939.85,645.72 927.3,622.46 926.19,587.01 C925.1,552.11 916.5,540.84 916.19,540.49 C898.47,549.72 875.94,648.69 875.94,648.69 C877.79,672.69 875.57,709.61 868.19,729.55 C863.71382,742.215557 861.829821,755.6518 862.65,769.06 C860.07,771.24 856.48,771.61 852.6,770.99 C842.09,769.24 829.48,760.16 829.48,760.16 C829.48,760.16 833.48,652.35 836.48,648.28 C839.48,644.21 836.48,620.95 836.48,620.95 L841.27,583.29 C841.27,583.29 840.54,519.4 847.55,508.29 C853.61,498.72 855,481.91 855.27,477.5 C855.27,476.8 855.33,476.41 855.33,476.41 L866.01,463.61 C866.01,463.61 969.41,455.86 977.16,463.61 C979.07,465.52 980.24,469.84 980.94,475.29 C983.07,492.04 980.63,519.36 980.63,519.36 C980.63,519.36 977.53,539.67 973.1,560.36 C970.431743,572.771546 970.431743,585.608454 973.1,598.02 C971.629504,612.559578 973.005118,627.246377 977.15,641.26 Z" id="Shape" fill="#65617D"></path>
            <path d="M970.69,803.18 C966.07,809.27 938.93,806.68 934.31,804.79 C931.49,803.62 931.71,798.32 932.47,792.85 C932.95,789.37 933.66,785.85 933.95,783.24 C934.69,776.59 931.73,763.11 931.73,763.11 C931.73,763.11 937.83,769.57 939.3,763.11 C939.95,760.29 942.22,758.84 944.57,758.11 C947.735842,757.159182 951.137358,757.371998 954.16,758.71 C958.95,760.79 966.96,765.23 965.52,771.23 C963.52,779.71 970.69,791.74 970.69,791.74 C971.245607,792.445075 971.696895,793.226411 972.03,794.06 C973.31971,797.11193 972.803088,800.628042 970.69,803.18 Z" id="Shape" fill="#A27772"></path>
            <path d="M970.69,803.18 C966.07,809.27 938.93,806.68 934.31,804.79 C931.49,803.62 931.71,798.32 932.47,792.85 C935.38,794.21 940.34,795.35 948.6,794.58 C950.531088,794.400029 952.471474,794.339914 954.41,794.4 C960.284652,794.669959 966.170703,794.55304 972.03,794.05 C973.323803,797.104718 972.807005,800.625883 970.69,803.18 Z" id="Shape" fill="#000000" opacity="0.1"></path>
            <path d="M875.97,648.65 C877.82,672.65 875.6,709.57 868.22,729.51 C863.74382,742.175557 861.859821,755.6118 862.68,769.02 C860.1,771.2 856.51,771.57 852.63,770.95 C854.86,755.35 864.35,688.27 870.48,635.26 C877.36,574.89 909.76,533.35 909.76,533.35 L916.22,540.46 C898.48,549.68 875.97,648.65 875.97,648.65 Z" id="Shape" fill="#000000" opacity="0.1"></path>
            <path d="M959.61,260.56 L955.1,282.71 L933.02,319.82 L905.79,308.19 C905.79,308.19 868.79,269.42 892.04,263.88 C894.825348,263.285101 897.455167,262.113264 899.76,260.44 C904.33,257 905.76,251.99 905.76,247.09 C905.76,239 901.98,231.2 901.98,231.2 L949.61,216.2 C947.642585,222.458957 946.493047,228.946114 946.19,235.5 C945.83,248.5 950.65,254.86 954.6,257.91 C956.078548,259.115615 957.781341,260.016294 959.61,260.56 Z" id="Shape" fill="#FBBEBE"></path>
            <path d="M949.64,216.25 C947.672585,222.508957 946.523047,228.996114 946.22,235.55 C945.354185,236.582642 944.429304,237.564285 943.45,238.49 C933.433805,248.064903 918.969614,251.367931 905.79,247.09 C905.79,239 902.01,231.2 902.01,231.2 L949.64,216.25 Z" id="Shape" fill="#000000" opacity="0.1"></path>
            <path d="M955.1,210.16 C955.095946,225.394776 945.913483,239.126432 931.835676,244.949981 C917.757868,250.773531 901.558138,247.541695 890.792681,236.76193 C880.027224,225.982164 876.816907,209.778157 882.65915,195.708096 C888.501392,181.638035 902.245232,172.473819 917.48,172.49 C927.475923,172.45791 937.070969,176.418004 944.134494,183.490918 C951.19802,190.563832 955.145367,200.164129 955.1,210.16 Z" id="Shape" fill="#FBBEBE"></path>
            <path d="M959.61,260.56 L955.1,282.71 L933.02,319.82 L905.79,308.19 C905.79,308.19 868.79,269.42 892.04,263.88 C894.825348,263.285101 897.455167,262.113264 899.76,260.44 C895.56,271.99 912.9,296.01 912.9,296.01 C914.9,299.01 919.55,297.11 919.55,297.11 C930.71,295.43 951.28,263.3 954.63,257.96 C956.103779,259.144334 957.795794,260.027715 959.61,260.56 Z" id="Shape" fill="#000000" opacity="0.1"></path>
            <path d="M980.93,475.35 C974.38,476.84 938.1,484.88 924.34,482.87 C909.21,480.65 879.77,479.18 879.77,479.18 C879.77,479.18 861.03,480.18 855.26,477.56 C855.26,476.86 855.32,476.47 855.32,476.47 L866,463.67 C866,463.67 969.4,455.92 977.15,463.67 C979.06,465.56 980.23,469.88 980.93,475.35 Z" id="Shape" fill="#000000" opacity="0.1"></path>
            <path d="M912.9,297.11 C912.9,297.11 893.42,270.11 900.76,259.62 L867.85,273.11 C867.85,273.11 848.04,270.71 840.85,300.27 C839.70233,305.181953 839.28784,310.236701 839.62,315.27 C839.88,319.73 839.28,327.58 834.2,337.73 C826.07,353.98 827.92,391.27 844.54,394.97 C861.16,398.67 867.06,396.81 867.06,396.81 C867.06,396.81 864.85,464.39 855.25,472.14 C845.65,479.89 879.72,478.05 879.72,478.05 C879.72,478.05 909.16,479.53 924.3,481.74 C939.44,483.95 981.9,473.99 981.9,473.99 C981.9,473.99 975.62,445.55 973.41,427.46 C971.2,409.37 966.02,370.84 966.02,370.84 L1003.69,319.84 C1003.69,319.84 1010.33,289.01 987.07,275.35 C963.81,261.69 955.07,258.35 955.07,258.35 C955.07,258.35 931.73,296.35 919.55,298.22 C919.55,298.22 914.92,300.08 912.9,297.11 Z" id="Shape" fill="#7C7CDD"></path>
            <path d="M869.7,307.82 C869.7,307.82 869.33,320.01 871.54,324.82 C873.75,329.63 881.88,356.21 881.88,356.21 L863.42,356.21 C863.42,356.21 873.42,345.5 872.65,340.33 C871.88,335.16 869.7,307.82 869.7,307.82 Z" id="Shape" fill="#000000" opacity="0.1"></path>
            <path d="M924.35,399.77 C924.35,399.77 883.57,389.77 879.77,381.3 C875.97,372.83 865.48,353.81 865.48,353.81 L869.78,348.01 L889.62,363.58 C889.62,363.58 913.25,382.41 924.33,384.26 C935.41,386.11 924.35,399.77 924.35,399.77 Z" id="Shape" fill="#FBBEBE"></path>
            <path d="M924.35,399.77 C924.35,399.77 883.57,389.77 879.77,381.3 C875.97,372.83 865.48,353.81 865.48,353.81 L869.78,348.01 L889.62,363.58 C889.62,363.58 913.25,382.41 924.33,384.26 C935.41,386.11 924.35,399.77 924.35,399.77 Z" id="Shape" fill="#000000" opacity="0.05"></path>
            <path d="M959.61,351.77 L959.61,373.89 L956.05,373.89 C938.48147,373.893372 921.202707,378.367061 905.84,386.89 L899.18,390.59 L897.39,391.59 L885.94,365.81 L896.65,356.21 L897.2,356.21 C899.82,356.46 911.15,357.41 915.95,355.79 C920.51,354.24 926.17,349.33 939.6,352.79 C946.22,354.48 951.87,361.9 958.29,359.58 L959.61,351.77 Z" id="Shape" fill="#FBBEBE"></path>
            <path d="M995.24,311.52 L1002.63,319.82 L1002.63,339.95 C1002.63,339.95 996.35,403.46 976.41,410.48 C956.47,417.5 920.88,406.41 920.88,406.41 C920.88,406.41 911.68,382.04 915.98,380.57 C920.28,379.1 953.98,370.19 953.98,370.19 C953.98,370.19 953.51,332.93 960.89,321.85 C960.89,321.85 956.09,287.15 972.71,286.41 C989.33,285.67 995.24,311.52 995.24,311.52 Z" id="Shape" fill="#000000" opacity="0.1"></path>
            <path d="M996.35,311.52 L1003.74,319.82 L1003.74,339.95 C1003.74,339.95 997.48,403.46 977.48,410.48 C957.48,417.5 921.94,406.41 921.94,406.41 C921.94,406.41 912.75,382.04 917.05,380.57 C921.35,379.1 955.05,370.19 955.05,370.19 C955.05,370.19 954.57,332.93 961.96,321.85 C961.96,321.85 957.16,287.15 973.78,286.41 C990.4,285.67 996.35,311.52 996.35,311.52 Z" id="Shape" fill="#7C7CDD"></path>
            <path d="M944.77,226.16 C944.92,223.73 944.97,221.16 943.93,218.97 C942.89,216.78 940.45,215.03 938.07,215.59 C934.91,216.33 933.55,220.44 930.45,221.43 C927.84,222.26 924.99,220.43 923.75,217.97 C922.51,215.51 922.47,212.67 922.46,209.97 C922.46,206.89 922.46,203.8 922.46,200.72 C922.46,197.36 922.35,193.72 920.28,191.1 C917.71,187.81 911.66,186.38 907.62,186.51 C904.928905,186.541273 902.348023,187.583621 900.39,189.43 C898.23,191.26 895.73,192.62 892.78,192.13 C890.278943,191.750955 888.217641,189.969679 887.48,187.55 L887.48,187.43 C896.039872,176.120721 910.227835,170.579904 924.186539,173.095017 C938.145243,175.61013 949.507001,185.754557 953.581232,199.340279 C957.655463,212.926001 953.751093,227.648597 943.48,237.43 C944.1215,233.700568 944.552183,229.937928 944.77,226.16 Z" id="Shape" fill="#000000" opacity="0.1"></path>
            <path d="M892.76,190.99 C890.257427,190.607015 888.196533,188.822203 887.46,186.4 C887.15,185.21 887.23,183.94 886.88,182.75 C886.02,179.85 882.88,178.34 880.88,176.14 C876.72,171.72 876.99,164.46 879.94,159.14 C882.32,154.86 886.94,151.25 891.75,152.08 C894.75,152.6 897.32,154.73 900.35,154.92 C903.38,155.11 905.92,153.47 908.58,152.26 C914.981516,149.36071 922.178171,148.722496 928.99,150.45 C931.083807,150.870586 933.025362,151.848273 934.61,153.28 C935.681925,154.630665 936.683263,156.035876 937.61,157.49 C941.06,161.88 947.22,162.74 952.71,163.73 C958.2,164.72 964.4,166.89 966.21,172.17 C967.4,175.67 966.21,179.47 965.56,183.11 C965.328455,183.851705 965.378296,184.652719 965.7,185.36 C966.56,186.78 968.7,186.19 970.32,186.53 C973.44,187.18 974.24,191.19 974.32,194.37 C974.453333,198.01 974.553333,201.65 974.62,205.29 C974.995792,208.713882 973.705034,212.110025 971.15,214.42 L958.96,229.07 C953.55,235.57 947.81,243.14 948.9,251.52 C946.34,252.67 943.3,250.45 942.46,247.77 C941.62,245.09 942.3,242.21 942.86,239.46 C943.846688,234.70556 944.491671,229.886571 944.79,225.04 C944.94,222.6 944.99,220.04 943.95,217.85 C942.91,215.66 940.47,213.85 938.09,214.46 C934.93,215.2 933.57,219.31 930.47,220.3 C927.87,221.13 925.01,219.3 923.77,216.84 C922.53,214.38 922.49,211.54 922.48,208.84 L922.48,199.58 C922.48,196.23 922.37,192.58 920.3,189.96 C917.73,186.67 911.68,185.24 907.64,185.37 C904.949297,185.403225 902.369097,186.445297 900.41,188.29 C898.21,190.12 895.71,191.47 892.76,190.99 Z" id="Shape" fill="#7C5C5C"></path>
            <path d="M901.27,306.9 L912.83,354.4 C912.83,354.4 921.95,354.35 901.27,306.9 Z" id="Shape" fill="#000000" opacity="0.1"></path>
            <path d="M940.78,298.96 C940.78,298.96 925.64,323.76 931.55,349.39 L934.37,349.6 C934.37,349.6 929.33,337.73 940.78,298.96 Z" id="Shape" fill="#000000" opacity="0.1"></path>
            <path d="M950.38,439.28 C950.38,439.28 968.97,433.13 970.32,447.4 C970.32,447.4 966.81,437.62 950.38,439.28 Z" id="Shape" fill="#000000" opacity="0.1"></path>
            <path d="M896.65,357.35 C896.65,357.35 892.96,383.2 899.65,393.54 C899.65,393.54 886.13,399.08 867.15,397.97 L864.9,357.35 L896.65,357.35 Z" id="Shape" fill="#000000" opacity="0.1"></path>
            <path d="M899.18,390.58 L897.39,391.58 L885.94,365.8 L896.65,356.2 L897.2,356.2 C897.03,357.44 894.05,379.64 899.18,390.58 Z" id="Shape" fill="#000000" opacity="0.1"></path>
            <path d="M896.65,356.2 C896.65,356.2 892.96,382.04 899.65,392.38 C899.65,392.38 886.13,397.92 867.15,396.81 L854.23,356.2 L896.65,356.2 Z" id="Shape" fill="#7C7CDD"></path>
            <path d="M864.71,787.46 C864.269732,791.248102 861.318881,794.256571 857.54,794.77 C847.54,796.27 823.36,800.09 817.26,802.99 C809.51,806.68 778.86,804.1 777.38,800.41 C776.962863,798.918123 777.153419,797.321771 777.91,795.97 C778.976921,793.713255 780.725954,791.848785 782.91,790.64 C783.615015,790.233888 784.358675,789.898905 785.13,789.64 C790.9,787.71 801.8,783.64 804.75,779.34 C804.75,779.34 818.34,767.45 822.21,761.02 C823.692595,758.455912 826.354802,756.798595 829.31,756.6 C832.55,756.45 836.15,758.08 837.62,765.17 C837.62,765.17 855.34,775.28 860.13,766.41 C860.13,766.41 860.87,780.03 863.81,783.75 C864.59503,784.816099 864.919272,786.152695 864.71,787.46 Z" id="Shape" fill="#A27772"></path>
            <path d="M864.71,787.46 C864.269732,791.248102 861.318881,794.256571 857.54,794.77 C847.54,796.27 823.36,800.09 817.26,802.99 C809.51,806.68 778.86,804.1 777.38,800.41 C776.962863,798.918123 777.153419,797.321771 777.91,795.97 C778.976921,793.713255 780.725954,791.848785 782.91,790.64 C787.91,793.96 799,797.2 823.4,793.39 C846.67,789.76 858.19,786.2 863.81,783.77 C864.589756,784.830914 864.913731,786.159211 864.71,787.46 Z" id="Shape" fill="#000000" opacity="0.1"></path>
            <g id="Group" opacity="0.1" transform="translate(877.000000, 167.000000)" fill="#000000">
                <path d="M88.48,16.65 L88.48,16.47 C89.01,13.7 89.8,10.84 89.62,8.08 C89.3829981,10.3452243 89.0022302,12.5930908 88.48,14.81 C88.3402468,15.4153723 88.3402468,16.0446277 88.48,16.65 Z" id="Shape"></path>
                <path d="M66.92,51.21 C67.5021606,52.5417632 67.8115839,53.9766711 67.83,55.43 C68.0012125,53.4254316 67.6891513,51.4090359 66.92,49.55 C65.92,47.34 63.45,45.6 61.07,46.16 C57.91,46.9 56.55,51.01 53.45,52 C50.84,52.83 47.99,51 46.74,48.54 C45.49,46.08 45.47,43.24 45.46,40.54 C45.46,37.45 45.46,34.37 45.46,31.28 C45.46,27.93 45.35,24.28 43.28,21.66 C40.71,18.37 34.65,16.94 30.62,17.07 C27.9289053,17.1012734 25.3480232,18.1436213 23.39,19.99 C21.22,21.83 18.73,23.18 15.78,22.7 C13.2774269,22.3170151 11.216533,20.5322032 10.48,18.11 C10.17,16.92 10.25,15.65 9.9,14.46 C9.03,11.56 5.9,10.05 3.9,7.85 C1.95555076,5.70681473 0.851062398,2.93316389 0.79,0.04 C0.478530163,3.49022858 1.60363731,6.91619794 3.9,9.51 C5.98,11.71 9.07,13.23 9.9,16.13 C10.25,17.31 10.17,18.58 10.48,19.77 C11.216533,22.1922032 13.2774269,23.9770151 15.78,24.36 C18.78,24.84 21.22,23.49 23.39,21.65 C25.3480232,19.8036213 27.9289053,18.7612734 30.62,18.73 C34.62,18.6 40.71,20.04 43.28,23.32 C45.35,25.96 45.45,29.59 45.46,32.94 C45.46,36.03 45.46,39.11 45.46,42.2 C45.46,44.94 45.46,47.79 46.74,50.2 C48.02,52.61 50.84,54.49 53.45,53.66 C56.55,52.66 57.91,48.56 61.07,47.82 C63.48,47.27 65.89,49 66.92,51.21 Z" id="Shape"></path>
                <path d="M97.27,41.04 C96.5961076,42.937174 95.5256703,44.6689643 94.13,46.12 C90.07,51.0066667 86.0066667,55.89 81.94,60.77 C76.81,66.94 71.37,74.08 71.77,81.95 C72.14,74.73 77.17,68.16 81.94,62.43 L94.13,47.79 C95.5237269,46.3336155 96.5937923,44.5990191 97.27,42.7 C97.5718416,41.3895113 97.6796579,40.0418087 97.59,38.7 C97.5798494,39.4901827 97.472373,40.2761041 97.27,41.04 Z" id="Shape"></path>
                <path d="M65.48,79.47 C65.2829061,78.8195355 65.1620953,78.1483642 65.12,77.47 C65.0151881,78.6951473 65.1372293,79.9291191 65.48,81.11 C66.32,83.79 69.37,86 71.93,84.85 C71.86,84.31 71.82,83.77 71.8,83.23 C69.22,84.29 66.26,82.11 65.48,79.47 Z" id="Shape"></path>
            </g>
            <path d="M819.74,764.35 C819.74,764.35 823.6,771.14 837.58,765.16" id="Shape" fill="#000000" opacity="0.1"></path>
            <path d="M937.98,766.02 C937.98,766.02 950.04,780.22 965.24,770.67" id="Shape" fill="#000000" opacity="0.1"></path>
            <path d="M973.09,598.05 C973.09,598.05 964.56,603.38 964.29,606.43 C964.02,609.48 968.69,604.21 968.69,604.21 L973.09,598.05 Z" id="Shape" fill="#000000" opacity="0.1"></path>
            <path d="M976.48,638.88 C973.516202,641.347423 969.831585,642.786178 965.98,642.98 C959.61,643.26 960.14,651.57 964.3,649.07 C968.46,646.57 976.48,638.88 976.48,638.88 Z" id="Shape" fill="#000000" opacity="0.1"></path>
            <path d="M978.07,644.21 C978.07,644.21 973.98,664.31 970.66,660.43" id="Shape" fill="#000000" opacity="0.1"></path>
            <path d="M136.76,737.71 C136.76,737.71 142.25,744.89 134.22,755.71 C126.19,766.53 119.57,775.71 122.22,782.47 C122.22,782.47 134.33,762.33 144.22,762.05 C154.11,761.77 147.61,749.82 136.76,737.71 Z" id="Shape" fill="#007BFF"></path>
            <path d="M136.76,737.71 C137.241131,738.401327 137.618465,739.159364 137.88,739.96 C147.5,751.26 152.63,761.81 143.38,762.08 C134.77,762.32 124.38,777.73 121.96,781.62 C122.041594,781.918088 122.138387,782.211805 122.25,782.5 C122.25,782.5 134.36,762.36 144.25,762.08 C154.14,761.8 147.61,749.82 136.76,737.71 Z" id="Shape" fill="#000000" opacity="0.1"></path>
            <path d="M146.97,746.86 C146.97,749.39 146.69,751.44 146.34,751.44 C145.99,751.44 145.7,749.39 145.7,746.86 C145.7,744.33 146.06,745.53 146.41,745.53 C146.76,745.53 146.97,744.35 146.97,746.86 Z" id="Shape" fill="#FFD037"></path>
            <path d="M150.48,749.88 C148.26,751.09 146.32,751.82 146.15,751.52 C145.98,751.22 147.65,749.98 149.87,748.77 C152.09,747.56 151.21,748.44 151.38,748.77 C151.55,749.1 152.7,748.67 150.48,749.88 Z" id="Shape" fill="#FFD037"></path>
            <path d="M107.74,737.71 C107.74,737.71 102.25,744.89 110.28,755.71 C118.31,766.53 124.93,775.71 122.28,782.47 C122.28,782.47 110.17,762.33 100.28,762.05 C90.39,761.77 96.9,749.82 107.74,737.71 Z" id="Shape" fill="#007BFF"></path>
            <path d="M107.74,737.71 C107.263266,738.403923 106.886258,739.161306 106.62,739.96 C97,751.26 91.87,761.81 101.12,762.08 C109.74,762.32 120.12,777.73 122.54,781.62 C122.462874,781.919416 122.365995,782.213393 122.25,782.5 C122.25,782.5 110.14,762.36 100.25,762.08 C90.36,761.8 96.9,749.82 107.74,737.71 Z" id="Shape" fill="#000000" opacity="0.1"></path>
            <path d="M97.53,746.86 C97.53,749.39 97.81,751.44 98.16,751.44 C98.51,751.44 98.8,749.39 98.8,746.86 C98.8,744.33 98.44,745.53 98.09,745.53 C97.74,745.53 97.53,744.35 97.53,746.86 Z" id="Shape" fill="#FFD037"></path>
            <path d="M94.03,749.88 C96.25,751.09 98.18,751.82 98.35,751.52 C98.52,751.22 96.85,749.98 94.63,748.77 C92.41,747.56 93.29,748.44 93.12,748.77 C92.95,749.1 91.81,748.67 94.03,749.88 Z" id="Shape" fill="#FFD037"></path>
            <path d="M99.28,781.56 C99.28,781.56 114.64,781.09 119.28,777.79 C123.92,774.49 142.9,770.56 144.05,775.85 C145.2,781.14 167.13,802.14 149.79,802.28 C132.45,802.42 109.5,799.58 104.88,796.76 C100.26,793.94 99.28,781.56 99.28,781.56 Z" id="Shape" fill="#A8A8A8"></path>
            <path d="M150.09,800.44 C132.75,800.58 109.8,797.74 105.18,794.92 C101.66,792.78 100.26,785.09 99.79,781.54 L99.28,781.54 C99.28,781.54 100.28,793.93 104.87,796.74 C109.46,799.55 132.44,802.4 149.78,802.26 C154.78,802.26 156.52,800.44 156.42,797.8 C155.73,799.41 153.82,800.41 150.09,800.44 Z" id="Shape" fill="#000000" opacity="0.2"></path>
        </g>
    </g>
</svg>