<?xml version="1.0" encoding="UTF-8"?>
<svg width="557px" height="467px" viewBox="0 0 557 467" version="1.1" xmlns="http://www.w3.org/2000/svg" xmlns:xlink="http://www.w3.org/1999/xlink">
    <!-- Generator: Sketch 51.3 (57544) - http://www.bohemiancoding.com/sketch -->
    <title>illustration-signup</title>
    <desc>Created with Sketch.</desc>
    <defs>
        <linearGradient x1="49.9990906%" y1="99.9986219%" x2="49.9990906%" y2="5.94155337e-06%" id="linearGradient-1">
            <stop stop-color="#808080" stop-opacity="0.25" offset="0%"></stop>
            <stop stop-color="#808080" stop-opacity="0.12" offset="54%"></stop>
            <stop stop-color="#808080" stop-opacity="0.1" offset="100%"></stop>
        </linearGradient>
    </defs>
    <g id="Page-1" stroke="none" stroke-width="1" fill="none" fill-rule="evenodd">
        <g id="illustration-signup" fill-rule="nonzero">
            <path d="M56.9146417,14.2612151 C36.0112357,18.0034684 12.0076012,24.67243 3.5513811,45.1767395 C-4.176054,63.9227104 4.89327103,85.0401247 10.9953998,104.439689 C17.0088772,123.592415 20.1280897,143.53588 20.2498131,163.610094 C20.4059813,191.847622 14.9053894,221.623697 26.0800935,247.281558 C38.6892316,276.230519 69.8939564,292.975223 80.8315161,322.647186 C85.4182347,335.088588 85.9734995,348.704143 88.1598546,361.851194 C93.0068536,390.985244 106.246449,418.499772 125.680717,439.813842 C138.602191,453.984663 155.427871,465.876584 174.063946,466.16 C188.200062,466.379792 201.549553,459.965327 214.644548,454.349055 C229.921674,447.79945 245.580513,442.178724 261.535504,437.517591 C268.256521,435.556812 275.179979,433.752202 282.132357,434.365306 C295.52812,435.522108 306.702825,445.354922 319.416075,449.982129 C353.871412,462.475587 389.489335,435.325452 425.841828,432.462368 C457.006064,430.004164 488.309117,445.673043 518.929657,439.131329 C523.441184,438.1654 528.265047,436.412845 530.630706,432.248359 C534.54648,425.348037 529.687913,415.79864 533.169886,408.643822 C536.651859,401.489003 546.050872,400.74865 551.568816,395.305898 C557.185088,389.764818 557.642025,380.198069 554.778941,372.673074 C551.915857,365.148079 546.392129,359.155846 541.082409,353.296646 C514.80108,324.274144 490.604113,293.430211 468.672409,260.995441 C446.299865,227.916698 425.361755,189.007674 431.654756,148.918712 C433.829543,135.123853 439.173967,122.069346 441.597466,108.320758 C444.020966,94.5721704 443.026116,79.00162 434.136096,68.6251091 C428.826376,62.4246522 421.376573,58.8443511 414.146563,55.4317862 C346.716594,23.6023885 274.468546,-8.99049833 201.462793,3.05759097 C189.576656,5.01836979 177.811983,8.16487031 165.78703,8.59288692 C148.382949,9.21755982 132.002638,1.43806864 115.003437,3.96568028 C95.7022015,6.81719637 76.1985254,10.8081621 56.9146417,14.2612151 Z" id="Shape" fill="#50658E" opacity="0.1"></path>
            <path d="M88.1598546,54.3212566 C87.1534372,57.3462929 78.7492731,64.3044549 78.7492731,64.3044549 C78.7492731,64.3044549 76.1927414,53.7023677 77.1991589,50.6715474 C78.2069983,47.6368488 81.4841228,45.9937547 84.5188214,47.0015941 C87.55352,48.0094335 89.196614,51.286558 88.1887747,54.3212566 L88.1598546,54.3212566 Z" id="Shape" fill="#293855"></path>
            <path d="M100.369896,74.3281413 C99.8898235,77.4804259 92.7812773,85.7573417 92.7812773,85.7573417 C92.7812773,85.7573417 88.4664071,75.7394394 88.9464798,72.5871548 C89.1643673,70.4650182 90.5326832,68.6351002 92.5065983,67.8260281 C94.4805135,67.016956 96.7395271,67.3600973 98.3841567,68.7188217 C100.028786,70.0775462 100.791996,72.2312404 100.369896,74.3223573 L100.369896,74.3281413 Z" id="Shape" fill="#293855"></path>
            <path d="M87.697134,98.8118485 C90.8552025,98.3491278 99.1726064,91.2926377 99.1726064,91.2926377 C99.1726064,91.2926377 89.1778401,86.9199274 86.0255556,87.3826481 C83.9110602,87.60059 82.0864995,88.9608145 81.2738848,90.9250564 C80.46127,92.8892984 80.7915644,95.140995 82.1340646,96.7891099 C83.4765648,98.4372247 85.6149096,99.2161428 87.702918,98.8176325 L87.697134,98.8118485 Z" id="Shape" fill="#293855"></path>
            <path d="M364.629668,0.292835 L95.9219938,0.292835 C89.3932266,0.283624423 83.1282025,2.8683371 78.5051587,7.47836438 C73.8821149,12.0883917 71.279748,18.3461031 71.2705504,24.8748703 L71.2705504,397.203053 C71.2782151,403.732823 73.8799057,409.99202 78.5031158,414.603298 C83.1263259,419.214576 89.3922257,421.800082 95.9219938,421.790872 L364.629668,421.790872 C371.158435,421.800083 377.423459,419.21537 382.046503,414.605343 C386.669547,409.995316 389.271914,403.737604 389.281111,397.208837 L389.281111,24.8690863 C389.258767,11.2758911 378.222868,0.273653271 364.629668,0.292835 Z" id="Shape" fill="url(#linearGradient-1)"></path>
            <rect id="Rectangle-path" fill="#535461" x="75.0590758" y="5.34227425" width="310.439294" height="412.654289" rx="20"></rect>
            <rect id="Rectangle-path" fill="#F1F1F4" x="90.8320665" y="44.3785463" width="278.893313" height="334.587529"></rect>
            <circle id="Oval" fill="#FFFFFF" cx="229.017809" cy="24.2675494" r="3.78852544"></circle>
            <circle id="Oval" fill="#FFFFFF" cx="229.017809" cy="397.80459" r="11.3597923"></circle>
            <rect id="Rectangle-path" fill="#293855" x="124.431371" y="87.8395847" width="54.3696781" height="54.3696781" rx="11.85"></rect>
            <rect id="Rectangle-path" fill="#293855" opacity="0.2" transform="translate(308.941236, 115.024424) rotate(-180.000000) translate(-308.941236, -115.024424) " x="281.756397" y="87.8395847" width="54.3696781" height="54.3696781" rx="11.85"></rect>
            <rect id="Rectangle-path" fill="#293855" x="203.093884" y="87.8395847" width="54.3696781" height="54.3696781" rx="11.85"></rect>
            <rect id="Rectangle-path" fill="#293855" x="124.431371" y="183.854123" width="54.3696781" height="54.3696781" rx="11.85"></rect>
            <rect id="Rectangle-path" fill="#293855" opacity="0.2" transform="translate(308.941236, 211.038962) rotate(-180.000000) translate(-308.941236, -211.038962) " x="281.756397" y="183.854123" width="54.3696781" height="54.3696781" rx="11.85"></rect>
            <rect id="Rectangle-path" fill="#293855" opacity="0.2" x="203.093884" y="183.854123" width="54.3696781" height="54.3696781" rx="11.85"></rect>
            <rect id="Rectangle-path" fill="#293855" x="124.431371" y="279.868661" width="54.3696781" height="54.3696781" rx="11.85"></rect>
            <rect id="Rectangle-path" fill="#293855" transform="translate(308.941236, 307.053500) rotate(-180.000000) translate(-308.941236, -307.053500) " x="281.756397" y="279.868661" width="54.3696781" height="54.3696781" rx="11.85"></rect>
            <rect id="Rectangle-path" fill="#293855" x="203.093884" y="279.868661" width="54.3696781" height="54.3696781" rx="11.85"></rect>
            <path d="M377.007445,208.841039 C377.007445,208.841039 353.562398,257.743053 360,271 C360,271 367.461454,272.242295 369,273 C370.538546,273.757705 385.741298,200.888027 385.741298,200.888027 L377.007445,208.841039 Z" id="Shape" fill="#DDDDEA"></path>
            <path d="M391.398058,404.276895 C391.398058,404.276895 382.305597,421.322368 374.352586,425.099325 C366.399574,428.876283 372.837175,434.191786 380.414226,433.052337 C387.991277,431.912887 412.989761,413.733749 412.989761,413.733749 C412.989761,413.733749 412.816241,401.836044 410.439013,400.968442 C408.061786,400.100841 391.398058,404.276895 391.398058,404.276895 Z" id="Shape" fill="#575988"></path>
            <path d="M415.262876,376.629336 C415.262876,376.629336 402.387674,389.504538 396.701994,390.643988 C391.016314,391.783437 401.624185,399.354704 411.850312,395.190218 C422.076438,391.025732 436.09109,383.448681 436.09109,383.448681 C436.09109,383.448681 436.467051,371.302264 430.02945,370.191734 C423.591848,369.081205 415.262876,376.629336 415.262876,376.629336 Z" id="Shape" fill="#575988"></path>
            <path d="M362.235088,271.331464 C362.235088,271.331464 364.884164,317.539907 368.296729,323.96594 C371.709294,330.391973 384.584496,350.098089 384.584496,350.098089 C384.584496,350.098089 399.356854,360.705961 400.114559,363.355036 C400.872264,366.004112 412.989761,375.096573 412.989761,375.096573 L413.747466,380.400509 C413.747466,380.400509 433.823759,379.243707 432.684309,372.447498 C431.54486,365.651288 420.942773,359.19055 420.942773,359.19055 C420.942773,359.19055 414.123427,341.387373 397.459699,336.465182 C397.459699,336.465182 392.155763,328.888131 396.701994,322.832274 C396.701994,322.832274 408.06757,294.427009 414.505171,291.020229 C420.942773,287.613448 411.850312,267.936251 411.850312,267.936251 L362.235088,271.331464 Z" id="Shape" fill="#67647E"></path>
            <path d="M362.235088,271.331464 C362.235088,271.331464 364.884164,317.539907 368.296729,323.96594 C371.709294,330.391973 384.584496,350.098089 384.584496,350.098089 C384.584496,350.098089 399.356854,360.705961 400.114559,363.355036 C400.872264,366.004112 412.989761,375.096573 412.989761,375.096573 L413.747466,380.400509 C413.747466,380.400509 433.823759,379.243707 432.684309,372.447498 C431.54486,365.651288 420.942773,359.19055 420.942773,359.19055 C420.942773,359.19055 414.123427,341.387373 397.459699,336.465182 C397.459699,336.465182 392.155763,328.888131 396.701994,322.832274 C396.701994,322.832274 408.06757,294.427009 414.505171,291.020229 C420.942773,287.613448 411.850312,267.936251 411.850312,267.936251 L362.235088,271.331464 Z" id="Shape" fill="#000000" opacity="0.05"></path>
            <path d="M399.35107,377.763001 L411.497487,403.137446 C409.606116,409.575047 391.421194,407.301932 391.421194,407.301932 C391.421194,407.301932 377.406542,388.365088 376.648837,381.545743 C375.891132,374.726397 366.42271,369.046501 366.42271,369.046501 C352.789803,354.274143 361.87648,336.85271 363.015929,327.760249 C363.015929,327.586729 363.067985,327.395857 363.096906,327.181848 C364.103323,321.085504 370.234372,303.548391 375.000395,290.412908 C378.216303,281.563375 380.813323,274.715109 380.813323,274.715109 C380.813323,274.715109 406.187767,275.871911 411.468567,284.941236 C413.89785,289.105722 412.810457,293.437944 410.919086,296.908349 C409.439219,299.530866 407.548986,301.899514 405.320166,303.924351 L396.69621,324.712077 C396.69621,324.712077 381.553676,352.382773 387.256708,354.661672 C392.95974,356.940571 399.35107,377.763001 399.35107,377.763001 Z" id="Shape" fill="#67647E"></path>
            <path d="M354.120125,153.181527 C354.000287,154.874993 353.510649,156.521599 352.685691,158.00539 L352.25189,158.786231 L350.117591,162.632596 L343.298245,162.632596 L343.153645,160.839554 L341.782835,143.695753 C341.782835,143.695753 343.674206,124.75891 350.117591,127.407986 C355.28271,129.536501 354.594413,146.553053 354.120125,153.181527 Z" id="Shape" fill="#F7C4A7"></path>
            <path d="M352.25189,158.780447 L350.117591,162.626812 L343.298245,162.626812 L343.153645,160.83377 C346.329065,160.556137 350.106023,159.977736 352.25189,158.780447 Z" id="Shape" fill="#000000" opacity="0.1"></path>
            <path d="M352.766667,158.844071 L352.766667,167.554787 L338.752015,171.343313 C338.752015,171.343313 338.752015,170.435223 338.711526,169.17431 C338.63055,166.513666 338.381838,162.268204 337.612565,161.498931 C337.618349,161.510499 348.978141,161.510499 352.766667,158.844071 Z" id="Shape" fill="#DDDDEA"></path>
            <path d="M352.766667,163.95135 L352.766667,167.554787 L338.752015,171.343313 C338.752015,171.343313 338.752015,170.435223 338.711526,169.17431 C343.379221,168.358764 350.117591,165.241184 352.766667,163.95135 Z" id="Shape" fill="#000000" opacity="0.1"></path>
            <path d="M434.506272,178.324611 C431.741516,186.306542 435.333385,189.892627 435.333385,189.892627 C435.333385,189.892627 401.24244,192.165743 409.577196,186.104102 C414.441547,182.564289 416.598982,174.755878 417.54756,168.879325 C417.951028,166.44119 418.200235,163.980024 418.293697,161.510499 C418.293697,161.510499 445.536376,161.111402 439.8854,168.705805 C437.615069,171.620818 435.801287,174.864172 434.506272,178.324611 Z" id="Shape" fill="#F7C4A7"></path>
            <path d="M439.891184,168.688453 C437.11486,172.424922 436.206771,172.974403 435.263977,175.669751 C434.41172,175.814168 433.548714,175.885763 432.684309,175.883759 C426.188868,175.883759 419.866947,174.547653 417.54756,168.885109 C417.95127,166.445064 418.200478,163.981958 418.293697,161.510499 C418.293697,161.510499 445.530592,161.09405 439.891184,168.688453 Z" id="Shape" fill="#000000" opacity="0.1"></path>
            <circle id="Oval" fill="#F7C4A7" cx="431.926604" cy="161.493147" r="15.5300623"></circle>
            <path d="M353.900332,164.142222 C353.900332,164.142222 339.127975,171.719273 334.963489,169.822118 L345.189616,197.851423 C345.189616,197.851423 345.947321,204.670769 359.204268,207.684237 C372.461215,210.697705 378.898816,213.364133 378.898816,213.364133 L403.515556,184.201163 L391.016314,187.607944 C391.016314,187.607944 384.578712,196.700405 380.026698,193.669585 C375.474683,190.638764 361.477383,192.165743 361.477383,192.165743 C361.477383,192.165743 353.524372,170.585608 353.900332,164.142222 Z" id="Shape" fill="#DDDDEA"></path>
            <path d="M411.474351,182.026376 C411.474351,182.026376 431.498588,176.300208 433.603967,186.936999 C433.603967,186.936999 424.349553,182.425473 411.092606,190.407404 C410.097757,190.985805 409.126044,191.639398 408.200602,192.304559 C396.534258,200.477363 388.38459,213.126989 385.110841,227.494465 L376.648837,264.569959 L375.891132,274.535805 C375.891132,274.535805 363.744714,276.930384 361.500519,273.338515 C359.256324,269.746646 360.742814,257.785317 364.149595,253.800135 C367.556376,249.814953 372.84296,232.653801 372.84296,232.653801 L376.157196,222.705306 C378.93152,214.337684 383.341484,206.605008 389.130727,199.956802 L389.92892,198.990872 C394.918003,193.003596 401.244124,188.272379 408.397259,185.178661 C410.334901,184.339979 411.740415,183.281506 411.474351,182.026376 Z" id="Shape" fill="#000000" opacity="0.1"></path>
            <path d="M411.474351,181.268671 C411.474351,181.268671 431.498588,175.542503 433.603967,186.179294 C433.603967,186.179294 424.349553,181.667768 411.092606,189.649699 C410.097757,190.2281 409.126044,190.881693 408.200602,191.546854 C396.534258,199.719657 388.38459,212.369284 385.110841,226.73676 L376.648837,263.812253 L375.891132,273.7781 C375.891132,273.7781 363.744714,276.172679 361.500519,272.58081 C359.256324,268.988941 360.742814,257.027612 364.149595,253.04243 C367.556376,249.057248 372.860312,231.907664 372.860312,231.907664 L376.174548,221.959169 C378.948872,213.591547 383.358836,205.858871 389.148079,199.210665 L389.946272,198.244735 C394.935355,192.257459 401.261476,187.526242 408.414611,184.432523 C410.334901,183.582274 411.740415,182.523801 411.474351,181.268671 Z" id="Shape" fill="#DDDDEA"></path>
            <path d="M426.755701,145.008723 C425.558411,144.430322 424.204953,143.533801 424.204953,142.197695 C424.204953,141.220197 424.974226,140.410436 425.783988,139.884091 C427.947207,138.409169 427.77947,135.742742 430.266594,136.575639 C431.932388,137.15404 433.384174,138.189377 435.003697,138.860322 C436.137711,139.329383 437.341728,139.606932 438.566646,139.681651 C439.34155,139.681528 440.115221,139.743421 440.880249,139.866739 C441.489348,140.026199 442.073334,140.269526 442.615452,140.589741 C446.068465,142.521679 448.632853,145.723015 449.764486,149.514465 C450.794039,153.031142 450.689927,157.195628 453.339003,159.72324 C453.818035,160.11091 454.259562,160.542754 454.657757,161.013074 C454.997187,161.539202 455.223687,162.130072 455.322918,162.748276 C455.800001,164.847687 455.618225,167.043135 454.802357,169.035493 C453.964084,171.031732 452.32453,172.583115 450.285047,173.309875 C449.388525,173.60486 448.445732,173.703188 447.531859,173.934548 C443.182285,175.03351 440.099408,178.850955 436.131578,180.956334 C435.814848,181.154875 435.452288,181.268424 435.078889,181.286023 C434.670167,181.240421 434.283924,181.075463 433.968359,180.811734 C432.435597,179.718557 431.174683,178.018058 431.215171,176.132472 C431.338654,174.955023 431.681997,173.811203 432.227373,172.760395 C433.057587,170.793213 433.693009,168.749402 434.124528,166.658266 C434.261747,166.177838 434.275672,165.670576 434.165016,165.183344 C433.875815,164.263687 432.85783,163.83567 432.152181,163.182077 C430.810291,161.938515 430.648339,159.821568 431.145763,158.057446 C431.643188,156.293323 432.684309,154.737425 433.459367,153.077414 C433.726271,152.578748 433.882147,152.028246 433.916303,151.463676 C433.916303,149.248401 430.920187,148.045327 429.659273,146.581973 C428.016615,144.580706 429.098224,146.165525 426.755701,145.008723 Z" id="Shape" fill="#000000" opacity="0.1"></path>
            <path d="M427.137445,145.008723 C425.940156,144.430322 424.586698,143.533801 424.586698,142.197695 C424.586698,141.220197 425.355971,140.410436 426.165732,139.884091 C428.328951,138.409169 428.161215,135.742742 430.648339,136.575639 C432.314133,137.15404 433.765919,138.189377 435.385441,138.860322 C436.519456,139.329383 437.723473,139.606932 438.94839,139.681651 C439.729232,139.727923 442.256843,138.52485 442.997196,138.709938 C443.606295,138.869397 444.190281,139.112724 444.732399,139.432939 C448.185412,141.364878 450.7498,144.566213 451.881433,148.357664 C452.910987,151.874341 452.193769,156.270187 454.842845,158.768879 C455.288214,159.196895 454.680893,160.504081 455.039502,160.984154 C455.378931,161.510282 455.605431,162.101152 455.704663,162.719356 C456.181745,164.818767 455.99997,167.014215 455.184102,169.006573 C454.345828,171.002812 452.706275,172.554195 450.666791,173.280955 C449.77027,173.57594 448.827477,173.674268 447.913603,173.905628 C443.564029,175.00459 440.481153,178.822035 436.513323,180.927414 C436.196592,181.125955 435.834033,181.239504 435.460633,181.257103 C435.051911,181.211501 434.665668,181.046543 434.350104,180.782814 C432.817342,179.689637 431.556428,177.989138 431.596916,176.103552 C431.720399,174.926103 432.063741,173.782283 432.609117,172.731475 C433.439332,170.764293 434.074754,168.720482 434.506272,166.629346 C434.643492,166.148918 434.657416,165.641656 434.54676,165.154424 C434.25756,164.234766 433.239574,163.80675 432.533925,163.153157 C431.192035,161.909595 431.030083,159.792648 431.527508,158.028526 C432.024933,156.264403 433.066054,154.708505 433.841111,153.048494 C434.108015,152.549828 434.263892,151.999326 434.298048,151.434756 C434.298048,149.219481 431.301931,148.016407 430.041018,146.553053 C428.398359,144.580706 429.479969,146.165525 427.137445,145.008723 Z" id="Shape" fill="#B96B6B"></path>
            <path d="M444.049886,198.990872 C442.534476,212.247819 427.386158,230.802918 427.386158,230.802918 C427.386158,230.802918 416.778287,223.792534 420.190852,261.284476 L420.566812,279.463614 C420.566812,279.463614 398.217404,276.056833 391.403842,277.190499 C384.59028,278.324164 374.740114,275 374.740114,271.510602 C374.740114,268.021204 370.945805,223.977788 387.256708,210.356449 C389.25827,207.254994 391.436658,204.271297 393.78107,201.420156 C398.15378,196.127788 404.09974,190.164476 409.663956,188.695338 C410.379863,188.50207 411.115154,188.389546 411.856096,188.359865 C411.856096,188.359865 428.901568,178.891444 433.447799,186.08675 C433.442015,186.11567 445.559512,185.733925 444.049886,198.990872 Z" id="Shape" fill="#DDDDEA"></path>
            <path d="M385.909034,354.117975 C385.909034,354.117975 386.284995,355.274777 381.362804,356.767051 C376.440613,358.259325 374.925202,359.797871 374.925202,359.797871" id="Shape" fill="#000000" opacity="0.05"></path>
            <rect id="Rectangle-path" fill="#293855" transform="translate(371.184839, 123.184839) rotate(-180.000000) translate(-371.184839, -123.184839) " x="344" y="95.9999999" width="54.3696781" height="54.3696781" rx="11.85"></rect>
            <g id="Symbol" transform="translate(359.000000, 111.000000)" fill="#FFFFFF">
                <path d="M20.768398,7.06571733 C20.8951264,6.89482375 21.0703523,6.66569784 21.2818761,6.39345296 C21.48204,6.13611197 21.6657845,5.90211781 21.8495592,5.66956353 C21.9139031,5.58814067 21.9736426,5.51272928 22.0272337,5.44522135 C22.0593308,5.40478904 22.0822881,5.37592293 22.0943045,5.36083796 C22.2884816,5.11707267 22.2731356,4.76744115 22.0583479,4.54162606 L20.2744537,2.66614529 C20.0443856,2.42426536 19.6647412,2.40618075 19.4127229,2.62509615 C19.3978554,2.63801091 19.3978554,2.63801091 19.3299077,2.69691531 C19.2637485,2.75423644 19.1898896,2.81812755 19.1101941,2.88694053 C18.8825562,3.08349406 18.6538575,3.2800225 18.4390794,3.46327817 C18.1748759,3.68856308 17.9713958,3.86028219 17.8118633,3.99247647 C16.9251592,3.36356654 15.8535483,2.92609034 14.6255513,2.65415163 C14.6057847,2.48449173 14.5824502,2.269857 14.5563038,2.01863969 C14.5502159,1.96014709 14.5440026,1.89992775 14.537676,1.83812139 C14.5092004,1.55993468 14.4796392,1.26161217 14.4507247,0.963252572 C14.4406018,0.85879755 14.4312841,0.761812337 14.4229869,0.674797572 C14.4144829,0.585371118 14.4144829,0.585371118 14.4126339,0.565739298 C14.38243,0.24505725 14.1132071,0 13.7911058,0 L11.2425481,0 C10.9286058,0 10.6634996,0.233143733 10.6233862,0.544512784 C10.6208808,0.56396063 10.6208808,0.56396063 10.6094235,0.652372512 C10.5982581,0.738388416 10.5857561,0.834256149 10.572219,0.937506115 C10.5335504,1.23243712 10.4943477,1.52733745 10.4570328,1.80237291 C10.4498533,1.85524057 10.4498533,1.85524057 10.4426629,1.90797781 C10.4048118,2.18530212 10.3716575,2.42135514 10.3445366,2.60538873 C9.13137736,2.83712901 8.00313394,3.29397418 7.04110478,3.95376993 C6.88470786,3.83143791 6.68403707,3.66810808 6.45018596,3.47349048 C6.18411582,3.25147901 5.96186942,3.06325966 5.74173887,2.87499281 C5.66465204,2.80906423 5.59336,2.74785937 5.52963014,2.6929675 C5.49150363,2.66012832 5.46428865,2.63662075 5.45024745,2.62446168 C5.20239986,2.40984281 4.83076187,2.42351478 4.59935389,2.65576474 L2.81545966,4.44614935 C2.59981067,4.66258293 2.57249459,5.00329553 2.7509062,5.25132231 C2.76245615,5.26737887 2.76245615,5.26737887 2.8149849,5.34052493 C2.86609175,5.41172462 2.92305274,5.49118373 2.98440038,5.57689245 C3.15964048,5.82172022 3.33486286,6.06749118 3.49828327,6.29806255 C3.70536276,6.59035933 3.86557565,6.818555 3.98657276,6.99378094 C3.2868687,7.92829548 2.79100762,9.14566377 2.6360907,10.3500057 C2.602183,10.353015 2.56659115,10.3560792 2.52938623,10.3591922 C2.34497793,10.3746221 2.12491806,10.3909433 1.87697216,10.4078146 C1.59585197,10.4269431 1.2941888,10.4457626 0.99246088,10.463448 C0.886805226,10.4696408 0.788711661,10.4752481 0.700719558,10.4801685 C0.648034709,10.4831146 0.610343363,10.4851817 0.590680022,10.4862413 C0.259436615,10.5040948 0,10.7778912 0,11.1096154 L0,13.6670673 C0,13.9867739 0.241533827,14.254811 0.559515385,14.2879777 C0.579517332,14.290064 0.617500947,14.2940765 0.670887457,14.2997972 C0.760121935,14.3093594 0.859617817,14.3201959 0.966790325,14.3320881 C1.27279739,14.3660436 1.57871497,14.4016189 1.86363968,14.4370297 C2.02642141,14.4572604 2.17768593,14.4768718 2.31510928,14.4956555 C2.45613627,14.5149318 2.58078954,14.5330969 2.68662906,14.5498449 C2.85127428,15.6103399 3.31415849,16.6198669 4.07098743,17.7568184 C3.9418469,17.9298127 3.76391714,18.1588778 3.54930889,18.4294523 C3.32956913,18.7059522 3.13767827,18.9443346 2.94574733,19.1807487 C2.87854161,19.2635304 2.81614825,19.3401321 2.76018363,19.408647 C2.7266844,19.4496587 2.70271404,19.4789325 2.69024363,19.4941289 C2.48314716,19.7465011 2.50547187,20.1158192 2.74146034,20.3414076 L4.52511418,22.0464557 C4.75048079,22.2618904 5.10024005,22.2780263 5.34448507,22.0842569 C5.35954353,22.0723101 5.38865315,22.0492717 5.42943695,22.0170822 C5.49759226,21.9632891 5.57382171,21.9033125 5.65623425,21.8387082 C5.89158425,21.6542143 6.12911683,21.4697628 6.35355666,21.2979057 C6.68957298,21.0412475 6.92405344,20.8664869 7.09839375,20.7425956 C8.35375216,21.5146466 9.32744647,21.9513804 10.3750715,22.1145419 C10.3788309,22.1507192 10.382669,22.1889527 10.3865755,22.2291415 C10.4048369,22.4170122 10.4241918,22.6431544 10.444205,22.8990335 C10.466288,23.181374 10.4879895,23.4844204 10.5083623,23.787542 C10.5154967,23.8936937 10.5219535,23.9922454 10.5276167,24.0806418 C10.5310064,24.133551 10.5333844,24.1714125 10.5345987,24.191094 C10.5549143,24.5203166 10.8278436,24.7769231 11.1576923,24.7769231 L13.6211538,24.7769231 C13.941228,24.7769231 14.2094483,24.53485 14.2421632,24.2164522 C14.2442095,24.1965368 14.2481544,24.1586748 14.2537889,24.1054409 C14.2632092,24.0164387 14.2739024,23.9171963 14.2856584,23.8102948 C14.3192231,23.5050787 14.3545399,23.1999597 14.3898894,22.9158304 C14.4128127,22.7315793 14.4350033,22.5623078 14.4561656,22.411378 C14.4750765,22.2765047 14.4929249,22.1580689 14.5093725,22.0585741 C15.7221777,21.7873099 16.8429604,21.3200014 17.8204307,20.669044 C17.9858233,20.7964997 18.2018456,20.9712019 18.4553022,21.1815866 C18.4876048,21.2084165 18.4876048,21.2084165 18.5198942,21.2352996 C18.7379941,21.4169873 18.9684125,21.612042 19.1964065,21.8071483 C19.2762487,21.8754735 19.3500582,21.938902 19.4160126,21.9957856 C19.4554619,22.0298094 19.4834328,22.0540094 19.4981077,22.066741 C19.7503587,22.2855876 20.1301667,22.2671592 20.3600456,22.0249194 L22.0588437,20.2347752 C22.2839455,19.9975694 22.2878512,19.6268527 22.0677969,19.384957 C22.0549372,19.3708208 22.030459,19.3438327 21.9960291,19.3057434 C21.9384481,19.2420423 21.8742373,19.170729 21.8050676,19.0935591 C21.6075597,18.8732074 21.410109,18.6503281 21.226225,18.4391426 C21.1967379,18.4052549 21.1967379,18.4052549 21.1673199,18.3713517 C20.9665769,18.1398326 20.7982883,17.9405506 20.6724638,17.7844282 C21.3396021,16.8560868 21.7990228,15.8059415 22.0507104,14.6102682 C22.1210038,14.5997263 22.2005858,14.5886149 22.2885228,14.5770647 C22.4649702,14.5538889 22.6713831,14.5293961 22.9014548,14.5040593 C23.1872028,14.472591 23.4940643,14.4414723 23.801024,14.4121273 C23.9085367,14.4018493 24.0083464,14.3925306 24.0978572,14.3843451 C24.1513947,14.3794492 24.1894719,14.3760303 24.209499,14.3742612 C24.5317349,14.3457965 24.7788462,14.0758944 24.7788462,13.7524038 L24.7788462,11.0245192 C24.7788462,10.6955403 24.5235476,10.4230172 24.1952687,10.4015686 C24.1755111,10.4002779 24.1375505,10.3977578 24.0844978,10.394172 C23.9958721,10.3881819 23.8970674,10.3813668 23.790644,10.373854 C23.4867385,10.3524004 23.1829049,10.3296742 22.8998068,10.3067132 C22.6784727,10.2887617 22.4790131,10.2713943 22.3070154,10.2549131 C22.211729,10.2457825 22.1258308,10.2370111 22.0503203,10.2286909 C21.7289737,9.01722495 21.3343718,8.04521125 20.768398,7.06571733 Z M19.4543775,21.1654652 L20.3163154,21.1236437 C20.30075,21.1101395 20.2718636,21.0851475 20.231462,21.0503023 C20.1643315,20.9924045 20.0893093,20.9279337 20.0081964,20.8585211 C19.9599217,20.81721 19.9115348,20.7758966 19.8631643,20.7346975 L19.4543775,21.1654652 Z M5.48381918,3.53702373 L4.63292562,3.56832678 C4.64810498,3.5814707 4.67581534,3.60540618 4.71480322,3.63898726 C4.77959738,3.69479584 4.85198697,3.75694296 4.93022363,3.82385493 C4.97840998,3.86506635 5.02670137,3.90627998 5.07495942,3.94737108 L5.48381918,3.53702373 Z M22.7647824,13.2630045 C22.5266969,13.2892239 22.3119798,13.314702 22.1259254,13.3391396 C21.905813,13.3680507 21.7284381,13.3951236 21.5954877,13.4210136 C21.5104347,13.4375764 21.4404052,13.4541195 21.3791257,13.4735725 C21.326351,13.4903257 21.2782969,13.5093736 21.2275144,13.5371916 C21.1785979,13.5639875 21.1318311,13.5963098 21.0849285,13.6411544 C20.9930428,13.7290083 20.9218129,13.8438036 20.8961678,13.9960912 C20.6754942,15.3179612 20.1858314,16.4195524 19.4213401,17.3671486 C19.2866236,17.5336369 19.2623929,17.7081255 19.2890258,17.872616 C19.2998721,17.9396051 19.3182606,17.9948747 19.3422295,18.0490041 C19.3666594,18.1041746 19.3960232,18.1551179 19.4328855,18.2114393 C19.4828339,18.287755 19.5510272,18.3796696 19.6389848,18.4910552 C19.783045,18.6734865 19.9817352,18.909896 20.2239862,19.1892868 C20.2542821,19.2242018 20.2542821,19.2242018 20.2845965,19.2590403 C20.4356611,19.4325336 20.5951062,19.6131002 20.7561773,19.7936663 L19.8631643,20.7346975 C19.6791963,20.578005 19.4954644,20.4229666 19.3190396,20.2759963 C19.2859272,20.2484279 19.2859272,20.2484279 19.2527531,20.2208741 C18.9653525,19.9823138 18.7224088,19.786367 18.5356563,19.6441386 C18.4224693,19.5579368 18.3294486,19.4910395 18.2533293,19.4422367 C18.1986037,19.4071501 18.1496026,19.3791687 18.0977598,19.3558268 C18.0477053,19.3332901 17.9970521,19.3155689 17.9358144,19.3037743 C17.7749088,19.2727834 17.6067701,19.2877333 17.4333166,19.4157802 C16.4320144,20.1561394 15.2239543,20.6628498 13.889368,20.9112624 C13.7303379,20.9409346 13.6161601,21.0177958 13.52946,21.1150972 C13.4878111,21.1618387 13.4580276,21.2076477 13.4331184,21.2555758 C13.4072566,21.305337 13.38901,21.3531233 13.3725375,21.4062757 C13.352488,21.4709707 13.3344899,21.5472756 13.3159829,21.6407306 C13.2863779,21.7902275 13.2543942,21.9905906 13.2197029,22.2380106 C13.1975655,22.3958952 13.1745551,22.57142 13.150884,22.7616814 C13.1203642,23.0069907 13.0899841,23.2665915 13.0607112,23.5283654 L11.7421672,23.5283654 C11.7250528,23.2801317 11.7071597,23.0343532 11.6889612,22.8016764 C11.668385,22.5386 11.6483962,22.3050513 11.6292763,22.1083483 C11.6099888,21.9099222 11.5918189,21.7511607 11.5742994,21.63343 C11.5631494,21.5585021 11.5519499,21.4973024 11.5385281,21.4437999 C11.5264594,21.3956916 11.5126127,21.3521562 11.4910461,21.3042788 C11.4642559,21.2466475 11.4642559,21.2466475 11.3962822,21.1520459 C11.2808621,21.0217763 11.2808621,21.0217763 10.9565177,20.925438 C9.87945041,20.8450695 8.89798019,20.4098616 7.44004817,19.4836424 C7.25896986,19.3687868 7.10521272,19.3662317 6.95026813,19.402384 C6.89799046,19.4145816 6.85443043,19.4306377 6.81073094,19.4504506 C6.76430452,19.4714999 6.71879954,19.4967025 6.66716695,19.528269 C6.59265067,19.5738259 6.49963603,19.6365869 6.38574063,19.7173287 C6.1959544,19.8518706 5.94760493,20.0368695 5.65332409,20.2615963 C5.62388584,20.2840873 5.62388584,20.2840873 5.5944888,20.3065873 C5.40106748,20.454693 5.19869341,20.6115207 4.99634892,20.7696655 L4.0208737,19.8371795 C4.17969113,19.6409275 4.336988,19.4450945 4.48578555,19.257899 C4.50665865,19.2316303 4.50665865,19.2316303 4.52752512,19.205332 C4.76125813,18.9106453 4.95386565,18.6623493 5.09399728,18.4735 C5.17771764,18.3606738 5.24279344,18.2689975 5.28992274,18.1964455 C5.32227026,18.1466489 5.34809332,18.1031959 5.36990252,18.0592436 C5.39085603,18.0170157 5.40807603,17.9752121 5.42208341,17.9241954 C5.46897522,17.7534088 5.47078697,17.5869769 5.33122757,17.3880722 C4.43411192,16.1079722 3.95826332,15.0702581 3.87956733,14.0005896 C3.86549017,13.8074663 3.77847627,13.6698496 3.66351918,13.5690978 C3.61343558,13.5252031 3.56517945,13.495148 3.51435952,13.4701331 C3.46442822,13.4455556 3.41668315,13.4284152 3.36282579,13.4127225 C3.29710207,13.3935724 3.21794139,13.3759147 3.12003048,13.3574446 C2.96173565,13.3275835 2.74801661,13.2946604 2.48419611,13.2586001 C2.34136822,13.2390777 2.18516146,13.2188255 2.01762726,13.1980042 C1.77159473,13.167427 1.51116141,13.1368374 1.24855769,13.1072538 L1.24855769,11.6989965 C1.49221264,11.6843339 1.73335001,11.6690319 1.96173305,11.6534919 C2.21562641,11.6362159 2.44182053,11.6194398 2.63349252,11.6034021 C2.83426678,11.5866028 2.99472764,11.5708337 3.11276637,11.5557938 C3.18641171,11.5464102 3.24606483,11.5370757 3.29704517,11.5261469 C3.34199904,11.5165099 3.38224942,11.5055634 3.42673947,11.4883807 C3.48088555,11.4669678 3.48088555,11.4669678 3.57650214,11.4075642 C3.71997983,11.3024925 3.71997983,11.3024925 3.83804529,10.9255003 C3.89422276,9.67936769 4.44572209,8.32782308 5.22442202,7.4491474 C5.47765519,7.16215202 5.45451409,7.06542046 5.32645216,6.77479007 C5.31393524,6.74638353 5.30149399,6.72267993 5.286823,6.69699262 C5.2705087,6.66842808 5.25049053,6.63616959 5.22507243,6.59685584 C5.1838419,6.53308531 5.12566591,6.44670036 5.05088341,6.337888 C4.92244649,6.15100572 4.74644135,5.90004281 4.53402135,5.60020228 C4.37514079,5.37603084 4.22472601,5.16489236 4.07312425,4.95285125 L5.0749594,3.94737108 C5.250685,4.09699916 5.42596858,4.24500274 5.59412894,4.3853599 C5.62279466,4.40927493 5.62279466,4.40927493 5.65150464,4.43318026 C5.92828808,4.66352736 6.1618994,4.85297409 6.3407182,4.99067031 C6.44879291,5.0738913 6.53721587,5.13854356 6.6088687,5.18576433 C6.6601855,5.2195832 6.7057643,5.24663226 6.75375822,5.26961072 C6.80115349,5.29230255 6.8488293,5.31050522 6.90737091,5.32377937 C7.07799464,5.36246791 7.25485803,5.35170647 7.44096245,5.20695858 C8.41248397,4.45289072 9.63519438,3.95734514 10.9712928,3.7663113 C11.3317302,3.71446779 11.3768861,3.63345411 11.4765802,3.34602892 C11.4863814,3.31777147 11.4931243,3.29312296 11.4995736,3.2658301 C11.506589,3.23614159 11.5133326,3.20218942 11.5208413,3.1603876 C11.5328783,3.09337587 11.5476225,3.00152353 11.5652378,2.88480942 C11.595663,2.68322058 11.6344464,2.40875846 11.6797511,2.07682404 C11.6870114,2.02357368 11.6870114,2.02357368 11.6942555,1.97023084 C11.7255631,1.7394732 11.7581491,1.49514164 11.7906338,1.24855769 L13.2240341,1.24855769 C13.2479697,1.49345787 13.272137,1.7359613 13.2956085,1.96526145 C13.3020054,2.0277547 13.3082911,2.08867573 13.3144541,2.14789004 C13.34757,2.46607099 13.3763718,2.72772798 13.399781,2.9195651 C13.4133701,3.0309275 13.4251343,3.11876904 13.4353876,3.1838426 C13.4420453,3.22609611 13.4483494,3.26092553 13.4555836,3.29275897 C13.4625794,3.32354358 13.4702863,3.35180394 13.4821417,3.38461596 C13.5679243,3.62203623 13.6363062,3.73414358 13.9616429,3.79329572 C15.374284,4.05411231 16.5411318,4.53437387 17.4133831,5.25959832 C17.6966776,5.49475154 17.8455871,5.4595557 18.0937628,5.33920572 C18.1276769,5.32275945 18.155023,5.30646877 18.183972,5.28740815 C18.2144945,5.26731154 18.2473194,5.24345151 18.2866469,5.21342349 C18.348298,5.16635046 18.4303134,5.10057767 18.533049,5.0161424 C18.7083711,4.87205062 18.9426367,4.67473493 19.2220952,4.43645038 C19.4202947,4.26734774 19.5995569,4.11352305 19.7800632,3.95799373 L20.7800518,5.00932243 C20.6246905,5.206337 20.4706934,5.40273209 20.3252506,5.58970498 C20.073111,5.91420245 19.888879,6.15523043 19.7543846,6.3370224 C19.6749508,6.4443906 19.6130407,6.53083918 19.5683937,6.59735839 C19.5390834,6.64102764 19.515662,6.67825392 19.4958387,6.71411183 C19.4772205,6.74778986 19.4614201,6.78034748 19.4467056,6.81998623 C19.3788072,7.00289411 19.3588802,7.14829844 19.4993329,7.37579228 C20.1721149,8.46613911 20.5919452,9.4946412 20.9375367,10.9197233 C20.9821444,11.1024059 21.0793156,11.2134148 21.19741,11.2938738 C21.2814733,11.3441809 21.2814733,11.3441809 21.3322601,11.3647135 C21.3759372,11.3818432 21.4168094,11.3934762 21.4623585,11.403882 C21.5174127,11.4164593 21.5826719,11.4275931 21.6629669,11.4389173 C21.7931618,11.4572789 21.9691429,11.476814 22.1879212,11.4977778 C22.3666291,11.514902 22.5719197,11.5327772 22.7988726,11.5511844 C23.0330245,11.5701756 23.2804373,11.5889575 23.5302885,11.6070011 L23.5302885,13.1839051 C23.2689043,13.2094001 23.0097595,13.2360261 22.7647824,13.2630045 Z" id="Stroke-1"></path>
                <path d="M12.3118503,6.75675676 C8.87021512,6.75675676 6.08108108,9.55522507 6.08108108,13.006276 C6.08108108,16.4573269 8.87021512,19.2557952 12.3118503,19.2557952 C15.7532865,19.2557952 18.5423792,16.4572855 18.5423792,13.006276 C18.5423792,9.55526649 15.7532865,6.75675676 12.3118503,6.75675676 Z M12.3118503,8.00531445 C15.0627832,8.00531445 17.2938215,10.2438855 17.2938215,13.006276 C17.2938215,15.7686665 15.0627832,18.0072375 12.3118503,18.0072375 C9.56071002,18.0072375 7.32963877,15.7686996 7.32963877,13.006276 C7.32963877,10.2438523 9.56071002,8.00531445 12.3118503,8.00531445 Z" id="Stroke-3"></path>
            </g>
            <path d="M400.941672,144.690602 C400.915622,146.480197 400.471967,148.238975 399.646054,149.826802 L397.459699,154.03756 L395.944289,156.929564 L386.475867,157.687269 C386.475867,157.687269 386.279211,156.906428 386.036282,155.616594 C385.330633,151.828069 384.21432,143.643697 386.475867,137.992721 C389.506687,130.41567 390.640353,115.643313 396.308681,119.055878 C400.831776,121.774361 401.045784,138.079481 400.941672,144.690602 Z" id="Shape" fill="#F7C4A7"></path>
            <path d="M397.459699,153.916096 L397.459699,154.031776 L395.944289,156.92378 L386.475867,157.681485 C386.475867,157.681485 386.279211,156.900644 386.036282,155.61081 C389.425711,154.320976 393.86783,153.117902 397.459699,153.916096 Z" id="Shape" fill="#000000" opacity="0.1"></path>
            <path d="M397.459699,154.673801 L397.459699,161.510499 L383.826791,168.705805 C383.826791,168.705805 383.670623,167.473811 383.381423,165.877425 C382.883998,163.141589 381.993261,159.335711 380.795971,158.861423 C380.795971,158.844071 390.640353,153.158391 397.459699,154.673801 Z" id="Shape" fill="#DDDDEA"></path>
            <path d="M397.459699,158.849855 L397.459699,161.510499 L383.826791,168.705805 C383.826791,168.705805 383.670623,167.473811 383.381423,165.877425 C389.257975,163.974486 395.070903,160.405753 397.459699,158.849855 Z" id="Shape" fill="#000000" opacity="0.1"></path>
            <path d="M398.975109,158.844071 C398.975109,158.844071 388.748982,166.039377 380.038266,167.554787 L397.841443,206.943884 C397.841443,206.943884 398.495036,215.417456 422.469751,217.852523 C426.919459,218.30864 431.357656,216.887243 434.714496,213.930966 C439.110343,210.049896 443.725981,203.832087 440.637321,196.336013 C435.333385,183.46081 417.530208,197.093718 417.530208,197.093718 C417.530208,197.093718 399.35107,173.234683 398.975109,158.844071 Z" id="Shape" fill="#DDDDEA"></path>
            <rect id="Rectangle-path" fill="#293855" x="457.919938" y="413.473468" width="90.2305296" height="8.09761163" rx="2.67"></rect>
            <rect id="Rectangle-path" fill="#293855" x="448.087124" y="405.375857" width="90.2305296" height="8.09761163" rx="2.67"></rect>
            <rect id="Rectangle-path" fill="#000000" opacity="0.05" x="448.087124" y="405.375857" width="90.2305296" height="8.09761163" rx="2.67"></rect>
        </g>
    </g>
</svg>