<?xml version="1.0" encoding="UTF-8"?>
<svg width="734px" height="600px" viewBox="0 0 734 600" version="1.1" xmlns="http://www.w3.org/2000/svg" xmlns:xlink="http://www.w3.org/1999/xlink">
    <!-- Generator: Sketch 50.2 (55047) - http://www.bohemiancoding.com/sketch -->
    <title>illustration-lost</title>
    <desc>Created with Sketch.</desc>
    <defs>
        <linearGradient x1="50.012528%" y1="99.9850584%" x2="50.012528%" y2="0.00588387637%" id="linearGradient-1">
            <stop stop-color="#808080" stop-opacity="0.25" offset="0%"></stop>
            <stop stop-color="#808080" stop-opacity="0.12" offset="54%"></stop>
            <stop stop-color="#808080" stop-opacity="0.1" offset="100%"></stop>
        </linearGradient>
    </defs>
    <g id="404" stroke="none" stroke-width="1" fill="none" fill-rule="evenodd">
        <g id="404-copy" transform="translate(-616.000000, -168.000000)">
            <g id="illustration-lost" transform="translate(615.000000, 167.000000)">
                <path d="M735,38 C735,19.469091 702.869006,70.217509 631,80 C582.91627,86.5449446 411.777708,14.6744804 333,5 C274,-2.24563276 255,-2.24563276 238,27 C211.055698,73.3531275 280.046841,145.136496 113,280 C-32.3333333,397.333333 -36.3333333,508 101,612 C523.666667,614.666667 735,614.666667 735,612 C735,608 735,65.217509 735,38 Z" id="Shape" fill="#F5F5F6" fill-rule="nonzero"></path>
                <path d="M530.716662,516.098377 C530.716662,516.098377 494.84088,537.721953 560.960503,571 C560.960503,571 575.522941,543.97053 559.422591,521.938863 C552.952585,513.046762 540.850143,510.396421 531.25228,515.769784 L530.716662,516.098377 Z" id="Shape" fill="#42526E" fill-rule="nonzero"></path>
                <path d="M531,515 C531,515 561.8508,538.316419 560.981988,570" id="Shape" stroke="#535461"></path>
                <path d="M118.716662,522.098377 C118.716662,522.098377 82.84088,543.721953 148.960503,577 C148.960503,577 163.522941,549.97053 147.422591,527.938863 C140.952585,519.046762 128.850143,516.396421 119.25228,521.769784 L118.716662,522.098377 Z" id="Shape" fill="#42526E" fill-rule="nonzero"></path>
                <path d="M119,522 C119,522 149.8508,545.316419 148.981988,577" id="Shape" stroke="#535461"></path>
                <path d="M562.229656,573 C562.229656,573 551.477614,535.067314 564.2593,507.192058 C569.687335,495.524489 571.323597,482.3435 568.922409,469.628162 C567.721448,463.600373 565.990697,457.699617 563.751889,452" id="Shape" stroke="#535461" stroke-width="2"></path>
                <path d="M572,434.875153 C572,439.523631 563.5,453 563.5,453 C563.5,453 555,439.523631 555,434.875153 C555.295917,430.444062 559.005113,427 563.481406,427 C567.9577,427 571.666895,430.444062 571.962812,434.875153 L572,434.875153 Z" id="Shape" fill="#42526E" fill-rule="nonzero"></path>
                <path d="M585.927888,460.441787 C583.401101,464.311563 569,471 569,471 C569,471 569.263756,455.238507 571.790543,451.368731 C574.447345,447.833687 579.415164,446.948536 583.147414,449.345197 C586.879663,451.741858 588.095921,456.598111 585.927888,460.447016 L585.927888,460.441787 Z" id="Shape" fill="#42526E" fill-rule="nonzero"></path>
                <path d="M584.865211,504.848516 C580.739077,506.976834 565,505.502974 565,505.502974 C565,505.502974 573.199839,491.791288 577.331216,489.678933 C581.399141,487.925759 586.109617,489.676363 588.09992,493.681021 C590.090223,497.685679 588.677581,502.570596 584.870454,504.848516 L584.865211,504.848516 Z" id="Shape" fill="#42526E" fill-rule="nonzero"></path>
                <path d="M577.939007,537.967649 C574.132664,540.744196 558,542 558,542 C558,542 563.937679,527.163492 567.744022,524.360451 C571.550984,521.929538 576.616678,522.837755 579.314212,526.434843 C582.011745,530.031932 581.411999,535.078938 577.944375,537.96235 L577.939007,537.967649 Z" id="Shape" fill="#42526E" fill-rule="nonzero"></path>
                <path d="M551.164091,472.301412 C554.490242,475.589128 570,479 570,479 C570,479 566.200188,463.327125 562.874037,460.039409 C559.496077,457.118321 554.470587,457.362228 551.38126,460.597199 C548.291933,463.83217 548.196971,468.950115 551.164091,472.301412 Z" id="Shape" fill="#42526E" fill-rule="nonzero"></path>
                <path d="M542.119054,510.881463 C546.248456,512.948885 562,511.517195 562,511.517195 C562,511.517195 553.793666,498.197828 549.659017,496.145912 C546.962032,494.579635 543.604337,494.621776 540.94874,496.255231 C538.293142,497.888686 536.780906,500.842034 537.025812,503.916581 C537.270719,506.991129 539.232072,509.675997 542.113807,510.881463 L542.119054,510.881463 Z" id="Shape" fill="#42526E" fill-rule="nonzero"></path>
                <path d="M538.78639,549.892475 C542.454254,552.720784 558,554 558,554 C558,554 552.278338,538.886899 548.610473,536.031603 C546.253749,533.960032 542.989135,533.42594 540.137795,534.64547 C537.286455,535.865 535.320513,538.636224 535.03557,541.837647 C534.750628,545.039069 536.193866,548.140602 538.781216,549.887078 L538.78639,549.892475 Z" id="Shape" fill="#42526E" fill-rule="nonzero"></path>
                <path d="M572,434.875153 C572,439.523631 563.5,453 563.5,453 C563.5,453 555,439.523631 555,434.875153 C555.295917,430.444062 559.005113,427 563.481406,427 C567.9577,427 571.666895,430.444062 571.962812,434.875153 L572,434.875153 Z" id="Shape" fill="#000000" fill-rule="nonzero" opacity="0.25"></path>
                <path d="M585.927888,460.441787 C583.401101,464.311563 569,471 569,471 C569,471 569.263756,455.238507 571.790543,451.368731 C574.447345,447.833687 579.415164,446.948536 583.147414,449.345197 C586.879663,451.741858 588.095921,456.598111 585.927888,460.447016 L585.927888,460.441787 Z" id="Shape" fill="#000000" fill-rule="nonzero" opacity="0.25"></path>
                <path d="M584.865211,504.848516 C580.739077,506.976834 565,505.502974 565,505.502974 C565,505.502974 573.199839,491.791288 577.331216,489.678933 C581.399141,487.925759 586.109617,489.676363 588.09992,493.681021 C590.090223,497.685679 588.677581,502.570596 584.870454,504.848516 L584.865211,504.848516 Z" id="Shape" fill="#000000" fill-rule="nonzero" opacity="0.25"></path>
                <path d="M577.939007,537.967649 C574.132664,540.744196 558,542 558,542 C558,542 563.937679,527.163492 567.744022,524.360451 C571.550984,521.929538 576.616678,522.837755 579.314212,526.434843 C582.011745,530.031932 581.411999,535.078938 577.944375,537.96235 L577.939007,537.967649 Z" id="Shape" fill="#000000" fill-rule="nonzero" opacity="0.25"></path>
                <path d="M551.164091,472.301412 C554.490242,475.589128 570,479 570,479 C570,479 566.200188,463.327125 562.874037,460.039409 C559.496077,457.118321 554.470587,457.362228 551.38126,460.597199 C548.291933,463.83217 548.196971,468.950115 551.164091,472.301412 Z" id="Shape" fill="#000000" fill-rule="nonzero" opacity="0.25"></path>
                <path d="M542.119054,510.881463 C546.248456,512.948885 562,511.517195 562,511.517195 C562,511.517195 553.793666,498.197828 549.659017,496.145912 C546.962032,494.579635 543.604337,494.621776 540.94874,496.255231 C538.293142,497.888686 536.780906,500.842034 537.025812,503.916581 C537.270719,506.991129 539.232072,509.675997 542.113807,510.881463 L542.119054,510.881463 Z" id="Shape" fill="#000000" fill-rule="nonzero" opacity="0.25"></path>
                <path d="M538.78639,549.892475 C542.454254,552.720784 558,554 558,554 C558,554 552.278338,538.886899 548.610473,536.031603 C546.253749,533.960032 542.989135,533.42594 540.137795,534.64547 C537.286455,535.865 535.320513,538.636224 535.03557,541.837647 C534.750628,545.039069 536.193866,548.140602 538.781216,549.887078 L538.78639,549.892475 Z" id="Shape" fill="#000000" fill-rule="nonzero" opacity="0.25"></path>
                <path d="M588.229656,574 C588.229656,574 577.477614,536.067314 590.2593,508.192058 C595.687335,496.524489 597.323597,483.3435 594.922409,470.628162 C593.737889,464.602098 592.024133,458.701383 589.80263,453" id="Shape" stroke="#535461" stroke-width="2"></path>
                <path d="M598,434.875153 C598,439.523631 589.5,453 589.5,453 C589.5,453 581,439.523631 581,434.875153 C581.295917,430.444062 585.005113,427 589.481406,427 C593.9577,427 597.666895,430.444062 597.962812,434.875153 L598,434.875153 Z" id="Shape" fill="#42526E" fill-rule="nonzero"></path>
                <path d="M611.943713,460.462704 C609.416926,464.33248 595,471 595,471 C595,471 595.263756,455.238507 597.790543,451.368731 C600.447345,447.833687 605.415164,446.948536 609.147414,449.345197 C612.879663,451.741858 614.095921,456.598111 611.927888,460.447016 L611.943713,460.462704 Z" id="Shape" fill="#42526E" fill-rule="nonzero"></path>
                <path d="M610.880535,504.847978 C606.751219,506.977291 591,505.502742 591,505.502742 C591,505.502742 599.206165,491.784642 603.340728,489.671299 C607.409618,487.92989 612.112639,489.684428 614.100296,493.685331 C616.087953,497.686234 614.680592,502.565441 610.880535,504.847978 Z" id="Shape" fill="#42526E" fill-rule="nonzero"></path>
                <path d="M603.939007,538.967649 C600.132664,541.744196 584,543 584,543 C584,543 589.937679,528.163492 593.744022,525.360451 C597.550984,522.929538 602.616678,523.837755 605.314212,527.434843 C608.011745,531.031932 607.411999,536.078938 603.944375,538.96235 L603.939007,538.967649 Z" id="Shape" fill="#42526E" fill-rule="nonzero"></path>
                <path d="M577.164091,473.301412 C580.490242,476.589128 596,480 596,480 C596,480 592.200188,464.327125 588.874037,461.039409 C585.496077,458.118321 580.470587,458.362228 577.38126,461.597199 C574.291933,464.83217 574.196971,469.950115 577.164091,473.301412 Z" id="Shape" fill="#42526E" fill-rule="nonzero"></path>
                <path d="M568.130449,511.848516 C572.257484,513.976834 588,512.502974 588,512.502974 C588,512.502974 579.782637,498.791288 575.671334,496.678933 C571.60252,494.925759 566.891015,496.676363 564.900277,500.681021 C562.909538,504.685679 564.322489,509.570596 568.130449,511.848516 Z" id="Shape" fill="#42526E" fill-rule="nonzero"></path>
                <path d="M564.78639,550.892475 C568.454254,553.720784 584,555 584,555 C584,555 578.278338,539.886899 574.610473,537.031603 C572.253749,534.960032 568.989135,534.42594 566.137795,535.64547 C563.286455,536.865 561.320513,539.636224 561.03557,542.837647 C560.750628,546.039069 562.193866,549.140602 564.781216,550.887078 L564.78639,550.892475 Z" id="Shape" fill="#42526E" fill-rule="nonzero"></path>
                <ellipse id="Oval" fill="#42526E" fill-rule="nonzero" cx="399.5" cy="583.5" rx="281.5" ry="17.5"></ellipse>
                <path d="M490.154931,314.835509 C490.154931,314.835509 457.505089,284.093946 452.788003,279.496188 C451.145211,277.910754 449.592217,276.32532 448.266362,274.988271 C445.716173,272.437013 442.449072,270.724341 438.90086,270.078711 C426.667073,267.758693 414.153326,260.233167 414.153326,260.233167 C414.084656,260.143325 414.015986,260.064054 413.952598,259.968928 C412.892204,258.485302 412.113338,256.819356 411.654802,255.054083 C411.586132,254.795129 411.517462,254.525605 411.459357,254.250796 C411.656563,253.997127 411.848486,253.738173 412.035127,253.473934 C412.249107,253.399282 412.455949,253.30554 412.653155,253.19384 C414.200866,252.311282 415.072444,250.678285 415.658779,249.071712 C416.187008,247.650107 416.609591,246.080527 417.866776,245.155691 C418.316978,244.905953 418.722261,244.582645 419.065856,244.199146 C419.320699,243.695202 419.41824,243.126252 419.345818,242.566149 C419.345818,238.956644 418.770048,236.18742 419.609932,232.667757 C420.951634,227.034182 422.182408,219.984286 417.930164,215.804025 C415.73431,213.682021 412.938045,212.288766 409.92221,211.814017 C407.191266,211.380665 403.150313,215.10115 400.382392,214.984884 C393.330534,214.715361 387.387956,208.352486 380.684728,210.408265 C377.767304,211.294114 375.223557,213.118301 373.44799,215.597919 C370.141275,220.311942 370.458213,226.410578 370.933619,232.033583 C370.926575,232.46178 371.054061,232.881387 371.298097,233.233228 C371.546365,233.523891 371.942537,233.67715 372.185522,233.967812 C372.445386,234.353708 372.543976,234.826029 372.460201,235.283723 C372.382891,236.193628 372.161809,237.085506 371.805197,237.926112 C371.620278,238.210382 371.582948,238.566167 371.704833,238.882657 C371.83682,239.057091 372.0224,239.183345 372.233063,239.242022 C372.516536,239.337741 372.808331,239.406743 373.104641,239.448129 C373.0571,239.913189 373.014842,240.37825 372.998995,240.848595 C372.998995,241.112834 372.998995,241.377073 372.998995,241.646597 C373.024633,248.6233 376.563894,255.116989 382.412038,258.917257 C382.470143,259.297761 382.53353,259.688834 382.591636,260.095762 C382.771233,261.348255 382.934985,262.738152 383.056477,264.249599 C383.056477,264.524408 383.098736,264.778077 383.119865,265.07931 L382.977243,264.788647 L360.263391,275.928962 C358.585149,276.317207 357.018351,277.085607 355.683644,278.174993 L355.234649,278.396954 L355.234649,278.529073 C355.048008,278.684094 354.857846,278.849683 354.664162,279.025843 L334.955933,256.755782 L289,296.666437 L314.270481,323.888336 L342.668079,321.520755 C341.268271,331.139054 340.312177,338.511321 340.312177,338.511321 C340.312177,338.511321 335.119685,360.776097 360.273955,356.516565 C360.110204,370.558224 354.098957,393.990936 354.098957,393.990936 C354.797917,394.905896 355.621091,395.718784 356.544658,396.406081 L356.402036,397.362626 L354.817348,408.127722 C354.817348,408.127722 345.383176,434.276811 343.935829,457.598543 C342.488481,480.920275 340.671373,493.994819 340.671373,493.994819 L337.406917,540.643568 L332.816606,561.972938 C325.255738,570.245813 316.451832,577.28869 306.722087,582.847818 C305.854509,583.308663 305.208829,584.099455 304.930587,585.041946 C304.652345,585.984436 304.764959,586.999303 305.243045,587.857789 C307.102412,591.060365 312.823133,594.384491 330.149048,589.057434 C357.722609,580.601786 355.181827,580.929443 355.181827,580.929443 C355.181827,580.929443 355.588563,569.609445 354.415894,562.897775 C354.378918,562.696953 354.341942,562.501416 354.304966,562.30588 C360.90783,554.859625 357.717326,542.752195 357.717326,542.752195 C357.717326,542.752195 370.77515,517.311267 364.584305,500.701205 C364.584305,500.701205 363.131675,486.564419 370.754021,479.852749 C370.859667,479.757623 370.970595,479.651928 371.081523,479.540947 L371.181887,479.435252 L371.430154,479.171013 L371.541082,479.049463 L371.831608,478.711237 L371.894996,478.63725 C372.011206,478.494561 372.132699,478.341302 372.254192,478.182759 L372.349273,478.055924 L372.655646,477.712414 L372.771856,477.543301 L373.0571,477.125803 L373.152181,476.988399 L373.537788,476.401788 L373.611741,476.285523 L373.93396,475.757045 L374.055453,475.556224 L374.351261,475.059454 L374.462189,474.869202 L374.868926,474.161042 L375.275662,473.431742 L375.391873,473.215066 L375.703528,472.639025 L375.825021,472.406495 L376.200063,471.69305 L376.247604,471.603209 L376.680752,470.757644 L376.786398,470.551537 L377.124464,469.88037 L377.251239,469.626701 L377.605153,468.907971 L377.694952,468.728289 L378.138664,467.803452 L378.212616,467.650194 L378.582377,466.862761 L378.709152,466.593238 L379.0525,465.858653 L379.163429,465.620838 L379.617706,464.632584 L380.056136,463.6549 L380.177629,463.385376 L380.520977,462.608514 L380.637188,462.33899 L381.107312,461.329597 L381.107312,461.287319 L381.566871,460.230363 L381.667235,460.003118 L382.02643,459.168122 L382.147923,458.888029 L382.522966,457.994901 L382.596918,457.825788 L383.051195,456.768832 L383.125147,456.594435 L383.50019,455.696022 L383.621682,455.405359 L383.965031,454.565079 L384.065395,454.32198 L384.503825,453.265024 L384.540801,453.175182 L384.936973,452.197498 L385.058466,451.896266 L385.380685,451.092979 L385.496896,450.802316 L385.877221,449.840487 L385.914197,449.740076 L386.326215,448.68312 L386.447708,448.376603 L386.743516,447.620879 L386.870291,447.287938 L387.181947,446.484652 L387.271746,446.246836 L387.657353,445.248013 L387.762999,444.973205 L388.04296,444.243905 L388.185582,443.87397 L388.43385,443.229227 L388.565907,442.880432 L388.914538,441.955595 L389.014902,441.686072 L389.268452,441.00962 L389.411074,440.634401 L389.622365,440.068929 L389.764987,439.68314 L390.00269,439.043682 L390.155877,438.631469 L390.39358,437.986726 L390.546766,437.574513 L390.710517,437.130592 L390.863704,436.707809 L390.995761,436.34316 L391.349674,435.38133 L391.40778,435.217502 L391.571531,434.763011 L391.682459,434.461778 L391.851492,434.002002 L391.930726,433.785326 C393.446744,429.605066 394.376427,426.915113 394.376427,426.915113 C394.376427,426.915113 401.243406,450.945005 400.186948,458.364836 C399.130489,465.784666 406.71586,493.350076 406.71586,493.350076 C406.71586,493.350076 402.363252,520.915486 404.904034,527.627156 C407.444816,534.338826 401.2751,559.43096 401.2751,559.43096 C401.2751,559.43096 401.745224,559.689914 402.542849,560.086272 L402.495309,560.768009 C402.099137,566.285319 401.238124,576.886586 400.186948,580.987575 C398.734318,586.642289 399.463274,592.651084 411.068467,591.942923 C422.673661,591.234763 423.038139,584.169012 423.038139,584.169012 C423.038139,584.169012 419.208478,571.813198 418.738354,564.525487 C418.738354,564.287672 418.738354,564.055142 418.706661,563.827896 L419.034163,563.706346 L419.129244,563.669353 C419.261301,563.61122 419.388076,563.553088 419.509569,563.48967 C419.625779,563.426253 419.731425,563.362835 419.842353,563.294133 L419.937434,563.230716 C420.028994,563.167299 420.118793,563.100358 420.206831,563.029894 L420.270219,562.977047 C420.375865,562.888967 420.476228,562.797364 420.571309,562.702238 L420.639979,562.633536 C420.713931,562.552503 420.786123,562.469708 420.856553,562.385151 L420.930505,562.290025 C421.015022,562.179045 421.099538,562.06278 421.178773,561.935945 C425.166903,555.59421 425.531381,542.144446 425.531381,542.144446 C425.531381,542.144446 433.512923,496.912018 430.612945,490.882084 C427.712967,484.852151 429.160315,470.74179 429.160315,470.74179 C429.160315,470.74179 425.895859,449.539254 429.524793,439.292067 C432.239891,431.618567 433.940788,405.120682 433.861554,392.442496 C433.861554,392.178257 433.861554,391.919303 433.861554,391.665633 C433.861554,391.575792 433.861554,391.485951 433.861554,391.39611 C436.566087,388.03499 438.615616,382.137176 437.157704,371.800147 C437.073187,371.213537 437.0098,370.621641 436.946412,370.019177 C441.066599,366.93815 445.133963,363.318076 445.133963,363.318076 L446.539053,361.870047 L446.988048,361.404986 C447.378937,361.568814 447.790956,361.716788 448.218822,361.848907 C449.803509,362.567637 450.933919,362.969281 450.933919,362.969281 C450.933919,362.969281 471.614089,346.005138 487.212695,337.877147 C502.811301,329.749157 490.154931,314.835509 490.154931,314.835509 Z M465.486631,329.67517 C465.486631,329.67517 443.718309,343.479014 439.740744,350.52891 C439.511089,350.923574 439.333533,351.346355 439.212515,351.786687 L438.684286,352.008648 L438.018717,352.262317 C441.351843,333.237111 450.273633,314.481429 450.273633,314.481429 C450.273633,314.481429 457.140611,320.490223 461.894673,322.937076 C466.648736,325.383929 465.486631,329.680454 465.486631,329.680454 L465.486631,329.67517 Z" id="Shape" fill="url(#linearGradient-1)" fill-rule="nonzero"></path>
                <path d="M332.630108,586.242421 C315.803368,591.476339 310.245863,588.210374 308.442998,585.064789 C307.48868,583.314367 308.125614,581.134352 309.878908,580.15014 C319.442265,574.617859 328.057549,567.633471 335.406202,559.455227 C337.278203,557.36166 338.262067,556.07935 338.262067,556.07935 C338.262067,556.07935 351.296942,553.650812 354.46658,556.07935 C355.25899,556.686485 355.812082,558.382274 356.189673,560.58052 C357.327765,567.164789 356.934219,578.271163 356.934219,578.271163 C356.934219,578.271163 359.401857,577.920491 332.630108,586.242421 Z" id="Shape" fill="#5B5877" fill-rule="nonzero"></path>
                <path d="M422,582.168391 C422,582.168391 421.644787,589.239098 410.234913,589.9435 C398.825039,590.647903 398.114613,584.639136 399.540847,578.987907 C400.574194,574.889565 401.419171,564.286173 401.806676,558.763018 C401.95199,556.665819 402.03272,555.305042 402.03272,555.305042 C402.03272,555.305042 419.857958,553.538699 418.07651,558.506871 C417.725828,559.821677 417.623642,561.189489 417.775117,562.541176 C418.237971,569.814666 422,582.168391 422,582.168391 Z" id="Shape" fill="#5B5877" fill-rule="nonzero"></path>
                <path d="M356,560.473768 L355.687673,560.823194 C349.022939,567.971008 335,560.823194 335,560.823194 L335.312327,559.374104 C337.1757,557.318658 338.155029,556.059697 338.155029,556.059697 C338.155029,556.059697 351.129821,553.675379 354.28485,556.059697 C355.094782,556.650638 355.645324,558.315549 356,560.473768 Z" id="Shape" fill="#000000" fill-rule="nonzero" opacity="0.1"></path>
                <path d="M417.876507,558.520087 C417.534302,559.852415 417.434586,561.238456 417.5824,562.608157 C413.034251,564.230408 404.97783,560.391082 402,558.822907 C402.141801,556.697759 402.22058,555.318846 402.22058,555.318846 C402.22058,555.318846 419.625391,553.507333 417.876507,558.520087 Z" id="Shape" fill="#000000" fill-rule="nonzero" opacity="0.1"></path>
                <path d="M429.801025,489.55504 C432.610337,495.518593 424.887379,540.39883 424.887379,540.39883 C424.887379,540.39883 424.537541,553.729437 420.673412,560.042541 C416.809283,566.355645 401.363368,557.585091 401.363368,557.585091 C401.363368,557.585091 407.33183,532.692818 404.872357,526.008979 C402.412884,519.325139 406.626852,491.991305 406.626852,491.991305 C406.626852,491.991305 399.253734,464.625694 400.308551,457.258641 C401.363368,449.891588 394.689927,426.010895 394.689927,426.010895 C394.689927,426.010895 379.238711,471.971563 371.865593,478.634218 C364.492474,485.296873 365.89713,499.331877 365.89713,499.331877 C371.865593,515.819036 359.223689,541.082044 359.223689,541.082044 C359.223689,541.082044 362.404042,553.358701 355.7147,560.725754 C349.025357,568.092807 335,560.725754 335,560.725754 L339.579708,539.021811 L342.760062,492.711592 C342.760062,492.711592 344.514556,479.730537 345.940415,456.575427 C347.366273,433.420318 356.472684,407.458208 356.472684,407.458208 L357.999253,396.770419 L359.281996,387.809201 C359.281996,387.809201 430.559009,385.351751 432.313504,385.0022 C432.753453,384.912164 432.976078,387.592056 432.99728,391.81315 C433.076789,404.402284 431.407103,430.703353 428.799214,438.324625 C425.290224,448.49868 428.449375,469.572371 428.449375,469.572371 C428.449375,469.572371 426.991713,483.591487 429.801025,489.55504 Z" id="Shape" fill="#5F5D7E" fill-rule="nonzero"></path>
                <g id="Group" opacity="0.05" transform="translate(345.000000, 385.000000)" fill="#000000" fill-rule="nonzero">
                    <path d="M45.6447472,40.9949459 C45.6447472,40.9949459 30.2360109,86.7158225 22.8831628,93.3437164 C15.5303147,99.9716102 16.9311089,113.93339 16.9311089,113.93339 C22.8831628,130.334529 10.2760149,155.465733 10.2760149,155.465733 C10.2760149,155.465733 13.4476244,167.678338 6.77667236,175.006955 C5.08915786,176.819729 2.78816557,177.945789 0.317160953,178.168113 C4.01737207,178.55272 7.92373781,177.994249 10.6248919,175.006955 C17.2799859,167.678338 14.1242344,155.465733 14.1242344,155.465733 C14.1242344,155.465733 26.7313823,130.339798 20.7793284,113.93339 C20.7793284,113.93339 19.3785342,99.9716102 26.7313823,93.3437164 C32.3821333,88.248984 42.7797266,60.0936067 47.2992701,47.3119926 C46.3689313,43.5818266 45.6447472,40.9949459 45.6447472,40.9949459 Z" id="Shape"></path>
                    <path d="M83.1067417,84.271194 C83.1067417,84.271194 79.9351322,63.3337932 83.4556188,53.1864772 C86.0986267,45.6049675 87.7161476,19.4411195 87.6421434,6.91766663 C87.6421434,2.70278978 87.3989866,0.0684917488 86.9602473,0.142252094 C86.7435207,0.184400862 85.4378747,0.263429803 83.3287544,0.363533128 C83.6247713,1.08006219 83.7727797,3.482542 83.7939238,6.92293522 C83.873214,19.4463881 82.208119,45.6102361 79.6073992,53.1917458 C76.1080567,63.3127188 79.2585222,84.2764626 79.2585222,84.2764626 C79.2585222,84.2764626 77.857728,98.2382421 80.6593164,104.170681 C83.4609048,110.10312 75.7591797,154.749203 75.7591797,154.749203 C75.7591797,154.749203 75.4103026,168.01026 71.556797,174.290426 C70.8387695,175.420246 69.6680905,176.187892 68.3428994,176.397865 C71.3400704,176.840427 74.0676546,176.471625 75.4050166,174.290426 C79.2585222,168.01026 79.6073992,154.749203 79.6073992,154.749203 C79.6073992,154.749203 87.3091244,110.076777 84.5075359,104.170681 C81.7059475,98.2645851 83.1067417,84.271194 83.1067417,84.271194 Z" id="Shape"></path>
                </g>
                <path d="M418,265.246718 L415.575865,289.438176 C415.575865,289.438176 377.160642,297.854898 381.314062,284.176402 C383.278447,277.702408 383.403834,270.751996 382.949308,265.230838 C382.829147,263.738061 382.677638,262.351155 382.505232,261.107174 C382.224137,258.95863 381.826478,256.827402 381.314062,254.72317 C381.314062,254.72317 411.093305,231.929205 409.693159,247.359862 C409.372097,250.276172 409.557758,253.226925 410.241724,256.078315 C410.677374,257.824071 411.420733,259.475714 412.435984,260.953661 C414.886241,264.457982 418,265.246718 418,265.246718 Z" id="Shape" fill="#FDC2CC" fill-rule="nonzero"></path>
                <path d="M411,255.735472 C410.722463,256.107465 410.429216,256.474292 410.130733,256.825618 C403.434639,264.656999 391.85591,266.30042 383.193933,260.648878 C382.912186,258.551869 382.513604,256.471759 382,254.417998 C382,254.417998 411.848321,232.170759 410.444926,247.231303 C410.125448,250.076263 410.313309,252.954442 411,255.735472 Z" id="Shape" fill="#000000" fill-rule="nonzero" opacity="0.1"></path>
                <path d="M415,242.491989 C415,253.818251 405.821837,263 394.5,263 C383.178163,263 374,253.818251 374,242.491989 C374,242.229604 374,241.967219 374,241.704834 C374.437198,230.546839 383.717627,221.789507 394.877772,222.003852 C406.037916,222.218197 414.975502,231.325429 414.984263,242.491989 L415,242.491989 Z" id="Shape" fill="#FDC2CC" fill-rule="nonzero"></path>
                <path d="M433,391.900546 C431.224178,394.304626 428.580577,395.905389 425.64259,396.355633 L409.507174,402.051513 L409.470069,402.051513 L404.577497,403.778995 L402.526115,398.687467 L400.01357,392.440718 L400.01357,403.778995 C400.01357,403.778995 369.184536,405.918293 358,396.885109 L359.282776,387.83588 C359.282776,387.83588 430.561665,385.354295 432.316206,385.001311 C432.756167,384.931784 432.978797,387.632647 433,391.900546 Z" id="Shape" fill="#000000" fill-rule="nonzero" opacity="0.1"></path>
                <path d="M418,265.282094 L415.575865,289.441564 C415.575865,289.441564 377.160642,297.847156 381.314062,284.186747 C383.278447,277.721313 383.403834,270.780092 382.949308,265.266235 C383.612811,266.672453 388.497652,276.621714 394.813986,278.350411 C395.600145,278.573205 396.419337,278.65198 397.232896,278.583019 C398.576202,278.421905 399.857515,277.920017 400.957914,277.123935 C406.642092,273.301769 411.406771,263.241491 412.451657,261 C414.886241,264.4944 418,265.282094 418,265.282094 Z" id="Shape" fill="#000000" fill-rule="nonzero" opacity="0.1"></path>
                <path d="M484.497659,337.96548 C469.444955,346.033118 449.487438,362.845991 449.487438,362.845991 C449.487438,362.845991 434.783568,357.584028 438.636595,350.575135 C442.489622,343.566242 463.477784,329.887254 463.477784,329.887254 C463.477784,329.887254 464.534856,325.678742 459.978876,323.222453 C455.422897,320.766164 448.773914,314.805429 448.773914,314.805429 C448.773914,314.805429 433.018258,348.817618 436.168332,371.612401 C439.318406,394.407184 425.666323,395.434167 425.666323,395.434167 L409.577689,401.071985 L409.540691,401.071985 L404.662304,402.781859 L402.61687,397.742232 L400.11161,391.55916 L400.11161,402.781859 C400.11161,402.781859 364.398436,405.238147 356,393.666063 C356,393.666063 363.700769,362.808935 361.602481,350.887464 C359.504193,338.965994 357.051787,279.003962 357.051787,279.003962 L383.832703,265.504961 C383.832703,265.504961 389.070494,276.95529 395.941461,278.823975 C396.736789,279.047072 397.565535,279.125954 398.388583,279.056899 C399.747555,278.895566 401.043812,278.392995 402.157044,277.59583 C408.64218,273.281444 413.969822,261 413.969822,261 C413.969822,261 426.046869,268.464153 437.854362,270.766924 C441.296765,271.416876 444.453908,273.118144 446.892326,275.637152 C448.171383,276.976465 449.672426,278.516939 451.258033,280.11035 C455.808728,284.668248 487.320041,315.17599 487.320041,315.17599 C487.320041,315.17599 499.534507,329.897842 484.497659,337.96548 Z" id="Shape" fill="#D39999" fill-rule="nonzero"></path>
                <path d="M449,356.175393 L444.475193,360.946817 L443.143756,362.355967 C443.143756,362.355967 431.088006,373.339049 427.983052,372.991943 C424.878099,372.644836 419.713578,351.714811 425.902682,353.087697 C429.668153,353.921789 434.073338,352.605892 436.94425,351.440234 C437.997778,351.020132 439.025836,350.539239 440.023199,350 L449,356.175393 Z" id="Shape" fill="#FDC2CC" fill-rule="nonzero"></path>
                <path d="M414.994752,242.652882 C415.002748,247.535131 413.287793,252.261138 410.156406,255.986205 C409.064977,256.092206 408.004837,255.581375 407.401382,254.658691 C406.824139,253.637932 407.065532,252.358018 406.682452,251.257926 C406.299373,250.157835 405.428261,249.401522 404.877256,248.423075 C403.481377,245.958446 404.069116,242.224481 401.513503,240.902255 C400.338026,240.299321 398.915909,240.500299 397.603993,240.722433 C395.02739,241.150834 392.435044,242.002347 389.895175,242.356704 C386.998464,242.769238 384.390375,240.870522 381.530398,240.828211 C378.980033,240.7859 376.419173,242.293237 374,241.859547 C374.437365,230.613945 383.721358,221.787855 394.885788,222.003882 C406.050218,222.21991 414.991236,231.398648 415,242.652882 L414.994752,242.652882 Z" id="Shape" fill="#000000" fill-rule="nonzero" opacity="0.1"></path>
                <path d="M396.828523,238.839724 C398.136416,238.624418 399.554171,238.419616 400.726043,239.023521 C403.273817,240.331108 402.687882,244.038564 404.079479,246.485695 C404.628794,247.457196 405.518161,248.25015 405.884371,249.300421 C406.250581,250.350692 406.025623,251.66353 406.601096,252.677042 C407.432915,254.142169 409.687722,254.357475 411.168256,253.48575 C412.64879,252.614025 413.475378,251.012362 414.035156,249.426453 C414.526924,248.029593 414.940218,246.485695 416.127784,245.57196 C416.559421,245.325221 416.946712,245.007471 417.273498,244.631967 C417.518889,244.134595 417.613478,243.575872 417.54554,243.025053 C417.54554,239.475138 416.996225,236.723428 417.796655,233.283791 C419.07839,227.738362 420.250261,220.796072 416.190563,216.684262 C414.112317,214.605216 411.437654,213.231608 408.542008,212.756249 C405.926223,212.325638 402.075788,215.991083 399.428614,215.907061 C392.695583,215.639242 387.014099,209.379628 380.594962,211.4014 C377.788288,212.286421 375.354984,214.08412 373.678827,216.510967 C370.539885,221.153164 370.82239,227.15021 371.277537,232.690388 C371.270704,233.111029 371.393089,233.523576 371.628052,233.871943 C371.863473,234.155516 372.245377,234.307805 372.475566,234.59663 C372.723233,234.978188 372.81677,235.44013 372.737145,235.888463 C372.667108,236.790891 372.457057,237.676797 372.114588,238.51414 C371.939683,238.797793 371.904936,239.146582 372.02042,239.459384 C372.14916,239.634789 372.333741,239.760778 372.543577,239.816476 C375.159361,240.761719 377.984409,238.9395 380.783299,238.986762 C383.582189,239.034024 386.239826,240.914009 389.127653,240.504403 C391.675427,240.110552 394.259823,239.265084 396.828523,238.839724 Z" id="Shape" fill="#865A61" fill-rule="nonzero"></path>
                <path d="M409,401.121412 L408.96274,401.121412 L403.868701,403 L401.984386,397.802221 L394,375.734085 L395.250887,279.224249 C396.051868,279.446638 396.886503,279.52527 397.715401,279.456434 C399.084032,279.295613 400.389501,278.794636 401.510646,278 L399.998935,372.984802 L409,401.121412 Z" id="Shape" fill="#000000" fill-rule="nonzero" opacity="0.05"></path>
                <circle id="Oval" fill="#FFFFFF" fill-rule="nonzero" cx="399" cy="282" r="1"></circle>
                <circle id="Oval" fill="#FFFFFF" fill-rule="nonzero" cx="397" cy="318" r="1"></circle>
                <circle id="Oval" fill="#FFFFFF" fill-rule="nonzero" cx="395" cy="355" r="1"></circle>
                <circle id="Oval" fill="#FFFFFF" fill-rule="nonzero" cx="397" cy="374" r="1"></circle>
                <polygon id="Shape" fill="#000000" fill-rule="nonzero" opacity="0.05" points="433 323 411 323 411 300.209677 422 297 433 300.209677"></polygon>
                <circle id="Oval" fill="#FFFFFF" fill-rule="nonzero" cx="398" cy="299" r="1"></circle>
                <circle id="Oval" fill="#FFFFFF" fill-rule="nonzero" cx="423" cy="300" r="1"></circle>
                <circle id="Oval" fill="#FFFFFF" fill-rule="nonzero" cx="396" cy="337" r="1"></circle>
                <path d="M361.836208,277 C361.836208,277 351.956017,278.39471 348.781573,296.173312 C345.607129,313.951913 342.432684,338.704064 342.432684,338.704064 C342.432684,338.704064 337.138393,361.714143 363.588544,356.124778 L365,348.103881 C365,348.103881 362.336876,357.340544 363.061245,338.867219 C363.785615,320.393894 363.945403,308.341496 363.945403,308.341496 L361.836208,277 Z" id="Shape" fill="#D39999" fill-rule="nonzero"></path>
                <path d="M361.836208,277 C361.836208,277 351.956017,278.39471 348.781573,296.173312 C345.607129,313.951913 342.432684,338.704064 342.432684,338.704064 C342.432684,338.704064 337.138393,361.714143 363.588544,356.124778 L365,348.103881 C365,348.103881 360.941399,356.993182 361.64979,338.514594 C362.358181,320.036006 363.945403,308.357285 363.945403,308.357285 L361.836208,277 Z" id="Shape" fill="#000000" fill-rule="nonzero" opacity="0.05"></path>
                <path d="M449,356.205395 L444.551768,361 C438.227098,358.397066 437,351.572172 437,351.572172 L437.163613,351.447231 C438.199311,351.025088 439.209972,350.541859 440.190456,350 L449,356.205395 Z" id="Shape" fill="#000000" fill-rule="nonzero" opacity="0.1"></path>
                <path d="M443.317204,348 L438,351.778351 C438,351.778351 439.758065,360.974227 449.725806,362 L454,354.829897 L443.317204,348 Z" id="Shape" fill="#D39999" fill-rule="nonzero"></path>
                <polygon id="Shape" fill="#F2F5FB" fill-rule="nonzero" points="293 297.567572 337.334038 258 357.624736 281.626299 392.445032 279.828014 403 301.671895 369.849894 345 354.321353 321.394857 317.386892 324.557724"></polygon>
                <polygon id="Shape" fill="#DDE0ED" fill-rule="nonzero" points="399 301.437537 387.400969 316.495911 375.024114 332.567981 369.306059 340 356.077803 319.431953 342.203112 320.650489 319.614695 322.63061 302.786377 304.032179 297 297.640117 320.476608 276.714913 338.114283 261 347.201154 271.567648 356.923949 282.875873 366.636232 282.376903 389.214138 281.21089 398.027721 299.425903"></polygon>
                <polygon id="Shape" fill="#ABB1D1" fill-rule="nonzero" points="326 284.783695 302.770649 303 297 296.682177 320.412796 276"></polygon>
                <polygon id="Shape" fill="#ABB1D1" fill-rule="nonzero" points="352.251163 298.498737 350.396013 286.996032 338 272.679113 346.73887 271 356.572757 282.262085 366.396013 281.765152 370 295.464827 352.495681 300"></polygon>
                <polygon id="Shape" fill="#ABB1D1" fill-rule="nonzero" points="399 301.003385 387.152103 316 381 306.961231 398.00686 299"></polygon>
                <polygon id="Shape" fill="#ABB1D1" fill-rule="nonzero" points="374 332.535383 368.336704 340 355.235128 319.34174 341.493308 320.56562 339 303.098945 351.841315 299 353.382064 310.932836 362.069601 312.299151"></polygon>
                <path d="M350.704351,303.992922 C350.571153,304.019479 350.434217,303.970126 350.348345,303.864613 C348.640846,301.765239 346.551196,300.010312 344.190543,298.693175 C344.012358,298.594582 343.947606,298.369793 344.045915,298.191093 C344.144223,298.012394 344.368365,297.947455 344.546549,298.046048 C346.988217,299.40885 349.149576,301.224339 350.91573,303.396003 C350.998802,303.496699 351.022423,303.634011 350.977797,303.756801 C350.933171,303.879591 350.826986,303.969454 350.698789,303.992922 L350.704351,303.992922 Z" id="Shape" fill="#D7666F" fill-rule="nonzero"></path>
                <path d="M345.399924,304.993037 C345.269046,305.020499 345.134792,304.965291 345.058916,304.852807 C344.983039,304.740322 344.98023,304.59234 345.051781,304.476927 L349.380861,297.163658 C349.476998,297.002611 349.682564,296.951775 349.840006,297.050114 C349.997448,297.148453 350.047145,297.358726 349.951008,297.519774 L345.621928,304.833043 C345.573514,304.916219 345.492789,304.974396 345.399924,304.993037 Z" id="Shape" fill="#D7666F" fill-rule="nonzero"></path>
                <polygon id="Shape" fill="#FFFFFF" fill-rule="nonzero" opacity="0.1" points="319 322 356.476565 282.572675 389 281 355.793922 319.122899"></polygon>
                <path d="M352,341.224634 C352,341.224634 360.794445,319.951402 365.016416,322.160928 C369.238387,324.370454 381.548486,337.632846 373.109855,343.43416 C364.671224,349.235475 358.686115,352 358.686115,352 L352,351.172737 L352,341.224634 Z" id="Shape" fill="#FDC2CC" fill-rule="nonzero"></path>
                <path d="M347,342.020153 C347,342.020153 354.744355,335.571245 361,355.101914 L355.101238,356 L348.345958,351.698925 L347,342.020153 Z" id="Shape" fill="#D39999" fill-rule="nonzero"></path>
                <path d="M347,342.020153 C347,342.020153 354.744355,335.571245 361,355.101914 L355.101238,356 L348.345958,351.698925 L347,342.020153 Z" id="Shape" fill="#000000" fill-rule="nonzero" opacity="0.05"></path>
                <path d="M159.85949,175.441916 C161.339104,201.145772 187.580782,231.568206 182.781746,171.343881 C177.982709,111.119557 158.379875,149.738059 159.85949,175.441916 Z" id="Shape" fill="#F5F5F6" fill-rule="nonzero" transform="translate(171.573552, 172.843856) rotate(217.000000) translate(-171.573552, -172.843856) "></path>
                <path d="M609.532069,64.6972935 C610.090112,74.3916189 618.697035,67.9058373 618.177301,63.1517014 C617.657567,58.3975654 608.974025,55.0029681 609.532069,64.6972935 Z" id="Shape-Copy" fill="#F2F2F2" fill-rule="nonzero" transform="translate(613.853104, 64.103494) rotate(217.000000) translate(-613.853104, -64.103494) "></path>
                <path d="M484.94955,133 L470.97948,133 C474.845232,133 477.979044,136.134007 477.979044,140 C477.979044,143.865993 474.845232,147 470.97948,147 L389.999565,147 C386.133812,147 383,143.865993 383,140 C383,136.134007 386.133812,133 389.999565,133 L403.998694,133 C400.132941,133 396.999129,129.865993 396.999129,126 C396.999129,122.134007 400.132941,119 403.998694,119 L393.995165,119 C390.129412,119 386.9956,115.865993 386.9956,112 C386.9956,108.134007 390.129412,105 393.995165,105 L474.97508,105 C478.840832,105 481.974644,108.134007 481.974644,112 C481.974644,115.865993 478.840832,119 474.97508,119 L484.94955,119 C488.815303,119 491.949115,122.134007 491.949115,126 C491.949115,129.865993 488.815303,133 484.94955,133 Z" id="Path-Copy" fill="#FFFFFF"></path>
            </g>
        </g>
    </g>
</svg>