<svg xmlns="http://www.w3.org/2000/svg" width="444" height="211" viewBox="0 0 444 211"><defs><linearGradient id="a" x1="49.984%" x2="49.984%" y1="100.023%" y2=".009%"><stop offset="0%" stop-color="gray" stop-opacity=".25"/><stop offset="54%" stop-color="gray" stop-opacity=".12"/><stop offset="100%" stop-color="gray" stop-opacity=".1"/></linearGradient></defs><g fill="none" fill-rule="evenodd"><ellipse cx="165.5" cy="137" fill="#477DDE" opacity=".1" rx="165.5" ry="4"/><g opacity=".7"><path fill="#65617D" d="M51 103.636h52.579v29.053H51z"/><path fill="#000" d="M69.508 108.688h15.984v3.368H69.508z" opacity=".1"/><path fill="#000" d="M71.506 109.109h11.988v2.526H71.506z" opacity=".1"/><path fill="#65617D" d="M104.421 103.636H157v29.053h-52.579z"/><path fill="#000" d="M122.929 108.688h15.984v3.368h-15.984z" opacity=".1"/><path fill="#000" d="M124.927 109.109h11.988v2.526h-11.988z" opacity=".1"/><path fill="#65617D" d="M51 73.741h52.579v29.053H51z"/><path fill="#000" d="M69.508 78.794h15.984v3.368H69.508z" opacity=".1"/><path fill="#000" d="M71.506 79.215h11.988v2.526H71.506z" opacity=".1"/><path fill="#65617D" d="M104.421 73.741H157v29.053h-52.579z"/><path fill="#000" d="M122.929 78.794h15.984v3.368h-15.984z" opacity=".1"/><path fill="#000" d="M124.927 79.215h11.988v2.526h-11.988z" opacity=".1"/><path fill="#65617D" d="M51 43.425h52.579v29.053H51z"/><path fill="#000" d="M69.508 48.478h15.984v3.368H69.508z" opacity=".1"/><path fill="#000" d="M71.506 48.899h11.988v2.526H71.506z" opacity=".1"/><path fill="#65617D" d="M104.421 43.425H157v29.053h-52.579z"/><path fill="#000" d="M122.929 48.478h15.984v3.368h-15.984z" opacity=".1"/><path fill="#000" d="M124.927 48.899h11.988v2.526h-11.988z" opacity=".1"/><path fill="#65617D" d="M104.421 13.109H157v29.053h-52.579z"/><path fill="#000" d="M122.929 18.162h15.984v3.368h-15.984z" opacity=".1"/><path fill="#000" d="M124.927 18.583h11.988v2.526h-11.988z" opacity=".1"/></g><g opacity=".7"><path fill="#65617D" d="M159 103.636h52.579v29.053H159z"/><path fill="#000" d="M177.508 108.688h15.984v3.368h-15.984z" opacity=".1"/><path fill="#000" d="M179.506 109.109h11.988v2.526h-11.988z" opacity=".1"/><path fill="#65617D" d="M212.421 103.636H265v29.053h-52.579z"/><path fill="#000" d="M230.929 108.688h15.984v3.368h-15.984z" opacity=".1"/><path fill="#000" d="M232.927 109.109h11.988v2.526h-11.988z" opacity=".1"/><path fill="#65617D" d="M159 73.741h52.579v29.053H159z"/><path fill="#000" d="M177.508 78.794h15.984v3.368h-15.984z" opacity=".1"/><path fill="#000" d="M179.506 79.215h11.988v2.526h-11.988z" opacity=".1"/><path fill="#65617D" d="M212.421 73.741H265v29.053h-52.579z"/><path fill="#000" d="M230.929 78.794h15.984v3.368h-15.984z" opacity=".1"/><path fill="#000" d="M232.927 79.215h11.988v2.526h-11.988z" opacity=".1"/><path fill="#65617D" d="M159 43.425h52.579v29.053H159z"/><path fill="#000" d="M177.508 48.478h15.984v3.368h-15.984z" opacity=".1"/><path fill="#000" d="M179.506 48.899h11.988v2.526h-11.988z" opacity=".1"/><path fill="#65617D" d="M212.421 43.425H265v29.053h-52.579z"/><path fill="#000" d="M230.929 48.478h15.984v3.368h-15.984z" opacity=".1"/><path fill="#000" d="M232.927 48.899h11.988v2.526h-11.988z" opacity=".1"/><path fill="#65617D" d="M212.421 13.109H265v29.053h-52.579z"/><path fill="#000" d="M230.929 18.162h15.984v3.368h-15.984z" opacity=".1"/><path fill="#000" d="M232.927 18.583h11.988v2.526h-11.988z" opacity=".1"/></g><ellipse cx="86" cy="205" fill="#477DDE" rx="17" ry="3"/><path fill="#477DDE" d="M92.268 200.728c.804-.543 1.388-1.276 1.676-2.102a1.787 1.787 0 0 0-1.172-2.138c-1.077-.341-2.227.28-3.098.904-.87.624-1.872 1.34-3.01 1.205 1.192-.899 1.73-2.25 1.418-3.561a1.391 1.391 0 0 0-.394-.726c-.6-.53-1.68-.305-2.398.112-2.275 1.329-2.909 3.895-2.922 6.2-.228-.83-.035-1.698-.04-2.54-.004-.843-.288-1.816-1.159-2.262a4.049 4.049 0 0 0-1.75-.341c-1.02-.033-2.161.054-2.857.675-.875.77-.643 2.062.11 2.904.752.842 1.903 1.383 2.961 1.967.847.42 1.57.991 2.114 1.674.065.095.118.196.157.301h6.414a18.306 18.306 0 0 0 3.95-2.272z"/><path fill="#3F3D56" d="M294.97 81.657c-.075-.645-.492-1.21-1.11-1.5a2.19 2.19 0 0 0-1.616-.004 2.01 2.01 0 0 0-1.127 1.093l-9.89 19.596L279 178h3.563l1.336-76.986 10.884-18.14a1.9 1.9 0 0 0 .187-1.217z"/><path fill="#477DDE" d="M444 194.82a60.876 60.876 0 0 1-8.86 6.524c-.05.07-.104.136-.164.196a2.73 2.73 0 0 1-1.156.588 68.458 68.458 0 0 1-34.08 8.87H168.638c-26.48-2.76-42.638-6.42-42.638-10.438 0-3.114 9.701-6.016 26.405-8.445a269.162 269.162 0 0 1 8.97-1.167l2.055-.243c1.524-.176 3.09-.348 4.695-.515h.13l1.681-.17c1.421-.15 2.871-.29 4.35-.427l1.077-.098 2.745-.247c1.782-.162 3.603-.317 5.464-.464 1.544-.123 3.113-.245 4.707-.367 16.166-1.214 34.803-2.13 55.084-2.723l5.792-.2 1.95-.042 4.12-.094 1.651-.034 1.736-.034 1.236-.022 5.8-.093 2.98-.043h.61c7.047-.085 14.226-.13 21.537-.132 14.451 0 28.465.175 41.818.507 7.667.187 15.1.426 22.298.716h.068c20.755.826 39.334 2.045 54.709 3.558l.282.03c3.946.387 7.683.8 11.189 1.226 3.3.4 6.397.823 9.272 1.253.996.15 1.963.303 2.904.452l.24.042c3.985.652 7.482 1.317 10.445 2.037z" opacity=".1"/><path fill="url(#a)" d="M435.73 200.622a1.507 1.507 0 0 1-.164.193 2.762 2.762 0 0 1-1.164.58c-.856.238-1.736.379-2.624.42h-.266c-.507.017-1.015 0-1.52-.05a7.103 7.103 0 0 0-1.113-.072h-.05a7.959 7.959 0 0 0-1.587.39 14.167 14.167 0 0 1-3.513.497h-.423c-1.329 0-2.674-.046-4.007-.038h-.648c-2.285.059-4.557.42-6.842.458h-.733c-2.238-.055-4.528-.53-6.31-1.874a2.48 2.48 0 0 1-.845-.942 2.626 2.626 0 0 1-.149-1.26c.043-.76.19-1.589.766-2.101a3.34 3.34 0 0 1 1.22-.584c.774-.248 1.552-.488 2.327-.727.774-.24 1.658-.496 2.492-.74l.16-.05.466-.14.3-.1a4.934 4.934 0 0 0 1.042-.47 3.437 3.437 0 0 0 1.07-1.064c.047-.075.098-.155.14-.235.042-.08 0-.13-.03-.198-.071-.525-.126-1.063-.22-1.575a6.359 6.359 0 0 1-3.127-1.757 9.99 9.99 0 0 1-1.824-2.45c-1.053-1.967-1.595-4.164-2.382-6.253-1.206-3.177-2.962-6.11-4.731-9.018-1.617-2.68-3.242-5.37-5.078-7.904-1.223-1.681-2.54-3.282-3.75-4.967a43.98 43.98 0 0 1-7.228-15.675 20.633 20.633 0 0 0-.876-3.185c-.727-1.765-2.06-3.202-3.093-4.816a15.878 15.878 0 0 1-2.239-5.702c-.211-1.152-.567-2.396-1.722-2.522l-.123.24c-2.395 4.622-4.853 9.329-8.463 13.102a13.896 13.896 0 0 0-1.579 1.803 17.303 17.303 0 0 0-1.015 1.942 12.604 12.604 0 0 1-2.247 3.265 6.4 6.4 0 0 1-.889.744 4.79 4.79 0 0 1-1.392.693 4.01 4.01 0 0 1-.601.134c0 .05.021.097.025.148.005.05.026.109.034.163a19.62 19.62 0 0 1-.774 10.056c-.03.101-.064.198-.102.299-.175.47-.365.933-.571 1.387-.516 1.113-1.13 2.18-1.612 3.31-.08.194-.161.387-.233.58-1.693 4.501-1.27 9.527-1.49 14.364a15.716 15.716 0 0 1-.376 3.143c-.288 1.164-.75 2.366-1.003 3.568a5.998 5.998 0 0 0-.055 2.753l-.102.037c-.453.168-.914.32-1.375.463v.063c.165.941.326 1.882.49 2.82.14.806.305 1.68.872 2.252.155.126.297.267.424.42.334.521.038 1.21.101 1.828.093.874.906 1.618.779 2.488a1.642 1.642 0 0 1-.99 1.168 2.939 2.939 0 0 1-.652.206l-.14.03a9.432 9.432 0 0 1-.761.096c-3.153.31-6.348.622-9.471.092-.618-.105-1.232-.243-1.858-.294a13.964 13.964 0 0 0-2.37.097c-5.793.545-11.62.657-17.43.336-1.511-.084-3.246-.328-4.046-1.61-.664-1.063-.423-2.437-.089-3.651.096-.447.27-.873.512-1.26a.812.812 0 0 1 .093-.119c.78-.962 2.243-1.02 3.504-.983l4.122.122a3.89 3.89 0 0 0 1.21-.092c.669-.194 1.177-.723 1.803-1.022.787-.374 1.777-.42 2.344-1.059l.072-.092c.1-.135.194-.276.28-.42 0-.03.038-.059.059-.088a.79.79 0 0 1 .05-.076c.521-.68 1.431-.908 2.172-1.34.112-.066.218-.14.317-.223l.085-.076a8.653 8.653 0 0 1-2.057-2.055 2.06 2.06 0 0 1-.47-.815 1.173 1.173 0 0 1 .051-.685.899.899 0 0 1 .068-.156l.021-.042c.288-.563.88-1.071 1.206-1.647a.256.256 0 0 0 .03-.059c.448-.84.537-2.143-.127-2.82.338-5.534 1.87-10.925 2.209-16.476.135-2.198.08-4.404.182-6.61.101-2.207.338-4.346.588-6.51.558-4.946 1.913-9.791 1.722-14.758a8.927 8.927 0 0 1 .06-1.387.835.835 0 0 1 0-.1 8.48 8.48 0 0 1 .943-2.909 22.337 22.337 0 0 1 2.078-2.908c2.602-3.361 5.73-6.723 6.656-10.858.479-2.135 1.537-4.09 2.59-6.01.622-1.143 1.27-2.315 2.264-3.155a9.931 9.931 0 0 0 1.494-1.261c.694-.891.72-2.122 1.13-3.181.212-.55.537-1.055.698-1.622 0-.06.03-.114.043-.173.093-.572.143-1.15.148-1.73 0-.169.025-.333.046-.497a17.466 17.466 0 0 1 1.443-4.803c.09-.193.174-.39.258-.584a18.097 18.097 0 0 1-5.078-4.375 10.324 10.324 0 0 1-1.231-1.844c-.872-1.72-1.07-3.677-1.481-5.56-.982-4.488-3.23-8.715-3.542-13.304-.093-1.4 0-2.845-.491-4.169a8.305 8.305 0 0 0-.478-1.042c-.077-.143-.148-.286-.225-.42l-.084-.16-.216-.42-.347.269a253.57 253.57 0 0 1-27.21 18.456l-.813.48a2.958 2.958 0 0 0-1.075.873c-.034.055-.063.11-.093.164-.194.4-.245.84-.423 1.26-.38.963-1.358 1.577-2.357 1.862a7.324 7.324 0 0 1-5.353-.685 6.465 6.465 0 0 1-.61-.336 8.279 8.279 0 0 1-1.557.66c-1.693.487-3.466.466-5.218.462-1.752-.004-3.542 0-5.2.572-1.11.374-2.184.991-3.335 1.05a3.14 3.14 0 0 1-.398 0 5.794 5.794 0 0 1-1.887-.55l-.347-.156a5.684 5.684 0 0 1-.525-.281 2.892 2.892 0 0 1-.512-.4 1.855 1.855 0 0 1-.474-.802 1.323 1.323 0 0 1 0-.668.42.42 0 0 1 .144-.252.46.46 0 0 1 .25-.063 7.67 7.67 0 0 1 1.447.121 5.2 5.2 0 0 0 .846.047h.153a1.84 1.84 0 0 0 1.27-.715.784.784 0 0 0 .11-.201.923.923 0 0 0 .075-.374.668.668 0 0 0 0-.097 6.045 6.045 0 0 1-.524-.256 5.121 5.121 0 0 1-.259-.148l-.05-.033a2.877 2.877 0 0 1-.424-.349 1.473 1.473 0 0 1-.215-.269 1.605 1.605 0 0 1-.25-.504 2.288 2.288 0 0 0-1.054.03c-.461.125-.927.394-1.384.487-.23.057-.473.047-.698-.03-.66-.235-.893-1.033-1.032-1.718-.026-.13-.055-.265-.077-.4a2.112 2.112 0 0 1 0-.781 2.881 2.881 0 0 1 1.113-1.442l1.388-1.155.102-.084c0-.114-.047-.227-.063-.34a2.133 2.133 0 0 1 0-.786 2.869 2.869 0 0 1 1.112-1.438l3.073-2.567c.575-.48 1.202-.984 1.95-1.034 1.114-.076 2.002.84 2.836 1.576 1.05.924 2.323 1.68 3.724 1.773.667.03 1.334-.06 1.968-.269l.36-.117a43.746 43.746 0 0 1-.588-1.244c1.802-.114 3.44-1.097 4.806-2.274 1.367-1.176 2.54-2.567 3.919-3.723 1.49-1.26 3.2-2.198 4.71-3.412 3.512-2.828 5.844-6.984 9.602-9.476 1.303-.87 2.81-1.563 3.698-2.858.275-.42.483-.84.766-1.26.902-1.261 2.446-1.841 3.72-2.715 1.274-.874 2.382-2.156 3.42-3.387.736-.878 1.476-1.757 2.179-2.66.647-1.198 1.193-2.45 1.87-3.63a17.827 17.827 0 0 1 2.002-2.808c.173-.336.35-.672.541-1 .19-.328.33-.55.508-.84.123-.19.25-.37.381-.555a26.289 26.289 0 0 0-.927-1.517l-.084-.114a12.66 12.66 0 0 0-1.194-1.11 11.35 11.35 0 0 1-1.312-.276c-5.368-1.462-9.088-6.31-9.081-11.838a12.118 12.118 0 0 1 1.921-6.577 3.824 3.824 0 0 1-.563-.227 2.227 2.227 0 0 1-.787-.643 1.854 1.854 0 0 1-.326-.815 4.13 4.13 0 0 1 .305-2.034 9.63 9.63 0 0 1 .394-.907.348.348 0 0 0 .03-.055c1.89-3.782 5.924-6.106 9.952-6.27 4.346-.172 8.578 1.853 12.006 4.753a16.017 16.017 0 0 1 2.725 2.845c1.79 2.47 2.598 5.63 2.835 8.762.09.968.072 1.943-.05 2.908a6.537 6.537 0 0 1-.415 1.61c-.076.197-.123.285-.19.42v.02c-.064.135-.136.26-.208.387l-.038.054-.055.089c.034.08.072.164.11.243.038.08.072.156.114.232h.051c.846.067 1.63.184 2.493.252.406.019.809.08 1.201.185.847.252 1.486.865 2.197 1.361 1.76 1.236 3.927 1.811 5.658 3.089 2.539 1.882 3.808 4.992 5.349 7.778 2.03 3.732 5.34 6.909 6.8 10.9.66 1.813 1.323 3.623 1.989 5.43 1.299 3.543 2.598 7.102 4.363 10.443 2.454 4.647 5.776 8.824 7.744 13.707.195.49.562.893 1.032 1.135a89.082 89.082 0 0 1 7.131 11.846c1.088 2.181 2.116 4.446 2.433 6.862.248 2.152.068 4.33-.529 6.413a30.985 30.985 0 0 1-1.24 3.64c-.19.415-.332.85-.423 1.298v.138c-.084.807.224 1.606.31 2.413a4.443 4.443 0 0 1-.217 1.924c-.034.097-.072.193-.11.29a10.329 10.329 0 0 0-.664 1.53 1.54 1.54 0 0 0-.034.193c-.14.912.224 1.832.423 2.744.745 3.295.61 6.724.423 10.086-.097 1.68 1.27 3.03 2.412 4.269 2.116 2.324 3.771 5.043 5.366 7.749a24.759 24.759 0 0 1 2.188 4.345c.605 1.731.847 3.564 1.18 5.358 1.08 5.547 4.605 10.447 5.561 16.006a14.245 14.245 0 0 0 3.272 6.884 14.63 14.63 0 0 1 1.409 1.68c.294.474.529.982.698 1.513.416 1.236.612 2.534.58 3.837a5.73 5.73 0 0 0 .105 1.866c.398 1.29 1.82 2 2.408 3.215.589 1.214.182 2.769.424 4.147a4.47 4.47 0 0 0 1.692 2.799c-.338.294-.694.563-1.058.84.337.26.632.569.876.916.167.233.309.482.423.744.559 1.29.576 2.824 1.033 4.202.195.572.47 1.177.3 1.757-.072.166-.12.342-.143.521 0 .378.397.626.55.97a1.04 1.04 0 0 1-.22 1.014z"/><path fill="#FBBEBE" d="M346.822 38c2.615-.689 4.944-2.128 7.226-3.552L362 29.503c-2.158-.167-4.021-1.67-5.128-3.49-1.107-1.819-1.564-3.935-1.94-6.013-3.418 1.302-6.38 3.51-9.14 5.843-1.094.922-3.419 2.316-3.756 3.756-.338 1.44 1.816 2.608 2.649 3.572.286.322 2.983 4.6 2.137 4.829z"/><path fill="#000" d="M346.822 38c2.615-.689 4.944-2.128 7.226-3.552L362 29.503c-2.158-.167-4.021-1.67-5.128-3.49-1.107-1.819-1.564-3.935-1.94-6.013-3.418 1.302-6.38 3.51-9.14 5.843-1.094.922-3.419 2.316-3.756 3.756-.338 1.44 1.816 2.608 2.649 3.572.286.322 2.983 4.6 2.137 4.829z" opacity=".1"/><path fill="#FBBEBE" d="M303.395 78.1c-1.41.74-2.91 1.497-4.487 1.392-1.418-.093-2.712-.88-3.777-1.845-.86-.766-1.745-1.722-2.875-1.642-.757.052-1.393.576-1.977 1.074l-3.116 2.673c-.524.36-.92.886-1.13 1.497-.062.414-.037.837.073 1.241.142.713.378 1.546 1.049 1.788.67.242 1.4-.278 2.11-.476a2.446 2.446 0 0 1 2.436.736 1.5 1.5 0 0 1 .43.96c0 .796-.86 1.32-1.65 1.36-.79.04-1.547-.225-2.33-.176a.35.35 0 0 0-.266.076.368.368 0 0 0-.133.25c-.099.565.09 1.143.503 1.532.408.382.883.68 1.4.88.602.305 1.25.499 1.917.573 1.32.088 2.532-.66 3.782-1.096 1.685-.582 3.498-.6 5.277-.595 1.78.005 3.585.03 5.29-.48 1.707-.51 3.327-1.642 3.993-3.328a.819.819 0 0 0 .073-.511.84.84 0 0 0-.361-.44c-2.398-1.819-3.37-4.03-6.068-5.337l-.163-.106z"/><path fill="#000" d="M303.395 78.1c-1.41.74-2.91 1.497-4.487 1.392-1.418-.093-2.712-.88-3.777-1.845-.86-.766-1.745-1.722-2.875-1.642-.757.052-1.393.576-1.977 1.074l-3.116 2.673c-.524.36-.92.886-1.13 1.497-.062.414-.037.837.073 1.241.142.713.378 1.546 1.049 1.788.67.242 1.4-.278 2.11-.476a2.446 2.446 0 0 1 2.436.736 1.5 1.5 0 0 1 .43.96c0 .796-.86 1.32-1.65 1.36-.79.04-1.547-.225-2.33-.176a.35.35 0 0 0-.266.076.368.368 0 0 0-.133.25c-.099.565.09 1.143.503 1.532.408.382.883.68 1.4.88.602.305 1.25.499 1.917.573 1.32.088 2.532-.66 3.782-1.096 1.685-.582 3.498-.6 5.277-.595 1.78.005 3.585.03 5.29-.48 1.707-.51 3.327-1.642 3.993-3.328a.819.819 0 0 0 .073-.511.84.84 0 0 0-.361-.44c-2.398-1.819-3.37-4.03-6.068-5.337l-.163-.106z" opacity=".1"/><path fill="#477DDE" d="M352.456 33.802a5.034 5.034 0 0 0-4.41-.512 9.523 9.523 0 0 0-3.798 2.527 17.446 17.446 0 0 0-2.68 3.535c-.71 1.249-1.251 2.556-1.96 3.8-1.25 2.228-2.885 4.193-4.527 6.141-1.022 1.212-2.056 2.44-3.365 3.33-1.309.892-2.772 1.437-3.66 2.674-.28.39-.48.832-.755 1.228-.87 1.274-2.35 1.956-3.639 2.81-3.694 2.456-5.99 6.544-9.443 9.33-1.488 1.198-3.168 2.14-4.631 3.363-1.363 1.137-2.501 2.498-3.86 3.664-1.36 1.165-2.956 2.127-4.728 2.235 1.184 2.636 2.597 5.22 4.627 7.273s5.074 3.364 7.846 2.56c.984-.282 1.947-.882 2.322-1.831.118-.488.283-.963.492-1.42.279-.366.64-.661 1.055-.862a249.22 249.22 0 0 0 31.73-21.952c2.68-2.181 5.34-4.134 8.091-6.244a17.681 17.681 0 0 0 2.722-2.382 9.04 9.04 0 0 0 1.1-9.97 23.653 23.653 0 0 0-2.525-3.418 30.059 30.059 0 0 0-6.004-5.879z"/><path fill="#000" d="M352.456 33.802a5.034 5.034 0 0 0-4.41-.512 9.523 9.523 0 0 0-3.798 2.527 17.446 17.446 0 0 0-2.68 3.535c-.71 1.249-1.251 2.556-1.96 3.8-1.25 2.228-2.885 4.193-4.527 6.141-1.022 1.212-2.056 2.44-3.365 3.33-1.309.892-2.772 1.437-3.66 2.674-.28.39-.48.832-.755 1.228-.87 1.274-2.35 1.956-3.639 2.81-3.694 2.456-5.99 6.544-9.443 9.33-1.488 1.198-3.168 2.14-4.631 3.363-1.363 1.137-2.501 2.498-3.86 3.664-1.36 1.165-2.956 2.127-4.728 2.235 1.184 2.636 2.597 5.22 4.627 7.273s5.074 3.364 7.846 2.56c.984-.282 1.947-.882 2.322-1.831.118-.488.283-.963.492-1.42.279-.366.64-.661 1.055-.862a249.22 249.22 0 0 0 31.73-21.952c2.68-2.181 5.34-4.134 8.091-6.244a17.681 17.681 0 0 0 2.722-2.382 9.04 9.04 0 0 0 1.1-9.97 23.653 23.653 0 0 0-2.525-3.418 30.059 30.059 0 0 0-6.004-5.879z" opacity=".1"/><path fill="#3F3D56" d="M335.496 188.787c-.738.435-1.646.678-2.165 1.381-.169.226-.283.491-.464.708-.562.678-1.558.708-2.339 1.095-.624.304-1.131.868-1.794 1.046-.396.097-.805.13-1.211.096l-4.103-.126c-1.3-.04-2.824.03-3.58 1.12-.245.4-.42.841-.514 1.303-.317 1.247-.574 2.658.088 3.753.794 1.302 2.533 1.567 4.031 1.654 5.79.33 11.594.214 17.366-.347a13.35 13.35 0 0 1 2.355-.1c.625.052 1.237.195 1.853.304 3.111.543 6.294.226 9.434-.096a4.812 4.812 0 0 0 1.55-.338c.5-.21.867-.66.983-1.203.13-.895-.684-1.655-.773-2.554-.063-.634.233-1.342-.105-1.88a3.063 3.063 0 0 0-.422-.435c-.566-.603-.73-1.485-.87-2.31l-.738-4.46a1.392 1.392 0 0 0-.355-.843 1.201 1.201 0 0 0-.523-.221c-3.217-.747-6.514-.065-9.709.351a25.371 25.371 0 0 1-4.968.257c-.718-.048-.996-.135-1.532.347s-.823 1.095-1.495 1.498zm77.24 5.533a6.797 6.797 0 0 1-1.794.76 201.656 201.656 0 0 0-4.95 1.63c-.439.118-.85.332-1.209.628-.572.545-.72 1.436-.762 2.272a3.06 3.06 0 0 0 .148 1.363c.197.408.487.755.842 1.01 1.886 1.54 4.348 2.017 6.714 2.017 2.366 0 4.715-.432 7.081-.5 2.859-.082 5.793.355 8.542-.509a6.832 6.832 0 0 1 1.625-.427c.37-.006.738.02 1.103.077a10.87 10.87 0 0 0 4.387-.431 2.627 2.627 0 0 0 1.162-.623c.339-.317.463-.826.311-1.282-.151-.368-.538-.636-.543-1.04.02-.194.067-.384.14-.564.172-.622-.106-1.272-.3-1.886-.543-1.754-.454-3.771-1.427-5.294-.972-1.522-2.757-2.15-4.454-2.39a11.458 11.458 0 0 0-4.147.127c-1.536.355-2.972 1.095-4.479 1.568a13.62 13.62 0 0 1-5.389.55c-1.204-.11-.791.095-1.2 1.186a3.8 3.8 0 0 1-1.401 1.759z"/><circle cx="344.5" cy="18.5" r="12.5" fill="#FBBEBE"/><path fill="#477DDE" d="M435 190.276c-3.795 3.25-8.919 4.672-13.916 4.723-2.108.02-4.297-.206-6.093-1.296-.127-.69-.178-1.434-.304-2.124-2.18-.454-3.871-2.225-4.925-4.185-1.055-1.96-1.59-4.138-2.375-6.216-1.197-3.163-2.951-6.077-4.706-8.97-1.61-2.667-3.226-5.342-5.06-7.862-1.215-1.682-2.53-3.263-3.732-4.942a43.688 43.688 0 0 1-7.19-15.587 20.34 20.34 0 0 0-.873-3.167c-.725-1.758-2.053-3.188-3.078-4.79a15.802 15.802 0 0 1-2.231-5.674c-.207-1.144-.56-2.38-1.712-2.498-2.42 4.69-4.887 9.455-8.548 13.27-.575.55-1.101 1.15-1.573 1.791a17.27 17.27 0 0 0-1.012 1.935 12.465 12.465 0 0 1-2.235 3.247 5.216 5.216 0 0 1-2.876 1.564 19.57 19.57 0 0 1-1.383 11.987c-.51 1.11-1.122 2.17-1.602 3.293-1.965 4.627-1.51 9.846-1.717 14.864a15.586 15.586 0 0 1-.37 3.125c-.511 2.052-1.565 4.235-1.055 6.288-5.288 2.014-11.162 1.888-16.762 1.038a8.091 8.091 0 0 1-3.125-.946 8.587 8.587 0 0 1-2.05-2.044 2.047 2.047 0 0 1-.468-.812c-.219-.959.844-1.682 1.337-2.523.494-.841.582-2.175-.097-2.864.338-5.506 1.864-10.881 2.201-16.403.135-2.187.08-4.383.182-6.574.101-2.191.337-4.324.582-6.477.556-4.917 1.906-9.737 1.716-14.679a8.52 8.52 0 0 1 1.016-4.37 22.04 22.04 0 0 1 2.067-2.893c2.589-3.335 5.7-6.68 6.624-10.797.477-2.124 1.531-4.067 2.577-5.976.62-1.14 1.265-2.305 2.252-3.142a9.857 9.857 0 0 0 1.488-1.262c.692-.887.717-2.103 1.126-3.163.211-.546.536-1.051.692-1.615a9.18 9.18 0 0 0 .19-1.892c.135-2.036.919-4.004 1.745-5.867a18.006 18.006 0 0 1-5.06-4.35c-.47-.568-.88-1.184-1.223-1.837-.868-1.708-1.067-3.655-1.476-5.527-.974-4.466-3.213-8.668-3.525-13.231-.093-1.393 0-2.831-.485-4.147a13.024 13.024 0 0 0-.784-1.62 6.614 6.614 0 0 1-.667-1.632c-.27-1.24.102-2.523 0-3.785-.1-1.114-.577-2.157-.814-3.247a15.379 15.379 0 0 1-.122-4.29c.106-1.682.472-3.42.33-5.08a19.598 19.598 0 0 1 5.291-15.116l.097-.097c.806-.841 1.687-1.586 2.412-2.477.987-1.195 1.687-2.6 2.729-3.76.455-.518.97-.98 1.42-1.502.415-.547.873-1.059 1.371-1.53a2.112 2.112 0 0 1 1.907-.51 5.26 5.26 0 0 0 .581 1.792c.878.067 1.658.19 2.53.256.405.02.807.082 1.198.186.823.248 1.48.84 2.185 1.35 1.754 1.232 3.909 1.804 5.633 3.074 2.53 1.872 3.796 4.963 5.322 7.735 2.02 3.713 5.314 6.872 6.747 10.842l1.978 5.4c1.295 3.525 2.59 7.062 4.344 10.385 2.441 4.627 5.747 8.795 7.708 13.636.196.485.56.885 1.025 1.127a87.907 87.907 0 0 1 7.097 11.776c1.084 2.17 2.108 4.425 2.42 6.826.46 3.394-.468 6.826-1.758 9.998a5.2 5.2 0 0 0-.422 1.43c-.084.803.224 1.594.308 2.397.082.75-.03 1.509-.325 2.204a10.08 10.08 0 0 0-.662 1.522c-.227.968.178 1.952.397 2.92.742 3.276.607 6.67.422 10.026-.097 1.682 1.265 3.016 2.399 4.248 2.108 2.309 3.753 5.01 5.343 7.705a24.869 24.869 0 0 1 2.176 4.324c.603 1.72.843 3.541 1.176 5.329 1.071 5.514 4.58 10.388 5.533 15.919a14.129 14.129 0 0 0 3.255 6.843c.51.525.979 1.088 1.405 1.682.291.472.523.978.691 1.506.415 1.228.61 2.52.578 3.815a5.684 5.684 0 0 0 .105 1.854c.397 1.283 1.814 1.99 2.396 3.197.582 1.207.18 2.755.421 4.126a4.44 4.44 0 0 0 1.666 2.793z"/><path fill="#FBBEBE" d="M307.395 75.1c-1.41.74-2.91 1.497-4.487 1.392-1.418-.093-2.712-.88-3.777-1.845-.86-.766-1.745-1.722-2.875-1.642-.757.052-1.393.576-1.977 1.074l-3.116 2.673c-.524.36-.92.886-1.13 1.497-.062.414-.037.837.073 1.241.142.713.378 1.546 1.049 1.788.67.242 1.4-.278 2.11-.476a2.446 2.446 0 0 1 2.436.736 1.5 1.5 0 0 1 .43.96c0 .796-.86 1.32-1.65 1.36-.79.04-1.547-.225-2.33-.176a.35.35 0 0 0-.266.076.368.368 0 0 0-.133.25c-.099.565.09 1.143.503 1.532.408.382.883.68 1.4.88.602.305 1.25.499 1.917.573 1.32.088 2.532-.66 3.782-1.096 1.685-.582 3.498-.6 5.277-.595 1.78.005 3.585.03 5.29-.48 1.707-.51 3.327-1.642 3.993-3.328a.819.819 0 0 0 .073-.511.84.84 0 0 0-.361-.44c-2.398-1.819-3.37-4.03-6.068-5.337l-.163-.106z"/><path fill="#3F3D56" d="M339.809 12.139c-.698.12-1.292.621-1.954.9a3.188 3.188 0 0 1-2.76-.154 2.162 2.162 0 0 1-.755-.652c-.54-.798-.351-1.955-.02-2.89 1.566-4.421 5.747-7.157 9.888-7.333 4.14-.175 8.169 1.879 11.434 4.816a16.214 16.214 0 0 1 2.595 2.886c1.703 2.508 2.474 5.711 2.7 8.884a12.28 12.28 0 0 1-.246 3.98c-.29 1.277-1.056 2.375-2.123 3.04-1.154.626-2.539.428-3.705-.172s-2.167-1.548-3.168-2.453a4.68 4.68 0 0 0-1.578-1.067 1.549 1.549 0 0 0-1.708.429c-.54.69-.403 1.822-.896 2.572-.492.75-1.517.858-2.38.858-.864 0-1.74-.077-2.257-.806-.472-.66-.403-1.625-.226-2.457.178-.832.48-1.655.404-2.509-.166-1.715-1.578-2.77-2.018-4.348-.287-1.033.343-1.47.278-2.405-.048-.824-.88-1.227-1.505-1.12z"/><path fill="#000" d="M377 127.9v.106c-2.506 4.739-5.06 9.554-8.85 13.409a14.023 14.023 0 0 0-1.628 1.81c-.391.63-.74 1.283-1.047 1.956a12.591 12.591 0 0 1-2.314 3.28L360 150l10.041-51L377 127.9zm-13.09-77.73a17.618 17.618 0 0 1-2.702 2.39c-2.732 2.091-5.381 4.065-8.035 6.272A243.545 243.545 0 0 1 346.667 64a6.623 6.623 0 0 1-.654-1.622c-.265-1.234.099-2.509 0-3.763-.1-1.108-.567-2.145-.8-3.228a15.48 15.48 0 0 1-.12-4.265c.104-1.672.464-3.399.324-5.05a19.632 19.632 0 0 1 5.22-15.056l.094-.096a7.233 7.233 0 0 1 1.408-.636 4.95 4.95 0 0 1 4.379.535 30.008 30.008 0 0 1 5.96 5.904 23.74 23.74 0 0 1 2.509 3.433 9.163 9.163 0 0 1-1.076 10.013z" opacity=".1"/><path fill="#477DDE" d="M355.456 28.802a5.034 5.034 0 0 0-4.41-.512 9.523 9.523 0 0 0-3.798 2.527 17.446 17.446 0 0 0-2.68 3.535c-.71 1.249-1.251 2.556-1.96 3.8-1.25 2.228-2.885 4.193-4.527 6.141-1.022 1.212-2.056 2.44-3.365 3.33-1.309.892-2.772 1.437-3.66 2.674-.28.39-.48.832-.755 1.228-.87 1.274-2.35 1.956-3.639 2.81-3.694 2.456-5.99 6.544-9.443 9.33-1.488 1.198-3.168 2.14-4.631 3.363-1.363 1.137-2.501 2.498-3.86 3.664-1.36 1.165-2.956 2.127-4.728 2.235 1.184 2.636 2.597 5.22 4.627 7.273s5.074 3.364 7.846 2.56c.984-.282 1.947-.882 2.322-1.831.118-.488.283-.963.492-1.42.279-.366.64-.661 1.055-.862a249.22 249.22 0 0 0 31.73-21.952c2.68-2.181 5.34-4.134 8.091-6.244a17.681 17.681 0 0 0 2.722-2.382 9.04 9.04 0 0 0 1.1-9.97 23.653 23.653 0 0 0-2.525-3.418 30.059 30.059 0 0 0-6.004-5.879z"/><path d="M346.323 23.724c-.806 0-1.737-.077-2.252-.812-.468-.664-.403-1.636-.226-2.474.177-.838.48-1.667.403-2.526-.165-1.727-1.576-2.79-2.015-4.379-.286-1.04.343-1.48.278-2.422-.056-.816-.882-1.222-1.507-1.114-.697.12-1.29.626-1.95.907a3.16 3.16 0 0 1-2.757-.156 2.164 2.164 0 0 1-.754-.656c-.54-.803-.35-1.97-.02-2.91 0-.035.028-.065.04-.1-.336.578-.62 1.19-.846 1.827-.33.941-.52 2.107.02 2.91.201.278.459.503.754.656.856.473 1.86.53 2.756.156.661-.28 1.254-.786 1.95-.907.626-.108 1.452.298 1.508 1.114.065.942-.564 1.382-.278 2.423.431 1.589 1.842 2.668 2.015 4.378.08.864-.214 1.693-.403 2.526-.19.834-.242 1.81.226 2.475.515.734 1.438.803 2.252.812.814.008 1.862-.052 2.378-.864.223-.408.369-.858.431-1.326-.548.42-1.314.471-2.003.462zm13.416-.155c-1.153.63-2.535.432-3.7-.173-1.164-.604-2.164-1.559-3.163-2.47a4.672 4.672 0 0 0-1.576-1.075 1.538 1.538 0 0 0-1.704.432 3.42 3.42 0 0 0-.504 1.45 1.605 1.605 0 0 1 1.402-.16 4.672 4.672 0 0 1 1.576 1.076c1 .911 2.015 1.87 3.163 2.47 1.149.6 2.547.803 3.7.173 1.019-.64 1.762-1.684 2.067-2.906a3.82 3.82 0 0 1-1.261 1.183z" fill="#000" opacity=".1"/><circle cx="255" cy="192" r="13" fill="#3F3D56"/><circle cx="255" cy="192" r="13" fill="#000" opacity=".1"/><circle cx="255" cy="192" r="8" fill="#65617D"/><circle cx="255" cy="192" r="8" fill="#000" opacity=".1"/><path fill="#3F3D56" d="M246 171.265l8.266 18.772c.25.574.811.95 1.436.963.625.012 1.2-.34 1.474-.904L267 170l-21 1.265z"/><path fill="#000" d="M246 171.265l8.266 18.772c.25.574.811.95 1.436.963.625.012 1.2-.34 1.474-.904L267 170l-21 1.265z" opacity=".1"/><circle cx="176" cy="192" r="13" fill="#3F3D56"/><circle cx="176" cy="192" r="13" fill="#000" opacity=".1"/><circle cx="176" cy="192" r="8" fill="#65617D"/><circle cx="176" cy="192" r="8" fill="#000" opacity=".1"/><path fill="#3F3D56" d="M167 171.265l8.266 18.772c.25.574.811.95 1.436.963.625.012 1.2-.34 1.474-.904L188 170l-21 1.265z"/><path fill="#000" d="M167 171.265l8.266 18.772c.25.574.811.95 1.436.963.625.012 1.2-.34 1.474-.904L188 170l-21 1.265z" opacity=".1"/><path fill="#3F3D56" d="M296.97 82.646c-.076-.641-.501-1.203-1.128-1.49a2.274 2.274 0 0 0-1.644-.004 2.021 2.021 0 0 0-1.144 1.086l-7.79 17.796L283 180h3.621l1.358-79.795 8.8-16.351c.2-.374.267-.797.19-1.208z"/><path fill="#477DDE" d="M146 173l11.43-6.974L280.824 165l3.175 8z"/><path fill="#3F3D56" d="M146 181v-6.792L286 173l-.135 4.604h-137.33V181z"/><circle cx="164" cy="196" r="13" fill="#3F3D56"/><circle cx="164" cy="195" r="8" fill="#65617D"/><path fill="#3F3D56" d="M154 176.265l8.266 18.772c.25.574.811.95 1.436.963.625.012 1.2-.34 1.474-.904L175 175l-21 1.265z"/><circle cx="262" cy="196" r="13" fill="#3F3D56"/><circle cx="262" cy="195" r="8" fill="#65617D"/><path fill="#3F3D56" d="M253 176.265l8.266 18.772c.25.574.811.95 1.436.963.625.012 1.2-.34 1.474-.904L274 175l-21 1.265z"/><path fill="#65617D" d="M162 140h52v28h-52z"/><path fill="#000" d="M180 147h16v3h-16z" opacity=".1"/><path fill="#000" d="M184 147h11v2h-11z" opacity=".1"/><path fill="#65617D" d="M216 140h52v28h-52z"/><path fill="#000" d="M233 147h16v3h-16z" opacity=".1"/><path fill="#000" d="M237 147h11v2h-11z" opacity=".1"/><path fill="#65617D" d="M162 111h52v28h-52z"/><path fill="#000" d="M180 115h16v3h-16z" opacity=".1"/><path fill="#000" d="M184 115h11v2h-11z" opacity=".1"/><path fill="#65617D" d="M216 111h52v28h-52z"/><path fill="#000" d="M233 115h16v3h-16z" opacity=".1"/><path fill="#000" d="M237 115h11v2h-11z" opacity=".1"/><path fill="#65617D" d="M162 81h52v28h-52z"/><path fill="#000" d="M180 85h16v3h-16z" opacity=".1"/><path fill="#000" d="M184 86h11v2h-11z" opacity=".1"/><path fill="#65617D" d="M216 81h52v28h-52z"/><path fill="#000" d="M233 85h16v3h-16z" opacity=".1"/><path fill="#000" d="M237 86h11v2h-11z" opacity=".1"/><path fill="#65617D" d="M216 51h52v28h-52z"/><path fill="#000" d="M233 55h16v3h-16z" opacity=".1"/><path fill="#000" d="M237 57h11v2h-11z" opacity=".1"/></g></svg>