<?xml version="1.0" encoding="UTF-8"?>
<svg width="791px" height="571px" viewBox="0 0 791 571" version="1.1" xmlns="http://www.w3.org/2000/svg" xmlns:xlink="http://www.w3.org/1999/xlink">
    <!-- Generator: Sketch 51.2 (57519) - http://www.bohemiancoding.com/sketch -->
    <title>upkeep-demo-illustration</title>
    <desc>Created with Sketch.</desc>
    <defs>
        <linearGradient x1="50%" y1="100%" x2="50%" y2="0%" id="linearGradient-1">
            <stop stop-color="#808080" stop-opacity="0.25" offset="0%"></stop>
            <stop stop-color="#808080" stop-opacity="0.12" offset="54%"></stop>
            <stop stop-color="#808080" stop-opacity="0.1" offset="100%"></stop>
        </linearGradient>
        <linearGradient x1="49.9975244%" y1="100%" x2="49.9975244%" y2="2.29022638e-14%" id="linearGradient-2">
            <stop stop-color="#808080" stop-opacity="0.25" offset="0%"></stop>
            <stop stop-color="#808080" stop-opacity="0.12" offset="54%"></stop>
            <stop stop-color="#808080" stop-opacity="0.1" offset="100%"></stop>
        </linearGradient>
    </defs>
    <g id="Split-Landing-Page" stroke="none" stroke-width="1" fill="none" fill-rule="evenodd">
        <g id="Artboard-2" transform="translate(-105.000000, -159.000000)">
            <g id="upkeep-demo-illustration" transform="translate(105.000000, 159.000000)">
                <g id="Group-2">
                    <path d="M21.2847635,366.932526 C11.7935721,368.474994 -0.10996373,372.888828 0.000766836391,383.148223 C0.0561321195,388.353067 3.51250765,392.790631 6.87397127,396.595387 C21.1615469,412.877246 37.4616139,427.275756 55.3818686,439.44438 C63.9397595,445.242481 73.1383058,450.787458 78.8251113,459.749598 C84.5119169,468.711737 85.9435049,480.118096 86.3943365,490.970748 C87.5032979,516.665681 89.0497798,524.266409 82,549 C74.9502202,573.733591 136.365459,577.064238 159.587241,560.302744 C173.491836,550.264832 182.896025,533.447967 198.390395,526.487082 C208.735794,521.835945 220.449506,522.24727 231.728205,522.840527 C285.116156,525.651248 338.372286,530.924646 391.496593,538.66072 C413.745528,541.90386 436.421566,545.574144 458.43322,541.381793 C480.444875,537.189442 502.10061,523.512885 510.215579,501.340885 C511.465252,497.923723 512.588377,494.111057 515.388278,492.054432 C517.919262,490.219289 521.23327,490.25884 524.309998,490.369581 L710.242437,496.760939 C720.429649,497.108983 730.972781,497.393747 740.297877,493.201396 C749.338237,489.143516 756.290534,481.336251 762.981824,473.687188 C778.28637,456.237515 794.745678,434.769513 790.245271,411.086684 C786.646528,392.102453 770.558959,378.837221 754.605848,369.550767 C738.652737,360.264314 721.054486,352.662712 709.332865,337.81546 C691.497334,315.216315 692.201264,282.87193 691.093959,253.549203 C690.084855,226.997484 686.817046,200.579905 681.325941,174.58271 C676.493343,151.730441 669.762506,128.846532 657.178768,109.545896 C644.59503,90.2452609 625.35164,74.7889324 603.585174,71.9571178 C575.159056,68.2551927 546.58266,85.989629 518.77347,78.4592171 C495.282771,72.1311399 479.116108,49.6427356 459.651257,34.0598456 C425.079592,6.37450791 379.711697,0.576407197 336.819421,0.0464307325 C291.340796,-0.53100631 244.659953,4.07266984 204.124656,25.4299303 C194.839107,30.31837 185.759201,36.2351221 179.328919,44.8729475 C169.473898,58.1223591 167.085282,75.9200761 160.639181,91.4080451 C134.657045,153.771246 50.153804,167.21841 22.7242609,228.917162 C12.9878804,250.804399 13.0827923,276.330281 20.1774579,299.317021 C27.8099576,324.051893 49.2916875,337.712629 57.8100317,359.275552 C48.6431227,365.176484 32.3973668,365.121113 21.2847635,366.932526 Z" id="Shape" fill="#232E52" fill-rule="nonzero" opacity="0.1"></path>
                    <g id="Group" opacity="0.2" transform="translate(681.000000, 117.000000)">
                        <path d="M18.6588462,176.936502 C18.6588462,176.936502 22.4619231,126.320852 51.0166923,98.8183857 C63.0672582,87.3605173 71.0824725,72.2957646 73.8589231,55.8859641 C75.1051965,48.0851437 75.6356173,40.186364 75.4435385,32.2886099" id="Shape" stroke="#535461" stroke-width="2"></path>
                        <path d="M93.3655385,14.8505381 C91.258,20.4065919 75.0632308,32.7965919 75.0632308,32.7965919 C75.0632308,32.7965919 71.1016923,12.786861 73.1933846,7.20699552 C75.3003297,1.62447402 81.5258102,-1.18998852 87.0983846,0.920717489 C92.670959,3.0314235 95.4804066,9.26801662 93.3734615,14.8505381 L93.3655385,14.8505381 Z" id="Shape" fill="#232E52" fill-rule="nonzero"></path>
                        <path d="M98.3729231,52.0840359 C93.5794615,55.6240359 73.2726154,57.1797309 73.2726154,57.1797309 C73.2726154,57.1797309 80.7916154,38.217713 85.5850769,34.677713 C88.6874614,32.3893066 92.7728578,31.9327887 96.3023368,33.4801252 C99.8318158,35.0274617 102.269166,38.3435753 102.69626,42.1793182 C103.123354,46.015061 101.475308,49.7876924 98.3729231,52.0760987 L98.3729231,52.0840359 Z" id="Shape" fill="#232E52" fill-rule="nonzero"></path>
                        <path d="M77.7016154,104.644305 C71.7751538,105.271345 53.4649231,96.3499103 53.4649231,96.3499103 C53.4649231,96.3499103 69.5091538,83.7852915 75.4276923,83.1503139 C81.3525181,82.5212665 86.6645735,86.8229167 87.2925,92.7583184 C87.9204265,98.6937201 83.6264412,104.015258 77.7016154,104.644305 Z" id="Shape" fill="#232E52" fill-rule="nonzero"></path>
                        <path d="M53.1242308,140.88565 C47.3879231,142.473094 27.8337692,136.813857 27.8337692,136.813857 C27.8337692,136.813857 41.5248462,121.733139 47.2611538,120.090135 C50.9692959,119.040927 54.9545086,120.053221 57.7156009,122.745695 C60.4766931,125.438169 61.5941893,129.401772 60.6471394,133.143453 C59.7000895,136.885134 56.8323729,139.836443 53.1242308,140.88565 Z" id="Shape" fill="#232E52" fill-rule="nonzero"></path>
                        <path d="M51.6822308,50.2426009 C54.2096923,55.6478475 71.3076923,66.7282063 71.3076923,66.7282063 C71.3076923,66.7282063 73.7400769,46.4724215 71.2126154,41.0671749 C69.5765039,37.5721802 66.2034394,35.2170851 62.3640226,34.8890311 C58.5246058,34.5609771 54.8021355,36.3098034 52.5988303,39.4767441 C50.395525,42.6436848 50.0461193,46.7476062 51.6822308,50.2426009 Z" id="Shape" fill="#232E52" fill-rule="nonzero"></path>
                        <path d="M23.4681538,92.9924664 C27.4930769,97.3896861 47.1185385,102.842556 47.1185385,102.842556 C47.1185385,102.842556 43.3867692,82.7852018 39.3618462,78.3879821 C35.3361152,73.989034 28.5129175,73.6923072 24.1218077,77.7252242 C19.7306979,81.7581412 19.4344998,88.5935183 23.4602308,92.9924664 L23.4681538,92.9924664 Z" id="Shape" fill="#232E52" fill-rule="nonzero"></path>
                        <path d="M1.74307692,138.306054 C4.96776923,143.322377 23.3968462,152.013632 23.3968462,152.013632 C23.3968462,152.013632 23.1036923,131.614978 19.879,126.614529 C16.6518514,121.597493 9.97586622,120.151172 4.96776953,123.384081 C-0.0403271546,126.61699 -1.48407119,133.304892 1.74307692,138.321928 L1.74307692,138.306054 Z" id="Shape" fill="#232E52" fill-rule="nonzero"></path>
                    </g>
                    <polygon id="Shape" fill="url(#linearGradient-1)" fill-rule="nonzero" points="129 69 129 97.4795011 129 434 715 434 715 97.4795011 715 69"></polygon>
                    <rect id="Rectangle-path" fill="#F6F7F9" fill-rule="nonzero" x="135" y="73" width="574" height="28"></rect>
                    <g id="Group" opacity="0.2" transform="translate(134.000000, 73.000000)" fill="#232E52" fill-rule="nonzero">
                        <rect id="Rectangle-path" x="0.768528198" y="0.544444444" width="574.53425" height="27.3855556"></rect>
                    </g>
                    <rect id="Rectangle-path" fill="#F6F7F9" fill-rule="nonzero" x="135" y="101" width="574" height="329"></rect>
                    <circle id="Oval" fill="#F6F7F9" fill-rule="nonzero" cx="149" cy="87" r="6"></circle>
                    <circle id="Oval" fill="#F6F7F9" fill-rule="nonzero" cx="165" cy="87" r="6"></circle>
                    <circle id="Oval" fill="#F6F7F9" fill-rule="nonzero" cx="182" cy="87" r="6"></circle>
                    <g id="Group" opacity="0.2" transform="translate(155.000000, 142.000000)" fill="#232E52" fill-rule="nonzero">
                        <rect id="Rectangle-path" x="0.142459893" y="0.533928571" width="295.216471" height="22.1375"></rect>
                    </g>
                    <g id="Group" opacity="0.2" transform="translate(525.000000, 142.000000)" fill="#232E52" fill-rule="nonzero">
                        <rect id="Rectangle-path" x="0.657258883" y="0.533928571" width="154.915127" height="22.1375"></rect>
                    </g>
                    <g id="Group" opacity="0.2" transform="translate(193.000000, 238.000000)" fill="#232E52" fill-rule="nonzero">
                        <rect id="Rectangle-path" x="0" y="97.5545024" width="20.5648746" height="67.7217062"></rect>
                        <rect id="Rectangle-path-Copy" x="198.709677" y="97.5545024" width="20.5648746" height="67.7217062"></rect>
                        <rect id="Rectangle-path" x="39.5921147" y="49.3043602" width="20.5648746" height="116.28654"></rect>
                        <rect id="Rectangle-path" x="79.3577061" y="0.739526066" width="20.5648746" height="164.851374"></rect>
                        <rect id="Rectangle-path" x="119.123297" y="16.4741232" width="20.5648746" height="149.124645"></rect>
                        <rect id="Rectangle-path" x="158.888889" y="62.9855924" width="20.5648746" height="102.605308"></rect>
                    </g>
                    <g id="Group" opacity="0.2" transform="translate(525.000000, 210.000000)" fill="#232E52" fill-rule="nonzero">
                        <rect id="Rectangle-path" x="0.316751269" y="0.576157025" width="154.915127" height="189.745083"></rect>
                    </g>
                    <rect id="Rectangle-path" fill="url(#linearGradient-2)" fill-rule="nonzero" x="552" y="270" width="160" height="196"></rect>
                    <rect id="Rectangle-path" fill="#384367" fill-rule="nonzero" x="554" y="273" width="155" height="190"></rect>
                    <rect id="Rectangle-path" fill="#E8EAF1" fill-rule="nonzero" x="565" y="289" width="32" height="32"></rect>
                    <rect id="Rectangle-path" fill="#E8EAF1" fill-rule="nonzero" x="581" y="340" width="113" height="6"></rect>
                    <rect id="Rectangle-path" fill="#E8EAF1" fill-rule="nonzero" x="581" y="354" width="113" height="6"></rect>
                    <rect id="Rectangle-path" fill="#E8EAF1" fill-rule="nonzero" x="581" y="367" width="113" height="6"></rect>
                    <rect id="Rectangle-path" fill="#E8EAF1" fill-rule="nonzero" x="581" y="380" width="113" height="6"></rect>
                    <rect id="Rectangle-path" fill="#E8EAF1" fill-rule="nonzero" x="581" y="394" width="113" height="6"></rect>
                    <rect id="Rectangle-path" fill="#E8EAF1" fill-rule="nonzero" x="581" y="407" width="113" height="6"></rect>
                    <rect id="Rectangle-path" fill="#E8EAF1" fill-rule="nonzero" x="581" y="421" width="113" height="6"></rect>
                </g>
            </g>
        </g>
    </g>
</svg>