<?xml version="1.0" encoding="utf-8"?>
<!-- Generator: Adobe Illustrator 20.1.0, SVG Export Plug-In . SVG Version: 6.00 Build 0)  -->
<svg version="1.1" id="Layer_1" xmlns="http://www.w3.org/2000/svg" xmlns:xlink="http://www.w3.org/1999/xlink" x="0px" y="0px"
	 width="223.4px" height="46px" viewBox="0 0 223.4 46" style="enable-background:new 0 0 223.4 46;" xml:space="preserve">
<style type="text/css">
	.st0{fill:#00956E;}
</style>
<path id="XMLID_29_" class="st0" d="M220.7,14c1.5,0,2.7,1.2,2.7,2.7c0,1.6-1.2,2.7-2.7,2.7c-1.5,0-2.7-1.2-2.7-2.7
	C217.9,15.1,219.2,14,220.7,14 M220.7,19c1.3,0,2.2-1,2.2-2.3c0-1.3-1-2.3-2.2-2.3c-1.3,0-2.2,1-2.2,2.3C218.4,18,219.4,19,220.7,19
	z M219.6,15.1h1.2c0.8,0,1.1,0.3,1.1,0.9c0,0.6-0.4,0.8-0.8,0.9l0.9,1.4h-0.5l-0.9-1.4h-0.5v1.4h-0.5V15.1z M220.1,16.5h0.5
	c0.4,0,0.8,0,0.8-0.5c0-0.4-0.4-0.5-0.7-0.5h-0.7V16.5z"/>
<path id="XMLID_28_" class="st0" d="M61.1,28.6c1.5,0.8,3.7,1.5,6.1,1.5c1.9,0,3.7-0.4,3.7-2.2c0-4.1-10.5-1.5-10.5-9.6
	c0-5.4,5.2-6.8,9.7-6.8c2.1,0,4.2,0.3,5.7,0.8l-0.4,4.6c-1.5-0.7-3.3-1-4.9-1c-1.5,0-4,0.1-4,2.1c0,3.6,10.5,1.2,10.5,9.2
	c0,5.8-4.9,7.3-9.8,7.3c-2.1,0-4.7-0.3-6.6-1L61.1,28.6"/>
<path id="XMLID_27_" class="st0" d="M78.7,17.4h3.4v-3.7l5.6-1.8v5.5h4v4h-4v6.1c0,2,0.5,3,2.3,3c0.6,0,1.2-0.1,1.8-0.2l0.2,3.7
	c-1.1,0.1-2.2,0.3-3.6,0.3c-5.1,0-6.4-2.3-6.4-6.2v-6.8h-3.3V17.4"/>
<path id="XMLID_24_" class="st0" d="M99.4,27.4c0.3,2.3,2.1,3.2,4.9,3.2c1.6,0,3.4-0.3,5.1-1.3v4.1c-1.8,0.7-4,1.1-6.1,1.1
	c-5.5,0-9.7-3.2-9.7-8.7c0-5.5,3.7-8.7,8.9-8.7c6.2,0,8.4,4.4,8.4,9.3v1.1H99.4 M105.7,24.2c0-1.9-0.9-3.5-3.2-3.5
	c-2.1,0-3.1,1.6-3.2,3.5H105.7z"/>
<path id="XMLID_23_" class="st0" d="M126,22c-0.6-0.2-1.3-0.2-1.9-0.2c-2.7,0-4.2,1.9-4.2,5.2v7h-5.7V17.4h5.2v3.1h0.1
	c1-2.1,2.4-3.4,4.9-3.4c0.7,0,1.4,0.1,1.9,0.2L126,22"/>
<path id="XMLID_20_" class="st0" d="M134.8,14.7H129v-4.2h5.7V14.7 M129,17.4h5.7v16.6H129V17.4z"/>
<path id="XMLID_19_" class="st0" d="M151.5,22.2c-1.1-0.6-2.1-0.9-3.5-0.9c-2.5,0-4.4,1.7-4.4,4.6c0,2.6,2.2,4.4,4.7,4.4
	c1.3,0,2.6-0.3,3.6-0.8l0.1,4.3c-1.4,0.5-3.2,0.7-4.7,0.7c-5.5,0-9.7-3.2-9.7-8.7c0-5.5,4.2-8.7,9.7-8.7c1.7,0,3.3,0.3,4.6,0.9
	L151.5,22.2"/>
<path id="XMLID_18_" class="st0" d="M154.9,36.4c0.8,0.3,1.5,0.3,2.3,0.3c1.4,0,2.5-0.8,2.9-2.3l-6.7-17h6.2l3.6,10.9h0.1l3.4-10.9
	h5.7l-6.1,15.5c-1.6,4.2-2.9,8.2-8.1,8.2c-1.2,0-2.4-0.1-3.6-0.4L154.9,36.4"/>
<path id="XMLID_17_" class="st0" d="M186.6,22.2c-1.1-0.6-2.1-0.9-3.5-0.9c-2.5,0-4.4,1.7-4.4,4.6c0,2.6,2.2,4.4,4.7,4.4
	c1.3,0,2.6-0.3,3.6-0.8l0.1,4.3c-1.4,0.5-3.2,0.7-4.7,0.7c-5.5,0-9.7-3.2-9.7-8.7c0-5.5,4.2-8.7,9.7-8.7c1.7,0,3.3,0.3,4.6,0.9
	L186.6,22.2"/>
<rect id="XMLID_16_" x="190.2" y="10.1" class="st0" width="5.7" height="23.9"/>
<path id="XMLID_13_" class="st0" d="M204.7,27.4c0.3,2.3,2.1,3.2,4.9,3.2c1.6,0,3.4-0.3,5.1-1.3v4.1c-1.8,0.7-4,1.1-6.1,1.1
	c-5.5,0-9.7-3.2-9.7-8.7c0-5.5,3.7-8.7,8.9-8.7c6.2,0,8.4,4.4,8.4,9.3v1.1H204.7 M211,24.2c0-1.9-0.9-3.5-3.2-3.5
	c-2.1,0-3.1,1.6-3.2,3.5H211z"/>
<path id="XMLID_12_" class="st0" d="M46.1,23c0,3.8-3.1,7-7,7c-3.8,0-7-3.1-7-7c0-3.8,3.1-7,7-7C43,16,46.1,19.1,46.1,23"/>
<path id="XMLID_11_" class="st0" d="M13.9,23c0,3.8-3.1,7-7,7c-3.8,0-7-3.1-7-7c0-3.8,3.1-7,7-7C10.8,16,13.9,19.1,13.9,23"/>
<path id="XMLID_10_" class="st0" d="M20.2,11.6c0,2.6-2.1,4.7-4.7,4.7s-4.7-2.1-4.7-4.7c0-2.6,2.1-4.7,4.7-4.7S20.2,9,20.2,11.6"/>
<path id="XMLID_9_" class="st0" d="M35.7,11.6c0,2.6-2.1,4.7-4.7,4.7c-2.6,0-4.7-2.1-4.7-4.7c0-2.6,2.1-4.7,4.7-4.7
	C33.5,6.9,35.7,9,35.7,11.6"/>
<path id="XMLID_8_" class="st0" d="M20.2,34.6c0,2.6-2.1,4.7-4.7,4.7s-4.7-2.1-4.7-4.7c0-2.6,2.1-4.7,4.7-4.7S20.2,31.9,20.2,34.6"
	/>
<path id="XMLID_7_" class="st0" d="M28,23c0,2.7-2.2,4.9-4.9,4.9c-2.7,0-4.9-2.2-4.9-4.9c0-2.7,2.2-4.9,4.9-4.9
	C25.8,18.1,28,20.3,28,23"/>
<path id="XMLID_6_" class="st0" d="M26.1,2.9c0,1.6-1.3,2.9-2.9,2.9c-1.6,0-2.9-1.3-2.9-2.9c0-1.6,1.3-2.9,2.9-2.9
	C24.8,0,26.1,1.3,26.1,2.9"/>
<path id="XMLID_5_" class="st0" d="M26.1,43.1c0,1.6-1.3,2.9-2.9,2.9c-1.6,0-2.9-1.3-2.9-2.9c0-1.6,1.3-2.9,2.9-2.9
	C24.8,40.2,26.1,41.5,26.1,43.1"/>
<path id="XMLID_4_" class="st0" d="M35.7,34.6c0,2.6-2.1,4.7-4.7,4.7c-2.6,0-4.7-2.1-4.7-4.7c0-2.6,2.1-4.7,4.7-4.7
	C33.5,29.8,35.7,31.9,35.7,34.6"/>
</svg>
