<svg xmlns="http://www.w3.org/2000/svg" width="171" height="24" viewBox="0 0 171 24">
  <g fill="none" fill-rule="evenodd">
    <path fill="#099600" d="M72.1934 11.938C71.3734 11.938 70.9134 12.498 70.7934 13.538L73.7944 13.538C73.6134 12.478 73.2534 11.938 72.1934 11.938zM76.9544 15.779L70.7934 15.779C70.9134 16.939 71.5924 17.459 72.5734 17.459 73.4934 17.459 74.2544 17.259 75.2944 16.719L76.6734 19.02C75.3744 19.779 74.0334 20.22 72.3934 20.22 69.2324 20.22 67.4924 17.979 67.4924 14.758 67.4924 11.138 69.5324 9.277 72.2934 9.277 75.1734 9.277 76.9744 11.178 76.9744 15.078 76.9744 15.379 76.9744 15.599 76.9544 15.779zM83.6533 20.2197C80.5733 20.2197 78.7323 18.2597 78.7323 14.7187 78.7323 11.4977 80.3733 9.2777 83.7333 9.2777 85.7143 9.2777 86.8543 10.1977 87.7743 11.6777L85.2943 13.5577C84.7943 12.6377 84.4533 12.1977 83.6743 12.1977 82.7533 12.1977 82.2933 13.1177 82.2933 14.7787 82.2933 16.4397 82.7933 17.2987 83.7733 17.2987 84.4533 17.2987 84.9333 16.9187 85.5933 15.9387L87.8743 17.7187C86.6543 19.5197 85.5133 20.2197 83.6533 20.2197M95.9336 20L95.9336 14.038C95.9336 12.678 95.4736 12.318 94.7336 12.318 93.9726 12.318 93.5126 12.678 93.5126 13.998L93.5126 20 89.9126 20 89.9126 6.857 93.5126 5.417 93.5126 10.197C94.1726 9.697 94.9126 9.277 96.1536 9.277 98.4546 9.277 99.5546 10.817 99.5546 13.578L99.5546 20 95.9336 20z"/>
    <path fill="#000" d="M108.1738 20.2197C104.0128 20.2197 101.7918 17.1387 101.7918 12.9977 101.7918 8.4967 104.4328 5.7767 108.1938 5.7767 111.6348 5.7767 112.9948 7.2567 113.9548 9.8977L110.4348 11.2777C109.9338 9.9777 109.4538 9.1567 108.1738 9.1567 106.5538 9.1567 105.8538 10.7777 105.8538 12.9977 105.8538 15.1387 106.5328 16.8387 108.2138 16.8387 109.4338 16.8387 109.9538 16.1787 110.7138 14.8587L113.9948 16.5987C113.0548 18.4397 111.4938 20.2197 108.1738 20.2197M122.8525 13.458C122.3925 12.958 121.8735 12.578 121.1725 12.578 120.2915 12.578 119.7515 12.998 119.7515 14.278L119.7515 20 116.1515 20 116.1515 9.497 119.7515 9.497 119.7515 10.257C120.3725 9.657 121.0725 9.277 121.9935 9.277 122.7525 9.277 123.2735 9.457 123.6935 9.717L122.8525 13.458zM131.4131 20L131.4131 19.299C130.7721 19.799 130.0131 20.22 128.7931 20.22 126.4921 20.22 125.3921 18.68 125.3921 15.918L125.3921 9.497 129.0131 9.497 129.0131 15.459C129.0131 16.818 129.4731 17.179 130.2131 17.179 130.9531 17.179 131.4131 16.818 131.4131 15.498L131.4131 9.497 135.0341 9.497 135.0341 20 131.4131 20zM143.6533 20L143.6533 14.038C143.6533 12.678 143.1933 12.318 142.4533 12.318 141.6923 12.318 141.2323 12.678 141.2323 13.998L141.2323 20 137.6323 20 137.6323 9.497 141.2323 9.497 141.2323 10.197C141.8923 9.697 142.6323 9.277 143.8733 9.277 146.1743 9.277 147.2743 10.817 147.2743 13.578L147.2743 20 143.6533 20zM154.292 20.2197C151.212 20.2197 149.371 18.2597 149.371 14.7187 149.371 11.4977 151.012 9.2777 154.372 9.2777 156.353 9.2777 157.493 10.1977 158.413 11.6777L155.933 13.5577C155.433 12.6377 155.092 12.1977 154.313 12.1977 153.392 12.1977 152.932 13.1177 152.932 14.7787 152.932 16.4397 153.432 17.2987 154.412 17.2987 155.092 17.2987 155.572 16.9187 156.232 15.9387L158.513 17.7187C157.293 19.5197 156.152 20.2197 154.292 20.2197M166.5723 20L166.5723 14.038C166.5723 12.678 166.1123 12.318 165.3723 12.318 164.6113 12.318 164.1513 12.678 164.1513 13.998L164.1513 20 160.5513 20 160.5513 6.857 164.1513 5.417 164.1513 10.197C164.8113 9.697 165.5513 9.277 166.7923 9.277 169.0933 9.277 170.1933 10.817 170.1933 13.578L170.1933 20 166.5723 20z"/>
    <polygon fill="#099600" points="0 0 0 8 8 8 8 24 16 24 16 8 24 8 24 0"/>
    <polygon fill="#099600" points="32 16 32 8 24 8 24 24 48 24 48 16"/>
    <polygon fill="#099600" points="32 8 48 8 48 0 32 0"/>
    <polygon fill="#099600" points="63.974 9.377 63.974 20 60.093 20 60.093 9.377 56.172 9.377 56.172 5.996 67.895 5.996 67.895 9.377"/>
  </g>
</svg>
