<svg class="desktop-logo" version="1.1" id="_x31_" xmlns="http://www.w3.org/2000/svg" xmlns:xlink="http://www.w3.org/1999/xlink" x="0px" y="0px" width="636.2px" height="125px" viewBox="0 0 636.2 125" style="enable-background:new 0 0 636.2 125;" xml:space="preserve">
         <style type="text/css">
          .st0{fill:#545454;}
          .st1{fill:#be1e2d;}
          .st2{fill:#FFFFFF;}
          .st4{fill:#be1e2d;}
         </style>
         <g>
          <path class="st0" d="M111.3,8.5h13.2l43.5,56.2V8.5h14v81.2h-12L125.4,32v57.8h-14V8.5z M192.2,59.5v-0.2c0-17.5,13.9-32,32.7-32
            s32.6,14.3,32.6,31.8v0.2c0,17.4-13.9,31.9-32.8,31.9C206,91.1,192.2,76.9,192.2,59.5z M243.5,59.5v-0.2c0-10.8-7.8-19.7-18.8-19.7
            c-11.3,0-18.5,8.8-18.5,19.5v0.2c0,10.7,7.8,19.6,18.7,19.6C236.3,78.8,243.5,70,243.5,59.5z M266,28.5h14v13.8
            c3.8-9.2,10.9-15.4,21.7-15v14.9h-0.8c-12.3,0-20.9,8-20.9,24.3v23.3h-14V28.5z M320.3,72.8V40.5h-7.8V28.5h7.8V11.7h14v16.8h16.5
            v12.1h-16.5v30.1c0,5.5,2.8,7.7,7.5,7.7c3.1,0,5.9-0.7,8.7-2.1v11.5c-3.5,2-7.3,3.1-12.6,3.1C327.6,90.8,320.3,86.3,320.3,72.8z
             M359.3,5h14v32.8c3.9-5.7,9.6-10.7,19.1-10.7c13.8,0,21.8,9.3,21.8,23.4v39.1h-14V54.9c0-9.5-4.8-15-13.1-15
            c-8.1,0-13.8,5.7-13.8,15.2v34.6h-14V5z M420.5,81.7l6.3-9.5c6.7,5,13.8,7.5,20.1,7.5c6,0,9.5-2.6,9.5-6.6v-0.2
            c0-4.8-6.5-6.4-13.7-8.6c-9.1-2.6-19.1-6.3-19.1-18v-0.2c0-11.6,9.6-18.7,21.8-18.7c7.7,0,16,2.7,22.5,7l-5.6,10
            c-5.9-3.6-12.2-5.8-17.3-5.8c-5.5,0-8.6,2.6-8.6,6v0.2c0,4.5,6.6,6.4,13.8,8.7c8.9,2.8,19,6.8,19,17.9v0.2
            c0,12.9-10,19.3-22.7,19.3C437.7,90.9,428.1,87.8,420.5,81.7z M478,5.7h15.1v13.3H478V5.7z M478.6,28.5h14v61.3h-14V28.5z
             M502,59.2V59c0-20.3,13.8-31.8,28.4-31.8c10.1,0,16.5,5,20.9,10.8V5h14v84.7h-14V79.5c-4.5,6.4-10.9,11.5-20.9,11.5
            C516.1,91,502,79.5,502,59.2z M551.6,59.2V59c0-11.8-8.4-19.6-17.8-19.6c-9.6,0-17.6,7.4-17.6,19.6v0.2c0,11.8,8.1,19.6,17.6,19.6
            C543.2,78.8,551.6,70.9,551.6,59.2z M573.9,59.3v-0.2c0-17.5,12.4-31.9,29.9-31.9c19.5,0,29.4,15.3,29.4,33c0,1.3-0.1,2.6-0.2,3.9
            h-45c1.5,10,8.6,15.5,17.6,15.5c6.8,0,11.7-2.6,16.6-7.3l8.2,7.3c-5.8,7-13.8,11.5-25.1,11.5C587.6,91.1,573.9,78.3,573.9,59.3z
             M619.2,54.8c-0.9-9.1-6.3-16.1-15.5-16.1c-8.6,0-14.6,6.6-15.9,16.1H619.2z"></path>
          <path class="st1" d="M322.7,113.1L322.7,113.1c0-4.8,3.6-8.8,8.5-8.8c3.1,0,4.9,1.1,6.6,2.7l-1.3,1.4c-1.4-1.3-3-2.3-5.3-2.3
            c-3.7,0-6.5,3-6.5,6.9v0c0,3.9,2.8,7,6.5,7c2.3,0,3.8-0.9,5.4-2.4l1.3,1.2c-1.8,1.8-3.7,3-6.7,3
            C326.3,121.8,322.7,117.9,322.7,113.1z M342.4,104.6h1.9v7.5h9.7v-7.5h1.9v16.8h-1.9v-7.6h-9.7v7.6h-1.9V104.6z M361.9,104.6h7.2
            c2.1,0,3.7,0.6,4.8,1.7c0.8,0.8,1.3,2,1.3,3.3v0c0,2.8-1.9,4.4-4.6,4.9l5.2,6.9h-2.3l-4.9-6.5h-4.8v6.5h-1.9V104.6z M369,113.2
            c2.5,0,4.3-1.3,4.3-3.5v0c0-2.1-1.6-3.3-4.3-3.3h-5.2v6.8H369z M380.7,104.6h1.9v16.8h-1.9V104.6z M387.6,119l1.2-1.4
            c1.8,1.6,3.4,2.4,5.8,2.4c2.3,0,3.8-1.2,3.8-2.9v0c0-1.6-0.8-2.5-4.4-3.2c-3.9-0.8-5.7-2.1-5.7-4.9v0c0-2.6,2.3-4.6,5.5-4.6
            c2.5,0,4.2,0.7,5.9,2.1l-1.1,1.5c-1.6-1.3-3.1-1.8-4.9-1.8c-2.2,0-3.6,1.2-3.6,2.7v0c0,1.6,0.9,2.5,4.6,3.3
            c3.8,0.8,5.5,2.2,5.5,4.8v0c0,2.9-2.4,4.8-5.7,4.8C391.8,121.7,389.6,120.8,387.6,119z M409.4,106.4h-5.7v-1.8H417v1.8h-5.7v15.1
            h-1.9V106.4z M421.9,104.6h1.9v16.8h-1.9V104.6z M436.2,104.5h1.8l7.7,17h-2l-2-4.4h-9.2l-2,4.4h-1.9L436.2,104.5z M440.9,115.3
            l-3.8-8.6l-3.8,8.6H440.9z M450.2,104.6h1.8l10.6,13.5v-13.5h1.9v16.8h-1.5L452,107.7v13.8h-1.9V104.6z M478,113.1L478,113.1
            c0-4.8,3.6-8.8,8.5-8.8c3.1,0,4.9,1.1,6.6,2.7l-1.3,1.4c-1.4-1.3-3-2.3-5.3-2.3c-3.7,0-6.5,3-6.5,6.9v0c0,3.9,2.8,7,6.5,7
            c2.3,0,3.8-0.9,5.4-2.4l1.3,1.2c-1.8,1.8-3.7,3-6.7,3C481.6,121.8,478,117.9,478,113.1z M497.7,104.6h1.9v7.5h9.7v-7.5h1.9v16.8
            h-1.9v-7.6h-9.7v7.6h-1.9V104.6z M517,114.4v-9.8h1.9v9.7c0,3.6,1.9,5.7,5.1,5.7c3.1,0,5.1-1.9,5.1-5.6v-9.8h1.9v9.6
            c0,4.9-2.8,7.5-7,7.5C519.8,121.7,517,119.2,517,114.4z M536.7,104.6h7.2c2.1,0,3.7,0.6,4.8,1.7c0.8,0.8,1.3,2,1.3,3.3v0
            c0,2.8-1.9,4.4-4.6,4.9l5.2,6.9h-2.3l-4.9-6.5h-4.8v6.5h-1.9V104.6z M543.8,113.2c2.5,0,4.3-1.3,4.3-3.5v0c0-2.1-1.6-3.3-4.3-3.3
            h-5.2v6.8H543.8z M554.5,113.1L554.5,113.1c0-4.8,3.6-8.8,8.5-8.8c3.1,0,4.9,1.1,6.6,2.7l-1.3,1.4c-1.4-1.3-3-2.3-5.3-2.3
            c-3.7,0-6.5,3-6.5,6.9v0c0,3.9,2.8,7,6.5,7c2.3,0,3.8-0.9,5.4-2.4l1.3,1.2c-1.8,1.8-3.7,3-6.7,3
            C558.1,121.8,554.5,117.9,554.5,113.1z M574.2,104.6h1.9v7.5h9.7v-7.5h1.9v16.8h-1.9v-7.6h-9.7v7.6h-1.9V104.6z"></path>
          <path class="st4" d="M90.2,47.4c0,23.4-19.1,42.5-42.5,42.5c-23.4,0-42.5-19.1-42.5-42.5c0-23.5,19.1-42.5,42.5-42.5
            C71.1,4.8,90.2,23.9,90.2,47.4z M88.2,47.4C88.2,25,70,6.8,47.6,6.8C25.3,6.8,7.1,25,7.1,47.4c0,22.3,18.2,40.5,40.5,40.5
            C70,87.9,88.2,69.7,88.2,47.4z"></path>
          <path class="st4" d="M47.5,2C72.6,2,93,22.4,93,47.5C93,72.6,72.6,93,47.5,93C22.4,93,2,72.6,2,47.5C2,22.4,22.4,2,47.5,2z
             M47.6,89.9c23.5,0,42.5-19.1,42.5-42.5c0-23.5-19.1-42.5-42.5-42.5C24.2,4.8,5.1,23.9,5.1,47.4C5.1,70.8,24.2,89.9,47.6,89.9z
             M47.6,6.8C70,6.8,88.2,25,88.2,47.4c0,22.3-18.2,40.5-40.5,40.5c-22.3,0-40.5-18.2-40.5-40.5C7.1,25,25.3,6.8,47.6,6.8z
             M67.5,67.6V22.6h-7.8v31.2L35.6,22.6h-7.3v45.1H36V35.6l24.9,32.1H67.5z"></path>
          <polygon class="st2" points="67.5,22.6 67.5,67.6 60.9,67.6 36,35.6 36,67.6 28.2,67.6 28.2,22.6 35.6,22.6 59.7,53.7 59.7,22.6
            "></polygon>
         </g>
         </svg>
