<?xml version="1.0" encoding="UTF-8"?>
<svg width="709px" height="273px" viewBox="0 0 709 273" version="1.1" xmlns="http://www.w3.org/2000/svg" xmlns:xlink="http://www.w3.org/1999/xlink">
    <!-- Generator: Sketch 46 (44423) - http://www.bohemiancoding.com/sketch -->
    <title>logo-marriott</title>
    <desc>Created with Sketch.</desc>
    <defs></defs>
    <g id="Page-1" stroke="none" stroke-width="1" fill="none" fill-rule="evenodd">
        <g id="logo-marriott" fill-rule="nonzero" fill="#C6003D">
            <path d="M654.76026,242.49294 C645.88963,237.86056 644.5098,224.77149 644.70687,192.93594 L644.90403,144.14768 L627.95131,144.12796 L631.89382,135.0997 L644.90403,135.0997 L644.90403,111.99677 L676.04962,100.44525 L676.04962,134.33088 L690.43974,134.35059 L686.69429,144.36455 L676.04962,144.34483 L676.04962,228.77306 C676.641,235.57389 679.00652,239.57546 682.16049,242.49294 L654.76026,242.49294" id="path13762"></path>
            <path d="M347.83789,33.8764 C350.20342,40.40121 355.72282,47.14291 351.7804,54.71248 C350.00626,62.40034 342.71262,68.62942 335.02485,69.87133 C326.94276,70.60063 319.45196,69.24052 313.34118,64.37155 C309.20151,42.17536 318.26929,21.63502 335.81329,9.39364 L347.83789,33.8764" id="path13766"></path>
            <path d="M414.26874,79.66842 C432.40413,52.16951 417.22555,7.04783 377.99788,0.72017 L414.26874,79.66842" id="path13784"></path>
            <path d="M410.32623,138.86477 C416.04288,134.05495 426.09618,133.95637 432.60128,137.03148 C435.36103,138.4114 437.92362,140.2446 439.69777,142.64955 L427.08179,162.20429 C425.5048,160.94266 424.32204,160.371 422.35083,159.34596 C416.04288,156.64536 409.53778,158.22235 405.79243,161.63263 L405.79243,218.70004 C405.59527,228.57599 407.36942,237.58454 412.4946,242.25644 L383.9116,242.25644 C377.80072,237.68311 376.42089,230.36985 375.82951,223.96323 L375.63235,148.07047 C375.82951,141.92016 374.25252,139.21956 371.887,135.76994 L401.45569,135.88815 C403.82113,137.60314 404.01829,140.57977 405.20105,142.86643 L410.32623,138.86477" id="path13790"></path>
            <path d="M446.39993,157.63097 C446.20287,150.41628 447.77985,141.78224 443.0489,135.55307 L470.44913,135.55307 C472.42034,136.93299 473.40595,139.21956 473.99733,141.38793 C475.57431,143.3198 475.37725,146.07955 475.96863,148.36612 L476.36285,229.22652 C477.34846,234.03634 479.31967,238.88559 482.86795,242.67038 L453.49642,242.72952 C443.83734,233.42524 446.99132,218.12838 446.20287,202.33871 L446.39993,157.63097" id="path13792"></path>
            <path d="M489.96444,158.41951 C492.92125,150.19941 502.1861,146.07955 508.88836,141.6048 C519.13882,137.83973 530.57203,128.45659 542.00516,136.12474 C551.66423,142.41296 560.14064,149.50945 566.25142,159.22767 C567.63134,162.99274 568.41979,167.23089 569.40549,171.23255 C569.40549,176.61404 570.58816,180.6157 570.39109,185.99718 C570.78532,191.83204 570.78532,197.09523 570.39109,202.81189 C569.99687,212.53011 565.46298,221.2232 557.77511,227.96489 C546.34189,238.1562 531.95186,249.70771 516.37907,241.80297 C502.38326,235.27816 486.02193,222.36653 487.00753,204.62537 C486.41615,192.04882 485.82477,181.18736 487.59891,168.94589 C488.19029,165.39769 487.99314,161.51433 489.96444,158.41951 Z M518.54744,215.60522 C519.92726,220.65163 522.48995,226.82156 528.60073,227.51152 C532.14902,227.62982 534.71161,224.65319 536.87998,222.13004 C543.18792,209.55349 542.20232,195.83361 542.20232,181.52244 C540.23111,170.89748 542.7937,156.36943 531.36048,149.84462 C527.2209,148.36612 524.264,151.10615 521.70141,153.6294 C517.16752,160.371 516.77329,168.0983 516.37907,176.67319 C514.99915,190.39307 516.57613,201.76704 518.54744,215.60522 L518.54744,215.60522 Z" id="path13794"></path>
            <path d="M590.69484,242.49294 C581.82431,237.86056 580.44439,224.77149 580.64155,192.93594 L580.83861,144.14768 L564.08315,144.12796 L567.8285,135.0997 L580.83861,135.0997 L580.83861,111.99677 L612.18136,100.44525 L612.18136,134.33088 L626.37433,134.35059 L622.62897,144.36455 L612.18136,144.34483 L612.18136,228.77306 C612.77274,235.57389 615.13827,239.57546 618.29224,242.49294 L590.69484,242.49294" id="path13796"></path>
            <path d="M305.25909,148.07047 C305.06193,141.92016 303.87917,139.21956 301.51373,135.76994 L331.08234,135.88815 C333.44777,137.60314 333.64493,140.57977 334.82769,142.86643 L339.95287,138.86477 C345.66953,134.05495 355.72282,133.95637 362.22793,137.03148 C364.98767,138.4114 367.55026,140.2446 369.32441,142.64955 L356.70843,162.20429 C355.13144,160.94266 353.94877,160.371 351.97747,159.34596 C345.66953,156.64536 339.16442,158.22235 335.41907,161.63263 L335.41907,218.70004 C335.22191,228.57599 336.99606,237.58454 342.12124,242.25644 L313.53824,242.25644 C307.62452,237.68311 305.85047,230.88237 305.45615,223.96323 L305.25909,148.07047" id="path13798"></path>
            <path d="M81.1289,178.09245 L70.48413,200.2492 C62.99342,213.31856 52.74297,229.34472 36.97302,233.32666 C30.86223,235.4556 25.34273,233.52382 19.42901,233.10979 L0.30793,264.35405 C1.88492,265.8916 3.85622,267.17285 5.82743,267.92196 C39.33854,280.73501 52.94013,266.95607 85.85986,192.22626 L117.20261,258.79512 L158.79581,258.79512 L139.08335,213.87051 L150.3195,190.64928 L181.07086,257.77009 L220.88992,258.0263 L151.10794,104.90028 L118.97675,120.84759 L144.20862,177.99387 L133.16962,200.44636 L87.04262,100.93806 L53.33435,118.1667 L81.1289,178.09245" id="path13800"></path>
            <path d="M209.06248,205.09846 C209.85093,194.00041 215.96181,183.59223 226.21226,177.99387 C236.46272,171.68592 248.29016,169.18248 258.93483,163.6827 C260.70898,162.20429 262.87735,160.371 263.0745,157.96613 C263.27157,154.98951 261.69458,152.70285 259.13199,151.67781 C242.96782,148.24791 229.76046,158.30121 218.13017,168.25602 C219.51,160.94266 220.69276,152.93944 224.24105,146.07955 C225.81804,144.24626 227.0008,141.7231 229.16917,140.36289 C240.60229,134.74491 254.79526,133.14821 267.41124,134.05495 C277.85876,134.74491 287.51793,142.17647 291.06612,151.67781 C292.84026,156.13284 292.64311,161.17925 293.03733,165.75249 L293.23449,227.74802 C293.23449,233.10979 295.79708,238.1562 298.95105,242.49294 L269.38245,242.49294 C265.83425,239.29953 264.06011,235.27816 263.0745,230.25155 C254.79526,237.58454 237.44832,248.44609 227.19786,241.23131 C216.55319,236.4412 206.69695,220.29674 209.06248,205.09846 Z M261.49752,183.53308 C261.30036,179.23578 258.34355,178.78241 256.17518,178.78241 C249.0787,179.80744 242.96782,185.74088 239.41962,191.83204 C236.46272,197.25296 235.67427,201.82619 235.47711,206.57696 C235.47711,211.70214 235.08289,215.50664 237.25125,219.39 C238.43392,221.91316 240.79945,223.05649 243.36204,223.72674 C247.89593,224.65319 252.03551,223.39157 255.5838,220.9867 C264.06011,216.29518 262.48312,206.91203 262.68028,198.57364 L261.49752,183.53308 L261.49752,183.53308 Z" id="path13802"></path>
            <path d="M685.90585,233.20837 C685.90585,226.86099 691.03104,222.18918 697.14194,222.18918 C703.25274,222.18918 708.37794,226.86099 708.37794,233.20837 C708.37794,239.59518 703.25274,244.26708 697.14194,244.26708 C691.03104,244.26708 685.90585,239.59518 685.90585,233.20837 Z M697.14194,242.43379 C702.26714,242.43379 706.20964,238.53071 706.20964,233.20837 C706.20964,227.98461 702.26714,224.02238 697.14194,224.02238 C692.21384,224.02238 688.07424,227.98461 688.07424,233.20837 C688.07424,238.53071 692.21384,242.43379 697.14194,242.43379 Z M694.77644,239.59518 L693.00234,239.59518 L693.00234,226.86099 L697.73324,226.86099 C700.69024,226.86099 702.26714,227.98461 702.26714,230.48805 C702.26714,232.77471 700.88724,233.76032 698.91604,233.99691 L702.66144,239.59518 L700.49304,239.59518 L697.14194,234.07577 L694.77644,234.07577 L694.77644,239.59518 Z M697.14194,232.43964 C698.71894,232.43964 700.29584,232.32134 700.29584,230.36985 C700.29584,228.79277 698.91604,228.49713 697.53614,228.49713 L694.77644,228.49713 L694.77644,232.43964 L697.14194,232.43964 L697.14194,232.43964 Z" id="path13842"></path>
        </g>
    </g>
</svg>