<?xml version="1.0" encoding="UTF-8"?>
<svg width="197px" height="33px" viewBox="0 0 197 33" version="1.1" xmlns="http://www.w3.org/2000/svg" xmlns:xlink="http://www.w3.org/1999/xlink">
    <!-- Generator: Sketch 45.1 (43504) - http://www.bohemiancoding.com/sketch -->
    <title>QbicLogo</title>
    <desc>Created with Sketch.</desc>
    <defs></defs>
    <g id="Customer-Stories" stroke="none" stroke-width="1" fill="none" fill-rule="evenodd">
        <g id="Customer-Stories-Listing" transform="translate(-176.000000, -445.000000)">
            <g id="Group" transform="translate(0.000000, 364.000000)">
                <g id="QbicLogo" transform="translate(176.000000, 81.000000)">
                    <path d="M106.66383,30.52 L106.66383,17.39296 L91.1914894,17.39296 L91.1914894,30.52 L87.5148936,30.52 L87.5148936,1.02232 L91.1914894,1.02232 L91.1914894,13.9204 L106.66383,13.9204 L106.66383,1.02232 L110.340426,1.02232 L110.340426,30.52 L106.66383,30.52 Z M120.240426,25.61644 C121.504262,26.9011664 123.080842,27.54352 124.970213,27.54352 C126.859584,27.54352 128.429781,26.9011664 129.680851,25.61644 C130.931921,24.3317136 131.557447,22.7735292 131.557447,20.94184 C131.557447,19.1101508 130.925538,17.5774062 129.661702,16.34356 C128.397866,15.1097138 126.821286,14.4928 124.931915,14.4928 C123.042544,14.4928 121.472347,15.1097138 120.221277,16.34356 C118.970207,17.5774062 118.344681,19.1101508 118.344681,20.94184 C118.344681,22.7735292 118.976589,24.3317136 120.240426,25.61644 Z M124.931915,30.86344 C121.99573,30.86344 119.582988,29.8967297 117.693617,27.96328 C115.804246,26.0298303 114.859574,23.7020936 114.859574,20.98 C114.859574,18.2579064 115.817012,15.9365296 117.731915,14.0158 C119.646818,12.0950704 122.046794,11.13472 124.931915,11.13472 C127.817036,11.13472 130.223395,12.0950704 132.151064,14.0158 C134.078733,15.9365296 135.042553,18.2579064 135.042553,20.98 C135.042553,23.7020936 134.091499,26.0298303 132.189362,27.96328 C130.287225,29.8967297 127.8681,30.86344 124.931915,30.86344 Z M136.72766,14.64544 L136.72766,11.51632 L139.868085,11.51632 L139.868085,4.41856 L143.314894,2.35792 L143.314894,11.51632 L146.493617,11.51632 L146.493617,14.64544 L143.314894,14.64544 L143.314894,30.52 L139.868085,30.52 L139.868085,14.64544 L136.72766,14.64544 Z M158.365957,30.86344 C155.302112,30.86344 152.838307,29.8903697 150.974468,27.9442 C149.110629,25.9980303 148.178723,23.6575737 148.178723,20.92276 C148.178723,18.1879463 149.072331,15.8920093 150.859574,14.03488 C152.646817,12.1777507 154.95105,11.2492 157.77234,11.2492 C160.593631,11.2492 162.923395,12.1077914 164.761702,13.825 C166.600009,15.5422086 167.582978,17.698227 167.710638,20.29312 C167.73617,20.5475213 167.748936,20.9672771 167.748936,21.5524 L151.510638,21.5524 C151.561702,23.3332089 152.225526,24.8150741 153.502128,25.99804 C154.77873,27.1810059 156.387224,27.77248 158.32766,27.77248 C159.57873,27.77248 160.644676,27.6071217 161.525532,27.2764 C162.406387,26.9456783 163.33191,26.3732841 164.302128,25.5592 L166.293617,27.69616 C165.093611,28.8155256 163.893623,29.6232375 162.693617,30.11932 C161.493611,30.6154025 160.051072,30.86344 158.365957,30.86344 Z M161.92766,15.50404 C160.829782,14.6517957 159.444689,14.22568 157.77234,14.22568 C156.099992,14.22568 154.772345,14.6454358 153.789362,15.48496 C152.806378,16.3244842 152.136172,17.4311131 151.778723,18.80488 L164.07234,18.80488 C163.740424,17.4565533 163.025537,16.3562843 161.92766,15.50404 Z M171.27234,30.52 L171.27234,0.7552 L174.757447,0.7552 L174.757447,30.52 L171.27234,30.52 Z M187.548936,30.97792 C184.153175,30.97792 180.974483,30.1256885 178.012766,28.4212 L179.774468,25.63552 C182.200012,27.1873678 184.817007,27.96328 187.625532,27.96328 C189.234051,27.96328 190.504251,27.7025226 191.43617,27.181 C192.36809,26.6594774 192.834043,25.9789642 192.834043,25.13944 C192.834043,23.9183139 191.851074,23.1169619 189.885106,22.73536 L184.446809,21.70504 C180.948919,21.0181566 179.2,19.3009737 179.2,16.55344 C179.2,14.950712 179.889355,13.6405651 181.268085,12.62296 C182.646815,11.6053549 184.753177,11.09656 187.587234,11.09656 C190.421291,11.09656 192.936159,11.8088729 195.131915,13.23352 L193.485106,15.94288 C191.391479,14.7217539 189.297883,14.1112 187.204255,14.1112 C185.799993,14.1112 184.663834,14.314718 183.795745,14.72176 C182.927655,15.128802 182.5,15.6630367 182.512766,16.32448 C182.525532,16.9859233 182.717019,17.4692785 183.087234,17.77456 C183.457449,18.0798415 184.102123,18.3215191 185.021277,18.4996 L190.076596,19.37728 C194.136191,20.1659239 196.165957,22.0230254 196.165957,24.94864 C196.165957,26.7803292 195.348944,28.2431145 193.714894,29.33704 C192.080843,30.4309655 190.025544,30.97792 187.548936,30.97792 Z" id="Hotels" fill="#003D51"></path>
                    <path d="M15.7361702,31.01608 C11.4723191,31.01608 7.84044053,29.5214949 4.84042553,26.53228 C1.84041053,23.5430651 0.340425532,19.9369811 0.340425532,15.71392 C0.340425532,11.4908589 1.84041053,7.88477495 4.84042553,4.89556 C7.84044053,1.90634505 11.4723191,0.41176 15.7361702,0.41176 C20.0000213,0.41176 23.6382828,1.90634505 26.6510638,4.89556 C29.6638449,7.88477495 31.1702128,11.4908589 31.1702128,15.71392 C31.1702128,18.8684958 30.251073,21.7686268 28.412766,24.4144 L32.2042553,28.15408 L28.106383,32.2372 L24.2765957,28.45936 C21.6723274,30.1638485 18.8255474,31.01608 15.7361702,31.01608 Z M15.7361702,24.33808 C17.0638364,24.33808 18.2638244,24.0709627 19.3361702,23.53672 L15.3914894,19.56808 L19.4893617,15.48496 L23.3957447,19.41544 C23.9319176,18.3215145 24.2,17.0876869 24.2,15.71392 C24.2,13.322548 23.376604,11.2873684 21.7297872,9.60832 C20.0829705,7.9292716 18.0851181,7.08976 15.7361702,7.08976 C13.3872223,7.08976 11.3957529,7.9292716 9.76170213,9.60832 C8.1276514,11.2873684 7.3106383,13.322548 7.3106383,15.71392 C7.3106383,18.105292 8.1276514,20.1404716 9.76170213,21.81952 C11.3957529,23.4985684 13.3872223,24.33808 15.7361702,24.33808 Z M34.4255319,30.52 L34.4255319,0.7552 L40.7829787,0.7552 L40.7829787,11.40184 C42.161709,10.7149566 43.5276528,10.37152 44.8808511,10.37152 C47.7659719,10.37152 50.1787137,11.37639 52.1191489,13.38616 C54.0595842,15.39593 55.0297872,17.799986 55.0297872,20.5984 C55.0297872,23.396814 54.0659671,25.80087 52.1382979,27.81064 C50.2106287,29.82041 47.7915039,30.82528 44.8808511,30.82528 C43.3999926,30.82528 42.0340488,30.4818434 40.7829787,29.79496 L40.7829787,30.52 L34.4255319,30.52 Z M44.4212766,16.32448 C42.83829,16.32448 41.6255361,16.9731935 40.7829787,18.27064 L40.7829787,22.84984 C41.6000041,24.1981667 42.7999921,24.87232 44.3829787,24.87232 C45.5829847,24.87232 46.6042511,24.4652841 47.4468085,23.6512 C48.2893659,22.8371159 48.7106383,21.8195261 48.7106383,20.5984 C48.7106383,19.3772739 48.2957488,18.3596841 47.4659574,17.5456 C46.6361661,16.7315159 45.6212826,16.32448 44.4212766,16.32448 Z M57.5957447,30.52 L57.5957447,10.63864 L63.9914894,10.63864 L63.9914894,30.52 L57.5957447,30.52 Z M60.7744681,7.85296 C59.8042505,7.85296 58.9808544,7.5031635 58.3042553,6.80356 C57.6276562,6.1039565 57.2893617,5.25808496 57.2893617,4.26592 C57.2893617,3.27375504 57.6212733,2.44060337 58.2851064,1.76644 C58.9489395,1.09227663 59.7787184,0.7552 60.7744681,0.7552 C61.7702177,0.7552 62.6127625,1.09863657 63.3021277,1.78552 C63.9914928,2.47240343 64.3361702,3.3055551 64.3361702,4.285 C64.3361702,5.2644449 63.9851099,6.1039565 63.2829787,6.80356 C62.5808476,7.5031635 61.7446857,7.85296 60.7744681,7.85296 Z M84.1361702,28.19224 C81.9914786,30.0239292 79.5404393,30.93976 76.7829787,30.93976 C74.0255181,30.93976 71.631925,29.9285301 69.6021277,27.90604 C67.5723303,25.8835499 66.5574468,23.4349744 66.5574468,20.56024 C66.5574468,17.6855056 67.5723303,15.2305702 69.6021277,13.19536 C71.631925,11.1601498 74.0446669,10.14256 76.8404255,10.14256 C79.6361842,10.14256 82.1319039,11.1092703 84.3276596,13.04272 L80.8808511,17.9272 C79.8595694,16.8841548 78.6978789,16.36264 77.3957447,16.36264 C76.0936105,16.36264 75.0404296,16.7823958 74.2361702,17.62192 C73.4319109,18.4614442 73.0297872,19.4599542 73.0297872,20.61748 C73.0297872,21.7750058 73.4382938,22.7480761 74.2553191,23.53672 C75.0723445,24.3253639 76.1765888,24.71968 77.5680851,24.71968 C78.9595814,24.71968 80.1021232,24.1727255 80.9957447,23.0788 L84.1361702,28.19224 Z" id="Qbic" fill="#F460A1"></path>
                </g>
            </g>
        </g>
    </g>
</svg>