<?xml version="1.0" encoding="UTF-8"?>
<svg width="164px" height="93px" viewBox="0 0 164 93" version="1.1" xmlns="http://www.w3.org/2000/svg" xmlns:xlink="http://www.w3.org/1999/xlink">
    <!-- Generator: Sketch 41.2 (35397) - http://www.bohemiancoding.com/sketch -->
    <title>Closed</title>
    <desc>Created with Sketch.</desc>
    <defs></defs>
    <g id="Page-1" stroke="none" stroke-width="1" fill="none" fill-rule="evenodd">
        <g id="Closed">
            <g id="Ribbon" transform="translate(82.000000, 46.500000) rotate(-180.000000) translate(-82.000000, -46.500000) translate(0.000000, -0.000000)">
                <polyline id="Fill-8" fill="#D8222A" points="122 46.2985495 154.034333 59 151.186267 46.0101754 164 41.2472397 138.799658 31"></polyline>
                <polyline id="Fill-9" fill="#D8222A" points="42 48.2985495 9.96631887 61 12.8134725 48.0101754 0 43.2472397 25.1998292 33"></polyline>
                <polyline id="Fill-10" fill="#A72529" points="17 47 42 47 42 30"></polyline>
                <polyline id="Fill-11" fill="#A72529" points="146 46 121 46 121 29"></polyline>
                <path d="M128,46.5 C128,72.181 107.182,93 81.5,93 C55.818,93 35,72.181 35,46.5 C35,20.819 55.818,0 81.5,0 C107.182,0 128,20.819 128,46.5" id="Fill-19" fill="#D1232A"></path>
                <path d="M146,26.8707461 C83.4071242,-5.82173189 16,25.5859001 16,25.5859001 L16,47 C16,47 78.0261438,25.1935938 146,46.8929295 L146,28.1555921" id="Fill-12" fill="#DA2E33"></path>
            </g>
            <path d="M80.756,27.928 C80.756,24.688 78.488,22.708 76.4,22.168 L76.4,22.06 C78.056,21.376 79.964,19.936 79.964,16.624 C79.964,12.448 75.824,10 71.324,10 C66.788,10 64.484,11.584 62.756,13.096 L64.916,16.768 C66.932,15.148 68.876,14.356 70.856,14.356 C72.836,14.356 74.456,15.328 74.456,17.272 C74.456,19.216 73.088,20.188 71.144,20.188 L68.948,20.188 L68.948,24.256 L71.144,24.256 C73.376,24.256 75.104,25.408 75.104,27.604 C75.104,29.836 73.196,31.096 70.748,31.096 C68.336,31.096 65.672,29.224 64.664,28 L62,31.456 C62.864,32.716 65.924,35.596 71.072,35.596 C76.184,35.596 80.756,32.896 80.756,27.928 Z M104.336,22.816 C104.336,16.264 101.276,10 94.04,10 C86.804,10 83.744,16.264 83.744,22.816 C83.744,29.368 86.768,35.632 94.04,35.632 C101.276,35.632 104.336,29.368 104.336,22.816 Z M98.612,22.708 C98.612,27.172 97.244,30.628 94.04,30.628 C90.836,30.628 89.468,27.172 89.468,22.708 C89.468,18.244 90.836,14.86 94.04,14.86 C97.244,14.86 98.612,18.244 98.612,22.708 Z" id="30" fill="#FFFFFF"></path>
            <path d="M77.568,43.844 C77.568,41.968 76.812,40.848 76,40.176 C75.202,39.49 73.956,39.014 72.276,39.014 L69,39.014 L69,48.674 L72.276,48.674 C73.956,48.674 75.202,48.198 76,47.526 C76.812,46.84 77.568,45.72 77.568,43.844 Z M75.272,43.844 C75.272,45.034 74.824,45.678 74.418,46.056 C74.012,46.448 73.34,46.756 72.402,46.756 L71.254,46.756 L71.254,40.89 L72.402,40.89 C73.34,40.89 74.012,41.198 74.418,41.576 C74.824,41.968 75.272,42.654 75.272,43.844 Z M83.896,39 L81.544,39 L77.904,48.674 L80.256,48.674 L80.942,46.728 L84.386,46.728 L85.072,48.674 L87.536,48.674 L83.896,39 Z M81.46,44.964 L82.664,41.492 L83.868,44.964 L81.46,44.964 Z M93.794,39.014 L91.82,42.864 L89.846,39.014 L87.326,39.014 L90.686,44.768 L90.686,48.674 L92.954,48.674 L92.954,44.768 L96.314,39.014 L93.794,39.014 Z" id="DAY" fill="#FFFFFF"></path>
            <path d="M32.0619091,57.9285503 L30.1924502,57.0873467 L27.0345497,60.6448268 L27.0163111,60.6366199 L27.5660885,55.9055582 L25.705749,55.068458 L22.4001765,61.1474045 L23.850147,61.7998502 L26.006743,57.6163596 L26.0341009,57.6286699 L25.4642651,62.5261578 L26.631537,63.0513971 L29.9098083,59.3726286 L29.9280469,59.3808355 L28.2456552,63.7777046 L29.6956257,64.4301504 L32.0619091,57.9285503 Z M38.510917,63.1979084 C39.2044226,61.0784863 38.0909822,59.3042399 36.1426346,58.6667123 C34.1942869,58.0291847 32.2473959,58.8020464 31.5538903,60.9214685 C30.8603847,63.0408906 31.9769349,64.8056329 33.9252826,65.4431605 C35.8736302,66.0806881 37.8174114,65.3173305 38.510917,63.1979084 Z M36.9646785,62.6498698 C36.5541729,63.9044156 35.4660823,64.4322025 34.3731068,64.0745651 C33.2801313,63.7169276 32.7145024,62.6480198 33.1250079,61.393474 C33.5355135,60.1389282 34.6204942,59.6206455 35.7134697,59.9782829 C36.8064452,60.3359203 37.3720741,61.4048281 36.9646785,62.6498698 Z M46.1551351,61.3000592 L44.6238227,60.9108517 L43.8527977,63.9444009 C43.672974,64.651906 43.5099092,65.4152603 43.5099092,65.4152603 L41.7841106,60.1890935 L40.1074205,59.762936 L38.4077168,66.4503127 L39.9390292,66.8395202 L40.7075908,63.8156629 C40.8874145,63.1081578 41.0627961,62.2963442 41.0627961,62.2963442 L42.8465843,67.5785218 L44.4554314,67.987436 L46.1551351,61.3000592 Z M50.4452924,67.6521217 L47.5507492,67.0828067 L47.8595301,65.512885 L50.5087731,66.0339529 L50.7577278,64.7682035 L48.1084848,64.2471355 L48.3805981,62.863642 L51.1868332,63.415588 L51.4357879,62.1498386 L47.049819,61.2871817 L45.718201,68.0574693 L50.1924779,68.9374951 L50.4452924,67.6521217 Z M56.1197591,62.7990634 L54.2968071,65.2945486 L53.3344986,62.3577881 L51.5566727,62.0761229 L53.2839718,66.5110455 L52.8473908,69.2666755 L54.4474341,69.5201741 L54.8840151,66.7645441 L57.8975849,63.0807286 L56.1197591,62.7990634 Z M64.8371943,68.6488425 C64.927824,67.8036879 64.4229148,67.166219 63.590208,66.8657202 L63.5923405,66.8458342 C64.1285684,66.7223043 64.6776166,66.197856 64.7586503,65.4421883 C64.8396839,64.6865207 64.4700585,64.1943042 64.0382703,63.9066257 C63.6064821,63.6189471 63.0052906,63.504192 62.3788819,63.4370194 L60.0422781,63.1864549 L59.3065781,70.0471215 L62.1105027,70.3477988 C62.8164553,70.4235013 63.446782,70.3603487 63.9183932,70.0890871 C64.3900044,69.8178255 64.7561607,69.4045101 64.8371943,68.6488425 Z M63.1521245,65.5112894 C63.1158726,65.8493512 62.9574785,66.0133979 62.7436913,66.1312751 C62.5409134,66.2402757 62.3299781,66.2377708 61.9720303,66.1993865 L61.3456216,66.1322138 L61.5151524,64.5512776 L62.1813331,64.6227152 C62.5293379,64.6600333 62.7061794,64.6991115 62.8823015,64.8386858 C63.0683666,64.9793264 63.1873101,65.1831705 63.1521245,65.5112894 Z M63.2204041,68.3447215 C63.1884172,68.6430114 63.0545209,68.8599717 62.7988293,68.9934701 C62.5420715,69.1369114 62.2714782,69.1280092 61.9234733,69.090691 L61.0385468,68.9957964 L61.2262036,67.2458293 L62.1111302,67.3407239 C62.459135,67.378042 62.7254634,67.4267163 62.9459693,67.6213368 C63.1664753,67.8159572 63.2534573,68.0364887 63.2204041,68.3447215 Z M69.6108206,63.9408218 L67.9350535,63.8216393 L64.8513952,70.52978 L66.5271623,70.6489625 L67.1145371,69.2972262 L69.568339,69.4717435 L69.958495,70.8930029 L71.7140606,71.0178608 L69.6108206,63.9408218 Z M67.5729918,68.0666494 L68.6067611,65.653908 L69.2886581,68.1886696 L67.5729918,68.0666494 Z M77.5986406,69.0088403 C77.2055818,69.3856755 76.5743646,69.7043679 75.7148633,69.6750857 C74.5855185,69.6366102 73.6722813,68.8350506 73.7182476,67.4858333 C73.7642139,66.1366161 74.6902503,65.3877126 75.8595719,65.42755 C76.7690442,65.4585347 77.4898881,66.0334121 77.6140244,66.2077399 L78.1593603,64.8855414 C77.985934,64.6895228 77.2364694,64.0736471 75.8172928,64.0252974 C73.8084583,63.9568587 72.1541065,65.2312685 72.0781771,67.4599755 C72.0025881,69.6786882 73.5460404,71.0720493 75.5748633,71.1411689 C76.9840457,71.1891781 77.7333709,70.6343703 78.0954256,70.2864962 L77.5986406,69.0088403 Z M82.0374535,66.8521405 L84.4690001,64.1035079 L82.5490004,64.1024278 L80.4175832,66.6212293 L80.4190007,64.1012297 L78.809001,64.100324 L78.8051196,71.0003229 L80.4151194,71.0012286 L80.4163963,68.7312289 L80.9667393,68.1215384 L82.695119,71.0025111 L84.6351187,71.0036024 L82.0374535,66.8521405 Z M93.2416098,66.7081904 L90.2132576,66.8081071 L90.2538179,68.0374382 L91.7030293,67.9896233 L91.7366646,69.0090685 C91.7366646,69.0090685 91.431348,69.4593815 90.3119571,69.4963144 C89.1925662,69.5332473 88.2863344,68.7527065 88.2401683,67.3534679 C88.1940022,65.9542293 89.026824,65.1163106 90.1362204,65.0797075 C91.0757091,65.0487102 91.6309141,65.5006477 91.9313086,65.8109107 L92.9700592,64.8461323 C92.7422647,64.6135175 91.9210375,63.6800905 90.0920328,63.7404362 C88.1630824,63.8040796 86.5252158,65.1087991 86.6010602,67.4075482 C86.6769046,69.7062974 88.3975404,70.9102128 90.3065017,70.847229 C92.2054683,70.784575 92.9963334,69.8880079 93.3359206,69.566635 L93.2416098,66.7081904 Z M99.7812284,63.2282553 L98.1543853,63.3296533 L98.4044588,67.3418676 C98.4349404,67.8309186 98.4186566,68.2126709 98.2065201,68.5064363 C98.0031201,68.7796183 97.6943151,68.9691954 97.2451867,68.9971887 C96.7960582,69.025182 96.4661027,68.8754176 96.2303549,68.6296068 C95.9833823,68.3644568 95.919821,67.9876811 95.8893394,67.4986301 L95.6392659,63.4864158 L94.0124228,63.5878138 L94.2624963,67.600028 C94.3228374,68.5681494 94.5341871,69.2262765 95.0462273,69.7253905 C95.5676262,70.2139018 96.3248552,70.4672873 97.332899,70.4044579 C98.3309623,70.3422506 99.0608475,69.9961761 99.5075701,69.4473237 C99.9636512,68.8878686 100.091643,68.2085909 100.031302,67.2404696 L99.7812284,63.2282553 Z M104.400784,62.7253874 L102.72744,62.8747935 L100.752264,69.9886377 L102.425607,69.8392316 L102.79005,68.4111624 L105.240303,68.1923891 L105.851977,69.5333047 L107.605003,69.376784 L104.400784,62.7253874 Z M103.046529,67.12325 L103.68257,64.5765948 L104.759714,66.9702866 L103.046529,67.12325 Z M111.529245,65.9651174 C112.017536,65.7476968 112.793521,65.1447471 112.643318,63.8433866 C112.564204,63.1579372 112.20312,62.645962 111.70717,62.3609472 C111.2223,62.0847199 110.607912,61.9945702 109.84299,62.0828572 L107.379346,62.3672103 L108.17049,69.2217046 L109.779806,69.0359578 L109.477107,66.4133687 L109.983744,66.3548929 L111.726879,68.8112272 L113.594481,68.5956692 L111.529245,65.9651174 Z M111.030948,64.0898842 C111.072225,64.44751 110.954933,64.6523092 110.763517,64.8253982 C110.582035,64.9973406 110.328336,65.066888 109.960776,65.1093117 L109.324997,65.1826931 L109.122051,63.4243663 L109.75783,63.3509849 C110.12539,63.3085612 110.387115,63.3085522 110.602995,63.4346312 C110.828809,63.5595637 110.990817,63.7421925 111.030948,64.0898842 Z M116.750903,61.1110832 L115.086809,61.3417174 L113.460047,68.5432272 L115.12414,68.312593 L115.418679,66.8684852 L117.855387,66.5307709 L118.53157,67.840342 L120.274907,67.5987252 L116.750903,61.1110832 Z M115.6122,65.5696205 L116.123597,62.9950385 L117.315915,65.333495 L115.6122,65.5696205 Z M125.872918,59.5892656 L124.314065,59.8469021 L124.824446,62.9350101 C124.943481,63.6552398 125.100267,64.4199084 125.100267,64.4199084 L121.42328,60.324671 L119.716435,60.6067666 L120.841556,67.4144169 L122.400409,67.1567804 L121.891659,64.0785386 C121.772624,63.3583089 121.607685,62.5443095 121.607685,62.5443095 L125.360257,66.6675972 L126.99804,66.3969158 L125.872918,59.5892656 Z M131.402587,58.4084716 L126.319352,59.4050252 L126.565605,60.6611142 L128.312354,60.3186692 L129.393557,65.833685 L130.983294,65.5220216 L129.902091,60.0070057 L131.64884,59.6645606 L131.402587,58.4084716 Z M137.541871,62.7248949 L134.660342,63.3567907 L134.317619,61.7939276 L136.954951,61.2155824 L136.67863,59.9555241 L134.041299,60.5338693 L133.739274,59.1565962 L136.532892,58.5439787 L136.256571,57.2839204 L131.890323,58.241403 L133.368316,64.9812499 L137.822476,64.0044891 L137.541871,62.7248949 Z M142.897884,61.3363711 L140.034135,62.0444982 L139.650066,60.4912786 L142.271124,59.8431622 L141.961469,58.590879 L139.340411,59.2389953 L139.00195,57.8702205 L141.77833,57.1836973 L141.468674,55.931414 L137.129367,57.0044066 L138.785664,63.7026661 L143.21234,62.6080696 L142.897884,61.3363711 Z" id="MONEY-BACK-GUARANTEE" fill="#FFFFFF"></path>
        </g>
    </g>
</svg>