<?xml version="1.0" encoding="UTF-8"?>
<svg width="148px" height="39px" viewBox="0 0 148 39" version="1.1" xmlns="http://www.w3.org/2000/svg" xmlns:xlink="http://www.w3.org/1999/xlink">
    <!-- Generator: Sketch 55 (78076) - https://sketchapp.com -->
    <title>Logo</title>
    <desc>Created with Sketch.</desc>
    <g id="UpKeep-vs-Competitor" stroke="none" stroke-width="1" fill="none" fill-rule="evenodd">
        <g id="Website---UpKeep-vs-Competitor" transform="translate(-763.000000, -1083.000000)" fill="#FF3B30">
            <g id="Comparison-Table" transform="translate(0.000000, 774.000000)">
                <g id="Table" transform="translate(183.000000, 279.000000)">
                    <g id="UpKeep-Logo" transform="translate(530.000000, 0.000000)">
                        <g id="Logo" transform="translate(50.000000, 29.933594)">
                            <g id="Symbol">
                                <path d="M32.5498259,11.173644 C32.7475223,10.90705 33.0208746,10.5496136 33.3508517,10.1249116 C33.6631075,9.72345967 33.9497489,9.35842879 34.2364374,8.99564411 C34.3368139,8.86862445 34.4300075,8.75098267 34.5136096,8.6456703 C34.5636811,8.5825959 34.5994944,8.53756477 34.61824,8.51403221 C34.9211562,8.13375836 34.8972166,7.5883332 34.5621477,7.23606165 L31.7792727,4.31031165 C31.4203666,3.93297896 30.8281214,3.90476696 30.4349727,4.246275 C30.4117794,4.26642202 30.4117794,4.26642202 30.305781,4.35831289 C30.2025727,4.44773385 30.0873528,4.54740397 29.9630277,4.65475222 C29.6079128,4.96137574 29.2511426,5.2679601 28.9160889,5.55383895 C28.5039315,5.9052834 28.1865024,6.17316521 27.9376318,6.37938829 C26.5543734,5.3982888 24.8826604,4.71582592 22.9669851,4.29160155 C22.9361491,4.0269321 22.8997473,3.69210193 22.8589589,3.30020291 C22.8494618,3.20895446 22.8397691,3.11501229 22.8298996,3.01859437 C22.7854776,2.5846231 22.7393621,2.11923999 22.6942555,1.65379901 C22.6784638,1.49084918 22.6639282,1.33955224 22.6509845,1.20380921 C22.6377183,1.06430394 22.6377183,1.06430394 22.6348339,1.0336783 C22.5877158,0.53341431 22.167728,0.151125 21.66525,0.151125 L17.6895,0.151125 C17.19975,0.151125 16.7861843,0.514829224 16.7236074,1.00056494 C16.719699,1.03090358 16.719699,1.03090358 16.7018257,1.16882612 C16.6844076,1.30301093 16.6649045,1.45256459 16.6437866,1.61363454 C16.5834636,2.07372691 16.5223074,2.53377142 16.4640961,2.96282674 C16.4528961,3.04530028 16.4528961,3.04530028 16.4416791,3.12757039 C16.3826314,3.56019631 16.3309106,3.92843902 16.2886021,4.21553141 C14.3960737,4.57704626 12.636014,5.28972472 11.1352485,6.31900609 C10.8912693,6.12816814 10.5782228,5.8733736 10.2134151,5.56977015 C9.79834568,5.22343226 9.4516413,4.92981007 9.10823764,4.63611379 C8.98798219,4.5332652 8.8767666,4.43778562 8.77734803,4.3521543 C8.71787066,4.30092517 8.6754153,4.26425336 8.65351103,4.24528522 C8.26686878,3.91047979 7.68711353,3.93180806 7.32611708,4.29411799 L4.54324208,7.08711799 C4.20682965,7.42475437 4.16421656,7.95626602 4.44253868,8.3431878 C4.4605566,8.36823604 4.4605566,8.36823604 4.54250145,8.48234389 C4.62222814,8.5934154 4.71108728,8.71737161 4.8067896,8.85107722 C5.08016415,9.23300854 5.35351106,9.61641124 5.6084469,9.97610257 C5.93149091,10.4320855 6.18142301,10.7880708 6.37017851,11.0614233 C5.27864018,12.5192659 4.50509689,14.4183605 4.26342649,16.297134 C4.21053049,16.3018284 4.1550072,16.3066085 4.09696751,16.3114648 C3.80929058,16.3355355 3.46599717,16.3609966 3.07920157,16.3873157 C2.64065408,16.4171563 2.17005953,16.4465146 1.69936397,16.4741038 C1.53454115,16.4837646 1.38151519,16.492512 1.24424751,16.5001879 C1.16205915,16.5047838 1.10326065,16.5080084 1.07258583,16.5096615 C0.55584612,16.5375129 0.151125,16.9646352 0.151125,17.482125 L0.151125,21.47175 C0.151125,21.9704923 0.52791777,22.3886301 1.023969,22.4403703 C1.05517204,22.4436249 1.11442648,22.4498843 1.19770943,22.4588087 C1.33691522,22.4737257 1.4921288,22.4906307 1.65931791,22.5091825 C2.13668892,22.562153 2.61392036,22.6176504 3.0584029,22.6728913 C3.31234241,22.7044512 3.54831505,22.735045 3.76269548,22.7643475 C3.98269759,22.7944185 4.17715669,22.8227562 4.34226634,22.848883 C4.59911288,24.5032553 5.32121224,26.0781174 6.50186539,27.8517616 C6.30040616,28.1216328 6.02283574,28.4789744 5.68804688,28.9010706 C5.34525285,29.3324104 5.0459031,29.704287 4.74649084,30.0730929 C4.64164991,30.2022324 4.54431626,30.3217311 4.45701146,30.4286144 C4.40475266,30.4925925 4.3673589,30.5382597 4.34790506,30.5619661 C4.02483458,30.9556668 4.05966113,31.531803 4.42780313,31.8837209 L7.21030313,34.5435959 C7.56187504,34.879674 8.10749948,34.9048461 8.48852171,34.6025658 C8.51201291,34.5839288 8.55742391,34.5479889 8.62104664,34.4977732 C8.72736893,34.4138559 8.84628686,34.3202925 8.97485044,34.2195098 C9.34199644,33.9316992 9.71254725,33.6439549 10.0626734,33.3758579 C10.5868589,32.9754711 10.9526484,32.7028445 11.2246193,32.5095741 C13.1829784,33.7139737 14.7019415,34.3952785 16.3362366,34.6498103 C16.3421012,34.706247 16.3480887,34.7658912 16.3541827,34.8285857 C16.3826705,35.121664 16.4128642,35.4744458 16.4440848,35.8736172 C16.4785342,36.3140685 16.5123887,36.7868208 16.5441701,37.2596906 C16.5552999,37.4252872 16.5653724,37.5790279 16.574207,37.7169262 C16.5794949,37.7994645 16.5832046,37.8585285 16.5850989,37.8892316 C16.6167913,38.4028189 17.042561,38.803125 17.557125,38.803125 L21.400125,38.803125 C21.8994407,38.803125 22.3178643,38.425491 22.3688996,37.9287904 C22.3720918,37.8977224 22.3782459,37.8386576 22.3870357,37.7556127 C22.4017314,37.6167694 22.4184128,37.4619512 22.4367521,37.2951849 C22.489113,36.8190478 22.5442072,36.3430621 22.5993524,35.8998205 C22.6351128,35.6123887 22.6697302,35.3483252 22.7027433,35.1128747 C22.7322443,34.9024723 22.7600878,34.7177124 22.7857461,34.5625005 C24.6777222,34.1393284 26.4261433,33.4103272 27.9509969,32.3948337 C28.2090093,32.5936646 28.5460042,32.8662 28.9413965,33.1944001 C28.9917885,33.2362548 28.9917885,33.2362548 29.0421599,33.2781924 C29.3823958,33.5616252 29.7418486,33.8659105 30.0975192,34.1702764 C30.2220731,34.2768636 30.3372158,34.3758121 30.4401046,34.4645505 C30.5016455,34.5176276 30.5452802,34.5553796 30.568173,34.5752409 C30.9616845,34.9166416 31.554185,34.8878934 31.9127961,34.5099993 L34.5629211,31.7173743 C34.9140799,31.3473333 34.9201728,30.7690153 34.5768882,30.3916579 C34.556827,30.3696055 34.518641,30.327504 34.4649303,30.2680846 C34.375104,30.168711 34.2749352,30.0574623 34.1670305,29.9370772 C33.8589181,29.5933285 33.550895,29.2456368 33.2640359,28.9161875 C33.2180361,28.8633227 33.2180361,28.8633227 33.172144,28.8104336 C32.858985,28.4492639 32.5964548,28.1383839 32.4001685,27.8948329 C33.4409043,26.4466204 34.1576006,24.8083937 34.5502332,22.9431434 C34.6598909,22.926698 34.7840388,22.9093642 34.9212206,22.8913459 C35.1964785,22.8551916 35.5184827,22.816983 35.8773945,22.7774574 C36.3231614,22.7283669 36.8018654,22.6798217 37.2807224,22.6340436 C37.4484422,22.6180098 37.6041454,22.6034728 37.7437823,22.5907033 C37.8273008,22.5830657 37.8867011,22.5777323 37.9179435,22.5749725 C38.4206314,22.5305676 38.806125,22.1095202 38.806125,21.604875 L38.806125,17.349375 C38.806125,16.8361679 38.4078593,16.4110318 37.8957443,16.377572 C37.8649223,16.3755585 37.8057038,16.3716271 37.7229416,16.3660333 C37.5846855,16.3566887 37.4305501,16.3460571 37.2645296,16.3343373 C36.790437,16.3008696 36.3164566,16.2654167 35.8748236,16.2295976 C35.5295424,16.2015932 35.2183855,16.1745 34.950069,16.1487894 C34.8014223,16.1345457 34.6674211,16.1208623 34.5496246,16.1078828 C34.0483241,14.2179959 33.432745,12.7016545 32.5498259,11.173644 Z M30.4999539,33.1692507 L31.844577,33.1040091 C31.8202949,33.0829426 31.7752322,33.043955 31.7122057,32.9895966 C31.6074822,32.899276 31.4904475,32.7987015 31.3639113,32.6904179 C31.2886029,32.6259725 31.2131193,32.5615236 31.1376612,32.4972531 L30.4999539,33.1692507 Z M8.70588292,5.66888201 L7.37848898,5.71771477 C7.40216876,5.73821929 7.44539693,5.77555864 7.50621803,5.82794512 C7.60729691,5.91500651 7.72022468,6.01195601 7.84227386,6.11633869 C7.91744456,6.1806285 7.99277914,6.24492176 8.0680617,6.30902389 L8.70588292,5.66888201 Z M35.6641856,20.841412 C35.2927721,20.8823143 34.9578135,20.9220601 34.6675686,20.9601828 C34.3241933,21.0052841 34.0474884,21.0475178 33.8400858,21.0879063 C33.7074032,21.1137442 33.5981571,21.1395514 33.5025612,21.1698981 C33.4202326,21.1960331 33.3452681,21.2257479 33.2660475,21.2691439 C33.1897377,21.3109454 33.1167815,21.3613682 33.0436134,21.4313259 C32.9002717,21.5683779 32.7891532,21.7474586 32.7491468,21.9850273 C32.404896,24.0471444 31.641022,25.7656268 30.4484156,27.2438768 C30.2382578,27.5035986 30.2004579,27.7758007 30.2420052,28.032406 C30.2589254,28.136909 30.2876116,28.2231295 30.325003,28.3075714 C30.3631136,28.3936374 30.4089213,28.4731089 30.4664263,28.5609702 C30.5443459,28.6800227 30.6507275,28.8234096 30.7879413,28.9971711 C31.0126752,29.281764 31.3226319,29.6505628 31.7005434,30.0864124 C31.747805,30.1408797 31.747805,30.1408797 31.7950955,30.1952279 C32.0307563,30.4658773 32.2794907,30.7475613 32.5307615,31.0292444 L31.1376612,32.4972531 C30.8506712,32.2528128 30.5640494,32.0109528 30.2888268,31.7816793 C30.2371714,31.7386725 30.2371714,31.7386725 30.1854198,31.6956887 C29.7370748,31.3235346 29.3580828,31.0178575 29.0667489,30.7959813 C28.8901772,30.6615065 28.7450648,30.5571466 28.6263187,30.4810142 C28.5409467,30.4262791 28.4645051,30.3826281 28.3836303,30.3462149 C28.3055453,30.3110576 28.2265262,30.2834125 28.1309955,30.2650129 C27.8799828,30.2166671 27.6176864,30.239989 27.3470989,30.4397421 C25.7850675,31.5947024 23.9004937,32.3851707 21.8185391,32.7726944 C21.5704521,32.818983 21.3923348,32.9388864 21.2570826,33.0906766 C21.1921103,33.1635935 21.1456481,33.2350554 21.1067897,33.3098233 C21.0664453,33.3874507 21.0379806,33.4619973 21.0122836,33.5449151 C20.9810063,33.6458393 20.9529293,33.7648749 20.9240584,33.9106648 C20.8778745,34.1438799 20.82798,34.4564463 20.7738615,34.8424216 C20.7393272,35.0887215 20.7034309,35.3625402 20.666504,35.6593479 C20.6188931,36.0420305 20.5715002,36.4470077 20.5258344,36.855375 L18.4689058,36.855375 C18.4422074,36.4681305 18.4142942,36.084716 18.3859045,35.7217402 C18.3538056,35.311341 18.3226231,34.9470051 18.292796,34.6401484 C18.2627076,34.3306036 18.2343625,34.0829358 18.2070321,33.8992759 C18.1896381,33.7823883 18.1721669,33.6869167 18.1512288,33.6034529 C18.1324016,33.5284038 18.1108008,33.4604887 18.0771569,33.3857999 C18.0353642,33.2958951 18.0353642,33.2958951 17.9293252,33.1483166 C17.7492699,32.945096 17.7492699,32.945096 17.2432926,32.7948082 C15.5630676,32.6694335 14.0319741,31.9905091 11.7576002,30.5456071 C11.475118,30.3664324 11.2352568,30.3624465 10.9935433,30.418844 C10.9119901,30.4378723 10.8440365,30.4629198 10.7758653,30.493828 C10.7034401,30.5266648 10.6324523,30.565981 10.5519054,30.6152247 C10.4356601,30.6862933 10.2905572,30.7842005 10.1128804,30.9101578 C9.81681386,31.1200431 9.42938869,31.4086414 8.97031058,31.7592153 C8.92438691,31.7943011 8.92438691,31.7943011 8.87852753,31.8294012 C8.57679026,32.0604461 8.26108673,32.3050972 7.94542931,32.5518031 L6.42368798,31.0971251 C6.67144316,30.7909718 6.91682629,30.4854724 7.14895046,30.1934475 C7.1815125,30.1524683 7.1815125,30.1524683 7.21406419,30.111443 C7.57868768,29.6517317 7.87915541,29.2643898 8.09776076,28.969785 C8.22836453,28.7937761 8.32988276,28.6507611 8.40340448,28.5375799 C8.45386661,28.4598972 8.49415058,28.3921107 8.52817294,28.323545 C8.56086041,28.2576695 8.58772361,28.1924559 8.60957513,28.1128698 C8.68272634,27.8464427 8.68555268,27.586809 8.46784001,27.2765176 C7.0683396,25.2795616 6.32601578,23.6607277 6.20325004,21.9920447 C6.18128966,21.6907725 6.04554799,21.4760903 5.86621493,21.3189176 C5.7880845,21.2504418 5.71280494,21.2035559 5.63352585,21.1645327 C5.55563303,21.1261917 5.48115071,21.0994527 5.39713324,21.0749721 C5.29460423,21.0450979 5.17111358,21.017552 5.01837255,20.9887386 C4.77143261,20.9421552 4.43803091,20.8907952 4.02647093,20.8345412 C3.80365943,20.8040862 3.55997688,20.7724928 3.29862352,20.7400115 C2.91481277,20.6923111 2.5085368,20.6445913 2.098875,20.598441 L2.098875,18.4015595 C2.47897672,18.3786859 2.85515102,18.3548148 3.21142856,18.3305723 C3.6075022,18.3036219 3.96036503,18.277451 4.25937334,18.2524322 C4.57258118,18.2262253 4.82290013,18.2016257 5.00704054,18.1781633 C5.12192726,18.163525 5.21498614,18.1489631 5.29451546,18.1319141 C5.3646435,18.1168804 5.4274341,18.0998039 5.49683858,18.0729989 C5.58130646,18.0395948 5.58130646,18.0395948 5.73046834,17.9469251 C5.95429354,17.7830133 5.95429354,17.7830133 6.13847565,17.1949055 C6.22611251,15.2509386 7.08645146,13.142529 8.30122335,11.7717949 C8.6962671,11.3240821 8.66016698,11.1731809 8.46039038,10.7197975 C8.44086398,10.6754833 8.42145563,10.6385057 8.39856889,10.5984335 C8.37311858,10.5538728 8.34189023,10.5035496 8.30223799,10.4422201 C8.23791836,10.3427381 8.14716383,10.2079776 8.03050313,10.0382303 C7.83014153,9.74669392 7.5555735,9.35519179 7.2241983,8.88744056 C6.97634464,8.53773311 6.74169758,8.20835707 6.50519884,7.87757295 L8.06806166,6.30902389 C8.3421936,6.54244369 8.61563599,6.77332927 8.87796615,6.99228645 C8.92268468,7.02959389 8.92268468,7.02959389 8.96747224,7.06688621 C9.3992544,7.42622767 9.76368806,7.72176457 10.0426454,7.93657069 C10.2112419,8.06639542 10.3491818,8.16725295 10.4609602,8.24091735 C10.5410144,8.29367479 10.6121173,8.33587132 10.6869878,8.37171772 C10.7609244,8.40711697 10.8352987,8.43551314 10.9266236,8.45622082 C11.1927966,8.51657494 11.4687035,8.49978709 11.7590264,8.27398039 C13.2746,7.09763452 15.1820282,6.32458342 17.2663417,6.02657062 C17.8286241,5.94569475 17.8990673,5.81931341 18.0545901,5.37093011 C18.06988,5.32684849 18.0803988,5.28839681 18.0904598,5.24581995 C18.1014038,5.19950587 18.1119239,5.1465405 18.1236374,5.08132965 C18.1424151,4.97679135 18.165416,4.83350171 18.1928959,4.6514277 C18.2403593,4.3369491 18.3008615,3.9087882 18.3715367,3.3909705 C18.3828629,3.30789994 18.3828629,3.30789994 18.3941635,3.22468511 C18.4430034,2.86470319 18.4938376,2.48354595 18.5445138,2.098875 L20.7806182,2.098875 C20.8179577,2.48091928 20.8556587,2.85922462 20.8922743,3.21693286 C20.9022535,3.31442233 20.9120591,3.40945913 20.9216733,3.50183346 C20.9733342,3.99819574 21.018265,4.40638065 21.0547833,4.70564655 C21.0759824,4.8793719 21.0943345,5.0164047 21.1103297,5.11791945 C21.1207157,5.18383492 21.13055,5.23816882 21.1418354,5.28782899 C21.1527489,5.33585299 21.1647717,5.37993915 21.183266,5.4311259 C21.3170869,5.80150151 21.4237627,5.97638899 21.9312879,6.06866632 C24.135008,6.4755402 25.9552906,7.22474824 27.3160026,8.35609837 C27.757942,8.7229374 27.9902408,8.66803189 28.3773949,8.48028592 C28.4303009,8.45462974 28.4729609,8.42921629 28.5181214,8.39948171 C28.5657364,8.368131 28.6169432,8.33090936 28.6782941,8.28406564 C28.7744699,8.21063171 28.9024139,8.10802616 29.0626815,7.97630715 C29.3361839,7.75152397 29.7016383,7.44371149 30.1375935,7.0719876 C30.4467848,6.80818747 30.7264338,6.56822096 31.0080237,6.32559521 L32.5680057,7.96566799 C32.3256422,8.27301071 32.0854067,8.57938706 31.8585159,8.87106476 C31.4651782,9.37728082 31.1777763,9.75328447 30.967965,10.0368799 C30.8440482,10.2043743 30.7474685,10.3392341 30.6778192,10.4430041 C30.6320951,10.5111281 30.5955577,10.5692011 30.5646334,10.6251395 C30.535589,10.6776772 30.5109404,10.7284671 30.4879857,10.7903035 C30.3820643,11.0756398 30.3509781,11.3024706 30.5700844,11.657361 C31.6196242,13.358302 32.2745595,14.9627653 32.8136823,17.1858934 C32.8832703,17.4708781 33.0348574,17.6440521 33.2190845,17.7695681 C33.3502234,17.8480473 33.3502234,17.8480473 33.4294508,17.8800781 C33.4975871,17.9068005 33.5613477,17.9249478 33.6324042,17.9411809 C33.7182889,17.9608015 33.8200931,17.9781702 33.9453533,17.9958359 C34.1484575,18.0244801 34.4229879,18.0549548 34.7642821,18.0876584 C35.0430663,18.1143722 35.3633198,18.1422574 35.7173663,18.1709727 C36.0826433,18.2005989 36.4686071,18.2298987 36.858375,18.2580468 L36.858375,20.718017 C36.4506156,20.7577892 36.0463499,20.7993258 35.6641856,20.841412 Z" id="Stroke-1"></path>
                                <path d="M19.246125,9.901125 C13.8771741,9.901125 9.526125,14.2667356 9.526125,19.650375 C9.526125,25.0340144 13.8771741,29.399625 19.246125,29.399625 C24.6147654,29.399625 28.96575,25.0339498 28.96575,19.650375 C28.96575,14.2668002 24.6147654,9.901125 19.246125,9.901125 Z M19.246125,11.848875 C23.5375803,11.848875 27.018,15.3410458 27.018,19.650375 C27.018,23.9597041 23.5375803,27.451875 19.246125,27.451875 C14.9543461,27.451875 11.473875,23.9597559 11.473875,19.650375 C11.473875,15.3409941 14.9543461,11.848875 19.246125,11.848875 Z" id="Stroke-3"></path>
                                <polygon id="Path" points="6.93990544 5.55509231 9.04476076 5.55509231 8.0680617 6.30902389"></polygon>
                                <polygon id="Path-Copy" transform="translate(31.188791, 32.839773) rotate(-180.000000) translate(-31.188791, -32.839773) " points="30.1363636 32.4628069 32.241219 32.4628069 31.2645199 33.2167385"></polygon>
                            </g>
                            <path d="M65.1284129,22.2320675 C65.1284129,23.4922707 64.9080495,24.6293901 64.4673163,25.6434599 C64.0265831,26.6575297 63.4255921,27.5189838 62.6643255,28.2278481 C61.9030588,28.9367124 61.0015724,29.4831204 59.9598392,29.8670886 C58.918106,30.2510568 57.7862398,30.443038 56.5642065,30.443038 C55.3421731,30.443038 54.2103069,30.2510568 53.1685737,29.8670886 C52.1268406,29.4831204 51.220346,28.9367124 50.4490626,28.2278481 C49.6777791,27.5189838 49.0767882,26.6575297 48.6460717,25.6434599 C48.2153552,24.6293901 48,23.4922707 48,22.2320675 L48,9 L51.7862808,9 L51.7862808,22.0843882 C51.7862808,22.6947991 51.8664128,23.3002783 52.0266795,23.9008439 C52.1869463,24.5014095 52.4523837,25.0379723 52.8230005,25.5105485 C53.1936173,25.9831247 53.6844263,26.3670871 54.295443,26.6624473 C54.9064597,26.9578074 55.6627065,27.1054852 56.5642065,27.1054852 C57.4657064,27.1054852 58.2219532,26.9578074 58.8329699,26.6624473 C59.4439866,26.3670871 59.9347957,25.9831247 60.3054124,25.5105485 C60.6760292,25.0379723 60.9414667,24.5014095 61.1017334,23.9008439 C61.2620001,23.3002783 61.3421322,22.6947991 61.3421322,22.0843882 L61.3421322,9 L65.1284129,9 L65.1284129,22.2320675 Z M70.8487255,15.7341772 L70.8487255,17.7130802 L70.9388751,17.7130802 C71.1191749,17.4374107 71.3545632,17.1568228 71.6450465,16.871308 C71.9355297,16.5857932 72.2911159,16.3298183 72.711816,16.1033755 C73.1325162,15.8769328 73.6083007,15.6898742 74.1391838,15.5421941 C74.6700669,15.394514 75.2660497,15.3206751 75.9271497,15.3206751 C76.9488498,15.3206751 77.890402,15.5126563 78.7518353,15.8966245 C79.6132687,16.2805926 80.3544906,16.8073103 80.975524,17.4767932 C81.5965575,18.1462762 82.0773501,18.9338914 82.4179167,19.8396624 C82.7584833,20.7454335 82.9287641,21.7201073 82.9287641,22.7637131 C82.9287641,23.8073189 82.7634915,24.7869153 82.4329416,25.7025316 C82.1023918,26.618148 81.6316155,27.4156084 81.0205988,28.0949367 C80.4095821,28.774265 79.6683602,29.3157504 78.7969101,29.7194093 C77.92546,30.1230681 76.9388334,30.3248945 75.8370002,30.3248945 C74.8153001,30.3248945 73.878756,30.1181455 73.0273394,29.7046414 C72.1759228,29.2911372 71.5198412,28.7299614 71.0590745,28.021097 L70.9989748,28.021097 L70.9989748,37 L67.3929931,37 L67.3929931,15.7341772 L70.8487255,15.7341772 Z M79.2626827,22.7637131 C79.2626827,22.2123742 79.1775425,21.6659661 79.007259,21.1244726 C78.8369756,20.582979 78.5815545,20.0956421 78.2409879,19.6624473 C77.9004214,19.2292524 77.4697113,18.8797482 76.9488445,18.6139241 C76.4279777,18.3480999 75.8169704,18.2151899 75.1158038,18.2151899 C74.4547038,18.2151899 73.8637296,18.3530225 73.3428628,18.628692 C72.8219961,18.9043614 72.3762614,19.2587883 72.0056446,19.6919831 C71.6350279,20.125178 71.3545655,20.6174375 71.1642489,21.1687764 C70.9739323,21.7201153 70.8787754,22.2714459 70.8787754,22.8227848 C70.8787754,23.3741237 70.9739323,23.9205318 71.1642489,24.4620253 C71.3545655,25.0035189 71.6350279,25.4908558 72.0056446,25.9240506 C72.3762614,26.3572455 72.8219961,26.7067497 73.3428628,26.9725738 C73.8637296,27.238398 74.4547038,27.371308 75.1158038,27.371308 C75.8169704,27.371308 76.4279777,27.2334754 76.9488445,26.9578059 C77.4697113,26.6821365 77.9004214,26.3277096 78.2409879,25.8945148 C78.5815545,25.4613199 78.8369756,24.9690604 79.007259,24.4177215 C79.1775425,23.8663826 79.2626827,23.315052 79.2626827,22.7637131 Z M84.5322476,9 L88.3185284,9 L88.3185284,18.0379747 L88.4086779,18.0379747 L97.3034327,9 L102.411907,9 L92.4654073,18.6582278 L103.073003,29.9113924 L97.7541804,29.9113924 L88.4086779,19.4261603 L88.3185284,19.4261603 L88.3185284,29.9113924 L84.5322476,29.9113924 L84.5322476,9 Z M112.249048,21.4050633 C112.249048,20.9521778 112.183941,20.5189894 112.053724,20.1054852 C111.923508,19.6919811 111.718169,19.327709 111.437703,19.0126582 C111.157236,18.6976074 110.801649,18.4465551 110.370933,18.2594937 C109.940216,18.0724323 109.434382,17.978903 108.853416,17.978903 C107.771616,17.978903 106.855105,18.2988716 106.103855,18.9388186 C105.352605,19.5787655 104.936919,20.4008389 104.856786,21.4050633 L112.249048,21.4050633 Z M115.85503,23 L115.85503,23.4725738 C115.85503,23.6300992 115.845014,23.7876223 115.82498,23.9451477 L104.856786,23.9451477 C104.896853,24.4571052 105.032076,24.9247518 105.262459,25.3481013 C105.492842,25.7714508 105.798346,26.1357228 106.178979,26.4409283 C106.559612,26.7461337 106.990323,26.9873409 107.471123,27.164557 C107.951922,27.341773 108.452748,27.4303797 108.973615,27.4303797 C109.875115,27.4303797 110.63637,27.2679341 111.257403,26.943038 C111.878437,26.6181418 112.389279,26.1701857 112.789946,25.5991561 L115.193933,27.4894515 C113.771567,29.3797563 111.708165,30.3248945 109.003665,30.3248945 C107.881798,30.3248945 106.850097,30.1526037 105.908531,29.8080169 C104.966964,29.4634301 104.150618,28.9760932 103.459468,28.3459916 C102.768318,27.71589 102.227426,26.9430426 101.836776,26.0274262 C101.446126,25.1118098 101.250804,24.0731422 101.250804,22.9113924 C101.250804,21.7693332 101.446126,20.7306657 101.836776,19.7953586 C102.227426,18.8600516 102.76331,18.0625912 103.444443,17.4029536 C104.125576,16.743316 104.931906,16.2313661 105.863456,15.8670886 C106.795006,15.5028111 107.801666,15.3206751 108.883466,15.3206751 C109.885132,15.3206751 110.81166,15.4831207 111.663076,15.8080169 C112.514493,16.132913 113.250707,16.6153273 113.87174,17.2552743 C114.492774,17.8952212 114.978574,18.6926816 115.329158,19.6476793 C115.679741,20.6026771 115.85503,21.7201061 115.85503,23 Z M127.435063,21.4050633 C127.435063,20.9521778 127.369955,20.5189894 127.239739,20.1054852 C127.109522,19.6919811 126.904183,19.327709 126.623717,19.0126582 C126.34325,18.6976074 125.987664,18.4465551 125.556947,18.2594937 C125.126231,18.0724323 124.620397,17.978903 124.03943,17.978903 C122.95763,17.978903 122.041119,18.2988716 121.289869,18.9388186 C120.538619,19.5787655 120.122934,20.4008389 120.0428,21.4050633 L127.435063,21.4050633 Z M131.041045,23 L131.041045,23.4725738 C131.041045,23.6300992 131.031028,23.7876223 131.010995,23.9451477 L120.0428,23.9451477 C120.082867,24.4571052 120.21809,24.9247518 120.448473,25.3481013 C120.678857,25.7714508 120.98436,26.1357228 121.364994,26.4409283 C121.745627,26.7461337 122.176337,26.9873409 122.657137,27.164557 C123.137937,27.341773 123.638763,27.4303797 124.15963,27.4303797 C125.061129,27.4303797 125.822384,27.2679341 126.443418,26.943038 C127.064451,26.6181418 127.575293,26.1701857 127.97596,25.5991561 L130.379948,27.4894515 C128.957581,29.3797563 126.894179,30.3248945 124.189679,30.3248945 C123.067813,30.3248945 122.036112,30.1526037 121.094545,29.8080169 C120.152979,29.4634301 119.336632,28.9760932 118.645483,28.3459916 C117.954333,27.71589 117.413441,26.9430426 117.022791,26.0274262 C116.632141,25.1118098 116.436819,24.0731422 116.436819,22.9113924 C116.436819,21.7693332 116.632141,20.7306657 117.022791,19.7953586 C117.413441,18.8600516 117.949324,18.0625912 118.630458,17.4029536 C119.311591,16.743316 120.11792,16.2313661 121.04947,15.8670886 C121.98102,15.5028111 122.98768,15.3206751 124.06948,15.3206751 C125.071147,15.3206751 125.997674,15.4831207 126.849091,15.8080169 C127.700507,16.132913 128.436721,16.6153273 129.057755,17.2552743 C129.678788,17.8952212 130.164589,18.6926816 130.515172,19.6476793 C130.865756,20.6026771 131.041045,21.7201061 131.041045,23 Z M135.919961,15.7341772 L135.919961,17.7130802 L136.010111,17.7130802 C136.190411,17.4374107 136.425799,17.1568228 136.716282,16.871308 C137.006766,16.5857932 137.362352,16.3298183 137.783052,16.1033755 C138.203752,15.8769328 138.679536,15.6898742 139.21042,15.5421941 C139.741303,15.394514 140.337286,15.3206751 140.998386,15.3206751 C142.020085,15.3206751 142.961638,15.5126563 143.823071,15.8966245 C144.684505,16.2805926 145.425726,16.8073103 146.04676,17.4767932 C146.667793,18.1462762 147.148586,18.9338914 147.489153,19.8396624 C147.829719,20.7454335 148,21.7201073 148,22.7637131 C148,23.8073189 147.834727,24.7869153 147.504178,25.7025316 C147.173627,26.618148 146.702851,27.4156084 146.091835,28.0949367 C145.480818,28.774265 144.739596,29.3157504 143.868146,29.7194093 C142.996696,30.1230681 142.010069,30.3248945 140.908236,30.3248945 C139.886536,30.3248945 138.949992,30.1181455 138.098575,29.7046414 C137.247159,29.2911372 136.591077,28.7299614 136.13031,28.021097 L136.070211,28.021097 L136.070211,37 L132.464229,37 L132.464229,15.7341772 L135.919961,15.7341772 Z M144.333919,22.7637131 C144.333919,22.2123742 144.248778,21.6659661 144.078495,21.1244726 C143.908211,20.582979 143.65279,20.0956421 143.312224,19.6624473 C142.971657,19.2292524 142.540947,18.8797482 142.02008,18.6139241 C141.499214,18.3480999 140.888206,18.2151899 140.18704,18.2151899 C139.52594,18.2151899 138.934965,18.3530225 138.414099,18.628692 C137.893232,18.9043614 137.447497,19.2587883 137.076881,19.6919831 C136.706264,20.125178 136.425801,20.6174375 136.235485,21.1687764 C136.045168,21.7201153 135.950011,22.2714459 135.950011,22.8227848 C135.950011,23.3741237 136.045168,23.9205318 136.235485,24.4620253 C136.425801,25.0035189 136.706264,25.4908558 137.076881,25.9240506 C137.447497,26.3572455 137.893232,26.7067497 138.414099,26.9725738 C138.934965,27.238398 139.52594,27.371308 140.18704,27.371308 C140.888206,27.371308 141.499214,27.2334754 142.02008,26.9578059 C142.540947,26.6821365 142.971657,26.3277096 143.312224,25.8945148 C143.65279,25.4613199 143.908211,24.9690604 144.078495,24.4177215 C144.248778,23.8663826 144.333919,23.315052 144.333919,22.7637131 Z" id="Type"></path>
                        </g>
                    </g>
                </g>
            </g>
        </g>
    </g>
</svg>