<?xml version="1.0" encoding="utf-8"?>
<!-- Generator: Adobe Illustrator 19.0.0, SVG Export Plug-In . SVG Version: 6.00 Build 0)  -->
<svg version="1.1" id="Layer_1" xmlns="http://www.w3.org/2000/svg" xmlns:xlink="http://www.w3.org/1999/xlink" x="0px" y="0px"
	 viewBox="0 0 380.4 103.1" style="enable-background:new 0 0 380.4 103.1;" xml:space="preserve">
<style type="text/css">
	.st0{fill:none;stroke:#FF3B30;stroke-width:5.1944;stroke-linecap:round;stroke-linejoin:round;stroke-miterlimit:100;}
	.st1{fill:none;stroke:#FF3B30;stroke-width:5.1944;stroke-miterlimit:100;}
	.st2{fill:#FF3B30;}
</style>
<g id="Ellipse_1_copy">
	<g id="XMLID_44_">
		<path id="XMLID_45_" class="st0" d="M100.5,57.2V45.9c0,0-10.8-0.7-10.9-1c-1.5-6.3-3.4-10.8-6.3-15.5c-0.1-0.2,6.6-8.6,6.6-8.6
			l-7.4-7.8c0,0-8.2,7.1-8.4,7c-4.3-3.6-9.8-5.6-15.6-6.7c-0.2,0-1.2-10.6-1.2-10.6H46.8c0,0-1.4,10.5-1.5,10.5
			c-5.9,0.8-11.4,3-15.9,6.5C29,19.9,21,12.9,21,12.9l-7.4,7.4c0,0,6.3,8.8,6.2,8.9c-3.5,4-6.1,10.1-6.4,16.1
			c0,0.3-10.8,0.9-10.8,0.9v10.6c0,0,10.9,1.1,11,1.6c0.4,5.7,3.3,10.9,6.5,15.4c0.2,0.3-6.9,8.9-6.9,8.9l7.4,7.1
			c0,0,8.6-6.8,8.9-6.6c4.8,3,10,6,15.8,6.4c0.4,0,1,10.8,1,10.8h10.2c0,0,1.1-10.8,1.6-10.9c5.8-1.1,11.2-3.3,15.8-6.7
			c0.4-0.3,8.7,7,8.7,7l7.1-7.4c0,0-7.4-8.1-7.1-8.5c3.4-4.2,5.7-9.1,6.7-15.2C89.6,58.2,100.5,57.2,100.5,57.2z"/>
	</g>
</g>
<g id="Ellipse_1">
	<g id="XMLID_41_">
		<ellipse id="XMLID_42_" class="st1" cx="51.7" cy="51.5" rx="23.3" ry="23.4"/>
	</g>
</g>
<g id="XMLID_47_">
	<path id="XMLID_48_" class="st2" d="M134.8,22v35.9c0,13.6,6,19.4,14.1,19.4c9,0,14.8-5.9,14.8-19.4V22h7.9v35.4
		c0,18.6-9.8,26.3-23,26.3c-12.4,0-21.8-7.1-21.8-25.9V22H134.8z"/>
	<path id="XMLID_50_" class="st2" d="M177.7,53.3c0-5.6-0.2-10.1-0.4-14.2h7.1l0.4,7.5h0.2c3.2-5.3,8.4-8.5,15.5-8.5
		C211,38.1,219,47,219,60.3c0,15.7-9.5,23.4-19.8,23.4c-5.8,0-10.8-2.5-13.4-6.8h-0.2v23.7h-7.8V53.3z M185.6,65
		c0,1.2,0.2,2.3,0.4,3.2c1.4,5.5,6.2,9.3,11.9,9.3c8.4,0,13.2-6.8,13.2-16.8c0-8.7-4.6-16.2-13-16.2c-5.4,0-10.4,3.9-12,9.8
		c-0.3,1-0.5,2.2-0.5,3.2V65z"/>
	<path id="XMLID_71_" class="st2" d="M222,22h7.8v29.3h0.3c1.6-2.3,3.2-4.5,4.8-6.5L253.5,22h9.7l-22,25.8l23.7,34.9h-9.3l-20-29.8
		l-5.8,6.7v23.1H222V22z"/>
	<path id="XMLID_73_" class="st2" d="M267.8,62.3c0.2,10.7,7,15.1,14.9,15.1c5.7,0,9.1-1,12.1-2.3l1.4,5.7
		c-2.8,1.3-7.6,2.7-14.5,2.7c-13.4,0-21.4-8.8-21.4-22c0-13.1,7.7-23.5,20.4-23.5c14.2,0,18,12.5,18,20.5c0,1.6-0.2,2.9-0.3,3.7
		H267.8z M291,56.7c0.1-5-2.1-12.9-11-12.9c-8,0-11.5,7.4-12.2,12.9H291z"/>
	<path id="XMLID_76_" class="st2" d="M305.7,62.3c0.2,10.7,7,15.1,14.9,15.1c5.7,0,9.1-1,12.1-2.3l1.4,5.7
		c-2.8,1.3-7.6,2.7-14.5,2.7c-13.4,0-21.4-8.8-21.4-22c0-13.1,7.7-23.5,20.4-23.5c14.2,0,18,12.5,18,20.5c0,1.6-0.2,2.9-0.3,3.7
		H305.7z M328.9,56.7c0.1-5-2.1-12.9-11-12.9c-8,0-11.5,7.4-12.2,12.9H328.9z"/>
	<path id="XMLID_79_" class="st2" d="M339.2,53.3c0-5.6-0.2-10.1-0.4-14.2h7.1l0.4,7.5h0.2c3.2-5.3,8.4-8.5,15.5-8.5
		c10.5,0,18.5,8.9,18.5,22.2c0,15.7-9.5,23.4-19.8,23.4c-5.8,0-10.8-2.5-13.4-6.8H347v23.7h-7.8V53.3z M347,65
		c0,1.2,0.2,2.3,0.4,3.2c1.4,5.5,6.2,9.3,11.9,9.3c8.4,0,13.2-6.8,13.2-16.8c0-8.7-4.6-16.2-13-16.2c-5.4,0-10.4,3.9-12,9.8
		c-0.3,1-0.5,2.2-0.5,3.2V65z"/>
</g>
</svg>
