<svg xmlns="http://www.w3.org/2000/svg" width="121" height="18" viewBox="0 0 120.931 17.535"><g fill="#d75532"><path d="M30.9 9.622h-1.6c-.16 0-.2.058-.2.117v1.428c0 .138.044.167.16.167h1.398c.205 0 .234.045.22.13l-.03.415c-.03.146-.197.132-.343.132h-1.223c-.14 0-.168.05-.168.175v1.967c0 .102-.044.13-.117.13h-.583c-.095 0-.152-.05-.152-.2V9.2c0-.137.007-.24.138-.24h2.55c.175 0 .197.044.197.116v.4c0 .13-.073.153-.248.153m3.45 4.667h-.46c-.1 0-.175-.022-.175-.2v-.307c-.145.313-.62.6-1.18.6-.715 0-1.304-.57-1.304-2.02 0-1.282.45-2.083 1.3-2.083.626 0 .984.233 1.195.604v-.32c0-.1.044-.182.13-.182h.467c.204 0 .2.065.2.218V14c0 .2-.014.285-.175.285m-.692-2.543c0-.32-.226-.926-.8-.926-.495 0-.766.35-.766 1.2v.612c0 .714.263 1.173.78 1.173.495 0 .787-.532.787-.736v-1.333zm3.034 2.624c-1.13 0-1.792-.467-1.792-2.02 0-1.522.73-2.083 1.83-2.083.62 0 1.05.16 1.333.546.095.147-.517.555-.6.424a.82.82 0 0 0-.75-.409c-.54 0-.933.358-.933 1.152v.713c0 .795.415 1.116.933 1.116.327 0 .583-.197.743-.46.073-.153.664.13.604.263-.254.473-.707.758-1.377.758m2.553-4.7h-.48c-.147 0-.182-.036-.182-.24v-.264c0-.166.028-.2.196-.2h.46c.16 0 .154.086.154.247v.248c0 .176-.03.22-.146.22m0 4.62h-.5c-.132 0-.153-.065-.153-.255v-3.447c0-.145.028-.218.175-.218h.458c.176 0 .176.058.176.218v3.447c0 .2-.008.255-.146.255m1.576-.012h-.48c-.154 0-.183-.036-.183-.24V9.068c0-.132.03-.197.175-.197h.46c.175 0 .175.06.175.22v4.94c0 .2-.007.255-.146.255m1.58-4.62h-.48c-.145 0-.182-.036-.182-.24v-.264c0-.166.03-.2.197-.2h.458c.16 0 .153.086.153.247v.248c0 .176-.028.22-.145.22m0 4.62h-.5c-.13 0-.152-.065-.152-.255v-3.447c0-.145.03-.218.175-.218h.46c.174 0 .174.058.174.218v3.447c0 .2-.007.255-.145.255m2.732-3.27h-.67v2.36c0 .24.116.386.313.386.145 0 .218-.008.364-.044.08-.014.14.518.073.547-.117.044-.416.088-.685.088-.7 0-.9-.474-.9-.955V11h-.365c-.095 0-.117-.06-.117-.154v-.276c0-.116.022-.145.16-.145h.35v-.73c0-.13.088-.168.205-.182l.393-.074c.153-.028.197.037.197.182v.803h.7c.14 0 .167.065.167.16v.278c0 .094-.02.145-.174.145m1.38-1.35h-.48c-.146 0-.182-.036-.182-.24v-.264c0-.166.03-.2.196-.2h.46c.16 0 .153.086.153.247v.248c0 .176-.028.22-.146.22m0 4.62h-.5c-.13 0-.153-.065-.153-.255v-3.447c0-.145.03-.218.175-.218h.46c.175 0 .175.058.175.218v3.447c0 .2-.007.255-.146.255m3.798-1.73h-2.163c0 .844.415 1.188 1.1 1.188.598 0 .947-.118 1.08-.162.13-.05.204-.014.204.066v.364c0 .132-.052.16-.24.22a5.09 5.09 0 0 1-1.078.125c-1.255 0-1.895-.562-1.895-2.004 0-1.4.583-2.1 1.7-2.1 1.012 0 1.602.562 1.602 1.538v.452c.001.2-.03.314-.3.314m-1.317-1.78c-.583 0-.817.495-.824 1.078 0 .102-.007.146.095.146h1.473c.073 0 .08-.036.08-.138-.014-.7-.226-1.086-.823-1.086m3.292 3.578c-.715 0-1.108-.154-1.254-.233-.072-.037-.043-.604.103-.555s.4.183.97.183c.473 0 .743-.14.743-.5 0-.298-.247-.53-.736-.787-.554-.283-1.05-.575-1.05-1.166 0-.706.684-1.04 1.42-1.04.54 0 .9.08.984.124.08.036-.05.56-.175.54a3.2 3.2 0 0 0-.757-.116c-.423 0-.657.16-.657.473 0 .226.315.415.693.62.686.365 1.115.707 1.115 1.384 0 .897-.742 1.087-1.4 1.087m8.105-.085h-.488c-.2 0-.234-.05-.234-.24v-3.7c0-.138-.022-.13-.102-.008l-1.085 1.896c-.095.16-.116.197-.2.197h-.16c-.103 0-.1-.03-.205-.205l-1.028-1.85c-.08-.13-.116-.1-.116.014v3.717c0 .124-.015.2-.174.2h-.474c-.124 0-.233-.007-.233-.24v-4.86c0-.188.058-.232.18-.232h.554a.23.23 0 0 1 .241.138l1.3 2.178c.03.045.073.05.102.008l1.3-2.172c.058-.102.146-.152.233-.152h.6c.16 0 .153.08.153.247v4.9c0 .138-.022.196-.168.196m3.773-.001h-.46c-.1 0-.175-.022-.175-.2v-.307c-.147.313-.62.6-1.18.6-.715 0-1.304-.57-1.304-2.02 0-1.282.45-2.083 1.3-2.083.626 0 .984.233 1.195.604v-.32c0-.1.043-.182.13-.182h.467c.204 0 .2.065.2.218V14c-.001.2-.016.285-.175.285m-.692-2.543c0-.32-.226-.926-.802-.926-.495 0-.765.35-.765 1.2v.612c0 .714.262 1.173.78 1.173.495 0 .787-.532.787-.736v-1.333zm4.468 2.543h-.473c-.124 0-.2-.08-.2-.263v-2.316c0-.387-.182-.722-.684-.722-.562 0-.8.475-.8.83v2.194c0 .2-.007.277-.146.277h-.46c-.16 0-.204-.08-.204-.27V10.6c0-.146.03-.226.174-.226h.467c.124 0 .175.124.175.46.248-.343.605-.546 1.158-.546.62 0 1.15.32 1.15 1.253v2.42c0 .24-.028.335-.16.335m3.825 0h-.46c-.1 0-.175-.022-.175-.2v-.307c-.145.313-.62.6-1.18.6-.714 0-1.304-.57-1.304-2.02 0-1.282.45-2.083 1.3-2.083.628 0 .985.233 1.195.604v-.32c0-.1.044-.182.132-.182h.466c.204 0 .2.065.2.218V14c0 .2-.015.285-.175.285m-.692-2.543c0-.32-.226-.926-.8-.926-.496 0-.765.35-.765 1.2v.612c0 .714.262 1.173.78 1.173.496 0 .787-.532.787-.736v-1.333zm3.17 4.103c-.68 0-.977-.073-1.145-.1-.138-.036-.2-.058-.2-.2v-.372c0-.095.05-.117.285-.058.26.066.597.154.983.154.53 0 .78-.336.8-1.174l-.007-.263c-.263.357-.627.533-1.18.533-.75 0-1.304-.56-1.304-2.055 0-1.24.45-2.048 1.26-2.048.473 0 .933.132 1.224.517 0-.358.03-.415.175-.415h.445c.2 0 .182.102.182.263v3.104c0 1.544-.488 2.113-1.508 2.113m.648-4.117c0-.372-.226-.9-.794-.9-.496 0-.773.502-.773 1.23v.613c0 .707.256 1.144.78 1.144.503 0 .787-.467.787-.68v-1.398zm4.388.83h-2.164c0 .844.415 1.188 1.1 1.188.598 0 .946-.118 1.078-.162.132-.05.203-.014.203.066v.364c0 .132-.05.16-.24.22-.1.036-.648.125-1.078.125-1.253 0-1.894-.562-1.894-2.004 0-1.4.583-2.1 1.7-2.1 1.013 0 1.602.562 1.602 1.538v.452c0 .2-.028.314-.3.314m-1.318-1.78c-.584 0-.817.495-.824 1.078 0 .102-.007.146.095.146h1.472c.073 0 .08-.036.08-.138-.015-.7-.226-1.086-.823-1.086m7.145 3.497h-.48c-.16 0-.182-.08-.182-.263v-2.316c0-.387-.103-.73-.605-.73-.474 0-.662.37-.736.73v2.244c0 .24-.036.335-.168.335h-.494c-.118 0-.16-.08-.16-.263v-2.316c0-.387-.102-.73-.612-.73-.56 0-.743.482-.743.837v2.194c0 .2-.007.277-.147.277h-.458c-.16 0-.204-.08-.204-.27V10.6c0-.146.03-.226.174-.226h.466c.125 0 .175.073.175.408.256-.342.54-.495 1.05-.495a.99.99 0 0 1 1.006.655c.276-.408.626-.655 1.158-.655.612 0 1.122.32 1.122 1.253v2.42c.001.24-.03.335-.16.335m3.685-1.718h-2.164c0 .844.416 1.188 1.1 1.188.597 0 .947-.118 1.078-.162.132-.05.204-.014.204.066v.364c0 .132-.05.16-.24.22-.102.036-.65.125-1.08.125-1.253 0-1.895-.562-1.895-2.004 0-1.4.584-2.1 1.692-2.1 1.012 0 1.602.562 1.602 1.538v.452c0 .2-.03.314-.3.314m-1.318-1.78c-.584 0-.817.495-.824 1.078 0 .102-.007.146.095.146h1.472c.072 0 .08-.036.08-.138-.014-.7-.225-1.086-.822-1.086m5.118 3.497h-.474c-.124 0-.2-.08-.2-.263v-2.316c0-.387-.183-.722-.686-.722-.56 0-.808.475-.808.83v2.194c0 .2-.008.277-.146.277h-.46c-.16 0-.205-.08-.205-.27V10.6c0-.146.03-.226.176-.226h.466c.124 0 .175.124.175.46.248-.343.604-.546 1.16-.546.62 0 1.15.32 1.15 1.253v2.42c0 .24-.03.335-.16.335"/><path d="M95.05 11.028h-.67v2.36c0 .24.116.386.313.386.145 0 .218-.008.363-.044.08-.014.14.518.073.547-.116.044-.414.088-.684.088-.7 0-.9-.474-.9-.955V11h-.365c-.094 0-.116-.06-.116-.154v-.276c0-.116.022-.145.16-.145h.35v-.73c0-.13.088-.168.204-.182l.393-.074c.154-.028.198.037.198.182v.803h.698c.14 0 .168.065.168.16v.278c0 .094-.02.145-.174.145m5.086 1.55h-2.163c0 .844.415 1.188 1.1 1.188.598 0 .948-.118 1.08-.162.13-.05.204-.014.204.066v.364c0 .132-.05.16-.24.22-.102.036-.65.125-1.08.125-1.253 0-1.894-.562-1.894-2.004 0-1.4.583-2.1 1.7-2.1 1.013 0 1.603.562 1.603 1.538v.452c0 .2-.03.314-.3.314m-1.318-1.78c-.583 0-.816.495-.824 1.078 0 .102-.006.146.095.146h1.473c.073 0 .08-.036.08-.138-.015-.7-.225-1.086-.823-1.086m6.2 3.497h-.648c-.138 0-.212-.08-.314-.233l-1.15-1.814c-.007 0-1.166 1.814-1.166 1.814-.138.212-.167.233-.27.233h-.517c-.2 0-.197-.05-.074-.233l1.574-2.42-1.595-2.463c-.088-.145-.08-.218.073-.218h.62c.145 0 .218.044.342.24l1.13 1.757 1.123-1.757c.124-.195.16-.24.342-.24h.452c.153 0 .16.073.067.218l-1.538 2.383 1.624 2.5c.116.168.08.233-.073.233m2.433.082c-.554 0-.917-.16-1.18-.5v1.7c0 .175-.03.24-.13.24h-.48c-.175 0-.196-.058-.196-.24v-4.94c0-.16 0-.262.2-.262h.444c.1 0 .175.05.175.204v.27c.277-.393.707-.575 1.224-.575.8 0 1.26.808 1.26 2.048-.001 1.494-.552 2.055-1.304 2.055m.443-2.32c0-.73-.276-1.232-.77-1.232-.568 0-.794.54-.794.912v1.413c0 .197.3.664.786.664.524 0 .78-.438.78-1.145v-.612zm3.3-1.193c-.015.073-.044.1-.1.1-.196 0-.422.05-.6.154-.336.197-.554.465-.554.698V14c0 .2-.008.277-.146.277h-.46c-.16 0-.205-.08-.205-.27V10.6c0-.145.03-.225.176-.225h.466c.094 0 .174.043.174.2v.372c.293-.416.708-.612 1.152-.612.058 0 .124 0 .117.08l-.022.46zm3.168 1.713h-2.163c0 .844.414 1.188 1.1 1.188.597 0 .947-.118 1.078-.162.132-.05.204-.014.204.066v.364c0 .132-.05.16-.24.22-.102.036-.65.125-1.08.125-1.254 0-1.894-.562-1.894-2.004 0-1.4.583-2.1 1.7-2.1 1 0 1.602.562 1.602 1.538v.452c-.001.2-.028.314-.3.314m-1.318-1.78c-.583 0-.817.495-.823 1.078 0 .102-.008.146.094.146h1.473c.072 0 .08-.036.08-.138-.015-.7-.227-1.086-.823-1.086m3.297 3.578c-.715 0-1.107-.154-1.253-.233-.073-.037-.044-.604.1-.555s.402.183.97.183c.473 0 .743-.14.743-.5 0-.298-.248-.53-.735-.787-.554-.283-1.05-.575-1.05-1.166 0-.706.685-1.04 1.42-1.04.54 0 .888.08.984.124.08.036-.05.56-.176.54a3.19 3.19 0 0 0-.757-.116c-.422 0-.656.16-.656.473 0 .226.314.415.692.62.685.365 1.115.707 1.115 1.384 0 .897-.744 1.087-1.4 1.087m3.188-.004c-.715 0-1.108-.154-1.254-.233-.073-.037-.043-.604.102-.555s.4.183.97.183c.473 0 .743-.14.743-.5 0-.298-.25-.53-.736-.787-.554-.283-1.05-.575-1.05-1.166 0-.706.685-1.04 1.42-1.04.54 0 .9.08.984.124.08.036-.05.56-.175.54-.124-.036-.473-.116-.757-.116-.423 0-.657.16-.657.473 0 .226.314.415.693.62.685.365 1.115.707 1.115 1.384 0 .897-.743 1.087-1.4 1.087M19.938 8.103a.17.17 0 0 0-.036-.075c-.017-.02-.04-.033-.073-.04l-.615-.15a.21.21 0 0 0-.066-.007c-.022.002-.043.008-.064.02a.15.15 0 0 0-.056.054.31.31 0 0 0-.045.1l-.875 2.804c-.004.007-.005.014-.01.02-.013.02-.017.022-.02.024-.016.002-.02 0-.024-.002-.015-.017-.018-.024-.023-.03l-.01-.028-1.025-3.33a.84.84 0 0 0-.058-.142c-.02-.037-.04-.064-.062-.083s-.044-.035-.067-.045-.05-.015-.075-.022c-.018-.005-.022-.005-.023-.005l-.8-.197c-.053-.013-.098-.018-.136-.016s-.07.016-.096.04-.044.06-.056.113-.02.118-.02.202v8.742c0 .102.01.176.027.232s.042.1.07.1.06.03.093.03.065-.007.097-.014l.044-.012.862-.208c.05-.012.088-.03.117-.05s.05-.044.063-.075a.34.34 0 0 0 .023-.103 1.4 1.4 0 0 0 .005-.136V10.92a.3.3 0 0 1 .003-.045c.002-.013.006-.025.01-.034s.01-.016.015-.02c.02-.008.028-.006.03-.002s.01.01.018.017.01.015.016.026.01.024.016.04l.687 2.44.045.166c.01.042.02.073.033.093s.027.032.045.037a.22.22 0 0 0 .075.002l.098-.012c.024-.003.04-.007.054-.017s.026-.025.037-.048.023-.053.033-.096l.044-.16.647-2.383c.004-.013.01-.026.015-.036s.007-.02.013-.03.01-.013.012-.018c.017-.005.02-.003.023.002.01.026.01.036.012.05l.003.046v4.287a.99.99 0 0 0 .011.17.22.22 0 0 0 .038.097c.02.024.042.036.07.04s.063.001.105-.01l.597-.145a.19.19 0 0 0 .075-.031c.018-.014.034-.033.044-.056s.017-.05.022-.087a1.08 1.08 0 0 0 .005-.122l-.001-6.877c-.002-.045-.006-.082-.012-.112"/><path d="M22.718 14.45a.54.54 0 0 0-.024-.12l-.788-2.776.738-2.53a.89.89 0 0 0 .024-.113.35.35 0 0 0 .003-.084c-.005-.023-.01-.04-.023-.055a.09.09 0 0 0-.048-.03l-.343-.083c-.033-.007-.057-.01-.078-.005a.1.1 0 0 0-.054.03.27.27 0 0 0-.042.077c-.013.034-.025.077-.04.13l-.5 1.57-.512-1.838-.05-.162c-.02-.045-.04-.08-.06-.108a.24.24 0 0 0-.067-.065c-.025-.016-.052-.027-.08-.034l-.595-.145c-.03-.007-.056-.006-.074.004s-.03.027-.035.052a.29.29 0 0 0 .001.102 1.3 1.3 0 0 0 .033.152l.977 3.274-.98 3.253a1.07 1.07 0 0 0-.038.168.21.21 0 0 0 .004.1c.01.024.024.037.046.04a.21.21 0 0 0 .09-.007l.497-.12c.023-.006.043-.014.062-.027s.03-.03.045-.054a.49.49 0 0 0 .041-.093c.014-.038.028-.085.042-.143l.104-.37.2-.703.186-.663.085-.295.5 1.742.035.105a.34.34 0 0 0 .037.069c.012.016.026.028.042.034s.034.007.054.002l.477-.116c.023-.005.042-.014.057-.028s.026-.032.032-.055.006-.05.003-.083m-7.27-7.446a.35.35 0 0 0-.028-.1c-.014-.03-.034-.057-.063-.08s-.064-.04-.1-.053l-3.594-.953c-.058-.015-.24-.015-.24.276V17.23a.76.76 0 0 0 .026.165c.003.01.008.017.012.025l.008.02c.006.013.014.025.022.035l.017.02c.037.032.068.042.105.042h.004a.36.36 0 0 0 .092-.014l.014-.003 1.246-.33c.024-.006.05-.02.07-.04s.042-.046.06-.08a.7.7 0 0 0 .04-.122c.01-.048.015-.104.015-.166v-3.568a.64.64 0 0 1 .016-.152c.01-.044.026-.084.047-.115a.24.24 0 0 1 .187-.106l1.304-.074.024-.001.025-.001c.032-.003.067-.006.102-.015a.32.32 0 0 0 .104-.05c.034-.024.063-.063.085-.114a.68.68 0 0 0 .05-.206l.04-1.242a.56.56 0 0 0-.001-.123.24.24 0 0 0-.032-.099c-.018-.03-.044-.053-.078-.07s-.08-.028-.138-.03l-1.543-.07c-.03-.001-.06-.008-.085-.02a.17.17 0 0 1-.067-.062c-.02-.03-.034-.063-.044-.108s-.017-.1-.017-.162v-1.87c0-.03.004-.058.01-.086a.14.14 0 0 1 .037-.07c.02-.02.044-.034.077-.042s.074-.008.127 0l1.77.292a.5.5 0 0 0 .145.008c.04-.005.072-.017.095-.043s.042-.06.054-.113.017-.115.017-.2V7.117a.83.83 0 0 0-.007-.114"/></g><path fill="#f9c606" d="M10.826 17.535h.004c.037 0 .068-.01.093-.03l.03-.032c.008-.01.015-.02.022-.034l.01-.02c.003-.008.008-.015.01-.025a.71.71 0 0 0 .025-.165V6.064c.002-.2-.168-.27-.237-.25L.06 8.692c-.015.005-.03.014-.04.026s-.02.033-.02.045v5.873c0 .02.002.05.025.08.01.012.025.024.044.03l10.757 2.79M1.04 14.487l-.578-.147v-1.07l.578.09v1.128zm0-1.45l-.578-.07v-1.07l.578.014v1.128zm0-1.45l-.578.004V10.52l.578-.06v1.128zm0-1.45l-.578.08v-1.07l.578-.136v1.127zm.922 4.584l-.68-.17v-1.152l.68.105v1.218zm0-1.57l-.68-.083v-1.15l.68.017v1.217zm0-1.57l-.68.004v-1.152l.68-.07v1.22zm0-1.57l-.68.092v-1.15l.68-.16v1.217zm1.08 4.98l-.806-.202v-1.245l.806.124v1.323zm0-1.71l-.806-.098V11.94l.806.02v1.323zm0-1.708l-.806.006v-1.246l.806-.083v1.323zm0-1.7l-.806.11V8.73l.806-.187v1.32zm1.28 1.702l-.97.006v-1.354l.97-.098v1.446zm0-1.872l-.97.13V8.47l.97-.222v1.446zm1.542 5.997l-1.18-.29v-1.48l1.18.18v1.593zm0-2.067l-1.18-.142V12l1.18.03v1.594zm0-2.066l-1.18.006V10.08l1.18-.12v1.596zm0-2.07l-1.18.157v-1.48l1.18-.27v1.592zm1.897 6.667l-1.47-.36v-1.633l1.47.22v1.773zm0-2.305l-1.47-.175V12.04l1.47.036v1.773zm0-2.304l-1.47.01V9.92l1.47-.147v1.774zm0-2.306l-1.47.192V7.798l1.47-.33V9.24zm2.385 7.49l-1.868-.45V14.46l1.868.277v1.995zm0-2.6l-1.868-.22V12.1l1.868.047v1.995zm0-2.598l-1.868.01V9.72l1.868-.183v1.997zm0-2.6l-1.868.24V7.35l1.868-.412v1.994z"/><path fill="#129dc0" d="M20.816 5.927a2.56 2.56 0 0 0-2.351-1.334 4.67 4.67 0 0 0-.463-1.224c-.994-1.816-3.028-2.728-5.004-2.275C11.878-.07 10.1-.343 8.68.46c-.7.397-1.244 1.014-1.555 1.757-.73-.164-1.496-.05-2.154.322a3.1 3.1 0 0 0-1.575 2.725c-.413.065-.792.26-1.094.565a2 2 0 0 0-.576 1.412l.001.024a1.69 1.69 0 0 0 .035.367c.023.045.07.07.116.066l.512-.144c.047-.017.077-.06.08-.106a2.2 2.2 0 0 1 .002-.354c.067-.56.465-1.076 1.195-1.076.185 0 .348.035.49.094a2.33 2.33 0 0 1-.06-.517c0-.194.028-.383.072-.565.096-.454.343-.87.7-1.185a2.37 2.37 0 0 1 1.6-.632 2.32 2.32 0 0 1 .979.216c.408-1.26 1.606-2.19 2.988-2.19.95 0 1.81.44 2.392 1.125l.136-.035h.001c.356-.115.734-.176 1.125-.176 1.954 0 3.602 1.54 3.782 3.453l.01-.002a1.73 1.73 0 0 1 .821-.195c1.143 0 1.875 1.124 1.68 2.01-.02.075.012.146.076.17h.001l.467.118h.002c.058.026.127.001.157-.055l.007-.025a2.27 2.27 0 0 0 .033-.419 2.66 2.66 0 0 0-.321-1.279"/></svg>