<?xml version="1.0" encoding="utf-8"?>
<!-- Generator: Adobe Illustrator 22.1.0, SVG Export Plug-In . SVG Version: 6.00 Build 0)  -->
<svg version="1.1" id="Layer_2_1_" xmlns="http://www.w3.org/2000/svg" xmlns:xlink="http://www.w3.org/1999/xlink" x="0px" y="0px"
	 viewBox="0 0 520.6 505.4" style="enable-background:new 0 0 520.6 505.4;" xml:space="preserve">
<style type="text/css">
	.st0{fill:#113040;}
</style>
<g>
	<g>
		<path class="st0" d="M512.6,496.2c0-7.1-5.8-8.8-11-10.3c-4.2-1.2-7.8-2.2-7.8-5.9c0-3.9,2.9-6,8.1-6c3.6,0,6.5,1.1,8.3,2.1
			l0.5,0.3V473l-0.2-0.1c-2.8-1.4-5.8-2-8.9-2c-8.3,0-11.2,4.8-11.2,9.3c0,6.1,5.1,7.5,10,8.8c4.5,1.3,8.8,2.5,8.8,7.3
			c0,3.7-3.3,6-8.8,6c-3.6,0-6.8-0.8-9.7-2.4l-0.5-0.3v3.6l0.2,0.1c3.1,1.5,6.5,2.3,10.2,2.3C508.1,505.4,512.6,501.9,512.6,496.2"
			/>
		<polygon class="st0" points="482.6,504.9 482.6,471.2 479.3,471.2 467.3,488.8 455.2,471.2 451.9,471.2 451.9,504.9 455.2,504.9 
			455.2,477 467.3,494.3 479.3,477 479.3,504.9 		"/>
		<polygon class="st0" points="443.3,504.9 443.3,471.2 439.9,471.2 427.9,488.8 415.8,471.2 412.6,471.2 412.6,504.9 415.8,504.9 
			415.8,477 427.9,494.3 440,477 440,504.9 		"/>
		<path class="st0" d="M404.6,503.6l0.2-0.1v-3.2l-0.5,0.2c-3.1,1.2-6.2,1.8-9.4,1.8c-8.5,0-12.7-4.6-12.7-14.1
			c0-9.6,4.1-14.2,12.7-14.2c3,0,6.2,0.6,9.4,1.9l0.5,0.2v-3.2l-0.2-0.1c-3.2-1.3-6.6-1.9-10-1.9c-7.1,0-15.6,3-15.6,17.4
			c0,14.3,8.5,17.3,15.6,17.3C397.9,505.4,401.3,504.8,404.6,503.6"/>
	</g>
	<path class="st0" d="M462.3,429.6c-16.8,0-27.5-6.2-27.5-37.4s10.6-37.4,27.5-37.4c16.8,0,27.4,6.1,27.4,37.4
		S479.1,429.6,462.3,429.6 M462.3,331.4c-36,0-55.8,21.5-55.8,60.8s19.9,60.8,55.8,60.8c36,0,55.8-21.5,55.8-60.8
		S498.2,331.4,462.3,331.4 M339.2,431.5c-6.9,0-12.5-0.7-17.5-1.4v-61.5c0-9.9,8.8-12.8,21.3-12.8c18.2,0,24.4,12.3,24.4,39.3
		C367.4,423.6,356.3,431.5,339.2,431.5 M343,331.4c-36.7,0-49.7,20.6-49.7,39.8V495h28.4v-43.5c6.4,1.4,12.8,2.1,19.4,2.1
		c35.3,0,54.9-21.3,54.9-59.9C396,337.5,358.9,331.4,343,331.4 M222.1,431.5c-6.9,0-12.5-0.7-17.5-1.4v-61.5
		c0-9.9,8.8-12.8,21.3-12.8c18.2,0,24.4,12.3,24.4,39.3C250.3,423.6,239.1,431.5,222.1,431.5 M225.9,331.4
		c-36.7,0-49.7,20.6-49.7,39.8V495h28.4v-43.5c6.4,1.4,12.8,2.1,19.4,2.1c35.3,0,54.9-21.3,54.9-59.9
		C278.9,337.5,241.7,331.4,225.9,331.4 M125.9,451.1h28.4V333h-28.4V451.1z M52.1,331.1c-9.2,0-17,1.4-23.7,4V288H0v163h28.4v-91.3
		c4.7-2.1,11.1-3.6,18.9-3.6c26.5,0,28.9,11.1,28.9,21.5V451h28.2v-71C104.4,349.3,84.9,331.1,52.1,331.1 M157.8,300.2
		c0,9.8-7.9,17.7-17.7,17.7s-17.7-7.9-17.7-17.7c0-9.8,7.9-17.7,17.7-17.7C149.9,282.5,157.8,290.4,157.8,300.2"/>
	<path class="st0" d="M376.1,25.3c-2.6-1.4-5.5-2.2-8.6-2.2c-9.9,0-17.9,8-17.9,17.9s8,17.9,17.9,17.9s17.9-8,17.9-17.9
		C385.3,34.2,381.6,28.3,376.1,25.3 M319.7,0c22.4,0,42.6,9.5,56.9,24.6h55.1c49.1,0,89,39.8,89,89c0,49.1-39.8,89-89,89l-111.2-0.1
		l-1.3,3.5c0,42.1-13.5,55.6-55.6,55.6S208,248.1,208,206v-3.4h-66l-0.1,3.4c0,42.1-13.5,55.6-55.6,55.6S30.7,248.1,30.7,206v-10.7
		c0-5.5,0.1-10.8,0.4-16.2c-17.8-16.3-29-39.6-29-65.6C1.9,73.1,29,39,66.1,28.2c7.3-2.1,15-3.3,23-3.5l173.1-0.1
		c-0.5-1.6-0.8-3.3-0.8-5.1c0-9.9,8-18,18-18c4.3,0,8.2,1.6,11.2,4.1C299.5,2,309.4,0,319.7,0"/>
</g>
</svg>
