<svg width="100" height="15" viewBox="0 0 100 15" fill="none" xmlns="http://www.w3.org/2000/svg">
<path fill-rule="evenodd" clip-rule="evenodd" d="M3.831 14.6615L4.70627 9.47941L0.998535 5.8094L6.12251 5.05333L8.41401 0.33847L10.7055 5.05333L15.8295 5.8094L12.1218 9.47941L12.997 14.6615L8.41401 12.2149L3.831 14.6615ZM24.624 14.6615L25.4992 9.47941L21.7915 5.8094L26.9155 5.05333L29.207 0.33847L31.4985 5.05333L36.6225 5.8094L32.9147 9.47941L33.79 14.6615L29.207 12.2149L24.624 14.6615ZM46.2922 9.47941L45.4169 14.6615L50 12.2149L54.583 14.6615L53.7077 9.47941L57.4154 5.8094L52.2915 5.05333L50 0.33847L47.7084 5.05333L42.5845 5.8094L46.2922 9.47941ZM70.7929 12.2149L66.2099 14.6615L67.0852 9.47941L63.3774 5.8094L68.5014 5.05333L70.7929 0.33847L73.0844 5.05333L78.2084 5.8094L74.5007 9.47941L75.3759 14.6615L70.7929 12.2149ZM87.0029 14.6615L91.5859 12.2149L96.1689 14.6615L95.2936 9.47941L99.0014 5.8094L93.8774 5.05333L91.5859 0.33847L89.2944 5.05333L84.1704 5.8094L87.8782 9.47941L87.0029 14.6615Z" fill="#F3BD33"/>
</svg>
