<?xml version="1.0" encoding="UTF-8"?>
<svg width="30px" height="30px" viewBox="0 0 30 30" version="1.1" xmlns="http://www.w3.org/2000/svg" xmlns:xlink="http://www.w3.org/1999/xlink">
    <!-- Generator: Sketch 54.1 (76490) - https://sketchapp.com -->
    <title>icon-chart</title>
    <desc>Created with Sketch.</desc>
    <g id="Page-1" stroke="none" stroke-width="1" fill="none" fill-rule="evenodd">
        <g id="Artboard" fill-rule="nonzero">
            <g id="icon-chart">
                <path d="M29.947901,7.95493069 L29.5735248,7.95493069 L23.3967921,10.9029505 L23.3967921,21.0571485 L29.947901,17.7348119 C29.947901,17.7347525 29.947901,7.95493069 29.947901,7.95493069 Z" id="Path" fill="#61BFAF"></path>
                <polygon id="Path" fill="#37A18E" points="23.3967921 10.9028911 17.2200594 7.95487129 16.8456832 7.95487129 16.8456832 17.7347525 23.3967921 21.0570891 23.3967921 10.9028911"></polygon>
                <polygon id="Path" fill="#3DB39E" points="16.8456832 7.95493069 23.3967921 4.67940594 29.947901 7.95493069 23.3967921 11.2304554"></polygon>
                <polygon id="Path" fill="#E5766D" points="21.5250297 3.27552475 21.1506535 3.27552475 14.9739208 6.22354455 14.9739208 25.502495 21.5250297 22.1801584"></polygon>
                <path d="M14.9739802,6.22354455 L8.79718812,3.27552475 L8.42281188,3.27552475 L8.42281188,22.1801584 L14.9739802,25.502495 C14.9739802,25.502495 14.9739802,6.22354455 14.9739802,6.22354455 Z" id="Path" fill="#CB4E44"></path>
                <polygon id="Path" fill="#E2574C" points="8.42287129 3.27552475 14.9739802 0 21.5250891 3.27552475 14.9739802 6.5510495"></polygon>
                <polygon id="Path" fill="#EFCF7B" points="13.1022178 11.2304554 12.7278416 11.2304554 6.55110891 14.1784752 6.55110891 29.947901 13.1022178 26.6255644 13.1022178 11.2304554"></polygon>
                <polygon id="Path" fill="#D7B354" points="6.55110891 14.1784752 0.374376238 11.2304554 0 11.2304554 0 26.6255644 6.55110891 29.947901"></polygon>
                <polygon id="Path" fill="#EFC75E" points="0 11.2304554 6.55110891 7.95493069 13.1022178 11.2304554 6.55110891 14.5059802"></polygon>
            </g>
        </g>
    </g>
</svg>