<?xml version="1.0" encoding="UTF-8"?>
<svg width="498px" height="351px" viewBox="0 0 498 351" version="1.1" xmlns="http://www.w3.org/2000/svg" xmlns:xlink="http://www.w3.org/1999/xlink">
    <!-- Generator: Sketch 54.1 (76490) - https://sketchapp.com -->
    <title>icon-sensor</title>
    <desc>Created with Sketch.</desc>
    <g id="Page-1" stroke="none" stroke-width="1" fill="none" fill-rule="evenodd">
        <g id="Artboard" fill-rule="nonzero">
            <g id="icon-sensor">
                <path d="M105.171875,312.660156 C88.917969,295.644531 75.949219,276.109375 66.566406,254.488281 C55.707031,229.464844 50.199219,202.886719 50.199219,175.5 C50.199219,148.109375 55.707031,121.535156 66.566406,96.511719 C75.949219,74.890625 88.917969,55.355469 105.171875,38.339844 C108.308594,35.054688 108.242188,29.863281 105.085938,26.597656 L82.359375,3.089844 C79,-0.386719 73.4375,-0.351562 70.078125,3.128906 C49.367188,24.597656 32.871094,49.316406 20.976562,76.726562 C7.390625,108.03125 0.5,141.261719 0.5,175.5 C0.5,209.734375 7.390625,242.96875 20.976562,274.273438 C32.871094,301.683594 49.367188,326.402344 70.078125,347.871094 C73.4375,351.351562 79,351.386719 82.363281,347.910156 L105.089844,324.398438 C108.242188,321.136719 108.308594,315.945312 105.171875,312.660156 Z" id="Path" fill="#6B6FD5"></path>
                <path d="M149.601562,175.5 C149.601562,150.964844 158.417969,127.871094 174.582031,109.675781 C177.515625,106.375 177.351562,101.351562 174.28125,98.175781 L151.519531,74.632812 C148.125,71.117188 142.457031,71.164062 139.148438,74.757812 C113.773438,102.332031 99.898438,137.769531 99.898438,175.5 C99.898438,213.226562 113.773438,248.667969 139.148438,276.242188 C142.457031,279.835938 148.125,279.878906 151.519531,276.367188 L174.28125,252.820312 C177.351562,249.648438 177.515625,244.621094 174.582031,241.324219 C158.417969,223.128906 149.601562,200.035156 149.601562,175.5 Z" id="Path" fill="#6266C3"></path>
                <path d="M392.828125,312.660156 C409.082031,295.644531 422.050781,276.109375 431.433594,254.488281 C442.292969,229.464844 447.800781,202.886719 447.800781,175.5 C447.800781,148.113281 442.292969,121.535156 431.433594,96.511719 C422.050781,74.890625 409.082031,55.355469 392.828125,38.339844 C389.691406,35.054688 389.757812,29.863281 392.914062,26.597656 L415.640625,3.089844 C419,-0.386719 424.5625,-0.351562 427.921875,3.128906 C448.632812,24.597656 465.128906,49.316406 477.023438,76.726562 C490.609375,108.03125 497.5,141.261719 497.5,175.5 C497.5,209.734375 490.609375,242.96875 477.023438,274.273438 C465.128906,301.683594 448.632812,326.402344 427.921875,347.871094 C424.5625,351.351562 419,351.386719 415.636719,347.910156 L392.910156,324.398438 C389.757812,321.136719 389.691406,315.945312 392.828125,312.660156 Z" id="Path" fill="#6B6FD5"></path>
                <path d="M348.398438,175.5 C348.398438,150.964844 339.582031,127.871094 323.417969,109.675781 C320.484375,106.375 320.648438,101.351562 323.71875,98.175781 L346.480469,74.632812 C349.875,71.117188 355.542969,71.164062 358.851562,74.757812 C384.226562,102.332031 398.101562,137.769531 398.101562,175.5 C398.101562,213.226562 384.226562,248.667969 358.851562,276.242188 C355.542969,279.835938 349.875,279.878906 346.480469,276.367188 L323.71875,252.820312 C320.648438,249.648438 320.484375,244.621094 323.417969,241.324219 C339.582031,223.128906 348.398438,200.035156 348.398438,175.5 L348.398438,175.5 Z" id="Path" fill="#6266C3"></path>
                <path d="M313.609375,175.5 C313.609375,211.183594 284.683594,240.109375 249,240.109375 C213.316406,240.109375 184.390625,211.183594 184.390625,175.5 C184.390625,139.816406 213.316406,110.890625 249,110.890625 C284.683594,110.890625 313.609375,139.816406 313.609375,175.5 Z" id="Path" fill="#6B6FD5"></path>
                <path d="M279,210.109375 C243.316406,210.109375 214.390625,181.183594 214.390625,145.5 C214.390625,135.402344 216.710938,125.851562 220.839844,117.335938 C199.265625,127.800781 184.390625,149.910156 184.390625,175.5 C184.390625,211.183594 213.316406,240.109375 249,240.109375 C274.585938,240.109375 296.695312,225.234375 307.160156,203.660156 C298.648438,207.789062 289.097656,210.109375 279,210.109375 Z" id="Path" fill="#6468C0"></path>
            </g>
        </g>
    </g>
</svg>