<?xml version="1.0" encoding="UTF-8"?>
<svg width="512px" height="478px" viewBox="0 0 512 478" version="1.1" xmlns="http://www.w3.org/2000/svg" xmlns:xlink="http://www.w3.org/1999/xlink">
    <!-- Generator: Sketch 54.1 (76490) - https://sketchapp.com -->
    <title>icon-screens</title>
    <desc>Created with Sketch.</desc>
    <g id="Page-1" stroke="none" stroke-width="1" fill="none" fill-rule="evenodd">
        <g id="Artboard" transform="translate(-161.000000, -29.000000)" fill-rule="nonzero">
            <g id="icon-screens" transform="translate(161.000000, 29.000000)">
                <path d="M512.001,300.793 L0,300.793 L0,31.552 C0,14.488 13.833,0.655 30.897,0.655 L481.104,0.655 C498.168,0.655 512.001,14.488 512.001,31.552 L512.001,300.793 L512.001,300.793 Z" id="Path" fill="#4D3D80"></path>
                <path d="M361.931,477.345 L150.069,477.345 C150.069,457.845 165.879,442.035 185.379,442.035 L326.62,442.035 C346.121,442.034 361.931,457.845 361.931,477.345" id="Path" fill="#E8EDEE"></path>
                <polygon id="Path" fill="#B0B6BB" points="317.793 442.034 194.207 442.034 211.862 371.414 300.138 371.414"></polygon>
                <path d="M481.103,371.414 L30.897,371.414 C13.833,371.414 0,357.581 0,340.517 L0,300.793 L512,300.793 L512,340.517 C512,357.581 498.167,371.414 481.103,371.414" id="Path" fill="#E8EDEE"></path>
                <g id="Group" transform="translate(282.000000, 150.000000)" fill="#25AE88">
                    <path d="M9.31,124.31 C4.428,124.31 0.482,120.355 0.482,115.482 L0.482,89 C0.482,84.127 4.428,80.172 9.31,80.172 C14.192,80.172 18.138,84.127 18.138,89 L18.138,115.483 C18.138,120.356 14.192,124.31 9.31,124.31" id="Path"></path>
                    <path d="M44.621,124.31 C39.739,124.31 35.793,120.355 35.793,115.482 L35.793,53.69 C35.793,48.817 39.739,44.862 44.621,44.862 C49.503,44.862 53.449,48.817 53.449,53.69 L53.449,115.483 C53.448,120.356 49.502,124.31 44.621,124.31" id="Path"></path>
                    <path d="M79.931,124.31 C75.049,124.31 71.103,120.355 71.103,115.482 L71.103,71.344 C71.103,66.471 75.049,62.516 79.931,62.516 C84.813,62.516 88.759,66.471 88.759,71.344 L88.759,115.482 C88.759,120.356 84.813,124.31 79.931,124.31" id="Path"></path>
                    <path d="M115.241,124.31 C110.359,124.31 106.413,120.355 106.413,115.482 L106.413,9.552 C106.413,4.679 110.359,0.724 115.241,0.724 C120.123,0.724 124.069,4.679 124.069,9.552 L124.069,115.483 C124.069,120.356 120.123,124.31 115.241,124.31" id="Path"></path>
                    <path d="M150.552,124.31 C145.67,124.31 141.724,120.355 141.724,115.482 L141.724,44.861 C141.724,39.988 145.67,36.033 150.552,36.033 C155.434,36.033 159.38,39.988 159.38,44.861 L159.38,115.482 C159.379,120.356 155.433,124.31 150.552,124.31" id="Path"></path>
                </g>
                <path d="M238.345,146.31 C238.345,197.501 196.847,239 145.655,239 C94.463,239 52.965,197.502 52.965,146.31 C52.965,95.118 94.463,53.62 145.655,53.62 C196.847,53.62 238.345,95.119 238.345,146.31" id="Path" fill="#DD691D"></path>
                <path d="M141.362,53.718 C141.318,53.762 141.291,53.797 141.238,53.842 L141.238,150.398 C141.238,150.583 141.388,150.725 141.565,150.725 L238.121,150.725 C238.165,150.681 238.2,150.654 238.245,150.601 C240.708,96.02 195.943,51.255 141.362,53.718" id="Path" fill="#ECBA16"></path>
                <g id="Group" transform="translate(308.000000, 35.000000)" fill="#DD691D">
                    <path d="M80.414,62.759 L9.793,62.759 C4.911,62.759 0.965,58.804 0.965,53.931 C0.965,49.058 4.911,45.103 9.793,45.103 L80.414,45.103 C85.296,45.103 89.242,49.058 89.242,53.931 C89.241,58.804 85.295,62.759 80.414,62.759" id="Path"></path>
                    <path d="M124.552,62.759 C122.257,62.759 119.953,61.788 118.284,60.199 C117.931,59.758 117.49,59.316 117.225,58.875 C116.872,58.345 116.607,57.816 116.431,57.286 C116.166,56.756 115.99,56.227 115.901,55.697 C115.813,55.079 115.724,54.461 115.724,53.931 C115.724,53.401 115.812,52.783 115.901,52.165 C115.989,51.635 116.166,51.106 116.431,50.576 C116.608,50.046 116.872,49.517 117.225,48.987 C117.49,48.546 117.931,48.104 118.284,47.663 C121.55,44.397 127.465,44.397 130.819,47.663 C132.408,49.34 133.379,51.547 133.379,53.931 C133.379,56.314 132.408,58.521 130.819,60.199 C129.142,61.788 126.847,62.759 124.552,62.759" id="Path"></path>
                    <path d="M124.552,18.621 L98.069,18.621 C93.187,18.621 89.241,14.666 89.241,9.793 C89.241,4.92 93.187,0.965 98.069,0.965 L124.552,0.965 C129.434,0.965 133.38,4.92 133.38,9.793 C133.38,14.666 129.433,18.621 124.552,18.621" id="Path"></path>
                    <path d="M27.448,18.621 L9.793,18.621 C4.911,18.621 0.965,14.666 0.965,9.793 C0.965,4.92 4.911,0.965 9.793,0.965 L27.448,0.965 C32.33,0.965 36.276,4.92 36.276,9.793 C36.276,14.666 32.33,18.621 27.448,18.621" id="Path"></path>
                    <path d="M62.759,18.621 C60.464,18.621 58.16,17.65 56.491,16.061 C54.893,14.384 53.931,12.089 53.931,9.793 C53.931,7.498 54.893,5.203 56.491,3.525 C57.374,2.731 58.257,2.113 59.404,1.671 C62.67,0.259 66.554,1.053 69.026,3.525 C70.615,5.202 71.586,7.497 71.586,9.793 C71.586,12.088 70.615,14.383 69.026,16.061 C67.349,17.65 65.054,18.621 62.759,18.621" id="Path"></path>
                </g>
            </g>
        </g>
    </g>
</svg>