<?xml version="1.0" encoding="UTF-8"?>
<svg width="45px" height="33px" viewBox="0 0 45 33" version="1.1" xmlns="http://www.w3.org/2000/svg" xmlns:xlink="http://www.w3.org/1999/xlink">
    <!-- Generator: Sketch 54.1 (76490) - https://sketchapp.com -->
    <title>logo-mcdonalds</title>
    <desc>Created with Sketch.</desc>
    <g id="Home-One-Page-Landing" stroke="none" stroke-width="1" fill="none" fill-rule="evenodd">
        <g id="Artboard" transform="translate(-512.000000, -537.000000)" fill="#5B5E6D">
            <g id="Group-2" transform="translate(30.000000, 536.000000)">
                <g id="logo-mcdonalds" transform="translate(482.000000, 1.000000)">
                    <path d="M31.7874419,2.38444186 C35.5686279,2.38444186 38.6345581,15.8315581 38.6345581,32.439 L44.1509302,32.439 C44.1509302,14.5591395 38.5869767,0.0859534884 31.772093,0.0859534884 C27.8773256,0.0859534884 24.4376512,4.422 22.1667907,11.2353488 C19.8951628,4.42276744 16.4554884,0.0859534884 12.5937209,0.0859534884 C5.77883721,0.0859534884 0.230232558,14.5453256 0.230232558,32.4259535 L5.74660465,32.4259535 C5.74660465,15.8185116 8.78106977,2.38444186 12.5614884,2.38444186 C16.341907,2.38444186 19.4078372,14.8054884 19.4078372,30.1274651 L24.8919767,30.1274651 C24.8919767,14.8054884 27.9747907,2.38444186 31.7552093,2.38444186" id="Path"></path>
                </g>
            </g>
        </g>
    </g>
</svg>