<?xml version="1.0" encoding="UTF-8"?>
<svg width="48px" height="33px" viewBox="0 0 48 33" version="1.1" xmlns="http://www.w3.org/2000/svg" xmlns:xlink="http://www.w3.org/1999/xlink">
    <!-- Generator: Sketch 54.1 (76490) - https://sketchapp.com -->
    <title>logo-usda</title>
    <desc>Created with Sketch.</desc>
    <g id="Home-One-Page-Landing" stroke="none" stroke-width="1" fill="none" fill-rule="evenodd">
        <g id="Artboard" transform="translate(-429.000000, -536.000000)" fill="#5B5E6D">
            <g id="Group-2" transform="translate(30.000000, 536.000000)">
                <g id="logo-usda" transform="translate(399.000000, 0.000000)">
                    <path d="M10.7952099,1.32442593 L10.7364444,9.53101852 C10.7364444,12.9423519 8.70830247,14.2660432 5.98305556,14.2660432 C3.63317284,14.2660432 0.642746914,13.2236914 0.642746914,9.67058642 L0.642746914,1.32442593 C0.642746914,0.861648148 0.321006173,0.581777778 0,0.420907407 L3.85207407,0.420907407 C3.5332716,0.581777778 3.23062963,0.861648148 3.23062963,1.32442593 L3.23062963,9.73155556 C3.23062963,11.1360494 3.71324074,13.1230556 6.31948765,13.1230556 C8.70830247,13.1230556 9.57288889,11.5584259 9.57288889,9.57068519 L9.53395679,1.32442593 C9.53395679,0.861648148 9.29301852,0.581777778 8.99037654,0.420907407 L11.3189568,0.420907407 C11.0170494,0.581777778 10.7952099,0.861648148 10.7952099,1.32442593 M16.2302778,14.2660432 C14.4078148,14.2660432 13.0819198,13.6438642 12.381142,13.3037593 L12.279037,9.91299383 C12.6610123,11.3365864 13.8627654,13.2236914 15.9518765,13.2236914 C17.9388827,13.2236914 18.5404938,11.7986296 18.5404938,10.8150432 C18.5404938,8.8882716 16.7922222,8.6275 14.9697593,7.64464815 C13.1230556,6.62066049 12.3201728,5.53864198 12.3201728,4.01294444 C12.3201728,1.28402469 14.8676543,0.200537037 16.6952593,0.200537037 C17.3769383,0.200537037 18.6998951,0.340104938 19.7238827,0.942450617 L19.8230494,3.91230864 C19.5439136,2.84865432 18.3994568,1.24288889 16.4719506,1.24288889 C14.9477222,1.24288889 14.3468457,2.30654321 14.3468457,3.16966049 C14.3468457,4.39345062 15.209963,4.8562284 17.0948642,5.71861111 C18.9628704,6.60156173 20.9080062,7.26414198 20.9080062,10.0540309 C20.9080062,12.5618457 18.6998951,14.2660432 16.2302778,14.2660432" id="Shape"></path>
                    <path d="M27.1488951,1.42432716 C26.6655494,1.42432716 25.6026296,1.42432716 25.3007222,1.4647284 L25.3007222,13.0224198 L26.9057531,13.0224198 C31.4424444,13.0224198 32.7073704,9.97175926 32.7073704,7.04230247 C32.7073704,4.63585802 31.3014074,1.42432716 27.1488951,1.42432716 L27.1488951,1.42432716 Z M27.3876296,14.0662407 L22.2324321,14.0662407 C22.5321358,13.8848025 22.7547099,13.603463 22.7547099,13.1627222 L22.7547099,1.32442593 C22.7547099,0.861648148 22.5321358,0.581777778 22.2324321,0.420907407 L27.5712716,0.420907407 C34.1713642,0.420907407 35.4950556,5.09716667 35.4950556,7.04230247 C35.4950556,10.5344383 32.806537,14.0655062 27.3876296,14.0655062 L27.3876296,14.0662407 Z M40.1257716,4.33395062 C40.1257716,4.33395062 38.7602099,7.74601852 38.1196667,9.24967901 L42.1730123,9.24967901 C41.2305617,7.02173457 40.1257716,4.33468519 40.1257716,4.33468519 L40.1257716,4.33395062 Z M43.2954321,14.0655062 C43.8162407,13.7849012 43.9190802,13.5042963 43.7780432,13.0833889 C43.7170741,12.8821173 43.1962654,11.6575926 42.6350556,10.2942346 L37.717858,10.2942346 C37.1155123,11.6575926 36.6343704,12.841716 36.5932346,13.0635556 C36.414,13.5446975 36.5139012,13.8245679 37.0560123,14.0655062 L34.2881605,14.0655062 C34.8493704,13.685 35.0286049,13.4638951 35.2284074,13.0833889 C35.6103827,12.3209074 40.8889877,0 40.8889877,0 C40.8889877,0 46.2278272,12.3209074 46.5877654,13.0833889 C46.7883025,13.5042963 46.9271358,13.7254012 47.5919198,14.0655062 L43.2954321,14.0655062 Z" id="Shape"></path>
                    <g id="Group" transform="translate(0.000000, 15.425926)">
                        <path d="M46.9888395,0.56708642 C46.9888395,0.56708642 17.7868272,-0.157197531 0.492160494,9.05869136 C0.492160494,9.05869136 18.8218333,1.80997531 46.9888395,2.53499383 L46.9888395,0.56708642 M0.492160494,0.56708642 C0.492160494,0.56708642 10.3302284,0.670660494 16.4388951,2.94929012 C16.4388951,2.94929012 3.90937037,1.91354938 0.492160494,2.43215432 L0.492160494,0.56708642 M0.492160494,3.77861728 C0.492160494,3.77861728 7.53446296,3.46716049 11.7787963,3.88145679 C11.7787963,3.88145679 1.52937037,5.12287654 0.492160494,5.64074691 L0.492160494,3.77861728" id="Shape"></path>
                        <path d="M42.1495062,4.09448148 C42.1024938,4.09154321 42.039321,4.09741975 41.9989198,4.09815432 C33.5073148,4.2612284 15.6991852,5.28521605 0.500240741,10.6549074 L0.500240741,17.1264506 L46.9939815,17.1264506 L46.9939815,4.09521605 C46.9939815,4.09521605 45.1898827,4.03865432 42.1495062,4.09521605" id="Path"></path>
                    </g>
                </g>
            </g>
        </g>
    </g>
</svg>