<?xml version="1.0" encoding="UTF-8"?>
<svg width="54px" height="22px" viewBox="0 0 54 22" version="1.1" xmlns="http://www.w3.org/2000/svg" xmlns:xlink="http://www.w3.org/1999/xlink">
    <!-- Generator: Sketch 54.1 (76490) - https://sketchapp.com -->
    <title>logo-jet</title>
    <desc>Created with Sketch.</desc>
    <g id="Home-One-Page-Landing" stroke="none" stroke-width="1" fill="none" fill-rule="evenodd">
        <g id="Artboard" transform="translate(-591.000000, -542.000000)" fill="#5B5E6D">
            <g id="Group-2" transform="translate(30.000000, 536.000000)">
                <g id="logo-jet" transform="translate(561.000000, 6.000000)">
                    <path d="M0.2618,12.7108667 L0.2618,14.1232667 C0.2618,18.8239333 3.44813333,22 7.94566667,22 C12.5011333,22 15.6618,18.7696667 15.6618,14.0961333 L15.6618,6.6 L11.1730667,6.6 L11.1730667,14.3674667 C11.1730667,16.0680667 10.0906667,17.6432667 7.95593333,17.6432667 C5.9246,17.6432667 4.75273333,16.1942 4.75273333,14.3696667 L4.75273333,12.7108667 L0.2618,12.7108667 Z" id="Path"></path>
                    <path d="M27.0856667,3.66666667 C22.1554667,3.66666667 17.8618,7.65893333 17.8618,12.8729333 C17.8618,17.8581333 21.9464667,22 27.093,22 C30.9928667,22 34.639,20.0427333 35.7742,16.0196667 L30.8498667,16.0196667 C30.2463333,17.1372667 28.985,18.0598 27.0387333,18.0598 C24.6378,18.0598 22.9907333,16.4494 22.5558667,14.5911333 L36.1284,14.5911333 L36.1951333,13.2374 C36.1951333,7.09206667 31.9762667,3.66666667 27.0856667,3.66666667 Z M27.0592667,7.60833333 C29.2460667,7.60833333 31.0295333,8.93346667 31.5546,10.9398667 L22.6064667,10.9398667 C23.0978,9.35733333 24.5644667,7.60833333 27.0592667,7.60833333 Z" id="Shape"></path>
                    <path d="M53.7951333,12.6294667 L53.7951333,14.1232667 C53.7951333,18.8239333 50.6088,22 46.112,22 C41.5572667,22 38.3958667,18.7696667 38.3958667,14.0961333 L38.3958667,0.733333333 L42.8846,0.733333333 L42.8846,4.5628 L49.3086,4.5628 L49.3086,8.8814 L42.8846,8.8814 L42.8846,14.3674667 C42.8846,16.0680667 43.967,17.6432667 46.1017333,17.6432667 C48.1330667,17.6432667 49.3056667,16.1942 49.3056667,14.3696667 L49.3056667,12.6294667 L53.7958667,12.6294667 L53.7951333,12.6294667 Z M16.3951333,2.56666667 C16.3951333,3.98419752 15.2459975,5.13333333 13.8284667,5.13333333 C12.4109358,5.13333333 11.2618,3.98419752 11.2618,2.56666667 C11.2618,1.14913581 12.4109358,2.60396194e-16 13.8284667,0 C15.2459975,-2.60396194e-16 16.3951333,1.14913581 16.3951333,2.56666667 Z M5.39513333,2.56666667 C5.39513335,3.48364836 4.90592945,4.33097439 4.11180001,4.78946523 C3.31767058,5.24795608 2.33926276,5.24795608 1.54513332,4.78946523 C0.751003886,4.33097439 0.261799986,3.48364836 0.2618,2.56666667 C0.2618,1.14913581 1.41093581,1.14857461e-15 2.82846667,8.8817842e-16 C4.24599752,6.27782226e-16 5.39513333,1.14913581 5.39513333,2.56666667 Z" id="Shape"></path>
                </g>
            </g>
        </g>
    </g>
</svg>