<?xml version="1.0" encoding="UTF-8"?>
<svg width="89px" height="22px" viewBox="0 0 89 22" version="1.1" xmlns="http://www.w3.org/2000/svg" xmlns:xlink="http://www.w3.org/1999/xlink">
    <!-- Generator: Sketch 54.1 (76490) - https://sketchapp.com -->
    <title>logo-marriott</title>
    <desc>Created with Sketch.</desc>
    <g id="Home-One-Page-Landing" stroke="none" stroke-width="1" fill="none" fill-rule="evenodd">
        <g id="Artboard" transform="translate(-30.000000, -543.000000)" fill="#5B5E6D">
            <g id="Group-2" transform="translate(30.000000, 536.000000)">
                <g id="logo-marriott" transform="translate(0.000000, 7.000000)">
                    <path d="M81.8766667,18.1852 C80.7671333,17.6058667 80.5940667,15.9690667 80.619,11.9885333 L80.6432,5.8872 L78.5238667,5.885 L79.0166667,4.75566667 L80.6432,4.75566667 L80.6432,1.86633333 L84.5386667,0.423133333 L84.5386667,4.66033333 L86.3382667,4.66326667 L85.8704,5.91506667 L84.5386667,5.91286667 L84.5386667,16.4699333 C84.6127333,17.3206 84.909,17.8207333 85.3028,18.1859333 L81.8766667,18.1859333 M51.3098667,5.22646667 C52.0248667,4.62513333 53.2825333,4.61266667 54.0958,4.99766667 C54.4404667,5.17 54.7609333,5.39953333 54.9831333,5.7002 L53.4057333,8.14513333 C53.2077333,7.98746667 53.0603333,7.91633333 52.8139333,7.788 C52.0248667,7.45066667 51.2116,7.6472 50.743,8.074 L50.743,15.2093333 C50.7188,16.445 50.941,17.5714 51.5812,18.1558667 L48.0069333,18.1558667 C47.2428,17.5838667 47.0704667,16.6694 46.9964,15.8678667 L46.9722,6.37853333 C46.9964,5.60853333 46.7991333,5.2712 46.5028667,4.84 L50.2010667,4.85466667 C50.4966,5.0688 50.5215333,5.44133333 50.6696667,5.72733333 L51.3098667,5.22646667 M55.8213333,7.57313333 C55.7964,6.67113333 55.9936667,5.59166667 55.4018667,4.81286667 L58.8287333,4.81286667 C59.0751333,4.9852 59.1983333,5.2712 59.2724,5.54253333 C59.4696667,5.7838 59.4447333,6.1292 59.5188,6.4152 L59.5679333,16.5264 C59.6911333,17.1277333 59.9375333,17.7342 60.3819333,18.2072 L56.7079333,18.2145333 C55.5008667,17.0514667 55.8954,15.1382 55.7964,13.1640667 L55.8213333,7.57313333" id="Shape"></path>
                    <path d="M61.2685333,7.67213333 C61.6388667,6.644 62.7968,6.1292 63.635,5.56966667 C64.9168667,5.09886667 66.3468667,3.92553333 67.7761333,4.884 C68.9839333,5.67013333 70.0443333,6.55746667 70.8084667,7.77333333 C70.9808,8.24413333 71.0798,8.7736 71.203,9.27446667 C71.203,9.94693333 71.3504,10.4478 71.3262,11.1202667 C71.3753333,11.8499333 71.3753333,12.5084667 71.3262,13.2234667 C71.2763333,14.4386 70.7102,15.5261333 69.7480667,16.3687333 C68.3180667,17.6425333 66.5192,19.0872 64.5722,18.0994 C62.8217333,17.2832 60.7757333,15.6684 60.8989333,13.4500667 C60.8256,11.8770667 60.7508,10.5189333 60.9722667,8.98846667 C61.0470667,8.5448 61.0221333,8.05933333 61.2685333,7.67213333 L61.2685333,7.67213333 Z M64.8428,14.8228667 C65.0158667,15.4535333 65.3363333,16.2257333 66.1004667,16.3115333 C66.5441333,16.3262 66.8646,15.9544 67.1352,15.6390667 C67.9242667,14.0660667 67.8010667,12.3508 67.8010667,10.5607333 C67.5546667,9.23266667 67.8744,7.41546667 66.4451333,6.6 C65.9274,6.4152 65.5578,6.75766667 65.2373333,7.073 C64.6704667,7.91633333 64.6213333,8.88213333 64.5722,9.955 C64.3991333,11.6702667 64.5964,13.0922 64.8435333,14.8228667 L64.8428,14.8228667 Z" id="Shape"></path>
                    <path d="M73.865,18.1852 C72.7554667,17.6058667 72.5831333,15.9690667 72.6073333,11.9885333 L72.6322667,5.8872 L70.5371333,5.885 L71.0057333,4.75566667 L72.6322667,4.75566667 L72.6322667,1.86633333 L76.5526667,0.423133333 L76.5526667,4.66033333 L78.3273333,4.66326667 L77.8587333,5.91506667 L76.5526667,5.91286667 L76.5526667,16.4699333 C76.626,17.3206 76.9222667,17.8207333 77.3168,18.1859333 L73.8657333,18.1859333 M38.1722,6.3778 C38.1472667,5.60853333 37.9991333,5.27046667 37.7028667,4.84 L41.4010667,4.85466667 C41.6966,5.0688 41.7215333,5.44133333 41.8696667,5.72733333 L42.5098667,5.22646667 C43.2248667,4.62513333 44.4825333,4.61266667 45.2958,4.99766667 C45.6404667,5.17 45.9609333,5.39953333 46.1831333,5.7002 L44.6057333,8.14513333 C44.4077333,7.98746667 44.2603333,7.91633333 44.0139333,7.788 C43.2248667,7.45066667 42.4116,7.6472 41.943,8.074 L41.943,15.2093333 C41.9188,16.445 42.141,17.5714 42.7812,18.1558667 L39.2069333,18.1558667 C38.4677333,17.5838667 38.2462667,16.7332 38.1964,15.8678667 L38.1722,6.37853333 M10.1449333,10.1317333 L8.81393333,12.903 C7.87746667,14.5368667 6.5956,16.5403333 4.62366667,17.039 C3.85953333,17.3052 3.16873333,17.0639333 2.42953333,17.0118667 L0.0388666667,20.9190667 C0.2354,21.1112 0.482533333,21.2710667 0.7282,21.3649333 C4.9192,22.9672667 6.6198,21.2439333 10.7367333,11.8998 L14.6556667,20.2231333 L19.8572,20.2231333 L17.3917333,14.6058 L18.7968,11.7018 L22.6424,20.0955333 L27.6217333,20.1278 L18.8950667,0.979733333 L14.8778667,2.9744 L18.0326667,10.12 L16.6525333,12.9272 L10.8841333,0.484 L6.66966667,2.63853333 L10.1449333,10.1317333" id="Shape"></path>
                    <path d="M26.1433333,13.5087333 C26.2416,12.1212667 27.0057333,10.8196 28.2876,10.12 C29.5687333,9.33093333 31.0478667,9.0178 32.3796,8.33066667 C32.6010667,8.14513333 32.8724,7.91633333 32.8966,7.61566667 C32.9306149,7.27177679 32.7280406,6.94832107 32.4038,6.8288 C30.3827333,6.3998 28.7312667,7.65746667 27.2763333,8.90193333 C27.4494,7.98746667 27.5968,6.98646667 28.0404667,6.1292 C28.2384667,5.89966667 28.3858667,5.58433333 28.6564667,5.4142 C30.0864667,4.71166667 31.8611333,4.5122 33.4392667,4.62513333 C34.7453333,4.71166667 35.9531333,5.6408 36.3968,6.8288 C36.619,7.38613333 36.5948,8.0168 36.6432,8.5888 L36.6681333,16.3416 C36.6681333,17.0118667 36.9886,17.6425333 37.3831333,18.1852 L33.6856667,18.1852 C33.242,17.7855333 33.0198,17.2832 32.8966,16.6547333 C31.8611333,17.5714 29.6919333,18.9295333 28.4108,18.0275333 C27.0790667,17.4284 25.8470667,15.4095333 26.1426,13.5087333 L26.1433333,13.5087333 Z M32.6993333,10.8122667 C32.6751333,10.2747333 32.3055333,10.2182667 32.0342,10.2182667 C31.1468667,10.3466 30.3827333,11.0887333 29.9390667,11.8499333 C29.5687333,12.5282667 29.4704667,13.1002667 29.4455333,13.6942667 C29.4455333,14.3352 29.3964,14.8104 29.6677333,15.2958667 C29.8158667,15.6112 30.1114,15.7549333 30.4318667,15.8385333 C30.9987333,15.9544 31.5164667,15.7967333 31.9601333,15.4960667 C33.0198,14.9094 32.8225333,13.7360667 32.8474667,12.6932667 L32.6993333,10.8122667 L32.6993333,10.8122667 Z M85.7706667,17.0243333 C85.7706667,16.2301333 86.4116,15.6456667 87.1757333,15.6456667 C87.9398667,15.6456667 88.5808,16.2301333 88.5808,17.0243333 C88.5808,17.8229333 87.9398667,18.4066667 87.1757333,18.4066667 C86.4116,18.4066667 85.7706667,17.8229333 85.7706667,17.0243333 Z M87.1757333,18.1778667 C87.8166667,18.1778667 88.3094667,17.6894667 88.3094667,17.0243333 C88.3094667,16.3709333 87.8166667,15.8752 87.1757333,15.8752 C86.5597333,15.8752 86.042,16.3709333 86.042,17.0243333 C86.042,17.6894667 86.5597333,18.1778667 87.1757333,18.1778667 Z M86.8802,17.8229333 L86.658,17.8229333 L86.658,16.2301333 L87.2498,16.2301333 C87.6194,16.2301333 87.8166667,16.3709333 87.8166667,16.6840667 C87.8166667,16.9700667 87.6443333,17.0932667 87.3979333,17.1226 L87.8658,17.8229333 L87.5944667,17.8229333 L87.1757333,17.1328667 L86.8802,17.1328667 L86.8802,17.8222 L86.8802,17.8229333 Z M87.1757333,16.9282667 C87.373,16.9282667 87.5702667,16.9136 87.5702667,16.6694 C87.5702667,16.4714 87.3979333,16.4347333 87.2256,16.4347333 L86.8802,16.4347333 L86.8802,16.9282667 L87.1757333,16.9282667 Z" id="Shape"></path>
                </g>
            </g>
        </g>
    </g>
</svg>