<?xml version="1.0" encoding="UTF-8"?>
<svg width="97px" height="22px" viewBox="0 0 97 22" version="1.1" xmlns="http://www.w3.org/2000/svg" xmlns:xlink="http://www.w3.org/1999/xlink">
    <!-- Generator: Sketch 54.1 (76490) - https://sketchapp.com -->
    <title>logo-yamaha</title>
    <desc>Created with Sketch.</desc>
    <g id="Home-One-Page-Landing" stroke="none" stroke-width="1" fill="none" fill-rule="evenodd">
        <g id="Artboard" transform="translate(-295.000000, -543.000000)" fill="#5B5E6D">
            <g id="Group-2" transform="translate(30.000000, 536.000000)">
                <g id="logo-yamaha" transform="translate(265.000000, 7.000000)">
                    <g id="Group">
                        <path d="M10.4727333,0.341 C4.68893333,0.341 0,5.02993333 0,10.8144667 C0,16.5982667 4.68893333,21.2879333 10.4727333,21.2879333 C16.2565333,21.2879333 20.9462,16.5982667 20.9462,10.8144667 C20.9462,5.02993333 16.258,0.341 10.4727333,0.341 Z M10.4727333,20.1058 C5.3416,20.1058 1.1814,15.9456 1.1814,10.8144667 C1.1814,5.6826 5.34086667,1.52313333 10.4727333,1.52313333 C15.6046,1.52313333 19.7640667,5.6826 19.7640667,10.8144667 C19.7640667,15.9456 15.6046,20.1058 10.4727333,20.1058 Z" id="Shape"></path>
                        <path d="M18.0847333,15.0326 L16.5645333,13.2564667 C16.4869349,13.1678594 16.3598216,13.1417771 16.2536,13.1926667 C16.026612,13.3007901 15.7622726,13.2973191 15.5382018,13.1832728 C15.3141311,13.0692266 15.1557629,12.8575502 15.1096,12.6104 L15.1103333,12.6104 C15.0005099,12.0198361 14.6373294,11.507095 14.1166667,11.2075333 L13.4361333,10.8144667 L17.3081333,8.58 L16.8285333,7.74913333 L12.4776667,10.2608 L11.9548,9.96013333 L11.9548,9.35586667 L16.3049333,6.84346667 L15.8260667,6.01333333 L11.9548,8.24926667 L11.9548,7.46313333 C11.9548,6.8376 11.6761333,6.27806667 11.2361333,5.90113333 C11.0448721,5.73777642 10.9404897,5.49474053 10.9537097,5.24356016 C10.9669297,4.99237979 11.0962475,4.76164391 11.3036,4.61926667 C11.4010693,4.55317527 11.4422243,4.43001067 11.4040667,4.3186 L10.6267333,2.11346667 C10.6049721,2.04725957 10.5431583,2.00250965 10.4734667,2.00250965 C10.403775,2.00250965 10.3419612,2.04725957 10.3202,2.11346667 L9.54286667,4.31786667 C9.50471919,4.42933071 9.54549503,4.55255769 9.6426,4.61926667 L9.64333333,4.61926667 C9.85017296,4.76201003 9.97907667,4.99264375 9.9922854,5.24360954 C10.0054941,5.49457533 9.90151276,5.73746616 9.7108,5.90113333 C9.2708,6.27806667 8.99213333,6.83833333 8.99213333,7.46313333 L8.99213333,8.24926667 L5.12013333,6.01333333 L4.642,6.84346667 L8.99213333,9.35586667 L8.99213333,9.96013333 L8.46926667,10.2608 L4.11913333,7.74913333 L3.64026667,8.58 L7.51226667,10.8144667 L6.83026667,11.2075333 C6.309747,11.507104 5.94680156,12.0198917 5.83733333,12.6104 C5.79089962,12.8573904 5.63249403,13.0688573 5.40851881,13.1828549 C5.1845436,13.2968526 4.92035156,13.3004771 4.69333333,13.1926667 C4.58730278,13.1421528 4.46062195,13.1682077 4.38313333,13.2564667 L2.8622,15.0311333 C2.81584502,15.083549 2.80816861,15.1597226 2.84313333,15.2203333 C2.87826331,15.2801878 2.94734728,15.3113491 3.01546667,15.2980667 L5.313,14.8676 C5.42868509,14.845174 5.51513091,14.7482226 5.5242,14.6307333 C5.5443186,14.3801559 5.67959264,14.1531054 5.89037691,14.0161244 C6.10116118,13.8791433 6.36358292,13.8477457 6.60073333,13.9311333 C7.14706667,14.124 7.77113333,14.0851333 8.31233333,13.772 L8.99286667,13.3796667 L8.99286667,17.8500667 L9.95133333,17.8500667 L9.95133333,12.8267333 L10.4742,12.5246 L10.9970667,12.826 L10.9970667,17.8493333 L11.9555333,17.8493333 L11.9555333,13.3796667 L12.6368,13.772 C13.178,14.0851333 13.8020667,14.124 14.3484,13.9311333 C14.5853522,13.8474171 14.8477554,13.8785912 15.0584975,14.0154945 C15.2692396,14.1523979 15.4043781,14.3794769 15.4242,14.63 C15.4331977,14.7476661 15.5196003,14.844869 15.6354,14.8676 L17.9329333,15.2980667 C18.0009488,15.3106484 18.0695586,15.2792756 18.1045333,15.2196 C18.1380151,15.1593255 18.1300952,15.0845263 18.0847333,15.0326 L18.0847333,15.0326 Z M8.9914,12.2730667 L7.71393333,13.0108 C7.46363788,13.1549831 7.14384981,13.0689621 6.99966667,12.8186667 C6.85548353,12.5683712 6.94150455,12.2485831 7.1918,12.1044 L8.46926667,11.3666667 L8.99213333,11.6688 L8.99213333,12.2730667 L8.9914,12.2730667 Z M9.9506,7.32746667 C9.9506,7.03869538 10.1846954,6.8046 10.4734667,6.8046 C10.762238,6.8046 10.9963333,7.03869538 10.9963333,7.32746667 L10.9963333,8.80146667 L10.4734667,9.1036 L9.9506,8.8022 L9.9506,7.32746667 L9.9506,7.32746667 Z M11.0748,11.1613333 L10.4734667,11.5082 L9.87213333,11.1613333 L9.87213333,10.4668667 L10.4734667,10.1192667 L11.0748,10.4668667 L11.0748,11.1613333 Z M13.9465333,12.8194 C13.8016007,13.0692459 13.4819026,13.1548266 13.2315333,13.0108 L11.9540667,12.2730667 L11.9540667,11.6695333 L12.4769333,11.3674 L13.7544,12.1051333 C14.0044193,12.2495287 14.0903712,12.5690595 13.9465333,12.8194 Z" id="Shape"></path>
                    </g>
                    <path d="M80.2046667,8.68706667 L76.7096,8.68706667 L76.7096,1.6984 L73.5166667,1.6984 L73.5166667,19.9298 L76.7096,19.9298 L76.7096,11.924 L80.2046667,11.924 L80.2046667,19.9298 L83.468,19.9298 L83.468,1.69913333 L80.2046667,1.69913333 L80.2046667,8.68706667 Z M23.2774667,1.6984 L26.8209333,12.8773333 L26.8209333,19.9298 L30.3680667,19.9298 L30.3680667,12.5158 L34.0420667,1.69913333 L31.0566667,1.69913333 L28.6454667,8.80146667 L26.4623333,1.6984 L23.2774667,1.6984 Z M54.0723333,1.6984 L52.5433333,10.3708 L50.7694,1.6984 L45.7849333,1.6984 L45.7849333,19.9298 L48.6427333,19.9298 L48.6427333,6.18713333 L51.0825333,18.1338667 L53.7518667,18.1338667 L55.9152,5.9928 L55.9152,19.9298 L59.2665333,19.9298 L59.2665333,1.69913333 L54.0723333,1.6984 Z" id="Shape"></path>
                    <path d="M93.1964,1.6984 L88.2588667,1.6984 L84.9273333,19.9298 L87.8819333,19.9298 L88.5881333,15.6874667 L92.2636,15.6874667 L92.9492667,19.9298 L96.2052667,19.9298 L93.1964,1.69913333 L93.1964,1.6984 Z M89.0948667,12.6485333 L90.4537333,4.4946 L91.7722667,12.6485333 L89.0956,12.6485333 L89.0948667,12.6485333 Z M64.0588667,1.6984 L60.7258667,19.9298 L63.6812,19.9298 L64.3881333,15.6874667 L68.0636,15.6874667 L68.7492667,19.9298 L72.0038,19.9298 L68.9956667,1.69913333 L64.0588667,1.69913333 L64.0588667,1.6984 Z M64.8948667,12.6485333 L66.253,4.4946 L67.5715333,12.6485333 L64.8948667,12.6485333 Z M36.3256667,1.6984 L32.9934,19.9298 L35.9487333,19.9298 L36.6564,15.6874667 L40.3304,15.6874667 L41.0168,19.9298 L44.2713333,19.9298 L41.2632,1.69913333 L36.3256667,1.69913333 L36.3256667,1.6984 Z M37.1616667,12.6485333 L38.5205333,4.4946 L39.8390667,12.6485333 L37.1624,12.6485333 L37.1616667,12.6485333 Z" id="Shape"></path>
                </g>
            </g>
        </g>
    </g>
</svg>