<?xml version="1.0" encoding="UTF-8"?>
<svg width="103px" height="22px" viewBox="0 0 103 22" version="1.1" xmlns="http://www.w3.org/2000/svg" xmlns:xlink="http://www.w3.org/1999/xlink">
    <!-- Generator: Sketch 54.1 (76490) - https://sketchapp.com -->
    <title>logo-unilever</title>
    <desc>Created with Sketch.</desc>
    <g id="Home-One-Page-Landing" stroke="none" stroke-width="1" fill="none" fill-rule="evenodd">
        <g id="Artboard" transform="translate(-155.000000, -543.000000)" fill="#5B5E6D" fill-rule="nonzero">
            <g id="Group-2" transform="translate(30.000000, 536.000000)">
                <g id="logo-unilever" transform="translate(125.000000, 7.000000)">
                    <path d="M47.9306667,0 C47.8764,0 47.8221333,0.00146666667 47.7671333,0.00513333333 C45.3618,0.1518 43.1647333,5.51466667 43.516,11.2163333 C43.5849333,12.331 44.0711333,15.3926667 44.7538667,16.907 C43.56,18.8173333 42.0442,19.1033333 41.1642,19.1033333 C39.9263333,19.1033333 38.0460667,18.3986 38.0460667,15.5195333 C38.9319333,13.1046667 38.3423333,10.3436667 37.1059333,10.3436667 C35.3415333,10.3436667 34.7541333,13.453 34.6947333,15.6339333 C34.1080667,16.9304667 33.4590667,17.9872 32.5754,17.9872 C29.9317333,17.9872 29.6978,9.75186667 27.7544667,9.75186667 C26.1682667,9.75186667 23.4395333,14.9878667 22.6138,14.9878667 C22.1459333,14.9878667 21.7301333,13.5043333 21.4346,12.0501333 C21.3524667,11.6431333 21.2718,11.1518 21.0078,11.1261333 C20.4849333,11.0777333 19.8308,11.5287333 19.5895333,12.1572 C19.3446,12.7834667 18.9082667,14.7444 18.4330667,16.533 C18.1485333,17.5626 17.4489333,19.7413333 17.3653333,20.5538667 C17.3037333,21.1405333 17.5508667,21.5805333 18.1397333,21.6421333 C19.6027333,21.7939333 24.9898,15.1653333 26.6955333,15.1653333 C28.8735333,15.1653333 29.4000667,21.692 31.8728667,21.692 C33.3424667,21.692 34.6947333,17.93 35.5784,17.93 C36.5757333,17.93 37.0465333,21.692 39.8691333,21.692 C43.4008667,21.692 44.5734667,19.3981333 45.6331333,19.3981333 C46.5153333,19.3981333 47.4569333,21.6326 49.6312667,21.6326 C50.9835333,21.6326 52.1634667,21.2219333 53.5736667,20.2788667 C54.3942667,21.2219333 55.3916,21.692 56.3383333,21.692 C62.1536667,21.692 63.8014667,16.4574667 64.9821333,16.4574667 C66.0388667,16.4574667 65.8056667,21.6326 68.8086667,21.6326 C72.8038667,21.6326 75.5120667,14.6329333 75.5120667,10.8687333 C75.5120667,9.8714 75.2150667,9.0508 74.3922667,9.0508 C73.0370667,9.0508 72.0368,10.6384667 72.0368,12.518 C72.0368,14.223 72.4489333,14.3418 72.4489333,15.5195333 C72.4489333,17.1035333 71.6261333,19.1627333 70.6229333,19.1627333 C68.2784667,19.1627333 67.6881333,9.8714 66.275,9.8714 C65.4544,9.8714 65.0400667,10.8687333 64.8061333,11.5764 C63.5066667,15.2834 61.7503333,19.3424 58.3960667,19.3424 C57.7463333,19.3424 56.9851333,19.0446667 56.573,18.6354667 C58.9226,17.1666 60.5117333,15.6339333 60.5117333,13.7544 C60.5117333,12.1638 59.4542667,9.75186667 57.6297333,9.75186667 C55.3373333,9.75186667 52.6892667,13.2227333 52.6892667,17.3382 C52.6892667,18.106 52.8088,18.6362 52.9268667,19.0446667 C52.7508667,19.283 52.0417333,19.5763333 51.4528667,19.5763333 C49.8659333,19.5763333 48.1844,17.8882 47.9842,16.8967333 C49.1692667,14.3388667 51.535,11.3732667 51.1016,4.26873333 C50.9439333,1.65146667 49.6151333,0.00366666667 47.9306667,0 Z M37.8106667,0.815466667 C36.6945333,0.815466667 35.6436667,1.98733333 35.7551333,3.4584 C35.8262667,4.4286 36.399,5.2272 37.5224667,5.2272 C38.8116667,5.2272 39.7518,3.75686667 39.633,2.40166667 C39.5508667,1.46006667 38.8116667,0.815466667 37.8106667,0.815466667 Z M14.6175333,1.969 C14.4373886,1.97061697 14.2583837,1.99777633 14.0858667,2.04966667 C13.1420667,2.34593333 12.1154,3.63953333 12.4094667,5.60486667 C12.5436667,6.4922 13.0328,7.6934 13.2014667,8.228 C13.4977333,9.16666667 13.8497333,10.6384667 13.3818667,13.6942667 C12.7908,17.5193333 11.3813333,20.1666667 8.20526667,20.1050667 C6.08886667,20.1050667 4.14406667,18.4565333 3.9138,14.2237333 C3.67546667,10.2234 3.97393333,8.5206 4.6178,4.99326667 C4.91113333,3.399 5.02773333,2.04893333 3.73486667,2.28506667 C2.09146667,2.63486667 1.61773333,3.28533333 1.08826667,5.10986667 C0.0894666667,8.51986667 -0.0821333333,10.9310667 0.0293333333,13.3422667 C0.267666667,18.4572667 2.55933333,21.8115333 7.73666667,21.9237333 C13.7338667,22.0454667 16.1465333,16.2220667 16.3782667,11.3982 C16.5557333,7.87013333 16.4970667,5.40246667 15.9668667,3.5222 C15.6346667,2.51753333 15.2995333,1.9778 14.6175333,1.969 Z M47.8962,3.52733333 C48.7226667,3.5178 49.0988667,4.2636 49.1971333,5.85566667 C49.4222667,9.49813333 47.8683333,14.0125333 47.2200667,14.0514 C46.8688,14.0734 46.4940667,13.6847333 46.3408,11.1591333 C46.1017333,7.2864 46.6429333,3.6014 47.8148,3.53026667 C47.8419333,3.52806667 47.8690667,3.52733333 47.8954667,3.52733333 L47.8962,3.52733333 Z M99.3842667,8.756 C93.8556667,8.756 92.6830667,17.0470667 91.7986667,17.0470667 C90.3283333,17.0470667 90.7984,10.4016 89.738,10.4016 C88.7964,10.4016 88.3351333,11.5236 88.2097333,12.0479333 C87.4808,15.0714667 85.2705333,19.5191333 81.9742,19.5191333 C81.2108,19.5191333 79.8570667,19.2236 79.8570667,18.4572667 C79.8570667,17.6337333 85.0358667,17.5186 85.0358667,13.5769333 C85.0358667,12.1088 83.6843333,10.0474 81.6823333,10.0474 C79.0364667,10.0474 76.4551333,12.9316 76.4551333,16.9304667 C76.4551333,20.515 78.6822667,21.692 80.916,21.692 C84.7997333,21.692 87.1515333,18.5144667 88.385,15.8678667 C88.9760667,17.6337333 89.3236667,21.692 90.7976667,21.692 C91.3865333,21.692 91.7986667,21.3979333 92.5063333,19.8117333 C94.2663333,15.8678667 95.9728,11.3417333 98.3275333,11.3417333 C99.2075333,11.3417333 98.6795333,12.9316 100.795933,12.9316 C101.793267,12.9316 102.497267,12.1088 102.497267,11.1635333 C102.497267,9.8098 101.2638,8.75526667 99.3842667,8.75526667 L99.3842667,8.756 Z M80.916,12.4043333 C82.1524,12.4043333 82.5073333,13.8673333 82.2132667,14.7532 C81.9162667,15.6339333 80.861,16.6371333 79.2139333,16.9304667 C78.8597333,16.0468 78.6822667,12.4043333 80.916,12.4043333 Z M56.7512,12.5774 C57.3943333,12.5774 57.9245333,13.4002 57.9245333,14.3975333 C57.9245333,15.5745333 57.4515333,16.9898667 55.7494667,17.5193333 C55.5104,17.2201333 54.9853333,16.5212667 54.9853333,15.0450667 C54.9853333,13.1626 56.2173333,12.5774 56.7512,12.5774 L56.7512,12.5774 Z" id="Shape"></path>
                </g>
            </g>
        </g>
    </g>
</svg>