<svg xmlns="http://www.w3.org/2000/svg" width="580" height="333" viewBox="0 0 580 333">
    <g fill="none" fill-rule="evenodd">
        <ellipse cx="155" cy="241.5" fill="#3E4657" fill-rule="nonzero" rx="145" ry="7.5"/>
        <ellipse cx="126.5" cy="241.5" fill="#000" fill-rule="nonzero" opacity=".1" rx="107.5" ry="5.5"/>
        <ellipse cx="435" cy="294.5" fill="#3E4657" fill-rule="nonzero" rx="145" ry="8.5"/>
        <ellipse cx="407.5" cy="294.5" fill="#3E4657" fill-rule="nonzero" opacity=".1" rx="107.5" ry="5.5"/>
        <ellipse cx="44.5" cy="259.5" fill="#3E4657" fill-rule="nonzero" rx="44.5" ry="2.5"/>
        <ellipse cx="492" cy="328.5" fill="#3E4657" fill-rule="nonzero" rx="54" ry="4.5"/>
        <path fill="#3E4657" fill-rule="nonzero" d="M317 197h165v98H317z"/>
        <ellipse cx="371.5" cy="247" fill="#007BFF" fill-rule="nonzero" rx="37.5" ry="37"/>
        <path fill="#007BFF" fill-rule="nonzero" d="M420 211h12v12h-12z"/>
        <path fill="#007BFF" fill-rule="nonzero" d="M436 211h12v12h-12z" opacity=".5"/>
        <path fill="#007BFF" fill-rule="nonzero" d="M450 211h12v12h-12z" opacity=".2"/>
        <path fill="#2F2E41" fill-rule="nonzero" d="M420 226h12v12h-12z"/>
        <path fill="#2F2E41" fill-rule="nonzero" d="M436 226h12v12h-12z" opacity=".5"/>
        <path fill="#2F2E41" fill-rule="nonzero" d="M450 226h12v12h-12z" opacity=".2"/>
        <path fill="#FF6584" fill-rule="nonzero" d="M420 242h12v12h-12z"/>
        <path fill="#FF6584" fill-rule="nonzero" d="M436 242h12v12h-12z" opacity=".5"/>
        <path fill="#FF6584" fill-rule="nonzero" d="M450 242h12v12h-12z" opacity=".2"/>
        <path fill="#3F3D56" fill-rule="nonzero" d="M370 210v74c20.957 0 39-16.565 39-37s-18.043-37-39-37z" opacity=".5"/>
        <path fill="#FFB9B9" fill-rule="nonzero" d="M517.776 203s21.147 9.863 13.594 21.282c-7.552 11.42-30.209 33.222-30.712 37.894-.504 4.671-3.525 8.824-3.525 8.824s-10.07-10.9-9.062-11.939c1.007-1.038 11.076-10.9 11.58-13.496.503-2.596 15.608-22.84 15.608-22.84l-13.594-12.458L517.776 203z"/>
        <path fill="#000" fill-rule="nonzero" d="M517.776 203s21.147 9.863 13.594 21.282c-7.552 11.42-30.209 33.222-30.712 37.894-.504 4.671-3.525 8.824-3.525 8.824s-10.07-10.9-9.062-11.939c1.007-1.038 11.076-10.9 11.58-13.496.503-2.596 15.608-22.84 15.608-22.84l-13.594-12.458L517.776 203z" opacity=".1"/>
        <path fill="#FFB9B9" fill-rule="nonzero" d="M492 222.764s14.66 6.21 13.648 16.044c-1.01 9.834 17.693 37.783 17.693 37.783s2.022 6.728 1.516 8.799c-.505 2.07 13.143 1.552 13.143 1.552v-4.658s-10.615-18.632-11.626-23.808c-1.011-5.176-7.077-25.361-7.077-25.361S517.275 215 507.165 215c-5.967 0-11.585 2.876-15.165 7.764z"/>
        <path fill="#2F2E41" fill-rule="nonzero" d="M492.619 178s31.402 25.503 30.355 27.585c-1.046 2.082-16.224 9.89-18.841 10.41C501.516 216.515 483 178 483 178h9.619z"/>
        <path fill="#000" fill-rule="nonzero" d="M492.619 178s31.402 25.503 30.355 27.585c-1.046 2.082-16.224 9.89-18.841 10.41C501.516 216.515 483 178 483 178h9.619z" opacity=".1"/>
        <path fill="#2F2E41" fill-rule="nonzero" d="M458.566 183.711s-3.083 13.878 5.14 19.532C471.93 208.898 485.808 231 487.35 231c1.542 0 23.643-11.822 22.615-13.878-1.028-2.056-12.335-20.047-12.335-20.047l-3.598-19.018s-31.354-1.028-35.466 5.654z"/>
        <path fill="#FFB9B9" fill-rule="nonzero" d="M493 137l4.57 29.897 8.125 21.134s12.188 12.887 5.078 13.918c-7.109 1.031-11.172-13.918-11.172-13.918L493 175.661V137z"/>
        <path fill="#000" fill-rule="nonzero" d="M493 137l4.57 29.897 8.125 21.134s12.188 12.887 5.078 13.918c-7.109 1.031-11.172-13.918-11.172-13.918L493 175.661V137z" opacity=".1"/>
        <path fill="#FFB9B9" fill-rule="nonzero" d="M475.072 104s0 11.308-3.596 12.385C467.879 117.462 485.862 132 485.862 132s-2.055-18.846 5.138-23.692L475.072 104z"/>
        <path fill="#000" fill-rule="nonzero" d="M475.072 104s0 11.308-3.596 12.385C467.879 117.462 485.862 132 485.862 132s-2.055-18.846 5.138-23.692L475.072 104z" opacity=".1"/>
        <circle cx="483" cy="101" r="12" fill="#FFB9B9" fill-rule="nonzero"/>
        <path fill="#007BFF" fill-rule="nonzero" d="M484.272 125.864s-11.05-13.364-12.628-12.85c-1.579.514-13.155 11.822-14.207 15.42-1.053 3.598-3.157 29.297-1.579 34.437 1.579 5.14 1.579 18.503 1.053 19.531-.527 1.028-3.684 3.598-.527 3.598 3.158 0 14.207-7.71 21.574-6.168 7.366 1.542 17.364-.514 17.89-1.542.526-1.028-.526-27.755 0-29.81.526-2.057-1.052-12.336-1.578-14.392-.527-2.056-.527-10.28-5.788-12.336l-2.244-.216-.126 5.084-1.84-.756z"/>
        <path fill="#FFB9B9" fill-rule="nonzero" d="M461 152s1.02 15.926 8.672 22.604c7.652 6.679 23.975 17.98 24.995 20.035 1.02 2.055 10.713 12.844 12.753 8.22a7.737 7.737 0 0 0 .41-4.555 11.33 11.33 0 0 0-5.053-7.404l-4.539-2.939-22.445-23.632-1.02-12.329H461z"/>
        <path fill="#2F2E41" fill-rule="nonzero" d="M490.756 257.225s-6.059-1.294-8.166 2.328c-2.107 3.62 2.107 13.45 2.107 13.45s12.118 24.833 14.225 21.728c2.107-3.104-1.58-14.485-1.58-14.485s5.268-11.381 3.16-11.899c-2.107-.517-9.746-4.914-9.746-11.122zM526.481 287.223s-3.179-1.584-3.709 0c-.53 1.584-3.708 9.502 0 10.558 3.709 1.056 40.265 2.111 39.205 0-1.06-2.112-6.887-4.751-10.596-5.807-3.708-1.056-13.244-8.974-13.244-8.974s-5.298 6.863-11.656 4.223zM495.682 92.081a3.318 3.318 0 0 0-1.421-1.881 7.727 7.727 0 0 0-.3-2.483c-.782-2.344-2.634-2.21-4.382-3.246-.758-.45-.712-.847-1.106-1.586a5.847 5.847 0 0 0-2.237-2.313c-1.12-.724-2.305-1.47-3.631-1.562-2.788-.193-4.925 2.466-7.59 3.32-1.174.375-2.436.39-3.616.746-1.18.356-2.359 1.205-2.535 2.44-.08.571.062 1.157-.02 1.727-.164 1.134-1.145 1.928-1.801 2.86-1.453 2.063-1.287 4.976-.125 7.22.244.464.524.908.837 1.328a8.259 8.259 0 0 0 .884 3.036c1.162 2.243 3.16 3.92 5.248 5.313a12.724 12.724 0 0 1-.31-2.266c-.03-.254.003-.512.095-.75.233-.493.847-.624 1.315-.894.97-.56 1.35-1.796 1.379-2.927.028-1.131-.209-2.264-.092-3.39.01-.523.237-1.017.626-1.362a2.136 2.136 0 0 1 1.178-.285c1.988-.082 4.065-.119 5.818-1.072a8.577 8.577 0 0 1 1.81-.929c1.49-.394 3.014.665 3.872 1.961.86 1.296 1.287 2.839 2.08 4.177.792 1.34 2.16 2.533 3.692 2.374a.61.61 0 0 0 .458-.206.703.703 0 0 0 .084-.395l.086-5.937a9.094 9.094 0 0 0-.296-3.018z"/>
        <path fill="#007BFF" fill-rule="nonzero" d="M466.188 126s11.01 5.34 10.51 16.552 3.003 12.28-5.505 13.348c-8.509 1.068-10.51 0-11.011 1.068-.5 1.067-3.503-24.56-1.501-27.23 2.002-2.67 7.507-3.738 7.507-3.738z"/>
        <ellipse cx="236.5" cy="23" fill="#2F2E41" fill-rule="nonzero" rx="16.5" ry="16"/>
        <path fill="#2F2E41" fill-rule="nonzero" d="M248.088 202l-9.435 25.197s-7.863 6.17-3.146 8.227c4.718 2.057 14.154-2.057 14.154-2.057L257 214.855 255.952 202h-7.864z"/>
        <path fill="#000" fill-rule="nonzero" d="M248.088 202l-9.435 25.197s-7.863 6.17-3.146 8.227c4.718 2.057 14.154-2.057 14.154-2.057L257 214.855 255.952 202h-7.864z" opacity=".1"/>
        <path fill="#C6D0D9" fill-rule="nonzero" d="M250.327 53l7.347 1.056s3.43 29.046 1.96 31.158c-1.47 2.113-8.818 10.562-11.757 8.45-2.939-2.113 2.45-40.664 2.45-40.664z"/>
        <path fill="#B27A82" fill-rule="nonzero" d="M174.937 107s-10.72 4.278-12.76 4.754c-2.043.475-5.105 5.228-1.532 6.18 3.573.95 17.355-8.557 17.355-8.557L174.937 107z"/>
        <path fill="#2F2E41" fill-rule="nonzero" d="M252 214.382l5.649 20.545s.513 7.516 3.08 8.017c2.568.501 10.271-2.505 10.271-3.507 0-1.003-3.081-9.02-3.081-9.02s0-6.013-3.081-8.519C261.757 219.393 258.98 211 258.98 211L252 214.382zM260.22 166.36c1.09 2.45.956 20.218-.238 32.042-.577 5.746-1.404 10.088-2.462 10.598l-7.738-1.862-3.062-.738-.081-6.469-.459-35.651-9.18-36.92V118l23.22 2.08 3.683 5.57.097.15s-5.4 36.92-3.78 40.56z"/>
        <path fill="#000" fill-rule="nonzero" d="M255.426 177.8c1.16 1.67 3.095 11.664 4.64 20.602-.58 5.746-1.41 10.088-2.472 10.598l-7.766-1.862c-.12-.239-.239-.488-.363-.738-.992-1.997-1.924-4.202-2.791-6.469l-.46-35.651L237 127.36V118l23.304 2.08 3.696 5.57-21.58-1.41 4.877 20.28 5.962 21.32s0 8.84 2.167 11.96z" opacity=".1"/>
        <path fill="#2F2E41" fill-rule="nonzero" d="M217.44 95.686s-7.17 15.943 3.073 38.057a450.605 450.605 0 0 1 16.902 42.171s3.585 16.972 8.707 27.772c5.122 10.8 4.098 11.314 4.098 11.314l8.195-4.629s-4.61-31.885-6.659-34.971c-2.048-3.086-2.048-11.829-2.048-11.829l-5.634-21.085-4.61-20.057L262 123.97S262 94.657 251.756 89l-34.316 6.686z"/>
        <path fill="#B27A82" fill-rule="nonzero" d="M226.162 31s0 8.17-2.617 8.68c-2.616.511-7.849.511-9.419 3.065C212.556 45.298 226.162 79 226.162 79l14.128-8.68L245 47.34s-6.803-4.085-6.803-6.127V32.02L226.162 31z"/>
        <path fill="#000" fill-rule="nonzero" d="M226.162 31s0 8.17-2.617 8.68c-2.616.511-7.849.511-9.419 3.065C212.556 45.298 226.162 79 226.162 79l14.128-8.68L245 47.34s-6.803-4.085-6.803-6.127V32.02L226.162 31z" opacity=".1"/>
        <circle cx="235" cy="27" r="13" fill="#B27A82" fill-rule="nonzero"/>
        <path fill="#C6D0D9" fill-rule="nonzero" d="M227.963 68.991S223.296 40 222.259 40s-15.555 3.052-16.592 3.56c-1.037.509-4.667 5.087-4.667 5.087l7.26 20.344s3.11 14.242 5.184 16.785c2.075 2.543 6.223 9.664 4.149 10.68-2.074 1.018-4.149 2.544-2.074 2.544 2.074 0 19.185-3.052 20.222-1.526 1.037 1.526 18.148-5.595 18.148-6.103 0-.509-2.074-24.414-2.074-24.414L257 55.259l-15.556-10.681-13.481 24.413z"/>
        <path fill="#C6D0D9" fill-rule="nonzero" d="M206.352 46l-5.211 2.58s-14.592 33.015-15.634 33.531c-1.042.516-6.253 10.318-6.775 12.381-.52 2.064-1.563 8.77-3.126 9.802A27.132 27.132 0 0 1 173 105.84s3.127 5.159 4.69 5.159c1.564 0 6.775-7.222 6.775-7.222s11.465 7.222 14.591 1.547C202.183 99.651 210 63.54 210 63.54L206.352 46z"/>
        <path fill="#B27A82" fill-rule="nonzero" d="M246 60.948s-6.891-17.88-10.829-15.776c-3.937 2.104 2.954 14.725 7.383 16.828L246 60.948z"/>
        <path fill="#000" fill-rule="nonzero" d="M239.467 60.637L246.895 59l1.573 7.83s6.882 11.869 5.294 17.03c-1.588 5.16-11.118 13.417-14.295 8.772-3.176-4.644-5.824-11.869-3.706-15.997 2.118-4.129 5.294-13.934 3.706-15.998z" opacity=".1"/>
        <path fill="#C6D0D9" fill-rule="nonzero" d="M240.467 59.637L247.895 58l1.573 7.83s6.882 11.869 5.294 17.03c-1.588 5.16-11.118 13.417-14.295 8.772-3.176-4.644-5.824-11.869-3.706-15.997 2.118-4.129 5.294-13.934 3.706-15.998z"/>
        <ellipse cx="237.689" cy="19.07" fill="#2F2E41" fill-rule="nonzero" rx="5.94" ry="12.404" transform="rotate(-64.899 237.69 19.07)"/>
        <circle cx="247" cy="9" r="7" fill="#2F2E41" fill-rule="nonzero"/>
        <path fill="#2F2E41" fill-rule="nonzero" d="M240.751 7c0-3.575 3.126-6.575 7.249-6.958-3.093-.292-6.108.967-7.76 3.24-1.653 2.274-1.653 5.162 0 7.435 1.652 2.274 4.667 3.533 7.76 3.241-4.123-.383-7.248-3.383-7.249-6.958z"/>
        <path fill="#3E4657" fill-rule="nonzero" d="M33 115h182v125H33z"/>
        <path fill="#F2F2F2" fill-rule="nonzero" d="M47 127h24v24H47z"/>
        <path fill="#007BFF" fill-rule="nonzero" d="M47 167h24v24H47z"/>
        <path fill="#F2F2F2" fill-rule="nonzero" d="M47 205h24v24H47zM83 134h114v2H83zM83 142h35v2H83zM83 174h114v2H83zM83 181h35v2H83zM83 213h114v2H83zM83 219h35v2H83z"/>
        <path fill="#007BFF" fill-rule="nonzero" d="M508 317.842c0 10.494-6.267 14.158-14 14.158a24.816 24.816 0 0 1-1.6-.055c-6.98-.491-12.4-4.344-12.4-14.103 0-10.097 12.965-22.84 13.942-23.786h.001L494 294s14 13.35 14 23.842z"/>
        <path fill="#3F3D56" fill-rule="nonzero" d="M497.274 330.4l4.799-7.12-4.812 7.903-.012.817a19.549 19.549 0 0 1-.997-.049l.517-10.5-.004-.081.009-.014.05-.993L492 312.44l4.838 7.179.012.21.39-7.933-4.129-8.187 4.18 6.796.406-16.449.002-.056v.055l-.068 12.97 4.11-5.142-4.127 6.26-.109 7.102 3.84-6.817-3.855 7.863-.06 3.949 5.57-9.489-5.592 10.866-.134 8.784z"/>
        <path fill="#007BFF" fill-rule="nonzero" d="M58 245.842C58 256.336 51.733 260 44 260a24.816 24.816 0 0 1-1.6-.055c-6.98-.491-12.4-4.344-12.4-14.103 0-10.097 12.965-22.84 13.942-23.786h.001L44 222s14 13.35 14 23.842z"/>
        <path fill="#3F3D56" fill-rule="nonzero" d="M43.274 258.4l4.799-7.12-4.812 7.903-.012.817a19.549 19.549 0 0 1-.997-.049l.517-10.5-.004-.081.009-.014.05-.993L38 240.44l4.838 7.179.012.21.39-7.933-4.129-8.187 4.18 6.796.406-16.449.002-.056v.055l-.068 12.97 4.11-5.142-4.127 6.26-.109 7.102 3.84-6.817-3.855 7.863-.06 3.949L49 238.75l-5.592 10.866-.134 8.784z"/>
        <g fill="#EC6468">
            <path d="M219.677 60.292c.04-.055.097-.128.164-.215a37.605 37.605 0 0 1 .26-.33.2.2 0 0 0-.011-.263l-.571-.6a.2.2 0 0 0-.276-.013l-.026.023a55.127 55.127 0 0 1-.486.415 2.786 2.786 0 0 0-1.02-.429 17.33 17.33 0 0 1-.056-.54 60.443 60.443 0 0 1-.009-.093l-.003-.035a.2.2 0 0 0-.199-.181h-.815a.2.2 0 0 0-.199.174l-.004.035a72.202 72.202 0 0 1-.049.368l-.004.034-.032.223c-.388.074-.749.22-1.057.431a23.66 23.66 0 0 1-.51-.425.2.2 0 0 0-.271.01l-.571.573a.2.2 0 0 0-.02.257l.02.029a69.877 69.877 0 0 1 .375.529 2.34 2.34 0 0 0-.432 1.074 6.814 6.814 0 0 1-.243.019 30.636 30.636 0 0 1-.412.025.2.2 0 0 0-.189.2v.817a.2.2 0 0 0 .179.2 13.958 13.958 0 0 1 .417.047 12.056 12.056 0 0 1 .264.036c.052.34.2.662.443 1.026a28.875 28.875 0 0 1-.442.556.2.2 0 0 0 .016.271l.571.546a.2.2 0 0 0 .262.012 15.24 15.24 0 0 1 .323-.252c.108-.082.183-.138.238-.177.402.247.714.386 1.049.439a5.56 5.56 0 0 1 .022.25 26.424 26.424 0 0 1 .03.414.2.2 0 0 0 .198.188h.789a.2.2 0 0 0 .198-.18 12.826 12.826 0 0 1 .014-.13 20.523 20.523 0 0 1 .072-.56 3.143 3.143 0 0 0 1.06-.445c.052.04.122.097.203.164l.02.017a21.675 21.675 0 0 1 .313.266.2.2 0 0 0 .276-.013l.544-.573a.2.2 0 0 0 .003-.272 11.868 11.868 0 0 1-.084-.093c-.064-.07-.127-.142-.186-.21l-.018-.021a7.168 7.168 0 0 1-.159-.188c.214-.297.36-.633.441-1.016a4.255 4.255 0 0 1 .272-.034 20.425 20.425 0 0 1 .419-.041.2.2 0 0 0 .182-.2v-.872a.2.2 0 0 0-.187-.2 17.402 17.402 0 0 1-.414-.03 13.295 13.295 0 0 1-.272-.025 3.975 3.975 0 0 0-.41-1.012zm-.42 4.574l.275-.02a16.544 16.544 0 0 0-.145-.18l-.13.2zm-4.471-5.703l-.272.015a18.382 18.382 0 0 0 .141.185l.13-.2zm5.53 3.112l-.205.025c-.07.009-.127.017-.17.026a.625.625 0 0 0-.069.017.263.263 0 0 0-.048.02.211.211 0 0 0-.106.147c-.07.423-.228.775-.472 1.078a.196.196 0 0 0-.043.162c.004.022.01.04.018.057a.359.359 0 0 0 .029.052 1.3 1.3 0 0 0 .065.09c.047.058.11.133.188.223l.02.022.15.171-.286.301-.174-.147-.021-.017a7.44 7.44 0 0 0-.23-.185 1.433 1.433 0 0 0-.09-.064.381.381 0 0 0-.05-.028.227.227 0 0 0-.052-.017.194.194 0 0 0-.16.036c-.32.237-.707.4-1.134.479a.198.198 0 0 0-.116.065.214.214 0 0 0-.03.045.283.283 0 0 0-.02.048.748.748 0 0 0-.018.075 11.006 11.006 0 0 0-.082.604h-.422a25.534 25.534 0 0 0-.036-.454 3.19 3.19 0 0 0-.029-.213.256.256 0 0 0-.015-.045c-.008-.018-.008-.018-.03-.048-.037-.042-.037-.042-.14-.073-.346-.026-.66-.165-1.126-.461a.19.19 0 0 0-.157-.026.233.233 0 0 0-.045.015 1.67 1.67 0 0 0-.136.085c-.06.044-.14.103-.234.175l-.019.014a24.65 24.65 0 0 0-.191.148l-.312-.298.148-.185.014-.017a9.764 9.764 0 0 0 .244-.323.436.436 0 0 0 .025-.044.232.232 0 0 0 .017-.043.186.186 0 0 0-.029-.172c-.287-.41-.44-.742-.465-1.084a.196.196 0 0 0-.069-.138.212.212 0 0 0-.047-.032.29.29 0 0 0-.049-.018.84.84 0 0 0-.078-.018 4.314 4.314 0 0 0-.352-.05l-.246-.03v-.45a29.466 29.466 0 0 0 .443-.03 3.787 3.787 0 0 0 .212-.026.264.264 0 0 0 .042-.012c.017-.007.017-.007.047-.026.046-.033.046-.033.084-.154.018-.399.195-.831.444-1.112.08-.092.073-.123.032-.216a.695.695 0 0 0-.032-.057 21.54 21.54 0 0 0-.369-.526l.321-.322.166.14.018.016c.09.073.164.134.221.178.035.027.063.047.086.062.016.011.03.02.046.027.015.008.03.013.05.018a.19.19 0 0 0 .17-.038c.311-.241.702-.4 1.13-.46.115-.017.13-.043.162-.135a.641.641 0 0 0 .014-.06l.014-.088.037-.258.004-.035.031-.23h.459a50.828 50.828 0 0 0 .056.534 2.594 2.594 0 0 0 .018.12c.002.01.004.019.008.03.028.075.05.11.154.13.452.083.825.237 1.104.47.09.074.139.063.218.025.01-.006.02-.01.029-.017a2.994 2.994 0 0 0 .112-.087 16.934 16.934 0 0 0 .399-.338l.32.336a35.941 35.941 0 0 0-.329.425 2.358 2.358 0 0 0-.082.12.24.24 0 0 0-.016.034c-.022.059-.028.105.017.178.215.35.35.678.46 1.134a.193.193 0 0 0 .083.12c.027.016.027.016.043.023a.787.787 0 0 0 .106.024c.042.005.098.012.168.018a13.677 13.677 0 0 0 .43.035v.505l-.245.025z"/>
            <path d="M216.948 60.031a1.997 1.997 0 0 0-1.994 2c0 1.104.893 2 1.994 2a1.997 1.997 0 0 0 1.994-2c0-1.104-.893-2-1.994-2zm0 .4c.88 0 1.594.716 1.594 1.6 0 .884-.714 1.6-1.594 1.6-.88 0-1.594-.716-1.594-1.6 0-.884.714-1.6 1.594-1.6z"/>
        </g>
    </g>
</svg>
