<?xml version="1.0" encoding="UTF-8"?>
<svg width="590px" height="431px" viewBox="0 0 590 431" version="1.1" xmlns="http://www.w3.org/2000/svg" xmlns:xlink="http://www.w3.org/1999/xlink">
    <!-- Generator: sketchtool 54.1 (76490) - https://sketchapp.com -->
    <title>94C2B28B-694F-46CE-B6D9-F449641564C7</title>
    <desc>Created with sketchtool.</desc>
    <g id="Careers" stroke="none" stroke-width="1" fill="none" fill-rule="evenodd">
        <g id="Website---Careers-Redesign" transform="translate(-55.000000, -2340.000000)" fill-rule="nonzero">
            <g id="Who-are-we-looking-for?" transform="translate(55.000000, 2340.000000)">
                <g id="graphic-looking-for">
                    <ellipse id="Oval" fill="#F3F5F9" cx="329" cy="212.5" rx="212" ry="212.5"></ellipse>
                    <circle id="Oval" fill="#EC6468" cx="394.5" cy="76.5" r="55.5"></circle>
                    <path d="M163.498138,43.2865247 L164.930867,74.1979455 C170.869476,82.3954695 177.276067,91.7762465 183.599053,102 L184.501819,54.841449 L185,55.1709381 C177.685996,49.7634522 170.251018,45.6262163 163,43 L163.498138,43.2865247 Z" id="Path" fill="#007BFF"></path>
                    <path d="M164,71 L162.492349,41.0842923 C153.643669,38.2125524 145.058039,37.2598667 137.21013,38.5917282 C136.801828,38.6610411 136.4005,38.7407794 136,38.8217021 C137.994133,40.8574696 149.614515,52.8804835 164,71 Z" id="Path" fill="#007BFF"></path>
                    <path d="M232.494618,107.112164 L233,107.60377 C230.924734,103.625441 228.724909,99.7575175 226.400528,96 L212.239635,152.791967 L212,152.57667 C213.023808,155.068079 213.99743,157.542522 214.920865,160 L232.494618,107.112164 Z" id="Path" fill="#007BFF"></path>
                    <path d="M210.504743,77.0720507 L211,77.4857434 C203.889525,68.6923133 195.80626,60.8088234 186.919105,54 L186,102.399592 C191.876006,112.078401 197.136898,121.61187 201.782674,131 L210.504743,77.0720507 Z" id="Path" fill="#007BFF"></path>
                    <path d="M108,92 C108.792958,100.23687 110.412588,108.372214 112.834215,116.2821 L197,125 C192.606157,116.863353 188.070407,109.229644 183.667152,102.27224 L108.213982,92.6645161 L108,92 Z" id="Path" fill="#007BFF"></path>
                    <path d="M115.869213,125.239086 L115.642088,124.592962 L201,132 C199.968937,130.030832 198.926249,128.08781 197.871936,126.170936 L113.222518,117.647077 L113,117 C113.85317,119.715979 114.809574,122.462341 115.869213,125.239086 Z" id="Path" fill="#007BFF"></path>
                    <path d="M225.493174,97.3962279 L226,97.8439047 C221.821242,91.2582565 217.203791,84.9626558 212.179109,79 L203,133.487311 C206.181356,139.746267 209.06284,145.917163 211.644453,152 L225.493174,97.3962279 Z" id="Path" fill="#007BFF"></path>
                    <path d="M224,189.319198 C227.47606,204.067656 228.793115,218.012614 227.92368,231 C232.814754,220.781956 251.415423,178.451034 244.462384,139 L224,189.319198 Z" id="Path" fill="#007BFF"></path>
                    <path d="M131,156 C135.544181,161.862721 140.493407,167.427212 145.814421,172.656081 L145.607184,171.947314 L222,187 C220.012569,179.100798 217.532279,171.322876 214.572488,163.70813 L131,156 Z" id="Path" fill="#007BFF"></path>
                    <path d="M162,71 C146.897102,51.1462833 134.980337,38.5978745 134.808875,38.4182546 L135.005248,38 C123.544388,40.5854527 115.4524,48.3338426 111,59.5490668 L162,71 Z" id="Path" fill="#007BFF"></path>
                    <path d="M214,162.416276 C214.293071,163.15046 214.591237,163.886357 214.87417,164.617237 C217.600302,171.621376 219.917782,178.759529 221.816321,186 L242.494926,137.359605 L243,137.834719 C241.69082,131.066392 239.472554,124.480901 236.398191,118.235562 C235.178417,115.786769 233.901538,113.374915 232.567553,111 L214,162.416276 Z" id="Path" fill="#007BFF"></path>
                    <path d="M183,102 C176.456564,91.5644247 169.833604,81.9914337 163.695209,73.6237734 L111.942778,61.6677772 L111.767344,61 C108.536558,69.6986868 107.355265,80.3849075 108.333792,92.3203636 L183,102 Z" id="Path" fill="#007BFF"></path>
                    <path d="M222.974029,190.222259 L147,175 C178.95618,206.948919 223.664953,231.451231 226.518623,233 C227.849962,218.923752 226.339995,204.465074 222.974029,190.222259 Z" id="Path" fill="#007BFF"></path>
                    <path d="M214.983008,162 L215,161.949911 C211.337433,152.307572 207.157439,142.869217 202.47818,133.675854 L116,126 C117.468223,129.882355 119.127566,133.806293 120.978028,137.771814 C123.673277,143.421371 126.878962,148.813663 130.55524,153.881675 L214.983008,162 Z" id="Path" fill="#007BFF"></path>
                    <path d="M323.436022,148.549106 L304.853308,173.286248 C304.358309,183.513295 303.48145,194.959819 302,207 L332.812953,171.298396 L333,171.880642 C330.617711,162.893703 327.328418,154.804658 323.221589,148 L323.436022,148.549106 Z" id="Path" fill="#007BFF"></path>
                    <path d="M305,172 L324,147.916892 C319.081061,140.294112 313.072185,134.317673 306.094638,130.56033 C305.731609,130.364868 305.366938,130.181712 305.002138,130 C305.174523,132.79303 306.071211,149.192726 305,172 Z" id="Path" fill="#007BFF"></path>
                    <path d="M335.688629,243.271915 L335.772083,243.965063 C336.683498,239.63941 337.426137,235.317722 338,231 L290.50101,264.850044 L290.450036,264.534816 C289.662014,267.067983 288.845335,269.556378 288,272 L335.688629,243.271915 Z" id="Path" fill="#007BFF"></path>
                    <path d="M335.864247,204.342182 L336,205.007372 C335.891364,193.2018 334.405316,181.45083 331.572908,170 L299.615497,207.61892 C298.14988,219.280955 296.278048,230.407982 294,241 L335.864247,204.342182 Z" id="Path" fill="#007BFF"></path>
                    <path d="M246.98446,152 C242.250978,158.899983 238.235769,166.254428 235,173.951299 L295.73197,235 C297.559264,225.855179 298.94737,217.008909 300,208.77264 L246.720943,152.65343 L246.98446,152 Z" id="Path" fill="#007BFF"></path>
                    <path d="M232,182.334735 L232.252936,181.67976 L294.568444,242 C295.072273,239.787605 295.549458,237.588426 296,235.402465 L234.98941,174.652784 L235.246613,174 C234.103363,176.688379 233.021159,179.466625 232,182.334735 Z" id="Path" fill="#007BFF"></path>
                    <path d="M337.471085,230.131656 L337.581243,230.813758 C338.598527,222.915899 339.069742,214.959909 338.991678,207 L295.356804,243.821042 C293.75399,250.812032 291.968389,257.538351 290,264 L337.471085,230.131656 Z" id="Path" fill="#007BFF"></path>
                    <path d="M277.565744,301.309028 C270.799984,314.503246 262.918961,325.777729 254,335 C264.186634,330.309316 305.135318,309.863658 325,276 L277.565744,301.309028 Z" id="Path" fill="#007BFF"></path>
                    <path d="M227.234105,215 C226.839912,222.615549 226.943627,230.249634 227.544551,237.850957 L227.849157,237.148555 L275.452709,298 C279.089814,290.377599 282.277968,282.53829 285,274.524296 L227.234105,215 Z" id="Path" fill="#007BFF"></path>
                    <path d="M304.531283,171 C305.59402,145.614879 304.519514,128.036074 304.503482,127.7839 L304.904812,127.582077 C294.877517,122.198945 284.162472,123.05568 274,128.993793 L304.531283,171 Z" id="Path" fill="#007BFF"></path>
                    <path d="M286.632319,274.863734 C286.369285,275.614129 286.108914,276.368949 285.84053,277.110626 C283.279548,284.227139 280.328336,291.200585 277,298 L324.115864,272.581213 L324.179233,273.257922 C327.635271,267.183996 330.298593,260.701856 332.105576,253.966346 C332.803484,251.316678 333.434959,248.661229 334,246 L286.632319,274.863734 Z" id="Path" fill="#007BFF"></path>
                    <path d="M300.129563,206 C301.618965,194.173232 302.501274,182.935164 303,172.893133 L270.183382,131.604312 L270.468469,131 C262.451862,135.414591 254.778187,142.585156 248,152.034263 L300.129563,206 Z" id="Path" fill="#007BFF"></path>
                    <path d="M276,299.128703 L226,239 C229.799708,284.371097 248.738466,331.973554 249.95752,335 C260.508265,324.779746 269.063116,312.457691 276,299.128703 Z" id="Path" fill="#007BFF"></path>
                    <path d="M285.700678,274 L285.744905,273.972479 C289.019334,264.296057 291.775024,254.448652 294,244.473052 L233.472953,184 C232.14967,187.891998 230.944725,191.936445 229.858117,196.13334 C228.354608,202.149757 227.397939,208.292052 227,214.483887 L285.700678,274 Z" id="Path" fill="#007BFF"></path>
                    <path d="M135.58618,180.116508 L146.689998,209.920116 C155.175254,215.992507 164.497392,223.069674 174,231 L160.138508,184.514007 L160.738223,184.672591 C151.755351,181.785963 143.049509,180.183337 135,180 L135.58618,180.116508 Z" id="Path" fill="#007BFF"></path>
                    <path d="M145,210 L134.174154,180.007559 C125.098491,179.870122 116.870864,181.60422 110.044812,185.432643 C109.689701,185.631843 109.344281,185.839491 109,186.048036 C111.483186,187.493206 126.003835,196.077653 145,210 Z" id="Path" fill="#007BFF"></path>
                    <path d="M221.357123,222.583384 L222,222.889391 C218.753433,219.783093 215.420099,216.819962 212,214 L215.833903,272.034631 L215.53461,271.906342 C217.299955,273.937887 219.011345,275.969106 220.668778,278 L221.357123,222.583384 Z" id="Path" fill="#007BFF"></path>
                    <path d="M190.896406,200.451534 L191.523048,200.687121 C181.633945,194.568098 171.052562,189.638053 160,186 L174.21008,232.709129 C183.136478,240.078698 191.399785,247.508989 199,255 L190.896406,200.451534 Z" id="Path" fill="#007BFF"></path>
                    <path d="M99,247.59728 C102.261705,255.11798 106.271985,262.288632 110.96975,269 L193,251.322687 C186.373207,245.004355 179.766067,239.203796 173.490322,234 L99.4046151,248.157862 L99,247.59728 Z" id="Path" fill="#007BFF"></path>
                    <path d="M115.371122,276 L114.947885,275.450815 L199,256.626943 C197.385806,255.056083 195.768814,253.513769 194.149024,252 L110.419132,269.540403 L110,268.988916 C111.681891,271.32821 113.472265,273.665238 115.371122,276 Z" id="Path" fill="#007BFF"></path>
                    <path d="M211.328925,214.642387 L211.94876,214.916606 C205.945734,209.847118 199.615102,205.197689 193,201 L201.07425,256.769046 C206.028379,261.836722 210.670296,266.913707 215,272 L211.328925,214.642387 Z" id="Path" fill="#007BFF"></path>
                    <path d="M238,302.7602 C245.380659,315.661841 250.621347,328.454251 253.652755,341 C254.979763,329.861406 259.011017,284.21778 241.337516,249 L238,302.7602 Z" id="Path" fill="#007BFF"></path>
                    <path d="M140,299.698495 C146.178385,304.241579 152.644096,308.351287 159.353687,312 L158.930258,311.342001 L236,302.42755 C231.585892,294.991615 226.744634,287.836252 221.502305,281 L140,299.698495 Z" id="Path" fill="#007BFF"></path>
                    <path d="M144,210.031708 C123.880889,195.209874 108.955871,186.599682 108.74141,186.476711 L108.796908,186 C98.9079026,192.222096 93.7304787,202.477119 93,215 L144,210.031708 Z" id="Path" fill="#007BFF"></path>
                    <path d="M222,278.686428 C222.507893,279.304289 223.021081,279.922318 223.518507,280.539944 C228.299184,286.454664 232.743847,292.617137 236.832763,299 L240.378724,246.356686 L241,246.664397 C237.609613,240.561789 233.43467,234.899866 228.574904,229.813879 C226.656106,227.823851 224.696213,225.885892 222.695225,224 L222,278.686428 Z" id="Path" fill="#007BFF"></path>
                    <path d="M173,231.722434 C163.528224,223.927249 154.24341,216.97093 145.792117,211 L92.4307247,215.945173 L92.0583046,215.370074 C91.6111449,224.590995 93.7395246,235.044714 98.3239563,246 L173,231.722434 Z" id="Path" fill="#007BFF"></path>
                    <path d="M238.238521,302 L162,310.687354 C202.086072,332.17725 251.82972,342.364688 255,343 C251.83385,328.730563 245.875185,314.969901 238.238521,302 Z" id="Path" fill="#007BFF"></path>
                    <path d="M220.999349,279.845865 L221,279.793512 C214.610724,271.834504 207.797715,264.225646 200.590575,257 L117,276.197232 C119.566481,279.403787 122.325231,282.591098 125.276252,285.759164 C129.535857,290.254594 134.196335,294.351846 139.199763,298 L220.999349,279.845865 Z" id="Path" fill="#007BFF"></path>
                    <path d="M590,360.736697 C590,386.085357 459.043289,431 297.5,431 C135.956711,431 5,386.085357 5,360.736697 C5,335.388038 135.956711,339.204395 297.5,339.204395 C459.043289,339.204395 590,335.388043 590,360.736697 Z" id="Path" fill="#3E4657"></path>
                    <path d="M590,360.736697 C590,386.085357 459.043289,431 297.5,431 C135.956711,431 5,386.085357 5,360.736697 C5,335.388038 135.956711,339.204395 297.5,339.204395 C459.043289,339.204395 590,335.388043 590,360.736697 Z" id="Path" fill="#000000" opacity="0.1"></path>
                    <ellipse id="Oval" fill="#3E4657" cx="297.5" cy="361" rx="292.5" ry="46"></ellipse>
                    <path d="M348,312.03383 C348,339.166528 308.982793,330.774135 261.210163,330.774135 C213.437533,330.774135 175,339.166528 175,312.03383 C175,284.901132 214.011894,279 261.784501,279 C309.557108,279 348,284.901132 348,312.03383 Z" id="Path" fill="#000000" opacity="0.1"></path>
                    <path d="M348,307.03383 C348,334.166528 308.982793,325.774135 261.210163,325.774135 C213.437533,325.774135 175,334.166528 175,307.03383 C175,279.901132 214.011894,274 261.784501,274 C309.557108,274 348,279.901132 348,307.03383 Z" id="Path" fill="#3E4657"></path>
                    <path d="M196.715002,229.980036 C197.732876,229.249818 198.856259,228.681977 200.045645,228.296484 C207.586561,225.468327 215.487946,223.734649 223.512836,223.147445 C230.490737,222.648697 238.053539,223.241091 243.503642,227.6614 C244.351367,228.288381 245.045091,229.103029 245.531434,230.042661 C246.217104,231.534042 246.009325,233.267618 245.787348,234.896053 C245.73759,235.527704 245.579607,236.145886 245.320411,236.723158 C244.587013,238.130656 242.781348,238.623711 241.212998,238.454941 C239.644648,238.28617 238.172973,237.617306 236.626026,237.307191 C235.668529,237.138976 234.700377,237.039595 233.728895,237.0098 L224.02661,236.480368 C217.993381,236.151143 211.880652,235.827401 205.96255,237.054711 C204.140709,237.384784 202.380305,237.996232 200.743477,238.867472 C199.391763,239.632416 198.481551,240.730056 197.227308,239.317198 C195.023747,236.834945 193.804052,232.272776 196.715002,229.980036 Z" id="Path" fill="#2F2E41"></path>
                    <path d="M211.655668,232.587123 C211.655668,232.587123 224.491454,226.153763 229.360237,233.576866 C234.22902,240.999969 226.704569,238.030759 226.704569,238.030759 L218.2949,241 L209,239.020508 L211.655668,232.587123 Z" id="Path" fill="#F2F2F2"></path>
                    <path d="M212,230.200016 C212,230.200016 213.729732,239.066672 212.432436,241.400003 C211.135139,243.733335 219.783782,247 219.783782,247 L228,243.266671 C228,243.266671 225.837838,228.800018 228,226 L212,230.200016 Z" id="Path" fill="#FFB9B9"></path>
                    <path d="M212,230.200016 C212,230.200016 213.729732,239.066672 212.432436,241.400003 C211.135139,243.733335 219.783782,247 219.783782,247 L228,243.266671 C228,243.266671 225.837838,228.800018 228,226 L212,230.200016 Z" id="Path" fill="#000000" opacity="0.1"></path>
                    <path d="M202.095983,334.897367 C203.377784,337.335566 204.431671,339.869176 205.246293,342.470913 C205.273331,342.644698 205.379891,342.799652 205.539222,342.896874 C205.698554,342.994096 205.895526,343.024355 206.080692,342.980055 L214.560351,342.971404 C215.606803,342.970323 217.010817,342.661922 216.999937,341.701994 C216.992275,341.027536 216.240749,340.606984 215.681429,340.169184 C214.129157,338.954134 213.725033,336.950689 213.082134,335.174094 C211.832553,331.751661 209.424468,328.784616 206.208652,326.705155 C205.773872,326.392911 205.273676,326.166118 204.73921,326.038899 C204.201724,325.967401 203.654106,325.994657 203.128207,326.11908 C201.639687,326.394581 196.081023,327.337218 197.131081,329.323443 C197.58321,330.178653 199.258821,331.068894 199.961329,331.867826 C200.780062,332.810613 201.495096,333.825403 202.095983,334.897367 L202.095983,334.897367 Z" id="Path" fill="#575A89"></path>
                    <path d="M231.78218,324.693783 C231.504721,325.303704 231.195865,325.897456 230.856971,326.472429 C229.716837,328.438869 228.371372,330.2732 227.309639,332.287072 C226.593843,333.517311 226.151956,334.900227 226.016723,336.333337 C225.893808,337.78746 226.453865,339.213431 227.518651,340.157418 C228.661088,341.063996 230.227369,341.105948 231.64722,340.894752 C233.067071,340.683557 234.478657,340.257974 235.908775,340.370027 C235.426616,337.516693 237.72773,335.005461 238.30324,332.171112 C238.464893,331.374991 238.488912,330.549572 238.705582,329.767883 C238.938651,329.053036 239.236928,328.363289 239.596292,327.70817 C240.742188,325.374513 241.552066,322.876601 241.999689,320.29536 C242.05388,319.982379 235.004068,319.931057 234.342767,320.080612 C232.279065,320.547335 232.580902,322.90423 231.78218,324.693783 Z" id="Path" fill="#575A89"></path>
                    <path d="M175.411165,281.137018 C173.315759,284.472883 173.798568,288.893591 175.27026,292.558351 C176.741952,296.223111 179.084324,299.462807 180.687472,303.07003 C181.709523,305.369702 182.426211,307.808098 183.577133,310.043877 C185.00229,312.812425 187.083087,315.252733 188.039428,318.22264 C188.649046,320.115811 188.788914,322.190729 189.776407,323.91105 C190.373311,324.83046 191.054548,325.690235 191.810977,326.478836 C193.937969,328.957744 195.534921,331.859576 196.50039,335 C197.402917,332.26487 200.105565,330.471548 202.881386,329.880031 C205.657206,329.288514 208.533392,329.690334 211.341579,330.093869 C209.775073,327.625184 208.193413,325.125115 207.259637,322.344528 C206.356534,319.655266 206.09008,316.794187 205.481749,314.020546 C204.234248,308.332675 201.569312,303.086513 198.931076,297.913549 L212.49147,296.819356 C214.70486,296.593053 216.930083,296.509092 219.153871,296.567974 C222.653976,296.735805 226.082897,297.608651 229.564379,298.012076 C233.045861,298.415502 236.728815,298.309871 239.831419,296.653251 C233.898698,305.312861 230.808966,315.658833 231.003887,326.212252 C233.689459,324.095414 237.171561,323.326594 240.478119,324.120418 C243.784678,324.914241 246.561495,327.185674 248.033387,330.300617 C253.347624,322.91298 252.715852,312.628273 256.926795,304.53798 C257.79268,302.874389 258.853869,301.324848 259.788419,299.700162 C261.554206,296.437255 263.065995,293.038631 264.30991,289.535483 C265.487856,286.470629 266.674424,283.060385 265.544665,279.976823 C265.075637,278.806904 264.392505,277.738225 263.531566,276.827567 C261.101922,274.102604 257.720157,272.086857 254.104702,272.002907 C248.55461,271.874038 243.969744,276.059186 239.10116,278.772996 C233.289029,281.915475 226.715011,283.302377 220.153796,282.770267 C213.466274,282.288563 207.079367,280.061637 200.70795,278.100431 C197.520629,277.073754 194.280947,276.223583 191.003161,275.553659 C188.270897,275.03228 185.668729,275.609811 182.976172,276.320608 C180.044639,277.094528 177.098351,278.451053 175.411165,281.137018 Z" id="Path" fill="#2F2E41"></path>
                    <path d="M234,221.500186 C233.99344,229.505482 227.505415,235.993419 219.500012,235.999979 C218.636005,236.001459 217.773679,235.923806 216.923837,235.767991 C209.373278,234.404454 204.192124,227.394694 205.103961,219.776477 C206.015797,212.158261 212.70492,206.569235 220.363999,207.026115 C228.023077,207.482995 234.000316,213.827595 234,221.500186 L234,221.500186 Z" id="Path" fill="#FFB9B9"></path>
                    <path d="M211.258207,235.228798 C211.258207,235.228798 213.840367,236.372763 214.779335,237.28794 C215.718304,238.203117 218.535205,243.236582 223.230043,240.033471 C227.924881,236.83036 228.394363,235 229.802813,235 C231.211263,235 233.089201,237.745531 233.089201,237.745531 L246,275.496525 C242.520312,279.324713 238.487426,282.638838 234.028181,285.334667 C226.516442,289.910541 217.596253,292.198509 213.370902,290.368132 C209.145552,288.537756 201.164325,287.165016 199.755869,283.504291 C198.347413,279.843566 196,268.861481 196,268.861481 L202.572776,240.948619 L211.258207,235.228798 Z" id="Path" fill="#F2F2F2"></path>
                    <path d="M210.672473,272.021791 C211.694333,269.880661 211.842937,267.457096 211.929376,265.09913 C212.067113,262.763706 212.003304,260.4212 211.738615,258.096091 C211.323243,255.054696 210.302258,252.124605 209.657464,249.121074 C209.092221,246.486797 208.817449,243.801667 208.837786,241.111003 C208.847191,239.883245 208.938816,238.590749 209.628496,237.561254 C210.109638,236.843036 210.862231,236.286791 211.162887,235.481433 C211.752407,233.902293 210.295809,232.248824 208.699514,231.598531 C206.75534,230.891373 204.628452,230.808547 202.6321,231.362252 C200.651775,231.917374 198.738441,232.676659 196.924836,233.627116 C195.553416,234.194491 194.292218,234.985373 193.195862,235.965509 C191.740922,237.425987 191.101168,239.460131 190.584586,241.428339 C190.171125,243.00364 189.803669,244.646311 190.118243,246.242967 C190.629089,248.835773 192.807997,250.78583 193.969542,253.172998 C195.318353,255.945028 195.22751,259.175389 194.691029,262.196194 C194.154548,265.216999 193.202167,268.170604 192.908488,271.222617 C192.614809,274.274631 193.065627,277.555391 195.036791,279.951199 C195.840052,280.9275 198.019122,283.24129 199.489633,282.979497 C200.644879,282.773831 202.319744,280.306899 203.250367,279.52492 C205.938805,277.265919 209.128666,275.256587 210.672473,272.021791 Z" id="Path" fill="#2F2E41"></path>
                    <path d="M234.045305,232.820643 C234.083485,235.395167 233.011449,237.842326 231.750659,240.044272 C230.48987,242.246218 229.00888,244.328742 228.079795,246.708348 C226.925305,249.687147 226.689595,252.975961 227.406331,256.105041 C227.67276,257.170875 227.993919,258.22053 228.368377,259.249326 L230.757588,266.186716 C231.079053,267.277498 231.545553,268.31429 232.143052,269.265898 C232.683251,269.99477 233.317024,270.640153 234.025983,271.183322 C235.8408,272.734629 237.929217,273.887946 240.169459,274.576022 C242.425296,275.258976 244.833092,275.113573 247.000922,274.163479 C247.231265,264.758893 248.65861,255.430137 251.244372,246.429391 C251.722064,244.767816 252.244108,243.018544 251.875619,241.326101 C251.462869,239.430379 250.024399,238.007088 248.657027,236.707271 C244.475268,232.732118 239.876688,228.556597 234.279155,228.0207 C231.039522,227.71055 234.017697,230.959345 234.045305,232.820643 Z" id="Path" fill="#2F2E41"></path>
                    <path d="M204.106062,285.392745 C204.452357,286.073982 204.667888,286.815937 205.010321,287.499149 C205.51564,288.415397 206.140422,289.259734 206.868109,290.009782 C209.912354,293.402294 213.633575,296.781857 218.174555,296.986498 C218.625692,297.028843 219.080582,296.971299 219.507206,296.817916 C220.286837,296.416861 220.818033,295.653569 220.92545,294.779997 C221.247423,293.00793 220.469093,291.239738 219.689796,289.617545 C218.000785,286.101691 216.100313,282.496657 212.93794,280.229133 C209.738521,278.025856 205.71115,277.416921 202.008321,278.576584 C200.361048,279.086574 197.629572,279.977137 199.810531,281.487567 C201.465116,282.633436 203.146832,283.505708 204.106062,285.392745 Z" id="Path" fill="#FFB9B9"></path>
                    <path d="M223.886069,241.541285 C223.399493,240.315175 222.653495,239.192934 221.692481,238.241363 C220.723219,237.476841 219.575731,236.934441 218.341711,236.657503 C216.742776,236.231319 215.089104,236.010186 213.426236,236.000195 C211.446678,235.988694 209.151373,236.484115 208.310748,238.156284 C207.643206,239.484158 208.16071,241.056566 208.832817,242.382435 C209.119972,243.069245 209.598321,243.67214 210.218517,244.128926 C211.072179,244.667064 212.176243,244.650011 213.188217,244.830262 C214.757321,245.201966 216.243375,245.830254 217.577405,246.685965 L221.044615,248.641348 L227,252 C226.843068,251.911497 226.898873,248.101118 226.715943,247.476639 C226.126685,245.464979 224.800205,243.446305 223.886069,241.541285 Z" id="Path" fill="#FFB9B9"></path>
                    <path d="M206.036004,341.585981 C204.709508,343.36451 204.975454,345.906845 203.800455,347.786219 C202.781931,349.415285 200.862418,350.269451 199.588444,351.712979 C199.181934,352.192549 198.819533,352.706896 198.505539,353.249921 C197.323746,355.203025 196.363168,357.706175 197.527077,359.669704 C198.46337,361.249246 200.431422,361.866586 202.236348,362.287338 C204.517663,362.819143 206.88797,363.244769 209.195628,362.838383 C211.503287,362.431997 213.758589,361.03782 214.58139,358.872156 C214.743103,358.327601 214.935355,357.792332 215.157255,357.268821 C216.408028,354.839341 220.331237,354.813078 221.611317,352.398502 C222.507135,350.708737 221.683658,348.666208 220.860522,346.940802 L218.34649,341.671109 C217.512188,339.922327 214.130062,340.928029 212.366882,340.508965 C210.067315,339.962413 207.690297,339.360254 206.036004,341.585981 Z" id="Path" fill="#2F2E41"></path>
                    <path d="M226.508661,337.946423 C225.490454,338.76773 224.712193,339.859918 224.258914,341.103652 C223.02833,344.01193 222.605699,347.200196 222.195363,350.341926 C221.961469,351.591636 221.937401,352.873061 222.124195,354.131063 C222.654479,356.696856 224.924155,358.586267 227.367161,359.370775 C229.810168,360.155284 232.430394,360.034501 234.987548,359.905994 C235.812525,359.927613 236.63154,359.757231 237.382933,359.407676 C238.668107,358.681886 239.170149,356.975344 238.949807,355.489073 C238.729465,354.002801 237.93678,352.680365 237.160905,351.404332 C236.385031,350.128299 235.591638,348.806565 235.369424,347.320578 C234.995622,344.820944 236.050449,341.151732 234.551353,338.890281 C233.048999,336.623959 228.51365,336.506983 226.508661,337.946423 Z" id="Path" fill="#2F2E41"></path>
                    <path d="M232.671892,215.482512 C232.434556,214.615684 231.911663,213.874186 231.203052,213.399596 C231.239629,212.471046 231.134851,211.542305 230.892944,210.650835 C230.084942,208.055739 228.170816,208.204488 226.364778,207.057152 C225.581211,206.559355 225.629613,206.119398 225.221705,205.301787 C224.687202,204.22998 223.886626,203.342587 222.910988,202.740488 C221.752306,201.938479 220.52921,201.112523 219.158494,201.011017 C216.277925,200.797714 214.069357,203.741171 211.316169,204.685837 C210.10263,205.102181 208.798636,205.119372 207.578691,205.513005 C206.358746,205.906639 205.141616,206.846543 204.959818,208.214911 C204.875885,208.846643 205.023962,209.494719 204.938836,210.126277 C204.769585,211.381522 203.755884,212.260647 203.077286,213.293091 C201.57666,215.57621 201.748297,218.801623 202.948349,221.285745 C203.20123,221.799758 203.490546,222.291613 203.813677,222.756856 C203.913783,223.931004 204.224147,225.072579 204.727319,226.117392 C205.927371,228.601509 207.992372,230.457789 210.149531,232 C209.972858,231.176154 209.865761,230.336512 209.82957,229.491518 C209.799125,229.209916 209.832842,228.924501 209.927754,228.660377 C210.167989,228.11481 210.802776,227.969717 211.28677,227.670923 C212.289232,227.052046 212.682344,225.682441 212.711337,224.430207 C212.740329,223.177973 212.496048,221.923672 212.61682,220.677955 C212.626335,220.098636 212.861037,219.55074 213.262878,219.169774 C213.63285,218.940482 214.055498,218.831011 214.480899,218.85429 C216.534853,218.763256 218.680905,218.722278 220.492618,217.667052 C221.076901,217.245453 221.704969,216.900291 222.363774,216.638736 C223.903438,216.202548 225.477061,217.374924 226.364387,218.809794 C227.251714,220.244664 227.694141,221.952159 228.512831,223.434416 C229.331522,224.916672 230.745884,226.238508 232.328793,226.062891 C232.509105,226.063332 232.681045,225.98027 232.801521,225.834523 C232.8698,225.701265 232.900109,225.548978 232.888604,225.396979 L232.97704,218.823533 C233.050518,217.699117 232.947328,216.569316 232.671892,215.482512 Z" id="Path" fill="#2F2E41"></path>
                    <path d="M187.843971,245.815247 C186.512159,247.763304 184.976546,249.636367 184.244499,251.875049 C183.814222,253.190879 183.6806,254.581856 183.369086,255.930195 C182.331508,260.421207 179.333948,264.410113 179.03265,269.007744 C178.927096,270.029355 179.078406,271.060983 179.473063,272.010474 C180.332939,273.864973 182.390873,274.842338 184.353898,275.457112 C186.316923,276.071887 188.425035,276.514832 189.991895,277.838703 C190.780757,278.588417 191.496106,279.41064 192.128325,280.294323 C194.684628,283.446742 198.123686,285.779696 202.013309,287 C201.706046,284.900879 201.561857,282.370756 203.254256,281.073257 C204.170379,280.370907 205.394506,280.245902 206.548265,280.147034 L212,279.67993 C208.364621,276.183848 204.35759,273.088929 200.049173,270.449446 C198.541695,269.526132 196.900935,268.552189 196.212606,266.933335 C195.857002,265.89021 195.709385,264.788476 195.777974,263.689479 C195.74048,259.669494 195.397168,255.658042 194.750963,251.689269 C194.302169,248.93355 193.707892,246.20243 193.028226,243.493565 C192.837426,242.733092 191.709691,239.322003 190.321575,240.120163 C189.994615,240.308168 189.688693,242.471993 189.497783,242.920983 C189.043341,243.937059 188.489415,244.90646 187.843971,245.815247 L187.843971,245.815247 Z" id="Path" fill="#2F2E41"></path>
                    <path d="M250.301028,240.031648 L252.472197,244.527514 C253.518198,246.376124 253.994286,248.4905 253.841052,250.606804 L253.969933,264.093004 C254.069973,265.894951 253.920089,267.702029 253.524512,269.463223 C253.389176,270.04361 253.134192,270.589665 252.775728,271.066762 C252.407463,271.478011 251.973613,271.825987 251.491637,272.096689 C247.382529,274.653007 242.054214,276.105937 237.712819,273.963797 C236.718545,273.436071 235.773206,272.821638 234.887898,272.127711 C233.157651,270.851931 231.401868,269.551257 230.107472,267.83822 C228.752748,266.045343 227.97638,263.898857 227.064984,261.84694 C225.429269,258.166142 223.315855,254.714794 220.77879,251.581161 C220.358388,251.166964 220.085104,250.627569 220.00038,250.044772 C219.973453,248.862678 221.382082,248.280744 222.48037,247.831003 C224.356708,247.062657 226.126061,245.580034 226.44015,243.584324 C230.430161,248.794037 234.833151,254.298527 241.129371,256.202226 C241.330541,256.330147 241.585964,256.337926 241.794611,256.222486 C242.003258,256.107047 242.131521,255.886982 242.128667,255.649337 C242.485969,254.160408 242.612375,252.627236 242.873833,251.11869 C243.35331,248.371694 244.276722,245.720217 245.608161,243.267362 C246.353759,241.892121 248.768478,236.858168 250.301028,240.031648 Z" id="Path" fill="#2F2E41"></path>
                    <path d="M196.113586,254 C196.180023,257.262974 195.425166,260.495981 193.907821,263.447156 C193.513076,264.099387 193.222208,264.800219 193.044096,265.52826 C192.780065,267.081201 193.742499,268.584609 194.842561,269.788828 C197.012672,272.157051 199.827293,273.955099 203,275" id="Path" fill="#000000" opacity="0.1"></path>
                    <path d="M243.896198,249 C243.605327,249.942994 243.869485,250.985871 244.093662,251.954975 C244.743243,254.765977 245.046515,257.676832 244.993751,260.594183 C245.012911,260.697839 244.987375,260.80615 244.925856,260.882161 C244.864338,260.958173 244.775149,260.991613 244.688721,260.971073 C243.736394,261.041409 242.646119,261.048843 242,260.202491" id="Path" fill="#000000" opacity="0.1"></path>
                    <ellipse id="Oval" fill="#000000" opacity="0.1" cx="424" cy="364.5" rx="72" ry="15.5"></ellipse>
                    <polygon id="Path" fill="#A0616A" points="460.5 227 455 232.5 460.5 238 466 227"></polygon>
                    <path d="M461.273807,183.294629 C462.721393,183.887695 463.40985,185.508885 463.95538,186.976334 L470.646576,204.975477 L471.948983,208.47892 C472.587693,210.197032 473.226786,211.916263 473.766941,213.667921 C474.108628,214.775933 474.410243,215.895283 474.671788,217.025973 C474.943075,217.993557 475.047392,219.000398 474.980244,220.003122 C474.799434,221.106367 474.397154,222.161487 473.797695,223.104774 C471.469655,227.163606 468.154479,230.567452 464.160239,233 C463.692184,229.97594 461.722204,227.396729 458.929702,226.151879 L462.389667,224.246888 C463.121653,223.902929 463.780094,223.420184 464.328555,222.825367 C465.005518,221.887706 465.272763,220.714894 465.068954,219.576103 C464.861188,218.451514 464.516217,217.356733 464.041791,216.316351 C462.881044,213.415895 461.873738,210.456238 461.024061,207.449684 C460.521492,205.671266 460.059833,203.843547 459.063894,202.28731 C458.1604,200.875531 456.852072,199.746578 456.031131,198.285141 C454.779996,196.057873 454.812062,193.315499 455.364528,190.820787 C455.83095,188.714579 456.613153,186.687604 457.271177,184.637152 C457.7882,183.026032 459.724027,182.659691 461.273807,183.294629 Z" id="Path" fill="#D0CDE1"></path>
                    <path d="M430.162617,134.467085 C427.532343,135.373409 425.149427,137.493223 424.610806,140.272003 C424.361131,141.560093 424.514208,142.89913 424.304098,144.19455 C423.816828,147.198911 421.505427,149.493364 419.373568,151.624579 C417.241709,153.755793 415.04016,156.232181 414.884567,159.273262 C414.714193,162.603319 417.081182,165.723046 416.671603,169.031343 C416.19575,172.87491 412.216955,175.365472 411.233394,179.107351 C410.576627,181.605966 411.381428,184.29747 412.705517,186.503572 C415.228705,190.707573 419.541603,193.561662 424.134511,195.091687 C428.727419,196.621712 433.618973,196.943604 438.450219,196.995257 C444.332818,197.058143 450.719799,196.542859 455.139676,192.581562 C457.664372,190.298576 459.249905,187.126201 459.578369,183.700512 C459.99826,179.111929 458.121232,174.370694 459.41596,169.955547 C460.230795,167.1769 462.274192,164.639211 461.96924,161.755587 C461.671076,158.936126 459.257592,156.937631 457.601881,154.659903 C456.055982,152.533243 455.117936,150.0218 454.19857,147.54576 L451.052934,139.07393 C450.434554,137.40852 449.755508,135.656944 448.377429,134.563877 C445.79753,132.517579 441.649166,132.919625 438.632458,133.341673 C435.833815,133.733221 432.853976,133.539725 430.162617,134.467085 Z" id="Path" fill="#2F2E41"></path>
                    <path d="M432.718155,161.815751 C432.718155,161.815751 433.017802,171.021596 432.118867,171.942185 C431.219933,172.862773 435.714606,179 435.714606,179 L443.804985,178.693141 L448,175.317663 L444.404261,170.407873 C444.404261,170.407873 442.906044,162.429475 444.10462,160.588303 C445.303196,158.747132 432.718155,161.815751 432.718155,161.815751 Z" id="Path" fill="#A0616A"></path>
                    <path d="M432.718155,161.815751 C432.718155,161.815751 433.017802,171.021596 432.118867,171.942185 C431.219933,172.862773 435.714606,179 435.714606,179 L443.804985,178.693141 L448,175.317663 L444.404261,170.407873 C444.404261,170.407873 442.906044,162.429475 444.10462,160.588303 C445.303196,158.747132 432.718155,161.815751 432.718155,161.815751 Z" id="Path" fill="#000000" opacity="0.1"></path>
                    <polygon id="Path" fill="#A0616A" points="413 234.599978 418.666442 246 423 241.199845 414.333497 231"></polygon>
                    <polygon id="Path" fill="#A0616A" points="399.700011 351 397.599978 363.350437 394 368.733722 396.100033 370 399.700011 369.36657 403.900077 367.783285 405.69979 360.500291 409 351"></polygon>
                    <polygon id="Path" fill="#A0616A" points="438.230943 344 437 361.500216 440.076792 364 445 359.624946 445 346.812617"></polygon>
                    <circle id="Oval" fill="#A0616A" cx="439" cy="156" r="11"></circle>
                    <path d="M446.685049,170.260916 C446.009413,169.928421 445.225695,169.913009 444.538054,170.218696 C443.862046,170.524717 443.205772,170.874415 442.573212,171.265669 C440.947024,172.130704 439.103252,172.473537 437.2833,172.249284 C437.069464,172.232727 436.860175,172.177653 436.665093,172.086605 C436.458217,171.955074 436.267932,171.798053 436.098513,171.619073 C434.726886,170.479708 432.718852,170.656685 431.558171,172.019233 C431.230881,172.436124 431.006811,172.933868 430.64968,173.324315 C429.724671,174.335585 428.198338,174.376547 426.844116,174.374043 C424.036552,174.294091 421.229691,174.557124 418.483122,175.157557 C415.723978,175.766283 413.183076,177.142851 411.14105,179.135225 C410.583657,179.671049 410.139748,180.318125 409.836793,181.036409 C409.463327,182.021083 409.512425,183.127113 409.176733,184.125909 C408.802902,185.238158 407.974802,186.150796 407.639646,187.275857 C407.387205,188.123248 407.422394,189.066616 407,189.840061 C408.808826,191.440772 410.341322,193.575402 412.150142,195.176113 C413.347778,196.235986 414.601729,197.382483 415.051885,198.935167 C415.254299,199.892473 415.3442,200.871063 415.319682,201.850161 C415.54353,206.531147 418.026564,210.777463 420.803323,214.506322 C421.564606,215.612293 422.475775,216.602024 423.509493,217.445821 C424.912834,218.422814 426.506658,219.077144 428.181153,219.363731 C431.343255,220.025021 434.598005,220.021661 437.825398,219.988823 C441.160853,219.954884 444.554987,219.882591 447.725485,218.822899 C449.339153,218.362529 450.790809,217.440898 451.909926,216.166269 C453.21416,214.528708 453.722972,212.159799 455.502162,211.087033 C455.932933,210.885241 456.340935,210.636101 456.71896,210.344016 C457.081283,209.942027 457.337793,209.452526 457.464423,208.921434 C458.08676,206.933823 458.429771,204.865902 458.483175,202.779646 C458.437329,201.527703 458.520376,200.274302 458.730945,199.040118 C459.038564,197.952486 459.486881,196.911731 460.064007,195.945453 L463.750982,189.108924 C464.050642,188.553283 463.972859,187.735702 464,187.101799 C463.972678,186.187752 463.698198,185.299317 463.207015,184.535072 C460.815632,180.213815 457.05894,176.851681 452.553075,175.000096 C452.197964,174.876706 451.859781,174.707304 451.546786,174.496028 C451.178106,174.179109 450.866336,173.798853 450.625502,173.372365 C449.647288,171.864928 448.452044,170.166762 446.685049,170.260916 Z" id="Path" fill="#D0CDE1"></path>
                    <path d="M399.735735,205.94 C399.000118,207.68244 398.459923,209.497225 398.124557,211.35275 C397.7646,213.916312 398.188914,216.526363 399.344369,218.856086 C401.354612,222.887527 405.312312,225.621803 408.105626,229.183011 C410.700961,232.491819 412.246525,236.457746 414.493922,240 C414.101997,239.098284 414.578098,238.0544 415.219452,237.300416 C415.860805,236.546431 416.68066,235.921134 417.150918,235.055698 C417.471011,234.385515 417.672264,233.667347 417.746135,232.931673 C418.081607,230.735211 418.262713,228.348584 417.113247,226.430994 C416.247981,224.987534 414.75358,224.028787 413.570216,222.818381 C411.170529,220.320608 410.131794,216.860565 410.771751,213.496645 C410.999569,212.354767 411.418429,211.258541 411.732268,210.136201 C412.120527,208.627816 412.414474,207.097865 412.612488,205.554786 L414.022725,196.118308 C414.397811,193.608451 414.71505,190.830916 413.256031,188.730331 C412.971489,188.290572 412.577838,187.927722 412.111405,187.675264 C411.725527,187.503322 411.314659,187.390598 410.893391,187.341095 C409.358771,187.096718 407.279726,186.441872 406.530414,188.044084 C405.62606,189.97786 404.996087,192.085817 404.239029,194.079684 L399.735735,205.94 Z" id="Path" fill="#D0CDE1"></path>
                    <path d="M454.707383,211 C454.707383,211 436.305141,214.55361 431.971336,214.55361 L424.232358,214.55361 C424.232358,214.55361 421.446332,219.497773 421.446332,224.44193 C421.446332,229.386087 403.18238,298.604317 403.18238,298.604317 C403.18238,298.604317 385.847101,355.462146 405.039732,355.771153 C424.232364,356.08016 436.305141,357.007194 436.614697,350.518011 C436.924253,344.028829 438.781611,260.287106 438.781611,260.287106 L441.671109,303.346748 C442.4477,314.006717 441.618364,324.722672 439.210772,335.137081 C437.825002,340.975586 438.039978,347.376407 444.972826,348.66395 C458.283839,351.136032 475,348.972957 475,344.337813 C475,339.702669 466.332361,236.802349 466.332361,236.802349 C466.332361,236.802349 461.998544,221.660864 459.522074,220.424806 C457.045603,219.188749 454.707383,211 454.707383,211 Z" id="Path" fill="#2F2E41"></path>
                    <path d="M397.492485,367.873238 L403.929567,365.394369 L408.318487,353.619719 L413,353 C413,353 410.366649,358.887325 408.903677,359.8169 C407.440705,360.746475 405.099946,368.492956 405.099946,368.492956 C405.099946,368.492956 406.270326,371.59155 400.711026,372.830987 C395.151726,374.070425 391.055403,375 391.055403,375 C391.055403,375 390.470213,373.760563 393.103564,370.661969 C395.736915,367.563375 398.811758,362.346848 398.811758,362.346848 L397.492485,367.873238 Z" id="Path" fill="#2F2E41"></path>
                    <path d="M438.272249,354.288233 L437,363.230692 C437,363.230692 440.498681,368 441.452865,368 C442.407049,368 447.496044,363.826856 447.496044,363.826856 C447.496044,363.826856 447.177979,359.355627 447.496044,358.163298 C447.814109,356.97097 448.450228,351.307418 447.496044,351.009333 C446.54186,350.711248 446.541854,357.652804 446.541854,357.652804 L442.407055,361.740284 L438.420272,359.500001 L438.272249,354.288233 Z" id="Path" fill="#2F2E41"></path>
                    <ellipse id="Oval" fill="#2F2E41" cx="438.5" cy="147.5" rx="11.5" ry="6.5"></ellipse>
                    <path d="M0,275 C0,312.033203 22.8105434,342 51,342" id="Path" fill="#3E4657"></path>
                    <path d="M51,342 C51,304.966797 76.4941384,275 108,275" id="Path" fill="#007BFF"></path>
                    <path d="M19,279 C19,313.822266 32.8652323,342 50,342" id="Path" fill="#007BFF"></path>
                    <path d="M50,342 C50,294.464842 79.9667769,256 117,256" id="Path" fill="#3E4657"></path>
                    <path d="M39,343.003684 C39,343.003684 46.5248709,342.775481 48.7926759,341.185388 C51.0604809,339.595296 60.3678211,337.696633 60.9304098,340.246796 C61.4929985,342.796958 72.2388894,352.930133 63.7433472,352.997606 C55.2478051,353.06508 44.0034894,351.694601 41.7400455,350.337012 C39.4766016,348.979422 39,343.003684 39,343.003684 Z" id="Path" fill="#A8A8A8"></path>
                    <path d="M63.8966954,352.110408 C55.4005603,352.177865 44.1554656,350.80819 41.8918637,349.451397 C40.1679835,348.418132 39.4810731,344.710527 39.2512303,343 C39.0920506,343.006734 39,343.009636 39,343.009636 C39,343.009636 39.4766408,348.981807 41.7402486,350.3386 C44.0038564,351.695394 55.2489451,353.065063 63.7450802,352.997606 C66.1975761,352.978143 67.0447123,352.119544 66.9981964,350.847879 C66.6574863,351.616168 65.7221173,352.095928 63.8966954,352.110408 Z" id="Path" fill="#000000" opacity="0.2"></path>
                </g>
            </g>
        </g>
    </g>
</svg>