<?xml version="1.0" encoding="UTF-8"?>
<svg width="54px" height="48px" viewBox="0 0 54 48" version="1.1" xmlns="http://www.w3.org/2000/svg" xmlns:xlink="http://www.w3.org/1999/xlink">
    <!-- Generator: Sketch 54.1 (76490) - https://sketchapp.com -->
    <title>icon-dog</title>
    <desc>Created with Sketch.</desc>
    <g id="Careers" stroke="none" stroke-width="1" fill="none" fill-rule="evenodd">
        <g id="Website---Careers-Redesign" transform="translate(-738.000000, -1931.000000)" fill-rule="nonzero">
            <g id="Perks" transform="translate(-6.000000, 1019.000000)">
                <g id="Perks-list" transform="translate(231.000000, 277.000000)">
                    <g id="One-more-perk" transform="translate(501.000000, 618.000000)">
                        <g id="icon-offsites">
                            <g id="icon-dog" transform="translate(12.000000, 17.000000)">
                                <path d="M46.1533399,1.76933256 L37.4471948,1.76933256 C34.2912818,3.01901128 33.5916781,0.9 26.9999473,0.9 C20.4082165,0.9 19.7086128,3.01901128 16.5525943,1.76933256 L7.84655471,1.76933256 L6.68571429,23.6116027 C7.41125273,32.196288 12.7436756,36.8689769 16.9517354,38.5714286 L37.0482646,38.5714286 C41.2562189,36.8689769 46.5887473,32.196288 47.3142857,23.6116027 L46.1533399,1.76933256 Z" id="Path" fill="#F5DCB4"></path>
                                <path d="M37.4142857,1.74202782 C47.2430098,4.67750713 41.8923429,19.8157247 48.2210092,26.3592984 C49.1295591,27.2986602 50.7348226,26.8814005 51.1139929,25.6320471 C51.6150431,23.9812553 52.1154591,21.3696903 52.0358619,17.6381899 C51.9267725,12.5209568 54,12.1944057 54,12.1944057 C54,12.1944057 51.3812197,0 43.5247731,0 C40.9059928,0 37.4142857,1.74202782 37.4142857,1.74202782 Z" id="Path" fill="#965A50"></path>
                                <path d="M17.8071429,24.3 L17.8071429,24.3 C16.1453206,24.3 14.7857143,22.9275369 14.7857143,21.25 L14.7857143,19.5071429 C14.7857143,17.8296059 16.1453206,16.4571429 17.8071429,16.4571429 L17.8071429,16.4571429 C19.4689652,16.4571429 20.8285714,17.8296059 20.8285714,19.5071429 L20.8285714,21.25 C20.828676,22.9276425 19.4689652,24.3 17.8071429,24.3 Z" id="Path" fill="#4B3F4E"></path>
                                <path d="M17.9196429,16.5857143 C17.7711466,16.5857143 17.6286406,16.6088169 17.4857143,16.6295152 L17.4857143,20.9020408 C17.4857143,21.8555214 18.2628763,22.6285714 19.2214286,22.6285714 C20.180086,22.6285714 20.9571429,21.8555214 20.9571429,20.9020408 L20.9571429,19.6072474 C20.957248,17.9455296 19.5903046,16.5857143 17.9196429,16.5857143 Z" id="Path" fill="#5D5360"></path>
                                <circle id="Oval" fill="#FFFFFF" cx="17.8714286" cy="18.6428571" r="1.28571429"></circle>
                                <path d="M36.1928571,24.3 L36.1928571,24.3 C34.5310348,24.3 33.1714286,22.9275369 33.1714286,21.25 L33.1714286,19.5071429 C33.1714286,17.8296059 34.5310348,16.4571429 36.1928571,16.4571429 L36.1928571,16.4571429 C37.8546794,16.4571429 39.2142857,17.8296059 39.2142857,19.5071429 L39.2142857,21.25 C39.2142857,22.9276425 37.8545749,24.3 36.1928571,24.3 Z" id="Path" fill="#4B3F4E"></path>
                                <path d="M36.1767857,16.5857143 C36.0282895,16.5857143 35.8857835,16.6088169 35.7428571,16.6295152 L35.7428571,20.9020408 C35.7428571,21.8555214 36.5200191,22.6285714 37.4785714,22.6285714 C38.4372288,22.6285714 39.2142857,21.8555214 39.2142857,20.9020408 L39.2142857,19.6072474 C39.2142857,17.9455296 37.8473424,16.5857143 36.1767857,16.5857143 Z" id="Path" fill="#5D5360"></path>
                                <circle id="Oval" fill="#FFFFFF" cx="36.1285714" cy="18.6428571" r="1.28571429"></circle>
                                <path d="M48.1850234,26.3590257 C49.090548,27.2988978 50.690466,26.8814114 51.0683737,25.6312738 C51.3547281,24.6840144 51.6371843,23.4087602 51.8142857,21.7990735 C50.1039558,20.9451048 48.6439489,18.2204677 47.7457992,13.6024727 C46.1144854,5.21433043 43.8307094,0.530061012 37.4142857,1.72827659 C47.2102808,4.66535056 41.8774313,19.8118972 48.1850234,26.3590257 Z" id="Path" fill="#824641"></path>
                                <path d="M16.9570983,38.5714286 L21.0857143,38.5714286 C21.0857143,38.5714286 13.835822,33.7047464 12.6380898,25.0970931 C10.3081289,8.35202046 14.7431661,3.34199875 18.5791789,2.06355394 C17.9715052,2.08413656 17.3403093,1.98185676 16.5578542,1.67142857 L7.84716113,1.67142857 L6.68571429,23.5717624 C7.41163175,32.1793101 12.7468403,36.864443 16.9570983,38.5714286 Z" id="Path" fill="#E7C9A5"></path>
                                <path d="M16.5857143,1.74202782 C6.75699017,4.67750713 12.1077628,19.8158301 5.77899084,26.3592984 C4.87044088,27.2986602 3.26517739,26.8814005 2.8860071,25.6320471 C2.38495686,23.9812553 1.88454086,21.3696903 1.96413808,17.6381899 C2.0732275,12.5209568 0,12.1944057 0,12.1944057 C0,12.1944057 2.6187803,0 10.4752269,0 C13.0940072,0 16.5857143,1.74202782 16.5857143,1.74202782 Z" id="Path" fill="#965A50"></path>
                                <path d="M16.2,1.60653573 C15.3192625,1.19562784 12.5723704,0 10.415089,0 C2.60374597,0 0,12.2188028 0,12.2188028 C0,12.2188028 2.06132517,12.546113 1.95286203,17.673584 C1.95139063,17.7420687 1.95338753,17.8036837 1.95233653,17.8714286 C6.94679088,-1.18241706 14.6213989,0.937436481 16.2,1.60653573 Z" id="Path" fill="#824641"></path>
                                <ellipse id="Oval" fill="#BC8E78" cx="27.0642857" cy="39.2142857" rx="9.57857143" ry="6.94285714"></ellipse>
                                <path d="M22.6285714,39.0857143 L22.6285714,43.4571429 C22.6285714,45.8714334 24.5857094,47.8285714 27,47.8285714 C29.4142906,47.8285714 31.3714286,45.8714334 31.3714286,43.4571429 L31.3714286,39.0857143 L22.6285714,39.0857143 Z" id="Path" fill="#FF8087"></path>
                                <path d="M22.6285714,42.5003007 C23.8927814,42.3419209 25.085634,41.9572996 26.1257143,41.3757623 L26.1257143,42.5828783 C26.1257143,43.06564 26.5172266,43.4571429 27,43.4571429 C27.4827734,43.4571429 27.8742857,43.06564 27.8742857,42.5828783 L27.8742857,41.364646 C28.9043082,41.9524296 30.100337,42.3412857 31.3714286,42.5006183 L31.3714286,39.0857143 L22.6285714,39.0857143 L22.6285714,42.5003007 L22.6285714,42.5003007 Z" id="Path" fill="#E6646E"></path>
                                <path d="M32.6709184,31.2428571 L21.3290816,31.2428571 C17.7152539,31.2428571 14.7857143,33.4015077 14.7857143,36.0642857 C14.7857143,38.7270637 17.7153595,40.8857143 21.3290816,40.8857143 C23.1488847,40.8857143 24.7924653,40.337002 25.9771069,39.4528416 C26.2770443,39.2290681 26.6386806,39.1171813 26.9996831,39.1171813 C27.3613194,39.1171813 27.7229557,39.2289619 28.0228931,39.4528416 C29.2075347,40.337002 30.8511153,40.8857143 32.6709184,40.8857143 C36.2847461,40.8857143 39.2142857,38.7270637 39.2142857,36.0642857 C39.2143914,33.4015077 36.2847461,31.2428571 32.6709184,31.2428571 Z" id="Path" fill="#D4AF91"></path>
                                <path d="M26.9358194,27.9 C29.8116285,27.9 32.1428571,29.4545749 32.1428571,31.3722239 C32.1428571,33.2216519 29.9544468,34.1954555 28.3750376,34.9155068 C27.4594867,35.3329263 26.4119419,35.3329263 25.496391,34.9155068 C23.9169817,34.1954555 21.7285714,33.2216519 21.7285714,31.3722239 C21.7287816,29.45468 24.0600103,27.9 26.9358194,27.9 Z" id="Path" fill="#5D5360"></path>
                                <path d="M24.3023797,30.4194909 C24.1811222,29.3262383 24.9497162,28.1571429 24.9497162,28.1571429 C23.0596742,28.6777343 21.7285714,29.9192013 21.7285714,31.3695782 C21.7285714,33.2202077 23.9147756,34.1946993 25.4925927,34.9153645 C26.4071156,35.3329737 27.4537095,35.3329737 28.3683374,34.9153645 C28.7076483,34.7604178 29.0750953,34.5925326 29.4428571,34.407922 C27.3096703,34.0299698 24.5461544,32.6184086 24.3023797,30.4194909 Z" id="Path" fill="#4B3F4E"></path>
                            </g>
                        </g>
                    </g>
                </g>
            </g>
        </g>
    </g>
</svg>