<?xml version="1.0" encoding="UTF-8"?>
<svg width="50px" height="45px" viewBox="0 0 50 45" version="1.1" xmlns="http://www.w3.org/2000/svg" xmlns:xlink="http://www.w3.org/1999/xlink">
    <!-- Generator: Sketch 54.1 (76490) - https://sketchapp.com -->
    <title>icon-lunch</title>
    <desc>Created with Sketch.</desc>
    <g id="Careers" stroke="none" stroke-width="1" fill="none" fill-rule="evenodd">
        <g id="Website---Careers-Redesign" transform="translate(-740.000000, -1313.000000)" fill-rule="nonzero">
            <g id="Perks" transform="translate(-6.000000, 1019.000000)">
                <g id="Perks-list" transform="translate(231.000000, 277.000000)">
                    <g id="Company-Offsites" transform="translate(501.000000, 0.000000)">
                        <g id="icon-offsites">
                            <g id="icon-lunch" transform="translate(14.000000, 17.000000)">
                                <rect id="Rectangle" fill="#48C1E1" x="5.35714286" y="3.57142857" width="5.35714286" height="3.57142857"></rect>
                                <path d="M11.6071429,3.97944446 C11.6071429,4.24610244 11.4091303,4.46428571 11.1670201,4.46428571 L5.79726565,4.46428571 C5.55515538,4.46428571 5.35714286,4.24610244 5.35714286,3.97944446 L5.35714286,0.484841251 C5.35714286,0.218183269 5.55515538,0 5.79726565,0 L11.1669346,0 C11.4090449,0 11.6070574,0.218183269 11.6070574,0.484841251 L11.6071429,3.97944446 L11.6071429,3.97944446 Z" id="Path" fill="#046699"></path>
                                <g id="Group" opacity="0.1" transform="translate(5.357143, 0.000000)" fill="#000000">
                                    <path d="M2.14345238,3.97293527 L2.14345238,0.519903274 C2.14345238,0.256417411 2.37331349,0.0408296131 2.65446429,0.0408296131 L0.523115079,0.0408296131 C0.242063492,0.0408296131 0.012202381,0.256417411 0.012202381,0.519903274 L0.012202381,3.97293527 C0.012202381,4.23642113 0.242063492,4.45200893 0.523115079,4.45200893 L2.65446429,4.45200893 C2.3734127,4.45200893 2.14345238,4.23642113 2.14345238,3.97293527 Z" id="Path"></path>
                                </g>
                                <path d="M4.67767132,31.8433445 C4.70453276,31.8324485 4.72541374,31.8106563 4.73484059,31.7835661 C4.7443688,31.7564759 4.74153061,31.7266866 4.72733965,31.7017956 C4.68385452,31.6260229 4.66185854,31.5515498 4.66185854,31.4805754 C4.66185854,30.9295742 5.90143833,30.3396871 7.74697182,30.3396871 C8.34086323,30.3396871 8.91944867,30.4047636 9.4201866,30.5280191 C9.42829572,30.5300184 9.4365062,30.531018 9.44471668,30.531018 C9.47127403,30.531018 9.49712184,30.5207218 9.51638099,30.5017286 C9.54162062,30.4768376 9.55175701,30.4408506 9.54303971,30.4068628 C9.22100643,29.1392202 9.0366254,27.8363903 8.99334299,26.5049708 C8.99273481,26.4894763 8.99172117,26.4739819 8.99121435,26.4583876 C8.98543661,26.2683561 8.98239569,26.0777249 8.98239569,25.8865939 C8.98239569,25.6560771 9.17204764,25.4685447 9.4052861,25.4685447 L10.3211094,25.4685447 C10.3498968,25.4685447 10.3774678,25.4564491 10.3966256,25.4352567 C10.4157834,25.4140644 10.4250075,25.3857746 10.4218652,25.3574848 C10.4068633,25.2250326 10.3998692,25.1143725 10.3998692,25.0091105 C10.3998692,23.6006187 11.3131584,22.3704626 12.6725504,21.948115 C12.7005269,21.9394181 12.7233338,21.9191255 12.7349906,21.8925351 C12.7467488,21.8659446 12.7461406,21.8356556 12.7333688,21.809565 C12.6099075,21.5555566 12.5233427,21.2900524 12.4759043,21.0205497 C12.2391181,19.6729359 12.9540381,18.3312201 14.2142961,17.757727 C14.2619372,17.7360348 14.2849468,17.6820543 14.2673095,17.6332719 C14.2081129,17.4699308 14.1633101,17.3021914 14.1339145,17.1345519 C13.9417285,16.0411464 14.3753635,14.980729 15.1785714,14.3092713 L15.1785714,10.0163203 C15.1785714,8.43589058 13.8704696,7.14285714 12.2714532,7.14285714 L5.58558825,7.14285714 C3.98677461,7.14285714 2.67857143,8.43589058 2.67857143,10.0163203 L2.67857143,33.0357143 C3.26111007,32.551489 3.93264626,32.1460353 4.67767132,31.8433445 Z" id="Path" fill="#A2DFF9"></path>
                                <path d="M12.6725707,22.2312383 C12.700547,22.2232077 12.7233537,22.2044698 12.7350104,22.1799167 C12.7467685,22.1553636 12.7461604,22.1273952 12.7333886,22.1033036 C12.6099283,21.8687568 12.5233642,21.623595 12.4759263,21.3747409 C12.239142,20.1303782 12.9540561,18.8914615 14.214304,18.3619081 C14.2619446,18.341878 14.2849541,18.2920333 14.2673169,18.2469885 C14.2081208,18.0961623 14.1633183,17.9412746 14.133923,17.7864792 C13.9417385,16.776848 14.37537,15.7976773 15.1785714,15.1776652 L15.1785714,13.3928571 L2.67857143,13.3928571 L2.67857143,23.2142857 L11.1037735,23.2142857 C11.4969611,22.7629146 12.0346925,22.4142789 12.6725707,22.2312383 Z" id="Path" fill="#046699"></path>
                                <path d="M5.92359649,30.5970037 L5.92359649,10.0163092 C5.92359649,8.43588559 7.27577758,7.14285714 8.92857143,7.14285714 L5.68354637,7.14285714 C4.0308573,7.14285714 2.67857143,8.43588559 2.67857143,10.0163092 L2.67857143,33.0357143 C3.28073995,32.5514909 3.97490498,32.1461387 4.74503524,31.8433491 C4.77280184,31.8324531 4.79438645,31.810661 4.80413095,31.7835709 C4.81398024,31.7564808 4.81104641,31.7266917 4.79637726,31.7018008 C4.7514268,31.6260284 4.72868962,31.5515555 4.72868962,31.4805814 C4.7287944,31.1567995 5.17190744,30.8200223 5.92359649,30.5970037 Z" id="Path" fill="#000000" opacity="0.1"></path>
                                <path d="M23.6425709,15.1281137 C23.6680598,15.2819658 23.6812012,15.4415365 23.6814658,15.6024909 C23.681554,15.6502699 23.7163919,15.6900242 23.7619016,15.6942671 C24.8909128,15.7980342 25.8348864,16.6391475 26.1111198,17.7874114 C26.1187047,17.8190488 26.1418124,17.8441374 26.1717112,17.8533611 C26.1800017,17.8559438 26.1882923,17.8571429 26.196671,17.8571429 C26.2187203,17.8571429 26.2402404,17.8484725 26.2568214,17.832331 C26.7168575,17.3835958 27.289345,17.1138936 27.9124576,17.0524634 C27.9566443,17.0481283 27.990953,17.0100342 27.9922759,16.9636388 C28.0324056,15.6701931 28.5353056,14.453858 29.4084569,13.5387704 C29.4267137,13.5196772 29.4457643,13.5018754 29.4642857,13.483059 C29.271134,12.1952398 28.7036738,10.9576901 27.7589064,9.96742891 C27.5730751,9.77280791 27.271882,9.77271568 27.0857861,9.96742891 L23.2142857,14.0255996 C23.425606,14.3478772 23.5750119,14.7208854 23.6425709,15.1281137 Z" id="Path" fill="#EF5050"></path>
                                <g id="Group" transform="translate(25.892857, 12.500000)" fill="#C0272D">
                                    <path d="M1.10588235,6.16408582 C1.11491597,6.19608209 1.14243697,6.22145522 1.17804622,6.23078358 C1.18792017,6.23339552 1.19779412,6.23460821 1.20777311,6.23460821 C1.23403361,6.23460821 1.25966387,6.22583955 1.27941176,6.20951493 C1.54705882,5.98777985 1.84705882,5.81007463 2.17016807,5.67826493 C2.13403361,5.57126866 2.06859244,5.47033582 1.97352941,5.38563433 L1.20871849,4.70475746 C0.90157563,4.43125 0.402731092,4.43059701 0.0946428571,4.70354478 C0.0923319328,4.70550373 0.0905462185,4.70764925 0.0883403361,4.70970149 C0.578256303,5.0806903 0.941491597,5.58358209 1.10588235,6.16408582 Z" id="Path"></path>
                                    <path d="M2.74422269,4.0931903 L1.66271008,4.0931903 C1.22752101,4.0931903 0.874894958,3.77994403 0.874894958,3.39356343 C0.874894958,3.00718284 1.22752101,2.69393657 1.66271008,2.69393657 L2.74422269,2.69393657 C3.17941176,2.69393657 3.53203782,3.00718284 3.53203782,3.39356343 C3.53203782,3.78003731 3.17941176,4.0931903 2.74422269,4.0931903 Z" id="Path"></path>
                                    <path d="M1.51008403,2.16035448 C1.30871849,2.16035448 1.10735294,2.09225746 0.953571429,1.95597015 C0.645588235,1.68302239 0.645168067,1.24001866 0.952415966,0.966511194 L1.71754202,0.285727612 C2.02489496,0.0123134328 2.5237395,0.0118470149 2.83161765,0.284794776 C3.13960084,0.557742537 3.14002101,1.00074627 2.83277311,1.27425373 L2.06764706,1.95503731 C1.91386555,2.09179104 1.71197479,2.16035448 1.51008403,2.16035448 Z" id="Path"></path>
                                </g>
                                <path d="M36.2598803,13.8314019 C36.252171,13.8112082 36.240169,13.793219 36.2252759,13.7781399 C36.2102953,13.7630607 36.1925113,13.7510679 36.1724495,13.7431315 C34.3527861,13.0136006 32.2826572,13.4445468 30.8984829,14.8409111 C29.9789707,15.7685873 29.4824201,17.0017265 29.4642857,18.2633485 C29.5552207,18.2543539 29.6474698,18.2495039 29.7406825,18.2495039 C31.1033057,18.2495039 32.24157,19.2344985 32.4942256,20.5357143 C33.4878524,20.3727537 34.4287404,19.901861 35.1719018,19.1521364 C36.5559884,17.7555957 36.9830675,15.6671778 36.2598803,13.8314019 Z" id="Path" fill="#89C947"></path>
                                <path d="M33.6747207,14.552103 C33.3369643,14.1963717 32.7898958,14.1969796 32.4529458,14.5535619 L29.4642857,17.7149021 C30.0284034,17.9319152 30.5285869,18.2905644 30.9265911,18.75 L33.6762183,15.8415379 C34.0132834,15.4850771 34.0125923,14.9077128 33.6747207,14.552103 Z" id="Path" fill="#D5E962"></path>
                                <g id="Group" transform="translate(9.821429, 16.964286)" fill="#FFC502">
                                    <path d="M27.4346502,4.63088906 C27.4602987,4.77450608 27.473467,4.92239742 27.4735653,5.07057371 C27.4736635,5.11977584 27.5125786,5.16071429 27.5631879,5.16508359 C27.9620676,5.19899316 28.3423742,5.31848404 28.6934945,5.52023176 C28.7091195,5.52925532 28.7264151,5.53362462 28.7437107,5.53362462 C28.7712264,5.53362462 28.7985456,5.52241641 28.8178066,5.50104483 C28.9016313,5.40824468 28.973467,5.3331117 29.0442217,5.26462766 C29.6373821,4.6899696 30.354658,4.27982523 31.1367925,4.056231 C31.2102005,3.79369301 31.25,3.51785714 31.25,3.23280775 C31.25,1.49620061 29.7967767,0.0882408815 28.0040291,0.0882408815 C26.4751376,0.0882408815 25.1937893,1.11265198 24.8496462,2.49135638 C26.1314858,2.51282295 27.2148192,3.4050152 27.4346502,4.63088906 Z" id="Path"></path>
                                    <path d="M5.18956368,8.84223024 C4.86045597,8.27849544 4.65212264,7.66023936 4.57252358,7.02403116 C3.61477987,6.87262538 2.80169025,6.27973024 2.38512186,5.44737842 C1.02073506,5.81952888 0.0202437107,7.03305471 0.0202437107,8.47378419 C0.0202437107,8.59859422 0.0300707547,8.72112462 0.0447130503,8.84213526 L5.18956368,8.84213526 L5.18956368,8.84223024 Z" id="Path"></path>
                                </g>
                                <path d="M38.798065,24.2617557 C38.8941443,24.8202889 38.8177582,25.382831 38.5776595,25.8928571 L42.7991804,25.8928571 C43.7960776,24.4821423 44.0370715,22.6410772 43.3888845,20.9934392 C43.3806292,20.972493 43.368296,20.9536514 43.3526807,20.9379166 C43.3370653,20.9221819 43.3183666,20.9096542 43.2976788,20.9013358 C41.400262,20.1398545 39.2419592,20.5896476 37.7986813,22.0471658 C37.6932526,22.1537011 37.5946868,22.2649467 37.5,22.3787981 C38.169969,22.7752735 38.6590186,23.4532705 38.798065,24.2617557 Z" id="Path" fill="#89C947"></path>
                                <path d="M39.2857143,25.8928571 L40.2318318,25.8928571 L41.7408254,24.4552032 C42.0392987,24.1708918 42.0386867,23.7103888 41.7394993,23.4267561 C41.440414,23.1430265 40.9559814,23.1435113 40.6576102,23.4279197 L39.5372642,24.4953482 C39.5899,24.9756328 39.5045199,25.4543659 39.2857143,25.8928571 Z" id="Path" fill="#D5E962"></path>
                                <path d="M26.7857143,17.9638426 C26.4841236,16.6368736 25.3413063,15.6879972 24.0097568,15.5730326 C24.0094561,15.4003395 23.9952235,15.225479 23.9641523,15.0496335 C23.6688761,13.3753079 22.0464604,12.2543294 20.3405536,12.5462232 C19.4550255,12.697736 18.7220469,13.2006445 18.2617928,13.8826494 C17.5953665,13.3933357 16.7328913,13.1635051 15.8473633,13.3149195 C14.1411557,13.6069118 12.9976368,15.2010478 13.2931135,16.8753734 C13.3239842,17.051219 13.3702903,17.2206612 13.4293255,17.3832075 C12.1704424,17.9540899 11.4059916,19.30086 11.6535586,20.7049646 C11.8874944,22.0322292 12.9558411,23.010758 14.2385788,23.2142857 C14.1142942,22.3678627 14.2140226,21.4942501 14.5468849,20.6690074 C14.5500923,20.6609294 14.5549033,20.6538364 14.5612177,20.6475316 C14.5673317,20.6415223 14.5747487,20.6367937 14.5828673,20.6335428 C15.180035,20.3997716 15.8076724,20.2811621 16.4481392,20.2811621 C17.7953245,20.2811621 19.0625266,20.7984534 20.0162108,21.7378726 C20.0851687,21.805945 20.1513202,21.8761847 20.2157678,21.9475081 C20.1624457,21.6078355 20.1347823,21.2620552 20.1347823,20.9116447 C20.1347823,20.6722583 20.3323348,20.4774983 20.5751909,20.4774983 L25.8236109,20.4774983 C25.8191005,20.4089333 25.815793,20.3399743 25.815793,20.2702271 C25.815793,19.369622 26.1864418,18.5541321 26.7857143,17.9638426 Z" id="Path" fill="#368C0E"></path>
                                <g id="Group" transform="translate(15.178571, 15.178571)" fill="#89C947">
                                    <path d="M0.780133929,3.13363095 C0.775924745,3.13363095 0.771811224,3.13353175 0.767697704,3.13353175 C0.371460459,3.1265873 0.0557716837,2.78789683 0.0624681122,2.37698413 C0.0835140306,1.08878968 1.10232781,0.0547619048 2.34116709,0.0547619048 C2.35331633,0.0547619048 2.3653699,0.0548611111 2.3776148,0.0550595238 C3.00172194,0.0650793651 3.60124362,0.344940476 4.02225765,0.823015873 C4.28944515,1.1264881 4.26887755,1.59712302 3.97633929,1.87420635 C3.68380102,2.15138889 3.22997449,2.13005952 2.96269133,1.82668651 C2.80503827,1.64751984 2.58922194,1.5468254 2.35513393,1.54305556 C1.88877551,1.53521825 1.50497449,1.92093254 1.4971301,2.40228175 C1.490625,2.80873016 1.17063138,3.13353175 0.780133929,3.13363095 Z" id="Path"></path>
                                    <path d="M4.74097577,4.41388889 C4.65813138,4.41388889 4.57385204,4.39890873 4.4916773,4.3672619 C4.12012117,4.22430556 3.93061224,3.79623016 4.06836735,3.4109127 C4.46862245,2.29196429 5.67273597,1.71775794 6.75296556,2.13095238 C7.29021046,2.33670635 7.7268176,2.76815476 7.95076531,3.31478175 C8.1057398,3.69295635 7.93584184,4.12986111 7.57107781,4.2905754 C7.20660077,4.45138889 6.78520408,4.27509921 6.63013393,3.8968254 C6.55905612,3.7235119 6.42617985,3.5921627 6.25609056,3.52698413 C5.91677296,3.39722222 5.53928571,3.57738095 5.41377551,3.92837302 C5.30653699,4.22837302 5.03236607,4.41388889 4.74097577,4.41388889 Z" id="Path"></path>
                                </g>
                                <path d="M33.1638907,21.6579223 L33.1399668,21.6579223 C33.1397922,21.6643671 33.1397922,21.6709039 33.1395302,21.6773486 L34.0166831,21.6773486 C34.2769651,21.6773486 34.4878276,21.9002448 34.4878276,22.1751593 C34.4878276,23.562621 34.063134,24.8454938 33.3477733,25.8928571 L39.9570673,25.8928571 C40.154658,25.4343595 40.2300097,24.9118747 40.1424341,24.3787101 C39.9477247,23.1936133 39.0189694,22.3374748 37.9327003,22.2368447 C37.9325257,22.0911014 37.9210876,21.9434246 37.8968144,21.7951034 C37.6644728,20.3816785 36.3879472,19.4354976 35.0457618,19.6818711 C34.3489989,19.8099374 33.7721176,20.2342779 33.4101152,20.810162 C33.2926784,20.7177259 33.1671213,20.6372587 33.0357143,20.5680237 C33.1225041,20.8530656 33.1699154,21.1566132 33.1699154,21.4717612 C33.1698281,21.532526 33.1679072,21.5940273 33.1638907,21.6579223 Z" id="Path" fill="#368C0E"></path>
                                <path d="M32.1353832,21.4285714 C32.1397351,21.3579766 32.1428571,21.2869761 32.1428571,21.2151641 C32.1428571,19.3605286 30.7437192,17.8571429 29.0178098,17.8571429 C27.2919951,17.8571429 25.8928571,19.36063 25.8928571,21.2151641 C25.8928571,21.2869761 25.8959792,21.3579766 25.9002365,21.4285714 L32.1353832,21.4285714 Z" id="Path" fill="#F7931E"></path>
                                <path d="M19.2889918,22.8050933 C18.0756323,21.4777236 16.2610699,21.0680664 14.6660009,21.761508 C14.648525,21.7691753 14.6328887,21.7805851 14.6196773,21.7948246 C14.6066331,21.8091553 14.5961811,21.8262243 14.5892409,21.845484 C14.1012548,23.1892838 14.2129665,24.6742912 14.8431007,25.8928571 L20.5357143,25.8928571 C19.9590947,25.0543743 19.5681874,24.0550589 19.4309726,22.9681164 C19.3849836,22.9128017 19.3377402,22.8583998 19.2889918,22.8050933 Z" id="Path" fill="#89C947"></path>
                                <path d="M18.2860686,25.8928571 L20.5357143,25.8928571 L18.32429,23.4699425 C18.0136352,23.1297642 17.5096441,23.1288357 17.1982462,23.4685497 C16.8868483,23.8080317 16.8862112,24.3592111 17.196866,24.6995055 L18.2860686,25.8928571 Z" id="Path" fill="#D5E962"></path>
                                <path d="M31.6907656,25.8928571 C32.5333221,24.7913679 33.0357143,23.4244974 33.0357143,21.9430628 C33.0357143,21.6589365 32.8016331,21.4285714 32.512474,21.4285714 L20.1659035,21.4285714 C19.8768414,21.4285714 19.6428571,21.6589365 19.6428571,21.9430628 C19.6428571,23.4244974 20.1452493,24.7913679 20.9879028,25.8928571 L31.6907656,25.8928571 Z" id="Path" fill="#EF5050"></path>
                                <g id="Group" transform="translate(21.428571, 21.428571)" fill="#C0272D">
                                    <path d="M5.62627551,4.35460907 L5.62627551,3.72864382 C5.62627551,3.22888514 5.31227041,2.82372104 4.9247449,2.82372104 C4.53721939,2.82372104 4.22321429,3.22888514 4.22321429,3.72864382 L4.22321429,4.35460907 L5.62627551,4.35460907 Z" id="Path"></path>
                                    <path d="M6.97218537,4.35460907 L8.06311224,4.35460907 C8.28881803,3.99951737 8.27347789,3.47466216 8.01671769,3.14261583 L7.33567177,2.26206564 C7.06207483,1.90830116 6.61786565,1.90745656 6.34361395,2.2604971 C6.06926871,2.61353764 6.06880102,3.18641409 6.34239796,3.54017857 L6.97218537,4.35460907 Z" id="Path"></path>
                                    <path d="M2.7667432,4.35460907 L3.39643707,3.54041988 C3.67012755,3.18665541 3.66965986,2.6136583 3.39540816,2.26073842 C3.12115646,1.90769788 2.67694728,1.90830116 2.4032568,2.26206564 L1.72211735,3.14261583 C1.46535714,3.47454151 1.44992347,3.99939672 1.67553571,4.35448842 L2.7667432,4.35460907 L2.7667432,4.35460907 Z" id="Path"></path>
                                    <path d="M1.68816327,1.91421332 L0.724914966,1.91421332 C0.337389456,1.91421332 0.0233843537,1.50904923 0.0233843537,1.00929054 C0.0233843537,0.509531853 0.337389456,0.104367761 0.724914966,0.104367761 L1.68816327,0.104367761 C2.07568878,0.104367761 2.38969388,0.509531853 2.38969388,1.00929054 C2.38969388,1.50904923 2.07559524,1.91421332 1.68816327,1.91421332 Z" id="Path"></path>
                                    <path d="M9.07369048,1.91421332 L8.11034864,1.91421332 C7.72291667,1.91421332 7.40881803,1.50904923 7.40881803,1.00929054 C7.40881803,0.509531853 7.72291667,0.104367761 8.11034864,0.104367761 L9.07369048,0.104367761 C9.46121599,0.104367761 9.77522109,0.509531853 9.77522109,1.00929054 C9.77522109,1.50904923 9.46112245,1.91421332 9.07369048,1.91421332 Z" id="Path"></path>
                                </g>
                                <path d="M8.70174661,30.9720506 C8.71061522,30.9744927 8.71958236,30.9757626 8.72845097,30.9757626 C8.74973562,30.9757626 8.77062612,30.9689247 8.78796917,30.9559327 C8.81260419,30.9374703 8.82699104,30.9086534 8.82699104,30.8780783 L8.82699104,29.6381713 C8.82699104,29.2880707 9.11433388,29.0032233 9.46750149,29.0032233 C9.82066909,29.0032233 10.1080119,29.2880707 10.1080119,29.6381713 L10.1080119,30.8780783 C10.1080119,30.9086534 10.1223988,30.9374703 10.1470338,30.9559327 C10.1643769,30.9689247 10.1852673,30.9757626 10.206552,30.9757626 C10.2155191,30.9757626 10.2244863,30.9745904 10.2332564,30.9720506 C10.7516757,30.8272824 11.3633139,30.7506979 12.001755,30.7506979 C13.7956769,30.7506979 15.000822,31.327133 15.000822,31.865569 C15.000822,31.9351202 14.9794388,32.007895 14.9371651,32.0819397 C14.9231724,32.1062631 14.9205118,32.1354707 14.9297746,32.1619432 C14.9390373,32.1884156 14.9592381,32.2097108 14.9853512,32.2203584 C17.2822216,33.1589092 18.909808,35.1498132 19.2331179,37.4159915 C19.2373551,37.4453945 19.2547967,37.4712808 19.2805157,37.4864219 C19.2958879,37.4954088 19.313231,37.5 19.3306726,37.5 C19.3424974,37.5 19.3543222,37.4978509 19.3656543,37.4936505 L34.9226677,31.6349363 C35.2237076,31.5216225 35.539627,31.4641841 35.861656,31.4641841 C36.312871,31.4641841 36.7591589,31.5795493 37.1524324,31.7976784 C37.8363004,32.1770842 38.3101796,32.8314714 38.45257,33.5929206 L38.5880626,34.3182266 C38.593975,34.3495833 38.614767,34.3761534 38.6441319,34.3893408 C38.6571392,34.3952019 38.6710334,34.3981324 38.6849275,34.3981324 C38.7023691,34.3981324 38.7197121,34.3936389 38.7350844,34.3845543 L43.9655913,31.3237141 C44.4150325,29.736051 44.6428571,28.089875 44.6428571,26.3990572 C44.6428571,26.1194847 44.4146383,25.8928571 44.1332079,25.8928571 L8.54536352,25.8928571 C8.26393309,25.8928571 8.03571429,26.1194847 8.03571429,26.3990572 C8.03571429,27.9572197 8.2300353,29.4773829 8.61187807,30.9488994 C8.64173571,30.9567141 8.67248021,30.9638451 8.70174661,30.9720506 Z" id="Path" fill="#E6E9ED"></path>
                                <path d="M8.84100137,30.3532306 C8.85172424,30.3558044 8.86256624,30.3571429 8.87328911,30.3571429 C8.89902398,30.3571429 8.92428228,30.349936 8.94525144,30.3362431 C8.97503717,30.3167846 8.99243204,30.286413 8.99243204,30.2541882 L8.99243204,28.9473847 C8.99243204,28.5783952 9.33985283,28.2781794 9.76686111,28.2781794 C10.1938694,28.2781794 10.5412902,28.5783952 10.5412902,28.9473847 L10.5412902,30.2541882 C10.5412902,30.286413 10.558685,30.3167846 10.5884708,30.3362431 C10.6094399,30.349936 10.6346982,30.3571429 10.6604331,30.3571429 C10.6712751,30.3571429 10.6821171,30.3559074 10.6927208,30.3532306 C11.2292215,30.2225811 11.8486456,30.1451592 12.5,30.1254949 C12.0777574,28.6380059 11.8638959,27.1039815 11.8638959,25.5335111 C11.8638959,25.2388548 12.1397118,25 12.4801031,25 L8.65192154,25 C8.31164932,25 8.03571429,25.2388548 8.03571429,25.5335111 C8.03571429,27.1757409 8.27066415,28.7779213 8.73234302,30.3288303 C8.76844333,30.3370667 8.80561592,30.3445824 8.84100137,30.3532306 Z" id="Path" fill="#000000" opacity="0.1"></path>
                                <path d="M9.82119048,31.25 C10.0657143,31.1250903 10.3685714,31.0162141 10.7142857,30.9274881 L10.7142857,29.3839376 C10.7142857,28.9352159 10.3146429,28.5714286 9.82142857,28.5714286 C9.32821429,28.5714286 8.92857143,28.9352159 8.92857143,29.3839376 L8.92857143,30.9274881 C9.27428571,31.0161057 9.57678571,31.1250903 9.82119048,31.25 Z" id="Path" fill="#89C947"></path>
                                <path d="M17.3342783,44.547332 L14.6869671,44.5483713 L14.6859898,44.5483713 C13.4257611,44.5482768 12.3451601,43.6824089 12.1166673,42.4893366 L12.0905734,42.353655 C11.8619828,41.1603937 12.5509795,39.9801715 13.7289196,39.5474265 L19.6428571,37.3753867 C19.3383304,35.0204224 17.6218001,33.0481257 15.2647471,32.1432351 C15.0360588,32.5148478 14.2485502,32.8383672 13.2231667,32.9546792 C13.1840747,32.95912 13.1514329,32.9858595 13.1405848,33.02252 C13.1297368,33.0591805 13.1426372,33.0984866 13.1734221,33.122297 C13.704878,33.5333103 14.0387238,33.9666222 14.0665769,34.2815434 C14.0767408,34.3956823 14.047715,34.4882784 13.9777403,34.5646229 C13.8531345,34.7006825 13.6080276,34.7725862 13.2690998,34.7725862 C13.2690998,34.7725862 13.2690998,34.7725862 13.2690021,34.7725862 C12.6091289,34.7725862 11.7168537,34.5058527 10.8820438,34.0591238 C10.5143834,33.8621209 10.187281,33.6469767 9.90943447,33.4193604 C9.89115895,33.4044317 9.86868104,33.3969673 9.84630086,33.3969673 C9.82382296,33.3969673 9.80134505,33.4044317 9.78316726,33.4193604 C9.50512532,33.6471657 9.1780229,33.8624044 8.81075343,34.0590293 C7.97594349,34.5058527 7.08357055,34.7725862 6.42369737,34.7725862 C6.08467188,34.7725862 5.83966269,34.7006825 5.71505689,34.5646229 C5.64508219,34.4882784 5.61595864,34.3957768 5.62612256,34.2816379 C5.65407335,33.9667167 5.98791915,33.5334048 6.51917961,33.122297 C6.54986684,33.0984866 6.56286493,33.0591805 6.5520169,33.02252 C6.5412666,32.9858595 6.50862476,32.95912 6.46943502,32.9546792 C5.44375832,32.8383672 4.65615198,32.5146588 4.42785462,32.1428571 C1.82334923,33.142517 0,35.4451361 0,38.1271158 C0,41.7257023 3.28187225,44.6428571 7.33014343,44.6428571 L17.493676,44.6428571 C17.6034268,44.6428571 17.5184994,44.6051573 17.3342783,44.547332 Z" id="Path" fill="#EF5050"></path>
                                <path d="M2.96594255,38.1270666 C2.96594255,35.9895924 4.04885434,34.0925865 5.72148142,32.904324 C4.92501845,32.76061 4.32936213,32.4708199 4.14098593,32.1428571 C1.70525702,33.1424301 0,35.4450666 0,38.1270666 C0,41.7256802 3.06931639,44.6428571 6.85539462,44.6428571 L9.82142857,44.6428571 C6.03535035,44.6428571 2.96594255,41.7256802 2.96594255,38.1270666 Z" id="Path" fill="#000000" opacity="0.1"></path>
                                <path d="M15.1785714,30.7364649 C15.1785714,30.0338096 13.8594142,29.4642857 12.2321663,29.4642857 C11.2354406,29.4642857 10.3545653,29.6781774 9.82133484,30.0054205 C9.28847932,29.6782799 8.40769774,29.4642857 7.41078458,29.4642857 C5.78363035,29.4642857 4.46428571,30.0338096 4.46428571,30.7364649 C4.46428571,31.3130605 5.35340928,31.7997743 6.57161916,31.956068 C5.82637127,32.6081969 5.48510004,33.2935318 5.78878551,33.6684317 C6.19116875,34.1651893 7.57237525,33.9292627 8.87334879,33.1417476 C9.23861492,32.9205793 9.55870315,32.6797333 9.82114738,32.4364276 C10.0838728,32.6798358 10.4041485,32.9205793 10.7691334,33.1417476 C12.0702007,33.9292627 13.4513135,34.1649843 13.853603,33.6684317 C14.1573822,33.2935318 13.8162047,32.6081969 13.0706756,31.956068 C14.2897291,31.7997743 15.1785714,31.3130605 15.1785714,30.7364649 Z" id="Path" fill="#368C0E"></path>
                                <path d="M49.988366,35.137446 L49.7866423,34.0727388 C49.7173311,33.7052266 49.3550497,33.4623746 48.9778443,33.5299968 L41.1922497,34.9293851 L46.1633275,31.6779316 C46.3990057,31.5238705 46.5080807,31.2517155 46.4596029,30.9932809 C46.4458809,30.9215425 46.4200394,30.8511762 46.3815777,30.78424 L45.8189748,29.8093037 C45.7276282,29.6505385 45.5738815,29.5343066 45.3932917,29.4873631 C45.212802,29.4402235 45.0204934,29.4659004 44.8596353,29.5589054 L38.3928571,33.294103 L39.6162204,39.7564369 L47.033524,41.060664 C47.2183206,41.0932011 47.4090266,41.0512557 47.5614713,40.9446282 C47.7140161,40.8379026 47.8160799,40.6753153 47.8435239,40.4941073 L48.011193,39.3934328 C48.0228116,39.3176763 48.0212091,39.2428019 48.0075872,39.1714555 C47.9587088,38.9126289 47.7566845,38.6967278 47.4802409,38.6346917 L41.6456774,37.3252704 L49.4313721,35.9257841 C49.8087778,35.8579659 50.0578776,35.5051542 49.988366,35.137446 Z" id="Path" fill="#89C947"></path>
                                <path d="M12.571926,42.4756596 C12.8112838,43.7317503 13.9430803,44.6433362 15.2626548,44.642857 L38.3371607,44.63423 C39.1491231,44.6339424 39.9192694,44.2843573 40.4386177,43.6800841 C40.9581631,43.0759068 41.1733583,42.2795392 41.0260157,41.5062727 L39.4845397,33.4173133 C39.3370984,32.6442385 38.8425045,31.9745919 38.1344907,31.5894444 C37.4264768,31.2042969 36.5784184,31.1438121 35.8196138,31.4238061 L14.2608433,39.3839357 C13.0278597,39.8393453 12.3063345,41.0817287 12.5455937,42.3379152 L12.571926,42.4756596 Z" id="Path" fill="#F7931E"></path>
                                <g id="Group" opacity="0.1" transform="translate(12.500000, 30.357143)" fill="#000000">
                                    <path d="M0.0972077922,11.8902218 C0.133441558,12.0930444 0.19275974,12.2859879 0.268051948,12.4695565 C0.582175325,11.8920363 1.08672078,11.4247984 1.72363636,11.1742944 L23.9595779,2.43185484 C24.7422078,2.12429435 25.6169805,2.19082661 26.3471104,2.61370968 C26.5005195,2.70262097 26.6436039,2.80604839 26.7762662,2.92066532 L26.6768182,2.3641129 C26.5312013,1.55110887 26.0427273,0.846875 25.343474,0.441834677 C24.6442208,0.0367943548 23.8066558,-0.0268145161 23.0572403,0.267641129 L1.76522727,8.63891129 C0.5475,9.11784274 -0.165097403,10.4243952 0.0712012987,11.7454637 L0.0972077922,11.8902218 Z" id="Path"></path>
                                </g>
                                <g id="Group" transform="translate(16.964286, 33.035714)" fill="#FFC502">
                                    <path d="M19.8250992,8.04385006 C19.7479167,7.63669951 19.3572421,7.36983528 18.9545635,7.44778325 C18.5509921,7.52563116 18.2864087,7.91877309 18.3635913,8.32582358 L18.9760913,11.5550108 L20.4910714,11.5544104 L19.8250992,8.04385006 Z" id="Path"></path>
                                    <path d="M15.7919643,8.93369766 C15.7157738,8.52634698 15.3268849,8.2585822 14.9229167,8.33522937 C14.5191468,8.4119766 14.2534722,8.8044181 14.3296627,9.21166872 L14.7679563,11.5566118 L16.2821429,11.5560114 L15.7919643,8.93369766 Z" id="Path"></path>
                                    <path d="M11.8491071,3.28141933 C11.934127,3.62182882 12.2372024,3.84876847 12.5701389,3.84876847 C12.6302579,3.84876847 12.6914683,3.84136392 12.752381,3.82585437 C13.1508929,3.72469212 13.3925595,3.31684113 13.2922619,2.91479372 L12.5840278,0.0780480296 L11.1834325,0.614778325 L11.8491071,3.28141933 Z" id="Path"></path>
                                    <path d="M7.97748016,8.2796952 C7.90456349,7.87184421 7.51795635,7.60067734 7.11319444,7.67432266 C6.70882937,7.74786792 6.44007937,8.13820813 6.51299603,8.54605911 L7.05178571,11.5596136 L8.56378968,11.5590132 L7.97748016,8.2796952 Z" id="Path"></path>
                                    <path d="M0.471428571,6.87703202 C0.544940476,7.23074969 0.854166667,7.47349908 1.19880952,7.47349908 C1.24950397,7.47349908 1.30089286,7.46829587 1.35248016,7.4572891 C1.7546627,7.37223676 2.01210317,6.97429187 1.92777778,6.5687423 L1.46378968,4.3390702 L0.0556547619,4.87860222 L0.471428571,6.87703202 Z" id="Path"></path>
                                </g>
                            </g>
                        </g>
                    </g>
                </g>
            </g>
        </g>
    </g>
</svg>