<svg xmlns="http://www.w3.org/2000/svg" width="56" height="47" viewBox="0 0 56 47">
    <g fill="none" fill-rule="nonzero">
        <path fill="#CDA349" d="M3 41h17v5H3z"/>
        <g fill="#FBCC34">
            <path d="M3 36.044h17v4.444H3zM20 40.488h17v4.445H20z"/>
        </g>
        <path fill="#CDA349" d="M19 36h17v5H19z"/>
        <path fill="#FBCC34" d="M19 31h17v5H19z"/>
        <g fill="#CDA349">
            <path d="M19 27.047h17v4.72H19zM36 41.208h17v4.72H36z"/>
        </g>
        <path fill="#FBCC34" d="M36 36h17v5H36z"/>
        <path fill="#CDA349" d="M36 31h17v5H36z"/>
        <path fill="#FBCC34" d="M36 27h17v5H36z"/>
        <path fill="#CDA349" d="M36 22h17v5H36z"/>
        <path fill="#FBCC34" d="M36 17h17v5H36z"/>
        <g fill="#D0ECF4">
            <path d="M52 17.212H38.824V7.854l6.588-2.808L52 7.854zM17.176 35.93H4v-9.36h13.176zM34.118 26.57H20.94v-9.358l6.588-2.807 6.589 2.807z"/>
        </g>
        <path fill="#D6562B" d="M54.238 7L44.5 2.195 34.762 7 34 5.182 44.5 0 55 5.182z"/>
        <g fill="#27689E">
            <path d="M43.293 13.045H47v4.577h-3.707zM25.683 22.2h3.707v4.577h-3.707zM9 31.354h3.707v4.577H9z"/>
        </g>
        <path fill="#29485A" d="M0 45h56v2H0z"/>
        <g fill="#C3922E">
            <path d="M5 39.047h1.857v1.882H5zM8.714 39.047h1.857v1.882H8.714zM12.429 39.047h1.857v1.882h-1.857zM16.143 39.047H18v1.882h-1.857z"/>
        </g>
        <g fill="#E2C675">
            <path d="M5 43.047h1.857v1.882H5zM8.714 43.047h1.857v1.882H8.714zM12.429 43.047h1.857v1.882h-1.857zM16.143 43.047H18v1.882h-1.857z"/>
        </g>
        <g fill="#C3922E">
            <path d="M21 39.047h1.857v1.882H21zM24.714 39.047h1.857v1.882h-1.857zM28.429 39.047h1.857v1.882h-1.857zM32.143 39.047H34v1.882h-1.857z"/>
        </g>
        <g fill="#E2C675">
            <path d="M21 43.047h1.857v1.882H21zM24.714 43.047h1.857v1.882h-1.857zM28.429 43.047h1.857v1.882h-1.857zM32.143 43.047H34v1.882h-1.857z"/>
        </g>
        <g fill="#C3922E">
            <path d="M38 39.047h1.842v1.882H38zM41.682 39.047h1.841v1.882h-1.84zM45.364 39.047h1.84v1.882h-1.84zM49.045 39.047h1.84v1.882h-1.84z"/>
        </g>
        <g fill="#E2C675">
            <path d="M38 43.047h1.842v1.882H38zM41.682 43.047h1.841v1.882h-1.84zM45.364 43.047h1.84v1.882h-1.84zM49.045 43.047h1.84v1.882h-1.84z"/>
        </g>
        <g fill="#C3922E">
            <path d="M21 30.047h1.857v1.882H21zM24.714 30.047h1.857v1.882h-1.857zM28.429 30.047h1.857v1.882h-1.857zM32.143 30.047H34v1.882h-1.857z"/>
        </g>
        <g fill="#E2C675">
            <path d="M21 34.047h1.857v1.882H21zM24.714 34.047h1.857v1.882h-1.857zM28.429 34.047h1.857v1.882h-1.857zM32.143 34.047H34v1.882h-1.857z"/>
        </g>
        <g fill="#C3922E">
            <path d="M38 30.047h1.842v1.882H38zM41.682 30.047h1.841v1.882h-1.84zM45.364 30.047h1.84v1.882h-1.84zM49.045 30.047h1.84v1.882h-1.84z"/>
        </g>
        <g fill="#E2C675">
            <path d="M38 34.047h1.842v1.882H38zM41.682 34.047h1.841v1.882h-1.84zM45.364 34.047h1.84v1.882h-1.84zM49.045 34.047h1.84v1.882h-1.84z"/>
        </g>
        <g fill="#C3922E">
            <path d="M38 20.047h1.842v1.882H38zM41.682 20.047h1.841v1.882h-1.84zM45.364 20.047h1.84v1.882h-1.84zM49.045 20.047h1.84v1.882h-1.84z"/>
        </g>
        <g fill="#E2C675">
            <path d="M38 25.047h1.842v1.882H38zM41.682 25.047h1.841v1.882h-1.84zM45.364 25.047h1.84v1.882h-1.84zM49.045 25.047h1.84v1.882h-1.84z"/>
        </g>
    </g>
</svg>
