<svg xmlns="http://www.w3.org/2000/svg" width="48" height="44" viewBox="0 0 48 44">
    <g fill="none" fill-rule="nonzero">
        <path fill="#999" d="M39.05 2.522h8.136v39.864h-8.135z"/>
        <path fill="#CCC" d="M0 42.386h17.898V.081H0z"/>
        <g fill="#0378A3">
            <path d="M2.44 9.03h13.018v3.255H2.44zM2.44 15.539h13.018v3.254H2.44zM2.44 22.047h13.018v3.255H2.44zM2.44 28.556h13.018v3.254H2.44z"/>
        </g>
        <path fill="#E6E6E6" d="M42.305 42.386H12.203V10.658l14.644-7.322 15.458 7.322v13.017z"/>
        <g fill="#603813">
            <path d="M43.932 43.2a.814.814 0 0 1-.813-.814v-4.88a.814.814 0 0 1 1.627 0v4.88c0 .45-.365.814-.814.814zM37.424 43.2a.814.814 0 0 1-.814-.814v-4.88a.814.814 0 0 1 1.627 0v4.88c0 .45-.364.814-.813.814z"/>
        </g>
        <path fill="#0378A3" d="M2.44 2.522h13.018v3.254H2.44z"/>
        <path fill="#55D08F" d="M0 34.25c2.022 0 4.068 1.64 4.068 3.662a3.6 3.6 0 0 1-.047.461 2.02 2.02 0 0 1 2.433 2.433c.152-.028.306-.044.461-.047 1.434 0 2.034 0 2.848 1.627H0v-8.135z"/>
        <path fill="#29ABE2" d="M15.458 13.098h5.695v7.322h-5.695z"/>
        <g fill="#06AAE9">
            <path d="M24.407 13.098h5.695v7.322h-5.695zM33.356 13.098h5.695v7.322h-5.695z"/>
        </g>
        <g fill="#29ABE2">
            <path d="M15.458 23.675h5.695v7.322h-5.695zM24.407 23.675h5.695v7.322h-5.695zM33.356 23.675h5.695v7.322h-5.695z"/>
        </g>
        <path fill="#0378A3" d="M21.966 34.25h4.881v8.136h-4.88z"/>
        <path fill="#83D8EF" d="M26.847 34.25h4.882v8.136h-4.882z"/>
        <circle cx="26.847" cy="8.217" r="1.627" fill="#FFBC44"/>
        <path fill="#55D08F" d="M43.932 26.115a3.254 3.254 0 0 1 3.254 3.254v4.882a3.254 3.254 0 0 1-6.508 0v-4.882a3.254 3.254 0 0 1 3.254-3.254z"/>
        <path fill="#666" d="M34.17 35.064H20.338a.814.814 0 0 1 0-1.627h13.83a.814.814 0 0 1 0 1.627z"/>
        <path fill="#55D08F" d="M37.424 26.115a3.254 3.254 0 0 1 3.254 3.254v4.882a3.254 3.254 0 0 1-6.508 0v-4.882a3.254 3.254 0 0 1 3.254-3.254z"/>
    </g>
</svg>
