<svg xmlns="http://www.w3.org/2000/svg" width="51" height="32" viewBox="0 0 51 32">
    <g fill="none" fill-rule="nonzero">
        <path fill="#E0B394" d="M38 22l2.962-6.43c.604-1.313 2.075-1.91 3.365-1.374l.02.008c1.36.577 2.011 2.201 1.453 3.62l-.608 1.545"/>
        <path fill="#FD5D65" d="M24.143 18.898C20.253 15.926 17 12.025 17 8.063 17 3.61 19.985 0 23.667 0 26.612 0 29 2.889 29 6.45 29 2.89 31.388 0 34.333 0c2.152 0 4.065 1.232 5.283 3.146C40.486 4.508 41 6.213 41 8.063 41 13.629 34.577 19.072 29 22a34.05 34.05 0 0 1-4.857-3.102z"/>
        <path fill="#E54E5C" d="M27.016 18.898c-2.39-2.972-4.388-6.873-4.388-10.835 0-3.886 1.397-7.129 3.255-7.892C25.493.06 25.086 0 24.667 0 20.986 0 18 3.61 18 8.063c0 3.962 3.253 7.863 7.143 10.835A34.074 34.074 0 0 0 30 22a23.063 23.063 0 0 1-2.984-3.102z"/>
        <path fill="#F7CBA4" d="M49.029 24.345l-16.95 7.064a7.685 7.685 0 0 1-5.36.206l-17.614-5.8a3.873 3.873 0 0 0-2.765.132l-.698.306-3.984-9.23L0 13.182l8.264-5.5c2.518-1.677 5.68-2.16 8.54-1.179.115.039.23.08.345.126l15.544 5.957a2.666 2.666 0 0 1 1.503 1.44 2.66 2.66 0 0 1-.004 2.135 2.686 2.686 0 0 1-3.33 1.465l-9.861-3.37a2.478 2.478 0 0 0-1.79.07 2.486 2.486 0 0 0 .164 4.63l11.302 3.945c1.005.352 2.1.35 3.103 0l12.958-4.53a3.203 3.203 0 0 1 3.999 1.752l.009.023a3.198 3.198 0 0 1-1.717 4.198z"/>
        <path fill="#E0B394" d="M18 6.629S5.85 9.605 2.063 16.458A8.958 8.958 0 0 1 1.74 17L0 13.168 8.674 7.68c2.642-1.673 5.962-2.156 8.963-1.176.121.039.243.08.363.126z"/>
    </g>
</svg>
