<svg xmlns="http://www.w3.org/2000/svg" width="50" height="50" viewBox="0 0 50 50">
    <g fill="none" fill-rule="nonzero">
        <path fill="#42210B" d="M18.295 49.896a.832.832 0 0 1-.831-.832V16.632a.832.832 0 0 1 1.663 0v32.432c0 .46-.372.832-.832.832z"/>
        <path fill="#06AAE9" d="M19.959 35.759L10.81 26.61l-2.495 2.495 9.98 9.98H46.57v-3.327z"/>
        <path fill="#603813" d="M49.065 40.748H16.976L5.578 29.35a.832.832 0 1 0-1.176 1.176l4.005 4.005-4.665 6.217H.832a.832.832 0 0 0 0 1.664h4.267l-4.128 6.19a.832.832 0 0 0 1.384.924l4.743-7.114h34.869l4.74 7.114a.832.832 0 0 0 1.384-.923l-4.126-6.191h5.1a.832.832 0 0 0 0-1.664zm-39.47-5.03l5.03 5.03H5.82l3.773-5.03z"/>
        <path fill="#F7931E" d="M18.295 2.495c-8.937 0-14.7 5.876-14.96 13.228-.008.372.152.728.437.967a3.092 3.092 0 0 0 3.898.157 1.114 1.114 0 0 1 1.292 0 3.077 3.077 0 0 0 3.698 0 1.114 1.114 0 0 1 1.292 0 3.077 3.077 0 0 0 3.697 0 1.114 1.114 0 0 1 1.292 0 3.077 3.077 0 0 0 3.698 0 1.114 1.114 0 0 1 1.292 0 3.077 3.077 0 0 0 3.697 0 1.114 1.114 0 0 1 1.293 0c1.172.878 2.8.812 3.897-.158.286-.238.446-.594.435-.965-.294-7.352-6.832-13.23-14.958-13.23z"/>
        <circle cx="42.412" cy="7.484" r="2.957" fill="#ED1C24"/>
        <g fill="#F15A24">
            <path d="M37.237 8.316h-1.478a.832.832 0 0 1 0-1.663h1.478a.832.832 0 0 1 0 1.663zM38.753 4.657a.832.832 0 0 1-.588-.244l-1.046-1.045a.832.832 0 0 1 1.176-1.176l1.046 1.046a.832.832 0 0 1-.588 1.419zM42.412 3.141a.832.832 0 0 1-.832-.832V.832a.832.832 0 0 1 1.663 0v1.477c0 .46-.372.832-.831.832zM46.07 4.657a.832.832 0 0 1-.587-1.42l1.045-1.045a.832.832 0 0 1 1.176 1.176l-1.046 1.046a.831.831 0 0 1-.587.243zM49.065 8.316h-1.478a.832.832 0 0 1 0-1.663h1.478a.832.832 0 0 1 0 1.663zM47.116 13.02a.832.832 0 0 1-.588-.243l-1.046-1.046a.832.832 0 0 1 1.176-1.176l1.046 1.046a.832.832 0 0 1-.588 1.42zM42.412 14.969a.832.832 0 0 1-.832-.832V12.66a.832.832 0 0 1 1.663 0v1.478c0 .46-.372.832-.831.832zM37.707 13.02a.832.832 0 0 1-.588-1.42l1.047-1.045a.832.832 0 0 1 1.175 1.176l-1.046 1.046a.832.832 0 0 1-.588.243z"/>
        </g>
    </g>
</svg>
