<svg width="147" height="48" viewBox="0 0 147 48" fill="none" xmlns="http://www.w3.org/2000/svg">
<mask id="mask0" mask-type="alpha" maskUnits="userSpaceOnUse" x="0" y="0" width="147" height="48">
<path d="M0 0H146.078V47.784H0V0Z" fill="white"/>
</mask>
<g mask="url(#mask0)">
<path fill-rule="evenodd" clip-rule="evenodd" d="M146.078 41.326C146.078 44.892 143.188 47.784 139.622 47.784H6.457C2.892 47.784 0 44.892 0 41.326V6.457C0 2.891 2.892 0 6.457 0H139.622C143.188 0 146.078 2.891 146.078 6.457V41.326Z" fill="#063148"/>
</g>
<path fill-rule="evenodd" clip-rule="evenodd" d="M38.0928 31.5847C37.3198 33.2987 36.9498 34.0647 35.9538 35.5787C34.5638 37.6937 32.6068 40.3277 30.1808 40.3497C28.0248 40.3697 27.4708 38.9467 24.5448 38.9627C21.6198 38.9787 21.0088 40.3747 18.8518 40.3547C16.4258 40.3327 14.5708 37.9547 13.1818 35.8397C9.29576 29.9257 8.89076 22.9847 11.2858 19.2957C12.9888 16.6737 15.6748 15.1387 18.2008 15.1387C20.7718 15.1387 22.3888 16.5487 24.5148 16.5487C26.5768 16.5487 27.8348 15.1367 30.8068 15.1367C33.0538 15.1367 35.4348 16.3597 37.1318 18.4767C31.5728 21.5217 32.4758 29.4627 38.0928 31.5847Z" fill="#FEFEFE"/>
<path fill-rule="evenodd" clip-rule="evenodd" d="M28.5522 12.7737C29.6322 11.3877 30.4522 9.42973 30.1552 7.42773C28.3912 7.54973 26.3262 8.67273 25.1212 10.1357C24.0272 11.4647 23.1242 13.4357 23.4762 15.3497C25.4022 15.4097 27.3952 14.2597 28.5522 12.7737ZM51.2492 21.8997C51.4372 22.6297 51.6392 23.3897 51.9002 24.2107L53.4002 28.5537H49.1322L50.6112 24.1817C50.8362 23.4737 51.0502 22.7077 51.2492 21.8997ZM49.9292 19.2067L44.3632 35.5867H46.9122L48.5732 30.5567H53.9622L55.6702 35.5867H58.2902L52.7002 19.2067H49.9282H49.9292ZM64.8732 25.5047C67.0832 25.5047 68.0712 27.5517 68.0712 29.5797C68.0712 32.1947 66.8092 33.8197 64.7792 33.8197C63.3932 33.8197 62.1932 32.8767 61.8592 31.5197C61.8022 31.3097 61.7712 31.0317 61.7712 30.7177V28.7247C61.7712 28.5447 61.8112 28.3247 61.8502 28.1127C61.8622 28.0457 61.8762 27.9777 61.8852 27.9127C62.2552 26.4937 63.4822 25.5047 64.8732 25.5047ZM65.4902 23.4527C63.8022 23.4527 62.4502 24.1047 61.5502 25.3427L61.4512 23.7137H59.1842L59.1982 23.9217C59.2652 24.9367 59.2932 26.0537 59.2932 27.6577V40.2847H61.7712V34.3917C62.5402 35.3117 63.7682 35.8477 65.1592 35.8477C66.6082 35.8477 67.9422 35.2807 68.9142 34.2507C70.0002 33.1037 70.5732 31.4547 70.5732 29.4837C70.5732 27.7437 70.0752 26.2377 69.1332 25.1317C68.2102 24.0487 66.9172 23.4527 65.4902 23.4527ZM77.6362 25.5047C79.8442 25.5047 80.8332 27.5517 80.8332 29.5797C80.8332 32.1947 79.5712 33.8197 77.5412 33.8197C76.1562 33.8197 74.9552 32.8767 74.6212 31.5197C74.5642 31.3097 74.5342 31.0317 74.5342 30.7177V28.7247C74.5342 28.5437 74.5742 28.3237 74.6132 28.1107L74.6492 27.9117C75.0172 26.4937 76.2452 25.5047 77.6362 25.5047ZM78.2532 23.4527C76.5652 23.4527 75.2132 24.1047 74.3132 25.3427L74.2132 23.7137H71.9472L71.9602 23.9217C72.0272 24.9377 72.0552 26.0537 72.0552 27.6577V40.2847H74.5342V34.3917C75.3032 35.3117 76.5302 35.8477 77.9212 35.8477C79.3692 35.8477 80.7042 35.2807 81.6782 34.2507C82.7622 33.1037 83.3352 31.4547 83.3352 29.4837C83.3352 27.7437 82.8372 26.2377 81.8952 25.1317C80.9722 24.0487 79.6792 23.4527 78.2532 23.4527ZM94.2412 26.1467C91.9282 25.2517 91.1882 24.5467 91.1882 23.2457C91.1882 22.1497 92.0582 21.0437 94.0042 21.0437C95.6102 21.0437 96.6372 21.6027 96.9142 21.7737L97.1242 21.9037L97.8242 19.8357L97.6842 19.7557C97.2702 19.5117 96.0862 18.9457 94.0762 18.9457C90.9162 18.9457 88.7082 20.8107 88.7082 23.4817C88.7082 25.6357 90.0902 27.1417 93.0582 28.2207C95.1612 29.0067 95.9442 29.8117 95.9442 31.1927C95.9442 32.7547 94.7362 33.7247 92.7942 33.7247C91.5292 33.7247 90.2262 33.3557 89.2212 32.7117L89.0072 32.5737L88.3412 34.6897L88.4632 34.7707C89.3992 35.3957 91.1602 35.8477 92.6522 35.8477C96.9122 35.8477 98.4222 33.2507 98.4222 31.0267C98.4222 28.7327 97.2122 27.3187 94.2422 26.1467H94.2412ZM102.883 20.8917L100.453 21.6547V23.7137H98.6732V25.6937H100.453V31.7617C100.453 33.2287 100.733 34.2567 101.311 34.9067C101.865 35.5137 102.716 35.8477 103.709 35.8477C104.645 35.8477 105.311 35.6627 105.624 35.5517L105.764 35.5027L105.644 33.5187L105.407 33.5917C105.093 33.6877 104.772 33.7247 104.254 33.7247C103.294 33.7247 102.884 33.1167 102.884 31.6907V25.6947H105.874V23.7137H102.884V20.8917H102.883ZM111.944 25.4097C114.174 25.4097 115.188 27.5827 115.188 29.6037C115.188 32.0877 113.803 33.8907 111.896 33.8907H111.872C109.992 33.8907 108.628 32.1177 108.628 29.6747C108.628 27.5517 109.654 25.4097 111.944 25.4097ZM112.015 23.4527C108.547 23.4527 106.126 26.0407 106.126 29.7447C106.126 33.3387 108.469 35.8477 111.826 35.8477H111.848C114.686 35.8477 117.738 33.8717 117.738 29.5317C117.738 27.7677 117.192 26.2517 116.158 25.1477C115.118 24.0397 113.685 23.4527 112.015 23.4527ZM125.329 23.5677L125.18 23.5297C124.962 23.4757 124.784 23.4527 124.564 23.4527C123.267 23.4527 122.104 24.2157 121.456 25.4477L121.384 23.7137H119.16L119.174 23.9217C119.24 24.9027 119.267 26.0047 119.267 27.4917L119.244 35.5877H121.723V29.2697C121.723 28.9257 121.746 28.6007 121.791 28.3097C122.071 26.7917 123.094 25.8117 124.399 25.8117C124.652 25.8117 124.852 25.8317 125.064 25.8527L125.329 25.8807V23.5667V23.5677ZM130.736 25.3147C131.49 25.3147 132.103 25.5487 132.556 26.0087C133.268 26.7347 133.393 27.8027 133.409 28.3157H127.756C127.986 26.8847 128.882 25.3157 130.736 25.3157V25.3147ZM130.901 23.4297C127.601 23.4297 125.297 26.0657 125.297 29.8397C125.297 33.4747 127.59 35.8247 131.138 35.8247C133.004 35.8247 134.302 35.4147 135.062 35.0717L135.212 35.0037L134.735 33.1577L134.528 33.2407C133.853 33.5157 132.955 33.7967 131.423 33.7967C130.346 33.7967 127.863 33.4407 127.711 30.2027L135.711 30.2267L135.743 30.0687C135.793 29.8167 135.817 29.4777 135.817 29.0337C135.817 26.4487 134.53 23.4297 130.901 23.4297ZM45.4882 14.8837C45.7692 14.9297 46.1782 14.9297 46.6132 14.9297C48.9912 14.9397 50.2812 13.7327 50.2812 11.6397C50.2942 9.78773 49.1442 8.64873 46.7922 8.64873C46.2172 8.64873 45.7822 8.69473 45.4882 8.75273V14.8827V14.8837ZM44.3632 8.01573C45.0532 7.92473 45.8592 7.85573 46.7412 7.85573C48.3392 7.85573 49.4762 8.17773 50.2312 8.80973C51.0102 9.44273 51.4572 10.3507 51.4572 11.6047C51.4572 12.8707 51.0102 13.9047 50.2172 14.6187C49.4002 15.3437 48.0702 15.7347 46.3962 15.7347C45.5912 15.7347 44.9392 15.7117 44.3632 15.6427V8.01573ZM55.4822 15.0327C56.5552 15.0327 57.3622 14.1237 57.3622 12.8587C57.3622 11.9157 56.8372 10.7307 55.5082 10.7307C54.1912 10.7307 53.6162 11.8347 53.6162 12.8927C53.6162 14.1127 54.3832 15.0327 55.4692 15.0327H55.4822ZM55.4442 15.7927C53.7822 15.7927 52.4782 14.6877 52.4782 12.9277C52.4782 11.0647 53.8462 9.97173 55.5462 9.97173C57.3232 9.97173 58.5242 11.1327 58.5242 12.8247C58.5242 14.8947 56.9262 15.7917 55.4572 15.7917H55.4442V15.7927ZM60.3032 10.0977L61.1342 12.9167C61.3002 13.5367 61.4662 14.1237 61.5812 14.6997H61.6202C61.7602 14.1357 61.9652 13.5377 62.1702 12.9277L63.1802 10.0977H64.1252L65.0842 12.8817C65.3142 13.5377 65.4922 14.1357 65.6332 14.6997H65.6712C65.7742 14.1357 65.9412 13.5497 66.1442 12.8927L67.0262 10.0977H68.1382L66.1442 15.6657H65.1222L64.1762 13.0087C63.9592 12.3757 63.7802 11.8237 63.6262 11.1687H63.6012C63.4472 11.8347 63.2562 12.4217 63.0382 13.0197L62.0412 15.6657H61.0202L59.1542 10.0977H60.3042H60.3032ZM69.2642 11.6047C69.2642 11.0187 69.2512 10.5587 69.2122 10.0977H70.2102L70.2732 11.0077H70.2992C70.6062 10.4897 71.3212 9.97173 72.3442 9.97173C73.2002 9.97173 74.5292 10.4317 74.5292 12.3417V15.6657H73.4052V12.4557C73.4052 11.5587 73.0342 10.7997 71.9732 10.7997C71.2452 10.7997 70.6692 11.2717 70.4652 11.8347C70.4142 11.9617 70.3892 12.1447 70.3892 12.3067V15.6657H69.2642V11.6057V11.6047Z" fill="#FEFEFE"/>
<mask id="mask1" mask-type="alpha" maskUnits="userSpaceOnUse" x="0" y="0" width="147" height="48">
<path d="M0 47.784H146.078V0H0V47.784Z" fill="white"/>
</mask>
<g mask="url(#mask1)">
<path fill-rule="evenodd" clip-rule="evenodd" d="M76.3569 15.666H77.4819V7.49902H76.3569V15.666ZM81.9039 15.033C82.9779 15.033 83.7839 14.124 83.7839 12.859C83.7839 11.916 83.2589 10.731 81.9309 10.731C80.6139 10.731 80.0379 11.835 80.0379 12.893C80.0379 14.113 80.8049 15.033 81.8919 15.033H81.9039ZM81.8659 15.793C80.2059 15.793 78.9009 14.688 78.9009 12.928C78.9009 11.065 80.2679 9.97202 81.9689 9.97202C83.7449 9.97202 84.9459 11.133 84.9459 12.825C84.9459 14.895 83.3489 15.792 81.8789 15.792H81.8659V15.793ZM89.6259 12.825C88.3979 12.802 87.0059 12.997 87.0059 14.079C87.0059 14.745 87.4909 15.045 88.0529 15.045C88.8709 15.045 89.3949 14.585 89.5729 14.113C89.6129 14.009 89.6259 13.894 89.6259 13.791V12.825ZM90.7239 14.332C90.7239 14.814 90.7499 15.286 90.8139 15.666H89.8039L89.7009 14.964H89.6639C89.3309 15.401 88.6539 15.792 87.7719 15.792C86.5199 15.792 85.8809 14.999 85.8809 14.193C85.8809 12.848 87.2089 12.111 89.5989 12.123V12.008C89.5989 11.548 89.4589 10.708 88.1939 10.72C87.6049 10.72 87.0049 10.869 86.5709 11.134L86.3149 10.455C86.8259 10.168 87.5799 9.97202 88.3599 9.97202C90.2639 9.97202 90.7239 11.134 90.7239 12.25V14.332ZM96.7449 12.365C96.7449 12.226 96.7319 12.065 96.6929 11.927C96.5279 11.295 95.9139 10.766 95.0709 10.766C93.9069 10.766 93.2169 11.686 93.2169 12.906C93.2169 14.044 93.8439 14.976 95.0449 14.976C95.7989 14.976 96.4889 14.516 96.6929 13.768C96.7329 13.63 96.7449 13.492 96.7449 13.331V12.365ZM97.8689 7.49902V14.228C97.8689 14.722 97.8829 15.286 97.9209 15.666H96.9109L96.8609 14.7H96.8339C96.4889 15.32 95.7479 15.792 94.7379 15.792C93.2429 15.792 92.0789 14.654 92.0789 12.962C92.0669 11.099 93.3579 9.97202 94.8529 9.97202C95.8129 9.97202 96.4509 10.375 96.7199 10.812H96.7449V7.49902H97.8689ZM105.002 15.033C106.076 15.033 106.881 14.124 106.881 12.859C106.881 11.916 106.357 10.731 105.028 10.731C103.711 10.731 103.136 11.835 103.136 12.893C103.136 14.113 103.903 15.033 104.989 15.033H105.002ZM104.963 15.793C103.302 15.793 101.998 14.688 101.998 12.928C101.998 11.065 103.366 9.97202 105.066 9.97202C106.843 9.97202 108.044 11.133 108.044 12.825C108.044 14.895 106.446 15.792 104.977 15.792H104.963V15.793ZM109.463 11.605C109.463 11.019 109.45 10.559 109.412 10.098H110.409L110.473 11.008H110.499C110.805 10.49 111.521 9.97202 112.543 9.97202C113.4 9.97202 114.729 10.432 114.729 12.342V15.666H113.604V12.456C113.604 11.559 113.234 10.8 112.173 10.8C111.445 10.8 110.869 11.272 110.664 11.835C110.614 11.962 110.588 12.145 110.588 12.307V15.666H109.463V11.606V11.605ZM120.622 8.76402V10.098H122.232V10.868H120.622V13.871C120.622 14.561 120.839 14.953 121.466 14.953C121.772 14.953 121.951 14.93 122.118 14.883L122.168 15.654C121.951 15.724 121.606 15.792 121.172 15.792C120.648 15.792 120.225 15.632 119.957 15.367C119.65 15.057 119.523 14.561 119.523 13.905V10.87H118.563V10.1H119.523V9.07402L120.622 8.76402ZM123.498 7.49902H124.622V10.973H124.648C124.827 10.685 125.108 10.421 125.454 10.259C125.786 10.076 126.181 9.97202 126.604 9.97202C127.434 9.97202 128.764 10.432 128.764 12.353V15.666H127.639V12.468C127.639 11.559 127.269 10.812 126.208 10.812C125.479 10.812 124.917 11.272 124.699 11.824C124.635 11.962 124.622 12.111 124.622 12.307V15.666H123.498V7.49902ZM134.516 12.33C134.528 11.697 134.222 10.685 132.969 10.685C131.819 10.685 131.333 11.628 131.244 12.33H134.516ZM131.231 13.055C131.257 14.424 132.216 14.987 133.341 14.987C134.145 14.987 134.644 14.86 135.053 14.711L135.258 15.424C134.861 15.585 134.171 15.781 133.187 15.781C131.295 15.781 130.145 14.641 130.145 12.974C130.145 11.284 131.257 9.96002 133.058 9.96002C135.078 9.96002 135.602 11.56 135.602 12.583C135.602 12.79 135.59 12.951 135.564 13.066L131.231 13.055Z" fill="#FEFEFE"/>
</g>
</svg>
