<svg width="89" height="20" viewBox="0 0 89 20" fill="none" xmlns="http://www.w3.org/2000/svg">
<path d="M0.595947 7.11746L8.62407 7.11906L13.5057 7.11989V2.28369L0.595947 7.11746Z" fill="#FF9D28"/>
<path d="M13.5058 2.28365V19.3579L19.6029 0L13.5058 2.28365Z" fill="#68C5ED"/>
<path d="M13.5058 7.11997L8.62415 7.11914L13.5058 19.358V7.11997Z" fill="#044D80"/>
<path d="M0.595947 7.11719L9.87591 10.2591L8.62407 7.11879L0.595947 7.11719Z" fill="#E54747"/>
<path d="M30.1699 14.8634C30.0992 14.9342 29.9812 15.0225 29.8163 15.1286C29.6511 15.2348 29.4361 15.3408 29.1709 15.447C28.9056 15.553 28.5813 15.6442 28.1983 15.7211C27.815 15.7975 27.3761 15.8359 26.881 15.8359C25.926 15.8359 25.1008 15.6826 24.4053 15.3763C23.7096 15.07 23.135 14.6423 22.6812 14.0943C22.2273 13.5461 21.8944 12.8978 21.6822 12.1491C21.47 11.4006 21.364 10.5784 21.364 9.68234C21.364 8.78665 21.4789 7.95831 21.7088 7.19797C21.9386 6.43756 22.2834 5.78061 22.7431 5.22629C23.2029 4.67237 23.7776 4.23908 24.4673 3.92658C25.1569 3.61444 25.9672 3.45801 26.8986 3.45801C27.3584 3.45801 27.7739 3.4994 28.1453 3.58177C28.5166 3.66432 28.8407 3.76166 29.1179 3.87355C29.3947 3.98573 29.6246 4.10338 29.8075 4.2272C29.9901 4.35097 30.1286 4.45436 30.2231 4.53661C30.3292 4.63116 30.4204 4.74305 30.4972 4.87257C30.5737 5.00245 30.6121 5.14391 30.6121 5.29702C30.6121 5.53296 30.5237 5.76862 30.3469 6.00433C30.1701 6.24028 29.9755 6.45835 29.7633 6.6586C29.6218 6.51714 29.4627 6.37295 29.2859 6.22543C29.109 6.07809 28.9115 5.94856 28.6935 5.83638C28.4752 5.72449 28.2277 5.63024 27.9508 5.55345C27.6737 5.4769 27.3643 5.43848 27.0225 5.43848C26.4213 5.43848 25.9173 5.55951 25.5106 5.80098C25.1039 6.04275 24.7767 6.35798 24.5292 6.74703C24.2817 7.13608 24.1048 7.58114 23.9987 8.08207C23.8926 8.58325 23.8396 9.09304 23.8396 9.61167C23.8396 10.1659 23.8926 10.6963 23.9987 11.203C24.1048 11.71 24.2874 12.1581 24.5469 12.5469C24.806 12.9359 25.1451 13.2484 25.5636 13.4841C25.9819 13.7201 26.5036 13.8378 27.1286 13.8378C27.4584 13.8378 27.7621 13.7966 28.0392 13.7141C28.316 13.6316 28.5608 13.5313 28.773 13.4133C28.9852 13.2957 29.1709 13.172 29.33 13.0422C29.4892 12.9125 29.6218 12.8006 29.7279 12.7061C29.7986 12.7888 29.881 12.8891 29.9754 13.0068C30.0704 13.1257 30.159 13.2497 30.2407 13.3781C30.323 13.5079 30.3938 13.6375 30.4529 13.767C30.5117 13.8969 30.5412 14.0146 30.5412 14.1206C30.5412 14.274 30.5117 14.4036 30.4529 14.5097C30.3937 14.6158 30.2995 14.7338 30.1699 14.8634V14.8634ZM39.2826 13.5072C39.2826 14.4442 39.4188 15.1261 39.6917 15.5531C39.4783 15.6359 39.2796 15.6953 39.0958 15.7309C38.9118 15.7665 38.7192 15.7842 38.5176 15.7842C38.0908 15.7842 37.7674 15.7012 37.5482 15.5352C37.3286 15.3693 37.1893 15.1321 37.1302 14.8236C36.8691 15.0967 36.5252 15.3278 36.0983 15.5176C35.6714 15.707 35.1494 15.8022 34.5329 15.8022C34.2127 15.8022 33.8925 15.7577 33.5723 15.6694C33.252 15.5803 32.9614 15.4357 32.7005 15.235C32.4395 15.0339 32.2261 14.7649 32.0601 14.4279C31.8939 14.091 31.8111 13.6802 31.8111 13.1956C31.8111 12.5927 31.9562 12.1019 32.2469 11.7238C32.5374 11.3453 32.9021 11.0469 33.341 10.8281C33.7797 10.6096 34.2541 10.4591 34.7642 10.3762C35.274 10.2933 35.7426 10.2403 36.1695 10.2164C36.3119 10.2047 36.4511 10.1985 36.5876 10.1985H36.97V9.87476C36.97 9.4189 36.8483 9.09506 36.6053 8.90329C36.3621 8.71147 35.9677 8.61532 35.4223 8.61532C34.9123 8.61532 34.4586 8.6984 34.0615 8.86433C33.664 9.03056 33.2756 9.22013 32.8963 9.43363C32.73 9.23206 32.5965 9.00977 32.496 8.76652C32.3952 8.52362 32.3448 8.34267 32.3448 8.22395C32.3448 8.05802 32.4365 7.89791 32.6205 7.74362C32.8043 7.58969 33.0564 7.45013 33.3766 7.32559C33.6969 7.20105 34.0643 7.10045 34.4796 7.02319C34.8946 6.94616 35.3334 6.90756 35.796 6.90756C36.4364 6.90756 36.979 6.97289 37.4237 7.10324C37.8684 7.2339 38.2301 7.4354 38.5088 7.70805C38.7874 7.98106 38.9861 8.32182 39.1047 8.73095C39.2232 9.14013 39.2827 9.61767 39.2827 10.163V13.5072H39.2826ZM37.0055 11.4437H36.7565C36.6733 11.4437 36.5903 11.4499 36.5075 11.4616C36.2108 11.4855 35.9173 11.521 35.6269 11.5682C35.3362 11.6158 35.0782 11.6988 34.8531 11.8173C34.6277 11.936 34.4439 12.0903 34.3016 12.2798C34.1593 12.4697 34.0881 12.7129 34.0881 13.0093C34.0881 13.3414 34.1829 13.6229 34.3727 13.8542C34.5623 14.0855 34.8825 14.2011 35.3334 14.2011C35.5585 14.2011 35.7721 14.1717 35.9738 14.112C36.1753 14.053 36.3532 13.9759 36.5075 13.881C36.6615 13.7861 36.7832 13.6824 36.8722 13.5695C36.9611 13.457 37.0056 13.3533 37.0056 13.2583V11.4437H37.0055ZM43.7119 7.93925C43.9009 7.71411 44.1967 7.48564 44.5985 7.25433C45.0005 7.02307 45.5088 6.90744 46.1237 6.90744C46.5613 6.90744 46.9779 6.98162 47.3741 7.12979C47.7699 7.2782 48.1217 7.51842 48.4291 7.85028C48.7366 8.18244 48.9819 8.62132 49.1652 9.16668C49.3485 9.71233 49.4402 10.3825 49.4402 11.1768C49.4402 12.1019 49.3336 12.8641 49.1209 13.4628C48.9079 14.0619 48.6332 14.5363 48.2965 14.886C47.9595 15.2359 47.5839 15.482 47.1703 15.6242C46.7565 15.7665 46.3426 15.8378 45.929 15.8378C45.5861 15.8378 45.2874 15.7992 45.0334 15.7222C44.7791 15.6449 44.5634 15.5592 44.3861 15.4642C44.2087 15.3694 44.0728 15.2747 43.9784 15.1795C43.8838 15.0847 43.8246 15.0194 43.801 14.9837V19.3568H41.3816V7.15645C41.4411 7.14481 41.5129 7.13288 41.5967 7.12094C41.6685 7.1093 41.7521 7.10033 41.8478 7.09422C41.9433 7.0884 42.0569 7.08537 42.1882 7.08537C42.5824 7.08537 42.917 7.15069 43.1919 7.28105C43.4667 7.4117 43.6402 7.63096 43.7119 7.93925V7.93925ZM46.914 11.2302C46.914 10.8744 46.8845 10.5426 46.8256 10.2341C46.7667 9.92583 46.6694 9.65894 46.5338 9.43357C46.3981 9.20837 46.2151 9.03329 45.9853 8.9087C45.7551 8.78422 45.4753 8.72204 45.1453 8.72204C44.65 8.72204 44.3051 8.81706 44.1104 9.00657C43.9159 9.19643 43.8187 9.40411 43.8187 9.62925V13.4006C43.9129 13.4956 44.0807 13.6081 44.3225 13.7386C44.5644 13.8692 44.8442 13.9342 45.1628 13.9342C45.7643 13.9342 46.2065 13.6972 46.4895 13.2227C46.7726 12.7484 46.914 12.0841 46.914 11.2302V11.2302ZM51.3074 14.2901C51.2243 14.053 51.171 13.8038 51.1473 13.5429C51.1234 13.2821 51.1117 13.0213 51.1117 12.76V4.50585C51.1946 4.49421 51.2836 4.48227 51.3786 4.47028C51.4613 4.45864 51.5503 4.44979 51.6453 4.44361C51.7402 4.43779 51.835 4.43476 51.9299 4.43476C52.1196 4.43476 52.3095 4.45258 52.4993 4.48809C52.6888 4.52373 52.8608 4.59487 53.0153 4.70153C53.1692 4.80825 53.2937 4.95369 53.3887 5.13738C53.4836 5.32137 53.531 5.56159 53.531 5.85782V7.12082H56.0216V8.91766H53.531V12.7112C53.531 13.5385 53.869 13.952 54.5451 13.952C54.7111 13.952 54.868 13.9254 55.0165 13.8719C55.1647 13.8186 55.2981 13.7594 55.4168 13.6941C55.5353 13.6289 55.6391 13.5607 55.7281 13.4895C55.8171 13.4183 55.8793 13.3651 55.9148 13.3295C56.0927 13.5905 56.2289 13.8165 56.324 14.0072C56.4188 14.1981 56.4663 14.3773 56.4663 14.5447C56.4663 14.7005 56.4042 14.8533 56.2795 15.0028C56.1549 15.1523 55.9798 15.2902 55.7546 15.4158C55.5293 15.5414 55.2567 15.6432 54.9364 15.721C54.6162 15.7989 54.2662 15.8378 53.8868 15.8378C53.1513 15.8378 52.5792 15.6954 52.1701 15.4109C51.761 15.1261 51.4732 14.7525 51.3074 14.2901V14.2901ZM62.1491 14.0588C62.4465 14.0588 62.7083 14.0263 62.9346 13.9609C63.1606 13.8959 63.3629 13.8158 63.5415 13.7209C63.7199 13.6261 63.8748 13.5223 64.0057 13.4096C64.1365 13.297 64.2555 13.1932 64.3629 13.0982C64.5055 13.276 64.6542 13.5045 64.809 13.783C64.9636 14.0619 65.0411 14.2901 65.0411 14.4679C65.0411 14.7289 64.8927 14.9661 64.5964 15.1795C64.3474 15.3694 63.9942 15.5325 63.538 15.6687C63.0812 15.8049 62.5445 15.8732 61.928 15.8732C61.3703 15.8732 60.8219 15.8022 60.2825 15.6598C59.7428 15.5176 59.2623 15.2684 58.8416 14.9126C58.4204 14.557 58.0794 14.0797 57.8186 13.4807C57.5577 12.8818 57.4272 12.1259 57.4272 11.2125C57.4272 10.4653 57.5429 9.82214 57.774 9.28237C58.0054 8.74283 58.3136 8.2951 58.6993 7.93931C59.0845 7.58351 59.5203 7.3228 60.0067 7.15651C60.4928 6.99064 60.9911 6.9075 61.5011 6.9075C62.1652 6.9075 62.7285 7.01149 63.191 7.21881C63.6536 7.42643 64.0299 7.7052 64.3206 8.05493C64.6111 8.40479 64.8215 8.80506 64.9521 9.2557C65.0824 9.70651 65.1478 10.1807 65.1478 10.6788V10.9278C65.1478 11.023 65.1448 11.1235 65.1389 11.2302C65.1328 11.3371 65.127 11.441 65.1212 11.5415C65.115 11.6426 65.1061 11.7225 65.0946 11.7818H59.8466C59.8942 12.4341 60.0964 12.9766 60.4534 13.4096C60.8102 13.8426 61.3755 14.0588 62.1491 14.0588V14.0588ZM62.9597 10.4475C62.9597 9.87826 62.8492 9.41575 62.6286 9.05996C62.4079 8.70422 62.0112 8.52624 61.439 8.52624C60.9497 8.52624 60.5591 8.69532 60.267 9.03329C59.9746 9.37133 59.8288 9.84269 59.8288 10.4474H62.9597V10.4475ZM69.3581 7.9842C69.4291 7.87837 69.5239 7.76079 69.6426 7.6312C69.7611 7.50174 69.9064 7.38409 70.0785 7.27826C70.2503 7.17237 70.4401 7.08394 70.6478 7.01339C70.855 6.94278 71.0775 6.9075 71.3149 6.9075C71.4572 6.9075 71.6084 6.91944 71.7685 6.94278C71.9286 6.96641 72.0767 7.0106 72.2131 7.07509C72.3494 7.13988 72.4593 7.22796 72.5423 7.33972C72.6252 7.45149 72.6669 7.58963 72.6669 7.75419C72.6669 8.01295 72.6015 8.31012 72.4712 8.64561C72.3405 8.98139 72.2103 9.2677 72.0799 9.50477C71.878 9.33878 71.6764 9.21128 71.4749 9.12232C71.2732 9.03341 71.036 8.98887 70.7633 8.98887C70.3957 8.98887 70.0874 9.09595 69.8384 9.30992C69.5892 9.52396 69.4647 9.77968 69.4647 10.077V15.8358H67.0455V7.15645C67.1046 7.14481 67.1758 7.13288 67.2589 7.12094C67.33 7.1093 67.413 7.10033 67.5079 7.09422C67.6028 7.0884 67.7153 7.08537 67.8459 7.08537C68.2253 7.08537 68.5544 7.15895 68.8332 7.30581C69.1117 7.4525 69.2869 7.67877 69.3581 7.9842V7.9842ZM76.2365 7.9842C76.3077 7.87837 76.4025 7.76079 76.5212 7.6312C76.6396 7.50174 76.785 7.38409 76.957 7.27826C77.1288 7.17237 77.3186 7.08394 77.5263 7.01339C77.7337 6.94278 77.956 6.9075 78.1934 6.9075C78.3356 6.9075 78.4868 6.91944 78.6469 6.94278C78.807 6.96641 78.9552 7.0106 79.0917 7.07509C79.228 7.13988 79.3376 7.22796 79.4209 7.33972C79.5037 7.45149 79.5454 7.58963 79.5454 7.75419C79.5454 8.01295 79.48 8.31012 79.3497 8.64561C79.219 8.98139 79.0887 9.2677 78.9583 9.50477C78.7566 9.33878 78.5549 9.21128 78.3534 9.12232C78.1517 9.03341 77.9146 8.98887 77.6419 8.98887C77.2742 8.98887 76.9659 9.09595 76.7169 9.30992C76.4678 9.52396 76.3433 9.77968 76.3433 10.077V15.8358H73.924V7.15645C73.9832 7.14481 74.0543 7.13288 74.1375 7.12094C74.2086 7.1093 74.2916 7.10033 74.3865 7.09422C74.4813 7.0884 74.5938 7.08537 74.7244 7.08537C75.104 7.08537 75.433 7.15895 75.7117 7.30581C75.9902 7.4525 76.1653 7.67877 76.2365 7.9842ZM87.7819 13.5072C87.7819 14.4442 87.9182 15.1261 88.1911 15.5531C87.9776 15.6359 87.7789 15.6953 87.5952 15.7309C87.4112 15.7665 87.2186 15.7842 87.0171 15.7842C86.59 15.7842 86.2668 15.7012 86.0476 15.5352C85.8279 15.3693 85.6887 15.1321 85.6294 14.8236C85.3685 15.0967 85.0246 15.3278 84.5977 15.5176C84.1708 15.707 83.6487 15.8022 83.0322 15.8022C82.712 15.8022 82.3919 15.7577 82.0715 15.6694C81.7514 15.5803 81.4605 15.4357 81.1999 15.235C80.9389 15.0339 80.7254 14.7649 80.5595 14.4279C80.3933 14.091 80.3105 13.6802 80.3105 13.1956C80.3105 12.5927 80.4555 12.1019 80.7463 11.7238C81.0368 11.3453 81.4015 11.0469 81.8404 10.8281C82.279 10.6096 82.7534 10.4591 83.2636 10.3762C83.7732 10.2933 84.2419 10.2403 84.6689 10.2164C84.8112 10.2047 84.9504 10.1985 85.087 10.1985H85.4694V9.87476C85.4694 9.4189 85.3476 9.09506 85.1047 8.90329C84.8613 8.71147 84.4671 8.61532 83.9216 8.61532C83.4117 8.61532 82.9581 8.6984 82.5608 8.86433C82.1633 9.03056 81.7751 9.22013 81.3956 9.43363C81.2295 9.23206 81.0958 9.00977 80.9953 8.76652C80.8945 8.52362 80.8442 8.34267 80.8442 8.22395C80.8442 8.05802 80.9359 7.89791 81.1199 7.74362C81.3036 7.58969 81.5557 7.45013 81.8759 7.32559C82.1962 7.20105 82.5636 7.10045 82.9788 7.02319C83.3939 6.94616 83.8327 6.90756 84.2953 6.90756C84.9356 6.90756 85.4783 6.97289 85.923 7.10324C86.3677 7.2339 86.7293 7.4354 87.0081 7.70805C87.2866 7.98106 87.4853 8.32182 87.6041 8.73095C87.7224 9.14013 87.7819 9.61767 87.7819 10.163V13.5072V13.5072ZM85.5049 11.4437H85.2559C85.1727 11.4437 85.0896 11.4499 85.0068 11.4616C84.7103 11.4855 84.4166 11.521 84.1262 11.5682C83.8355 11.6158 83.5776 11.6988 83.3524 11.8173C83.127 11.936 82.9432 12.0903 82.8009 12.2798C82.6586 12.4697 82.5874 12.7129 82.5874 13.0093C82.5874 13.3414 82.6823 13.6229 82.8721 13.8542C83.0617 14.0855 83.382 14.2011 83.8327 14.2011C84.0579 14.2011 84.2714 14.1717 84.4732 14.112C84.6747 14.053 84.8526 13.9759 85.0068 13.881C85.1607 13.7861 85.2826 13.6824 85.3715 13.5695C85.4604 13.457 85.5049 13.3533 85.5049 13.2583V11.4437H85.5049Z" fill="white"/>
</svg>
