<svg width="84" height="28" viewBox="0 0 84 28" fill="none" xmlns="http://www.w3.org/2000/svg">
<g clip-path="url(#clip0_7652:99543)">
<path d="M10.9205 0.00402832H11.6585C14.221 0.0616017 16.7416 1.12671 18.552 3.01224C17.8835 3.71751 17.2012 4.394 16.5466 5.09927C15.53 4.14931 14.3045 3.41525 12.9676 3.15617C10.9901 2.72437 8.85939 3.11299 7.20217 4.27885C5.39177 5.50229 4.16627 7.57493 3.90167 9.7915C3.60922 11.9793 4.20804 14.2822 5.58673 15.9806C6.90972 17.6359 8.92902 18.6722 11.0179 18.7442C12.9676 18.8593 15.0008 18.2404 16.4213 16.8298C17.5354 15.8367 18.0507 14.3254 18.2178 12.8573C15.906 12.8573 13.5943 12.8717 11.2825 12.8573V9.89225H21.0169C21.5183 13.0732 20.7941 16.6571 18.4545 18.9313C16.8948 20.5433 14.7362 21.4933 12.5359 21.6804C10.4052 21.8963 8.20486 21.4789 6.3109 20.4138C4.04093 19.1616 2.23053 17.0457 1.33925 14.5557C0.503681 12.2672 0.489755 9.67635 1.26962 7.37342C1.97986 5.27199 3.34462 3.41525 5.09932 2.11985C6.78439 0.838842 8.83153 0.133568 10.9205 0.00402832Z" fill="white"/>
<path d="M66.7646 0.750977H69.7449V21.3047C68.7561 21.3047 67.7534 21.3191 66.7646 21.2903C66.7786 14.4534 66.7646 7.60221 66.7646 0.750977Z" fill="white"/>
<path d="M27.6459 7.8756C29.4842 7.51577 31.4756 7.91878 32.9936 9.05586C34.3723 10.0634 35.3332 11.6467 35.6257 13.3739C36.0017 15.3745 35.5282 17.5623 34.2748 19.1456C32.924 20.916 30.7097 21.8659 28.5512 21.722C26.5736 21.6068 24.6518 20.5849 23.482 18.9153C22.159 17.0729 21.8387 14.5397 22.5629 12.3807C23.2871 10.0634 25.3342 8.29301 27.6459 7.8756ZM28.0637 10.6103C27.3117 10.8118 26.6154 11.258 26.1141 11.8913C24.7632 13.561 24.8468 16.2813 26.3369 17.8358C27.1864 18.7282 28.4676 19.1456 29.6513 18.9009C30.7515 18.6994 31.7124 17.9365 32.2416 16.929C33.1607 15.2162 32.8961 12.8557 31.4896 11.5171C30.5844 10.6535 29.2614 10.2937 28.0637 10.6103Z" fill="white"/>
<path d="M42.4082 7.87557C44.511 7.45816 46.8088 8.06268 48.3825 9.58837C50.9449 11.9633 51.2234 16.4108 49.037 19.1456C47.714 20.8728 45.5694 21.8227 43.4526 21.722C41.4333 21.6644 39.4419 20.6281 38.2442 18.9153C36.8934 17.0297 36.601 14.4389 37.3669 12.2367C38.1328 9.99139 40.1382 8.27858 42.4082 7.87557ZM42.826 10.6103C42.0739 10.8118 41.3776 11.258 40.8763 11.8769C39.5394 13.5178 39.5951 16.1949 41.0295 17.7638C41.879 18.6994 43.202 19.1599 44.4275 18.9009C45.5137 18.685 46.4885 17.9365 47.0177 16.929C47.9229 15.2018 47.6583 12.8413 46.2379 11.5027C45.3327 10.6391 44.0097 10.2936 42.826 10.6103Z" fill="white"/>
<path d="M54.9272 8.71046C56.5287 7.67414 58.6594 7.38627 60.3863 8.27866C60.9294 8.52335 61.375 8.94075 61.8067 9.35816C61.8207 8.96954 61.8067 8.56653 61.8207 8.16351C62.7537 8.17791 63.6868 8.16351 64.6338 8.17791V20.8728C64.6198 22.7872 64.1463 24.8166 62.8094 26.2128C61.3472 27.7529 59.1051 28.2278 57.0858 27.9112C54.9272 27.5801 53.0472 25.9537 52.2116 23.8954C53.0472 23.478 53.9245 23.147 54.788 22.7584C55.2754 23.9386 56.2641 24.9462 57.5036 25.1764C58.743 25.4067 60.1774 25.0901 60.9851 24.025C61.8485 22.9311 61.8485 21.4342 61.8067 20.0956C61.1661 20.7433 60.4281 21.319 59.5368 21.5349C57.601 22.0963 55.4703 21.4054 53.9802 20.0524C52.4762 18.6994 51.5849 16.6124 51.6685 14.5398C51.7103 12.1936 52.9915 9.93389 54.9272 8.71046ZM57.8099 10.5528C56.9604 10.6967 56.1666 11.1861 55.6235 11.8626C54.3145 13.4747 54.3145 16.0511 55.6374 17.6343C56.3895 18.5699 57.601 19.0881 58.7708 18.9585C59.871 18.8434 60.8876 18.1237 61.4307 17.1306C62.3499 15.4465 62.1967 13.158 60.9573 11.6899C60.1913 10.7831 58.9658 10.3369 57.8099 10.5528Z" fill="white"/>
<path d="M73.3244 9.44447C74.9955 7.83242 77.5719 7.28547 79.7165 8.13468C81.7497 8.92631 83.0449 10.927 83.6994 12.9852C80.6774 14.2806 77.6694 15.5616 74.6474 16.857C75.0652 17.6775 75.7058 18.4259 76.5692 18.7282C77.7808 19.1744 79.2291 19.016 80.2457 18.1812C80.6496 17.8646 80.9699 17.4472 81.2762 17.0442C82.0422 17.5767 82.8081 18.0949 83.5741 18.6274C82.4878 20.3114 80.6635 21.4917 78.6999 21.6788C76.5274 21.9523 74.2157 21.0887 72.8091 19.3327C70.4974 16.5692 70.7202 11.9345 73.3244 9.44447ZM74.8145 12.1072C74.341 12.8125 74.146 13.6761 74.16 14.5253C76.1793 13.6617 78.1986 12.7981 80.2178 11.9201C79.8836 11.1141 79.0759 10.6247 78.2543 10.4952C76.9313 10.2505 75.5526 10.9846 74.8145 12.1072Z" fill="white"/>
</g>
<defs>
<clipPath id="clip0_7652:99543">
<rect width="83" height="28" fill="white" transform="translate(0.699219)"/>
</clipPath>
</defs>
</svg>
