<svg width="67" height="23" viewBox="0 0 67 23" fill="none" xmlns="http://www.w3.org/2000/svg">
<g clip-path="url(#clip0_7689:96431)">
<path d="M8.24434 0.00292969H8.83967C10.9065 0.0493671 12.9395 0.908459 14.3998 2.42928C13.8606 2.99814 13.3102 3.54378 12.7823 4.11264C11.9623 3.34642 10.9739 2.75435 9.89553 2.54538C8.30051 2.1971 6.58193 2.51055 5.24525 3.45091C3.78502 4.4377 2.79656 6.10945 2.58314 7.89729C2.34726 9.66191 2.83026 11.5194 3.94228 12.8893C5.00937 14.2244 6.63809 15.0603 8.32297 15.1183C9.89553 15.2112 11.5355 14.712 12.6812 13.5743C13.5798 12.7732 13.9954 11.5542 14.1302 10.3701C12.2656 10.3701 10.401 10.3817 8.53639 10.3701V7.97855H16.3879C16.7923 10.5442 16.2082 13.435 14.3212 15.2692C13.0631 16.5695 11.3221 17.3357 9.54732 17.4866C7.82874 17.6608 6.054 17.3241 4.52637 16.465C2.69547 15.455 1.23524 13.7484 0.516353 11.74C-0.1576 9.8941 -0.168833 7.80441 0.46019 5.94692C1.03305 4.25195 2.13384 2.75435 3.54914 1.7095C4.90828 0.676272 6.55946 0.107414 8.24434 0.00292969Z" fill="#4E81ED"/>
<path d="M53.2872 0.605957H55.691V17.1841C54.8935 17.1841 54.0847 17.1957 53.2872 17.1725C53.2985 11.6581 53.2872 6.13201 53.2872 0.605957V0.605957Z" fill="#26BF5E"/>
<path d="M21.7349 6.35201C23.2176 6.06177 24.8238 6.38684 26.0482 7.30397C27.1602 8.11663 27.9352 9.39366 28.1711 10.7868C28.4744 12.4005 28.0925 14.1651 27.0816 15.4421C25.992 16.8701 24.206 17.6363 22.465 17.5202C20.87 17.4273 19.3199 16.6031 18.3763 15.2564C17.3092 13.7704 17.0509 11.7271 17.635 9.98573C18.2191 8.11663 19.8703 6.68868 21.7349 6.35201V6.35201ZM22.0718 8.55778C21.4653 8.72031 20.9037 9.0802 20.4993 9.59102C19.4097 10.9377 19.4771 13.1319 20.679 14.3857C21.3642 15.1055 22.3976 15.4421 23.3523 15.2448C24.2397 15.0822 25.0148 14.4669 25.4416 13.6543C26.183 12.2728 25.9695 10.3688 24.835 9.28917C24.1049 8.59261 23.0378 8.30238 22.0718 8.55778Z" fill="#E21639"/>
<path d="M33.6414 6.35237C35.3375 6.0157 37.1909 6.50329 38.4602 7.73389C40.527 9.64943 40.7516 13.2367 38.9881 15.4425C37.921 16.8356 36.1912 17.6018 34.4839 17.5206C32.8551 17.4741 31.2489 16.6383 30.2829 15.2567C29.1933 13.7359 28.9575 11.6462 29.5752 9.87001C30.193 8.05895 31.8105 6.67744 33.6414 6.35237V6.35237ZM33.9784 8.55815C33.3718 8.72068 32.8102 9.08057 32.4058 9.57977C31.3275 10.9032 31.3725 13.0626 32.5294 14.328C33.2146 15.0826 34.2817 15.4541 35.2701 15.2451C36.1463 15.071 36.9326 14.4673 37.3594 13.6547C38.0895 12.2615 37.8761 10.3576 36.7304 9.27793C36.0003 8.58137 34.9332 8.30274 33.9784 8.55815Z" fill="#F3C32B"/>
<path d="M43.7395 7.02608C45.0312 6.1902 46.7498 5.95802 48.1426 6.6778C48.5807 6.87516 48.9401 7.21183 49.2883 7.5485C49.2996 7.23505 49.2883 6.90998 49.2996 6.58492C50.0522 6.59653 50.8047 6.58492 51.5686 6.59653V16.836C51.5573 18.38 51.1754 20.0169 50.0971 21.1431C48.9177 22.3853 47.1092 22.7684 45.4805 22.513C43.7395 22.2459 42.2231 20.9341 41.5491 19.2739C42.2231 18.9373 42.9307 18.6703 43.6271 18.3568C44.0203 19.3088 44.8178 20.1214 45.8175 20.3072C46.8172 20.4929 47.9741 20.2375 48.6256 19.3784C49.322 18.4961 49.322 17.2887 49.2883 16.2091C48.7716 16.7315 48.1763 17.1959 47.4574 17.37C45.8961 17.8228 44.1775 17.2655 42.9756 16.1742C41.7625 15.083 41.0436 13.3996 41.111 11.7279C41.1447 9.83554 42.1781 8.01287 43.7395 7.02608V7.02608ZM46.0646 8.51207C45.3794 8.62817 44.7392 9.02289 44.3011 9.56853C43.2452 10.8688 43.2452 12.9468 44.3123 14.2239C44.9189 14.9785 45.8961 15.3964 46.8396 15.2919C47.727 15.1991 48.547 14.6186 48.9851 13.8175C49.7264 12.4593 49.6029 10.6134 48.6032 9.42921C47.9854 8.69782 46.9969 8.33793 46.0646 8.51207V8.51207Z" fill="#4E81ED"/>
<path d="M58.5777 7.61759C59.9256 6.31734 62.0037 5.87619 63.7335 6.56114C65.3734 7.19965 66.418 8.81335 66.946 10.4735C64.5085 11.5183 62.0823 12.5516 59.6448 13.5964C59.9818 14.2581 60.4985 14.8618 61.1949 15.1056C62.1721 15.4655 63.3403 15.3378 64.1603 14.6645C64.486 14.4091 64.7444 14.0724 64.9915 13.7473C65.6093 14.1769 66.2271 14.5948 66.8449 15.0244C65.9687 16.3826 64.4973 17.3346 62.9135 17.4855C61.1612 17.7061 59.2966 17.0096 58.1621 15.5932C56.2975 13.3642 56.4772 9.62601 58.5777 7.61759V7.61759ZM59.7796 9.76532C59.3977 10.3342 59.2404 11.0307 59.2517 11.7157C60.8804 11.0191 62.5091 10.3226 64.1378 9.6144C63.8683 8.96427 63.2168 8.56956 62.554 8.46507C61.487 8.26771 60.3749 8.85979 59.7796 9.76532V9.76532Z" fill="#E0173B"/>
</g>
<defs>
<clipPath id="clip0_7689:96431">
<rect width="66.946" height="22.5842" fill="white"/>
</clipPath>
</defs>
</svg>
