<svg width="147" height="48" viewBox="0 0 147 48" fill="none" xmlns="http://www.w3.org/2000/svg">
<mask id="mask0" mask-type="alpha" maskUnits="userSpaceOnUse" x="0" y="0" width="147" height="48">
<path d="M0 0H146.198V47.823H0V0Z" fill="white"/>
</mask>
<g mask="url(#mask0)">
<path fill-rule="evenodd" clip-rule="evenodd" d="M146.198 41.36C146.198 44.929 143.305 47.823 139.737 47.823H6.463C2.894 47.823 0 44.929 0 41.36V6.463C0 2.893 2.894 0 6.463 0H139.737C143.305 0 146.198 2.894 146.198 6.463V41.36Z" fill="#063148"/>
<mask id="mask1" mask-type="alpha" maskUnits="userSpaceOnUse" x="0" y="0" width="147" height="48">
<path d="M0 47.823H146.198V0H0V47.823Z" fill="white"/>
</mask>
<g mask="url(#mask1)">
<path fill-rule="evenodd" clip-rule="evenodd" d="M113.572 23.1802C112.61 23.1802 111.914 23.4472 111.484 23.9802C111.054 24.5122 110.834 25.3602 110.822 26.5232V26.8412C110.822 28.1642 111.042 29.1112 111.484 29.6812C111.925 30.2512 112.633 30.5362 113.606 30.5362C114.42 30.5362 115.058 30.2062 115.519 29.5482C115.98 28.8902 116.211 27.9812 116.211 26.8232C116.211 25.6502 115.981 24.7482 115.519 24.1212C115.058 23.4932 114.409 23.1802 113.572 23.1802ZM113.778 31.7302C113.165 31.7302 112.605 31.6172 112.098 31.3912C111.591 31.1652 111.166 30.8172 110.822 30.3472H110.719C110.788 30.8972 110.822 31.4192 110.822 31.9112V35.7862H109.396V22.1402H110.556L110.753 23.4302H110.822C111.189 22.9132 111.616 22.5412 112.102 22.3122C112.59 22.0822 113.149 21.9682 113.778 21.9682C115.028 21.9682 115.992 22.3952 116.67 23.2482C117.349 24.1032 117.689 25.3002 117.689 26.8412C117.689 28.3882 117.343 29.5892 116.654 30.4462C115.963 31.3022 115.004 31.7302 113.778 31.7302ZM119.565 31.5592H120.991V18.1872H119.565V31.5592ZM125.97 30.5532C126.858 30.5532 127.555 30.3102 128.063 29.8232C128.569 29.3362 128.823 28.6542 128.823 27.7772V26.9272L127.396 26.9872C126.262 27.0272 125.445 27.2032 124.943 27.5162C124.442 27.8282 124.191 28.3132 124.191 28.9722C124.191 29.4872 124.347 29.8802 124.659 30.1492C124.972 30.4192 125.409 30.5532 125.97 30.5532ZM129.192 31.5592L128.909 30.2182H128.84C128.37 30.8082 127.902 31.2082 127.435 31.4172C126.968 31.6272 126.385 31.7302 125.686 31.7302C124.753 31.7302 124.021 31.4902 123.491 31.0092C122.961 30.5272 122.696 29.8432 122.696 28.9552C122.696 27.0532 124.217 26.0572 127.259 25.9652L128.858 25.9132V25.3292C128.858 24.5892 128.698 24.0432 128.38 23.6922C128.063 23.3392 127.554 23.1632 126.855 23.1632C126.07 23.1632 125.182 23.4032 124.191 23.8852L123.753 22.7932C124.217 22.5412 124.725 22.3432 125.278 22.2002C125.831 22.0572 126.385 21.9852 126.941 21.9852C128.064 21.9852 128.896 22.2352 129.438 22.7332C129.978 23.2322 130.25 24.0312 130.25 25.1312V31.5592H129.192ZM131.078 22.1402H132.607L134.669 27.5112C135.122 28.7372 135.403 29.6222 135.512 30.1672H135.581C135.655 29.8742 135.811 29.3752 136.049 28.6672C136.287 27.9592 137.064 25.7842 138.382 22.1402H139.912L135.864 32.8652C135.464 33.9252 134.994 34.6772 134.458 35.1212C133.923 35.5652 133.265 35.7862 132.488 35.7862C132.051 35.7862 131.622 35.7382 131.198 35.6412V34.4982C131.512 34.5672 131.865 34.6012 132.255 34.6012C133.235 34.6012 133.933 34.0512 134.352 32.9512L134.875 31.6112L131.078 22.1412V22.1402ZM86.5262 28.0192C86.9782 27.5652 87.0172 26.9362 87.0172 26.5812C87.0172 25.1632 86.1712 22.9562 84.5362 22.9562C84.0232 22.9562 83.4722 23.2122 83.1562 23.6062C82.8222 24.0202 82.7232 24.5522 82.7232 25.0642C82.7232 26.3842 83.4912 28.5712 85.1862 28.5712C85.6792 28.5712 86.2092 28.3352 86.5262 28.0192ZM85.9542 31.7632C85.7972 31.7422 85.6982 31.7422 85.5022 31.7422C85.3252 31.7422 84.2592 31.7822 83.4322 32.0592C83.0002 32.2152 81.7382 32.6882 81.7382 34.0872C81.7382 35.4852 83.0982 36.4912 85.2062 36.4912C87.0962 36.4912 88.1022 35.5832 88.1022 34.3632C88.1022 33.3562 87.4522 32.8262 85.9542 31.7632ZM87.3542 23.0152C87.8062 23.3902 88.7512 24.1772 88.7512 25.6752C88.7512 27.1322 87.9242 27.8232 87.0962 28.4722C86.8402 28.7282 86.5452 29.0052 86.5452 29.4382C86.5452 29.8712 86.8402 30.1082 87.0582 30.2852L87.7682 30.8352C88.6342 31.5652 89.4212 32.2352 89.4212 33.5952C89.4212 35.4462 87.6282 37.3172 84.2412 37.3172C81.3842 37.3172 80.0052 35.9582 80.0052 34.5002C80.0052 33.7902 80.3582 32.7872 81.5222 32.0962C82.7422 31.3482 84.3992 31.2502 85.2842 31.1902C85.0082 30.8362 84.6942 30.4612 84.6942 29.8512C84.6942 29.5172 84.7922 29.3202 84.8902 29.0822C84.6732 29.1022 84.4572 29.1222 84.2602 29.1222C82.1722 29.1222 80.9902 27.5652 80.9902 26.0302C80.9902 25.1232 81.4042 24.1182 82.2502 23.3902C83.3732 22.4642 84.7132 22.3062 85.7782 22.3062H89.8352L88.5742 23.0162H87.3542V23.0152ZM77.4102 29.8542C77.8822 29.2242 78.0002 28.4382 78.0002 27.6702C78.0002 25.9402 77.1742 22.6352 74.7352 22.6352C74.0872 22.6352 73.4372 22.8922 72.9652 23.3052C72.1992 23.9932 72.0602 24.8582 72.0602 25.7052C72.0602 27.6512 73.0242 30.8552 75.4042 30.8552C76.1712 30.8552 76.9582 30.4832 77.4092 29.8552L77.4102 29.8542ZM74.9512 31.4472C71.8242 31.4472 70.1532 29.0082 70.1532 26.8052C70.1532 24.2282 72.2572 22.0262 75.2482 22.0262C78.1382 22.0262 79.9472 24.2872 79.9472 26.6682C79.9472 28.9882 78.1572 31.4472 74.9512 31.4472ZM66.7502 29.8542C67.2222 29.2242 67.3402 28.4382 67.3402 27.6702C67.3402 25.9402 66.5142 22.6352 64.0752 22.6352C63.4262 22.6352 62.7772 22.8922 62.3052 23.3052C61.5382 23.9932 61.4002 24.8582 61.4002 25.7052C61.4002 27.6512 62.3632 30.8552 64.7442 30.8552C65.5112 30.8552 66.2982 30.4832 66.7502 29.8552V29.8542ZM64.2912 31.4472C61.1642 31.4472 59.4912 29.0082 59.4912 26.8052C59.4912 24.2282 61.5972 22.0262 64.5872 22.0262C67.4772 22.0262 69.2872 24.2872 69.2872 26.6682C69.2872 28.9882 67.4972 31.4472 64.2912 31.4472ZM57.9902 31.1392L55.1612 31.7912C54.0142 31.9702 52.9862 32.1272 51.8992 32.1272C46.4412 32.1272 44.3652 28.1122 44.3652 24.9682C44.3652 21.1332 47.3112 17.5742 52.3552 17.5742C53.4222 17.5742 54.4502 17.7322 55.3792 17.9892C56.8622 18.4052 57.5542 18.9192 57.9892 19.2152L56.3482 20.7772L55.6562 20.9352L56.1502 20.1442C55.4782 19.4922 54.2512 18.2862 51.9192 18.2862C48.7942 18.2862 46.4412 20.6602 46.4412 24.1202C46.4412 27.8362 49.1312 31.3362 53.4412 31.3362C54.7072 31.3362 55.3592 31.0792 55.9522 30.8422V27.6592L52.9672 27.8172L54.5482 26.9652H58.7402L58.2272 27.4602C58.0872 27.5792 58.0682 27.6192 58.0292 27.7752C58.0082 27.9542 57.9892 28.5282 57.9892 28.7252V31.1392H57.9902Z" fill="#F6F6F6"/>
<path fill-rule="evenodd" clip-rule="evenodd" d="M93.6028 30.5688C92.9498 30.5098 92.8128 30.3918 92.8128 29.6188V18.4288C92.8178 18.3868 92.8198 18.3428 92.8238 18.3018C92.9038 17.6098 93.1008 17.4918 93.7148 17.1348H90.8858L89.4028 17.8468H90.9148V17.8558L90.9138 17.8488V30.0558C90.9138 30.4508 90.8348 30.5108 90.3798 31.1038H93.8798L94.6118 30.6698C94.2758 30.6288 93.9398 30.6098 93.6028 30.5698V30.5688ZM99.8038 24.8988C100.176 24.7618 100.373 24.6428 100.373 24.3688C100.373 23.5838 99.4898 22.6788 98.4288 22.6788C97.6418 22.6788 96.1698 23.2888 96.1698 25.4088C96.1698 25.7428 96.2098 26.0958 96.2298 26.4508L99.8038 24.8988ZM101.649 30.7508C101.434 30.8688 101.218 31.0068 101.002 31.1048C100.353 31.3988 99.6858 31.4778 99.0958 31.4778C98.4688 31.4778 97.4858 31.4378 96.4838 30.7118C95.0908 29.7288 94.4818 28.0398 94.4818 26.5678C94.4818 23.5248 96.9558 22.0328 98.9788 22.0328C99.6858 22.0328 100.413 22.2088 101.002 22.5828C101.983 23.2288 102.239 24.0728 102.375 24.5258L97.7618 26.3918L96.2488 26.5098C96.7388 29.0028 98.4288 30.4548 100.295 30.4548C101.296 30.4548 102.023 30.1028 102.69 29.7688L101.65 30.7508H101.649ZM103.545 22.1668V23.4618H103.387V22.1668H102.958V22.0318H103.973V22.1668H103.545ZM105.311 23.4618V22.1548H105.304L104.905 23.4618H104.781L104.379 22.1548H104.374V23.4618H104.231V22.0318H104.476L104.841 23.1878H104.845L105.204 22.0318H105.453V23.4618H105.311Z" fill="#F6F6F6"/>
<path fill-rule="evenodd" clip-rule="evenodd" d="M46.8739 11.9888C46.5239 10.9328 46.3489 10.3618 46.3489 10.2758H46.2989C46.2989 10.3558 46.1189 10.9258 45.7569 11.9888H46.8739ZM48.2929 13.7238H47.3099C47.3099 13.5888 47.2169 13.2058 47.0299 12.5758H45.6119C45.4199 13.1958 45.3239 13.5788 45.3239 13.7238H44.3989C44.3989 13.6438 44.6389 12.9888 45.1159 11.7588C45.5939 10.5288 45.8329 9.85079 45.8329 9.72579H46.9929C46.9929 9.84279 47.2099 10.5108 47.6429 11.7298C48.0759 12.9478 48.2929 13.6138 48.2929 13.7238ZM52.2519 13.7238H51.4939C51.4939 13.6398 51.2119 13.1968 50.6489 12.3938C50.0589 11.5488 49.7239 10.9708 49.6419 10.6598H49.5919C49.6439 11.1078 49.6699 11.5128 49.6699 11.8758C49.6699 12.3808 49.6839 12.9968 49.7129 13.7238H48.9569C48.9879 13.0888 49.0029 12.3928 49.0029 11.6338C49.0029 10.8858 48.9879 10.2498 48.9569 9.72579H49.8689C49.8689 9.83479 50.1219 10.2678 50.6279 11.0258C51.1659 11.8288 51.4749 12.3748 51.5549 12.6618H51.6009C51.5519 12.2048 51.5269 11.7958 51.5269 11.4328C51.5269 10.8788 51.5129 10.3098 51.4839 9.72579H52.2519C52.2229 10.2338 52.2089 10.8698 52.2089 11.6328C52.2089 12.4028 52.2229 13.0988 52.2519 13.7238ZM55.8639 11.7188C55.8639 11.3258 55.7489 10.9948 55.5199 10.7248C55.2909 10.4558 54.9399 10.3218 54.4699 10.3218C54.3819 10.3218 54.2609 10.3318 54.1079 10.3498C54.1279 10.7598 54.1379 11.1868 54.1379 11.6328C54.1379 12.1228 54.1479 12.6068 54.1689 13.0878C54.3019 13.1148 54.4349 13.1278 54.5689 13.1278C55.0089 13.1278 55.3339 12.9908 55.5459 12.7178C55.7579 12.4448 55.8639 12.1118 55.8639 11.7188ZM56.7019 11.5868C56.7019 12.1678 56.5159 12.6758 56.1439 13.1098C55.7709 13.5438 55.2489 13.7608 54.5779 13.7608C54.2749 13.7608 53.8569 13.7488 53.3249 13.7238C53.3509 13.1058 53.3649 12.4088 53.3649 11.6328C53.3649 10.8878 53.3509 10.2528 53.3249 9.72579H53.8619C53.9499 9.72579 54.0819 9.72279 54.2549 9.71679C54.4289 9.71079 54.5429 9.70679 54.5949 9.70679C55.3349 9.70679 55.8709 9.89179 56.2029 10.2598C56.5359 10.6298 56.7029 11.0708 56.7029 11.5868H56.7019ZM59.6539 10.8988C59.6539 10.4918 59.3919 10.2888 58.8679 10.2888C58.6759 10.2888 58.5059 10.3018 58.3579 10.3308C58.3809 10.6478 58.3919 11.0608 58.3919 11.5708C58.5049 11.5758 58.5999 11.5778 58.6779 11.5778C59.3279 11.5778 59.6539 11.3518 59.6539 10.8988ZM60.8059 13.7238H59.8969C59.6599 12.9988 59.4769 12.5518 59.3509 12.3818C59.2229 12.2118 59.0189 12.1268 58.7359 12.1268C58.6179 12.1268 58.5039 12.1288 58.3959 12.1308C58.3959 12.6558 58.4049 13.1878 58.4229 13.7238H57.5699C57.5959 13.1058 57.6099 12.4088 57.6099 11.6328C57.6099 10.8878 57.5959 10.2528 57.5699 9.72579H58.0999C58.1619 9.72579 58.2899 9.72279 58.4859 9.71679C58.6809 9.71079 58.8619 9.70679 59.0279 9.70679C59.9679 9.70679 60.4379 10.0288 60.4379 10.6718C60.4379 11.1818 60.1689 11.5368 59.6329 11.7378V11.7838C59.8399 11.8408 60.0209 12.0018 60.1759 12.2668C60.3319 12.5318 60.5419 13.0168 60.8059 13.7238ZM64.3599 11.7398C64.3599 11.3128 64.2499 10.9658 64.0309 10.6998C63.8119 10.4338 63.5419 10.2998 63.2209 10.2998C62.9209 10.2998 62.6679 10.4338 62.4589 10.7028C62.2499 10.9708 62.1459 11.3088 62.1459 11.7188C62.1459 12.1448 62.2559 12.4908 62.4759 12.7588C62.6959 13.0248 62.9659 13.1588 63.2859 13.1588C63.5839 13.1588 63.8379 13.0238 64.0459 12.7548C64.2559 12.4848 64.3599 12.1478 64.3599 11.7398ZM65.2069 11.6508C65.2069 12.2798 65.0149 12.8008 64.6299 13.2138C64.2449 13.6278 63.7699 13.8338 63.2019 13.8338C62.6619 13.8338 62.2089 13.6438 61.8449 13.2638C61.4809 12.8848 61.2989 12.4018 61.2989 11.8168C61.2989 11.1888 61.4909 10.6668 61.8759 10.2538C62.2609 9.84079 62.7359 9.63379 63.3039 9.63379C63.8439 9.63379 64.2959 9.82379 64.6609 10.2018C65.0249 10.5808 65.2069 11.0638 65.2069 11.6518V11.6508ZM66.9429 13.7238H66.0739C66.1009 13.0888 66.1139 12.3928 66.1139 11.6338C66.1139 10.8858 66.1009 10.2498 66.0739 9.72579H66.9439C66.9169 10.2418 66.9039 10.8778 66.9039 11.6328C66.9039 12.4048 66.9169 13.1018 66.9439 13.7238H66.9429ZM70.5559 11.7188C70.5559 11.3258 70.4409 10.9948 70.2119 10.7248C69.9819 10.4558 69.6319 10.3218 69.1619 10.3218C69.0739 10.3218 68.9519 10.3318 68.7989 10.3498C68.8189 10.7598 68.8299 11.1868 68.8299 11.6328C68.8299 12.1228 68.8399 12.6068 68.8599 13.0878C68.9939 13.1148 69.1269 13.1278 69.2599 13.1278C69.6999 13.1278 70.0259 12.9908 70.2379 12.7178C70.4499 12.4448 70.5559 12.1118 70.5559 11.7188ZM71.3939 11.5868C71.3939 12.1678 71.2079 12.6758 70.8349 13.1098C70.4619 13.5438 69.9409 13.7608 69.2689 13.7608C68.9659 13.7608 68.5489 13.7488 68.0159 13.7238C68.0429 13.1058 68.0559 12.4088 68.0559 11.6328C68.0559 10.8878 68.0429 10.2528 68.0159 9.72579H68.5539C68.6419 9.72579 68.7729 9.72279 68.9469 9.71679C69.1199 9.71079 69.2339 9.70679 69.2869 9.70679C70.0269 9.70679 70.5619 9.89179 70.8949 10.2598C71.2279 10.6298 71.3939 11.0708 71.3939 11.5868ZM75.8799 11.9888C75.5299 10.9328 75.3539 10.3618 75.3539 10.2758H75.3039C75.3039 10.3558 75.1239 10.9258 74.7619 11.9888H75.8789H75.8799ZM77.2979 13.7238H76.3149C76.3149 13.5888 76.2219 13.2058 76.0349 12.5758H74.6169C74.4249 13.1958 74.3279 13.5788 74.3279 13.7238H73.4049C73.4049 13.6438 73.6439 12.9888 74.1219 11.7588C74.5989 10.5288 74.8379 9.85079 74.8379 9.72579H75.9979C75.9979 9.84279 76.2159 10.5108 76.6479 11.7298C77.0809 12.9478 77.2979 13.6138 77.2979 13.7238ZM80.0869 10.9428C80.0869 10.5038 79.7969 10.2848 79.2149 10.2848C79.0699 10.2848 78.9159 10.2998 78.7549 10.3308C78.7769 10.7178 78.7889 11.1558 78.7889 11.6448C78.8389 11.6498 78.8989 11.6508 78.9669 11.6508C79.7139 11.6508 80.0869 11.4148 80.0869 10.9418V10.9428ZM80.8789 10.7728C80.8789 11.2628 80.6979 11.6228 80.3339 11.8568C79.9709 12.0908 79.5249 12.2068 78.9969 12.2068C78.9009 12.2068 78.8329 12.2048 78.7919 12.2008C78.7919 12.5858 78.8019 13.0928 78.8249 13.7238H77.9619C77.9889 13.1318 78.0019 12.4358 78.0019 11.6328C78.0019 10.8958 77.9889 10.2598 77.9619 9.72579H78.4969C78.5719 9.72579 78.7169 9.72279 78.9329 9.71679C79.1479 9.71079 79.3329 9.70679 79.4919 9.70679C79.8799 9.70679 80.2089 9.79579 80.4769 9.97179C80.7459 10.1478 80.8789 10.4148 80.8789 10.7728ZM83.7699 10.9428C83.7699 10.5038 83.4799 10.2848 82.8979 10.2848C82.7519 10.2848 82.5979 10.2998 82.4379 10.3308C82.4599 10.7178 82.4709 11.1558 82.4709 11.6448C82.5219 11.6498 82.5809 11.6508 82.6489 11.6508C83.3959 11.6508 83.7699 11.4148 83.7699 10.9418V10.9428ZM84.5619 10.7728C84.5619 11.2628 84.3809 11.6228 84.0169 11.8568C83.6539 12.0908 83.2079 12.2068 82.6799 12.2068C82.5839 12.2068 82.5149 12.2048 82.4739 12.2008C82.4739 12.5858 82.4849 13.0928 82.5079 13.7238H81.6449C81.6719 13.1318 81.6849 12.4358 81.6849 11.6328C81.6849 10.8958 81.6719 10.2598 81.6449 9.72579H82.1799C82.2549 9.72579 82.3999 9.72279 82.6149 9.71679C82.8299 9.71079 83.0169 9.70679 83.1749 9.70679C83.5629 9.70679 83.8919 9.79579 84.1599 9.97179C84.4279 10.1478 84.5619 10.4148 84.5619 10.7728ZM89.7359 11.7398C89.7359 11.3128 89.6259 10.9658 89.4069 10.6998C89.1869 10.4338 88.9169 10.2998 88.5969 10.2998C88.2969 10.2998 88.0439 10.4338 87.8349 10.7028C87.6259 10.9708 87.5219 11.3088 87.5219 11.7188C87.5219 12.1448 87.6319 12.4908 87.8519 12.7588C88.0719 13.0248 88.3419 13.1588 88.6609 13.1588C88.9599 13.1588 89.2139 13.0238 89.4219 12.7548C89.6319 12.4848 89.7359 12.1478 89.7359 11.7398ZM90.5829 11.6508C90.5829 12.2798 90.3909 12.8008 90.0059 13.2138C89.6209 13.6278 89.1459 13.8338 88.5779 13.8338C88.0379 13.8338 87.5849 13.6438 87.2209 13.2638C86.8569 12.8848 86.6739 12.4018 86.6739 11.8168C86.6739 11.1888 86.8669 10.6668 87.2519 10.2538C87.6359 9.84079 88.1119 9.63379 88.6789 9.63379C89.2189 9.63379 89.6719 9.82379 90.0369 10.2018C90.4009 10.5808 90.5829 11.0638 90.5829 11.6518V11.6508ZM94.7449 13.7238H93.9869C93.9869 13.6398 93.7049 13.1968 93.1419 12.3938C92.5519 11.5488 92.2169 10.9708 92.1349 10.6598H92.0849C92.1369 11.1078 92.1629 11.5128 92.1629 11.8758C92.1629 12.3808 92.1769 12.9968 92.2059 13.7238H91.4499C91.4809 13.0888 91.4959 12.3928 91.4959 11.6338C91.4959 10.8858 91.4809 10.2498 91.4499 9.72579H92.3619C92.3619 9.83479 92.6149 10.2678 93.1209 11.0258C93.6589 11.8288 93.9679 12.3748 94.0479 12.6618H94.0939C94.0439 12.2048 94.0199 11.7958 94.0199 11.4328C94.0199 10.8788 94.0059 10.3098 93.9769 9.72579H94.7449C94.7159 10.2338 94.7019 10.8698 94.7019 11.6328C94.7019 12.4028 94.7159 13.0988 94.7449 13.7238Z" fill="#F8F8F9"/>
</g>
<path fill-rule="evenodd" clip-rule="evenodd" d="M10.602 10.0637C10.236 10.4497 10.02 11.0507 10.02 11.8327V39.6807C10.02 40.4617 10.237 41.0627 10.603 41.4507L10.695 41.5417L26.297 25.9417V25.5727L10.694 9.9707L10.602 10.0637Z" fill="#03D5FF"/>
<path fill-rule="evenodd" clip-rule="evenodd" d="M26.2959 25.5721V25.9411L31.4959 31.1431L31.6159 31.0771L37.7759 27.5741C39.5359 26.5751 39.5359 24.9381 37.7759 23.9381L31.6159 20.4381L31.4969 20.3711L26.2969 25.5711L26.2959 25.5721Z" fill="#FFCD00"/>
<path fill-rule="evenodd" clip-rule="evenodd" d="M10.6021 41.4508C10.9051 41.7708 11.3121 41.9448 11.7831 41.9508H11.8361C12.2561 41.9448 12.7241 41.8088 13.2191 41.5288L31.6161 31.0768L26.2961 25.7568L10.6021 41.4508Z" fill="url(#paint0_linear)"/>
<path fill-rule="evenodd" clip-rule="evenodd" d="M10.6021 10.0635L26.2961 25.7575L31.6161 20.4375L13.2191 9.98352C12.7131 9.69752 12.2331 9.56152 11.8071 9.56152C11.3251 9.56152 10.9101 9.73652 10.6021 10.0635Z" fill="#00F076"/>
</g>
<defs>
<linearGradient id="paint0_linear" x1="28.7252" y1="30.7611" x2="5.88562" y2="53.6016" gradientUnits="userSpaceOnUse">
<stop stop-color="#FF3A44"/>
<stop offset="1" stop-color="#C31162"/>
</linearGradient>
</defs>
</svg>
