<?xml version="1.0" encoding="UTF-8"?>
<svg width="381px" height="32px" viewBox="0 0 381 32" version="1.1" xmlns="http://www.w3.org/2000/svg" xmlns:xlink="http://www.w3.org/1999/xlink">
    <!-- Generator: Sketch 54.1 (76490) - https://sketchapp.com -->
    <title>logo-wsj</title>
    <desc>Created with Sketch.</desc>
    <g id="Page-1" stroke="none" stroke-width="1" fill="none" fill-rule="evenodd">
        <g id="Artboard" transform="translate(-812.000000, -267.000000)" fill="#2E2E2E" fill-rule="nonzero">
            <g id="logo-wsj" transform="translate(812.000000, 267.000000)">
                <path d="M378.967745,27.6048478 C377.859623,27.6048478 376.93549,28.5208252 376.93549,29.7571283 C376.93549,30.9928393 377.859623,31.9088167 378.967745,31.9088167 C380.075868,31.9088167 381,30.9928393 381,29.7571283 C381,28.5208252 380.075868,27.6048478 378.967745,27.6048478 L378.967745,27.6048478 Z M305.437394,31.7708576 L314.766531,31.7708576 L314.766531,30.9472477 L313.751599,30.7181053 C312.827466,30.4889629 312.411099,29.9856786 312.411099,28.7031918 L312.411099,16.2519382 L314.582541,16.2519382 C315.921846,16.2519382 316.614796,16.5722639 316.706791,19.3651957 L316.937974,25.2246091 C317.122561,30.4889629 318.647051,31.9544084 321.234263,31.9544084 C323.866278,31.9544084 324.559228,30.1686372 324.559228,27.6510315 L324.559228,26.5976871 L323.588501,26.5976871 L323.588501,27.3757054 C323.588501,29.0702933 323.358513,30.2604126 322.710963,30.2604126 C322.111203,30.2604126 322.064608,29.80272 321.926018,27.6966232 L321.649436,23.6685725 C321.279663,18.2662596 320.586714,16.3893052 316.568201,15.6562864 C320.402126,14.6497178 322.757558,11.856786 322.757558,7.87373485 C322.757558,2.70056434 318.647051,0.228550282 314.721131,0.228550282 L298.971455,0.228550282 L298.971455,1.05275234 L299.848992,1.23571098 C301.511475,1.60222037 301.558069,2.47201406 301.558069,6.18033121 L301.558069,24.4004071 C301.558069,28.4752336 300.402755,30.4433713 297.769545,30.4433713 C295.415307,30.4433713 294.121403,29.2988436 294.121403,24.8580997 L294.121403,3.20444074 C294.121403,1.92254603 294.536575,1.55662874 295.552703,1.32748635 L296.800012,1.05275234 L296.800012,0.228550282 L287.147698,0.228550282 L287.147698,1.05275234 L288.162631,1.32748635 C289.086763,1.60222037 289.40994,1.96872976 289.40994,3.25003238 L289.40994,24.5377741 C289.40994,29.3444352 292.227738,32 296.52343,32 C300.818525,32 302.942775,29.3444352 302.942775,24.4004071 L302.942775,4.5319271 C302.942775,2.05991304 303.451734,1.19011934 305.482795,1.19011934 C307.099877,1.19011934 307.793424,1.73958738 307.793424,3.25003238 L307.793424,28.7031918 C307.793424,29.9856786 307.377654,30.4433713 306.453522,30.6725136 L305.437394,30.9472477 L305.437394,31.7708576 L305.437394,31.7708576 Z M367.420571,3.25003238 C367.420571,1.96872976 367.836938,1.55662874 368.759876,1.37307799 L370.007186,1.09834397 L370.007186,0.228550282 L360.400271,0.228550282 L360.400271,1.05275234 L361.416399,1.32748635 C362.340531,1.60222037 362.755704,1.96872976 362.755704,3.25003238 L362.755704,28.8873346 C362.755704,30.1230456 362.248536,30.8098807 360.815444,30.8098807 C359.152961,30.8098807 358.921779,30.2604126 358.322019,27.5598483 L352.410439,0.137367009 L350.562174,0.137367009 L344.928372,26.6894625 C344.280822,29.6647608 343.957645,30.352188 342.710335,30.7181053 L341.924792,30.9472477 L341.924792,31.7708576 L348.529919,31.7708576 L348.529919,30.9472477 L347.560387,30.7636969 C346.174487,30.4889629 345.805312,29.7571283 346.498262,26.2773615 L349.823824,9.29299658 L353.471967,27.2845222 C354.026327,29.8939032 353.980926,30.3977796 351.994072,30.7636969 L351.024539,30.9472477 L351.024539,31.7708576 L375.503593,31.7708576 L375.503593,21.3333333 L374.626055,21.3333333 C374.164288,26.1399944 373.194755,30.6725136 369.268836,30.6725136 L367.420571,30.6725136 L367.420571,3.25003238 L367.420571,3.25003238 Z M353.010199,23.2558794 L353.010199,22.0201684 L346.774845,22.0201684 L346.590854,23.2558794 L353.010199,23.2558794 Z M327.237838,3.79950042 L327.237838,25.6823018 C327.237838,28.9785179 327.237838,30.5351466 325.575356,30.8098807 L324.743816,30.9472477 L324.743816,31.7708576 L331.532933,31.7708576 L331.532933,30.9472477 C328.577143,30.5351466 328.577143,29.5279859 328.577143,25.9570358 L328.577143,5.17317051 L327.469021,4.16600981 L338.785012,31.7708576 L340.724077,31.7708576 L340.724077,6.31769821 C340.724077,2.56378943 340.724077,1.73958738 342.572342,1.23571098 L343.218697,1.05275234 L343.218697,0.228550282 L336.243798,0.228550282 L336.243798,1.05275234 L337.02934,1.23571098 C339.384772,1.64781201 339.384772,2.56378943 339.384772,6.0429642 L339.384772,21.9739846 L339.847137,21.8366176 L331.25635,0.228550282 L324.651223,0.228550282 L324.651223,1.05275234 L325.297578,1.23571098 C326.037721,1.46485336 326.452893,2.28905542 327.237838,3.79950042 L327.237838,3.79950042 Z M312.411099,1.32748635 L314.259364,1.32748635 C316.106434,1.32748635 317.815511,2.5176057 317.815511,8.46938662 C317.815511,14.5579425 316.522801,15.1530021 313.936186,15.1530021 L312.411099,15.1530021 L312.411099,1.32748635 Z M281.651291,15.7024702 C281.651291,28.9323342 280.542571,30.8098807 278.140543,30.8098807 C275.739114,30.8098807 274.676391,28.9323342 274.676391,15.7936534 C274.676391,3.06707373 275.831706,1.23571098 278.140543,1.23571098 C280.542571,1.23571098 281.651291,3.06707373 281.651291,15.7024702 L281.651291,15.7024702 Z M286.68593,15.9772042 C286.68593,7.23308354 283.868133,0 278.140543,0 C272.367554,0 269.641752,7.23308354 269.641752,15.9772042 C269.641752,24.7669165 272.459549,32 278.140543,32 C284.006723,32 286.68593,24.7669165 286.68593,15.9772042 L286.68593,15.9772042 Z M266.917741,3.25003238 C266.917741,1.96872976 267.240919,1.55662874 268.163857,1.32748635 L269.179984,1.05275234 L269.179984,0.228550282 L259.619664,0.228550282 L259.619664,1.05275234 L260.773785,1.32748635 C261.69732,1.55662874 262.206279,1.87695439 262.206279,3.20444074 L262.206279,25.2246091 C262.206279,28.2916829 261.928502,30.7636969 259.619664,30.7636969 C258.141172,30.7636969 257.03305,29.6191692 257.079645,28.7955593 C257.21704,27.3757054 259.619664,27.4680729 259.804252,25.1784254 C259.942842,23.5306134 258.88012,22.8437783 257.910587,22.7070034 C256.47869,22.5234527 254.724212,23.713572 254.67702,26.0944028 C254.630425,29.1614765 256.663277,31.9544084 260.12743,31.9544084 C263.961354,31.9544084 266.917741,29.3906189 266.917741,24.4915903 L266.917741,3.25003238 L266.917741,3.25003238 Z M112.650958,3.25003238 C112.650958,1.96872976 113.066728,1.55662874 113.990263,1.37307799 L115.237573,1.09834397 L115.237573,0.228550282 L105.630658,0.228550282 L105.630658,1.05275234 L106.646786,1.32748635 C107.570321,1.60222037 107.986091,1.96872976 107.986091,3.25003238 L107.986091,28.8873346 C107.986091,30.1230456 107.477728,30.8098807 106.045831,30.8098807 C104.383349,30.8098807 104.106169,30.2604126 103.505811,27.5598483 L97.593634,0.137367009 L95.746564,0.137367009 L90.1115668,26.6894625 C89.4652118,29.6647608 89.1414369,30.352188 87.8947244,30.7181053 L87.109182,30.9472477 L87.109182,31.7708576 L93.7143091,31.7708576 L93.7143091,30.9472477 L92.7441792,30.7636969 C91.3588767,30.4889629 90.9891043,29.7571283 91.6820542,26.2773615 L95.0076165,9.2012212 L98.6563563,27.2845222 C99.1641213,29.8939032 99.1641213,30.3977796 97.1784614,30.7636969 L96.2083315,30.9472477 L96.2083315,31.7708576 L120.73398,31.7708576 L120.73398,21.3333333 L119.856443,21.3333333 C119.394675,26.1399944 118.424545,30.6725136 114.498625,30.6725136 L112.650958,30.6725136 L112.650958,3.25003238 L112.650958,3.25003238 Z M241.236181,1.32748635 L242.252906,1.32748635 C245.117298,1.32748635 246.08683,5.85941345 246.410008,10.6666667 L247.286948,10.6666667 L247.286948,0.228550282 L230.521144,0.228550282 L230.521144,10.6666667 L231.398681,10.6666667 C231.722456,5.85941345 232.692586,1.32748635 235.555783,1.32748635 L236.571911,1.32748635 L236.571911,28.7031918 C236.571911,29.9856786 236.156738,30.4433713 235.232606,30.6725136 L234.031891,30.9472477 L234.031891,31.7708576 L244.008578,31.7708576 L244.008578,30.9472477 L242.576083,30.626922 C241.698546,30.3977796 241.236181,30.1230456 241.236181,28.7031918 L241.236181,1.32748635 L241.236181,1.32748635 Z M220.129284,15.9310204 L221.560584,15.9772042 C223.639434,16.0228195 224.239194,16.8014062 224.656159,21.7916181 L225.533099,21.7916181 L225.533099,9.06444629 L224.656159,9.06444629 C224.147199,13.0474975 223.592839,14.7409011 221.607179,14.7870848 L220.129284,14.8327002 L220.129284,1.32751004 L223.316257,1.32751004 C226.873001,1.32751004 227.657946,5.76825386 228.165711,10.6666904 L229.043249,10.6666904 L229.043249,0.228573966 L213.108985,0.228573966 L213.108985,1.05277602 L214.125112,1.32751004 C215.18664,1.60224406 215.464417,2.24348746 215.464417,3.2962398 L215.464417,28.7032155 C215.464417,29.9857023 215.049244,30.4433949 214.125112,30.6725373 L213.108985,30.9472713 L213.108985,31.7708813 L229.505016,31.7708813 L229.505016,21.333357 L228.627479,21.333357 C228.073119,26.0944265 227.472761,30.6725373 223.316257,30.6725373 L220.129284,30.6725373 L220.129284,15.9310441 L220.129284,15.9310204 Z M202.716528,15.9310204 L204.148425,15.9772042 C206.226678,16.0228195 206.827035,16.8014062 207.242805,21.7916181 L208.120343,21.7916181 L208.120343,9.06444629 L207.242805,9.06444629 C206.73504,13.0474975 206.18068,14.7409011 204.19502,14.7870848 L202.716528,14.8327002 L202.716528,1.32751004 L205.9035,1.32751004 C209.460245,1.32751004 210.24519,5.85943714 210.752955,10.6666904 L211.630492,10.6666904 L211.630492,0.228573966 L195.234461,0.228573966 L195.234461,1.05277602 L196.712356,1.32751004 C197.774481,1.60224406 198.051661,2.24348746 198.051661,3.2962398 L198.051661,28.7032155 C198.051661,29.9857023 197.635891,30.4433949 196.712356,30.6725373 L195.696228,30.9472713 L195.696228,31.7708813 L212.09226,31.7708813 L212.09226,21.333357 L211.21532,21.333357 C210.66096,26.0944265 210.060005,30.6725373 205.9035,30.6725373 L202.716528,30.6725373 L202.716528,15.9310441 L202.716528,15.9310204 Z M183.733284,1.32748635 L185.119184,1.32748635 C186.966254,1.32748635 188.675331,2.5176057 188.675331,8.46938662 C188.675331,14.4661671 187.382621,15.1530021 184.796006,15.1530021 L183.733284,15.1530021 L183.733284,1.32748635 Z M176.758982,31.7708576 L186.089314,31.7708576 L186.089314,30.9472477 L185.072589,30.7181053 C184.149054,30.4889629 183.733284,29.9856786 183.733284,28.7031918 L183.733284,16.2519382 L185.442361,16.2519382 C186.781666,16.2519382 187.474616,16.8014062 187.567209,19.3651957 L187.797794,25.2246091 C187.982979,30.4889629 189.506871,31.9544084 192.093486,31.9544084 C194.726098,31.9544084 195.418451,30.1686372 195.418451,27.6510315 L195.418451,26.5976871 L194.448918,26.5976871 L194.448918,27.3757054 C194.448918,29.0702933 194.218333,30.2604126 193.571381,30.2604126 C192.971023,30.2604126 192.924428,29.80272 192.786436,27.6966232 L192.508659,23.6685725 C192.139483,18.1288926 191.400536,16.3893052 187.428619,15.6562864 C191.261946,14.6497178 193.617378,11.856786 193.617378,7.87373485 C193.617378,2.70056434 189.506871,0.228550282 185.580951,0.228550282 L176.758982,0.228550282 L176.758982,1.05275234 L177.775109,1.32748635 C178.699242,1.60222037 179.114414,1.96872976 179.114414,3.25003238 L179.114414,28.7031918 C179.114414,29.9856786 178.699242,30.4433713 177.775109,30.6725136 L176.758982,30.9472477 L176.758982,31.7708576 L176.758982,31.7708576 Z M169.692685,1.32748635 L170.708812,1.32748635 C173.57201,1.32748635 174.542139,5.85941345 174.865914,10.6666667 L175.742854,10.6666667 L175.742854,0.228550282 L158.97705,0.228550282 L158.97705,10.6666667 L159.854588,10.6666667 C160.177765,5.85941345 161.147895,1.32748635 164.01169,1.32748635 L165.027817,1.32748635 L165.027817,28.7031918 C165.027817,29.9856786 164.61145,30.4433713 163.688512,30.6725136 L162.4872,30.9472477 L162.4872,31.7708576 L172.232705,31.7708576 L172.232705,30.9472477 L171.03199,30.6725136 C169.831275,30.3977796 169.692685,29.4823943 169.692685,28.7031918 L169.692685,1.32748635 L169.692685,1.32748635 Z M159.023048,23.576205 C159.023048,14.1914331 148.631188,11.719419 148.631188,4.89843649 C148.631188,3.43358313 149.185548,1.23571098 151.494386,1.23571098 C154.819948,1.23571098 156.067258,5.49349616 156.621618,10.6666667 L157.499155,10.6666667 L157.499155,0.228550282 L156.944795,0.228550282 C156.713613,1.23571098 156.297843,1.69399574 155.698083,1.69399574 C154.635361,1.69399574 154.081001,0.0455916366 151.540981,0.0455916366 C147.615061,0.0455916366 144.935854,3.29621612 144.935854,7.5534092 C144.935854,15.2903691 155.328311,18.5404015 155.328311,25.6823018 C155.328311,28.9323342 153.803821,30.7636969 151.725568,30.7636969 C148.631188,30.7636969 146.598934,27.1477472 146.044574,21.3333333 L145.167036,21.3333333 L145.167036,31.7708576 L145.721396,31.7708576 C146.183164,30.2604126 146.783521,30.1230456 147.291286,30.1230456 C148.169421,30.1230456 149.092956,31.9544084 151.771566,31.9544084 C155.88267,31.9544084 159.023048,28.429642 159.023048,23.576205 L159.023048,23.576205 Z M128.770407,3.25003238 C128.770407,1.96872976 129.186177,1.55662874 130.109712,1.37307799 L131.357022,1.09834397 L131.357022,0.228550282 L121.750107,0.228550282 L121.750107,1.05275234 L122.766235,1.32748635 C123.68977,1.60222037 124.10554,1.96872976 124.10554,3.25003238 L124.10554,28.7031918 C124.10554,29.9856786 123.68977,30.4433713 122.766235,30.6725136 L121.750107,30.9472477 L121.750107,31.7708576 L136.853429,31.7708576 L136.853429,21.3333333 L135.975294,21.3333333 C135.514124,26.1399944 134.543994,30.6725136 130.618074,30.6725136 L128.770407,30.6725136 L128.770407,3.25003238 L128.770407,3.25003238 Z M98.1939914,23.2558794 L98.1939914,22.0201684 L91.9592342,22.0201684 L91.7740493,23.2558794 L98.1939914,23.2558794 Z M71.4980954,31.862633 L73.3917603,31.862633 L77.6868551,9.33918031 L77.0405001,9.33918031 L81.7513649,31.862633 L83.4144447,31.862633 L89.0494419,5.31053752 C89.6497993,2.5176057 89.9729768,1.55662874 91.0816967,1.28130262 L91.9592342,1.05275234 L91.9592342,0.228550282 L85.4466996,0.228550282 L85.4466996,1.05275234 L86.4168295,1.23571098 C87.802132,1.510445 88.1253095,2.33464705 87.4789545,5.72204644 L83.8302147,23.5306134 L84.3845746,23.5306134 L80.6892399,4.76106948 C80.3194675,2.97529836 80.0888824,1.510445 81.6133723,1.23571098 L82.6289023,1.05275234 L82.6289023,0.228550282 L73.7149378,0.228550282 L73.7149378,1.05275234 L74.3152953,1.19011934 C75.2394276,1.41866963 75.3780176,1.96872976 75.7471927,3.70831714 L77.1790901,10.5292997 L76.9019101,6.40888149 L73.7149378,23.0729207 L74.1307078,23.0729207 L70.3893755,4.76106948 C69.9736055,2.88411509 69.8350156,1.46485336 71.3129105,1.19011934 L72.0064578,1.05275234 L72.0064578,0.228550282 L62.9073084,0.228550282 L62.9073084,1.05275234 L63.7848458,1.28130262 C64.6157884,1.510445 65.0781532,1.92254603 65.6325132,4.44015173 L71.4980954,31.862633 Z M46.8338569,15.9310204 L48.2657543,15.9772042 C50.3440067,16.0228195 50.9443642,16.8014062 51.3601341,21.7916181 L52.2376716,21.7916181 L52.2376716,9.06444629 L51.3601341,9.06444629 C50.8523691,13.0474975 50.2980091,14.7409011 48.3117518,14.7870848 L46.8338569,14.8327002 L46.8338569,1.32751004 L50.0208292,1.32751004 C53.5769765,1.32751004 54.3625189,5.85943714 54.8702839,10.6666904 L55.7478214,10.6666904 L55.7478214,0.228573966 L39.8135572,0.228573966 L39.8135572,1.05277602 L40.8296847,1.32751004 C41.8918096,1.60224406 42.1689896,2.24348746 42.1689896,3.2962398 L42.1689896,28.7032155 C42.1689896,29.9857023 41.7532197,30.4433949 40.8296847,30.6725373 L39.8135572,30.9472713 L39.8135572,31.7708813 L56.2101863,31.7708813 L56.2101863,21.333357 L55.3320514,21.333357 C54.7782889,26.0944265 54.1779314,30.6725373 50.0208292,30.6725373 L46.8338569,30.6725373 L46.8338569,15.9310441 L46.8338569,15.9310204 Z M17.781931,31.7708576 L27.2502555,31.7708576 L27.2502555,30.9472477 L26.1881305,30.7181053 C25.3565906,30.5351466 24.8022307,29.9856786 24.8022307,28.7031918 L24.8022307,16.2063466 L31.7765328,16.2063466 L31.7765328,28.7031918 C31.7765328,29.9856786 31.2227702,30.5351466 30.3912303,30.7181053 L29.3291053,30.9472477 L29.3291053,31.7708576 L38.7974298,31.7708576 L38.7974298,30.9472477 L37.7813023,30.6725136 C36.8577673,30.4433713 36.4414,29.9394949 36.4414,28.6581922 L36.4414,3.25003238 C36.4414,1.96872976 36.8577673,1.55662874 37.7813023,1.32748635 L38.7974298,1.05275234 L38.7974298,0.228550282 L29.3291053,0.228550282 L29.3291053,1.05275234 L30.3912303,1.32748635 C31.1761753,1.55662874 31.7765328,1.87695439 31.7765328,3.20444074 L31.7765328,14.9700435 L24.8022307,14.9700435 L24.8022307,3.20444074 C24.8022307,1.92254603 25.3105931,1.55662874 26.1881305,1.32748635 L27.2502555,1.05275234 L27.2502555,0.228550282 L17.781931,0.228550282 L17.781931,1.05275234 L18.7980585,1.32748635 C19.7221908,1.60222037 20.1373634,1.96872976 20.1373634,3.25003238 L20.1373634,28.7031918 C20.1373634,29.9856786 19.7221908,30.4433713 18.7980585,30.6725136 L17.781931,30.9472477 L17.781931,31.7708576 Z M10.715037,1.32748635 L11.7317618,1.32748635 C14.5949592,1.32748635 15.5650891,5.85941345 15.8882661,10.6666667 L16.7658036,10.6666667 L16.7658036,0.228550282 L0,0.228550282 L0,10.6666667 L0.877537454,10.6666667 C1.20071496,5.85941345 2.17084487,1.32748635 5.03404229,1.32748635 L6.05016973,1.32748635 L6.05016973,28.7031918 C6.05016973,29.9856786 5.63499715,30.4433713 4.71086478,30.6725136 L3.51014982,30.9472477 L3.51014982,31.7708576 L13.4868367,31.7708576 L13.4868367,30.9472477 L12.0549393,30.626922 C11.1774018,30.3977796 10.715037,30.1230456 10.715037,28.7031918 L10.715037,1.32748635 L10.715037,1.32748635 Z" id="path13406"></path>
            </g>
        </g>
    </g>
</svg>