<svg width="140" height="30" viewBox="0 0 140 30" xmlns="http://www.w3.org/2000/svg"><path d="M65.36 0c-.074 0-.148.002-.223.007-3.28.2-6.276 7.513-5.797 15.288.094 1.52.757 5.695 1.688 7.76-1.628 2.605-3.695 2.995-4.895 2.995-1.688 0-4.252-.961-4.252-4.887 1.208-3.293.404-7.058-1.282-7.058-2.406 0-3.207 4.24-3.288 7.214-.8 1.768-1.685 3.209-2.89 3.209-3.605 0-3.924-11.23-6.574-11.23-2.163 0-5.884 7.14-7.01 7.14-.638 0-1.205-2.023-1.608-4.006-.112-.555-.222-1.225-.582-1.26-.713-.066-1.605.549-1.934 1.406-.334.854-.929 3.528-1.577 5.967-.388 1.404-1.342 4.375-1.456 5.483-.084.8.253 1.4 1.056 1.484 1.995.207 9.341-8.832 11.667-8.832 2.97 0 3.688 8.9 7.06 8.9 2.004 0 3.848-5.13 5.053-5.13 1.36 0 2.002 5.13 5.851 5.13 4.816 0 6.415-3.128 7.86-3.128 1.203 0 2.487 3.047 5.452 3.047 1.844 0 3.453-.56 5.376-1.846 1.119 1.286 2.479 1.927 3.77 1.927 7.93 0 10.177-7.138 11.787-7.138 1.441 0 1.123 7.057 5.218 7.057 5.448 0 9.141-9.545 9.141-14.678 0-1.36-.405-2.479-1.527-2.479-1.848 0-3.212 2.165-3.212 4.728 0 2.325.562 2.487.562 4.093 0 2.16-1.122 4.968-2.49 4.968-3.197 0-4.002-12.67-5.929-12.67-1.119 0-1.684 1.36-2.003 2.325-1.772 5.055-4.167 10.59-8.741 10.59-.886 0-1.924-.406-2.486-.964 3.204-2.003 5.371-4.093 5.371-6.656 0-2.169-1.442-5.458-3.93-5.458-3.126 0-6.737 4.733-6.737 10.345 0 1.047.163 1.77.324 2.327-.24.325-1.207.725-2.01.725-2.164 0-4.457-2.302-4.73-3.654 1.616-3.488 4.842-7.532 4.251-17.22C69.469 2.252 67.657.005 65.36 0zm-13.8 1.112c-1.522 0-2.955 1.598-2.803 3.604.097 1.323.878 2.412 2.41 2.412 1.758 0 3.04-2.005 2.878-3.853-.112-1.284-1.12-2.163-2.485-2.163zM19.933 2.685a2.598 2.598 0 0 0-.725.11c-1.287.404-2.687 2.168-2.286 4.848.183 1.21.85 2.848 1.08 3.577.404 1.28.884 3.287.246 7.454-.806 5.216-2.728 8.826-7.059 8.742-2.886 0-5.538-2.248-5.852-8.02-.325-5.455.082-7.777.96-12.587.4-2.174.559-4.015-1.204-3.693-2.241.477-2.887 1.364-3.609 3.852C.122 11.618-.112 14.906.04 18.194c.325 6.975 3.45 11.549 10.51 11.702 8.178.166 11.468-7.775 11.784-14.353.242-4.811.162-8.176-.561-10.74-.453-1.37-.91-2.106-1.84-2.118zm45.38 2.125c1.127-.013 1.64 1.004 1.774 3.175.307 4.967-1.812 11.123-2.696 11.176-.479.03-.99-.5-1.199-3.944-.326-5.281.412-10.306 2.01-10.403.037-.003.074-.004.11-.004zm70.211 7.13c-7.539 0-9.138 11.306-10.344 11.306-2.005 0-1.364-9.062-2.81-9.062-1.284 0-1.913 1.53-2.084 2.245-.994 4.123-4.008 10.188-8.503 10.188-1.041 0-2.887-.403-2.887-1.448 0-1.123 7.062-1.28 7.062-6.655 0-2.002-1.843-4.813-4.573-4.813-3.608 0-7.128 3.933-7.128 9.386 0 4.888 3.037 6.493 6.083 6.493 5.296 0 8.503-4.333 10.185-7.942.806 2.408 1.28 7.942 3.29 7.942.803 0 1.365-.401 2.33-2.564 2.4-5.378 4.727-11.55 7.938-11.55 1.2 0 .48 2.168 3.366 2.168 1.36 0 2.32-1.122 2.32-2.411 0-1.846-1.682-3.284-4.245-3.284zm-25.184 4.975c1.686 0 2.17 1.995 1.769 3.203-.405 1.201-1.844 2.569-4.09 2.969-.483-1.205-.725-6.172 2.321-6.172zm-32.952.236c.877 0 1.6 1.122 1.6 2.482 0 1.605-.645 3.535-2.966 4.257-.326-.408-1.042-1.361-1.042-3.374 0-2.567 1.68-3.365 2.408-3.365z" fill="#2E2E2E" fill-rule="nonzero"/></svg>