<?xml version="1.0" encoding="UTF-8"?>
<svg width="154px" height="40px" viewBox="0 0 154 40" version="1.1" xmlns="http://www.w3.org/2000/svg" xmlns:xlink="http://www.w3.org/1999/xlink">
    <!-- Generator: Sketch 54.1 (76490) - https://sketchapp.com -->
    <title>logo-forbes</title>
    <desc>Created with Sketch.</desc>
    <g id="Page-1" stroke="none" stroke-width="1" fill="none" fill-rule="evenodd">
        <g id="Artboard" transform="translate(-619.000000, -259.000000)" fill="#2E2E2E" fill-rule="nonzero">
            <g id="logo-forbes" transform="translate(619.000000, 259.000000)">
                <path d="M38.2504316,39.8873792 C35.5705201,39.4973508 33.2265922,38.362964 31.4367058,36.5898767 C29.9436785,35.1109962 28.9756257,33.4846807 28.2621026,31.2563577 C27.1479411,27.7771589 27.1476095,23.3040453 28.2609974,19.8958009 C29.3401237,16.5928829 31.7698159,13.7177914 34.7433815,12.2250958 C38.8613913,10.1579123 44.6573299,10.2877744 48.4714071,12.5326755 C51.9038556,14.5529981 53.9829754,18.1429389 54.5615524,23.0476367 C54.7381649,24.5450848 54.6235547,27.7081938 54.3453735,29.0137775 C53.2067869,34.3579066 49.8909379,38.090972 45.03288,39.4979034 C44.5093423,39.6494276 43.6975661,39.8269242 43.2289574,39.8920211 C42.2372531,40.0300617 39.2103059,40.0271881 38.2504316,39.8873792 Z M42.2597993,37.7415048 C43.0427296,37.5089688 44.0082404,36.6034708 44.5231575,35.6189504 C45.5860372,33.586581 46.0607246,30.5810748 46.0725504,25.8086706 C46.0872496,19.82772 45.1495901,16.0218213 43.1706023,14.0291289 C42.3395954,13.1922644 41.7502979,12.9324297 40.6877496,12.9340875 C38.3295646,12.9378452 36.8328901,15.3996989 36.2416032,20.2471469 C35.9698322,22.4754699 35.9683954,27.7839006 36.2390612,29.7320531 C37.0765888,35.7614118 39.2393729,38.6383822 42.2597993,37.7415048 L42.2597993,37.7415048 Z M91.9615033,39.6224605 C95.3187976,39.1190377 97.781425,37.9659728 99.8669549,35.9213356 C102.881524,32.9657849 104.333548,28.794504 104.137373,23.6535125 C104.036357,21.0067572 103.60411,19.2777678 102.507079,17.1327776 C101.020904,14.2269614 98.4791436,12.1886239 95.593,11.5883847 C93.4281161,11.1381224 90.6426571,11.4907947 88.5248551,12.4832727 C87.9971176,12.7306185 87.4918159,12.9329823 87.4021835,12.9329823 C87.2598325,12.9329823 87.2443596,12.1145748 87.2806104,6.48651755 L87.3221663,0.0400527848 L86.8787563,0.128911612 C86.6348366,0.177761863 84.1475631,0.64128664 81.3513836,1.15885615 C78.5550936,1.67642566 76.1583367,2.1254722 76.0250485,2.1566391 C75.8224636,2.2041631 75.7869864,2.28130671 75.8086485,2.62745826 C75.8328526,3.01306578 75.8645721,3.0479904 76.2719522,3.13762287 C77.6731366,3.44586574 77.9225823,3.55572355 78.4434674,4.09384995 C79.0815048,4.7531073 79.3698539,5.59483469 79.5589552,7.35167539 C79.7097057,8.75153348 79.743083,32.8696317 79.5991848,36.4296214 L79.5139732,38.5405711 L80.653665,38.7842698 C84.9692862,39.7071195 89.2710924,40.0259724 91.9615033,39.6224605 L91.9615033,39.6224605 Z M88.0187797,37.9411056 C87.7954169,37.9175646 87.5563601,37.8305847 87.4877267,37.747915 C87.2982938,37.5195788 87.0931669,22.5168047 87.2193818,18.127466 L87.3195138,14.6460567 L88.2036812,14.3910849 C89.5081598,14.0150927 90.9125492,14.0734478 91.9081217,14.5453722 C93.9074454,15.4928681 95.2209866,17.8333698 95.9030113,21.6641357 C96.1252688,22.9120276 96.0923336,27.2458848 95.849077,28.7882043 C95.3409018,32.0084526 94.4163942,34.4936263 93.1294885,36.0993848 C92.5054874,36.8775627 91.4693537,37.6138531 90.6591247,37.8545677 C90.1365818,38.0098496 89.0162311,38.0465426 88.0187797,37.9411056 Z M117.491838,39.8312345 C112.008784,38.8424038 108.087502,34.9540564 106.806232,29.2357036 C106.641446,28.5002973 106.568612,27.6771374 106.527278,26.0849729 C106.461849,23.5660904 106.666755,22.0025508 107.316839,20.0598139 C108.565063,16.3297326 110.802006,13.686514 114.051543,12.102307 C117.481339,10.4302359 122.170521,10.3207096 125.205867,11.8418092 C128.623396,13.5544415 130.634213,16.9740696 131.144378,21.9404381 C131.213122,22.6092002 131.252799,23.4048404 131.232905,23.7087729 L131.196544,24.2613776 L123.017995,24.2896709 L114.839446,24.3180748 L114.870503,25.2843593 C114.942783,27.5228502 115.423991,29.5029432 116.314238,31.2241961 C116.718855,32.0066843 117.040913,32.4331846 117.823401,33.2230777 C119.590852,35.0077696 121.34924,35.6985254 124.123094,35.6985254 C126.134243,35.6985254 127.58052,35.2972239 129.09322,34.3193348 C129.516847,34.0453534 129.946221,33.8213274 130.047126,33.8213274 C130.278004,33.8213274 130.80961,34.5055625 130.80961,34.8028638 C130.80961,35.2900401 129.223856,36.860432 127.677226,37.9051863 C126.410545,38.7608393 124.401607,39.5358121 122.659686,39.8404078 C121.439756,40.0540447 118.699169,40.0490713 117.491838,39.8312345 L117.491838,39.8312345 Z M120.961974,21.8165441 L122.884817,21.7496789 L122.815521,20.3837508 C122.57149,15.5673592 121.392785,12.9351927 119.481104,12.9374032 C117.403421,12.9397241 115.743065,15.6107939 115.052752,20.0616928 C114.967872,20.6087714 114.89758,21.2575292 114.896475,21.5034383 L114.894486,21.9504955 L116.966753,21.9170076 C118.106555,21.8983296 119.904399,21.853237 120.961974,21.8165441 L120.961974,21.8165441 Z M139.596024,39.9385504 C137.626983,39.7274554 134.493273,39.041452 133.449844,38.5928475 L132.940232,38.3740161 L132.870715,35.8490549 C132.832475,34.46047 132.788487,32.6036078 132.772793,31.7229771 L132.744279,30.1218604 L133.049759,29.9754201 C133.217751,29.8949609 133.556718,29.8196962 133.80318,29.808202 L134.251121,29.787424 L134.63275,30.7268519 C136.121798,34.391726 137.86814,36.3677297 140.149071,36.9687425 C141.019202,37.1981839 142.650712,37.2001733 143.294828,36.9726107 C145.099193,36.3357891 146.088686,34.9694189 146.097307,33.1030519 C146.107475,30.8926333 144.892518,29.8306377 140.302474,28.0376567 C137.45877,26.9268108 136.466734,26.3551966 135.285597,25.1462081 C134.011401,23.8419507 133.399889,22.357544 133.285058,20.289808 C133.146354,17.7913719 133.928179,15.685064 135.661037,13.8903146 C137.404725,12.0840711 139.668415,11.1050767 142.75217,10.8236904 C145.467669,10.5759025 149.635966,11.151827 151.81997,12.0765556 L152.218398,12.2452106 L152.289463,14.4956377 C152.328588,15.7333616 152.369038,17.3925018 152.379317,18.1827265 L152.398105,19.619388 L151.862963,19.8181047 C151.017036,20.1322051 150.961333,20.0928597 150.490735,18.8459626 C149.171557,15.3508487 147.638963,13.697124 145.250938,13.1919329 C143.795598,12.8840215 142.579868,13.2150317 141.696143,14.1597646 C141.006824,14.8967182 140.737816,15.5512231 140.672719,16.6502433 C140.601985,17.8409957 140.814849,18.4846696 141.542408,19.2807519 C142.439064,20.2619567 143.908219,21.1088786 146.834924,22.3319032 C150.41956,23.8297933 152.12976,25.1014472 153.059573,26.9599671 C153.663459,28.1670767 153.834435,29.1311508 153.773759,30.9869077 C153.728114,32.3794714 153.683574,32.6656101 153.366711,33.6005066 C152.333782,36.6486739 150.002233,38.6555129 146.400134,39.5964881 C145.180094,39.9151199 145.005913,39.931477 142.579868,39.9582231 C141.181889,39.9732539 139.839059,39.9646333 139.596024,39.9385504 L139.596024,39.9385504 Z M0.201391237,39.2743196 C0.109548345,39.2371845 0.0632400758,38.9617664 0.0632400758,38.4519333 C0.0632400758,37.5360464 0.00499554601,37.5770497 1.77631448,37.2484709 C3.13505879,36.9963727 3.62101931,36.7386379 4.22103744,35.9520604 C5.38427022,34.4267611 5.63570533,31.49022 5.63835784,19.3985672 C5.6407893,8.0429838 5.42195786,5.65418443 4.21893754,3.89911207 C3.68512145,3.12049213 2.78559161,2.69763905 1.27885978,2.5172689 L0.11839002,2.37834409 L0.0865599919,1.47229351 L0.0545089224,0.56635345 L0.41812278,0.501588186 C0.618165662,0.466000447 7.64364958,0.4509696 16.0305303,0.468100344 L31.2794345,0.499488288 L31.350831,0.941572005 C31.3901765,1.18471805 31.4547207,3.67873334 31.4942872,6.48375453 L31.5661258,11.5838533 L30.7799904,11.8226891 C29.5965323,12.1821031 29.6036056,12.186524 29.0712263,10.7778242 C27.7635427,7.31763494 26.2639947,5.32383738 24.2120631,4.31699171 C22.7968426,3.62258871 22.1425587,3.53870332 18.1460114,3.53870332 L14.6679178,3.53870332 L14.6079049,4.1189382 C14.4953946,5.20701675 14.3180085,12.2064177 14.3192242,15.5025939 L14.32044,18.7905916 L15.3427586,18.784734 C15.905089,18.7815289 17.013835,18.740194 17.8067122,18.6927806 C18.9984593,18.6214946 19.3526789,18.5582766 19.8513494,18.3273984 C21.0764739,17.760205 21.9099122,16.5119816 22.4206294,14.4795017 L22.6842218,13.430216 L23.5862936,13.3980544 L24.4883655,13.3658928 L24.4883655,26.6464192 L23.5859621,26.6142576 L22.6835587,26.5820961 L22.4273712,25.5321472 C21.946163,23.5593486 21.0198871,22.1471122 19.8753324,21.6408158 C19.3467108,21.4070641 18.0388061,21.2741074 15.50854,21.1971848 L14.32044,21.1609339 L14.32044,23.6556124 C14.32044,26.3739851 14.4699748,30.0515691 14.6615075,32.0474665 C14.9285261,34.8299414 15.6396178,36.3672876 16.9164661,36.9237605 C17.1602752,37.0299711 17.9318218,37.2023837 18.6307562,37.3071576 C19.3298011,37.4118209 19.9888374,37.5424566 20.0951585,37.597496 C20.3649401,37.7367524 20.3808551,39.1778348 20.1138366,39.2801772 C19.904731,39.3606364 0.400549952,39.3545578 0.201391237,39.2743196 Z M54.6827939,39.2533206 C54.5819988,39.1892185 54.5490636,38.9342467 54.572273,38.3981097 L54.6054292,37.63441 L54.9922525,37.5521825 C55.2050053,37.5068689 55.6620093,37.4167943 56.0077188,37.3522501 C57.0778929,37.1523177 57.6928314,36.5715303 58.0389829,35.4337173 C58.3209218,34.5069993 58.4451474,31.5419438 58.4515576,25.5876287 C58.4595151,18.3055152 58.3077698,16.585699 57.5714794,15.6109044 C57.1723883,15.0825039 56.8847024,14.9323059 55.916318,14.7464097 C55.4384255,14.6546774 54.9355552,14.5563137 54.7988409,14.5277993 C54.5773569,14.4817121 54.5501688,14.4095419 54.5501688,13.8678789 C54.5501688,13.3412466 54.5834356,13.2460881 54.7988409,13.1574503 C55.1295195,13.0215096 66.0783859,10.8329741 66.4281846,10.8329741 L66.7010608,10.8329741 L66.6475687,12.4631578 C66.6180596,13.3597036 66.5710882,14.6652874 66.5430159,15.3643322 L66.4919552,16.6353229 L66.8886148,15.9200315 C68.1583898,13.6302589 69.5823414,12.2087387 71.4758965,11.3410389 C72.5153458,10.8645831 73.2089752,10.7224532 74.4931179,10.7224532 C76.0160963,10.7224532 77.5387431,11.2193553 77.5387431,11.7164784 C77.5387431,12.0506937 74.8554055,19.1408324 74.7074179,19.1975296 C74.6352478,19.2251599 74.1112681,19.0248959 73.54308,18.7521303 C72.3580745,18.1835001 71.246455,17.90554 70.1673287,17.9078609 C68.8233942,17.9107345 67.3221884,18.4057577 66.7295752,19.0414741 C66.4760402,19.3133556 66.4748244,19.3297127 66.4118275,23.3903621 C66.3494937,27.4116661 66.4834451,32.316806 66.7095709,34.2896046 C66.9022089,35.9702964 67.3488239,36.7976561 68.2711211,37.1830426 C68.5788114,37.3114679 70.525527,37.5782654 71.1608013,37.5789285 C71.2089884,37.5789285 71.2337451,37.9644255 71.2160618,38.4354657 L71.1837897,39.2920029 L63.0052409,39.3183069 C58.506818,39.3330062 54.7618163,39.3038287 54.6827939,39.2533206 L54.6827939,39.2533206 Z" id="Shape"></path>
            </g>
        </g>
    </g>
</svg>