<?xml version="1.0" encoding="UTF-8"?>
<svg width="59px" height="48px" viewBox="0 0 59 48" version="1.1" xmlns="http://www.w3.org/2000/svg" xmlns:xlink="http://www.w3.org/1999/xlink">
    <!-- Generator: Sketch 54.1 (76490) - https://sketchapp.com -->
    <title>logo-mccormick</title>
    <desc>Created with Sketch.</desc>
    <g id="Page-1" stroke="none" stroke-width="1" fill="none" fill-rule="evenodd">
        <g id="Artboard" transform="translate(-548.000000, -92.000000)">
            <g id="logo-mccormick" transform="translate(549.000000, 93.000000)">
                <polygon id="path11" stroke="#2E2E2E" stroke-width="2.00230002" points="0.000383333333 0.000383333333 56.00405 0.000383333333 56.00405 45.99205 0.000383333333 45.99205"></polygon>
                <path d="M7.82438333,10.10605 L14.00105,4.95005 L19.1487167,9.07505 L24.09005,4.95005 L29.0317167,8.86871667 L33.76705,4.95005 L38.9143833,9.07505 L38.9143833,19.3867167 L32.1197167,24.7487167 L32.1197167,11.7557167 C32.1197167,11.7557167 31.91405,9.89971667 29.0313833,9.89971667 L29.0313833,39.80405 L22.23705,39.80405 L22.23705,11.7557167 C22.23705,11.7557167 22.23705,9.89971667 19.3547167,9.89971667 L19.3547167,39.80405 L12.35405,39.80405 L12.35405,13.1997167 C12.35405,13.1997167 12.5597167,9.48738333 7.82438333,10.10605 Z" id="path13" fill="#2E2E2E"></path>
                <path d="M43.0323833,17.5307167 L32.12005,25.9867167 L32.12005,34.23605 L39.1207167,40.0107167 L48.18005,32.99905 L47.7683833,32.5863833 C47.7683833,32.5863833 45.2977167,35.06105 43.2387167,34.64905 C39.9443833,34.2363833 38.9147167,32.1743833 38.9147167,29.0807167 L38.9147167,22.06805 C38.9147167,22.06805 41.3857167,24.74905 43.2387167,24.74905 C44.8857167,24.74905 46.53305,23.3057167 48.18005,21.6557167 L43.0323833,17.5307167 Z" id="path15" fill="#2E2E2E"></path>
                <path d="M49.2093833,40.0107167 C50.6503833,40.0107167 51.88605,38.9793833 51.88605,37.53605 C51.88605,36.09205 50.6503833,34.85505 49.2093833,34.85505 C47.97405,34.85505 46.7387167,36.09205 46.7387167,37.53605 C46.7387167,38.9793833 47.97405,40.0107167 49.2093833,40.0107167 Z" id="path17" stroke="#2E2E2E" stroke-width="1.18379998"></path>
                <path d="M48.1797167,35.8857167 C48.1797167,35.8857167 49.2093833,35.8857167 49.62105,35.8857167 C50.23905,35.8857167 50.6503833,36.09205 50.6503833,36.7113833 C50.6503833,37.5363833 50.23905,37.5363833 50.23905,37.5363833 C50.6503833,38.1547167 50.6503833,38.9797167 50.6503833,38.9797167 L50.0327167,38.9797167 C50.0327167,37.7427167 49.4147167,37.9483833 49.4147167,37.9483833 L48.59105,37.9483833 L48.59105,38.9797167 L48.1793833,38.9797167 L48.1793833,35.8857167 L48.1797167,35.8857167 Z M48.5913833,36.2983833 L48.5913833,37.53605 C48.5913833,37.53605 49.41505,37.53605 49.62105,37.53605 C49.8267167,37.53605 50.0327167,37.3297167 50.0327167,36.91705 C50.0327167,36.50505 49.8267167,36.2987167 49.62105,36.2987167 C49.2093833,36.2983833 48.5913833,36.2983833 48.5913833,36.2983833 Z" id="path19" fill="#2E2E2E"></path>
            </g>
        </g>
    </g>
</svg>