<?xml version="1.0" encoding="UTF-8"?>
<svg width="150px" height="33px" viewBox="0 0 150 33" version="1.1" xmlns="http://www.w3.org/2000/svg" xmlns:xlink="http://www.w3.org/1999/xlink">
    <!-- Generator: Sketch 54.1 (76490) - https://sketchapp.com -->
    <title>logo-certarus</title>
    <desc>Created with Sketch.</desc>
    <g id="Page-1" stroke="none" stroke-width="1" fill="none" fill-rule="evenodd">
        <g id="Artboard" transform="translate(-65.000000, -83.000000)" fill="#2E2E2E" fill-rule="nonzero">
            <g id="logo-certarus" transform="translate(65.000000, 83.000000)">
                <path d="M46.3017621,23.1436123 C42.9872247,22.2568282 40.9810573,18.7242291 41.8678414,15.3370044 C42.6528634,12.3422907 44.9643172,10.5832599 48.1625551,10.5832599 C49.5290749,10.5832599 50.677533,10.8449339 51.5352423,11.339207 C52.145815,11.7026432 53.4251101,12.9092511 53.4251101,13.1273128 C53.4105727,13.2 53.0762115,13.5198238 52.6546256,13.8105727 C52.2330396,14.1013216 51.6515419,14.5229075 51.3462555,14.7409692 L50.80837,15.1480176 L50.3286344,14.6973568 C49.5581498,13.9559471 48.9911894,13.7378855 47.9735683,13.8105727 C46.3889868,13.9123348 45.4440529,14.9299559 45.3132159,16.7035242 C45.2550661,17.5757709 45.2986784,17.7938326 45.6330396,18.5061674 C46.0982379,19.4365639 46.9414097,20.0180617 47.9735683,20.1488987 C48.7295154,20.2215859 50.023348,19.669163 50.5176211,19.0585903 C50.677533,18.8550661 50.8955947,18.7242291 50.9973568,18.7678414 C51.0991189,18.8114537 51.7242291,19.2185022 52.3784141,19.6837004 C53.7303965,20.6431718 53.7303965,20.6286344 52.5528634,21.6753304 C50.8810573,23.1872247 48.5114537,23.7396476 46.3017621,23.1436123 Z" id="Path"></path>
                <path d="M128.787225,23.1581498 C128.292952,23.0563877 127.682379,22.8528634 127.420705,22.7220264 C126.577533,22.2859031 125.734361,21.3700441 125.298238,20.4251101 L124.876652,19.5237885 L124.83304,15.1334802 L124.77489,10.7286344 L126.533921,10.7286344 L128.278414,10.7286344 L128.322026,14.6246696 C128.365639,18.0845815 128.394714,18.5643172 128.64185,19.0585903 C129.354185,20.4832599 131.622026,20.5414097 132.436123,19.1603524 C132.712335,18.6951542 132.726872,18.360793 132.770485,14.6973568 L132.814097,10.7286344 L134.55859,10.7286344 L136.303084,10.7286344 L136.259471,15.060793 C136.215859,19.145815 136.186784,19.4220264 135.881498,20.192511 C134.878414,22.6929515 132.05815,23.8704846 128.787225,23.1581498 Z" id="Path"></path>
                <path d="M142.975771,23.1581498 C141.827313,22.9400881 139.733921,21.9951542 139.28326,21.5008811 C139.021586,21.2101322 139.021586,21.1810573 139.719383,20.3669604 C140.969604,18.884141 140.925991,18.9277533 141.202203,19.1312775 C141.856388,19.6110132 143.339207,20.2070485 144.196916,20.3378855 C145.374449,20.5268722 146.130396,20.3378855 146.261233,19.8145374 C146.421145,19.1603524 146.014097,18.9132159 143.83348,18.360793 C140.780617,17.5903084 139.632159,16.5290749 139.632159,14.50837 C139.632159,12.9674009 140.460793,11.7317181 141.943612,11.0484581 C143.906167,10.1471366 147.511454,10.6123348 149.212335,11.9933921 L149.561233,12.284141 L148.703524,13.4325991 C148.238326,14.0577093 147.845815,14.5955947 147.831278,14.6246696 C147.831278,14.639207 147.30793,14.4211454 146.697357,14.1303965 C145.287225,13.461674 143.964317,13.3017621 143.426432,13.7378855 C143.164758,13.9559471 143.09207,14.115859 143.164758,14.3920705 C143.281057,14.8281938 143.615419,14.9881057 145.447137,15.453304 C148.950661,16.3400881 149.939207,17.285022 149.779295,19.5819383 C149.619383,21.8643172 148.034802,23.1436123 145.156388,23.3035242 C144.531278,23.3471366 143.600881,23.2744493 142.975771,23.1581498 Z" id="Path"></path>
                <path d="M78.8656388,23.1145374 L77.1938326,23.0709251 L75.9872247,21.2682819 L74.7951542,19.4511013 L74.0682819,19.4511013 L73.3414097,19.4511013 L73.3414097,21.2682819 L73.3414097,23.0854626 L71.5969163,23.0854626 L69.8524229,23.0854626 L69.8524229,16.892511 L69.8524229,10.6995595 L73.6030837,10.7577093 C77.0629956,10.815859 77.3973568,10.8449339 78.2114537,11.1647577 C79.3017621,11.5863436 80.3193833,12.5603524 80.5955947,13.4907489 C81.1334802,15.2933921 80.639207,17.1977974 79.3453744,18.2008811 C78.9819383,18.49163 78.6185022,18.7242291 78.545815,18.7242291 C78.2696035,18.7242291 78.5022026,19.1312775 79.8105727,20.9629956 C80.5665198,22.0242291 81.19163,22.969163 81.19163,23.0709251 C81.19163,23.1581498 81.0462555,23.2162996 80.8718062,23.2017621 C80.6828194,23.1872247 79.7814978,23.1436123 78.8656388,23.1145374 Z M76.2779736,16.5436123 C76.946696,16.3546256 77.2665198,15.9185022 77.2665198,15.2352423 C77.2665198,14.1449339 76.5832599,13.7814978 74.5480176,13.7814978 L73.3414097,13.7814978 L73.3414097,15.2352423 L73.3414097,16.6889868 L74.5480176,16.6889868 C75.2022026,16.6889868 75.9872247,16.6162996 76.2779736,16.5436123 Z" id="Shape"></path>
                <path d="M94.1008811,23.1581498 C94.0572687,23.1145374 95.1911894,20.3088106 96.615859,16.9361233 L99.2035242,10.8013216 L100.93348,10.7577093 L102.648899,10.7140969 L105.222026,16.8052863 C106.632159,20.1488987 107.795154,22.969163 107.795154,23.0709251 C107.795154,23.2017621 107.678855,23.230837 107.47533,23.1726872 C107.286344,23.1290749 106.457709,23.0854626 105.614537,23.0854626 L104.088106,23.0854626 L103.66652,21.9951542 L103.244934,20.9048458 L100.904405,20.9339207 L98.5638767,20.977533 L98.1422907,22.0387665 L97.7352423,23.0854626 L96.1651982,23.0854626 C95.2929515,23.0854626 94.4933921,23.1145374 94.39163,23.1581498 C94.2753304,23.2017621 94.1444934,23.2017621 94.1008811,23.1581498 Z M102.125551,18.1136564 C102.125551,18.0555066 101.849339,17.3140969 101.529515,16.4563877 L100.918943,14.9008811 L100.293833,16.4854626 C99.9449339,17.3431718 99.654185,18.0991189 99.654185,18.1427313 C99.654185,18.1863436 100.206608,18.2299559 100.889868,18.2299559 C101.573128,18.2299559 102.125551,18.1863436 102.125551,18.1136564 Z" id="Shape"></path>
                <path d="M119.570485,23.1290749 L117.898678,23.0709251 L116.735683,21.2682819 L115.572687,19.4511013 L114.81674,19.4511013 L114.046256,19.4511013 L114.046256,21.2682819 L114.046256,23.0854626 L112.301762,23.0854626 L110.557269,23.0854626 L110.557269,16.9070485 L110.557269,10.7286344 L113.653744,10.7286344 C117.171806,10.7286344 118.422026,10.8740088 119.396035,11.3682819 C121.387665,12.3713656 122.1,14.639207 121.155066,16.8488987 C120.835242,17.5612335 120.122907,18.3171806 119.48326,18.6079295 C119.294273,18.6951542 119.134361,18.8114537 119.134361,18.8696035 C119.134361,18.9132159 119.774009,19.8726872 120.573568,20.9920705 C121.35859,22.0969163 121.9837,23.0563877 121.940088,23.1290749 C121.911013,23.1872247 121.736564,23.2162996 121.562115,23.2017621 C121.387665,23.1872247 120.486344,23.1436123 119.570485,23.1290749 Z M117.448018,16.3546256 C118.247577,15.8312775 118.276652,14.7409692 117.49163,14.1594714 C117.157269,13.9123348 116.822907,13.854185 115.572687,13.8105727 L114.046256,13.7524229 L114.046256,15.2352423 L114.046256,16.7180617 L115.543612,16.6599119 C116.677533,16.630837 117.142731,16.5436123 117.448018,16.3546256 Z" id="Shape"></path>
                <path d="M14.4356828,22.8092511 C12.0079295,22.0242291 10.3215859,19.9744493 9.95814978,17.3867841 C9.6092511,14.8718062 10.7140969,12.414978 12.7929515,11.0920705 C13.5052863,10.6414097 27.6502203,5.11718062 27.7810573,5.24801762 C27.8101322,5.27709251 27.2286344,6.87621145 26.4872247,8.78061674 C25.7312775,10.685022 24.4810573,13.9123348 23.6814978,15.9475771 C22.0823789,20.0762115 21.6026432,20.8903084 20.192511,21.9079295 C18.6079295,23.0418502 16.2964758,23.4052863 14.4356828,22.8092511 Z" id="Path"></path>
                <path d="M13.6506608,32.7674009 C9.14405286,31.953304 5.23348018,29.3801762 2.76211454,25.614978 C1.22114537,23.2599119 0.377973568,20.8612335 0.0872246696,17.9682819 C-0.392511013,13.1709251 1.36651982,8.08281938 4.55022026,5.05903084 C9.23127753,0.639647577 15.3515419,-1.0030837 21.10837,0.625110132 C23.0563877,1.19207048 26.2400881,2.82026432 25.9493392,3.12555066 C25.9057269,3.15462555 25.0625551,3.34361233 24.0740088,3.54713656 C19.145815,4.49207048 13.723348,5.69867841 12.7784141,6.03303965 C8.75154185,7.48678414 5.78590308,11.4700441 5.52422907,15.8022026 C5.33524229,19.0585903 6.44008811,21.7625551 9.10044053,24.5828194 C10.1180617,25.6585903 10.4814978,25.9348018 11.6299559,26.5017621 C13.4035242,27.3740088 14.6101322,27.6647577 16.6017621,27.6647577 C18.5933921,27.6647577 19.8,27.3740088 21.5735683,26.5017621 C22.7220264,25.9348018 23.0854626,25.6585903 24.1030837,24.5828194 C25.5713656,23.0418502 26.4581498,21.6898678 27.0105727,20.192511 C27.2286344,19.5674009 27.9264317,16.6453744 28.522467,13.6942731 C29.1330396,10.7577093 29.7436123,8.06828194 29.8744493,7.7339207 L30.1215859,7.13788546 L30.6013216,7.63215859 C31.4154185,8.4753304 32.4039648,10.8449339 32.8837004,13.1418502 C33.2325991,14.7409692 33.2325991,18.0991189 32.8982379,19.6837004 C32.5929515,21.0792952 32.0405286,22.7656388 31.5317181,23.754185 C29.1475771,28.5515419 24.7281938,31.8515419 19.4656388,32.7674009 C17.9682819,33.0290749 15.0898678,33.0290749 13.6506608,32.7674009 Z" id="Path"></path>
                <polygon id="Path" points="56.1872247 16.9070485 56.1872247 10.7286344 61.1299559 10.7286344 66.0726872 10.7286344 66.0726872 12.2550661 66.0726872 13.7814978 62.8744493 13.7814978 59.6762115 13.7814978 59.6762115 14.6537445 59.6762115 15.5259912 62.5837004 15.5259912 65.4911894 15.5259912 65.4911894 16.9070485 65.4911894 18.2881057 62.5837004 18.2881057 59.6762115 18.2881057 59.6762115 19.2330396 59.6762115 20.1779736 62.9471366 20.1779736 66.2180617 20.1779736 66.2180617 21.6317181 66.2180617 23.0854626 61.2026432 23.0854626 56.1872247 23.0854626"></polygon>
                <polygon id="Path" points="86.4251101 18.5061674 86.4251101 13.9268722 84.6079295 13.9268722 82.7907489 13.9268722 82.7907489 12.3277533 82.7907489 10.7286344 88.1696035 10.7286344 93.5484581 10.7286344 93.5484581 12.3277533 93.5484581 13.9268722 91.7312775 13.9268722 89.9140969 13.9268722 89.9140969 18.5061674 89.9140969 23.0854626 88.1696035 23.0854626 86.4251101 23.0854626"></polygon>
            </g>
        </g>
    </g>
</svg>