<svg width="132" height="30" viewBox="0 0 132 30" xmlns="http://www.w3.org/2000/svg"><g fill="#2E2E2E" fill-rule="evenodd"><g fill-rule="nonzero"><path d="M14.281.465C6.394.465 0 6.859 0 14.747c0 7.887 6.394 14.282 14.281 14.282 7.887 0 14.282-6.395 14.282-14.282C28.563 6.859 22.17.465 14.281.465zm0 26.952c-6.997 0-12.67-5.673-12.67-12.67 0-6.998 5.672-12.67 12.67-12.67s12.67 5.672 12.67 12.67c0 6.997-5.672 12.67-12.67 12.67z"/><path d="M24.661 20.499l-2.073-2.422a.358.358 0 0 0-.424-.087 1.104 1.104 0 0 1-1.56-.794h.001a2.797 2.797 0 0 0-1.355-1.913l-.928-.536 5.28-3.047-.654-1.133-5.933 3.425-.713-.41v-.824l5.932-3.426-.653-1.132-5.279 3.049v-1.072c0-.853-.38-1.616-.98-2.13a1.103 1.103 0 0 1 .092-1.748.356.356 0 0 0 .137-.41l-1.06-3.007a.22.22 0 0 0-.418 0l-1.06 3.006a.358.358 0 0 0 .136.411h.001a1.105 1.105 0 0 1 .092 1.748c-.6.514-.98 1.278-.98 2.13v1.072L6.982 8.2 6.33 9.332l5.932 3.426v.824l-.713.41-5.932-3.425-.653 1.133 5.28 3.047-.93.536a2.795 2.795 0 0 0-1.354 1.913 1.105 1.105 0 0 1-1.56.794.358.358 0 0 0-.423.087l-2.074 2.42a.222.222 0 0 0-.026.258.223.223 0 0 0 .235.106l3.133-.587a.357.357 0 0 0 .288-.323 1.105 1.105 0 0 1 1.468-.954c.745.263 1.596.21 2.334-.217l.928-.535v6.096h1.307v-6.85l.713-.412.713.411v6.85h1.307v-6.095l.929.535c.738.427 1.589.48 2.334.217a1.103 1.103 0 0 1 1.467.953.358.358 0 0 0 .288.324l3.133.587a.224.224 0 0 0 .234-.107.223.223 0 0 0-.027-.255zm-12.4-3.763l-1.742 1.006a.713.713 0 1 1-.712-1.236l1.742-1.006.713.412v.824zm1.308-6.744a.713.713 0 1 1 1.426 0v2.01l-.713.412-.713-.411V9.992zm1.533 5.228l-.82.473-.82-.473v-.947l.82-.474.82.474v.947zm3.916 2.261a.715.715 0 0 1-.975.261l-1.742-1.006v-.823l.713-.412 1.742 1.006a.714.714 0 0 1 .262.974z"/></g><path d="M109.37 11.846h-4.766v-9.53h-4.354v24.861h4.354V16.26h4.766v10.917h4.45V2.317h-4.45zM31.742 2.316l4.832 15.244v9.617h4.837v-10.11l5.01-14.75H42.35l-3.288 9.685-2.977-9.686zM73.735 2.316L71.65 14.142 69.231 2.316h-6.797v24.861h3.897V8.437l3.327 16.291h3.64l2.95-16.556v19.005h4.57V2.317z"/><path d="M127.086 2.316h-6.733l-4.543 24.861h4.029l.963-5.785h5.012l.935 5.785h4.44l-4.103-24.86zm-5.593 14.932l1.853-11.119 1.798 11.119h-3.65zM87.353 2.316l-4.545 24.861h4.03l.964-5.785h5.012l.935 5.785h4.438l-4.102-24.86h-6.732zm1.14 14.932l1.852-11.119 1.798 11.119h-3.65zM49.535 2.316l-4.544 24.861h4.03l.965-5.785h5.01l.936 5.785h4.438l-4.102-24.86h-6.733zm1.14 14.932l1.853-11.119 1.798 11.119h-3.65z" fill-rule="nonzero"/></g></svg>