<svg width="138" height="16" viewBox="0 0 138 16" fill="none" xmlns="http://www.w3.org/2000/svg">
<path fill-rule="evenodd" clip-rule="evenodd" d="M125.522 1.32322C125.522 0.596381 126.118 0 126.845 0H136.602C137.328 0 137.925 0.596381 137.925 1.32322V6.11291C137.925 6.83975 137.328 7.43613 136.602 7.43613H135.586C134.859 7.43613 133.75 7.725 133.107 8.0791L129.566 10.0453C128.932 10.3994 128.662 10.1478 128.96 9.48619L129.37 8.59161C129.669 7.93 129.324 7.38953 128.597 7.38953H126.836C126.109 7.38953 125.513 6.79315 125.513 6.06631V1.32322" fill="#FD810B"/>
<path fill-rule="evenodd" clip-rule="evenodd" d="M125.531 13.7834C125.606 13.7834 125.671 13.7741 125.727 13.7461C125.774 13.7182 125.801 13.6716 125.801 13.5784C125.801 13.5318 125.792 13.4945 125.774 13.4759C125.755 13.4479 125.727 13.4293 125.699 13.42C125.671 13.4106 125.634 13.4013 125.596 13.392C125.559 13.392 125.522 13.3827 125.494 13.3827H125.261V13.7834H125.531ZM125.531 13.1031C125.736 13.1031 125.895 13.1497 125.997 13.2336C126.1 13.3175 126.156 13.4479 126.156 13.6063C126.156 13.7461 126.118 13.8486 126.044 13.9232C125.969 13.9977 125.876 14.0443 125.764 14.0536L126.165 14.7152H125.774L125.391 14.0629H125.261V14.7152H124.907V13.1031H125.531ZM124.525 14.3239C124.581 14.4543 124.646 14.5661 124.739 14.6686C124.832 14.7618 124.944 14.8457 125.065 14.9016C125.196 14.9575 125.336 14.9855 125.485 14.9855C125.634 14.9855 125.774 14.9575 125.904 14.9016C126.034 14.8457 126.146 14.7711 126.23 14.6686C126.323 14.5755 126.398 14.4543 126.444 14.3239C126.5 14.1934 126.519 14.0536 126.519 13.9138C126.519 13.7648 126.491 13.6343 126.444 13.5038C126.389 13.3734 126.323 13.2616 126.23 13.1591C126.137 13.0659 126.025 12.982 125.895 12.9261C125.764 12.8702 125.624 12.8422 125.475 12.8422C125.326 12.8422 125.186 12.8702 125.056 12.9261C124.926 12.982 124.814 13.0565 124.721 13.1591C124.627 13.2522 124.553 13.3734 124.506 13.5038C124.45 13.6343 124.432 13.7741 124.432 13.9138C124.441 14.0629 124.469 14.1934 124.525 14.3239ZM124.106 13.3268C124.18 13.1404 124.292 12.982 124.422 12.8515C124.553 12.7118 124.711 12.6093 124.898 12.5347C125.075 12.4602 125.27 12.4136 125.485 12.4136C125.69 12.4136 125.885 12.4508 126.072 12.5254C126.249 12.5999 126.416 12.7118 126.547 12.8422C126.687 12.982 126.789 13.1404 126.864 13.3175C126.938 13.4945 126.985 13.6902 126.985 13.9045C126.985 14.1189 126.948 14.3052 126.873 14.4916C126.799 14.678 126.687 14.8271 126.556 14.9668C126.416 15.0973 126.258 15.2091 126.081 15.2837C125.904 15.3582 125.708 15.3955 125.494 15.3955C125.289 15.3955 125.093 15.3582 124.907 15.2837C124.721 15.2091 124.562 15.1066 124.432 14.9668C124.292 14.8364 124.189 14.678 124.106 14.4916C124.031 14.3145 123.984 14.1189 123.984 13.9045C123.994 13.7088 124.031 13.5132 124.106 13.3268Z" fill="white"/>
<path fill-rule="evenodd" clip-rule="evenodd" d="M120.592 9.42957H118.44C118.281 9.42957 118.225 9.32707 118.225 9.21525L118.244 8.93569C118.281 8.36727 118.822 7.94794 119.53 7.94794C120.22 7.94794 120.769 8.35795 120.816 8.91706L120.835 9.19661C120.835 9.32707 120.788 9.42957 120.592 9.42957ZM119.446 5.69287C117.117 5.69287 115.458 7.37019 115.458 9.2898V11.8337C115.458 13.9677 117.042 15.4493 119.446 15.4493C120.751 15.4493 121.692 14.9927 122.363 14.3404C122.68 14.0236 122.931 13.6508 123.155 13.2781C123.276 13.0824 123.211 12.8588 123.099 12.8029L121.142 11.8151C121.021 11.7592 120.9 11.7965 120.844 11.9735C120.574 12.6631 120.117 12.9799 119.446 12.9799C118.719 12.9799 118.198 12.486 118.198 11.8524V11.4144C118.198 11.2746 118.253 11.2001 118.43 11.2001H123.192C123.313 11.2001 123.388 11.1442 123.388 11.0044V9.2898C123.397 7.38883 121.757 5.69287 119.446 5.69287Z" fill="white"/>
<path fill-rule="evenodd" clip-rule="evenodd" d="M110.92 8.12714C111.535 8.12714 111.982 8.51852 112.318 9.31059C112.374 9.45036 112.476 9.48764 112.616 9.43173L114.554 8.56511C114.675 8.5092 114.713 8.38806 114.657 8.22964C114.48 7.81963 114.284 7.43758 114.023 7.12075C113.371 6.25413 112.402 5.76025 110.901 5.76025C108.451 5.76025 106.969 7.24189 106.969 9.37581V11.78C106.969 13.9139 108.451 15.3769 110.901 15.3769C112.28 15.3769 113.194 14.9669 113.846 14.2307C114.181 13.858 114.442 13.4014 114.657 12.8889C114.713 12.7305 114.675 12.628 114.554 12.572L112.616 11.6868C112.476 11.6309 112.383 11.6682 112.318 11.8079C111.982 12.6 111.526 13.01 110.92 13.01C110.193 13.01 109.718 12.4975 109.718 11.8638V9.27331C109.708 8.63966 110.184 8.12714 110.92 8.12714Z" fill="white"/>
<path fill-rule="evenodd" clip-rule="evenodd" d="M105.226 5.97217H102.878C102.738 5.97217 102.682 6.02808 102.682 6.16786V14.9552C102.682 15.0949 102.738 15.1508 102.878 15.1508H105.226C105.338 15.1508 105.403 15.0949 105.403 14.9552V6.16786C105.403 6.02808 105.319 5.97217 105.226 5.97217Z" fill="white"/>
<path fill-rule="evenodd" clip-rule="evenodd" d="M104.034 2.09668C103.269 2.09668 102.645 2.72102 102.645 3.48513C102.645 4.24924 103.269 4.87358 104.034 4.87358C104.798 4.87358 105.422 4.24924 105.422 3.48513C105.422 2.72102 104.807 2.09668 104.034 2.09668Z" fill="white"/>
<path fill-rule="evenodd" clip-rule="evenodd" d="M101.443 5.97217H98.9363C98.8338 5.97217 98.7593 6.02808 98.722 6.13058L97.2404 10.3798C97.1658 10.5941 97.0447 11.1066 97.0074 11.3676H96.9515C96.9142 11.1066 96.8117 10.6407 96.7185 10.3798L95.181 6.11194C95.1437 6.00944 95.0878 5.97217 94.9853 5.97217H92.4786C92.3016 5.97217 92.2457 6.09331 92.3016 6.25172L95.8333 15.0204C95.8706 15.1136 95.9451 15.1602 96.029 15.1602H97.8647C97.9672 15.1602 98.0418 15.1229 98.079 15.0204L101.629 6.25172C101.685 6.09331 101.629 5.97217 101.443 5.97217Z" fill="white"/>
<path fill-rule="evenodd" clip-rule="evenodd" d="M88.4999 11.742C88.4999 12.3943 87.9687 12.8882 87.2791 12.8882C86.5709 12.8882 86.0771 12.3943 86.0771 11.742V9.3751C86.0771 8.74144 86.5709 8.2662 87.2791 8.2662C87.9873 8.2662 88.4999 8.74144 88.4999 9.3751V11.742ZM91.0252 2.7124H88.6956C88.6024 2.7124 88.4999 2.76831 88.4999 2.90809V5.65703C88.4999 5.95522 88.5558 6.52365 88.5558 6.52365C88.1644 6.16955 87.5121 5.97386 87.0369 5.97386C84.8843 5.97386 83.3281 7.41822 83.3281 9.57079V11.5649C83.3281 13.8573 84.67 15.1619 87.0835 15.1619C87.6332 15.1619 88.2855 14.9848 88.7049 14.6307C88.826 14.5282 88.9658 14.5655 88.9658 14.7239V15.0221C88.9658 15.0966 89.0217 15.1619 89.1242 15.1619H91.0345C91.1556 15.1619 91.2302 15.1059 91.2302 14.9662V2.90809C91.2209 2.77763 91.1463 2.7124 91.0252 2.7124Z" fill="white"/>
<path fill-rule="evenodd" clip-rule="evenodd" d="M78.1934 10.9126H76.9914C76.7957 10.9126 76.7118 10.7915 76.7584 10.6797L77.1684 9.07691C77.3641 8.35007 77.5225 7.47413 77.5598 6.96162H77.6436C77.6809 7.47413 77.8021 8.34075 77.9977 9.07691L78.4171 10.6797C78.4544 10.7915 78.3705 10.9126 78.1934 10.9126ZM78.6687 2.85218C78.6314 2.74968 78.5662 2.7124 78.473 2.7124H76.7118C76.5907 2.7124 76.5534 2.74968 76.5161 2.85218L72.6303 14.9009C72.5744 15.0594 72.649 15.1619 72.826 15.1619H75.314C75.4165 15.1619 75.4538 15.1246 75.4911 15.0221L76.0595 13.2236C76.0968 13.1211 76.1341 13.1025 76.2738 13.1025H78.883C79.0228 13.1025 79.06 13.1211 79.0973 13.2236L79.6471 15.0221C79.6844 15.1153 79.731 15.1619 79.8428 15.1619H82.3495C82.5452 15.1619 82.6104 15.0594 82.5452 14.9009L78.6687 2.85218Z" fill="white"/>
<path fill-rule="evenodd" clip-rule="evenodd" d="M65.539 9.42957H63.3864C63.228 9.42957 63.1721 9.32707 63.1721 9.21525L63.1908 8.93569C63.228 8.36727 63.7685 7.94794 64.4767 7.94794C65.1663 7.94794 65.7254 8.35795 65.7627 8.91706L65.7813 9.19661C65.772 9.32707 65.7347 9.42957 65.539 9.42957ZM64.3928 5.69287C62.0632 5.69287 60.4045 7.37019 60.4045 9.2898V11.8337C60.4045 13.9677 61.9794 15.4493 64.3928 15.4493C65.6974 15.4493 66.6479 14.9927 67.3188 14.3404C67.6357 14.0236 67.8966 13.6508 68.1109 13.2781C68.232 13.0824 68.1668 12.8588 68.055 12.8029L66.0981 11.8151C65.977 11.7592 65.8652 11.7965 65.7999 11.9735C65.5204 12.6631 65.0731 12.9799 64.4022 12.9799C63.6753 12.9799 63.1535 12.486 63.1535 11.8524V11.4144C63.1535 11.2746 63.2094 11.2001 63.3958 11.2001H68.1575C68.2786 11.2001 68.3532 11.1442 68.3532 11.0044V9.2898C68.3439 7.38883 66.7038 5.69287 64.3928 5.69287Z" fill="white"/>
<path fill-rule="evenodd" clip-rule="evenodd" d="M59.2211 6.00944C59.0813 5.9908 58.9229 5.97217 58.7086 5.97217C57.9631 5.97217 57.2456 6.32627 56.9287 6.71764C56.8262 6.81083 56.6678 6.80151 56.6678 6.62446V6.16786C56.6678 6.02808 56.6119 5.97217 56.4721 5.97217H54.5991C54.478 5.97217 54.4034 6.02808 54.4034 6.16786V14.9552C54.4034 15.0949 54.478 15.1508 54.5991 15.1508H56.9287C57.0499 15.1508 57.1244 15.0949 57.1244 14.9552V9.71819C57.1244 9.02862 57.6183 8.53474 58.3079 8.53474C58.6061 8.53474 58.8577 8.57202 59.0999 8.63725C59.277 8.67452 59.3981 8.61861 59.3981 8.44156V6.20513C59.3981 6.11194 59.3329 6.02808 59.2211 6.00944Z" fill="white"/>
<path fill-rule="evenodd" clip-rule="evenodd" d="M48.7472 13.0193H48.0203C47.601 13.0193 47.368 12.7584 47.368 12.2086C47.368 11.8172 47.6476 11.5377 48.039 11.5377H49.7163C49.8374 11.5377 49.8747 11.752 49.8747 11.8172C49.8281 12.5441 49.2783 13.0193 48.7472 13.0193ZM48.6913 5.76025C47.4705 5.76025 46.5573 6.15163 45.8864 6.76665C45.5137 7.10211 45.2155 7.49349 44.9825 7.93145C44.8614 8.12714 44.9266 8.35078 45.0384 8.4067L46.9953 9.39445C47.1164 9.45036 47.2283 9.41309 47.2935 9.23604C47.573 8.54647 48.0203 8.22964 48.6913 8.22964C49.4181 8.22964 49.8747 8.72352 49.8747 9.35718V9.45968C49.8747 9.59946 49.8188 9.674 49.679 9.674H47.9365C46.2032 9.674 44.7961 10.6245 44.7961 12.2832V12.4789C44.7961 14.1562 46.0635 15.1626 47.7594 15.1626H48.449C48.9801 15.1626 49.5765 14.9855 49.9865 14.6501C50.0611 14.5941 50.1636 14.6128 50.1822 14.6687L50.2381 15.0042C50.2568 15.1067 50.3406 15.1626 50.4524 15.1626H52.3907C52.5118 15.1626 52.5864 15.1067 52.5864 14.9669V9.37581C52.5957 7.24189 51.0954 5.76025 48.6913 5.76025Z" fill="white"/>
<path fill-rule="evenodd" clip-rule="evenodd" d="M44.0041 5.97217H41.6186C41.4974 5.97217 41.4229 6.02808 41.4042 6.13058L40.519 9.83933C40.4165 10.2587 40.3419 10.8457 40.3233 11.2651H40.2581C40.2394 10.8457 40.1556 10.3146 40.0437 9.83933L39.1492 6.13058C39.1305 6.02808 39.0467 5.97217 38.9348 5.97217H36.978C36.8568 5.97217 36.8009 6.02808 36.7823 6.13058L35.9157 9.82069C35.8132 10.2307 35.7386 10.7712 35.7013 11.1625H35.6454C35.6268 10.7712 35.5522 10.2307 35.4497 9.82069L34.5272 6.13058C34.5086 6.02808 34.4527 5.97217 34.3315 5.97217H31.8808C31.7037 5.97217 31.6385 6.07467 31.7037 6.23308L34.4899 15.0204C34.5272 15.1136 34.5924 15.1602 34.6856 15.1602H36.4282C36.5493 15.1602 36.6052 15.1229 36.6239 15.0204L37.7141 10.9296C37.8353 10.473 37.9284 9.70887 37.9284 9.70887H37.9844C37.9844 9.70887 38.0869 10.4823 38.1987 10.9296L39.261 14.9924C39.2796 15.0949 39.3355 15.1508 39.4567 15.1508H41.1713C41.2738 15.1508 41.3297 15.1136 41.367 15.0111L44.1904 6.22377C44.2464 6.09331 44.1811 5.97217 44.0041 5.97217Z" fill="white"/>
<path fill-rule="evenodd" clip-rule="evenodd" d="M30.688 5.97297H29.3648C29.1877 5.97297 29.1318 5.91706 29.1318 5.77729V4.52861C29.1318 4.38884 29.0945 4.35156 28.9548 4.35156H27.7061C27.6315 4.35156 27.529 4.38884 27.4731 4.45407L25.0037 6.92346V8.26531C25.0037 8.40509 25.0596 8.44236 25.1994 8.44236H26.1872C26.3642 8.44236 26.4201 8.52623 26.4201 8.65669V11.7411C26.4201 14.108 27.9018 15.338 29.7748 15.338H30.6041C30.7812 15.338 30.865 15.2635 30.865 15.1237V13.0923C30.865 12.9711 30.8091 12.8966 30.6693 12.8966H30.3339C29.5232 12.8966 29.1318 12.4027 29.1318 11.5547V8.65669C29.1318 8.51691 29.1877 8.44236 29.3648 8.44236H30.688C30.8278 8.44236 30.865 8.40509 30.865 8.26531V6.16866C30.865 6.02888 30.8278 5.97297 30.688 5.97297Z" fill="white"/>
<path fill-rule="evenodd" clip-rule="evenodd" d="M24.7895 2.61829C24.454 2.54374 23.9042 2.47852 23.3917 2.47852C20.4657 2.47852 19.3661 4.50994 19.3661 6.11271V6.60659C19.3661 6.74637 19.3102 6.80228 19.1518 6.80228H18.6952C18.5741 6.80228 18.4995 6.85819 18.4995 6.99797V9.07598C18.4995 9.21576 18.5741 9.27167 18.6952 9.27167H19.1518C19.3289 9.27167 19.3661 9.32758 19.3661 9.46736V14.9559C19.3661 15.0957 19.422 15.1516 19.5618 15.1516H21.8914C22.0312 15.1516 22.0871 15.0957 22.0871 14.9559V9.46736C22.0871 9.32758 22.143 9.27167 22.3014 9.27167H23.5781C23.7178 9.27167 23.7738 9.21576 23.7738 9.07598V6.99797C23.7738 6.85819 23.7178 6.80228 23.5781 6.80228H22.2921C22.1337 6.80228 22.0778 6.74637 22.0778 6.60659V6.07544C22.0778 5.38587 22.5717 4.94791 23.3172 4.94791C23.5781 4.94791 23.8483 4.98518 24.0626 5.05041C24.2024 5.08768 24.277 5.05041 24.3235 4.92927L24.9386 2.89785C24.9852 2.75807 24.9479 2.65557 24.7895 2.61829Z" fill="white"/>
<path fill-rule="evenodd" clip-rule="evenodd" d="M14.5765 11.8545C14.5765 12.4882 14.064 13.0007 13.3744 13.0007C12.6476 13.0007 12.1257 12.4882 12.1257 11.8545V9.27331C12.1257 8.65829 12.6383 8.12714 13.3744 8.12714C14.064 8.12714 14.5765 8.63966 14.5765 9.27331V11.8545ZM13.3744 5.76025C10.9609 5.76025 9.38611 7.24189 9.38611 9.37581V11.78C9.38611 13.9139 10.9609 15.3769 13.3744 15.3769C15.7413 15.3769 17.3254 13.9325 17.3254 11.78V9.37581C17.3254 7.21393 15.7413 5.76025 13.3744 5.76025Z" fill="white"/>
<path fill-rule="evenodd" clip-rule="evenodd" d="M5.14614 7.72481C4.05588 7.31479 2.89107 7.0166 2.89107 6.13135C2.89107 5.42315 3.42222 4.94791 4.11179 4.94791H4.40998C5.08091 4.94791 5.53751 5.26473 5.81707 5.9543C5.87298 6.13135 5.99412 6.16862 6.11526 6.11271L8.07213 5.12496C8.19327 5.06905 8.24918 4.8454 8.12804 4.64972C7.96963 4.35152 7.77394 4.06265 7.53166 3.80174C6.8421 3.0283 5.85434 2.47852 4.40998 2.47852H4.11179C1.6424 2.47852 0.123489 3.94151 0.123489 6.16862C0.123489 8.44233 1.58649 9.29031 3.40359 10.0171C4.58703 10.4924 5.61206 10.744 5.61206 11.7317C5.61206 12.5424 4.9784 12.8965 4.2702 12.8965H3.77632C3.10539 12.8965 2.64879 12.5797 2.37856 11.8902C2.32264 11.7131 2.2015 11.6758 2.08036 11.7317L0.123489 12.7195C0.00234945 12.7754 -0.0535613 12.9991 0.0675786 13.1947C0.244629 13.5116 0.458954 13.8284 0.71987 14.1079C1.3908 14.8534 2.37856 15.3659 3.77632 15.3659H4.40998C6.91664 15.3659 8.37964 13.9216 8.37964 11.6945C8.37964 9.39281 7.01915 8.46096 5.14614 7.72481Z" fill="white"/>
</svg>
