<svg width="160" height="43" viewBox="0 0 160 43" fill="none" xmlns="http://www.w3.org/2000/svg">
<path fill-rule="evenodd" clip-rule="evenodd" d="M35.1895 12.7163C35.4042 12.4267 35.7011 12.0385 36.0595 11.5772C36.3986 11.1412 36.71 10.7447 37.0214 10.3506C37.1304 10.2127 37.2316 10.0849 37.3224 9.97052C37.3768 9.90201 37.4157 9.8531 37.4361 9.82754C37.7651 9.4145 37.7391 8.82209 37.3751 8.43947L34.3525 5.26165C33.9627 4.85181 33.3195 4.82117 32.8924 5.1921C32.8673 5.21398 32.8673 5.21398 32.7521 5.31379C32.64 5.41091 32.5149 5.51917 32.3798 5.63577C31.9941 5.96881 31.6066 6.30181 31.2427 6.61231C30.7951 6.99404 30.4503 7.285 30.18 7.50899C28.6776 6.44336 26.8619 5.7021 24.7812 5.24133C24.7477 4.95386 24.7081 4.59018 24.6638 4.16452C24.6535 4.06541 24.643 3.96338 24.6323 3.85865C24.584 3.38729 24.5339 2.88181 24.485 2.37627C24.4678 2.19929 24.452 2.03495 24.438 1.88752C24.4235 1.73599 24.4235 1.73599 24.4204 1.70273C24.3692 1.15937 23.9131 0.744141 23.3673 0.744141H19.0491C18.5172 0.744141 18.068 1.13918 18 1.66676C17.9958 1.69971 17.9958 1.69971 17.9763 1.84952C17.9574 1.99526 17.9362 2.1577 17.9133 2.33265C17.8478 2.83238 17.7814 3.33206 17.7181 3.79808C17.706 3.88766 17.706 3.88766 17.6938 3.97702C17.6297 4.44691 17.5735 4.84688 17.5275 5.15871C15.472 5.55137 13.5603 6.32545 11.9303 7.4434C11.6653 7.23612 11.3253 6.95938 10.929 6.62962C10.4782 6.25344 10.1016 5.93452 9.72866 5.61552C9.59805 5.50382 9.47725 5.40011 9.36927 5.3071C9.30467 5.25146 9.25856 5.21163 9.23477 5.19102C8.81482 4.82737 8.18513 4.85054 7.79303 5.24406L4.77045 8.27769C4.40506 8.64441 4.35877 9.22172 4.66107 9.64197C4.68064 9.66918 4.68064 9.66918 4.76964 9.79312C4.85624 9.91376 4.95275 10.0484 5.0567 10.1936C5.35362 10.6085 5.65051 11.0249 5.92741 11.4156C6.27828 11.9108 6.54974 12.2975 6.75475 12.5944C5.56919 14.1778 4.72901 16.2405 4.46653 18.2812C4.40908 18.2863 4.34877 18.2915 4.28573 18.2967C3.97327 18.3229 3.60041 18.3505 3.1803 18.3791C2.70397 18.4115 2.19284 18.4434 1.6816 18.4734C1.50258 18.4839 1.33637 18.4934 1.18728 18.5017C1.09801 18.5067 1.03415 18.5102 1.00083 18.512C0.439583 18.5423 0 19.0062 0 19.5683V23.9016C0 24.4433 0.409249 24.8975 0.948029 24.9537C0.98192 24.9572 1.04628 24.964 1.13674 24.9737C1.28793 24.9899 1.45652 25.0083 1.63811 25.0284C2.1566 25.0859 2.67494 25.1462 3.15771 25.2062C3.43352 25.2405 3.68982 25.2737 3.92266 25.3056C4.16162 25.3382 4.37283 25.369 4.55216 25.3974C4.83113 27.1943 5.61543 28.9048 6.89778 30.8313C6.67897 31.1244 6.37749 31.5125 6.01386 31.971C5.64154 32.4395 5.31641 32.8434 4.9912 33.244C4.87733 33.3842 4.77161 33.514 4.67679 33.6301C4.62003 33.6996 4.57941 33.7492 4.55828 33.775C4.20738 34.2026 4.24521 34.8284 4.64506 35.2106L7.66724 38.0996C8.0491 38.4647 8.64172 38.492 9.05556 38.1637C9.08108 38.1434 9.1304 38.1044 9.1995 38.0499C9.31499 37.9587 9.44415 37.8571 9.58379 37.7476C9.98256 37.435 10.385 37.1225 10.7653 36.8313C11.3346 36.3964 11.7319 36.1003 12.0273 35.8904C14.1544 37.1985 15.8042 37.9385 17.5793 38.215C17.5856 38.2763 17.5921 38.3411 17.5988 38.4092C17.6297 38.7275 17.6625 39.1107 17.6964 39.5442C17.7338 40.0226 17.7706 40.5361 17.8051 41.0497C17.8172 41.2296 17.8281 41.3966 17.8377 41.5463C17.8435 41.636 17.8475 41.7001 17.8496 41.7335C17.884 42.2913 18.3464 42.7261 18.9053 42.7261H23.0794C23.6217 42.7261 24.0761 42.316 24.1316 41.7765C24.135 41.7427 24.1417 41.6786 24.1513 41.5884C24.1672 41.4376 24.1854 41.2694 24.2053 41.0883C24.2621 40.5711 24.322 40.0541 24.3819 39.5727C24.4207 39.2605 24.4583 38.9737 24.4942 38.7179C24.5262 38.4894 24.5565 38.2887 24.5843 38.1202C26.6393 37.6605 28.5383 36.8687 30.1945 35.7657C30.4747 35.9817 30.8408 36.2777 31.2702 36.6342C31.3249 36.6796 31.3249 36.6797 31.3797 36.7252C31.7492 37.0331 32.1396 37.3636 32.5259 37.6941C32.6612 37.8099 32.7863 37.9174 32.898 38.0138C32.9649 38.0714 33.0123 38.1124 33.0371 38.134C33.4645 38.5048 34.1081 38.4736 34.4976 38.0631L37.376 35.0299C37.7574 34.628 37.764 33.9999 37.3911 33.59C37.3693 33.566 37.3279 33.5203 37.2695 33.4558C37.172 33.3478 37.0632 33.227 36.946 33.0962C36.6113 32.7229 36.2768 32.3452 35.9652 31.9874C35.9152 31.93 35.9152 31.93 35.8654 31.8725C35.5253 31.4802 35.2401 31.1426 35.0269 30.878C36.1573 29.3051 36.9357 27.5257 37.3622 25.4998C37.4813 25.4819 37.6161 25.4631 37.7651 25.4435C38.0641 25.4042 38.4138 25.3627 38.8037 25.3198C39.2878 25.2665 39.8078 25.2138 40.3279 25.164C40.51 25.1466 40.6792 25.1308 40.8308 25.117C40.9215 25.1087 40.986 25.1029 41.02 25.0999C41.566 25.0516 41.9847 24.5943 41.9847 24.0462V19.4241C41.9847 18.8666 41.5521 18.4049 40.9959 18.3685C40.9624 18.3664 40.8981 18.3621 40.8082 18.356C40.658 18.3459 40.4906 18.3343 40.3103 18.3216C39.7954 18.2852 39.2805 18.2467 38.8009 18.2078C38.4258 18.1774 38.0879 18.148 37.7965 18.1201C37.635 18.1046 37.4895 18.0897 37.3615 18.0756C36.817 16.0229 36.1484 14.3759 35.1895 12.7163ZM38.5738 23.2152C38.1704 23.2596 37.8065 23.3028 37.4913 23.3442C37.1183 23.3932 36.8178 23.439 36.5925 23.4829C36.4484 23.511 36.3298 23.539 36.2259 23.572C36.1365 23.6003 36.0551 23.6326 35.9691 23.6798C35.8862 23.7252 35.8069 23.7799 35.7275 23.8559C35.5718 24.0048 35.4511 24.1993 35.4076 24.4573C35.0337 26.6971 34.204 28.5636 32.9087 30.1692C32.6805 30.4513 32.6394 30.747 32.6845 31.0257C32.7029 31.1392 32.7341 31.2328 32.7747 31.3246C32.8161 31.418 32.8658 31.5044 32.9283 31.5998C33.0129 31.7291 33.1284 31.8848 33.2775 32.0736C33.5216 32.3827 33.8582 32.7833 34.2687 33.2567C34.32 33.3158 34.32 33.3158 34.3714 33.3749C34.6274 33.6688 34.8975 33.9748 35.1704 34.2807L33.6573 35.8752C33.3456 35.6097 33.0343 35.347 32.7354 35.098C32.6793 35.0513 32.6793 35.0513 32.6231 35.0046C32.1361 34.6004 31.7245 34.2683 31.408 34.0274C31.2162 33.8813 31.0586 33.7679 30.9297 33.6853C30.8369 33.6258 30.7539 33.5784 30.6661 33.5388C30.5813 33.5007 30.4954 33.4706 30.3917 33.4506C30.119 33.3981 29.8341 33.4235 29.5403 33.6404C27.8437 34.8949 25.7968 35.7535 23.5355 36.1744C23.266 36.2246 23.0726 36.3549 22.9257 36.5198C22.8551 36.5989 22.8046 36.6766 22.7624 36.7578C22.7186 36.8421 22.6877 36.9231 22.6598 37.0131C22.6258 37.1227 22.5953 37.252 22.5639 37.4104C22.5138 37.6637 22.4596 38.0032 22.4008 38.4224C22.3633 38.6899 22.3243 38.9873 22.2842 39.3097C22.2325 39.7254 22.181 40.1652 22.1314 40.6088H19.8973C19.8683 40.1882 19.838 39.7717 19.8072 39.3775C19.7723 38.9317 19.7384 38.536 19.706 38.2027C19.6733 37.8665 19.6426 37.5975 19.6129 37.398C19.594 37.2711 19.575 37.1674 19.5523 37.0767C19.5318 36.9952 19.5084 36.9214 19.4718 36.8403C19.4264 36.7426 19.4264 36.7426 19.3112 36.5824C19.1157 36.3616 19.1157 36.3616 18.5661 36.1984C16.7412 36.0622 15.0782 35.3248 12.6079 33.7554C12.3011 33.5608 12.0406 33.5565 11.778 33.6177C11.6895 33.6384 11.6156 33.6656 11.5416 33.6992C11.4629 33.7348 11.3858 33.7775 11.2983 33.831C11.1721 33.9082 11.0145 34.0146 10.8215 34.1514C10.4999 34.3793 10.0791 34.6928 9.58052 35.0736C9.53064 35.1117 9.53064 35.1117 9.48083 35.1498C9.1531 35.4008 8.8102 35.6665 8.46735 35.9345L6.81453 34.3544C7.08363 34.0219 7.35015 33.6901 7.60227 33.3729C7.63763 33.3284 7.63764 33.3284 7.67299 33.2838C8.06902 32.7845 8.39537 32.3638 8.63281 32.0438C8.77466 31.8527 8.88492 31.6973 8.96478 31.5744C9.01959 31.49 9.06334 31.4164 9.1003 31.3419C9.1358 31.2704 9.16498 31.1995 9.18871 31.1131C9.26816 30.8237 9.27123 30.5417 9.03477 30.2047C7.51471 28.0357 6.70845 26.2774 6.57511 24.4649C6.55125 24.1377 6.40382 23.9045 6.20904 23.7338C6.12418 23.6594 6.04242 23.6085 5.95631 23.5661C5.87171 23.5245 5.79081 23.4954 5.69955 23.4689C5.58819 23.4364 5.45406 23.4065 5.28817 23.3752C5.01995 23.3246 4.65783 23.2688 4.21082 23.2077C3.96882 23.1746 3.70415 23.1403 3.42028 23.105C3.00341 23.0532 2.56214 23.0014 2.11719 22.9513V20.5651C2.53003 20.5403 2.93861 20.5143 3.32557 20.488C3.75577 20.4587 4.13902 20.4303 4.46379 20.4031C4.80397 20.3747 5.07586 20.348 5.27586 20.3225C5.40064 20.3066 5.50172 20.2908 5.5881 20.2722C5.66426 20.2559 5.73246 20.2374 5.80785 20.2083C5.89959 20.172 5.89959 20.172 6.0616 20.0713C6.30471 19.8933 6.30471 19.8933 6.50475 19.2545C6.59994 17.1431 7.53439 14.853 8.8538 13.3642C9.28287 12.8779 9.24366 12.714 9.02667 12.2216C9.00546 12.1734 8.98439 12.1333 8.95953 12.0897C8.93188 12.0413 8.89797 11.9867 8.8549 11.9201C8.78504 11.812 8.68647 11.6656 8.55976 11.4813C8.34214 11.1646 8.04392 10.7394 7.684 10.2313C7.41479 9.8515 7.15994 9.49374 6.90306 9.13446L8.60055 7.43078C8.8983 7.68431 9.19529 7.93508 9.48022 8.1729C9.52879 8.21343 9.52879 8.21343 9.57743 8.25393C10.0464 8.64423 10.4422 8.96523 10.7452 9.19854C10.9283 9.33955 11.0782 9.4491 11.1996 9.52911C11.2865 9.58641 11.3637 9.63224 11.4451 9.67118C11.5254 9.70963 11.6062 9.74047 11.7053 9.76296C11.9944 9.82851 12.2941 9.81028 12.6094 9.56502C14.2556 8.28733 16.3273 7.44768 18.5912 7.12399C19.2019 7.03615 19.2784 6.89888 19.4473 6.41186C19.4639 6.36398 19.4753 6.32222 19.4863 6.27597C19.4981 6.22567 19.5096 6.16814 19.5223 6.09731C19.5427 5.98377 19.5677 5.82813 19.5975 5.63037C19.6491 5.2888 19.7148 4.82375 19.7915 4.26132C19.8039 4.1711 19.8039 4.1711 19.8161 4.08071C19.8692 3.68972 19.9244 3.27572 19.9794 2.85791H22.4081C22.4487 3.27287 22.4897 3.68377 22.5294 4.07229C22.5403 4.17818 22.5509 4.28141 22.5614 4.38174C22.6175 4.92086 22.6663 5.36421 22.7059 5.68926C22.729 5.87796 22.7489 6.02679 22.7663 6.13705C22.7775 6.20865 22.7882 6.26766 22.8005 6.3216C22.8123 6.37376 22.8254 6.42165 22.8455 6.47724C22.9908 6.87953 23.1067 7.06948 23.6579 7.16971C26.0515 7.61164 28.0286 8.42539 29.5065 9.65421C29.9865 10.0527 30.2388 9.99302 30.6593 9.7891C30.7168 9.76123 30.7631 9.73363 30.8121 9.70133C30.8639 9.66728 30.9195 9.62685 30.9861 9.57597C31.0906 9.49621 31.2295 9.38477 31.4036 9.2417C31.7007 8.99755 32.0976 8.66322 32.5711 8.25947C32.9069 7.97294 33.2107 7.7123 33.5165 7.44878L35.2109 9.23015C34.9476 9.56397 34.6867 9.89674 34.4403 10.2135C34.0131 10.7634 33.7009 11.1718 33.473 11.4798C33.3384 11.6617 33.2335 11.8082 33.1579 11.9209C33.1082 11.9949 33.0685 12.058 33.0349 12.1187C33.0034 12.1758 32.9766 12.231 32.9517 12.2981C32.8366 12.6081 32.8029 12.8544 33.0409 13.2399C34.1808 15.0874 34.8922 16.8301 35.4777 19.2447C35.5533 19.5543 35.7179 19.7424 35.918 19.8787C36.0605 19.9639 36.0605 19.9639 36.1465 19.9987C36.2205 20.0277 36.2898 20.0474 36.367 20.0651C36.4602 20.0864 36.5708 20.1053 36.7069 20.1244C36.9275 20.1556 37.2256 20.1887 37.5963 20.2242C37.8991 20.2532 38.247 20.2835 38.6315 20.3147C39.0283 20.3468 39.4475 20.3787 39.8708 20.4092V23.0811C39.4279 23.1243 38.9888 23.1695 38.5738 23.2152Z" fill="#FF3429"/>
<path fill-rule="evenodd" clip-rule="evenodd" d="M20.7389 11.332C14.9075 11.332 10.1816 16.0738 10.1816 21.9212C10.1816 27.7687 14.9075 32.5104 20.7389 32.5104C26.57 32.5104 31.2958 27.7686 31.2958 21.9212C31.2958 16.0738 26.57 11.332 20.7389 11.332ZM20.7406 13.4507C25.4017 13.4507 29.1819 17.2437 29.1819 21.9243C29.1819 26.6049 25.4017 30.3979 20.7406 30.3979C16.0791 30.3979 12.2988 26.605 12.2988 21.9243C12.2988 17.2437 16.0791 13.4507 20.7406 13.4507Z" fill="#FF3429"/>
<path fill-rule="evenodd" clip-rule="evenodd" d="M70.1394 24.4788C70.1394 25.869 69.9004 27.1235 69.4225 28.2423C68.9446 29.361 68.2929 30.3114 67.4675 31.0934C66.642 31.8755 65.6645 32.4783 64.5349 32.9019C63.4053 33.3255 62.178 33.5373 60.8529 33.5373C59.5278 33.5373 58.3005 33.3255 57.1709 32.9019C56.0413 32.4783 55.0583 31.8755 54.222 31.0934C53.3857 30.3114 52.734 29.361 52.267 28.2423C51.7999 27.1235 51.5664 25.869 51.5664 24.4788V9.88086H55.672V24.3158C55.672 24.9893 55.7589 25.6572 55.9327 26.3198C56.1065 26.9823 56.3943 27.5743 56.7962 28.0956C57.198 28.617 57.7302 29.0406 58.3928 29.3664C59.0553 29.6923 59.8754 29.8552 60.8529 29.8552C61.8304 29.8552 62.6504 29.6923 63.313 29.3664C63.9755 29.0406 64.5077 28.617 64.9096 28.0956C65.3115 27.5743 65.5993 26.9823 65.7731 26.3198C65.9469 25.6572 66.0338 24.9893 66.0338 24.3158V9.88086H70.1394V24.4788ZM76.3409 17.3102V19.4934H76.4387C76.6342 19.1892 76.8894 18.8797 77.2044 18.5647C77.5194 18.2497 77.905 17.9673 78.3611 17.7175C78.8173 17.4677 79.3332 17.2613 79.9089 17.0984C80.4845 16.9355 81.1308 16.854 81.8476 16.854C82.9555 16.854 83.9765 17.0658 84.9106 17.4894C85.8446 17.913 86.6484 18.4941 87.3218 19.2327C87.9952 19.9713 88.5165 20.8402 88.8858 21.8394C89.2551 22.8387 89.4398 23.914 89.4398 25.0653C89.4398 26.2166 89.2605 27.2974 88.9021 28.3075C88.5437 29.3176 88.0332 30.1974 87.3707 30.9468C86.7081 31.6963 85.9044 32.2937 84.9594 32.739C84.0145 33.1843 82.9447 33.407 81.7499 33.407C80.642 33.407 79.6265 33.1789 78.7033 32.7227C77.7801 32.2665 77.0686 31.6474 76.569 30.8654H76.5038V40.7711H72.5938V17.3102H76.3409ZM85.4639 25.066C85.4639 24.4577 85.3715 23.8549 85.1869 23.2575C85.0023 22.6601 84.7253 22.1225 84.356 21.6446C83.9867 21.1667 83.5197 20.7811 82.9549 20.4878C82.3901 20.1946 81.7276 20.0479 80.9673 20.0479C80.2504 20.0479 79.6096 20.2 79.0448 20.5041C78.48 20.8082 77.9967 21.1992 77.5948 21.6772C77.1929 22.1551 76.8888 22.6981 76.6824 23.3064C76.4761 23.9146 76.3729 24.5229 76.3729 25.1311C76.3729 25.7394 76.4761 26.3422 76.6824 26.9396C76.8888 27.537 77.1929 28.0746 77.5948 28.5525C77.9967 29.0304 78.48 29.416 79.0448 29.7093C79.6096 30.0025 80.2504 30.1492 80.9673 30.1492C81.7276 30.1492 82.3901 29.9971 82.9549 29.693C83.5197 29.3888 83.9867 28.9978 84.356 28.5199C84.7253 28.042 85.0023 27.4989 85.1869 26.8907C85.3715 26.2824 85.4639 25.6742 85.4639 25.066ZM91.1787 9.88086H95.2843V19.8517H95.3821L105.027 9.88086H110.566L99.7809 20.536L111.283 32.9507H105.516L95.3821 21.3832H95.2843V32.9507H91.1787V9.88086ZM121.233 23.5687C121.233 23.0691 121.163 22.5912 121.022 22.135C120.88 21.6788 120.658 21.2769 120.354 20.9293C120.049 20.5818 119.664 20.3048 119.197 20.0984C118.73 19.8921 118.181 19.7889 117.551 19.7889C116.378 19.7889 115.384 20.1419 114.57 20.8479C113.755 21.5539 113.304 22.4608 113.218 23.5687H121.233ZM125.143 25.326V25.8474C125.143 26.0211 125.132 26.1949 125.11 26.3687H113.217C113.26 26.9335 113.407 27.4494 113.657 27.9165C113.906 28.3835 114.238 28.7854 114.65 29.1221C115.063 29.4588 115.53 29.7249 116.052 29.9204C116.573 30.1159 117.116 30.2137 117.681 30.2137C118.658 30.2137 119.484 30.0345 120.157 29.676C120.831 29.3176 121.384 28.8234 121.819 28.1934L124.426 30.2789C122.883 32.3643 120.646 33.407 117.713 33.407C116.497 33.407 115.378 33.2169 114.357 32.8367C113.336 32.4566 112.451 31.9189 111.702 31.2238C110.952 30.5287 110.366 29.676 109.942 28.6659C109.518 27.6558 109.307 26.5099 109.307 25.2282C109.307 23.9683 109.518 22.8224 109.942 21.7906C110.366 20.7587 110.947 19.8789 111.685 19.1512C112.424 18.4235 113.298 17.8587 114.308 17.4568C115.318 17.0549 116.41 16.854 117.583 16.854C118.669 16.854 119.674 17.0332 120.597 17.3916C121.52 17.7501 122.319 18.2823 122.992 18.9883C123.665 19.6943 124.192 20.5741 124.572 21.6276C124.952 22.6812 125.143 23.914 125.143 25.326ZM137.701 23.5687C137.701 23.0691 137.63 22.5912 137.489 22.135C137.348 21.6788 137.125 21.2769 136.821 20.9293C136.517 20.5818 136.132 20.3048 135.665 20.0984C135.197 19.8921 134.649 19.7889 134.019 19.7889C132.846 19.7889 131.852 20.1419 131.038 20.8479C130.223 21.5539 129.772 22.4608 129.685 23.5687H137.701ZM141.611 25.326V25.8474C141.611 26.0211 141.6 26.1949 141.579 26.3687H129.685C129.729 26.9335 129.876 27.4494 130.125 27.9165C130.375 28.3835 130.706 28.7854 131.119 29.1221C131.532 29.4588 131.999 29.7249 132.52 29.9204C133.042 30.1159 133.585 30.2137 134.15 30.2137C135.127 30.2137 135.953 30.0345 136.626 29.676C137.299 29.3176 137.853 28.8234 138.288 28.1934L140.894 30.2789C139.352 32.3643 137.115 33.407 134.182 33.407C132.966 33.407 131.847 33.2169 130.826 32.8367C129.805 32.4566 128.92 31.9189 128.17 31.2238C127.421 30.5287 126.834 29.676 126.411 28.6659C125.987 27.6558 125.775 26.5099 125.775 25.2282C125.775 23.9683 125.987 22.8224 126.411 21.7906C126.834 20.7587 127.415 19.8789 128.154 19.1512C128.893 18.4235 129.767 17.8587 130.777 17.4568C131.787 17.0549 132.879 16.854 134.052 16.854C135.138 16.854 136.143 17.0332 137.066 17.3916C137.989 17.7501 138.787 18.2823 139.461 18.9883C140.134 19.6943 140.661 20.5741 141.041 21.6276C141.421 22.6812 141.611 23.914 141.611 25.326ZM146.901 17.3102V19.4934H146.998C147.194 19.1893 147.449 18.8797 147.764 18.5648C148.079 18.2498 148.465 17.9674 148.921 17.7176C149.377 17.4677 149.893 17.2614 150.469 17.0984C151.044 16.9355 151.691 16.8541 152.407 16.8541C153.515 16.8541 154.536 17.0659 155.47 17.4895C156.404 17.9131 157.208 18.4941 157.882 19.2327C158.555 19.9713 159.076 20.8402 159.446 21.8395C159.815 22.8388 159.999 23.9141 159.999 25.0654C159.999 26.2167 159.82 27.2974 159.462 28.3075C159.103 29.3177 158.593 30.1974 157.93 30.9469C157.268 31.6963 156.464 32.2937 155.519 32.739C154.574 33.1844 153.504 33.407 152.31 33.407C151.202 33.407 150.186 33.1789 149.263 32.7228C148.34 32.2666 147.628 31.6475 147.129 30.8654H147.064V40.7711H143.153V17.3102H146.901ZM156.025 25.0659C156.025 24.4576 155.932 23.8548 155.748 23.2574C155.563 22.66 155.286 22.1224 154.917 21.6445C154.547 21.1666 154.08 20.781 153.516 20.4877C152.951 20.1945 152.288 20.0479 151.528 20.0479C150.811 20.0479 150.17 20.1999 149.605 20.504C149.041 20.8082 148.557 21.1992 148.156 21.6771C147.754 22.155 147.45 22.6981 147.243 23.3063C147.037 23.9146 146.934 24.5228 146.934 25.131C146.934 25.7393 147.037 26.3421 147.243 26.9395C147.45 27.5369 147.754 28.0745 148.156 28.5524C148.557 29.0303 149.041 29.4159 149.605 29.7092C150.17 30.0024 150.811 30.1491 151.528 30.1491C152.288 30.1491 152.951 29.997 153.516 29.6929C154.08 29.3888 154.547 28.9978 154.917 28.5198C155.286 28.0419 155.563 27.4989 155.748 26.8906C155.932 26.2824 156.025 25.6741 156.025 25.0659Z" fill="white"/>
</svg>
