<svg width="133" height="35" viewBox="0 0 133 35" fill="none" xmlns="http://www.w3.org/2000/svg">
<path fill-rule="evenodd" clip-rule="evenodd" d="M29.4332 10.0483C29.6106 9.809 29.8559 9.48823 30.152 9.10708C30.4323 8.74681 30.6895 8.41922 30.9468 8.09364C31.0369 7.97965 31.1205 7.87407 31.1955 7.77956C31.2405 7.72295 31.2726 7.68254 31.2894 7.66142C31.5613 7.32015 31.5398 6.83067 31.2391 6.51453L28.7417 3.88885C28.4196 3.55022 27.8881 3.5249 27.5352 3.83138C27.5144 3.84947 27.5144 3.84947 27.4193 3.93193C27.3267 4.01218 27.2233 4.10163 27.1117 4.19797C26.793 4.47314 26.4728 4.74828 26.1721 5.00484C25.8022 5.32024 25.5174 5.56065 25.294 5.74572C24.0526 4.86524 22.5524 4.25278 20.8332 3.87206C20.8055 3.63454 20.7729 3.33405 20.7362 2.98235C20.7277 2.90046 20.719 2.81615 20.7102 2.72962C20.6703 2.34016 20.6289 1.92251 20.5884 1.5048C20.5743 1.35857 20.5612 1.22279 20.5496 1.10097C20.5377 0.97577 20.5377 0.97577 20.5351 0.948285C20.4928 0.49933 20.1159 0.15625 19.665 0.15625H16.097C15.6575 0.15625 15.2863 0.482651 15.2302 0.918568C15.2267 0.945795 15.2267 0.945795 15.2106 1.06957C15.195 1.18999 15.1775 1.32421 15.1585 1.46876C15.1044 1.88166 15.0495 2.29452 14.9973 2.67957C14.9872 2.75359 14.9872 2.75359 14.9771 2.82742C14.9242 3.21567 14.8777 3.54615 14.8398 3.80379C13.1413 4.12823 11.5618 4.76781 10.215 5.69153C9.99601 5.52026 9.71507 5.2916 9.38768 5.01914C9.01518 4.70832 8.70404 4.44481 8.39586 4.18124C8.28793 4.08894 8.18813 4.00325 8.0989 3.9264C8.04553 3.88043 8.00743 3.84752 7.98777 3.8305C7.64078 3.53003 7.12049 3.54917 6.79652 3.87432L4.29907 6.38086C3.99716 6.68387 3.95891 7.16086 4.20869 7.5081C4.22486 7.53058 4.22486 7.53058 4.2984 7.63299C4.36995 7.73266 4.4497 7.84391 4.53558 7.9639C4.78092 8.30666 5.02623 8.65074 5.25502 8.97354C5.54493 9.38275 5.76923 9.70223 5.93862 9.94754C4.95904 11.2559 4.26483 12.9602 4.04795 14.6463C4.00048 14.6505 3.95065 14.6548 3.89856 14.6591C3.64039 14.6807 3.33231 14.7036 2.98518 14.7272C2.59161 14.754 2.16929 14.7803 1.74687 14.8051C1.59895 14.8137 1.46162 14.8216 1.33843 14.8285C1.26467 14.8326 1.2119 14.8355 1.18437 14.837C0.720633 14.862 0.357422 15.2453 0.357422 15.7097V19.2901C0.357422 19.7377 0.695569 20.113 1.14074 20.1594C1.16875 20.1623 1.22192 20.168 1.29666 20.176C1.42159 20.1894 1.56089 20.2045 1.71093 20.2212C2.13934 20.2687 2.56762 20.3185 2.96652 20.3681C3.19441 20.3964 3.40618 20.4239 3.59857 20.4502C3.79601 20.4772 3.97053 20.5026 4.1187 20.526C4.34921 22.0107 4.99724 23.4241 6.0568 25.0158C5.87601 25.258 5.62691 25.5787 5.32645 25.9575C5.01882 26.3446 4.75017 26.6783 4.48147 27.0093C4.38738 27.1252 4.30003 27.2324 4.22168 27.3284C4.17478 27.3858 4.14122 27.4268 4.12376 27.448C3.83383 27.8014 3.86508 28.3184 4.19547 28.6342L6.69258 31.0213C7.00809 31.3229 7.49776 31.3455 7.8397 31.0742C7.86078 31.0575 7.90154 31.0252 7.95863 30.9802C8.05405 30.9049 8.16077 30.8209 8.27615 30.7304C8.60564 30.4722 8.93819 30.2139 9.2524 29.9733C9.72282 29.614 10.0511 29.3693 10.2952 29.1959C12.0527 30.2768 13.4158 30.8882 14.8825 31.1166C14.8878 31.1673 14.8932 31.2208 14.8986 31.277C14.9242 31.5401 14.9513 31.8567 14.9793 32.2149C15.0102 32.6102 15.0406 33.0344 15.0691 33.4588C15.0791 33.6074 15.0882 33.7454 15.0961 33.8691C15.1008 33.9432 15.1042 33.9962 15.1059 34.0238C15.1343 34.4847 15.5164 34.8439 15.9782 34.8439H19.427C19.8751 34.8439 20.2506 34.505 20.2964 34.0593C20.2993 34.0314 20.3048 33.9784 20.3127 33.9039C20.3259 33.7793 20.3409 33.6403 20.3573 33.4907C20.4043 33.0634 20.4538 32.6362 20.5033 32.2384C20.5354 31.9805 20.5664 31.7435 20.5961 31.5322C20.6225 31.3434 20.6475 31.1775 20.6705 31.0383C22.3685 30.6585 23.9376 30.0043 25.306 29.0929C25.5376 29.2713 25.84 29.5159 26.1948 29.8105C26.2401 29.848 26.2401 29.848 26.2853 29.8857C26.5906 30.14 26.9132 30.4131 27.2324 30.6863C27.3442 30.7819 27.4475 30.8707 27.5398 30.9503C27.5951 30.998 27.6342 31.0319 27.6548 31.0497C28.0079 31.3561 28.5397 31.3303 28.8615 30.9911L31.2398 28.4849C31.5549 28.1528 31.5604 27.6338 31.2523 27.2952C31.2343 27.2754 31.2001 27.2376 31.1519 27.1843C31.0712 27.0951 30.9814 26.9953 30.8845 26.8872C30.608 26.5787 30.3316 26.2667 30.0741 25.9711C30.0329 25.9236 30.0329 25.9236 29.9917 25.8761C29.7106 25.552 29.475 25.273 29.2989 25.0544C30.2329 23.7548 30.8761 22.2846 31.2284 20.6106C31.3268 20.5959 31.4382 20.5803 31.5614 20.5641C31.8084 20.5317 32.0974 20.4974 32.4195 20.4619C32.8195 20.4179 33.2491 20.3743 33.6789 20.3332C33.8294 20.3188 33.9691 20.3058 34.0944 20.2943C34.1694 20.2875 34.2227 20.2827 34.2507 20.2802C34.7019 20.2404 35.0478 19.8625 35.0478 19.4096V15.5906C35.0478 15.13 34.6904 14.7485 34.2308 14.7184C34.2031 14.7166 34.15 14.7131 34.0757 14.7081C33.9516 14.6997 33.8133 14.6902 33.6643 14.6796C33.2389 14.6496 32.8135 14.6178 32.4172 14.5856C32.1073 14.5605 31.828 14.5362 31.5872 14.5131C31.4538 14.5003 31.3336 14.4881 31.2279 14.4764C30.778 12.7804 30.2255 11.4195 29.4332 10.0483ZM32.2262 18.7245C31.8929 18.7612 31.5923 18.7969 31.3318 18.8311C31.0237 18.8716 30.7753 18.9095 30.5892 18.9457C30.4701 18.9689 30.3721 18.9921 30.2863 19.0193C30.2124 19.0428 30.1451 19.0694 30.0741 19.1084C30.0056 19.1459 29.9401 19.1912 29.8744 19.2539C29.7458 19.3769 29.6461 19.5376 29.6102 19.7508C29.3012 21.6015 28.6157 23.1437 27.5454 24.4703C27.3568 24.7034 27.3229 24.9477 27.3602 25.178C27.3754 25.2718 27.4011 25.3491 27.4347 25.4249C27.4689 25.5022 27.51 25.5735 27.5616 25.6523C27.6315 25.7592 27.727 25.8879 27.8501 26.0438C28.0518 26.2992 28.33 26.6302 28.6691 27.0213C28.7115 27.0702 28.7115 27.0702 28.754 27.119C28.9655 27.3619 29.1887 27.6147 29.4142 27.8674L28.164 29.1849C27.9064 28.9655 27.6492 28.7485 27.4022 28.5427C27.3558 28.5041 27.3558 28.5041 27.3094 28.4655C26.907 28.1316 26.5669 27.8572 26.3055 27.6581C26.147 27.5374 26.0168 27.4438 25.9102 27.3754C25.8336 27.3263 25.765 27.2872 25.6924 27.2545C25.6223 27.2229 25.5514 27.1981 25.4657 27.1816C25.2404 27.1382 25.005 27.1591 24.7622 27.3384C23.3604 28.3749 21.6691 29.0843 19.8006 29.4321C19.578 29.4736 19.4182 29.5812 19.2968 29.7175C19.2385 29.7829 19.1968 29.847 19.1619 29.9141C19.1257 29.9838 19.1001 30.0507 19.0771 30.1251C19.049 30.2157 19.0238 30.3225 18.9979 30.4533C18.9565 30.6626 18.9117 30.9431 18.8631 31.2895C18.8321 31.5106 18.7999 31.7563 18.7668 32.0227C18.724 32.3661 18.6815 32.7295 18.6405 33.096H16.7946C16.7706 32.7485 16.7456 32.4044 16.7201 32.0787C16.6913 31.7104 16.6633 31.3834 16.6365 31.108C16.6095 30.8302 16.5841 30.6079 16.5596 30.4431C16.5439 30.3382 16.5283 30.2525 16.5095 30.1776C16.4926 30.1103 16.4732 30.0493 16.443 29.9823C16.4055 29.9016 16.4055 29.9016 16.3103 29.7692C16.1487 29.5868 16.1487 29.5868 15.6947 29.4519C14.1868 29.3394 12.8127 28.7301 10.7716 27.4334C10.5181 27.2726 10.3028 27.269 10.0859 27.3197C10.0127 27.3367 9.95174 27.3592 9.89056 27.3869C9.82556 27.4164 9.76185 27.4517 9.68957 27.4959C9.58525 27.5597 9.45503 27.6475 9.29557 27.7606C9.02987 27.9489 8.68218 28.2079 8.27019 28.5226C8.22898 28.554 8.22897 28.554 8.18782 28.5855C7.91703 28.7929 7.63371 29.0124 7.35042 29.2338L5.98476 27.9284C6.2071 27.6536 6.42732 27.3794 6.63563 27.1174C6.66486 27.0806 6.66486 27.0806 6.69407 27.0438C7.0213 26.6312 7.29095 26.2836 7.48713 26.0192C7.60434 25.8613 7.69545 25.7329 7.76143 25.6313C7.80671 25.5616 7.84287 25.5008 7.8734 25.4393C7.90273 25.3801 7.92684 25.3216 7.94645 25.2502C8.0121 25.0111 8.01464 24.7781 7.81925 24.4996C6.56329 22.7075 5.8971 21.2547 5.78693 19.7571C5.76722 19.4868 5.6454 19.2941 5.48446 19.1531C5.41434 19.0916 5.34679 19.0495 5.27564 19.0145C5.20573 18.9801 5.13889 18.9561 5.06349 18.9341C4.97148 18.9073 4.86065 18.8826 4.72358 18.8567C4.50196 18.8149 4.20276 18.7688 3.83341 18.7184C3.63345 18.691 3.41476 18.6627 3.18021 18.6335C2.83577 18.5907 2.47116 18.5479 2.10352 18.5065V16.5349C2.44463 16.5144 2.78222 16.493 3.10196 16.4712C3.45741 16.447 3.77408 16.4235 4.04242 16.4011C4.32351 16.3776 4.54815 16.3555 4.71341 16.3344C4.81651 16.3213 4.90003 16.3082 4.9714 16.2929C5.03433 16.2794 5.09068 16.2641 5.15297 16.24C5.22877 16.2101 5.22877 16.2101 5.36264 16.1269C5.56351 15.9798 5.56351 15.9798 5.7288 15.452C5.80745 13.7074 6.57955 11.8153 7.66973 10.5851C8.02425 10.1833 7.99185 10.0479 7.81257 9.64102C7.79504 9.60125 7.77763 9.56807 7.75709 9.53211C7.73425 9.49212 7.70622 9.44695 7.67064 9.39191C7.61291 9.30264 7.53147 9.1817 7.42677 9.02936C7.24696 8.76772 7.00055 8.41638 6.70316 7.9966C6.48073 7.68276 6.27015 7.38717 6.05791 7.09031L7.46048 5.68264C7.70649 5.89211 7.95189 6.09932 8.18732 6.29582C8.22745 6.3293 8.22745 6.3293 8.26764 6.36277C8.65514 6.68525 8.98219 6.95048 9.23254 7.14325C9.38384 7.25976 9.50764 7.35028 9.60795 7.41639C9.67979 7.46373 9.7436 7.5016 9.8108 7.53377C9.87715 7.56554 9.9439 7.59102 10.0259 7.60961C10.2647 7.66377 10.5123 7.64871 10.7729 7.44606C12.133 6.39036 13.8448 5.6966 15.7153 5.42915C16.22 5.35657 16.2832 5.24315 16.4227 4.84076C16.4365 4.8012 16.4459 4.76669 16.4549 4.72848C16.4648 4.68691 16.4742 4.63938 16.4847 4.58086C16.5016 4.48704 16.5222 4.35845 16.5469 4.19505C16.5895 3.91282 16.6438 3.52858 16.7072 3.06387C16.7174 2.98932 16.7174 2.98932 16.7275 2.91464C16.7713 2.59158 16.8169 2.24951 16.8624 1.9043H18.8692C18.9027 2.24716 18.9365 2.58666 18.9694 2.90768C18.9783 2.99517 18.9871 3.08046 18.9958 3.16336C19.0421 3.60882 19.0825 3.97514 19.1152 4.24371C19.1343 4.39961 19.1507 4.52259 19.1651 4.6137C19.1744 4.67285 19.1832 4.72161 19.1934 4.76618C19.2031 4.80928 19.2139 4.84884 19.2305 4.89478C19.3506 5.22717 19.4464 5.38412 19.9018 5.46693C21.8795 5.83207 23.5131 6.50444 24.7343 7.51975C25.1309 7.84897 25.3394 7.79969 25.6868 7.6312C25.7343 7.60818 25.7726 7.58537 25.8131 7.55869C25.8558 7.53055 25.9018 7.49715 25.9568 7.45511C26.0432 7.38921 26.158 7.29712 26.3018 7.17892C26.5473 6.97719 26.8752 6.70094 27.2665 6.36735C27.5439 6.1306 27.7949 5.91525 28.0476 5.69751L29.4476 7.16937C29.2301 7.44519 29.0145 7.72014 28.8109 7.9819C28.4579 8.4362 28.2 8.77364 28.0117 9.02815C27.9005 9.17846 27.8138 9.29949 27.7513 9.39262C27.7103 9.45375 27.6775 9.50587 27.6497 9.55607C27.6236 9.60322 27.6015 9.6488 27.5809 9.7043C27.4859 9.96037 27.458 10.1639 27.6546 10.4824C28.5965 12.0089 29.1843 13.4488 29.6681 15.4439C29.7305 15.6997 29.8666 15.8551 30.0319 15.9677C30.1496 16.0382 30.1496 16.0382 30.2207 16.0669C30.2818 16.0909 30.3391 16.1072 30.4028 16.1218C30.4799 16.1394 30.5713 16.1549 30.6837 16.1708C30.866 16.1965 31.1123 16.2239 31.4186 16.2532C31.6688 16.2772 31.9562 16.3022 32.274 16.328C32.6018 16.3546 32.9481 16.3809 33.2979 16.4061V18.6138C32.932 18.6495 32.5692 18.6868 32.2262 18.7245Z" fill="#FF3429"/>
<path fill-rule="evenodd" clip-rule="evenodd" d="M17.4946 8.90625C12.6763 8.90625 8.77148 12.8241 8.77148 17.6556C8.77148 22.487 12.6763 26.4049 17.4946 26.4049C22.3126 26.4049 26.2173 22.487 26.2173 17.6556C26.2173 12.8242 22.3126 8.90625 17.4946 8.90625ZM17.4927 10.6543C21.344 10.6543 24.4674 13.7883 24.4674 17.6556C24.4674 21.523 21.344 24.657 17.4927 24.657C13.6411 24.657 10.5176 21.523 10.5176 17.6556C10.5176 13.7882 13.6411 10.6543 17.4927 10.6543Z" fill="#FF3429"/>
<path fill-rule="evenodd" clip-rule="evenodd" d="M58.394 16.7998C58.394 17.9485 58.1966 18.9851 57.8017 19.9094C57.4068 20.8338 56.8684 21.619 56.1863 22.2652C55.5043 22.9114 54.6966 23.4094 53.7632 23.7594C52.8299 24.1094 51.8158 24.2844 50.7209 24.2844C49.6261 24.2844 48.612 24.1094 47.6786 23.7594C46.7453 23.4094 45.9331 22.9114 45.2421 22.2652C44.5511 21.619 44.0126 20.8338 43.6267 19.9094C43.2408 18.9851 43.0479 17.9485 43.0479 16.7998V4.73828H46.4402V16.6652C46.4402 17.2216 46.512 17.7735 46.6555 18.321C46.7991 18.8684 47.037 19.3575 47.369 19.7883C47.7011 20.2191 48.1408 20.569 48.6882 20.8383C49.2357 21.1075 49.9132 21.2421 50.7209 21.2421C51.5286 21.2421 52.2062 21.1075 52.7536 20.8383C53.3011 20.569 53.7408 20.2191 54.0729 19.7883C54.4049 19.3575 54.6427 18.8684 54.7863 18.321C54.9299 17.7735 55.0017 17.2216 55.0017 16.6652V4.73828H58.394V16.7998ZM63.519 10.8769V12.6808H63.5998C63.7613 12.4295 63.9722 12.1737 64.2325 11.9135C64.4927 11.6532 64.8113 11.4199 65.1882 11.2135C65.5652 11.0071 65.9914 10.8365 66.4671 10.7019C66.9427 10.5673 67.4767 10.5 68.069 10.5C68.9844 10.5 69.828 10.675 70.5998 11.025C71.3716 11.375 72.0357 11.8551 72.5921 12.4654C73.1485 13.0756 73.5793 13.7936 73.8844 14.6192C74.1895 15.4449 74.3421 16.3333 74.3421 17.2846C74.3421 18.2359 74.194 19.1288 73.8979 19.9635C73.6017 20.7981 73.1799 21.525 72.6325 22.1442C72.085 22.7635 71.4209 23.257 70.6402 23.625C69.8594 23.993 68.9754 24.1769 67.9882 24.1769C67.0728 24.1769 66.2338 23.9885 65.4709 23.6115C64.7081 23.2346 64.1203 22.7231 63.7075 22.0769H63.6536V30.2615H60.4229V10.8769H63.519ZM71.0594 17.2848C71.0594 16.7823 70.9831 16.2842 70.8305 15.7906C70.678 15.297 70.4491 14.8528 70.144 14.4579C69.8389 14.063 69.453 13.7444 68.9863 13.5021C68.5196 13.2598 67.9722 13.1387 67.344 13.1387C66.7517 13.1387 66.2222 13.2643 65.7555 13.5156C65.2889 13.7669 64.8895 14.09 64.5575 14.4848C64.2254 14.8797 63.9741 15.3284 63.8036 15.831C63.6331 16.3335 63.5479 16.8361 63.5479 17.3387C63.5479 17.8412 63.6331 18.3393 63.8036 18.8329C63.9741 19.3265 64.2254 19.7707 64.5575 20.1656C64.8895 20.5605 65.2889 20.8791 65.7555 21.1214C66.2222 21.3637 66.7517 21.4848 67.344 21.4848C67.9722 21.4848 68.5196 21.3592 68.9863 21.1079C69.453 20.8566 69.8389 20.5335 70.144 20.1387C70.4491 19.7438 70.678 19.2951 70.8305 18.7925C70.9831 18.29 71.0594 17.7874 71.0594 17.2848ZM75.7783 4.73828H79.1706V12.9767H79.2514L87.2206 4.73828H91.7976L82.886 13.5421L92.3899 23.7998H87.6245L79.2514 14.2421H79.1706V23.7998H75.7783V4.73828ZM100.612 16.0459C100.612 15.6331 100.554 15.2382 100.437 14.8613C100.321 14.4844 100.137 14.1523 99.8854 13.8652C99.6341 13.578 99.3155 13.3491 98.9296 13.1786C98.5437 13.0081 98.0905 12.9229 97.57 12.9229C96.6008 12.9229 95.7796 13.2145 95.1066 13.7979C94.4335 14.3812 94.0611 15.1305 93.9893 16.0459H100.612ZM103.843 17.5V17.9308C103.843 18.0744 103.834 18.2179 103.816 18.3615H93.9896C94.0255 18.8282 94.1466 19.2545 94.353 19.6404C94.5594 20.0263 94.8331 20.3583 95.1742 20.6365C95.5152 20.9147 95.9011 21.1346 96.3319 21.2961C96.7626 21.4577 97.2113 21.5385 97.678 21.5385C98.4857 21.5385 99.1678 21.3904 99.7242 21.0942C100.281 20.7981 100.738 20.3897 101.097 19.8692L103.251 21.5923C101.977 23.3154 100.128 24.1769 97.7049 24.1769C96.6998 24.1769 95.7755 24.0199 94.9319 23.7058C94.0883 23.3917 93.3569 22.9474 92.7376 22.3731C92.1184 21.7987 91.6338 21.0942 91.2838 20.2596C90.9338 19.425 90.7588 18.4782 90.7588 17.4192C90.7588 16.3782 90.9338 15.4314 91.2838 14.5788C91.6338 13.7263 92.1139 12.9994 92.7242 12.3981C93.3344 11.7968 94.0569 11.3301 94.8915 10.9981C95.7261 10.666 96.628 10.5 97.5973 10.5C98.4947 10.5 99.3248 10.6481 100.088 10.9442C100.85 11.2404 101.51 11.6801 102.066 12.2635C102.623 12.8468 103.058 13.5737 103.372 14.4442C103.686 15.3147 103.843 16.3333 103.843 17.5ZM114.218 16.0459C114.218 15.6331 114.159 15.2382 114.043 14.8613C113.926 14.4844 113.742 14.1523 113.491 13.8652C113.24 13.578 112.921 13.3491 112.535 13.1786C112.149 13.0081 111.696 12.9229 111.175 12.9229C110.206 12.9229 109.385 13.2145 108.712 13.7979C108.039 14.3812 107.667 15.1305 107.595 16.0459H114.218ZM117.449 17.5V17.9308C117.449 18.0744 117.44 18.2179 117.422 18.3615H107.595C107.631 18.8282 107.752 19.2545 107.958 19.6404C108.165 20.0263 108.439 20.3583 108.78 20.6365C109.121 20.9147 109.507 21.1346 109.937 21.2962C110.368 21.4577 110.817 21.5385 111.283 21.5385C112.091 21.5385 112.773 21.3904 113.33 21.0942C113.886 20.7981 114.344 20.3897 114.703 19.8692L116.857 21.5923C115.582 23.3154 113.733 24.1769 111.31 24.1769C110.305 24.1769 109.381 24.0199 108.537 23.7058C107.694 23.3917 106.962 22.9474 106.343 22.3731C105.724 21.7987 105.239 21.0942 104.889 20.2596C104.539 19.425 104.364 18.4782 104.364 17.4192C104.364 16.3782 104.539 15.4314 104.889 14.5788C105.239 13.7263 105.719 12.9994 106.33 12.3981C106.94 11.7968 107.662 11.3301 108.497 10.9981C109.332 10.666 110.233 10.5 111.203 10.5C112.1 10.5 112.93 10.6481 113.693 10.9442C114.456 11.2404 115.116 11.6801 115.672 12.2635C116.228 12.8468 116.664 13.5737 116.978 14.4442C117.292 15.3147 117.449 16.3333 117.449 17.5ZM121.82 10.8769V12.6808H121.901C122.062 12.4295 122.273 12.1737 122.533 11.9135C122.794 11.6532 123.112 11.4199 123.489 11.2135C123.866 11.0071 124.292 10.8365 124.768 10.7019C125.244 10.5673 125.777 10.5 126.37 10.5C127.285 10.5 128.129 10.675 128.901 11.025C129.672 11.375 130.336 11.8551 130.893 12.4654C131.449 13.0756 131.88 13.7936 132.185 14.6192C132.49 15.4449 132.643 16.3333 132.643 17.2846C132.643 18.2359 132.495 19.1288 132.199 19.9635C131.902 20.7981 131.481 21.525 130.933 22.1442C130.386 22.7635 129.722 23.257 128.941 23.625C128.16 23.993 127.276 24.1769 126.289 24.1769C125.374 24.1769 124.535 23.9885 123.772 23.6115C123.009 23.2346 122.421 22.7231 122.008 22.0769H121.954V30.2615H118.724V10.8769H121.82ZM129.356 17.2848C129.356 16.7823 129.28 16.2842 129.127 15.7906C128.975 15.297 128.746 14.8528 128.441 14.4579C128.136 14.063 127.75 13.7444 127.283 13.5021C126.817 13.2598 126.269 13.1387 125.641 13.1387C125.049 13.1387 124.519 13.2643 124.052 13.5156C123.586 13.7669 123.186 14.09 122.854 14.4848C122.522 14.8797 122.271 15.3284 122.1 15.831C121.93 16.3335 121.845 16.8361 121.845 17.3387C121.845 17.8412 121.93 18.3393 122.1 18.8329C122.271 19.3265 122.522 19.7707 122.854 20.1656C123.186 20.5605 123.586 20.8791 124.052 21.1214C124.519 21.3637 125.049 21.4848 125.641 21.4848C126.269 21.4848 126.817 21.3592 127.283 21.1079C127.75 20.8566 128.136 20.5335 128.441 20.1387C128.746 19.7438 128.975 19.2951 129.127 18.7925C129.28 18.29 129.356 17.7874 129.356 17.2848Z" fill="#081A28"/>
</svg>
