<svg width="133" height="35" viewBox="0 0 133 35" fill="none" xmlns="http://www.w3.org/2000/svg">
<path fill-rule="evenodd" clip-rule="evenodd" d="M29.4332 10.0482C29.6106 9.80891 29.8559 9.48814 30.152 9.10699C30.4323 8.74672 30.6895 8.41912 30.9468 8.09355C31.0369 7.97956 31.1205 7.87398 31.1955 7.77947C31.2405 7.72286 31.2726 7.68245 31.2894 7.66133C31.5613 7.32006 31.5398 6.83058 31.2391 6.51443L28.7417 3.88876C28.4196 3.55013 27.8881 3.52481 27.5352 3.83129C27.5144 3.84937 27.5144 3.84937 27.4193 3.93184C27.3267 4.01209 27.2233 4.10154 27.1117 4.19788C26.793 4.47305 26.4728 4.74819 26.1721 5.00475C25.8022 5.32015 25.5174 5.56055 25.294 5.74563C24.0526 4.86515 22.5524 4.25268 20.8332 3.87197C20.8055 3.63445 20.7729 3.33396 20.7362 2.98225C20.7277 2.90036 20.719 2.81606 20.7102 2.72953C20.6703 2.34007 20.6289 1.92242 20.5884 1.50471C20.5743 1.35848 20.5612 1.2227 20.5496 1.10088C20.5377 0.975678 20.5377 0.975678 20.5351 0.948193C20.4928 0.499239 20.1159 0.156158 19.665 0.156158H16.097C15.6575 0.156158 15.2863 0.48256 15.2302 0.918476C15.2267 0.945703 15.2267 0.945703 15.2106 1.06948C15.195 1.1899 15.1775 1.32412 15.1585 1.46867C15.1044 1.88157 15.0495 2.29443 14.9973 2.67948C14.9872 2.7535 14.9872 2.7535 14.9771 2.82733C14.9242 3.21558 14.8777 3.54606 14.8398 3.8037C13.1414 4.12814 11.5618 4.76772 10.215 5.69144C9.99601 5.52017 9.71507 5.29151 9.38768 5.01905C9.01518 4.70823 8.70404 4.44472 8.39586 4.18115C8.28793 4.08885 8.18813 4.00316 8.0989 3.92631C8.04553 3.88034 8.00743 3.84743 7.98777 3.8304C7.64078 3.52994 7.12049 3.54908 6.79652 3.87423L4.29907 6.38077C3.99716 6.68377 3.95891 7.16077 4.20869 7.50801C4.22486 7.53049 4.22486 7.53049 4.2984 7.63289C4.36995 7.73257 4.4497 7.84382 4.53558 7.96381C4.78092 8.30657 5.02623 8.65065 5.25502 8.97345C5.54493 9.38266 5.76923 9.70214 5.93862 9.94745C4.95904 11.2558 4.26483 12.9601 4.04795 14.6462C4.00048 14.6504 3.95065 14.6547 3.89856 14.659C3.64039 14.6806 3.33231 14.7035 2.98518 14.7271C2.59161 14.7539 2.16929 14.7802 1.74687 14.805C1.59895 14.8137 1.46162 14.8215 1.33843 14.8284C1.26467 14.8325 1.2119 14.8354 1.18437 14.8369C0.720633 14.8619 0.357422 15.2452 0.357422 15.7096V19.2901C0.357422 19.7376 0.695569 20.1129 1.14074 20.1593C1.16875 20.1622 1.22192 20.1679 1.29666 20.1759C1.42159 20.1893 1.56089 20.2044 1.71093 20.2211C2.13934 20.2686 2.56762 20.3184 2.96652 20.368C3.19441 20.3963 3.40618 20.4238 3.59857 20.4501C3.79601 20.4771 3.97053 20.5025 4.1187 20.5259C4.34921 22.0106 4.99724 23.424 6.0568 25.0157C5.87601 25.2579 5.62691 25.5786 5.32645 25.9574C5.01882 26.3445 4.75017 26.6782 4.48147 27.0092C4.38738 27.1251 4.30003 27.2323 4.22168 27.3283C4.17478 27.3857 4.14122 27.4267 4.12376 27.4479C3.83383 27.8013 3.86508 28.3183 4.19547 28.6341L6.69258 31.0212C7.00809 31.3228 7.49776 31.3454 7.8397 31.0741C7.86078 31.0574 7.90154 31.0251 7.95863 30.9801C8.05405 30.9048 8.16077 30.8208 8.27615 30.7304C8.60564 30.4721 8.93819 30.2138 9.2524 29.9732C9.72282 29.6139 10.0511 29.3692 10.2952 29.1958C12.0527 30.2767 13.4158 30.8881 14.8825 31.1165C14.8878 31.1672 14.8932 31.2207 14.8986 31.277C14.9242 31.54 14.9513 31.8566 14.9793 32.2148C15.0102 32.6101 15.0406 33.0343 15.0691 33.4587C15.0791 33.6073 15.0882 33.7453 15.0961 33.8691C15.1008 33.9431 15.1042 33.9961 15.1059 34.0237C15.1343 34.4846 15.5164 34.8438 15.9782 34.8438H19.427C19.8751 34.8438 20.2506 34.5049 20.2964 34.0592C20.2993 34.0313 20.3048 33.9783 20.3127 33.9038C20.3259 33.7792 20.3409 33.6402 20.3573 33.4906C20.4043 33.0633 20.4538 32.6361 20.5033 32.2383C20.5354 31.9804 20.5664 31.7434 20.5961 31.5321C20.6225 31.3433 20.6475 31.1775 20.6705 31.0382C22.3685 30.6584 23.9376 30.0042 25.306 29.0928C25.5376 29.2713 25.84 29.5158 26.1948 29.8104C26.2401 29.8479 26.2401 29.8479 26.2853 29.8856C26.5906 30.1399 26.9132 30.413 27.2324 30.6862C27.3442 30.7818 27.4475 30.8706 27.5398 30.9503C27.5951 30.9979 27.6342 31.0318 27.6548 31.0496C28.0079 31.356 28.5397 31.3302 28.8615 30.991L31.2398 28.4848C31.5549 28.1528 31.5604 27.6338 31.2523 27.2951C31.2343 27.2753 31.2001 27.2375 31.1519 27.1842C31.0712 27.095 30.9814 26.9952 30.8845 26.8871C30.608 26.5786 30.3316 26.2666 30.0741 25.971C30.0329 25.9235 30.0329 25.9235 29.9917 25.8761C29.7106 25.5519 29.475 25.2729 29.2989 25.0544C30.2329 23.7547 30.8761 22.2845 31.2284 20.6105C31.3268 20.5958 31.4382 20.5802 31.5614 20.564C31.8084 20.5316 32.0974 20.4973 32.4195 20.4618C32.8195 20.4178 33.2491 20.3742 33.6789 20.3331C33.8294 20.3187 33.9691 20.3057 34.0944 20.2942C34.1694 20.2874 34.2227 20.2826 34.2507 20.2801C34.7019 20.2403 35.0478 19.8624 35.0478 19.4095V15.5905C35.0478 15.1299 34.6904 14.7484 34.2308 14.7184C34.2031 14.7165 34.15 14.713 34.0757 14.708C33.9516 14.6996 33.8133 14.6901 33.6643 14.6796C33.2389 14.6495 32.8135 14.6177 32.4172 14.5856C32.1073 14.5604 31.828 14.5361 31.5872 14.513C31.4538 14.5003 31.3336 14.488 31.2279 14.4763C30.778 12.7803 30.2255 11.4195 29.4332 10.0482ZM32.2262 18.7244C31.8929 18.7611 31.5923 18.7968 31.3318 18.831C31.0237 18.8715 30.7753 18.9094 30.5892 18.9456C30.4701 18.9688 30.3721 18.992 30.2863 19.0192C30.2124 19.0427 30.1452 19.0693 30.0741 19.1083C30.0056 19.1458 29.9401 19.1911 29.8744 19.2538C29.7458 19.3768 29.6461 19.5375 29.6102 19.7508C29.3012 21.6014 28.6157 23.1436 27.5454 24.4702C27.3568 24.7033 27.3229 24.9476 27.3602 25.1779C27.3754 25.2717 27.4011 25.349 27.4347 25.4248C27.4689 25.5021 27.51 25.5734 27.5616 25.6522C27.6315 25.7591 27.727 25.8878 27.8501 26.0437C28.0518 26.2991 28.33 26.6301 28.6691 27.0212C28.7115 27.0701 28.7115 27.0701 28.754 27.1189C28.9655 27.3618 29.1887 27.6146 29.4142 27.8674L28.164 29.1848C27.9064 28.9654 27.6492 28.7484 27.4022 28.5426C27.3558 28.504 27.3558 28.504 27.3094 28.4654C26.907 28.1315 26.5669 27.8571 26.3055 27.658C26.147 27.5373 26.0168 27.4437 25.9102 27.3754C25.8336 27.3262 25.765 27.2871 25.6924 27.2544C25.6223 27.2228 25.5514 27.198 25.4657 27.1815C25.2404 27.1381 25.005 27.1591 24.7622 27.3383C23.3604 28.3748 21.6691 29.0842 19.8006 29.432C19.578 29.4735 19.4182 29.5811 19.2968 29.7174C19.2385 29.7828 19.1968 29.8469 19.1619 29.914C19.1257 29.9837 19.1001 30.0506 19.0771 30.125C19.049 30.2156 19.0238 30.3224 18.9979 30.4532C18.9565 30.6625 18.9117 30.9431 18.8631 31.2894C18.8321 31.5105 18.7999 31.7562 18.7668 32.0226C18.724 32.366 18.6815 32.7295 18.6405 33.0959H16.7946C16.7706 32.7484 16.7456 32.4043 16.7201 32.0786C16.6913 31.7103 16.6633 31.3833 16.6365 31.1079C16.6095 30.8301 16.5841 30.6079 16.5596 30.443C16.5439 30.3381 16.5283 30.2524 16.5095 30.1775C16.4926 30.1102 16.4732 30.0492 16.443 29.9822C16.4055 29.9015 16.4055 29.9015 16.3103 29.7691C16.1487 29.5867 16.1487 29.5867 15.6947 29.4518C14.1868 29.3393 12.8127 28.73 10.7716 27.4333C10.5181 27.2725 10.3028 27.2689 10.0859 27.3196C10.0127 27.3366 9.95174 27.3591 9.89056 27.3869C9.82556 27.4163 9.76185 27.4516 9.68957 27.4958C9.58525 27.5596 9.45503 27.6474 9.29557 27.7605C9.02987 27.9488 8.68218 28.2078 8.27019 28.5225C8.22898 28.5539 8.22897 28.5539 8.18782 28.5854C7.91703 28.7928 7.63371 29.0124 7.35042 29.2338L5.98476 27.9283C6.2071 27.6535 6.42732 27.3794 6.63563 27.1173C6.66486 27.0805 6.66486 27.0805 6.69407 27.0437C7.0213 26.6311 7.29095 26.2835 7.48713 26.0191C7.60434 25.8612 7.69545 25.7328 7.76143 25.6312C7.80671 25.5615 7.84287 25.5007 7.8734 25.4392C7.90273 25.38 7.92684 25.3215 7.94645 25.2501C8.0121 25.011 8.01464 24.778 7.81925 24.4995C6.56329 22.7074 5.8971 21.2546 5.78693 19.757C5.76722 19.4867 5.6454 19.294 5.48446 19.153C5.41434 19.0915 5.34679 19.0494 5.27564 19.0144C5.20573 18.98 5.13889 18.956 5.06349 18.934C4.97148 18.9072 4.86065 18.8825 4.72358 18.8566C4.50196 18.8148 4.20276 18.7687 3.83341 18.7183C3.63345 18.6909 3.41476 18.6626 3.18021 18.6334C2.83577 18.5906 2.47116 18.5478 2.10352 18.5064V16.5348C2.44463 16.5143 2.78222 16.4929 3.10196 16.4711C3.45741 16.4469 3.77408 16.4234 4.04242 16.401C4.32351 16.3775 4.54815 16.3554 4.71341 16.3343C4.81651 16.3212 4.90003 16.3081 4.9714 16.2928C5.03433 16.2793 5.09068 16.264 5.15297 16.24C5.22877 16.21 5.22877 16.21 5.36264 16.1268C5.56351 15.9797 5.56351 15.9797 5.7288 15.4519C5.80745 13.7073 6.57955 11.8152 7.66973 10.585C8.02425 10.1832 7.99185 10.0478 7.81257 9.64093C7.79504 9.60116 7.77763 9.56798 7.75709 9.53201C7.73425 9.49202 7.70622 9.44686 7.67064 9.39182C7.61291 9.30254 7.53147 9.18161 7.42677 9.02927C7.24696 8.76763 7.00055 8.41628 6.70316 7.99651C6.48073 7.68267 6.27015 7.38707 6.05791 7.09022L7.46048 5.68254C7.70649 5.89202 7.95189 6.09923 8.18732 6.29573C8.22745 6.32921 8.22745 6.32921 8.26764 6.36268C8.65514 6.68516 8.98219 6.95039 9.23254 7.14316C9.38384 7.25967 9.50764 7.35019 9.60795 7.41629C9.67979 7.46364 9.7436 7.50151 9.8108 7.53368C9.87715 7.56545 9.9439 7.59093 10.0259 7.60952C10.2647 7.66368 10.5123 7.64861 10.7729 7.44597C12.133 6.39027 13.8448 5.69651 15.7153 5.42906C16.22 5.35648 16.2832 5.24306 16.4227 4.84067C16.4365 4.8011 16.4459 4.7666 16.4549 4.72839C16.4648 4.68682 16.4742 4.63929 16.4847 4.58077C16.5016 4.48695 16.5222 4.35836 16.5469 4.19496C16.5895 3.91273 16.6438 3.52849 16.7072 3.06378C16.7174 2.98923 16.7174 2.98923 16.7275 2.91455C16.7713 2.59149 16.8169 2.24942 16.8624 1.90421H18.8692C18.9027 2.24707 18.9365 2.58657 18.9694 2.90759C18.9783 2.99508 18.9871 3.08037 18.9958 3.16327C19.0421 3.60872 19.0825 3.97504 19.1152 4.24362C19.1343 4.39952 19.1507 4.5225 19.1651 4.6136C19.1744 4.67276 19.1832 4.72152 19.1934 4.76609C19.2031 4.80919 19.2139 4.84875 19.2305 4.89469C19.3506 5.22708 19.4464 5.38403 19.9018 5.46684C21.8795 5.83198 23.5131 6.50435 24.7343 7.51966C25.1309 7.84888 25.3394 7.7996 25.6868 7.63111C25.7343 7.60809 25.7726 7.58528 25.8131 7.5586C25.8558 7.53046 25.9018 7.49706 25.9568 7.45502C26.0432 7.38912 26.158 7.29703 26.3018 7.17882C26.5473 6.9771 26.8752 6.70085 27.2665 6.36726C27.5439 6.13051 27.7949 5.91516 28.0476 5.69742L29.4476 7.16928C29.2301 7.4451 29.0145 7.72005 28.8109 7.98181C28.4579 8.43611 28.2 8.77355 28.0117 9.02806C27.9005 9.17837 27.8138 9.2994 27.7513 9.39253C27.7103 9.45366 27.6775 9.50578 27.6497 9.55598C27.6236 9.60313 27.6015 9.64871 27.5809 9.70421C27.4859 9.96028 27.458 10.1638 27.6546 10.4823C28.5965 12.0088 29.1843 13.4487 29.6681 15.4438C29.7305 15.6996 29.8666 15.855 30.0319 15.9676C30.1496 16.0381 30.1496 16.0381 30.2207 16.0668C30.2818 16.0908 30.3391 16.1071 30.4028 16.1217C30.4799 16.1393 30.5713 16.1549 30.6837 16.1707C30.866 16.1964 31.1123 16.2238 31.4186 16.2531C31.6688 16.2771 31.9562 16.3021 32.274 16.3279C32.6018 16.3545 32.9481 16.3808 33.2979 16.406V18.6137C32.932 18.6494 32.5692 18.6867 32.2262 18.7244Z" fill="white"/>
<path fill-rule="evenodd" clip-rule="evenodd" d="M17.4946 8.90616C12.6763 8.90616 8.77148 12.824 8.77148 17.6555C8.77148 22.487 12.6763 26.4048 17.4946 26.4048C22.3126 26.4048 26.2173 22.4869 26.2173 17.6555C26.2173 12.8241 22.3126 8.90616 17.4946 8.90616ZM17.4927 10.6542C21.344 10.6542 24.4674 13.7882 24.4674 17.6556C24.4674 21.5229 21.344 24.6569 17.4927 24.6569C13.6411 24.6569 10.5176 21.5229 10.5176 17.6556C10.5176 13.7882 13.6411 10.6542 17.4927 10.6542Z" fill="white"/>
<path fill-rule="evenodd" clip-rule="evenodd" d="M58.393 16.7999C58.393 17.9486 58.1956 18.9852 57.8007 19.9095C57.4058 20.8339 56.8674 21.6191 56.1853 22.2653C55.5033 22.9115 54.6956 23.4095 53.7623 23.7595C52.8289 24.1095 51.8148 24.2845 50.72 24.2845C49.6251 24.2845 48.611 24.1095 47.6776 23.7595C46.7443 23.4095 45.9321 22.9115 45.2411 22.2653C44.5501 21.6191 44.0116 20.8339 43.6257 19.9095C43.2398 18.9852 43.0469 17.9486 43.0469 16.7999V4.73837H46.4392V16.6653C46.4392 17.2217 46.511 17.7736 46.6546 18.3211C46.7982 18.8685 47.036 19.3576 47.368 19.7884C47.7001 20.2191 48.1398 20.5691 48.6873 20.8384C49.2347 21.1076 49.9123 21.2422 50.72 21.2422C51.5276 21.2422 52.2052 21.1076 52.7526 20.8384C53.3001 20.5691 53.7398 20.2191 54.0719 19.7884C54.4039 19.3576 54.6417 18.8685 54.7853 18.3211C54.9289 17.7736 55.0007 17.2217 55.0007 16.6653V4.73837H58.393V16.7999ZM63.518 10.877V12.6809H63.5988C63.7603 12.4296 63.9712 12.1738 64.2315 11.9136C64.4917 11.6533 64.8103 11.42 65.1873 11.2136C65.5642 11.0071 65.9905 10.8366 66.4661 10.702C66.9417 10.5674 67.4757 10.5001 68.068 10.5001C68.9834 10.5001 69.827 10.6751 70.5988 11.0251C71.3706 11.3751 72.0347 11.8552 72.5911 12.4655C73.1475 13.0757 73.5783 13.7937 73.8834 14.6193C74.1885 15.445 74.3411 16.3334 74.3411 17.2847C74.3411 18.236 74.193 19.1289 73.8969 19.9636C73.6007 20.7982 73.1789 21.5251 72.6315 22.1443C72.0841 22.7636 71.42 23.2571 70.6392 23.6251C69.8584 23.993 68.9744 24.177 67.9873 24.177C67.0719 24.177 66.2328 23.9886 65.47 23.6116C64.7071 23.2347 64.1193 22.7232 63.7065 22.077H63.6526V30.2616H60.4219V10.877H63.518ZM71.0584 17.2849C71.0584 16.7824 70.9821 16.2843 70.8296 15.7907C70.677 15.2971 70.4482 14.8529 70.143 14.458C69.8379 14.0631 69.452 13.7445 68.9853 13.5022C68.5187 13.2599 67.9712 13.1388 67.343 13.1388C66.7507 13.1388 66.2212 13.2644 65.7546 13.5157C65.2879 13.767 64.8885 14.09 64.5565 14.4849C64.2244 14.8798 63.9732 15.3285 63.8026 15.8311C63.6321 16.3336 63.5469 16.8362 63.5469 17.3388C63.5469 17.8413 63.6321 18.3394 63.8026 18.833C63.9732 19.3266 64.2244 19.7708 64.5565 20.1657C64.8885 20.5606 65.2879 20.8791 65.7546 21.1215C66.2212 21.3638 66.7507 21.4849 67.343 21.4849C67.9712 21.4849 68.5187 21.3593 68.9853 21.108C69.452 20.8567 69.8379 20.5336 70.143 20.1388C70.4482 19.7439 70.677 19.2952 70.8296 18.7926C70.9821 18.29 71.0584 17.7875 71.0584 17.2849ZM75.7773 4.73837H79.1697V12.9768H79.2504L87.2197 4.73837H91.7966L82.885 13.5422L92.3889 23.7999H87.6235L79.2504 14.2422H79.1697V23.7999H75.7773V4.73837ZM100.611 16.046C100.611 15.6332 100.553 15.2383 100.436 14.8614C100.32 14.4845 100.136 14.1524 99.8844 13.8653C99.6332 13.5781 99.3146 13.3492 98.9287 13.1787C98.5428 13.0082 98.0896 12.9229 97.5691 12.9229C96.5998 12.9229 95.7787 13.2146 95.1056 13.7979C94.4325 14.3813 94.0601 15.1306 93.9883 16.046H100.611ZM103.842 17.5001V17.9309C103.842 18.0744 103.833 18.218 103.816 18.3616H93.9886C94.0245 18.8283 94.1456 19.2546 94.352 19.6405C94.5585 20.0264 94.8322 20.3584 95.1732 20.6366C95.5142 20.9148 95.9001 21.1347 96.3309 21.2962C96.7617 21.4578 97.2104 21.5385 97.677 21.5385C98.4847 21.5385 99.1668 21.3905 99.7232 21.0943C100.28 20.7982 100.737 20.3898 101.096 19.8693L103.25 21.5924C101.976 23.3155 100.127 24.177 97.704 24.177C96.6988 24.177 95.7745 24.02 94.9309 23.7059C94.0873 23.3917 93.3559 22.9475 92.7367 22.3732C92.1174 21.7988 91.6328 21.0943 91.2828 20.2597C90.9328 19.4251 90.7578 18.4783 90.7578 17.4193C90.7578 16.3783 90.9328 15.4315 91.2828 14.5789C91.6328 13.7264 92.1129 12.9994 92.7232 12.3982C93.3335 11.7969 94.0559 11.3302 94.8905 10.9982C95.7251 10.6661 96.627 10.5001 97.5963 10.5001C98.4937 10.5001 99.3238 10.6482 100.087 10.9443C100.849 11.2405 101.509 11.6802 102.066 12.2635C102.622 12.8469 103.057 13.5738 103.371 14.4443C103.685 15.3148 103.842 16.3334 103.842 17.5001ZM114.217 16.046C114.217 15.6332 114.158 15.2383 114.042 14.8614C113.925 14.4845 113.741 14.1524 113.49 13.8653C113.239 13.5781 112.92 13.3492 112.534 13.1787C112.148 13.0082 111.695 12.9229 111.175 12.9229C110.205 12.9229 109.384 13.2146 108.711 13.7979C108.038 14.3813 107.666 15.1306 107.594 16.046H114.217ZM117.448 17.5001V17.9309C117.448 18.0745 117.439 18.218 117.421 18.3616H107.594C107.63 18.8283 107.751 19.2546 107.958 19.6405C108.164 20.0264 108.438 20.3584 108.779 20.6366C109.12 20.9148 109.506 21.1347 109.936 21.2962C110.367 21.4578 110.816 21.5386 111.283 21.5386C112.09 21.5386 112.772 21.3905 113.329 21.0943C113.885 20.7982 114.343 20.3898 114.702 19.8693L116.856 21.5924C115.581 23.3155 113.733 24.177 111.309 24.177C110.304 24.177 109.38 24.02 108.536 23.7059C107.693 23.3918 106.961 22.9475 106.342 22.3732C105.723 21.7988 105.238 21.0943 104.888 20.2597C104.538 19.4251 104.363 18.4783 104.363 17.4193C104.363 16.3783 104.538 15.4315 104.888 14.5789C105.238 13.7264 105.718 12.9995 106.329 12.3982C106.939 11.7969 107.661 11.3302 108.496 10.9982C109.331 10.6661 110.233 10.5001 111.202 10.5001C112.099 10.5001 112.929 10.6482 113.692 10.9443C114.455 11.2405 115.115 11.6802 115.671 12.2636C116.227 12.8469 116.663 13.5738 116.977 14.4443C117.291 15.3148 117.448 16.3334 117.448 17.5001ZM121.819 10.877V12.6809H121.9C122.061 12.4296 122.272 12.1738 122.532 11.9136C122.793 11.6533 123.111 11.42 123.488 11.2136C123.865 11.0071 124.291 10.8366 124.767 10.702C125.243 10.5674 125.776 10.5001 126.369 10.5001C127.284 10.5001 128.128 10.6751 128.9 11.0251C129.671 11.3751 130.335 11.8552 130.892 12.4655C131.448 13.0757 131.879 13.7937 132.184 14.6193C132.489 15.445 132.642 16.3334 132.642 17.2847C132.642 18.236 132.494 19.1289 132.198 19.9636C131.902 20.7982 131.48 21.5251 130.932 22.1443C130.385 22.7636 129.721 23.2571 128.94 23.6251C128.159 23.993 127.275 24.177 126.288 24.177C125.373 24.177 124.534 23.9886 123.771 23.6116C123.008 23.2347 122.42 22.7232 122.007 22.077H121.953V30.2616H118.723V10.877H121.819ZM129.355 17.2849C129.355 16.7824 129.279 16.2843 129.126 15.7907C128.974 15.2971 128.745 14.8529 128.44 14.458C128.135 14.0631 127.749 13.7445 127.282 13.5022C126.816 13.2599 126.268 13.1388 125.64 13.1388C125.048 13.1388 124.518 13.2644 124.051 13.5157C123.585 13.767 123.185 14.09 122.853 14.4849C122.521 14.8798 122.27 15.3285 122.1 15.8311C121.929 16.3336 121.844 16.8362 121.844 17.3388C121.844 17.8413 121.929 18.3394 122.1 18.833C122.27 19.3266 122.521 19.7708 122.853 20.1657C123.185 20.5606 123.585 20.8791 124.051 21.1215C124.518 21.3638 125.048 21.4849 125.64 21.4849C126.268 21.4849 126.816 21.3593 127.282 21.108C127.749 20.8567 128.135 20.5336 128.44 20.1388C128.745 19.7439 128.974 19.2952 129.126 18.7926C129.279 18.29 129.355 17.7875 129.355 17.2849Z" fill="white"/>
</svg>
