<svg xmlns="http://www.w3.org/2000/svg" width="146" height="21" viewBox="0 0 146 21" fill="none">
  <g clip-path="url(#clip0_8476_1850)">
    <path d="M33.3454 4.2356H35.6657V12.4828C35.6657 13.3868 35.4489 14.182 35.0154 14.8683C34.5859 15.5545 33.9814 16.0907 33.2017 16.477C32.422 16.8591 31.5109 17.0502 30.4687 17.0502C29.4222 17.0502 28.509 16.8591 27.7293 16.477C26.9497 16.0907 26.3451 15.5545 25.9157 14.8683C25.4862 14.182 25.2715 13.3868 25.2715 12.4828V4.2356H27.5917V12.2917C27.5917 12.8177 27.7085 13.2862 27.9419 13.6971C28.1796 14.108 28.5132 14.4306 28.9426 14.6648C29.3721 14.8949 29.8808 15.0099 30.4687 15.0099C31.0566 15.0099 31.5652 14.8949 31.9947 14.6648C32.4282 14.4306 32.7617 14.108 32.9952 13.6971C33.2287 13.2862 33.3454 12.8177 33.3454 12.2917V4.2356Z" fill="black"/>
    <path d="M37.3833 20.4094V7.39147H39.6098V8.95708H39.7411C39.8578 8.72696 40.0226 8.48246 40.2352 8.22359C40.4478 7.96058 40.7354 7.73664 41.0981 7.55172C41.4609 7.36269 41.9237 7.26819 42.4865 7.26819C43.2287 7.26819 43.8979 7.45515 44.4941 7.8291C45.0944 8.19892 45.5698 8.74751 45.92 9.47483C46.2744 10.1981 46.4517 11.0856 46.4517 12.1376C46.4517 13.1772 46.2786 14.0607 45.9325 14.7881C45.5865 15.5154 45.1153 16.0701 44.5191 16.4523C43.923 16.8344 43.2475 17.0255 42.4928 17.0255C41.9425 17.0255 41.486 16.9351 41.1232 16.7543C40.7605 16.5735 40.4687 16.3557 40.2476 16.1009C40.0308 15.8421 39.862 15.5976 39.7411 15.3675H39.6473V20.4094H37.3833ZM39.6035 12.1253C39.6035 12.7376 39.6911 13.2738 39.8662 13.734C40.0454 14.1943 40.3018 14.5538 40.6354 14.8126C40.9731 15.0675 41.3817 15.1949 41.8611 15.1949C42.3616 15.1949 42.7805 15.0633 43.1183 14.8004C43.4559 14.5333 43.7102 14.1696 43.8813 13.7094C44.0564 13.2451 44.1439 12.717 44.1439 12.1253C44.1439 11.5377 44.0585 11.0158 43.8874 10.5597C43.7165 10.1035 43.4622 9.74604 43.1244 9.48716C42.7868 9.22829 42.3656 9.09884 41.8611 9.09884C41.3775 9.09884 40.9668 9.22418 40.6291 9.47483C40.2914 9.7255 40.035 10.0768 39.8599 10.5289C39.689 10.9809 39.6035 11.513 39.6035 12.1253Z" fill="black"/>
    <path d="M47.7859 16.8591V4.2356H50.1061V10.0358H50.2625L55.2593 4.2356H58.0925L53.1393 9.90015L58.1363 16.8591H55.347L51.5258 11.4473L50.1061 13.0992V16.8591H47.7859Z" fill="black"/>
    <path d="M62.4475 17.044C61.4843 17.044 60.6526 16.8468 59.9522 16.4523C59.2558 16.0537 58.7201 15.4907 58.3448 14.7634C57.9695 14.032 57.782 13.1711 57.782 12.1808C57.782 11.2069 57.9695 10.3522 58.3448 9.61661C58.7243 8.87695 59.2538 8.30166 59.9334 7.89074C60.613 7.4757 61.4114 7.26819 62.3287 7.26819C62.9206 7.26819 63.4794 7.36269 64.0048 7.55172C64.5343 7.73664 65.0013 8.02428 65.4056 8.41466C65.8142 8.80503 66.1353 9.30225 66.3688 9.90631C66.6023 10.5063 66.719 11.2213 66.719 12.0513V12.7355H58.8451V11.2315H64.5488C64.5446 10.8042 64.4509 10.4241 64.2674 10.0912C64.084 9.75426 63.8276 9.48922 63.4982 9.29608C63.1729 9.10295 62.7935 9.00638 62.3599 9.00638C61.8971 9.00638 61.4907 9.11733 61.1404 9.33923C60.7902 9.55703 60.5171 9.84467 60.3212 10.2022C60.1294 10.5556 60.0314 10.9439 60.0272 11.3671V12.68C60.0272 13.2307 60.1294 13.7032 60.3336 14.0977C60.538 14.4881 60.8235 14.7881 61.1904 14.9977C61.5573 15.2031 61.9867 15.3059 62.4787 15.3059C62.8081 15.3059 63.1063 15.2606 63.373 15.1702C63.64 15.0757 63.8714 14.9381 64.0673 14.7572C64.2633 14.5764 64.4113 14.3525 64.5113 14.0854L66.6251 14.3196C66.4917 14.8702 66.2374 15.351 65.8623 15.7619C65.4912 16.1688 65.0158 16.4851 64.4363 16.7112C63.8567 16.9331 63.1937 17.044 62.4475 17.044Z" fill="black"/>
    <path d="M72.1826 17.044C71.2195 17.044 70.3877 16.8468 69.6873 16.4523C68.991 16.0537 68.4552 15.4907 68.0799 14.7634C67.7048 14.032 67.5171 13.1711 67.5171 12.1808C67.5171 11.2069 67.7048 10.3522 68.0799 9.61661C68.4594 8.87695 68.9889 8.30166 69.6685 7.89074C70.3481 7.4757 71.1465 7.26819 72.0638 7.26819C72.6559 7.26819 73.2145 7.36269 73.7399 7.55172C74.2694 7.73664 74.7364 8.02428 75.1408 8.41466C75.5493 8.80503 75.8705 9.30225 76.1039 9.90631C76.3374 10.5063 76.4542 11.2213 76.4542 12.0513V12.7355H68.5804V11.2315H74.284C74.2799 10.8042 74.186 10.4241 74.0026 10.0912C73.8191 9.75426 73.5627 9.48922 73.2333 9.29608C72.9081 9.10295 72.5287 9.00638 72.0952 9.00638C71.6323 9.00638 71.2258 9.11733 70.8755 9.33923C70.5253 9.55703 70.2522 9.84467 70.0563 10.2022C69.8645 10.5556 69.7665 10.9439 69.7623 11.3671V12.68C69.7623 13.2307 69.8645 13.7032 70.0687 14.0977C70.2731 14.4881 70.5586 14.7881 70.9257 14.9977C71.2925 15.2031 71.722 15.3059 72.2138 15.3059C72.5434 15.3059 72.8414 15.2606 73.1083 15.1702C73.3751 15.0757 73.6065 14.9381 73.8024 14.7572C73.9984 14.5764 74.1464 14.3525 74.2464 14.0854L76.3604 14.3196C76.227 14.8702 75.9726 15.351 75.5974 15.7619C75.2263 16.1688 74.7509 16.4851 74.1714 16.7112C73.5919 16.9331 72.929 17.044 72.1826 17.044Z" fill="black"/>
    <path d="M77.665 20.4094V7.39147H79.8913V8.95708H80.0228C80.1395 8.72696 80.3041 8.48246 80.5168 8.22359C80.7294 7.96058 81.0172 7.73664 81.3799 7.55172C81.7425 7.36269 82.2054 7.26819 82.7683 7.26819C83.5104 7.26819 84.1795 7.45515 84.7758 7.8291C85.3762 8.19892 85.8515 8.74751 86.2018 9.47483C86.5562 10.1981 86.7332 11.0856 86.7332 12.1376C86.7332 13.1772 86.5602 14.0607 86.2142 14.7881C85.8682 15.5154 85.397 16.0701 84.8009 16.4523C84.2046 16.8344 83.5292 17.0255 82.7744 17.0255C82.2242 17.0255 81.7676 16.9351 81.4049 16.7543C81.0421 16.5735 80.7502 16.3557 80.5294 16.1009C80.3125 15.8421 80.1436 15.5976 80.0228 15.3675H79.9289V20.4094H77.665ZM79.8852 12.1253C79.8852 12.7376 79.9727 13.2738 80.1478 13.734C80.3271 14.1943 80.5835 14.5538 80.9171 14.8126C81.2547 15.0675 81.6633 15.1949 82.1429 15.1949C82.6431 15.1949 83.0622 15.0633 83.3999 14.8004C83.7376 14.5333 83.9919 14.1696 84.1629 13.7094C84.338 13.2451 84.4256 12.717 84.4256 12.1253C84.4256 11.5377 84.3401 11.0158 84.1692 10.5597C83.9983 10.1035 83.7439 9.74604 83.4062 9.48716C83.0684 9.22829 82.6473 9.09884 82.1429 9.09884C81.6593 9.09884 81.2486 9.22418 80.9108 9.47483C80.573 9.7255 80.3167 10.0768 80.1416 10.5289C79.9706 10.9809 79.8852 11.513 79.8852 12.1253Z" fill="black"/>
    <path d="M91.7317 16.8591V4.2356H96.5348C97.5189 4.2356 98.3443 4.4164 99.0114 4.778C99.6828 5.13962 100.189 5.63684 100.531 6.26965C100.877 6.89837 101.05 7.61337 101.05 8.41467C101.05 9.22419 100.877 9.94331 100.531 10.572C100.185 11.2007 99.6744 11.6959 98.999 12.0575C98.3234 12.415 97.4917 12.5937 96.5036 12.5937H93.3203V10.7138H96.1909C96.7662 10.7138 97.2374 10.6152 97.6042 10.4179C97.9711 10.2207 98.2421 9.94946 98.4174 9.60429C98.5965 9.25912 98.6863 8.86258 98.6863 8.41467C98.6863 7.96676 98.5965 7.57227 98.4174 7.23122C98.2421 6.89014 97.969 6.6251 97.5981 6.43609C97.2311 6.24294 96.758 6.14637 96.1783 6.14637H94.0519V16.8591H91.7317Z" fill="black"/>
    <path d="M104.525 4.2356V16.8591H102.261V4.2356H104.525Z" fill="black"/>
    <path d="M110.401 17.044C109.438 17.044 108.606 16.8468 107.906 16.4523C107.21 16.0537 106.674 15.4907 106.299 14.7634C105.924 14.032 105.736 13.1711 105.736 12.1808C105.736 11.2069 105.924 10.3522 106.299 9.61661C106.678 8.87695 107.208 8.30166 107.887 7.89074C108.567 7.4757 109.365 7.26819 110.283 7.26819C110.875 7.26819 111.433 7.36269 111.959 7.55172C112.488 7.73664 112.955 8.02428 113.36 8.41466C113.768 8.80503 114.089 9.30225 114.323 9.90631C114.556 10.5063 114.673 11.2213 114.673 12.0513V12.7355H106.799V11.2315H112.503C112.499 10.8042 112.405 10.4241 112.221 10.0912C112.038 9.75426 111.781 9.48922 111.452 9.29608C111.127 9.10295 110.747 9.00638 110.314 9.00638C109.851 9.00638 109.445 9.11733 109.094 9.33923C108.744 9.55703 108.471 9.84467 108.275 10.2022C108.083 10.5556 107.985 10.9439 107.981 11.3671V12.68C107.981 13.2307 108.083 13.7032 108.288 14.0977C108.492 14.4881 108.777 14.7881 109.144 14.9977C109.511 15.2031 109.941 15.3059 110.433 15.3059C110.762 15.3059 111.06 15.2606 111.327 15.1702C111.594 15.0757 111.825 14.9381 112.021 14.7572C112.217 14.5764 112.365 14.3525 112.465 14.0854L114.579 14.3196C114.446 14.8702 114.191 15.351 113.816 15.7619C113.445 16.1688 112.97 16.4851 112.39 16.7112C111.811 16.9331 111.148 17.044 110.401 17.044Z" fill="black"/>
    <path d="M119.449 17.0255C118.694 17.0255 118.018 16.8344 117.422 16.4523C116.826 16.0701 116.355 15.5154 116.009 14.7881C115.663 14.0607 115.49 13.1773 115.49 12.1376C115.49 11.0857 115.665 10.1981 116.015 9.47484C116.369 8.74752 116.847 8.19893 117.447 7.82911C118.048 7.45516 118.717 7.2682 119.455 7.2682C120.018 7.2682 120.48 7.3627 120.843 7.55173C121.206 7.73665 121.494 7.9606 121.706 8.2236C121.919 8.48248 122.084 8.72698 122.2 8.95709H122.294V4.2356H124.564V16.8591H122.338V15.3675H122.2C122.084 15.5976 121.915 15.8421 121.694 16.1009C121.473 16.3557 121.181 16.5736 120.818 16.7543C120.455 16.9351 119.999 17.0255 119.449 17.0255ZM120.08 15.1949C120.56 15.1949 120.968 15.0675 121.306 14.8127C121.644 14.5539 121.9 14.1943 122.075 13.7341C122.25 13.2738 122.338 12.7376 122.338 12.1253C122.338 11.513 122.25 10.9809 122.075 10.5289C121.904 10.0768 121.65 9.72551 121.312 9.47484C120.979 9.22419 120.568 9.09886 120.08 9.09886C119.576 9.09886 119.155 9.2283 118.817 9.48718C118.479 9.74606 118.225 10.1036 118.054 10.5597C117.883 11.0158 117.797 11.5377 117.797 12.1253C117.797 12.717 117.883 13.2451 118.054 13.7094C118.229 14.1696 118.485 14.5333 118.823 14.8004C119.165 15.0633 119.584 15.1949 120.08 15.1949Z" fill="black"/>
    <path d="M130.45 20.6067C129.637 20.6067 128.939 20.4979 128.355 20.28C127.771 20.0663 127.302 19.7787 126.948 19.4171C126.593 19.0555 126.347 18.6549 126.21 18.2151L128.249 17.7282C128.34 17.9131 128.474 18.096 128.649 18.2768C128.824 18.4618 129.06 18.6138 129.356 18.7328C129.656 18.8562 130.033 18.9178 130.488 18.9178C131.13 18.9178 131.661 18.7638 132.082 18.4556C132.503 18.1515 132.714 17.6502 132.714 16.9515V15.158H132.601C132.485 15.3881 132.314 15.6243 132.089 15.8668C131.868 16.1092 131.574 16.3125 131.207 16.477C130.844 16.6413 130.387 16.7235 129.837 16.7235C129.099 16.7235 128.43 16.553 127.83 16.212C127.233 15.8668 126.758 15.353 126.404 14.671C126.054 13.9847 125.878 13.1259 125.878 12.0945C125.878 11.0548 126.054 10.1775 126.404 9.46251C126.758 8.74339 127.235 8.19892 127.836 7.8291C128.436 7.45515 129.105 7.26819 129.843 7.26819C130.406 7.26819 130.869 7.36269 131.232 7.55172C131.599 7.73664 131.891 7.96058 132.107 8.22359C132.324 8.48246 132.489 8.72696 132.601 8.95708H132.726V7.39147H134.959V17.0132C134.959 17.8227 134.763 18.4925 134.371 19.0226C133.979 19.5527 133.444 19.9492 132.764 20.2123C132.084 20.4753 131.313 20.6067 130.45 20.6067ZM130.469 14.973C130.948 14.973 131.357 14.8579 131.695 14.6278C132.032 14.3977 132.289 14.0669 132.464 13.6354C132.639 13.204 132.726 12.6862 132.726 12.0821C132.726 11.4863 132.639 10.9644 132.464 10.5165C132.293 10.0686 132.039 9.72139 131.701 9.47483C131.367 9.22418 130.957 9.09884 130.469 9.09884C129.964 9.09884 129.543 9.22829 129.206 9.48716C128.868 9.74604 128.613 10.1015 128.442 10.5535C128.272 11.0014 128.186 11.511 128.186 12.0821C128.186 12.6615 128.272 13.169 128.442 13.6046C128.618 14.0361 128.874 14.373 129.212 14.6155C129.554 14.8538 129.973 14.973 130.469 14.973Z" fill="black"/>
    <path d="M140.828 17.044C139.864 17.044 139.033 16.8468 138.332 16.4523C137.636 16.0537 137.1 15.4907 136.725 14.7634C136.35 14.032 136.162 13.1711 136.162 12.1808C136.162 11.2069 136.35 10.3522 136.725 9.61661C137.104 8.87695 137.634 8.30166 138.314 7.89074C138.993 7.4757 139.792 7.26819 140.709 7.26819C141.301 7.26819 141.86 7.36269 142.385 7.55172C142.914 7.73664 143.381 8.02428 143.786 8.41466C144.194 8.80503 144.515 9.30225 144.749 9.90631C144.982 10.5063 145.099 11.2213 145.099 12.0513V12.7355H137.225V11.2315H142.929C142.925 10.8042 142.831 10.4241 142.648 10.0912C142.464 9.75426 142.208 9.48922 141.878 9.29608C141.553 9.10295 141.174 9.00638 140.74 9.00638C140.277 9.00638 139.871 9.11733 139.521 9.33923C139.17 9.55703 138.897 9.84467 138.701 10.2022C138.51 10.5556 138.412 10.9439 138.407 11.3671V12.68C138.407 13.2307 138.51 13.7032 138.714 14.0977C138.918 14.4881 139.204 14.7881 139.571 14.9977C139.938 15.2031 140.367 15.3059 140.859 15.3059C141.188 15.3059 141.486 15.2606 141.753 15.1702C142.02 15.0757 142.251 14.9381 142.447 14.7572C142.643 14.5764 142.791 14.3525 142.891 14.0854L145.005 14.3196C144.872 14.8702 144.618 15.351 144.242 15.7619C143.871 16.1688 143.396 16.4851 142.816 16.7112C142.237 16.9331 141.574 17.044 140.828 17.044Z" fill="black"/>
    <path fill-rule="evenodd" clip-rule="evenodd" d="M8.86232 0.493904C8.90106 0.211282 9.1521 0 9.44913 0H11.8582C12.1552 0 12.4062 0.211288 12.445 0.493914L12.7224 2.51756C13.4978 2.72142 14.2282 3.0325 14.8962 3.43359L16.5517 2.18906C16.7899 2.01005 17.1302 2.03213 17.341 2.24026L19.0445 3.92181C19.2468 4.12135 19.2684 4.43208 19.0958 4.65576L17.7851 6.35464C18.1654 7.00573 18.4578 7.71294 18.646 8.46096L20.7971 8.74844C21.0896 8.78752 21.3073 9.02759 21.3073 9.31102V11.689C21.3073 11.9724 21.0896 12.2125 20.7971 12.2516L18.611 12.5437C18.4151 13.2701 18.1204 13.957 17.7419 14.5894L19.0958 16.3442C19.2684 16.568 19.2468 16.8787 19.0445 17.0782L17.341 18.7598C17.1302 18.9679 16.7897 18.9899 16.5517 18.811L14.7991 17.4933C14.163 17.8638 13.4721 18.1532 12.741 18.3473L12.445 20.5061C12.4062 20.7887 12.1552 21 11.8582 21H9.44913C9.15208 21 8.90105 20.7887 8.86232 20.5061L8.57233 18.3904C7.81399 18.206 7.09736 17.9192 6.43776 17.5462L4.75562 18.811C4.51752 18.9899 4.1771 18.9679 3.96625 18.7598L2.26271 17.0782C2.06057 16.8787 2.03884 16.568 2.21141 16.3442L3.47295 14.7091C3.05527 14.0372 2.73341 13.3016 2.52538 12.5207L0.510293 12.2516C0.217752 12.2125 0 11.9724 0 11.689V9.31102C0 9.02757 0.217734 8.78752 0.510259 8.74844L2.4916 8.48372C2.69051 7.68103 3.00906 6.92426 3.42858 6.23317L2.21143 4.65579C2.03884 4.43211 2.06055 4.12137 2.26271 3.92181L3.96625 2.24026C4.17709 2.03213 4.51752 2.01005 4.75562 2.18906L6.33898 3.37946C7.03102 2.97592 7.78792 2.66854 8.59064 2.47534L8.86232 0.493904ZM9.96821 1.13601L9.71027 3.01721C9.6771 3.25921 9.48652 3.45382 9.23689 3.5006C8.29243 3.67759 7.41323 4.03783 6.63902 4.5449C6.42601 4.68442 6.14339 4.67552 5.94038 4.52288L4.44427 3.39808L3.46205 4.36763L4.61795 5.86564C4.76496 6.05615 4.77321 6.31424 4.63866 6.51305C4.11938 7.28036 3.74887 8.1543 3.5662 9.0954C3.51958 9.33559 3.31812 9.52026 3.06594 9.55395L1.18374 9.80543V11.1945L3.09221 11.4494C3.34061 11.4826 3.54025 11.6624 3.5905 11.8982C3.78655 12.8181 4.16309 13.6713 4.68223 14.4205C4.82031 14.6198 4.81344 14.8807 4.66505 15.0731L3.46203 16.6323L4.44427 17.6018L6.03429 16.4065C6.23483 16.2558 6.5134 16.245 6.72586 16.3799C7.47452 16.8552 8.31702 17.195 9.22015 17.3664C9.46914 17.4137 9.65903 17.6081 9.69213 17.8496L9.96824 19.8639H11.3391L11.6199 17.8158C11.6524 17.5791 11.8356 17.3871 12.0785 17.3354C12.9557 17.1487 13.7737 16.8025 14.4998 16.3278C14.7128 16.1886 14.9952 16.1977 15.1981 16.3501L16.8631 17.6018L17.8453 16.6323L16.5541 14.9591C16.408 14.7697 16.399 14.5134 16.5313 14.3149C17.0098 13.5973 17.3596 12.7883 17.5475 11.9194C17.5983 11.6844 17.7976 11.5054 18.0453 11.4723L20.1235 11.1946V9.8054L18.0729 9.53137C17.8215 9.49775 17.6204 9.31399 17.5731 9.0746C17.3974 8.18503 17.0526 7.3562 16.5738 6.62028C16.445 6.42236 16.4555 6.169 16.6002 5.98148L17.8453 4.36764L16.8631 3.39807L15.2901 4.58054C15.0848 4.73492 14.7983 4.74208 14.5849 4.59817C13.8331 4.09135 12.9797 3.72391 12.0617 3.53094C11.818 3.47974 11.634 3.28748 11.6015 3.05019L11.3391 1.13601H9.96821Z" fill="#FF3C4D"/>
    <path d="M15.4552 8.91025C15.4552 7.58317 14.3179 6.50708 12.915 6.50708C11.8666 6.50708 10.966 7.1084 10.5786 7.96661C10.1912 7.1084 9.29059 6.50708 8.24157 6.50708C6.83979 6.50708 5.7019 7.58317 5.7019 8.91025C5.7019 12.766 10.5786 15.3187 10.5786 15.3187C10.5786 15.3187 15.4552 12.766 15.4552 8.91025Z" stroke="#FF3C4D" stroke-linecap="round" stroke-linejoin="round"/>
  </g>
  <defs>
    <clipPath id="clip0_8476_1850">
      <rect width="146" height="21" fill="black"/>
    </clipPath>
  </defs>
</svg>