<svg width="22" height="22" viewBox="0 0 22 22" fill="none" xmlns="http://www.w3.org/2000/svg">
<path fill-rule="evenodd" clip-rule="evenodd" d="M18.44 6.27404C18.5525 6.1223 18.7081 5.91886 18.8959 5.67714C19.0736 5.44865 19.2367 5.24089 19.3999 5.03441C19.457 4.96212 19.5101 4.89516 19.5577 4.83522C19.5862 4.79932 19.6065 4.77369 19.6172 4.7603C19.7896 4.54386 19.776 4.23343 19.5853 4.03293L18.0014 2.36772C17.7971 2.15296 17.46 2.1369 17.2363 2.33127C17.2231 2.34274 17.2231 2.34274 17.1627 2.39504C17.104 2.44593 17.0384 2.50266 16.9677 2.56376C16.7655 2.73828 16.5625 2.91277 16.3718 3.07548C16.1372 3.27551 15.9565 3.42798 15.8149 3.54535C15.0276 2.98695 14.0761 2.59852 12.9858 2.35707C12.9683 2.20643 12.9475 2.01586 12.9243 1.79281C12.9189 1.74087 12.9134 1.68741 12.9078 1.63253C12.8825 1.38553 12.8563 1.12066 12.8306 0.855746C12.8216 0.763002 12.8133 0.67689 12.806 0.599631C12.7984 0.520231 12.7984 0.520231 12.7968 0.5028C12.77 0.218071 12.5309 0.000488281 12.2449 0.000488281H9.9821C9.70335 0.000488281 9.46797 0.207493 9.43235 0.483953C9.43013 0.501221 9.43013 0.501221 9.41995 0.57972C9.41004 0.656093 9.39894 0.741212 9.38692 0.832886C9.35259 1.09475 9.31778 1.35659 9.28465 1.60079C9.27827 1.64773 9.27827 1.64773 9.27189 1.69455C9.23828 1.94079 9.20885 2.15037 9.18476 2.31378C8.10762 2.51953 7.10587 2.92516 6.2517 3.51098C6.11283 3.40237 5.93466 3.25735 5.72703 3.08455C5.49079 2.88743 5.29346 2.72031 5.09801 2.55315C5.02956 2.49462 4.96626 2.44027 4.90968 2.39154C4.87583 2.36238 4.85166 2.34151 4.8392 2.33071C4.61914 2.14015 4.28916 2.15229 4.0837 2.3585L2.49981 3.94816C2.30833 4.14033 2.28408 4.44284 2.44249 4.66306C2.45274 4.67732 2.45274 4.67732 2.49938 4.74226C2.54476 4.80548 2.59534 4.87603 2.64981 4.95213C2.8054 5.16951 2.96098 5.38773 3.10608 5.59245C3.28994 5.85197 3.43219 6.05458 3.53962 6.21016C2.91836 7.03991 2.4781 8.12079 2.34055 9.19011C2.31044 9.19278 2.27884 9.1955 2.24581 9.19826C2.08207 9.21196 1.88668 9.22646 1.66654 9.24144C1.41693 9.25842 1.14909 9.27513 0.881192 9.29083C0.787382 9.29633 0.700286 9.30131 0.622159 9.30568C0.575381 9.30829 0.541915 9.31013 0.524456 9.31107C0.23035 9.32692 0 9.57002 0 9.86455V12.1353C0 12.4191 0.214454 12.6571 0.496786 12.6866C0.514545 12.6884 0.54827 12.692 0.595671 12.6971C0.674901 12.7056 0.763242 12.7152 0.858399 12.7257C1.1301 12.7559 1.40172 12.7875 1.6547 12.8189C1.79923 12.8369 1.93354 12.8543 2.05555 12.871C2.18077 12.8881 2.29145 12.9042 2.38542 12.9191C2.53161 13.8607 2.94259 14.757 3.61457 15.7665C3.49991 15.9201 3.34193 16.1235 3.15138 16.3637C2.95628 16.6092 2.7859 16.8209 2.61549 17.0308C2.55582 17.1043 2.50042 17.1723 2.45073 17.2331C2.42098 17.2696 2.3997 17.2955 2.38863 17.309C2.20475 17.5331 2.22457 17.861 2.4341 18.0613L4.01778 19.5752C4.21788 19.7665 4.52843 19.7808 4.74529 19.6088C4.75866 19.5982 4.78451 19.5777 4.82072 19.5491C4.88123 19.5014 4.94892 19.4481 5.02209 19.3908C5.23105 19.227 5.44195 19.0632 5.64123 18.9106C5.93958 18.6827 6.14777 18.5275 6.30256 18.4175C7.41718 19.103 8.2817 19.4908 9.21188 19.6357C9.21521 19.6678 9.21862 19.7017 9.22209 19.7374C9.2383 19.9042 9.25549 20.105 9.27326 20.3322C9.29287 20.5829 9.31213 20.852 9.33022 21.1211C9.33656 21.2154 9.34229 21.3029 9.34732 21.3813C9.35033 21.4283 9.35244 21.4619 9.35352 21.4794C9.37156 21.7717 9.61389 21.9996 9.90675 21.9996H12.094C12.3782 21.9996 12.6164 21.7846 12.6454 21.5019C12.6472 21.4842 12.6507 21.4506 12.6557 21.4034C12.6641 21.3243 12.6736 21.2362 12.684 21.1413C12.7138 20.8703 12.7452 20.5994 12.7766 20.3471C12.7969 20.1835 12.8166 20.0332 12.8354 19.8992C12.8522 19.7795 12.8681 19.6743 12.8827 19.586C13.9595 19.3451 14.9546 18.9302 15.8225 18.3522C15.9694 18.4654 16.1612 18.6205 16.3862 18.8073C16.4149 18.8311 16.4149 18.8311 16.4435 18.855C16.6372 19.0163 16.8418 19.1895 17.0442 19.3627C17.1151 19.4234 17.1806 19.4797 17.2392 19.5302C17.2742 19.5604 17.2991 19.5819 17.3121 19.5932C17.5361 19.7875 17.8733 19.7712 18.0774 19.5561L19.5857 17.9667C19.7856 17.756 19.7891 17.4269 19.5937 17.2121C19.5823 17.1996 19.5605 17.1756 19.53 17.1418C19.4788 17.0852 19.4218 17.0219 19.3604 16.9534C19.185 16.7577 19.0097 16.5598 18.8465 16.3723C18.8203 16.3422 18.8203 16.3422 18.7942 16.3121C18.6159 16.1066 18.4665 15.9296 18.3548 15.791C18.9471 14.9668 19.355 14.0344 19.5785 12.9727C19.6409 12.9634 19.7116 12.9535 19.7897 12.9433C19.9463 12.9227 20.1296 12.9009 20.3339 12.8784C20.5876 12.8505 20.86 12.8229 21.1326 12.7968C21.228 12.7877 21.3167 12.7794 21.3961 12.7721C21.4437 12.7678 21.4775 12.7648 21.4953 12.7632C21.7814 12.7379 22.0008 12.4983 22.0008 12.211V9.789C22.0008 9.4969 21.7741 9.25493 21.4826 9.23589C21.4651 9.23474 21.4314 9.23251 21.3843 9.22932C21.3056 9.224 21.2179 9.21795 21.1234 9.21128C20.8535 9.19223 20.5838 9.17206 20.3324 9.15167C20.1359 9.13573 19.9588 9.12031 19.8061 9.10568C19.7215 9.09757 19.6452 9.08978 19.5782 9.08239C19.2928 8.00675 18.9425 7.14371 18.44 6.27404ZM20.2113 11.7762C19.9999 11.7995 19.8093 11.8221 19.6441 11.8438C19.4487 11.8695 19.2912 11.8935 19.1731 11.9165C19.0976 11.9312 19.0354 11.9459 18.981 11.9632C18.9342 11.9781 18.8915 11.995 18.8464 12.0197C18.803 12.0435 18.7615 12.0722 18.7198 12.112C18.6382 12.19 18.575 12.2919 18.5522 12.4271C18.3563 13.6008 17.9215 14.5789 17.2427 15.4202C17.1231 15.568 17.1016 15.723 17.1252 15.869C17.1349 15.9285 17.1512 15.9776 17.1725 16.0256C17.1942 16.0746 17.2203 16.1199 17.253 16.1699C17.2973 16.2376 17.3579 16.3192 17.436 16.4181C17.5639 16.5801 17.7403 16.79 17.9554 17.0381C17.9823 17.0691 17.9823 17.0691 18.0092 17.1C18.1433 17.2541 18.2849 17.4144 18.4279 17.5747L17.635 18.4102C17.4717 18.2711 17.3085 18.1334 17.1519 18.0029C17.1225 17.9785 17.1225 17.9785 17.093 17.954C16.8379 17.7422 16.6222 17.5682 16.4563 17.4419C16.3558 17.3654 16.2733 17.306 16.2057 17.2627C16.1571 17.2315 16.1136 17.2067 16.0675 17.1859C16.0231 17.1659 15.9781 17.1502 15.9238 17.1397C15.7809 17.1122 15.6316 17.1255 15.4776 17.2392C14.5886 17.8965 13.5159 18.3464 12.331 18.567C12.1898 18.5933 12.0884 18.6616 12.0114 18.748C11.9744 18.7895 11.948 18.8301 11.9259 18.8727C11.9029 18.9169 11.8867 18.9593 11.8721 19.0065C11.8543 19.0639 11.8383 19.1317 11.8219 19.2147C11.7956 19.3474 11.7672 19.5253 11.7364 19.745C11.7167 19.8852 11.6963 20.041 11.6753 20.21C11.6482 20.4278 11.6212 20.6583 11.5952 20.8907H10.4245C10.4093 20.6703 10.3934 20.4521 10.3773 20.2455C10.359 20.0119 10.3412 19.8045 10.3243 19.6299C10.3071 19.4537 10.291 19.3127 10.2755 19.2082C10.2656 19.1417 10.2556 19.0873 10.2437 19.0398C10.233 18.9971 10.2207 18.9585 10.2015 18.9159C10.1778 18.8648 10.1778 18.8648 10.1174 18.7808C10.0149 18.6651 10.0149 18.6651 9.72694 18.5796C8.77062 18.5082 7.89919 18.1218 6.60471 17.2994C6.44394 17.1975 6.30742 17.1952 6.16985 17.2273C6.12343 17.2381 6.08475 17.2524 6.04595 17.27C6.00473 17.2886 5.96433 17.311 5.91848 17.3391C5.85232 17.3795 5.76974 17.4352 5.66861 17.5069C5.5001 17.6264 5.2796 17.7906 5.01831 17.9902C4.99217 18.0101 4.99217 18.0101 4.96607 18.0301C4.79433 18.1616 4.61465 18.3009 4.43499 18.4413L3.56888 17.6133C3.70989 17.4391 3.84955 17.2652 3.98167 17.099C4.0002 17.0757 4.0002 17.0757 4.01873 17.0523C4.22626 16.7907 4.39727 16.5702 4.52169 16.4025C4.59602 16.3024 4.6538 16.221 4.69565 16.1565C4.72437 16.1123 4.7473 16.0738 4.76666 16.0347C4.78527 15.9972 4.80056 15.9601 4.81299 15.9148C4.85463 15.7632 4.85624 15.6154 4.73232 15.4388C3.93579 14.3022 3.51329 13.3808 3.44342 12.4311C3.43092 12.2596 3.35366 12.1374 3.25159 12.048C3.20712 12.009 3.16427 11.9823 3.11915 11.9601C3.07482 11.9383 3.03243 11.9231 2.98461 11.9091C2.92625 11.8921 2.85597 11.8765 2.76903 11.8601C2.62849 11.8336 2.43873 11.8043 2.20449 11.7723C2.07767 11.755 1.93898 11.737 1.79023 11.7185C1.57178 11.6914 1.34054 11.6642 1.10738 11.6379V10.3876C1.32372 10.3745 1.53782 10.361 1.7406 10.3472C1.96603 10.3318 2.16686 10.3169 2.33704 10.3027C2.51531 10.2878 2.65778 10.2738 2.76258 10.2604C2.82797 10.2521 2.88094 10.2438 2.9262 10.2341C2.96612 10.2255 3.00185 10.2158 3.04136 10.2006C3.08943 10.1815 3.08943 10.1815 3.17433 10.1288C3.30172 10.0355 3.30172 10.0355 3.40655 9.70078C3.45643 8.59436 3.9461 7.39434 4.63749 6.61418C4.86233 6.35936 4.84179 6.27347 4.72808 6.01542C4.71697 5.9902 4.70592 5.96916 4.6929 5.94635C4.67841 5.92099 4.66064 5.89235 4.63807 5.85744C4.60146 5.80082 4.54981 5.72412 4.48341 5.62751C4.36937 5.46158 4.2131 5.23875 4.0245 4.97253C3.88343 4.77349 3.74988 4.58602 3.61527 4.39775L4.50479 3.505C4.66081 3.63785 4.81644 3.76926 4.96575 3.89388C4.9912 3.91512 4.9912 3.91512 5.01669 3.93634C5.26244 4.14087 5.46986 4.30907 5.62864 4.43133C5.72459 4.50522 5.8031 4.56262 5.86672 4.60455C5.91229 4.63458 5.95275 4.6586 5.99537 4.679C6.03745 4.69915 6.07978 4.71531 6.13176 4.72709C6.28325 4.76144 6.44029 4.75189 6.60553 4.62337C7.46813 3.95384 8.55375 3.51386 9.74006 3.34424C10.0601 3.29821 10.1002 3.22628 10.1887 2.97108C10.1974 2.94599 10.2034 2.9241 10.2091 2.89987C10.2153 2.87351 10.2213 2.84336 10.228 2.80625C10.2387 2.74675 10.2518 2.6652 10.2674 2.56157C10.2944 2.38258 10.3289 2.13889 10.3691 1.84417C10.3755 1.79689 10.3755 1.79689 10.382 1.74953C10.4098 1.54464 10.4387 1.3277 10.4675 1.10876H11.7402C11.7615 1.32621 11.7829 1.54152 11.8038 1.74511C11.8095 1.8006 11.815 1.85469 11.8205 1.90727C11.8499 2.18978 11.8755 2.4221 11.8963 2.59243C11.9083 2.6913 11.9188 2.7693 11.9279 2.82707C11.9338 2.86459 11.9394 2.89552 11.9458 2.92378C11.952 2.95111 11.9589 2.9762 11.9694 3.00534C12.0456 3.21614 12.1063 3.31568 12.3951 3.3682C13.6494 3.59977 14.6854 4.02619 15.4599 4.67011C15.7114 4.8789 15.8436 4.84765 16.064 4.74079C16.0941 4.72619 16.1184 4.71172 16.1441 4.6948C16.1712 4.67696 16.2003 4.65577 16.2353 4.62911C16.29 4.58731 16.3628 4.52892 16.454 4.45395C16.6097 4.32601 16.8177 4.15082 17.0658 3.93925C17.2418 3.7891 17.401 3.65252 17.5612 3.51443L18.4491 4.44789C18.3112 4.62282 18.1744 4.79719 18.0453 4.9632C17.8214 5.25132 17.6579 5.46533 17.5384 5.62674C17.4679 5.72207 17.4129 5.79882 17.3733 5.85789C17.3473 5.89666 17.3265 5.92971 17.3089 5.96155C17.2923 5.99145 17.2783 6.02036 17.2653 6.05555C17.205 6.21795 17.1873 6.34706 17.312 6.54905C17.9093 7.51715 18.2821 8.43034 18.5889 9.69565C18.6285 9.85785 18.7148 9.95642 18.8197 10.0279C18.8943 10.0725 18.8943 10.0725 18.9394 10.0908C18.9782 10.106 19.0145 10.1163 19.0549 10.1255C19.1038 10.1367 19.1617 10.1466 19.233 10.1566C19.3486 10.1729 19.5049 10.1903 19.6991 10.2089C19.8578 10.2241 20.0401 10.24 20.2416 10.2563C20.4495 10.2732 20.6692 10.2899 20.891 10.3059V11.706C20.6589 11.7286 20.4288 11.7523 20.2113 11.7762Z" fill="#DE1824"/>
</svg>
