<?xml version="1.0" encoding="UTF-8"?>
<svg width="100px" height="100px" viewBox="0 0 100 100" version="1.1" xmlns="http://www.w3.org/2000/svg" xmlns:xlink="http://www.w3.org/1999/xlink">
    <!-- Generator: Sketch 56.3 (81716) - https://sketch.com -->
    <title>icon-values-customers</title>
    <desc>Created with Sketch.</desc>
    <g id="Team" stroke="none" stroke-width="1" fill="none" fill-rule="evenodd">
        <g id="Website---About/Team" transform="translate(-279.000000, -1994.000000)" fill-rule="nonzero">
            <g id="icon-values-customers" transform="translate(279.000000, 1994.000000)">
                <g id="Group" transform="translate(1.117318, 1.117318)">
                    <g>
                        <ellipse id="Oval" fill="#E2A975" cx="36.4133586" cy="25.9496103" rx="26.2165896" ry="25.7765791"></ellipse>
                        <path d="M36.4133586,0.173031177 C35.4253177,0.173031177 34.450913,0.228564832 33.4913134,0.333201928 C46.5947381,1.76226798 56.7858577,12.6846662 56.7858577,25.9496103 C56.7858577,39.2143596 46.5945433,50.1367577 33.4913134,51.5658238 C34.450913,51.6704609 35.4255125,51.7259945 36.4133586,51.7259945 C50.8920926,51.7259945 62.6299482,40.1855165 62.6299482,25.9496103 C62.6299482,11.7133143 50.8920926,0.173031177 36.4133586,0.173031177 Z" id="Path" fill="#C38C66"></path>
                        <path d="M42.2253065,50.5983691 L42.2253065,63.7764079 C42.2253065,63.7764079 40.1773424,64.4767165 36.4760851,64.4767165 C32.9696309,64.4767165 30.601021,63.7380215 30.601021,63.7380215 L30.601021,50.6827413 L42.2253065,50.5983691 Z" id="Path" fill="#FFE4C2"></path>
                        <path d="M38.3292462,50.626623 L38.3292462,63.7764079 C38.3292462,63.7764079 37.012183,64.2261331 34.5835739,64.4046202 C35.1664245,64.4490471 35.7999239,64.4767165 36.4762799,64.4767165 C40.1775372,64.4767165 42.2255013,63.7764079 42.2255013,63.7764079 L42.2255013,50.5983691 L38.3292462,50.626623 Z" id="Path" fill="#F2D0A5"></path>
                        <path d="M54.7815295,32.9224939 C46.7696712,31.5548072 43.6430828,26.6695993 43.6430828,26.6695993 L29.1834395,26.6695993 C29.1834395,26.6695993 26.0566563,31.5548072 18.0449928,32.9224939 L18.033889,32.9904983 C18.033889,43.5450104 26.3484712,51.7259945 36.4990719,51.7259945 C46.6496725,51.7259945 54.7926333,43.5448155 54.7926333,32.9904983" id="Path" fill="#FFE4C2"></path>
                        <g transform="translate(17.921877, 26.500270)" fill="#F2D0A5" id="Path">
                            <path d="M0.249737464,6.3984513 C0.207075604,6.40605064 0.166166971,6.41481911 0.123115505,6.4222236 L0.11571299,6.4676248 C0.160517683,6.44463192 0.205322377,6.42163903 0.249737464,6.3984513 Z"></path>
                            <path d="M36.8596523,6.4222236 C28.8475991,5.05453685 25.7212055,0.169328933 25.7212055,0.169328933 L11.2615622,0.169328933 C11.2615622,0.169328933 10.7124125,1.02415751 9.49080283,2.11787822 L17.5151286,2.11787822 C18.8949183,2.11787822 20.2057478,2.67906042 21.1930095,3.6432026 C23.4499972,5.8472067 26.3712632,7.28094927 29.4230472,8.03815552 C30.3797248,8.27548883 31.024328,9.16246846 30.9382251,10.1447322 C30.3651146,16.6778282 26.6515847,22.1666967 21.3562544,25.0174243 C30.1740128,23.6811092 36.870756,16.0616969 36.870756,6.49042282 L36.8596523,6.4222236 Z"></path>
                        </g>
                        <g transform="translate(0.000000, 60.015318)" id="Path">
                            <path d="M36.7240694,10.8376363 C48.7169221,10.8376363 54.8241914,4.95827852 56.091385,3.58006961 C54.2403668,2.31663025 52.2609733,1.22290953 50.1666461,0.321900342 C49.5662633,0.0635227068 48.8733489,0.19173725 48.3871206,0.628602 C47.0542784,1.82559583 43.6296414,4.03525072 36.5086172,4.03525072 C29.2009718,4.03525072 25.6791281,1.70809831 24.3690778,0.536630474 C23.9282386,0.142438953 23.2984405,0.0348790323 22.7498752,0.255844522 C20.6892489,1.08612137 18.707323,2.16776108 16.8311752,3.46452063 C17.8946049,4.58902843 24.3616753,10.8376363 36.7240694,10.8376363 Z" fill="#B3E59F"></path>
                            <path d="M56.0911902,3.58026446 C54.8239966,4.95847337 48.7167273,10.8378311 36.7238746,10.8378311 C24.3614805,10.8378311 17.89441,4.58922328 16.8307856,3.46471549 C7.47108519,9.93448369 0.759342148,21.7859502 0.185257666,34.753156 C0.141816594,35.7352248 0.927067543,36.5557589 1.90965394,36.5557589 L70.9096607,36.5557589 C71.8957535,36.5557589 72.6847057,35.7342505 72.6445763,34.7486743 C72.1156861,21.7797148 65.913353,10.2842483 56.0911902,3.58026446 Z" fill="#95D6A4"></path>
                        </g>
                        <path d="M24.340247,85.3302859 C24.340247,87.9236101 22.2381277,90.0253154 19.6452995,90.0253154 L19.6452995,90.0253154 C17.0522766,90.0253154 14.9501573,87.9236101 14.9501573,85.3302859 L14.9501573,80.3478453 C14.9501573,79.9156571 15.3004131,79.5653079 15.7324862,79.5653079 L23.5579181,79.5653079 C23.9899912,79.5653079 24.340247,79.9156571 24.340247,80.3478453 L24.340247,85.3302859 Z" id="Path" fill="#B3E59F"></path>
                    </g>
                    <g transform="translate(56.492874, 55.923365)" id="Path">
                        <path d="M40.6027922,20.1694337 C40.6992197,31.5216818 31.4797774,40.7433862 20.1307486,40.6467382 C9.11132656,40.5528181 0.105778037,31.5450644 0.0120777869,20.5227057 C-0.084544508,9.17065237 9.13470293,-0.0512468463 20.4839265,0.0452063435 C31.5035434,0.138931564 40.5090919,9.14688007 40.6027922,20.1694337 Z" fill="#FF8086"></path>
                        <path d="M20.4839265,0.0452063435 C19.0852409,0.0333201928 17.7190873,0.163483285 16.3987125,0.421276356 C25.662375,2.23635002 32.7276855,10.4130474 32.8106716,20.1694337 C32.8952161,30.1226234 25.818607,38.437473 16.4242317,40.2706681 C17.6263611,40.5062477 18.8651135,40.6360211 20.1307486,40.6467382 C31.4797774,40.7433862 40.6992197,31.5216818 40.6027922,20.1694337 C40.5090919,9.14688007 31.5035434,0.138931564 20.4839265,0.0452063435 Z" fill="#E5646E"></path>
                        <path d="M20.307435,14.1384788 C24.5120632,8.76925122 32.9632024,13.7448718 30.6847863,20.581357 C29.2533738,24.8767391 24.1540153,27.9192039 20.307435,31.1405456 C16.4604651,27.9192039 11.3613014,24.8767391 9.92969402,20.581357 C7.65166758,13.7450667 16.1028067,8.76944607 20.307435,14.1384788 Z" fill="#FFFFFF"></path>
                    </g>
                </g>
                <g id="Group" fill="#000000">
                    <path d="M24.8520468,79.3645038 L17.0214425,79.3645038 C15.7836257,79.3645038 14.7766082,80.3698149 14.7766082,81.6055341 L14.7766082,86.5814932 C14.7766082,89.971645 17.5401559,92.729926 20.9368421,92.729926 C24.3335283,92.729926 27.0968811,89.971645 27.0968811,86.5814932 L27.0968811,81.6055341 C27.0968811,80.3698149 26.0898635,79.3645038 24.8520468,79.3645038 Z M24.1729045,86.5814932 C24.1729045,88.3620964 22.7212476,89.8109042 20.9368421,89.8109042 C19.1524366,89.8109042 17.7005848,88.362291 17.7005848,86.5814932 L17.7005848,82.2835256 L24.1727096,82.2835256 L24.1727096,86.5814932 L24.1729045,86.5814932 Z" id="Shape"></path>
                    <path d="M86.1504873,68.5248139 C83.4231969,67.0612164 80.371345,67.3803627 78.1296296,69.2446446 C75.8883041,67.3803627 72.8364522,67.0618002 70.1087719,68.5246193 C67.2534113,70.0565219 64.8615984,73.7467492 66.3580897,78.229199 C67.6179337,82.0013535 71.1561404,84.728109 74.5781676,87.3649586 C75.4998051,88.0750593 76.3701754,88.7460451 77.1912281,89.4322098 C77.462963,89.6591151 77.7962963,89.7725678 78.1296296,89.7725678 C78.462963,89.7725678 78.7966862,89.6591151 79.0680312,89.4322098 C79.8892788,88.7458505 80.760039,88.0746701 81.6818713,87.3641802 C85.1035088,84.7273306 88.6413255,82.0007697 89.9007797,78.229199 C91.3974659,73.7469438 89.0060429,70.0565219 86.1504873,68.5248139 Z M87.1269006,77.3060097 C86.1493177,80.2339831 82.9699805,82.68421 79.8951267,85.0536772 C79.3105263,85.5041796 78.7130604,85.9648012 78.1294347,86.4295095 C77.5461988,85.9648012 76.9489279,85.5045688 76.3643275,85.054261 C73.2894737,82.6844046 70.1095517,80.2339831 69.1315789,77.3062043 C68.1647173,74.4097563 69.6206628,72.1000317 71.4923977,71.0958882 C72.1358674,70.7508599 72.8976608,70.52376 73.6873294,70.52376 C74.8157895,70.52376 76.0009747,70.9876898 76.9783626,72.2331391 C77.2555556,72.5861461 77.679922,72.7926183 78.1292398,72.7926183 C78.5785575,72.7926183 79.002924,72.5861461 79.280117,72.2331391 C80.9411306,70.1154861 83.2033138,70.2573506 84.7660819,71.0960828 C86.6382066,72.1002263 88.0939571,74.4097563 87.1269006,77.3060097 Z" id="Shape"></path>
                    <g id="Shape">
                        <path d="M24.8520468,79.3645038 L17.0214425,79.3645038 C15.7836257,79.3645038 14.7766082,80.3698149 14.7766082,81.6055341 L14.7766082,86.5814932 C14.7766082,89.971645 17.5401559,92.729926 20.9368421,92.729926 C24.3335283,92.729926 27.0968811,89.971645 27.0968811,86.5814932 L27.0968811,81.6055341 C27.0968811,80.3698149 26.0898635,79.3645038 24.8520468,79.3645038 Z M24.1729045,86.5814932 C24.1729045,88.3620964 22.7212476,89.8109042 20.9368421,89.8109042 C19.1524366,89.8109042 17.7005848,88.362291 17.7005848,86.5814932 L17.7005848,82.2835256 L24.1727096,82.2835256 L24.1727096,86.5814932 L24.1729045,86.5814932 Z"></path>
                        <path d="M93.2688109,61.9488417 C91.9187135,60.6403415 89.8730994,62.7266637 91.2327485,64.0439209 C94.8935673,67.5901431 96.9335283,72.3222666 96.9764133,77.3684768 C97.0649123,87.736842 88.3678363,96.4547923 77.9651072,96.3473723 C67.7506823,96.2607747 59.3695906,87.8938854 59.282846,77.6965748 C59.194347,67.3313232 67.8892788,58.6100646 78.2937622,58.7176792 C81.3009747,58.743172 84.1748538,59.4641704 86.8356725,60.8604358 C88.5013645,61.7341963 89.8729045,59.1567001 88.1961014,58.2767123 C85.1625731,56.6846779 81.7469786,55.8278477 78.3185185,55.7988521 C71.1563353,55.7350228 64.3309942,59.2775476 60.2358674,65.1412785 C59.5814815,64.6281144 58.9124756,64.1340214 58.2309942,63.6697023 C56.2863548,62.3450502 54.2087719,61.2048803 52.0561404,60.2807181 C50.9430799,59.8027769 49.6341131,60.0228711 48.7206628,60.841754 C48.1717349,61.3339011 47.0132554,62.1780822 44.9937622,62.8506248 L44.9937622,53.5259071 C56.745809,50.3790071 65.4118908,39.8049481 65.4118908,27.2784528 C65.4118908,12.2789623 52.9875244,0.0758945654 37.7159844,0.0758945654 C31.9023392,0.0758945654 26.3378168,1.8257508 21.6239766,5.13631066 C20.0818713,6.21926773 21.7639376,8.60624911 23.3064327,7.52368125 C27.5251462,4.56087418 32.5077973,2.99511091 37.7159844,2.99511091 C51.3752437,2.99511091 62.4879142,13.8887055 62.4879142,27.2786474 C62.4879142,34.2586122 59.4670565,40.5592233 54.6409357,44.9928282 C56.5483431,41.8389225 57.5695906,38.1687391 57.5695906,34.3105708 C57.5695906,33.5827614 57.0744639,32.9285113 56.3423002,32.8037718 C49.1272904,31.5748636 46.294347,27.3819808 46.1818713,27.2111207 C45.9130604,26.7921438 45.4489279,26.5385781 44.9506823,26.5385781 L30.4812865,26.5385781 C29.9890838,26.5385781 29.5249513,26.7933114 29.2545809,27.2041151 C29.1374269,27.3819808 26.3044834,31.5748636 19.0896686,32.8037718 C18.3590643,32.9283167 17.8623782,33.5856804 17.8623782,34.3105708 C17.8623782,38.203962 18.9212476,41.9105358 20.8982456,45.0907127 C16.0097466,40.6520482 12.9440546,34.3101816 12.9440546,27.2786474 C12.9440546,21.6616712 14.945809,16.1846134 18.5805068,11.8562879 C19.791423,10.4137074 17.5506823,8.5381386 16.3397661,9.98091375 C12.2645224,14.8338847 10.020078,20.9770633 10.020078,27.2786474 C10.020078,39.8049481 18.6859649,50.3790071 30.4378168,53.5261017 L30.4378168,62.8080071 C28.388499,62.1165881 27.2031189,61.2527523 26.6378168,60.7481507 C25.7890838,59.9907619 24.5561404,59.7761165 23.497076,60.2019045 C21.3645224,61.0593185 19.2760234,62.1891745 17.2894737,63.5597525 C7.2042885,70.5163651 0.580506823,82.9253211 0.00311890838,95.9427959 C-0.0348927875,96.8062426 0.286354776,97.6593753 0.884990253,98.284046 C1.48362573,98.9087166 2.32358674,99.2670475 3.18927875,99.2670475 L72.2348928,99.2670475 C72.7984405,99.2670475 73.3500975,99.1132427 73.8329435,98.8355465 C75.1637427,99.1054587 76.5366472,99.2543288 77.939961,99.2670475 C89.9536062,99.3732303 100.002144,89.3347145 99.9007719,77.3435678 C99.8504873,71.5103893 97.4953216,66.0432562 93.2688109,61.9488417 Z M31.2089669,29.4568214 L44.2224172,29.4568214 C45.3789474,30.8649575 48.5865497,34.0817195 54.6116959,35.4363402 C54.0643275,44.5341526 46.9249513,51.5119767 37.8935673,51.5592649 C37.8532164,51.5594595 37.8130604,51.5608217 37.7725146,51.5608217 C33.2345029,51.5532322 28.979922,49.7885863 25.7900585,46.5887547 C22.8233918,43.6129093 21.0822612,39.6872142 20.8204678,35.4361456 C26.8460039,34.0815249 30.0526316,30.8649575 31.2089669,29.4568214 Z M33.3615984,54.1431829 C36.2413255,54.5917393 39.1896686,54.5917393 42.0695906,54.1431829 L42.0695906,63.5515792 C39.2126706,64.0104494 36.2161793,64.0013032 33.3615984,63.525308 L33.3615984,54.1431829 Z M24.5892788,62.9088106 C24.6231969,62.8949939 24.6643275,62.9014158 24.6890838,62.9234057 C25.7520468,63.8722824 27.7824561,65.2438334 31.2210526,66.0724464 C31.4239766,66.1788934 31.6545809,66.2398036 31.8998051,66.2398036 C31.9212476,66.2398036 31.9421053,66.2374684 31.9633528,66.23669 C33.6062378,66.5747127 35.5401559,66.7891635 37.8111111,66.7891635 C40.0785575,66.7891635 42.0021442,66.5735451 43.6294347,66.2349386 C43.7783626,66.2250139 43.9208577,66.1932939 44.0539961,66.1423083 C47.5678363,65.3395773 49.6165692,63.9612153 50.6738791,63.0133116 C50.7419103,62.9522068 50.8309942,62.9319682 50.9005848,62.9617422 C52.3251462,63.5733746 53.7138402,64.2877565 55.0471735,65.0941849 C54.019883,65.9562693 52.9003899,66.7074309 51.7280702,67.3583728 C48.480117,69.1623282 44.8060429,70.1942997 41.1111111,70.5214247 C37.2824561,70.8606151 33.3805068,70.5979031 29.6674464,69.5801375 C27.6877193,69.0373941 25.7653021,68.2782538 23.9643275,67.2927921 C22.7405458,66.6229739 21.5701754,65.8504061 20.4937622,64.9628289 C21.8278752,64.1558167 23.1992203,63.467706 24.5892788,62.9088106 Z M3.18927875,96.3479561 C3.09590643,96.3479561 3.03333333,96.3033924 2.99766082,96.2660289 C2.9619883,96.2286654 2.9202729,96.1646416 2.92408731,96.0718167 C3.44327485,84.3708207 9.18206628,73.2154872 17.9849903,66.6537209 C18.8434698,67.4208398 19.7703704,68.112648 20.7329435,68.7431567 C22.6955166,70.0283047 24.8302144,71.0544381 27.0491228,71.8151352 C29.3263158,72.5956816 31.6846004,73.1051482 34.0769981,73.3686386 C36.4617934,73.6313505 38.8785575,73.6519783 41.2682261,73.4400573 C43.6680312,73.2271633 46.0487329,72.7719905 48.3395712,72.0218019 C50.5849903,71.2865976 52.739961,70.2816758 54.7169591,68.9864085 C55.1536062,68.7003444 55.5808967,68.3991013 55.997271,68.0840416 C56.5401559,67.6730433 57.0658869,67.2383037 57.5662768,66.7763198 C57.9565302,67.0629678 58.3411306,67.3593458 58.719883,67.6631187 C57.1471735,70.7364593 56.32846,74.1637801 56.3588694,77.7210946 C56.4265107,85.6404006 60.8243665,92.6038242 67.2847953,96.3479561 L3.18927875,96.3479561 L3.18927875,96.3479561 Z"></path>
                        <path d="M86.1504873,68.5248139 C83.4231969,67.0612164 80.371345,67.3803627 78.1296296,69.2446446 C75.8883041,67.3803627 72.8364522,67.0618002 70.1087719,68.5246193 C67.2534113,70.0565219 64.8615984,73.7467492 66.3580897,78.229199 C67.6179337,82.0013535 71.1561404,84.728109 74.5781676,87.3649586 C75.4998051,88.0750593 76.3701754,88.7460451 77.1912281,89.4322098 C77.462963,89.6591151 77.7962963,89.7725678 78.1296296,89.7725678 C78.462963,89.7725678 78.7966862,89.6591151 79.0680312,89.4322098 C79.8892788,88.7458505 80.760039,88.0746701 81.6818713,87.3641802 C85.1035088,84.7273306 88.6413255,82.0007697 89.9007797,78.229199 C91.3974659,73.7469438 89.0060429,70.0565219 86.1504873,68.5248139 Z M87.1269006,77.3060097 C86.1493177,80.2339831 82.9699805,82.68421 79.8951267,85.0536772 C79.3105263,85.5041796 78.7130604,85.9648012 78.1294347,86.4295095 C77.5461988,85.9648012 76.9489279,85.5045688 76.3643275,85.054261 C73.2894737,82.6844046 70.1095517,80.2339831 69.1315789,77.3062043 C68.1647173,74.4097563 69.6206628,72.1000317 71.4923977,71.0958882 C72.1358674,70.7508599 72.8976608,70.52376 73.6873294,70.52376 C74.8157895,70.52376 76.0009747,70.9876898 76.9783626,72.2331391 C77.2555556,72.5861461 77.679922,72.7926183 78.1292398,72.7926183 C78.5785575,72.7926183 79.002924,72.5861461 79.280117,72.2331391 C80.9411306,70.1154861 83.2033138,70.2573506 84.7660819,71.0960828 C86.6382066,72.1002263 88.0939571,74.4097563 87.1269006,77.3060097 Z"></path>
                    </g>
                </g>
            </g>
        </g>
    </g>
</svg>