<?xml version="1.0" encoding="UTF-8"?>
<svg width="90px" height="100px" viewBox="0 0 90 100" version="1.1" xmlns="http://www.w3.org/2000/svg" xmlns:xlink="http://www.w3.org/1999/xlink">
    <!-- Generator: Sketch 56.3 (81716) - https://sketch.com -->
    <title>icon-values-progress</title>
    <desc>Created with Sketch.</desc>
    <g id="Team" stroke="none" stroke-width="1" fill="none" fill-rule="evenodd">
        <g id="Website---About/Team" transform="translate(-284.000000, -2362.000000)" fill-rule="nonzero">
            <g id="icon-values-progress" transform="translate(284.000000, 2362.000000)">
                <path d="M25.4875184,98.5343934 L6.44989023,98.5343934 L6.44989023,91.8190002 C6.44989023,89.8651123 8.03375234,88.28125 9.98764043,88.28125 L21.949768,88.28125 C23.9036561,88.28125 25.4875184,89.8651123 25.4875184,91.8190002 L25.4875184,98.5343934 Z" id="Path" fill="#A7C7D3"></path>
                <path d="M44.5259094,98.5343934 L25.4875184,98.5343934 L25.4875184,83.0368043 C25.4875184,81.0829162 27.0713807,79.4990539 29.0252686,79.4990539 L40.9881592,79.4990539 C42.9420471,79.4990539 44.5259094,81.0829162 44.5259094,83.0368043 L44.5259094,98.5343934 Z" id="Path" fill="#89B4C9"></path>
                <path d="M63.5643006,98.5343934 L44.5259094,98.5343934 L44.5259094,73.6022949 C44.5259094,71.648407 46.1097717,70.0645447 48.0636598,70.0645447 L60.0265504,70.0645447 C61.9796754,70.0645447 63.5643006,71.648407 63.5643006,73.6022949 L63.5643006,98.5343934 Z" id="Path" fill="#6C96B3"></path>
                <path d="M82.6019287,98.5343934 L63.5643006,98.5343934 L63.5643006,59.2918396 C63.5643006,57.3379516 65.1481629,55.7540895 67.1020508,55.7540895 L79.0641785,55.7540895 C81.0180664,55.7540895 82.6019287,57.3379516 82.6019287,59.2918396 L82.6019287,98.5343934 Z" id="Path" fill="#618AAA"></path>
                <path d="M68.7316895,15.6700135 L87.8807068,15.6700135 C88.4735107,15.6700135 88.7512207,14.9353027 88.3056641,14.543152 L83.3312988,10.1638793 C83.0406189,9.90753164 83.0406189,9.4543457 83.3312988,9.19799805 L88.3056641,4.8179627 C88.7512207,4.42581172 88.4735107,3.69186406 87.8807068,3.69186406 L68.7316895,3.69186406 L68.7316895,15.6700135 Z" id="Path" fill="#FDB659"></path>
                <path d="M70.2568055,21.2753297 L49.5132445,32.5401307 C47.6623535,33.5449219 47.1565246,35.3118896 46.5103148,37.5877381 L42.3851014,52.1743773 L52.494049,48.0323791 L56.4178467,36.1717225 L66.8571473,29.8294066 C69.7738648,28.0570984 71.1616516,24.5658875 70.2568055,21.2753297 L70.2568055,21.2753297 Z" id="Path" fill="#83D9FF"></path>
                <path d="M70.2568055,21.2753297 L67.8634645,22.5746154 C67.4598693,24.634552 66.2155152,26.4945984 64.3333436,27.6382445 L54.8217773,33.416748 C54.2228699,33.7806701 53.7734984,34.3460082 53.553009,35.0112914 L52.1949768,39.1174316 C50.7827758,43.3853148 47.5761414,46.8223572 43.4165955,48.5267639 L42.3851014,52.1751404 L52.494049,48.0323791 L56.4178467,36.1724854 L66.8571473,29.8301697 C69.7738648,28.0570984 71.1616516,24.5658875 70.2568055,21.2753297 L70.2568055,21.2753297 Z" id="Path" fill="#5FC9ED"></path>
                <path d="M52.494049,48.0323791 L58.4686279,55.0918578 C59.4581604,56.4025879 60.3195191,57.3242188 60.1409912,58.7661742 L58.7432861,70.0584412 L55.0979613,70.0584412 L54.14505,60.3500367 C54.0870666,59.7633361 53.7147521,59.2536926 53.1730652,59.0202332 L42.3851014,52.1751404 L52.494049,48.0323791 Z" id="Path" fill="#38627C"></path>
                <path d="M42.3851014,52.1751404 L41.8022156,62.878418 C41.7648316,63.7657166 41.8891906,64.36615 41.5420531,65.0260926 L34.6626281,79.4990539 L38.5299684,79.4990539 L48.8731385,65.7600402 C49.4781494,65.0558473 49.547577,64.1006469 49.7512816,63.2209777 L52.494049,48.0323791 L42.3851014,52.1751404 Z" id="Path" fill="#4F7693"></path>
                <path d="M51.7524719,23.5855102 L53.4492492,26.8966676 C54.2465211,28.4530641 53.6308289,30.3611756 52.0744324,31.1584473 L50.7629395,31.829834 C49.206543,32.6271057 47.2991943,32.0114137 46.5019227,30.4550172 L44.8051453,27.1438598 C44.0078734,25.5874633 44.6235656,23.6793518 46.1799621,22.8820801 L47.4914551,22.2106934 C49.0478516,21.4134217 50.9552002,22.0291137 51.7524719,23.5855102 L51.7524719,23.5855102 Z" id="Path" fill="#FECBAA"></path>
                <path d="M89.2745973,13.4429932 L85.0013732,9.68017578 L89.2745973,5.91812129 C89.9391174,5.33218379 90.1664734,4.41894531 89.8544313,3.59039297 C89.5408631,2.76107793 88.7664795,2.22549434 87.8807068,2.22549434 L70.1972961,2.22549434 L70.1972961,1.46560664 C70.1972961,0.65612793 69.5411682,0 68.7316895,0 C67.9222107,0 67.2660828,0.65612793 67.2660828,1.46560664 L67.2660828,21.231842 L55.2291871,27.7679443 C55.1628113,27.2384645 55.0041199,26.7181396 54.7531129,26.2283324 L53.0570984,22.9171754 C51.8928527,20.6436156 49.0959168,19.7425842 46.823883,20.9060668 L45.5123902,21.5774535 C44.4107055,22.1420289 43.5951232,23.1002809 43.2151795,24.2782594 C42.8352355,25.4554748 42.9367066,26.7105102 43.5012816,27.8114318 L45.1972961,31.123352 C45.5932617,31.8962098 46.1784363,32.5080871 46.8666076,32.9368592 C45.9663391,34.1491699 45.539093,35.6399535 45.0996398,37.1887207 L44.783783,38.3071898 C44.5632934,39.0861512 45.0164795,39.8963928 45.7954406,40.1161193 C45.9281922,40.1542664 46.0624695,40.1718141 46.194458,40.1718141 C46.8338012,40.1718141 47.4212646,39.7506715 47.6043701,39.1044617 L47.920227,37.9882812 C48.5626221,35.7231141 48.9570617,34.5100402 50.2128602,33.8279725 L52.4642945,32.6049805 L52.7420043,32.4630738 C52.8343201,32.4157715 52.9205322,32.3623656 53.0082703,32.3097229 L69.0544129,23.5961914 C68.9529418,25.6019592 67.8733826,27.4971008 66.0957336,28.5766602 L55.6610107,34.9166871 C55.6488037,34.9235535 55.6365967,34.9304199 55.6251525,34.9380492 L52.3773193,36.9110107 C51.6860961,37.3313904 51.4656066,38.2331848 51.8859863,38.9251709 C52.281952,39.5774842 53.1059266,39.8094178 53.7780762,39.4821168 L51.3137816,46.9314574 L49.5124816,47.6699828 L44.6144104,49.6772766 L46.0258484,44.6876525 C46.245575,43.9086914 45.793152,43.0984496 45.0141906,42.8779602 C44.2344666,42.6567078 43.4249879,43.1106566 43.2044982,43.889618 L40.9744262,51.776123 C40.9454346,51.8775939 40.9263611,51.9889832 40.9217834,52.0950316 L40.3381348,62.815857 C40.3205871,63.2247926 40.4075623,63.9976502 40.2183533,64.3966676 L33.7364197,78.0334473 L29.0260314,78.0334473 C26.2664795,78.0334473 24.0219117,80.2780152 24.0219117,83.0368043 L24.0219117,87.2673035 C23.3901977,86.9781494 22.6890564,86.8164062 21.949768,86.8164062 L9.98764043,86.8164062 C7.22885137,86.8164062 4.9842834,89.0602111 4.9842834,91.8197633 L4.9842834,97.0687867 L1.46560664,97.0687867 C0.65612793,97.0687867 1.13686838e-13,97.7249145 1.13686838e-13,98.5343934 C1.13686838e-13,99.3438721 0.65612793,100 1.46560664,100 L87.8791809,100 C88.6886598,100 89.3447875,99.3438721 89.3447875,98.5343934 C89.3447875,97.7249145 88.6886598,97.0687867 87.8791809,97.0687867 L84.0675354,97.0687867 L84.0675354,59.2918396 C84.0675354,56.5330506 81.8229676,54.2884826 79.0641785,54.2884826 L70.1972961,54.2884826 L70.1972961,28.7200928 C71.8223572,26.5174865 72.4243164,23.6305236 71.6697693,20.8869934 C71.5515137,20.4559326 71.2425232,20.1019287 70.8305359,19.9272156 C70.628357,19.8410035 70.411682,19.8028564 70.1972961,19.8112488 L70.1972961,17.1356201 L87.8799438,17.1356201 C88.7664795,17.1356201 89.5408631,16.6000367 89.8536682,15.7714844 C90.1664734,14.942932 89.9391174,14.0289307 89.2745973,13.4429932 L89.2745973,13.4429932 Z M46.005249,25.1785277 C46.144867,24.7459412 46.4439393,24.3934631 46.8482971,24.1867066 L48.15979,23.5153199 C48.4069824,23.3886719 48.6709594,23.3283996 48.9318848,23.3283996 C49.5498656,23.3283996 50.1472473,23.6663818 50.4478455,24.2530822 L52.1446229,27.5650023 C52.5405883,28.338623 52.2842406,29.2762756 51.5800477,29.7500609 L51.1024475,30.0086975 L50.0946045,30.5252074 C49.2607117,30.9524535 48.2337951,30.6213379 47.806549,29.786682 L46.1097717,26.475525 C45.9030152,26.071167 45.8656311,25.6103516 46.005249,25.1785277 L46.005249,25.1785277 Z M43.0603027,78.4843445 C42.5621033,78.2569885 42.0204162,78.1082152 41.4512635,78.0555725 L43.0603027,75.9185791 L43.0603027,78.4843445 Z M50.0190734,66.6748047 C50.7240295,65.8302307 50.9185791,64.84375 51.0757445,64.0487672 C51.1154176,63.8595582 51.838684,59.9090576 51.838684,59.9090576 C51.838684,59.9090576 52.5230408,60.3355408 52.594757,60.3660584 C52.644348,60.3881836 52.6794434,60.4370117 52.684784,60.4942322 L53.4820557,68.5989379 L48.5702516,68.5989379 L50.0190734,66.6748047 Z M58.6860656,58.5853576 L57.4485779,68.5920715 L56.427002,68.5920715 L55.6022645,60.207367 C55.4969787,59.1331482 54.839325,58.1954957 53.8757324,57.7293396 L52.4017334,56.7947387 L53.3836365,51.3526916 C53.3836365,51.3526916 57.5202941,56.2667848 57.6164246,56.3919066 C58.4724426,57.5050354 58.7654113,57.950592 58.6860656,58.5853576 Z M42.8550721,65.6784059 C43.1510926,64.7872926 43.2884217,63.8801574 43.2655334,62.9577637 L43.7980652,53.1799316 L50.5767822,50.4020691 L49.344635,57.2273254 C49.3408203,57.2456359 49.3370057,57.2647094 49.3347168,57.2830199 L48.3154297,62.9264832 C48.1826781,63.5108947 48.0667113,64.3974305 47.7020264,64.8788453 L37.7983094,78.0334473 L36.9819641,78.0334473 L42.8550721,65.6784059 Z M7.91549688,91.8190002 C7.91549688,90.6768799 8.84475703,89.7476195 9.98764043,89.7476195 L21.949768,89.7476195 C23.0926514,89.7476195 24.0226746,90.6768799 24.0226746,91.8190002 L24.0226746,97.0687867 L7.91549688,97.0687867 L7.91549688,91.8190002 Z M26.953125,91.8190002 L26.953125,83.0368043 C26.953125,81.8939209 27.8831482,80.9646605 29.0260314,80.9646605 L40.9881592,80.9646605 C42.1310426,80.9646605 43.0603027,81.8939209 43.0603027,83.0368043 L43.0603027,97.0687867 L26.9538879,97.0687867 L26.9538879,91.8190002 L26.953125,91.8190002 Z M81.1363221,59.2918396 L81.1363221,97.0687867 L65.0299072,97.0687867 L65.0299072,88.28125 C65.0299072,87.4717713 64.3737793,86.8156434 63.5643006,86.8156434 C62.7540588,86.8156434 62.0979309,87.4717713 62.0979309,88.28125 L62.0979309,97.0687867 L45.991516,97.0687867 L45.991516,73.601532 C45.991516,72.4594117 46.9207764,71.5301514 48.0636598,71.5301514 L60.0257873,71.5301514 C61.1686707,71.5301514 62.0979309,72.4594117 62.0979309,73.601532 L62.0979309,80.9486389 C62.0979309,81.7581176 62.7540588,82.4142457 63.5635375,82.4142457 C64.3737793,82.4142457 65.0291443,81.7581176 65.0291443,80.9486389 L65.0291443,59.2918396 C65.0291443,58.1489563 65.9591676,57.2196961 67.1020508,57.2196961 L68.7164307,57.2196961 C68.7210082,57.2196961 68.7263488,57.220459 68.7316895,57.220459 C68.7362672,57.220459 68.7416076,57.2196961 68.7461854,57.2196961 L79.0634156,57.2196961 C80.2062988,57.2196961 81.1363221,58.1497191 81.1363221,59.2918396 L81.1363221,59.2918396 Z M67.1020508,54.2884826 C64.3432617,54.2884826 62.0986938,56.5330506 62.0986938,59.2918396 L62.0986938,69.0498352 C61.5737914,68.8102723 61.0015869,68.6584473 60.3996277,68.6141969 L61.5951539,58.9462281 C61.8301391,57.0617676 60.8688355,55.8128357 59.9395752,54.6043396 C59.8411561,54.4761658 54.1442871,47.7119445 54.1442871,47.7119445 L57.6393127,37.1452332 L67.2660828,31.2965393 L67.2660828,54.2884826 L67.1020508,54.2884826 Z M70.1972961,14.2036438 L70.1972961,5.1574707 L85.7025146,5.1574707 L82.3631287,8.09783945 C81.9084168,8.49838262 81.6474914,9.07516484 81.6474914,9.68093867 C81.6474914,10.2867127 81.9084168,10.8634949 82.3631287,11.2640381 L85.7025146,14.2044066 L70.1972961,14.2044066 L70.1972961,14.2036438 Z" id="Shape" fill="#000000"></path>
            </g>
        </g>
    </g>
</svg>