<?xml version="1.0" encoding="UTF-8"?>
<svg width="100px" height="100px" viewBox="0 0 100 100" version="1.1" xmlns="http://www.w3.org/2000/svg" xmlns:xlink="http://www.w3.org/1999/xlink">
    <!-- Generator: Sketch 56.3 (81716) - https://sketch.com -->
    <title>icon-values-grit</title>
    <desc>Created with Sketch.</desc>
    <g id="Team" stroke="none" stroke-width="1" fill="none" fill-rule="evenodd">
        <g id="Website---About/Team" transform="translate(-720.000000, -2177.000000)" fill-rule="nonzero">
            <g id="icon-values-grit" transform="translate(720.000000, 2177.000000)">
                <g id="XMLID_1212_" transform="translate(40.039062, 28.515625)">
                    <path d="M17.7517578,28.9150391 L17.7517578,31.3609375 L7.55429687,33.5978516 C3.16347656,34.5611328 0.0349609375,38.4503906 0.0349609375,42.9455078 L0.0349609375,61.71875 L46.1287109,61.71875 L46.1287109,42.9509766 C46.1287109,38.4533203 42.9966797,34.5625 38.6029297,33.6019531 L28.3533203,31.3609375 L28.3533203,28.8978516" id="XMLID_1221_" fill="#5DDEF5"></path>
                    <polygon id="XMLID_2604_" fill="#FFFFFF" points="28.3533203 31.3609375 23.0525391 45.5367188 17.7517578 31.3609375"></polygon>
                    <path d="M23.0818359,0.181445313 L23.0818359,0.181445313 C16.8808594,0.181445313 11.8539062,5.20839844 11.8539062,11.409375 L11.8539062,14.1123047 L17.3435547,14.1123047 C20.9927734,14.1123047 24.4546875,12.4964844 26.7986328,9.69960938 L26.7986328,9.69960938 L34.3095703,14.1123047 L34.3095703,11.409375 C34.3095703,5.20839844 29.2828125,0.181445313 23.0818359,0.181445313 Z" id="XMLID_1217_" fill="#AFABB0"></path>
                    <path d="M24.3802734,11.9058594 C22.3347656,13.3265625 19.8853516,14.1123047 17.34375,14.1123047 L11.8541016,14.1123047 L11.8541016,18.88125 C11.8541016,25.0822266 16.8810547,30.1091797 23.0820312,30.1091797 L23.0820312,30.1091797 C29.2830078,30.1091797 34.3099609,25.0822266 34.3099609,18.88125 L34.3099609,14.1123047 L30.5544922,11.9058594 L26.7990234,9.69941406 L24.3802734,11.9058594 Z" id="XMLID_1216_" fill="#FED2A4"></path>
                </g>
                <rect id="XMLID_2502_" fill="#FFBE52" x="1.953125" y="90.234375" width="96.09375" height="7.8125"></rect>
                <circle id="XMLID_2195_" fill="#93E7F8" cx="18.0751953" cy="18.0751953" r="16.1220703"></circle>
                <rect id="XMLID_2533_" fill="#C7C4C8" x="1.953125" y="44.3359375" width="42.1875" height="31.25"></rect>
                <path d="M26.953125,83.203125 L19.140625,83.203125 L19.140625,63.8671875 C19.140625,61.7097656 20.8894531,59.9609375 23.046875,59.9609375 L23.046875,59.9609375 C25.2042969,59.9609375 26.953125,61.7097656 26.953125,63.8671875 L26.953125,83.203125 Z" id="XMLID_1029_" fill="#5DDEF5"></path>
                <path d="M33.203125,90.234375 L12.890625,90.234375 L12.890625,87.3046875 C12.890625,85.0394531 14.7269531,83.203125 16.9921875,83.203125 L29.1015625,83.203125 C31.3667969,83.203125 33.203125,85.0394531 33.203125,87.3046875 L33.203125,90.234375 Z" id="XMLID_1028_" fill="#5DDEF5"></path>
                <rect id="XMLID_1222_" fill="#FFFFFF" x="73.046875" y="82.421875" width="25" height="7.8125"></rect>
                <rect id="XMLID_1227_" fill="#E8E7E9" x="73.046875" y="74.609375" width="25" height="7.8125"></rect>
                <rect id="XMLID_1229_" fill="#FFFFFF" x="73.046875" y="66.796875" width="25" height="7.8125"></rect>
                <g id="XMLID_636_" fill="#000000">
                    <path d="M18.0751953,36.1503906 C28.0417969,36.1503906 36.1503906,28.0417969 36.1503906,18.0751953 C36.1503906,8.10859375 28.0417969,0 18.0751953,0 C8.10859375,0 0,8.10859375 0,18.0751953 C0,28.0417969 8.10859375,36.1503906 18.0751953,36.1503906 Z M18.0751953,3.90625 C25.8878906,3.90625 32.2441406,10.2625 32.2441406,18.0751953 C32.2441406,25.8878906 25.8878906,32.2441406 18.0751953,32.2441406 C10.2625,32.2441406 3.90625,25.8878906 3.90625,18.0751953 C3.90625,10.2625 10.2625,3.90625 18.0751953,3.90625 Z" id="XMLID_1699_"></path>
                    <path d="M19.6291016,22.3683594 C20.0103516,22.7482422 20.5091797,22.9380859 21.0080078,22.9380859 C21.5087891,22.9380859 22.0099609,22.7466797 22.3914062,22.3638672 C23.1527344,21.5998047 23.1507813,20.3630859 22.3869141,19.6015625 L20.0416016,17.2640625 L20.0416016,8.59375 C20.0416016,7.51523438 19.1669922,6.640625 18.0884766,6.640625 C17.0099609,6.640625 16.1353516,7.51523438 16.1353516,8.59375 L16.1353516,18.0751953 C16.1353516,18.5943359 16.3421875,19.0921875 16.7095703,19.4585937 L19.6291016,22.3683594 Z" id="XMLID_1701_"></path>
                    <path d="M98.046875,64.84375 L86.0259766,64.84375 C84.3736328,62.4933594 81.8908203,60.8285156 79.0589844,60.209375 L70.4722656,58.3318359 C73.9861328,55.9619141 76.3017578,51.9447266 76.3017578,47.3966797 L76.3017578,42.6277344 L76.3017578,40.4212891 L76.3017578,39.9248047 C76.3017578,32.6568359 70.3888672,26.7439453 63.1208984,26.7439453 C55.8529297,26.7439453 49.9400391,32.6568359 49.9400391,39.9248047 L49.9400391,40.4212891 L49.9400391,42.6277344 L49.9400391,47.3966797 C49.9400391,51.9388672 52.2496094,55.9519531 55.7560547,58.3230469 L47.1748047,60.2056641 C46.8082031,60.2861328 46.4478516,60.3847656 46.09375,60.4990234 L46.09375,44.3359375 C46.09375,43.2574219 45.2191406,42.3828125 44.140625,42.3828125 L30.859375,42.3828125 C29.7808594,42.3828125 28.90625,43.2574219 28.90625,44.3359375 C28.90625,45.4144531 29.7808594,46.2890625 30.859375,46.2890625 L42.1875,46.2890625 L42.1875,73.6328125 L28.90625,73.6328125 L28.90625,63.8671875 C28.90625,60.6363281 26.2777344,58.0078125 23.046875,58.0078125 C19.8160156,58.0078125 17.1875,60.6363281 17.1875,63.8671875 L17.1875,73.6328125 L3.90625,73.6328125 L3.90625,46.2890625 L15.234375,46.2890625 C16.3128906,46.2890625 17.1875,45.4144531 17.1875,44.3359375 C17.1875,43.2574219 16.3128906,42.3828125 15.234375,42.3828125 L1.953125,42.3828125 C0.874609375,42.3828125 0,43.2574219 0,44.3359375 L0,75.5859375 C0,76.6644531 0.874609375,77.5390625 1.953125,77.5390625 L17.1875,77.5390625 L17.1875,81.25 L16.9921875,81.25 C13.6535156,81.25 10.9375,83.9660156 10.9375,87.3046875 L10.9375,88.28125 L1.953125,88.28125 C0.874609375,88.28125 0,89.1558594 0,90.234375 L0,98.046875 C0,99.1253906 0.874609375,100 1.953125,100 L98.046875,100 C99.1253906,100 100,99.1253906 100,98.046875 L100,90.234375 L100,82.421875 L100,74.609375 L100,66.796875 C100,65.7183594 99.1253906,64.84375 98.046875,64.84375 Z M86.1677734,88.28125 L75,88.28125 L75,84.375 L96.09375,84.375 L96.09375,88.28125 L86.1677734,88.28125 Z M96.09375,80.46875 L75,80.46875 L75,76.5625 L96.09375,76.5625 L96.09375,80.46875 Z M96.09375,72.65625 L75,72.65625 L75,68.75 L84.9363281,68.75 C84.9421875,68.75 84.9480469,68.7511719 84.9537109,68.7511719 C84.9597656,68.7511719 84.9660156,68.75 84.9720703,68.75 L96.09375,68.75 L96.09375,72.65625 Z M53.8460937,39.925 C53.8460937,34.8109375 58.0068359,30.6503906 63.1207031,30.6503906 C67.9904297,30.6503906 71.9955078,34.4226563 72.3671875,39.1986328 L67.8269531,36.53125 C67.0044922,36.0478516 65.9533203,36.2296875 65.340625,36.9607422 C63.3628906,39.3210938 60.4623047,40.675 57.3828125,40.675 L53.8462891,40.675 L53.8462891,40.4216797 L53.8462891,39.925 L53.8460937,39.925 Z M53.8460937,44.5810547 L57.3828125,44.5810547 C61.0595703,44.5810547 64.5507812,43.1789063 67.1884766,40.6865234 L72.3955078,43.7457031 L72.3955078,47.396875 C72.3955078,52.5109375 68.2347656,56.6714844 63.1208984,56.6714844 C58.0070312,56.6714844 53.8462891,52.5107422 53.8462891,47.396875 L53.8462891,44.5810547 L53.8460937,44.5810547 Z M66.1804688,60.2154297 L63.0916016,68.4759766 L59.9970703,60.2005859 C60.9990234,60.4451172 62.0445313,60.5777344 63.1207031,60.5777344 C64.1742188,60.5777344 65.1978516,60.45 66.1804688,60.2154297 Z M44.140625,77.5390625 C45.2191406,77.5390625 46.09375,76.6644531 46.09375,75.5859375 L46.09375,64.7220703 C46.6962891,64.4044922 47.3386719,64.1689453 48.0117188,64.0212891 L56.5546875,62.1470703 L61.2623047,74.7363281 C61.5476563,75.4994141 62.2767578,76.0052734 63.0916016,76.0052734 C63.9064453,76.0052734 64.6355469,75.4994141 64.9208984,74.7361328 L69.6287109,62.1460938 L78.2246094,64.0255859 C78.9791016,64.1904297 79.6951172,64.4697266 80.3539062,64.8435547 L73.046875,64.8435547 C71.9683594,64.8435547 71.09375,65.7181641 71.09375,66.7966797 L71.09375,74.6091797 L71.09375,82.4216797 L71.09375,88.2810547 L42.0271484,88.2810547 L42.0271484,77.5388672 L44.140625,77.5388672 L44.140625,77.5390625 Z M38.1208984,77.5390625 L38.1208984,88.28125 L35.15625,88.28125 L35.15625,87.3046875 C35.15625,83.9660156 32.4402344,81.25 29.1015625,81.25 L28.90625,81.25 L28.90625,77.5390625 L38.1208984,77.5390625 Z M21.09375,63.8671875 C21.09375,62.7902344 21.9699219,61.9140625 23.046875,61.9140625 C24.1238281,61.9140625 25,62.7902344 25,63.8671875 L25,81.25 L21.09375,81.25 L21.09375,63.8671875 Z M14.84375,87.3046875 C14.84375,86.1201172 15.8076172,85.15625 16.9921875,85.15625 L19.140625,85.15625 L26.953125,85.15625 L29.1015625,85.15625 C30.2861328,85.15625 31.25,86.1201172 31.25,87.3046875 L31.25,88.28125 L14.84375,88.28125 L14.84375,87.3046875 Z M96.09375,96.09375 L3.90625,96.09375 L3.90625,92.1875 L96.09375,92.1875 L96.09375,96.09375 Z" id="XMLID_1706_"></path>
                    <path d="M21.6660156,42.9550781 C21.3027344,43.3183594 21.09375,43.8222656 21.09375,44.3359375 C21.09375,44.8496094 21.3025391,45.3535156 21.6660156,45.7166016 C22.0292969,46.0798828 22.5332031,46.2890625 23.046875,46.2890625 C23.5605469,46.2890625 24.0644531,46.0800781 24.4275391,45.7166016 C24.7910156,45.3535156 25,44.8496094 25,44.3359375 C25,43.8222656 24.7910156,43.3183594 24.4275391,42.9550781 C24.0644531,42.5917969 23.5605469,42.3828125 23.046875,42.3828125 C22.5332031,42.3828125 22.0292969,42.5916016 21.6660156,42.9550781 Z" id="XMLID_1768_"></path>
                </g>
            </g>
        </g>
    </g>
</svg>