<?xml version="1.0" encoding="UTF-8"?>
<svg width="92px" height="26px" viewBox="0 0 92 26" version="1.1" xmlns="http://www.w3.org/2000/svg" xmlns:xlink="http://www.w3.org/1999/xlink">
    <!-- Generator: Sketch 63.1 (92452) - https://sketch.com -->
    <title>g2-crowd-vector-logo</title>
    <desc>Created with Sketch.</desc>
    <g id="Demo-Landing-v3" stroke="none" stroke-width="1" fill="none" fill-rule="evenodd">
        <g id="Demo-Landing---Global---Full-Size" transform="translate(-292.000000, -556.000000)" fill="#FFFFFF">
            <g id="Hero">
                <g id="Group-2" transform="translate(150.000000, 556.000000)">
                    <g id="g2-crowd-vector-logo" transform="translate(142.000000, 0.000000)">
                        <path d="M19.6448544,5.82598331 C19.3843533,6.12038141 19.0778813,6.4147795 18.7560857,6.74016687 L17.4842269,7.96424315 L21.1772144,7.96424315 L21.1772144,9.48271752 L15.2316578,9.48271752 L15.2316578,8.69249106 L17.3003437,6.16686532 C17.6834337,5.7794994 18.0052293,5.4386174 18.2350833,5.14421931 C18.4649373,4.86531585 18.7407621,4.52443385 18.8633509,4.30750894 C19.0165869,4.05959476 19.7980904,3.30035757 19.7214724,2.35518474 C19.3843533,1.30154946 18.4189665,1.20858164 17.8519933,1.28605483 C17.2696965,1.30154946 16.5954582,2.09177592 16.488193,2.77353993 C16.488193,2.77353993 15.4308646,2.61859356 15.2010106,2.51013111 C15.2163342,2.21573302 15.722013,0.929678188 16.7027234,0.356376639 C17.1777549,0.139451728 17.4842269,0.0309892729 18.0358765,0.0309892729 C18.4649373,0.0309892729 18.8480273,0.0929678188 19.2004701,0.201430274 C19.5529129,0.309892729 19.8440612,0.480333731 20.0892388,0.697258641 C20.3344164,0.914183552 20.7481536,1.17759237 20.8707424,1.50297974 C21.0699492,1.92133492 21.2231852,2.35518474 21.2231852,2.78903456 C21.269156,3.74970203 20.4570052,4.69487485 20.3037692,4.94278903 C20.119886,5.25268176 19.9053556,5.54707986 19.6448544,5.82598331 M12.7492347,26 C5.70037898,26 0,20.2205006 0,13.1084625 C0,5.98092968 5.71570258,0.216924911 12.7492347,0.216924911 L12.7492347,4.77234803 C8.19812569,4.77234803 4.50513823,8.50655542 4.50513823,13.1084625 C4.50513823,17.7103695 8.19812569,21.4600715 12.7492347,21.4600715 C16.3656042,21.4600715 19.4303241,19.1048868 20.5489468,15.8355185 C18.3423485,15.8355185 15.2163342,15.8200238 15.2163342,15.8200238 L15.2163342,11.0476758 C15.2163342,11.0476758 24.8548783,11.0476758 25.3452334,11.0476758 C25.4524986,11.7139452 25.513793,12.4112038 25.513793,13.1084625 C25.4984694,20.2359952 19.7980904,26 12.7492347,26 M29.7890773,0 L30.6471988,0 L30.6471988,25.7830751 L29.7890773,25.7830751 L29.7890773,0 Z M42.2471636,19.0429082 C41.5116308,19.4922527 40.5922148,19.7246722 39.5195629,19.7246722 C38.4009401,19.7246722 37.4662006,19.5387366 36.7459914,19.1513707 C36.0104586,18.7640048 35.535427,18.2371871 35.2902495,17.5554231 C35.0603955,16.8736591 34.9378067,15.8510131 34.9378067,14.4874851 L34.9378067,10.4123957 C34.9378067,9.40524434 34.9684539,8.66150179 35.0450719,8.15017878 C35.1216899,7.65435042 35.3362203,7.15852205 35.7039866,6.69368296 C36.071753,6.22884386 36.5621082,5.85697259 37.2056994,5.59356377 C37.8492906,5.33015495 38.5848233,5.19070322 39.4122977,5.19070322 C40.5462441,5.19070322 41.4809836,5.39213349 42.2165164,5.81048868 C42.9520492,6.22884386 43.4270807,6.74016687 43.6722583,7.35995232 C43.9021123,7.97973778 43.9480831,7.79380215 43.9480831,9.09535161 L43.9480831,10.1799762 L40.8220688,10.1334923 L40.8220688,9.18831943 C40.8220688,8.47556615 40.7454508,8.02622169 40.5768913,7.84028605 C40.4083317,7.66984505 40.0558889,7.57687723 39.5195629,7.57687723 C38.8912953,7.57687723 38.5082053,7.68533969 38.3396457,7.9022646 C38.1710861,8.11918951 38.0944681,8.58402861 38.0944681,9.29678188 L38.0944681,15.6650775 C38.0944681,16.3468415 38.1710861,16.7961859 38.3396457,17.0131108 C38.5082053,17.2300358 38.8759717,17.3230036 39.4735921,17.3230036 C40.0405653,17.3230036 40.3930081,17.2145411 40.5768913,17.0131108 C40.7454508,16.7961859 40.8373924,16.5172825 40.8373924,15.7425507 L40.8220688,14.7353993 L43.9634067,14.7353993 L43.9634067,14.9523242 C43.9634067,16.3933254 43.9174359,16.8581645 43.7029055,17.4469607 C43.4577279,18.0512515 42.9826964,18.5935638 42.2471636,19.0429082 M51.180822,8.8784267 C51.180822,8.44457688 50.9662917,7.93325387 50.5525545,7.79380215 C50.1388173,7.65435042 49.6024913,7.59237187 48.4991921,7.59237187 L48.4991921,11.5435042 C49.5718441,11.5435042 50.1081701,11.4815256 50.5219073,11.3730632 C50.9509681,11.2646007 51.1654984,10.2574493 51.1654984,9.63766389 L51.1654984,8.8784267 L51.180822,8.8784267 Z M51.180822,15.1227652 C51.180822,14.3790226 51.0275861,13.9296782 50.7211141,13.7437426 C50.4146421,13.5733015 49.8170217,13.4803337 48.5145157,13.4803337 L48.5145157,19.5077473 L45.4344723,19.5077473 L45.4804431,5.50059595 L48.2540146,5.50059595 C50.1081701,5.50059595 51.3647052,5.56257449 52.02362,5.70202622 C52.6825348,5.84147795 53.2188608,6.16686532 53.632598,6.70917759 C54.0463351,7.25148987 54.2608655,8.11918951 54.2608655,9.31227652 C54.2608655,10.3969011 54.0769823,11.3730632 53.8011575,11.7449344 C53.5100092,12.1168057 52.943036,12.3492253 52.100238,12.4266985 C52.866418,12.6126341 53.3874204,12.8450536 53.6479216,13.1394517 C53.9084227,13.4338498 54.0769823,13.7127533 54.1382767,13.9606675 C54.1995711,14.2085816 54.2761891,14.6269368 54.2761891,15.7580453 L54.2761891,19.4302741 L51.2114692,19.5077473 L51.2114692,15.1227652 L51.180822,15.1227652 Z M62.1525192,9.09535161 C62.1525192,8.44457688 62.045254,8.04171633 61.8460472,7.85578069 C61.6468404,7.66984505 61.2177797,7.59237187 60.5895121,7.59237187 C60.0531861,7.59237187 59.6394489,7.66984505 59.3483005,7.80929678 C59.0571521,7.94874851 58.9192397,8.38259833 58.9192397,9.09535161 L58.9192397,15.5721097 C58.9192397,16.3778308 59.0111813,16.8736591 59.1950645,17.0595948 C59.3789477,17.2455304 59.8233321,17.3384982 60.4975705,17.3384982 C61.2024561,17.3384982 61.6468404,17.2300358 61.8460472,17.0131108 C62.045254,16.7961859 62.1371956,16.2848629 62.1371956,15.4636472 L62.1371956,9.09535161 L62.1525192,9.09535161 Z M64.5583243,18.2216925 C64.1752343,18.7020262 63.6389084,19.0738975 62.9799936,19.3373063 C62.3210788,19.6007151 61.5395752,19.7246722 60.6508065,19.7246722 C59.8080085,19.7246722 59.0571521,19.6007151 58.3829138,19.352801 C57.7086754,19.1048868 57.1723494,18.7485101 56.7739358,18.2526818 C56.3601986,17.772348 56.1303447,17.2300358 56.0537267,16.6567342 C55.9771087,16.0834327 55.9311379,15.0762813 55.9311379,13.6352801 L55.9311379,11.2491061 C55.9311379,9.8545888 55.9617851,8.86293206 56.0384031,8.27413588 C56.1150211,7.68533969 56.344875,7.15852205 56.7432886,6.67818832 C57.1417022,6.19785459 57.6627046,5.82598331 58.3216194,5.56257449 C58.9805341,5.29916567 59.7620377,5.17520858 60.6508065,5.17520858 C61.4936045,5.17520858 62.2444608,5.29916567 62.9186992,5.54707986 C63.5929376,5.79499404 64.1292636,6.15137068 64.5276771,6.64719905 C64.9260907,7.12753278 65.1712683,7.66984505 65.2478863,8.2431466 C65.3245043,8.81644815 65.3704751,9.82359952 65.3704751,11.2491061 L65.3704751,13.6507747 C65.3704751,15.045292 65.3398279,16.0369487 65.2632099,16.6257449 C65.1865919,17.2145411 64.9567379,17.7413588 64.5583243,18.2216925 M75.9897295,19.4302741 C75.5453451,17.2920143 74.5033404,12.0393325 74.1508976,9.29678188 C73.9976616,10.4743743 72.7717736,15.727056 72.2048004,19.4302741 L68.8336086,19.4302741 L66.2132731,5.48510131 L69.1707278,5.48510131 L70.0135257,10.3504172 L70.6264697,16.1299166 C70.7643821,13.6972586 71.9902701,9.42073897 72.5725668,5.48510131 L76.0050531,5.48510131 C76.0510239,5.88796186 76.6333207,7.42193087 76.8631747,10.0870083 L77.7212962,16.0369487 C77.9511502,12.659118 78.7326538,8.7079857 79.2536562,5.48510131 L81.9965805,5.48510131 L79.1770382,19.4302741 L75.9897295,19.4302741 L75.9897295,19.4302741 Z M88.938171,9.51370679 C88.938171,8.89392133 88.8922002,8.49106079 88.8002586,8.30512515 C88.708317,8.13468415 88.478463,7.99523242 88.1260202,7.91775924 C87.7735774,7.84028605 87.1299863,7.79380215 86.1645995,7.79380215 L86.1645995,17.1060787 C87.4364583,17.1060787 88.2026382,16.9976162 88.5091102,16.7961859 C88.8002586,16.5947557 88.9534946,16.0214541 88.9534946,15.0917759 L88.9534946,9.51370679 L88.938171,9.51370679 Z M91.7423897,17.8033373 C91.6198009,18.2216925 91.3899469,18.5625745 91.0681513,18.794994 C90.7463557,19.0274136 90.3632657,19.1978546 89.8882342,19.2908224 C89.4285262,19.3837902 88.938171,19.4302741 87.9881078,19.4302741 L83.0385852,19.4302741 L83.0385852,5.48510131 L85.9807163,5.48510131 C87.8808426,5.48510131 88.9534946,5.56257449 89.6124094,5.73301549 C90.2866478,5.88796186 90.7923265,6.15137068 91.1447693,6.52324195 C91.4972121,6.89511323 91.7117425,7.29797378 91.8036841,7.74731824 C91.8956257,8.19666269 91.9262729,9.07985697 91.9262729,10.3969011 L91.9262729,15.2777116 C91.9415965,16.5327771 91.8803021,17.3694875 91.7423897,17.8033373" id="Shape"></path>
                    </g>
                </g>
            </g>
        </g>
    </g>
</svg>