<?xml version="1.0" encoding="UTF-8"?>
<svg width="73px" height="44px" viewBox="0 0 73 44" version="1.1" xmlns="http://www.w3.org/2000/svg" xmlns:xlink="http://www.w3.org/1999/xlink">
    <!-- Generator: Sketch 63.1 (92452) - https://sketch.com -->
    <title>logo-hardrockcafe</title>
    <desc>Created with Sketch.</desc>
    <g id="Demo-Landing-v3" stroke="none" stroke-width="1" fill="none" fill-rule="evenodd">
        <g id="Demo-Landing---Global---Full-Size" transform="translate(-311.000000, -1000.000000)" fill="#5B5E6D">
            <g id="Customers" transform="translate(0.000000, 626.000000)">
                <g id="Logos" transform="translate(150.000000, 156.000000)">
                    <g id="Row-4" transform="translate(11.000000, 218.000000)">
                        <g id="logo-hardrockcafe" transform="translate(150.000000, 0.000000)">
                            <path d="M57.1834296,15.2318348 C56.1940624,12.1617878 54.4739963,9.34918975 52.1109469,7.00444328 C48.208794,3.13251438 43.0206745,1 37.5025024,1 C29.1592601,1 21.9555287,5.93282802 18.6971494,13.0133298 L19.0609183,13.014114 C20.0523929,10.8959749 21.4223873,8.94511239 23.1361315,7.24438055 C26.9734856,3.43674856 32.0757335,1.33978045 37.5025024,1.33978045 C42.9295347,1.33978045 48.0315192,3.43674856 51.8691367,7.24438055 C54.2569466,9.61395714 55.9775395,12.4694198 56.9363512,15.5859906 L57.1834296,15.2318348 Z M57.6694207,23.9592263 C56.443248,33.9197595 47.8666247,41.6599582 37.5025024,41.6599582 C32.0757335,41.6599582 26.9734856,39.5629901 23.1361315,35.7553581 C19.9443948,32.5880815 17.9451144,28.553058 17.3629787,24.1860951 L17,24.0473079 C17.5597458,28.5582854 19.603806,32.730528 22.8943213,35.9955567 C26.7962108,39.8674856 31.9845937,42 37.5027658,42 C43.0212013,42 48.2093209,39.8674856 52.1112103,35.9955567 C55.3911893,32.7409827 57.4326153,28.5846837 58,24.0901725 L57.6694207,23.9592263 Z" id="Shape" fill-rule="nonzero"></path>
                            <path d="M58.8976197,14.6253454 C57.8114626,11.5825504 56.0473882,8.79402648 53.6825232,6.44347262 C49.5011907,2.28843982 43.9422154,0 38.0295209,0 C28.8913335,0 21.0289286,5.53158565 17.6537034,13.4023596 L18.005029,13.4298484 C19.0829415,10.9437009 20.637178,8.65869717 22.6211966,6.68690679 C26.7371042,2.59636687 32.2091126,0.343609583 38.0295209,0.343609583 C43.8499293,0.343609583 49.3219376,2.59636687 53.4378453,6.68664248 C55.7976572,9.03191004 57.5494977,11.8201696 58.6149104,14.8629647 L58.8976197,14.6253454 Z M59.6494723,24.7176875 C58.3002865,35.3812144 49.1190145,43.6563904 38.0295209,43.6563904 C32.2091126,43.6563904 26.7371042,41.4038974 22.6211966,37.3133575 C19.0845372,33.7984958 16.9132868,29.2879592 16.37207,24.4179542 L16,24.1840354 C16.4976004,29.2353605 18.7180522,33.9200807 22.3767846,37.5562631 C26.5578511,41.7115602 32.1168264,44 38.0295209,44 C43.9422154,44 49.5011907,41.7115602 53.6822572,37.5562631 C57.2122677,34.0480092 59.4031987,29.5636399 60,24.715573 L59.6494723,24.7176875 Z" id="Shape" fill-rule="nonzero"></path>
                            <path d="M35.7613375,32.3721207 L36.541541,29.8169202 L37.2578353,32.3721207 L35.7613375,32.3721207 Z M34,35 L34.8796462,35 L35.4975203,33.3218084 L37.5638325,33.3218084 L38.1390153,35 L39,35 L37.1803773,29 L35.9448847,29 L34,35 Z" id="Shape" fill-rule="nonzero"></path>
                            <path d="M32.981383,30.2677123 C32.3829787,29.7098432 31.924734,29.8028664 31.6539894,29.8028664 C30.5712766,29.8028664 29.7981383,30.7971877 29.7981383,32.0367766 C29.7981383,33.236344 30.5518617,34.1971336 31.606383,34.1971336 C31.8414894,34.1971336 32.349734,34.2901568 32.931383,33.7998918 L32.931383,34.7125473 C32.774734,34.8250406 32.3329787,35 31.5848404,35 C31.1574468,35 30.4390957,34.8445105 29.7978723,34.1619794 C29.3135638,33.6387236 29,32.95457 29,32.0367766 C29,31.3042185 29.1994681,30.4751217 29.7978723,29.8312601 C30.3180851,29.2693348 30.9837766,29 31.6678191,29 C32.3090426,29 32.693617,29.1846944 33,29.417523 L32.981383,30.2677123 Z" id="Path" fill-rule="nonzero"></path>
                            <polygon id="Path" fill-rule="nonzero" points="43 29.7121954 40.7970683 29.7121954 40.7970683 31.1588946 42.5198351 31.1588946 42.5198351 31.87109 40.7970683 31.87109 40.7970683 34 40 34 40 29 43 29 43 29.7121954"></polygon>
                            <polygon id="Path" fill-rule="nonzero" points="47 29.7121954 44.7498707 29.7121954 44.7498707 31.1588946 46.6198931 31.1588946 46.6198931 31.87109 44.7498707 31.87109 44.7498707 33.2878046 47 33.2878046 47 34 44 34 44 29 47 29"></polygon>
                            <g id="Group" transform="translate(0.000000, 7.000000)">
                                <path d="M53.8628533,6.32236527 C51.9753307,5.80904192 49.7452517,7.06526946 48.6240856,9.73562874 C47.5029195,12.4057186 48.0108938,14.9952395 49.6450952,15.6974551 C51.2792967,16.3996707 53.9944418,16.3166766 55.5940147,12.7670659 C56.970633,9.71299401 55.9272479,6.88365269 53.8628533,6.32236527 Z M53.3745907,11.5992216 C52.9409346,13.0106587 51.6130627,14.5484731 50.8219334,14.1814671 C50.2891864,13.9343713 50.1831697,12.5178144 50.6666376,11.0826647 C51.3546804,9.03934132 52.625282,8.00784431 53.3303727,8.43305389 C54.0354633,8.85853293 53.8452726,10.0681437 53.3745907,11.5992216 Z" id="Shape" fill-rule="nonzero"></path>
                                <path d="M34.0681055,1.18023952 L32.5455146,6.88715569 C32.3473327,6.69125749 32.1201161,6.52958084 31.8577382,6.41667665 C30.2235368,5.71446108 27.9859993,7.01110778 26.8648333,9.6811976 C25.7436672,12.3512874 26.1594762,15.0852395 27.7936777,15.7874551 C28.5485802,16.1118862 29.4308092,15.9410479 30.2725495,15.4056287 L30.1947684,15.6974551 L33.2692514,15.6974551 L37.1428549,1.18023952 L34.0681055,1.18023952 Z M29.3072119,13.6967066 C28.6189028,13.244012 28.5935973,11.9336228 29.026987,10.4823054 C29.4601103,9.03098802 30.7629431,7.95826347 31.4741604,8.37350299 C32.0428678,8.70547904 31.9432441,10.3440719 31.3686765,11.8382335 C30.8471171,13.195509 29.7882825,14.0127844 29.3072119,13.6967066 Z" id="Shape" fill-rule="nonzero"></path>
                                <path d="M9.79641832,0.10239521 L8.22907663,5.99685629 L5.93719901,5.99685629 L7.5045407,0.10239521 C7.5045407,0.10239521 4.98358187,0.10239521 4.68391168,0.10239521 C3.5185276,1.88757485 1.92028658,1.75284431 1.92028658,1.75284431 C1.92028658,1.75284431 1.80361499,2.2244012 1.43735142,3.47065868 C2.31984684,3.80748503 3.34645032,3.21790419 3.34645032,3.21790419 L0.0277028443,15.6974551 L3.35737163,15.6974551 L5.30988941,8.35464072 L7.60176703,8.35464072 L5.64924925,15.6974551 L8.97891804,15.6974551 L13.1260871,0.10239521 L9.79641832,0.10239521 Z" id="Path" fill-rule="nonzero"></path>
                                <path d="M59.6788524,13.957006 C59.170079,13.663024 58.8626839,12.5178144 59.3458855,11.0826647 C60.0339282,9.03934132 61.1090117,8.21883234 61.9209181,8.34305389 C62.3186138,8.4039521 62.899308,8.8892515 63.2732964,9.56344311 L63.8028469,7.45517964 C63.3976928,6.99305389 62.8817274,6.66026946 62.2983694,6.50155689 C60.4108467,5.98823353 58.1250957,7.28757485 57.0596017,9.73508982 C55.9038071,12.3900898 56.6155571,14.9895808 58.0806113,15.6969162 C59.0856386,16.1822156 60.4891606,16.2040419 61.8228927,15.3388024 L62.4003904,13.0381437 C61.477939,13.8034132 60.2672714,14.2973353 59.6788524,13.957006 Z" id="Path"></path>
                                <path d="M25.0787989,6.16526946 L24.8720931,6.95964072 C24.8720931,6.95964072 25.6275283,6.41802395 26.2934621,6.26631737 C27.0592859,6.08092814 27.4090343,6.36736527 27.4090343,6.36736527 L26.726319,8.91053892 C26.726319,8.91053892 25.910417,8.38832335 25.1613747,8.80949102 C24.3787694,9.23065868 23.982672,10.3764072 23.982672,10.3764072 L22.5975298,15.6974551 L19.7670449,15.6974551 L22.2483141,6.16526946 L25.0787989,6.16526946 Z" id="Path"></path>
                                <path d="M18.9181126,13.5417665 C18.7273891,13.4717066 18.8784229,12.9718563 18.8784229,12.9718563 L20.6503394,6.16526946 L17.820121,6.16526946 L17.6136815,6.95856287 C17.3784737,6.64194611 17.0878602,6.39350299 16.7375791,6.24314371 C15.1033776,5.54092814 12.8695694,7.13640719 11.7484033,9.80649701 C10.6272373,12.4768563 11.0433127,15.2105389 12.6772478,15.9127545 C13.6066249,16.3120958 14.7293892,15.9666467 15.7317527,15.1049102 C15.8119311,15.2140419 16.4107388,15.9836228 17.3699498,15.9836228 C18.8683007,15.9836228 19.5009378,15.2256287 19.5009378,15.2256287 L20.0504663,13.2046707 C20.0501999,13.2049401 19.2843761,13.676497 18.9181126,13.5417665 Z M14.4715397,13.5331437 C13.7688464,13.1033533 13.6407207,11.6867964 14.0741104,10.235479 C14.5072337,8.78416168 15.7171022,7.83727545 16.4221928,8.26248503 C17.1272835,8.68769461 17.0034198,10.1438623 16.5330042,11.6752096 C16.0990818,13.0863772 15.0695482,13.8990719 14.4715397,13.5331437 Z" id="Shape"></path>
                                <path d="M44.910839,2.41086826 L41.4101584,15.6974551 L38.0471929,15.6974551 L41.2639193,3.48844311 C41.2639193,3.48844311 40.6110379,3.82419162 39.9618857,3.7738024 C39.5290287,3.7738024 39.1627652,3.60538922 39.1627652,3.60538922 L39.7288089,1.75284431 C39.7288089,1.75284431 40.2948525,1.87086826 41.0108645,1.61811377 C41.710095,1.36535928 42.775589,0.405538922 42.775589,0.405538922 L45.439324,0.405538922 C45.439324,0.405538922 49.6680034,0.152784431 50.1839688,4.04326347 C50.2505622,8.23688623 46.3215531,8.74212575 46.3215531,8.74212575 L46.221663,8.97790419 C46.221663,8.97790419 47.0122595,9.60413174 47.1206736,11.3863473 C47.2538603,13.5757186 46.8543001,14.182006 46.8210034,15.0914371 C46.7975625,15.733024 46.9107712,16.2773353 47.2373452,16.5061078 C47.8867638,16.9609581 48.719181,16.2029641 48.719181,16.2029641 L49.3353029,18.3756287 C49.3353029,18.3756287 48.1986871,19.7636228 46.0221492,19.5882036 C44.1407532,19.436497 43.6413029,17.701976 43.5747095,17.2641018 C43.5081161,16.8262275 43.4748194,15.9167964 43.6247877,15.3608982 C43.774756,14.805 44.2076129,13.7441317 44.3240182,12.4808982 C44.4404234,11.2176647 44.3407997,10.1398204 44.1575347,9.70194611 C43.9742697,9.26407186 43.6745996,9.09565868 43.6745996,9.09565868 L44.2073466,7.14206587 C44.2073466,7.14206587 46.155336,7.10838323 47.037565,5.44095808 C47.9197941,3.77353293 47.0876432,2.76305389 46.6380048,2.5442515 C46.1883663,2.3254491 45.7389942,2.25781437 45.4726207,2.29149701 C45.2062472,2.32517964 44.910839,2.41086826 44.910839,2.41086826 Z" id="Path"></path>
                                <path d="M66.6826109,10.6760479 L65.3837737,15.6864072 L62.8311164,15.6864072 L66.557149,1.31523952 L69.1098062,1.31523952 L67.5595124,7.29431138 C67.5595124,7.29431138 68.7800358,6.31697605 70.0786067,6.36763473 C71.3771775,6.41829341 72.0431112,7.09194611 72.1430013,7.91703593 C72.2428914,8.74212575 72.0263297,9.82023952 71.4104742,10.6453293 C70.7946186,11.4704192 69.8122332,12.0096108 69.4459696,12.1947305 C69.079706,12.3798503 68.9132226,12.3968263 68.9132226,12.3968263 L68.8298477,12.6495808 C68.8298477,12.6495808 69.2960013,13.0707485 69.5290781,13.8791317 C69.7621549,14.687515 69.6955616,15.7990419 69.8122332,16.3212575 C69.9289048,16.8434731 70.063157,17.1684431 70.3617617,17.3150299 C70.9445869,17.6014671 71.6105207,16.8938623 71.6105207,16.8938623 L72.1933459,18.7800898 C72.1933459,18.7800898 70.8726661,20.0743114 69.2464558,19.8579341 C67.9811817,19.689521 67.4649499,18.6790419 67.3485446,17.7696108 C67.2321394,16.8601796 67.4652162,16.3042814 67.4817314,15.4958982 C67.4982465,14.687515 67.2651697,13.3905988 67.0320929,13.205479 C66.7990161,13.0203593 66.599236,12.9190419 66.599236,12.9190419 L67.0488744,11.2349102 C67.0488744,11.2349102 68.1095737,11.2006886 69.013379,10.5105988 C69.8958744,9.83694611 70.2120598,9.18 69.8958744,8.67476048 C69.5796891,8.16952096 68.6306003,8.47266467 68.1809618,8.74212575 C67.7313234,9.01158683 67.1652797,9.51682635 66.9987962,9.88733533 C66.8323128,10.2578443 66.6826109,10.6760479 66.6826109,10.6760479 Z" id="Path"></path>
                            </g>
                        </g>
                    </g>
                </g>
            </g>
        </g>
    </g>
</svg>