<?xml version="1.0" encoding="UTF-8"?>
<svg width="114px" height="25px" viewBox="0 0 114 25" version="1.1" xmlns="http://www.w3.org/2000/svg" xmlns:xlink="http://www.w3.org/1999/xlink">
    <!-- Generator: Sketch 63.1 (92452) - https://sketch.com -->
    <title>logo-certarus</title>
    <desc>Created with Sketch.</desc>
    <g id="Demo-Landing-v3" stroke="none" stroke-width="1" fill="none" fill-rule="evenodd">
        <g id="Demo-Landing---Global---Full-Size" transform="translate(-290.000000, -930.000000)" fill="#5B5E6D" fill-rule="nonzero">
            <g id="Customers" transform="translate(0.000000, 626.000000)">
                <g id="Logos" transform="translate(150.000000, 156.000000)">
                    <g id="Row-3" transform="translate(0.000000, 141.000000)">
                        <g id="logo-certarus" transform="translate(140.000000, 7.000000)">
                            <path d="M35.5518112,17.8160221 C33.0167356,17.1229928 31.4823477,14.3622366 32.1605916,11.7150917 C32.7610043,9.37469751 34.528886,8 36.9750116,8 C38.0201743,8 38.8985557,8.20450045 39.5545622,8.59077908 C40.0215498,8.87480755 41,9.81778187 41,9.98819894 C40.9888813,10.0450046 40.73315,10.2949496 40.4107062,10.5221724 C40.0882623,10.7493951 39.6435122,11.0788681 39.4100184,11.2492851 L38.9986245,11.5673969 L38.6317057,11.2152017 C38.0424118,10.6357837 37.6087804,10.4653667 36.8304678,10.5221724 C35.6185237,10.6017003 34.8958048,11.3969798 34.7957361,12.7830385 C34.751261,13.4647067 34.7846173,13.6351238 35.0403485,14.1918195 C35.3961487,14.9189323 36.0410363,15.3733777 36.8304678,15.475628 C37.4086429,15.5324336 38.3982119,15.1007104 38.7762495,14.6235427 C38.8985557,14.4644868 39.065337,14.3622366 39.1431683,14.3963199 C39.2209996,14.4304033 39.699106,14.7485152 40.1994498,15.1120715 C41.2334938,15.8619066 41.2334938,15.8505455 40.3328748,16.6685473 C39.0542183,17.8501055 37.2418616,18.2818287 35.5518112,17.8160221 Z" id="Path"></path>
                            <path d="M98.1324087,17.8374834 C97.7465324,17.7569426 97.2698613,17.595861 97.0655738,17.4923085 C96.4073138,17.1471337 95.7490539,16.4222665 95.408575,15.6743876 L95.0794451,14.9610262 L95.0453974,11.486266 L95,8 L96.3732662,8 L97.7351826,8 L97.7692303,11.083562 C97.8032787,13.8219492 97.8259774,14.2016416 98.0189152,14.5928397 C98.5750314,15.7204109 100.345523,15.7664343 100.981084,14.6733805 C101.196721,14.305194 101.20807,14.04056 101.242119,11.1410911 L101.276166,8 L102.638083,8 L104,8 L103.965952,11.4287369 C103.931904,14.6618747 103.909205,14.8804854 103.67087,15.4902944 C102.887768,17.4692968 100.686003,18.401269 98.1324087,17.8374834 Z" id="Path"></path>
                            <path d="M108.888347,17.8757657 C108.02754,17.7044866 106.458475,16.9622777 106.12069,16.5740453 C105.924557,16.3456733 105.924557,16.3228361 106.447578,15.6833945 C107.384659,14.5186973 107.35197,14.5529531 107.559,14.7128135 C108.049333,15.0896273 109.160754,15.5577899 109.803635,15.6605573 C110.686234,15.808999 111.252841,15.6605573 111.350907,15.2494877 C111.470766,14.7356507 111.165671,14.5415345 109.531228,14.1076278 C107.243008,13.502442 106.382201,12.6688842 106.382201,11.0816988 C106.382201,9.87132724 107.003289,8.90074628 108.11471,8.36407202 C109.585709,7.6561189 112.287988,8.02151407 113.562854,9.10628107 L113.824364,9.33465306 L113.181484,10.2367224 C112.832803,10.7277222 112.538603,11.1502104 112.527707,11.1730476 C112.527707,11.1844662 112.135441,11.0131872 111.677796,10.7848152 C110.620857,10.2595596 109.629294,10.133955 109.226132,10.476513 C109.029999,10.647792 108.975517,10.7733966 109.029999,10.99035 C109.117169,11.332908 109.367784,11.4585126 110.740716,11.8239078 C113.366721,12.5204424 114.107668,13.2626513 113.987809,15.0667901 C113.86795,16.8595103 112.680255,17.864347 110.52279,17.9899516 C110.05425,18.0242075 109.356887,17.9671144 108.888347,17.8757657 Z" id="Path"></path>
                            <path d="M60.1538462,16.9356181 L58.8269231,16.9042283 L57.8692308,15.6067849 L56.9230769,14.2988783 L56.3461538,14.2988783 L55.7692308,14.2988783 L55.7692308,15.6067849 L55.7692308,16.9146916 L54.3846154,16.9146916 L53,16.9146916 L53,12.4573458 L53,8 L55.9769231,8.04185303 C58.7230769,8.08370598 58.9884615,8.1046325 59.6346153,8.33482407 C60.5,8.63825841 61.3076923,9.33929636 61.526923,10.0089446 C61.9538461,11.306388 61.5615384,12.6770741 60.5346153,13.3990386 C60.2461538,13.6083037 59.9576923,13.7757157 59.9,13.7757157 C59.6807692,13.7757157 59.8653846,14.0686867 60.9038461,15.3870566 C61.5038461,16.1508741 62,16.8309856 62,16.9042283 C62,16.9670079 61.8846153,17.0088609 61.7461538,16.9983976 C61.5961538,16.9879344 60.8807692,16.9565446 60.1538462,16.9356181 Z M58.1,12.2062277 C58.6307692,12.0702055 58.8846153,11.7563078 58.8846153,11.2645349 C58.8846153,10.4797909 58.3423077,10.2182096 56.726923,10.2182096 L55.7692308,10.2182096 L55.7692308,11.2645349 L55.7692308,12.3108603 L56.726923,12.3108603 C57.2461538,12.3108603 57.8692308,12.258544 58.1,12.2062277 Z" id="Shape"></path>
                            <path d="M72.0008887,16.9689396 C71.9690444,16.9375063 72.7969963,14.9153039 73.8372435,12.4844697 L75.7266722,8.06286642 L76.9898295,8.03143325 L78.2423725,8 L80.1211859,12.3901702 C81.150819,14.8000488 82,16.832729 82,16.9060731 C82,17.0003727 81.9150823,17.0213282 81.7664749,16.9794173 C81.6284835,16.9479841 81.0234413,16.9165509 80.4077846,16.9165509 L79.2932345,16.9165509 L78.9854062,16.1307209 L78.6775778,15.3448909 L76.9685999,15.3658464 L75.2596225,15.3972796 L74.9517942,16.1621541 L74.6545807,16.9165509 L73.5081857,16.9165509 C72.8712996,16.9165509 72.2874874,16.9375063 72.2131841,16.9689396 C72.1282659,17.0003727 72.032733,17.0003727 72.0008887,16.9689396 Z M77.8602409,13.3331662 C77.8602409,13.2912552 77.6585599,12.7568908 77.4250348,12.1387046 L76.9792151,11.0175872 L76.5227801,12.1596601 C76.2680254,12.7778463 76.05573,13.3226884 76.05573,13.3541216 C76.05573,13.3855548 76.4590913,13.416988 76.9579855,13.416988 C77.4568796,13.416988 77.8602409,13.3855548 77.8602409,13.3331662 Z" id="Shape"></path>
                            <path d="M91.1250906,16.9448957 L89.8035006,16.9029501 L88.8841345,15.602637 L87.9647677,14.2918375 L87.3671796,14.2918375 L86.7580997,14.2918375 L86.7580997,15.602637 L86.7580997,16.9134366 L85.3790495,16.9134366 L84,16.9134366 L84,12.4567183 L84,8 L86.4478127,8 C89.2288967,8 90.2172155,8.10486392 90.9871851,8.46140137 C92.5616003,9.18496269 93.1247125,10.8208404 92.3777271,12.4147727 C92.1249011,12.9286061 91.561789,13.4738986 91.0561379,13.6836266 C90.9067406,13.746545 90.7803277,13.8304361 90.7803277,13.8723817 C90.7803277,13.9038409 91.2859796,14.595943 91.9180437,15.4033955 C92.5386161,16.2003616 93.0327755,16.8924638 92.9982995,16.9448957 C92.9753152,16.9868413 92.8374105,17.0078141 92.6995058,16.9973277 C92.5616003,16.9868413 91.8490917,16.9553821 91.1250906,16.9448957 Z M89.4472467,12.0582352 C90.0793108,11.6807249 90.102295,10.8942453 89.4817227,10.4747894 C89.217405,10.2965207 88.9530865,10.2545751 87.9647677,10.2231159 L86.7580997,10.1811703 L86.7580997,11.2507827 L86.7580997,12.3203951 L87.9417835,12.2784495 C88.838166,12.2574767 89.2059125,12.1945583 89.4472467,12.0582352 Z" id="Shape"></path>
                            <path d="M10.5542287,17.7775031 C8.65411187,17.1617016 7.33427024,15.5537752 7.04982161,13.5239108 C6.77675092,11.5510652 7.64147475,9.62383434 9.26852089,8.58609467 C9.82604021,8.23257895 20.896781,3.89916058 20.9991825,4.00179416 C21.0219384,4.02460163 20.5668206,5.27901221 19.9865453,6.77290118 C19.3948921,8.26679012 18.4163889,10.7984188 17.7906019,12.3949413 C16.539028,15.6336014 16.1635557,16.2722104 15.059895,17.0704717 C13.819699,17.9599628 12.0106057,18.2450561 10.5542287,17.7775031 Z" id="Path"></path>
                            <path d="M10.2914445,24.8511152 C6.89157841,24.2335189 3.94137203,22.2814733 2.07692933,19.4250904 C0.914394464,17.6384725 0.278290488,15.8187691 0.058944288,13.6240964 C-0.302976942,9.98468955 1.02406756,6.12471258 3.42590845,3.83078341 C6.95738227,0.478117696 11.5746198,-0.768103441 15.9176745,0.46708919 C17.3872941,0.897200907 19.789135,2.13239354 19.5697888,2.36399216 C19.5368869,2.38604917 18.9007829,2.52941974 18.1550058,2.68381882 C14.4370877,3.40067169 10.3462811,4.31603766 9.63340592,4.56969329 C6.59546105,5.67254385 4.3581298,8.69435444 4.16071822,11.980849 C4.0181432,14.4512343 4.85165876,16.5025364 6.85867649,18.6420665 C7.62638821,19.4581759 7.90057094,19.6677175 8.76698839,20.0978292 C10.1050002,20.7595396 11.015287,20.9801097 12.5178084,20.9801097 C14.0203299,20.9801097 14.9306166,20.7595396 16.2686285,20.0978292 C17.1350459,19.6677175 17.4092287,19.4581759 18.1769404,18.6420665 C19.2846387,17.4730449 19.9536446,16.4473938 20.3704024,15.3114578 C20.5349121,14.8372321 21.0613429,12.6205024 21.5110027,10.3817157 C21.9716296,8.15395766 22.4322567,6.11368408 22.5309624,5.86002845 L22.7174067,5.40785972 L23.079328,5.78282891 C23.6934973,6.42248224 24.4392744,8.22012864 24.8011956,9.96263253 C25.0644111,11.1757682 25.0644111,13.7233529 24.812163,14.9254601 C24.5818494,15.9841967 24.1650916,17.2635033 23.7812358,18.0134416 C21.982597,21.6528486 18.6485347,24.1563193 14.6783685,24.8511152 C13.5487356,25.0496283 11.3772082,25.0496283 10.2914445,24.8511152 Z" id="Path"></path>
                            <polygon id="Path" points="43 12.5 43 8 46.9420289 8 50.8840579 8 50.8840579 9.11176469 50.8840579 10.2235294 48.3333333 10.2235294 45.7826087 10.2235294 45.7826087 10.8588235 45.7826087 11.4941176 48.1014492 11.4941176 50.4202898 11.4941176 50.4202898 12.5 50.4202898 13.5058823 48.1014492 13.5058823 45.7826087 13.5058823 45.7826087 14.1941176 45.7826087 14.8823529 48.3913044 14.8823529 51 14.8823529 51 15.9411765 51 17 47 17 43 17"></polygon>
                            <polygon id="Path" points="65.7027027 13.6647059 65.7027027 10.3294117 64.3513513 10.3294117 63 10.3294117 63 9.16470585 63 8 67 8 71 8 71 9.16470585 71 10.3294117 69.6486487 10.3294117 68.2972973 10.3294117 68.2972973 13.6647059 68.2972973 17 67 17 65.7027027 17"></polygon>
                        </g>
                    </g>
                </g>
            </g>
        </g>
    </g>
</svg>