<?xml version="1.0" encoding="UTF-8"?>
<svg width="152px" height="17px" viewBox="0 0 152 17" version="1.1" xmlns="http://www.w3.org/2000/svg" xmlns:xlink="http://www.w3.org/1999/xlink">
    <!-- Generator: Sketch 63.1 (92452) - https://sketch.com -->
    <title>logo-sa</title>
    <desc>Created with Sketch.</desc>
    <g id="Demo-Landing-v3" stroke="none" stroke-width="1" fill="none" fill-rule="evenodd">
        <g id="Demo-Landing---Global---Full-Size" transform="translate(-413.000000, -559.000000)" fill="#FFFFFF">
            <g id="Hero">
                <g id="Group-2" transform="translate(150.000000, 556.000000)">
                    <g id="logo-sa" transform="translate(263.000000, 3.000000)">
                        <path d="M138.048193,1.4746988 C138.048193,0.675903614 138.703614,0.0204819277 139.50241,0.0204819277 L150.224699,0.0204819277 C151.023494,0.0204819277 151.678916,0.675903614 151.678916,1.4746988 L151.678916,6.73855422 C151.678916,7.5373494 151.023494,8.19277108 150.224699,8.19277108 L149.108434,8.19277108 C148.309639,8.19277108 147.090964,8.51024096 146.384337,8.89939759 L142.492771,11.060241 C141.796386,11.4493976 141.499398,11.1728916 141.827108,10.4457831 L142.277711,9.4626506 C142.605422,8.73554217 142.226506,8.14156627 141.427711,8.14156627 L139.492169,8.14156627 C138.693373,8.14156627 138.037952,7.48614458 138.037952,6.6873494 L138.037952,1.4746988" id="Fill-1"></path>
                        <path d="M138.058434,15.1668675 C138.140361,15.1668675 138.212048,15.1566265 138.273494,15.1259036 C138.324699,15.0951807 138.355422,15.0439759 138.355422,14.9415663 C138.355422,14.8903614 138.345181,14.8493976 138.324699,14.8289157 C138.304217,14.7981928 138.273494,14.7777108 138.242771,14.7674699 C138.212048,14.7572289 138.171084,14.746988 138.13012,14.736747 C138.089157,14.736747 138.048193,14.726506 138.01747,14.726506 L137.761446,14.726506 L137.761446,15.1668675 L138.058434,15.1668675 Z M138.058434,14.4192771 C138.283735,14.4192771 138.457831,14.4704819 138.570482,14.5626506 C138.683133,14.6548193 138.744578,14.7981928 138.744578,14.9722892 C138.744578,15.1259036 138.703614,15.2385542 138.621687,15.3204819 C138.539759,15.4024096 138.437349,15.4536145 138.314458,15.4638554 L138.754819,16.1909639 L138.324699,16.1909639 L137.904819,15.4740964 L137.761446,15.4740964 L137.761446,16.1909639 L137.372289,16.1909639 L137.372289,14.4192771 L138.058434,14.4192771 Z M136.95241,15.7608434 C137.013855,15.9042169 137.085542,16.0271084 137.187952,16.139759 C137.290361,16.2421687 137.413253,16.3343373 137.546386,16.3957831 C137.689759,16.4572289 137.843373,16.4879518 138.007229,16.4879518 C138.171084,16.4879518 138.324699,16.4572289 138.468072,16.3957831 C138.611446,16.3343373 138.734337,16.2524096 138.826506,16.139759 C138.928916,16.0373494 139.010843,15.9042169 139.062048,15.7608434 C139.123494,15.6174699 139.143976,15.4638554 139.143976,15.310241 C139.143976,15.1463855 139.113253,15.003012 139.062048,14.8596386 C139.000602,14.7162651 138.928916,14.5933735 138.826506,14.4807229 C138.724096,14.3783133 138.601205,14.2861446 138.457831,14.2246988 C138.314458,14.163253 138.160843,14.1325301 137.996988,14.1325301 C137.833133,14.1325301 137.679518,14.163253 137.536145,14.2246988 C137.392771,14.2861446 137.26988,14.3680723 137.16747,14.4807229 C137.06506,14.5831325 136.983133,14.7162651 136.931928,14.8596386 C136.870482,15.003012 136.85,15.1566265 136.85,15.310241 C136.860241,15.4740964 136.890964,15.6174699 136.95241,15.7608434 Z M136.491566,14.6650602 C136.573494,14.460241 136.696386,14.2861446 136.839759,14.1427711 C136.983133,13.9891566 137.157229,13.876506 137.362048,13.7945783 C137.556627,13.7126506 137.771687,13.6614458 138.007229,13.6614458 C138.23253,13.6614458 138.44759,13.7024096 138.65241,13.7843373 C138.846988,13.8662651 139.031325,13.9891566 139.174699,14.1325301 C139.328313,14.2861446 139.440964,14.460241 139.522892,14.6548193 C139.604819,14.8493976 139.656024,15.0644578 139.656024,15.3 C139.656024,15.5355422 139.61506,15.7403614 139.533133,15.9451807 C139.451205,16.15 139.328313,16.3138554 139.18494,16.4674699 C139.031325,16.6108434 138.857229,16.7337349 138.662651,16.8156627 C138.468072,16.8975904 138.253012,16.9385542 138.01747,16.9385542 C137.792169,16.9385542 137.577108,16.8975904 137.372289,16.8156627 C137.16747,16.7337349 136.993373,16.6210843 136.85,16.4674699 C136.696386,16.3240964 136.583735,16.15 136.491566,15.9451807 C136.409639,15.7506024 136.358434,15.5355422 136.358434,15.3 C136.368675,15.0849398 136.409639,14.8698795 136.491566,14.6650602 Z" id="Fill-21"></path>
                        <path d="M132.630723,10.3843373 L130.26506,10.3843373 C130.090964,10.3843373 130.029518,10.2716867 130.029518,10.1487952 L130.05,9.84156627 C130.090964,9.21686747 130.68494,8.7560241 131.463253,8.7560241 C132.221084,8.7560241 132.825301,9.20662651 132.876506,9.82108434 L132.896988,10.1283133 C132.896988,10.2716867 132.845783,10.3843373 132.630723,10.3843373 Z M131.371084,6.27771084 C128.810843,6.27771084 126.987952,8.12108434 126.987952,10.2307229 L126.987952,13.026506 C126.987952,15.3716867 128.728916,17 131.371084,17 C132.804819,17 133.839157,16.4981928 134.576506,15.7813253 C134.924699,15.4331325 135.201205,15.023494 135.446988,14.6138554 C135.58012,14.3987952 135.508434,14.153012 135.385542,14.0915663 L133.23494,13.0060241 C133.101807,12.9445783 132.968675,12.9855422 132.907229,13.1801205 C132.610241,13.9379518 132.108434,14.2861446 131.371084,14.2861446 C130.572289,14.2861446 129.998795,13.7433735 129.998795,13.046988 L129.998795,12.5656627 C129.998795,12.4120482 130.060241,12.3301205 130.254819,12.3301205 L135.487952,12.3301205 C135.621084,12.3301205 135.703055,12.2686747 135.703055,12.1150602 L135.703055,10.2307229 C135.713253,8.14156627 133.910843,6.27771084 131.371084,6.27771084 Z" id="Fill-19"></path>
                        <path d="M122.000602,8.95060241 C122.676506,8.95060241 123.168072,9.38072289 123.536747,10.2512048 C123.598193,10.4048193 123.710843,10.4457831 123.864458,10.3843373 L125.994578,9.43192771 C126.127711,9.37048193 126.168675,9.2373494 126.107229,9.06325301 C125.912651,8.6126506 125.69759,8.19277108 125.410843,7.84457831 C124.693976,6.89216867 123.628916,6.34939759 121.98012,6.34939759 C119.286747,6.34939759 117.658434,7.97771084 117.658434,10.3228916 L117.658434,12.9650602 C117.658434,15.310241 119.286747,16.9180723 121.98012,16.9180723 C123.495783,16.9180723 124.499398,16.4674699 125.216265,15.6584337 C125.58494,15.2487952 125.871687,14.746988 126.107229,14.1837349 C126.168675,14.0096386 126.127711,13.896988 125.994578,13.8355422 L123.864458,12.8626506 C123.710843,12.8012048 123.608434,12.8421687 123.536747,12.9957831 C123.168072,13.8662651 122.666265,14.3168675 122.000602,14.3168675 C121.201807,14.3168675 120.679518,13.7536145 120.679518,13.0572289 L120.679518,10.210241 C120.669277,9.51385542 121.191566,8.95060241 122.000602,8.95060241" id="Fill-18"></path>
                        <path d="M115.743373,6.58493976 L113.162651,6.58493976 C113.009036,6.58493976 112.94759,6.64638554 112.94759,6.8 L112.94759,16.4572289 C112.94759,16.6108434 113.009036,16.6722892 113.162651,16.6722892 L115.743373,16.6722892 C115.866265,16.6722892 115.937952,16.6108434 115.937952,16.4572289 L115.937952,6.8 C115.937952,6.64638554 115.845783,6.58493976 115.743373,6.58493976" id="Fill-17"></path>
                        <path d="M114.43253,2.3246988 C113.592771,2.3246988 112.906627,3.01084337 112.906627,3.85060241 C112.906627,4.69036145 113.592771,5.37650602 114.43253,5.37650602 C115.272289,5.37650602 115.958434,4.69036145 115.958434,3.85060241 C115.958434,3.01084337 115.28253,2.3246988 114.43253,2.3246988" id="Fill-20"></path>
                        <path d="M111.585542,6.58493976 L108.830723,6.58493976 C108.718072,6.58493976 108.636145,6.64638554 108.595181,6.75903614 L106.966867,11.4289157 C106.88494,11.6644578 106.751807,12.2277108 106.710843,12.5144578 L106.649398,12.5144578 C106.608434,12.2277108 106.495783,11.7156627 106.393373,11.4289157 L104.703614,6.73855422 C104.662651,6.62590361 104.601205,6.58493976 104.488554,6.58493976 L101.733735,6.58493976 C101.539157,6.58493976 101.477711,6.71807229 101.539157,6.89216867 L105.420482,16.5289157 C105.461446,16.6313253 105.543373,16.6825301 105.635542,16.6825301 L107.653012,16.6825301 C107.765663,16.6825301 107.84759,16.6415663 107.888554,16.5289157 L111.790361,6.89216867 C111.851807,6.71807229 111.790361,6.58493976 111.585542,6.58493976" id="Fill-16"></path>
                        <path d="M97.3608434,12.9240964 C97.3608434,13.6409639 96.7771084,14.1837349 96.0192771,14.1837349 C95.2409639,14.1837349 94.6981928,13.6409639 94.6981928,12.9240964 L94.6981928,10.3228916 C94.6981928,9.62650602 95.2409639,9.10421687 96.0192771,9.10421687 C96.7975904,9.10421687 97.3608434,9.62650602 97.3608434,10.3228916 L97.3608434,12.9240964 Z M100.136145,3.00060241 L97.5759036,3.00060241 C97.473494,3.00060241 97.3608434,3.06204819 97.3608434,3.21566265 L97.3608434,6.23674699 C97.3608434,6.56445783 97.4222892,7.18915663 97.4222892,7.18915663 C96.9921687,6.8 96.2753012,6.58493976 95.753012,6.58493976 C93.3873494,6.58493976 91.6771084,8.17228916 91.6771084,10.5379518 L91.6771084,12.7295181 C91.6771084,15.2487952 93.1518072,16.6825301 95.8042169,16.6825301 C96.4084337,16.6825301 97.1253012,16.4879518 97.5861446,16.0987952 C97.7192771,15.9861446 97.8728916,16.0271084 97.8728916,16.2012048 L97.8728916,16.5289157 C97.8728916,16.6108434 97.9343373,16.6825301 98.046988,16.6825301 L100.146386,16.6825301 C100.279518,16.6825301 100.361446,16.6210843 100.361446,16.4674699 L100.361446,3.21566265 C100.351205,3.07228916 100.269277,3.00060241 100.136145,3.00060241 Z" id="Fill-15"></path>
                        <path d="M86.0343373,12.0126506 L84.713253,12.0126506 C84.4981928,12.0126506 84.4060241,11.8795181 84.4572289,11.7566265 L84.9078313,9.99518072 C85.1228916,9.19638554 85.296988,8.23373494 85.3379518,7.67048193 L85.4301205,7.67048193 C85.4710843,8.23373494 85.6042169,9.18614458 85.8192771,9.99518072 L86.2801205,11.7566265 C86.3210843,11.8795181 86.2289157,12.0126506 86.0343373,12.0126506 Z M86.5566265,3.15421687 C86.5156627,3.04156627 86.4439759,3.00060241 86.3415663,3.00060241 L84.4060241,3.00060241 C84.2728916,3.00060241 84.2319277,3.04156627 84.1909639,3.15421687 L79.9204819,16.3957831 C79.8590361,16.5698795 79.9409639,16.6825301 80.1355422,16.6825301 L82.8698795,16.6825301 C82.9825301,16.6825301 83.023494,16.6415663 83.0644578,16.5289157 L83.6891566,14.5524096 C83.7301205,14.439759 83.7710843,14.4192771 83.9246988,14.4192771 L86.7921687,14.4192771 C86.9457831,14.4192771 86.986747,14.439759 87.0277108,14.5524096 L87.6319277,16.5289157 C87.6728916,16.6313253 87.7240964,16.6825301 87.846988,16.6825301 L90.6018072,16.6825301 C90.8168675,16.6825301 90.8885542,16.5698795 90.8168675,16.3957831 L86.5566265,3.15421687 Z" id="Fill-14"></path>
                        <path d="M72.1271084,10.3843373 L69.7614458,10.3843373 C69.5873494,10.3843373 69.5259036,10.2716867 69.5259036,10.1487952 L69.5463855,9.84156627 C69.5873494,9.21686747 70.1813253,8.7560241 70.9596386,8.7560241 C71.7174699,8.7560241 72.3319277,9.20662651 72.3728916,9.82108434 L72.3933735,10.1283133 C72.3831325,10.2716867 72.3421687,10.3843373 72.1271084,10.3843373 Z M70.8674699,6.27771084 C68.3072289,6.27771084 66.4843373,8.12108434 66.4843373,10.2307229 L66.4843373,13.026506 C66.4843373,15.3716867 68.2150602,17 70.8674699,17 C72.3012048,17 73.3457831,16.4981928 74.0831325,15.7813253 C74.4313253,15.4331325 74.7180723,15.023494 74.9536145,14.6138554 C75.086747,14.3987952 75.0150602,14.153012 74.8921687,14.0915663 L72.7415663,13.0060241 C72.6084337,12.9445783 72.4855422,12.9855422 72.4138554,13.1801205 C72.1066265,13.9379518 71.6150602,14.2861446 70.8777108,14.2861446 C70.0789157,14.2861446 69.5054217,13.7433735 69.5054217,13.046988 L69.5054217,12.5656627 C69.5054217,12.4120482 69.5668675,12.3301205 69.7716867,12.3301205 L75.0048193,12.3301205 C75.1379518,12.3301205 75.2198795,12.2686747 75.2198795,12.1150602 L75.2198795,10.2307229 C75.2096386,8.14156627 73.4072289,6.27771084 70.8674699,6.27771084 Z" id="Fill-13"></path>
                        <path d="M65.1837349,6.62590361 C65.0301205,6.60542169 64.8560241,6.58493976 64.6204819,6.58493976 C63.8012048,6.58493976 63.0126506,6.97409639 62.6644578,7.40421687 C62.5518072,7.50662651 62.3777108,7.49638554 62.3777108,7.30180723 L62.3777108,6.8 C62.3777108,6.64638554 62.3162651,6.58493976 62.1626506,6.58493976 L60.1042169,6.58493976 C59.9710843,6.58493976 59.8891566,6.64638554 59.8891566,6.8 L59.8891566,16.4572289 C59.8891566,16.6108434 59.9710843,16.6722892 60.1042169,16.6722892 L62.6644578,16.6722892 C62.7975904,16.6722892 62.8795181,16.6108434 62.8795181,16.4572289 L62.8795181,10.7018072 C62.8795181,9.9439759 63.4222892,9.40120482 64.1801205,9.40120482 C64.5078313,9.40120482 64.7843373,9.44216867 65.0506024,9.51385542 C65.2451807,9.55481928 65.3783133,9.49337349 65.3783133,9.29879518 L65.3783133,6.84096386 C65.3783133,6.73855422 65.3066265,6.64638554 65.1837349,6.62590361" id="Fill-12"></path>
                        <path d="M53.6728916,14.3271084 L52.8740964,14.3271084 C52.413253,14.3271084 52.1572289,14.0403614 52.1572289,13.4361446 C52.1572289,13.0060241 52.4644578,12.6987952 52.8945783,12.6987952 L54.7379518,12.6987952 C54.8710843,12.6987952 54.9120482,12.9343373 54.9120482,13.0060241 C54.8608434,13.8048193 54.2566265,14.3271084 53.6728916,14.3271084 Z M53.6114458,6.34939759 C52.2698795,6.34939759 51.2662651,6.77951807 50.5289157,7.45542169 C50.1192771,7.82409639 49.7915663,8.25421687 49.5355422,8.73554217 C49.4024096,8.95060241 49.4740964,9.19638554 49.596988,9.25783133 L51.7475904,10.3433735 C51.8807229,10.4048193 52.0036145,10.3638554 52.0753012,10.1692771 C52.3825301,9.41144578 52.8740964,9.06325301 53.6114458,9.06325301 C54.410241,9.06325301 54.9120482,9.6060241 54.9120482,10.3024096 L54.9120482,10.4150602 C54.9120482,10.5686747 54.8506024,10.6506024 54.696988,10.6506024 L52.7819277,10.6506024 C50.8771084,10.6506024 49.3307229,11.6951807 49.3307229,13.5180723 L49.3307229,13.7331325 C49.3307229,15.576506 50.723494,16.6825301 52.5873494,16.6825301 L53.3451807,16.6825301 C53.9289157,16.6825301 54.5843373,16.4879518 55.0349398,16.1192771 C55.1168675,16.0578313 55.2295181,16.0783133 55.25,16.139759 L55.3114458,16.5084337 C55.3319277,16.6210843 55.4240964,16.6825301 55.546988,16.6825301 L57.6771084,16.6825301 C57.810241,16.6825301 57.8922161,16.6210843 57.8922161,16.4674699 L57.8922161,10.3228916 C57.9024096,7.97771084 56.2536145,6.34939759 53.6114458,6.34939759 Z" id="Fill-11"></path>
                        <path d="M48.460241,6.58493976 L45.8385542,6.58493976 C45.7054217,6.58493976 45.623494,6.64638554 45.603012,6.75903614 L44.6301205,10.8349398 C44.5174699,11.2957831 44.4355422,11.9409639 44.4150602,12.4018072 L44.3433735,12.4018072 C44.3228916,11.9409639 44.2307229,11.3572289 44.1078313,10.8349398 L43.1246988,6.75903614 C43.1042169,6.64638554 43.0120482,6.58493976 42.8891566,6.58493976 L40.7385542,6.58493976 C40.6054217,6.58493976 40.5439759,6.64638554 40.523494,6.75903614 L39.5710843,10.8144578 C39.4584337,11.2650602 39.376506,11.8590361 39.3355422,12.2891566 L39.2740964,12.2891566 C39.2536145,11.8590361 39.1716867,11.2650602 39.0590361,10.8144578 L38.0451807,6.75903614 C38.0246988,6.64638554 37.963253,6.58493976 37.8301205,6.58493976 L35.136747,6.58493976 C34.9421687,6.58493976 34.8704819,6.69759036 34.9421687,6.87168675 L38.0042169,16.5289157 C38.0451807,16.6313253 38.1168675,16.6825301 38.2192771,16.6825301 L40.1343373,16.6825301 C40.2674699,16.6825301 40.3289157,16.6415663 40.3493976,16.5289157 L41.5475904,12.0331325 C41.6807229,11.5313253 41.7831325,10.6915663 41.7831325,10.6915663 L41.8445783,10.6915663 C41.8445783,10.6915663 41.9572289,11.5415663 42.0801205,12.0331325 L43.2475904,16.4981928 C43.2680723,16.6108434 43.3295181,16.6722892 43.4626506,16.6722892 L45.346988,16.6722892 C45.4596386,16.6722892 45.5210843,16.6313253 45.5620482,16.5186747 L48.6650602,6.86144578 C48.726506,6.71807229 48.6548193,6.58493976 48.460241,6.58493976" id="Fill-10"></path>
                        <path d="M33.8259036,6.58493976 L32.3716867,6.58493976 C32.1771084,6.58493976 32.1156627,6.52349398 32.1156627,6.36987952 L32.1156627,4.99759036 C32.1156627,4.8439759 32.0746988,4.80301205 31.9210843,4.80301205 L30.5487952,4.80301205 C30.4668675,4.80301205 30.3542169,4.8439759 30.2927711,4.91566265 L27.5789157,7.62951807 L27.5789157,9.10421687 C27.5789157,9.25783133 27.6403614,9.29879518 27.7939759,9.29879518 L28.8795181,9.29879518 C29.0740964,9.29879518 29.1355422,9.39096386 29.1355422,9.53433735 L29.1355422,12.9240964 C29.1355422,15.5253012 30.7638554,16.8771084 32.8222892,16.8771084 L33.7337349,16.8771084 C33.9283133,16.8771084 34.0204819,16.7951807 34.0204819,16.6415663 L34.0204819,14.4090361 C34.0204819,14.2759036 33.9590361,14.1939759 33.8054217,14.1939759 L33.436747,14.1939759 C32.5457831,14.1939759 32.1156627,13.6512048 32.1156627,12.7192771 L32.1156627,9.53433735 C32.1156627,9.38072289 32.1771084,9.29879518 32.3716867,9.29879518 L33.8259036,9.29879518 C33.9795181,9.29879518 34.0204819,9.25783133 34.0204819,9.10421687 L34.0204819,6.8 C34.0204819,6.64638554 33.9795181,6.58493976 33.8259036,6.58493976" id="Fill-9"></path>
                        <path d="M27.3433735,2.89819277 C26.9746988,2.81626506 26.3704819,2.74457831 25.8072289,2.74457831 C22.5915663,2.74457831 21.3831325,4.97710843 21.3831325,6.73855422 L21.3831325,7.2813253 C21.3831325,7.43493976 21.3216867,7.49638554 21.1475904,7.49638554 L20.6457831,7.49638554 C20.5126506,7.49638554 20.4307229,7.55783133 20.4307229,7.71144578 L20.4307229,9.99518072 C20.4307229,10.1487952 20.5126506,10.210241 20.6457831,10.210241 L21.1475904,10.210241 C21.3421687,10.210241 21.3831325,10.2716867 21.3831325,10.4253012 L21.3831325,16.4572289 C21.3831325,16.6108434 21.4445783,16.6722892 21.5981928,16.6722892 L24.1584337,16.6722892 C24.3120482,16.6722892 24.373494,16.6108434 24.373494,16.4572289 L24.373494,10.4253012 C24.373494,10.2716867 24.4349398,10.210241 24.6090361,10.210241 L26.0120482,10.210241 C26.1656627,10.210241 26.2271084,10.1487952 26.2271084,9.99518072 L26.2271084,7.71144578 C26.2271084,7.55783133 26.1656627,7.49638554 26.0120482,7.49638554 L24.5987952,7.49638554 C24.4246988,7.49638554 24.363253,7.43493976 24.363253,7.2813253 L24.363253,6.69759036 C24.363253,5.93975904 24.9060241,5.45843373 25.7253012,5.45843373 C26.0120482,5.45843373 26.3090361,5.49939759 26.5445783,5.57108434 C26.6981928,5.61204819 26.7801205,5.57108434 26.8313253,5.43795181 L27.5072289,3.20542169 C27.5584337,3.05180723 27.5174699,2.93915663 27.3433735,2.89819277" id="Fill-8"></path>
                        <path d="M16.1192771,13.046988 C16.1192771,13.7433735 15.5560241,14.3066265 14.7981928,14.3066265 C13.9993976,14.3066265 13.4259036,13.7433735 13.4259036,13.046988 L13.4259036,10.210241 C13.4259036,9.53433735 13.9891566,8.95060241 14.7981928,8.95060241 C15.5560241,8.95060241 16.1192771,9.51385542 16.1192771,10.210241 L16.1192771,13.046988 Z M14.7981928,6.34939759 C12.1457831,6.34939759 10.4150602,7.97771084 10.4150602,10.3228916 L10.4150602,12.9650602 C10.4150602,15.310241 12.1457831,16.9180723 14.7981928,16.9180723 C17.3993976,16.9180723 19.1403614,15.3307229 19.1403614,12.9650602 L19.1403614,10.3228916 C19.1403614,7.94698795 17.3993976,6.34939759 14.7981928,6.34939759 Z" id="Fill-7"></path>
                        <path d="M5.75542169,8.51024096 C4.55722892,8.05963855 3.27710843,7.73192771 3.27710843,6.75903614 C3.27710843,5.98072289 3.86084337,5.45843373 4.6186747,5.45843373 L4.94638554,5.45843373 C5.68373494,5.45843373 6.18554217,5.80662651 6.49277108,6.56445783 C6.55421687,6.75903614 6.6873494,6.8 6.82048193,6.73855422 L8.97108434,5.65301205 C9.10421687,5.59156627 9.16566265,5.34578313 9.03253012,5.13072289 C8.85843373,4.80301205 8.64337349,4.48554217 8.37710843,4.19879518 C7.61927711,3.34879518 6.53373494,2.74457831 4.94638554,2.74457831 L4.6186747,2.74457831 C1.90481928,2.74457831 0.235542169,4.35240964 0.235542169,6.8 C0.235542169,9.29879518 1.84337349,10.2307229 3.84036145,11.0295181 C5.14096386,11.5518072 6.26746988,11.8283133 6.26746988,12.9138554 C6.26746988,13.8048193 5.57108434,14.1939759 4.79277108,14.1939759 L4.25,14.1939759 C3.5126506,14.1939759 3.01084337,13.8457831 2.71385542,13.0879518 C2.65240964,12.8933735 2.51927711,12.8524096 2.38614458,12.9138554 L0.235542169,13.9993976 C0.102409639,14.0608434 0.0409638554,14.3066265 0.174096386,14.5216867 C0.368674699,14.8698795 0.604216867,15.2180723 0.890963855,15.5253012 C1.62831325,16.3445783 2.71385542,16.9078313 4.25,16.9078313 L4.94638554,16.9078313 C7.70120482,16.9078313 9.30903614,15.3204819 9.30903614,12.8728916 C9.30903614,10.3433735 7.81385542,9.31927711 5.75542169,8.51024096" id="Fill-4"></path>
                    </g>
                </g>
            </g>
        </g>
    </g>
</svg>