<?xml version="1.0" encoding="UTF-8"?>
<svg width="62px" height="25px" viewBox="0 0 62 25" version="1.1" xmlns="http://www.w3.org/2000/svg" xmlns:xlink="http://www.w3.org/1999/xlink">
    <!-- Generator: Sketch 63.1 (92452) - https://sketch.com -->
    <title>logo-jet</title>
    <desc>Created with Sketch.</desc>
    <g id="Demo-Landing-v3" stroke="none" stroke-width="1" fill="none" fill-rule="evenodd">
        <g id="Demo-Landing---Global---Full-Size" transform="translate(-316.000000, -851.000000)" fill="#5B5E6D">
            <g id="Customers" transform="translate(0.000000, 626.000000)">
                <g id="Logos" transform="translate(150.000000, 156.000000)">
                    <g id="Row-2" transform="translate(20.000000, 63.000000)">
                        <g id="logo-jet" transform="translate(146.000000, 6.000000)">
                            <path d="M0,14.1425602 L0,15.7932894 C0,21.2885145 3.72411691,25 8.98098226,25 C14.3052559,25 18,21.224415 18,15.7615416 L18,7 L12.7532241,7 L12.7532241,16.0789883 C12.7532241,18.066448 11.4884901,19.9074164 8.99298037,19.9074164 C6.61933218,19.9074164 5.24872648,18.2140263 5.24872648,16.0814417 L5.24872648,14.1425602 L0,14.1425602 Z" id="path6237"></path>
                            <path d="M30.5652483,4 C24.9178991,4 20,8.57304224 20,14.5454571 C20,20.2558999 24.678582,25 30.5740147,25 C35.0408923,25 39.2175418,22.7582321 40.5179478,18.149954 L34.8774358,18.149954 C34.1861145,19.4301486 32.7411807,20.4863374 30.5116887,20.4863374 C27.7612564,20.4863374 25.8747308,18.642127 25.3766001,16.5134389 L40.923068,16.5134389 L41,14.9631111 C41,7.92426495 36.1674081,4 30.5652483,4 L30.5652483,4 Z M30.5350605,8.51460914 C33.0401964,8.51460914 35.0827379,10.0328685 35.684755,12.3312431 L25.4350308,12.3312431 C25.9971784,10.5180453 27.6770068,8.51460914 30.5350605,8.51460914 L30.5350605,8.51460914 Z" id="path6239" fill-rule="nonzero"></path>
                            <path d="M62,14.4248879 L62,16.1106615 C62,21.4164562 58.2758825,25 53.019017,25 C47.6947447,25 44,21.3545663 44,16.0800081 L44,1 L49.2467776,1 L49.2467776,5.32171181 L56.7545438,5.32171181 L56.7545438,10.1951303 L49.2467776,10.1951303 L49.2467776,16.3865118 C49.2467776,18.3054602 50.5115102,20.0829671 53.0070189,20.0829671 C55.3806692,20.0829671 56.751272,18.4479512 56.751272,16.3888806 L56.751272,14.4248879 L62,14.4248879 Z" id="path6243"></path>
                            <path d="M19,3 C19,4.65685615 17.6568542,6 16,6 C14.3431458,6 13,4.65685615 13,3 C13,1.34314835 14.3431458,0 16,0 C17.6568542,0 19,1.34314835 19,3 Z" id="path6245"></path>
                            <path d="M6,3 C6,4.65685615 4.6568542,6 3,6 C1.3431458,6 0,4.65685615 0,3 C0,1.34314835 1.3431458,0 3,0 C4.6568542,0 6,1.34314835 6,3 Z" id="path6247"></path>
                        </g>
                    </g>
                </g>
            </g>
        </g>
    </g>
</svg>