<?xml version="1.0" encoding="UTF-8"?>
<svg width="113px" height="25px" viewBox="0 0 113 25" version="1.1" xmlns="http://www.w3.org/2000/svg" xmlns:xlink="http://www.w3.org/1999/xlink">
    <!-- Generator: Sketch 63.1 (92452) - https://sketch.com -->
    <title>capterra-inc-vector-logo</title>
    <desc>Created with Sketch.</desc>
    <g id="Demo-Landing-v3" stroke="none" stroke-width="1" fill="none" fill-rule="evenodd">
        <g id="Demo-Landing---Global---Full-Size" transform="translate(-150.000000, -557.000000)" fill="#FFFFFF" fill-rule="nonzero">
            <g id="Hero">
                <g id="Group-2" transform="translate(150.000000, 556.000000)">
                    <g id="capterra-inc-vector-logo" transform="translate(0.000000, 1.000000)">
                        <polygon id="Path" points="0.0751879699 9.21052632 10.4135338 9.21052632 16.6917293 9.21052632 16.6917293 2.9887218"></polygon>
                        <polygon id="Path" points="16.6917293 2.9887218 16.6917293 24.981203 24.5488722 0.0563909774"></polygon>
                        <polygon id="Path" points="16.6917293 9.21052632 10.4135338 9.21052632 16.6917293 24.962406 16.6917293 9.21052632"></polygon>
                        <polygon id="Path" points="0.0751879699 9.21052632 12.0300752 13.2518797 10.4135338 9.21052632"></polygon>
                        <path d="M38.1578947,19.1729323 C38.0639098,19.2669173 37.9135338,19.3796992 37.7067669,19.5112782 C37.5,19.6428571 37.2180451,19.7932331 36.8796992,19.924812 C36.5413534,20.056391 36.1278195,20.1879699 35.6203008,20.2819549 C35.1315789,20.3759398 34.5676692,20.4323308 33.9285714,20.4323308 C32.7067669,20.4323308 31.6353383,20.2255639 30.7330827,19.8496241 C29.8308271,19.4548872 29.0977444,18.9097744 28.5150376,18.1954887 C27.9323308,17.481203 27.5,16.6541353 27.2368421,15.6954887 C26.9548872,14.7368421 26.8233083,13.6654135 26.8233083,12.518797 C26.8233083,11.3721805 26.9736842,10.3007519 27.2744361,9.32330827 C27.575188,8.34586466 28.0075188,7.5 28.6090226,6.78571429 C29.1917293,6.07142857 29.943609,5.5075188 30.8270677,5.11278195 C31.7105263,4.71804511 32.7631579,4.5112782 33.9661654,4.5112782 C34.5488722,4.5112782 35.093985,4.56766917 35.5639098,4.66165414 C36.0338346,4.77443609 36.4661654,4.88721805 36.8233083,5.03759398 C37.1804511,5.18796992 37.481203,5.33834586 37.7067669,5.4887218 C37.9511278,5.63909774 38.1203008,5.78947368 38.2330827,5.88345865 C38.3646617,5.9962406 38.4962406,6.14661654 38.5902256,6.31578947 C38.6842105,6.48496241 38.7406015,6.67293233 38.7406015,6.86090226 C38.7406015,7.16165414 38.6278195,7.46240602 38.4022556,7.76315789 C38.1766917,8.06390977 37.9323308,8.34586466 37.6503759,8.60902256 C37.462406,8.42105263 37.2556391,8.23308271 37.0300752,8.04511278 C36.8045113,7.85714286 36.5413534,7.68796992 36.2593985,7.53759398 C35.9774436,7.38721805 35.6578947,7.27443609 35.3007519,7.18045113 C34.943609,7.08646617 34.5488722,7.03007519 34.0977444,7.03007519 C33.3270677,7.03007519 32.6691729,7.18045113 32.1428571,7.5 C31.6165414,7.81954887 31.2030075,8.21428571 30.8834586,8.72180451 C30.5639098,9.22932331 30.3383459,9.79323308 30.2067669,10.4323308 C30.075188,11.0714286 30,11.7293233 30,12.406015 C30,13.1203008 30.075188,13.7969925 30.2067669,14.4548872 C30.3383459,15.112782 30.5827068,15.6766917 30.9210526,16.1842105 C31.2593985,16.6917293 31.6917293,17.0864662 32.2368421,17.387218 C32.7819549,17.6879699 33.4398496,17.8383459 34.2481203,17.8383459 C34.6804511,17.8383459 35.056391,17.7819549 35.4135338,17.6879699 C35.7706767,17.575188 36.0902256,17.443609 36.3533835,17.2932331 C36.6353383,17.1428571 36.8609023,16.9736842 37.0676692,16.8233083 C37.2744361,16.6541353 37.443609,16.5037594 37.575188,16.3909774 C37.6691729,16.5037594 37.7631579,16.6353383 37.8947368,16.7857143 C38.0263158,16.9360902 38.1390977,17.1052632 38.2330827,17.2556391 C38.3458647,17.424812 38.4210526,17.593985 38.5150376,17.7631579 C38.5902256,17.9323308 38.6278195,18.0827068 38.6278195,18.2142857 C38.6278195,18.4210526 38.5902256,18.5714286 38.5150376,18.7218045 C38.4398496,18.8533835 38.3082707,19.0037594 38.1578947,19.1729323 L38.1578947,19.1729323 Z M49.887218,17.424812 C49.887218,18.6278195 50.056391,19.5112782 50.4135338,20.056391 C50.1315789,20.1691729 49.887218,20.2443609 49.6428571,20.2819549 C49.3984962,20.3195489 49.1541353,20.3571429 48.8909774,20.3571429 C48.3458647,20.3571429 47.9323308,20.2443609 47.6503759,20.037594 C47.3684211,19.8308271 47.1804511,19.5112782 47.1052632,19.1165414 C46.7669173,19.4736842 46.3345865,19.7744361 45.7706767,20.018797 C45.2255639,20.2631579 44.5488722,20.3759398 43.7593985,20.3759398 C43.3458647,20.3759398 42.9323308,20.3195489 42.518797,20.2067669 C42.1052632,20.093985 41.7293233,19.906015 41.3909774,19.6428571 C41.0526316,19.3796992 40.7894737,19.0413534 40.5639098,18.6090226 C40.3571429,18.1766917 40.2443609,17.6503759 40.2443609,17.0300752 C40.2443609,16.2593985 40.4323308,15.6203008 40.8082707,15.1315789 C41.1842105,14.6428571 41.6541353,14.2669173 42.2180451,13.9849624 C42.7819549,13.7030075 43.4022556,13.5150376 44.0413534,13.4022556 C44.6992481,13.2894737 45.3007519,13.2330827 45.8458647,13.1954887 C46.0338346,13.1766917 46.2030075,13.1766917 46.3909774,13.1766917 L46.8796992,13.1766917 L46.8796992,12.7631579 C46.8796992,12.1804511 46.7293233,11.7669173 46.4097744,11.5037594 C46.0902256,11.2593985 45.5827068,11.1278195 44.887218,11.1278195 C44.2293233,11.1278195 43.6466165,11.2406015 43.1390977,11.4473684 C42.6315789,11.6541353 42.1240602,11.8984962 41.6353383,12.1804511 C41.4285714,11.9172932 41.2406015,11.6353383 41.1278195,11.3157895 C40.9962406,10.9962406 40.9398496,10.7706767 40.9398496,10.6203008 C40.9398496,10.4135338 41.0526316,10.2067669 41.2969925,10 C41.5413534,9.79323308 41.8609023,9.62406015 42.2744361,9.45488722 C42.6879699,9.28571429 43.1578947,9.17293233 43.7030075,9.06015038 C44.2293233,8.96616541 44.7932331,8.90977444 45.3947368,8.90977444 C46.2218045,8.90977444 46.9172932,8.98496241 47.481203,9.15413534 C48.0451128,9.32330827 48.5150376,9.58646617 48.8721805,9.92481203 C49.2293233,10.2819549 49.4924812,10.7142857 49.6428571,11.2406015 C49.7932331,11.7669173 49.8684211,12.387218 49.8684211,13.0827068 L49.887218,17.424812 L49.887218,17.424812 Z M46.9548872,14.7744361 L46.6353383,14.7744361 C46.5225564,14.7744361 46.4285714,14.7744361 46.3157895,14.7932331 C45.9398496,14.8308271 45.5639098,14.8684211 45.1879699,14.924812 C44.8120301,14.981203 44.4736842,15.093985 44.1917293,15.2443609 C43.9097744,15.3947368 43.6654135,15.6015038 43.4774436,15.8458647 C43.2894737,16.0902256 43.1954887,16.4097744 43.1954887,16.7857143 C43.1954887,17.2180451 43.3082707,17.575188 43.5526316,17.8759398 C43.7969925,18.1766917 44.2105263,18.3270677 44.7932331,18.3270677 C45.075188,18.3270677 45.3571429,18.2894737 45.6203008,18.2142857 C45.8834586,18.1390977 46.1090226,18.0451128 46.3157895,17.9135338 C46.5225564,17.7819549 46.6729323,17.6503759 46.7857143,17.518797 C46.8984962,17.3684211 46.9548872,17.2368421 46.9548872,17.1240602 L46.9548872,14.7744361 L46.9548872,14.7744361 Z M55.5827068,10.2631579 C55.8270677,9.98120301 56.2030075,9.68045113 56.7293233,9.37969925 C57.2556391,9.07894737 57.8947368,8.92857143 58.6842105,8.92857143 C59.2481203,8.92857143 59.7932331,9.02255639 60.3007519,9.21052632 C60.8082707,9.39849624 61.2593985,9.71804511 61.6541353,10.1315789 C62.0488722,10.5639098 62.3684211,11.1278195 62.593985,11.8233083 C62.8383459,12.518797 62.9511278,13.3834586 62.9511278,14.4172932 C62.9511278,15.6015038 62.8195489,16.5977444 62.537594,17.3684211 C62.2556391,18.1390977 61.9172932,18.7593985 61.4849624,19.1917293 C61.0526316,19.6428571 60.5639098,19.962406 60.037594,20.1503759 C59.5112782,20.3383459 58.9661654,20.4323308 58.4398496,20.4323308 C58.0075188,20.4323308 57.612782,20.3759398 57.2932331,20.2819549 C56.9736842,20.1879699 56.6917293,20.075188 56.4661654,19.943609 C56.2406015,19.8308271 56.0714286,19.6992481 55.9398496,19.5864662 C55.8270677,19.4736842 55.7330827,19.3796992 55.7142857,19.3421053 L55.7142857,24.981203 L52.593985,24.981203 L52.593985,9.26691729 C52.6691729,9.2481203 52.7631579,9.22932331 52.8759398,9.22932331 C52.9699248,9.21052632 53.0827068,9.21052632 53.1954887,9.19172932 C53.3270677,9.19172932 53.4586466,9.17293233 53.6278195,9.17293233 C54.1353383,9.17293233 54.5676692,9.2481203 54.924812,9.41729323 C55.2631579,9.58646617 55.4887218,9.86842105 55.5827068,10.2631579 L55.5827068,10.2631579 Z M59.7180451,14.4924812 C59.7180451,14.0413534 59.6804511,13.6090226 59.6052632,13.2142857 C59.5300752,12.8195489 59.3984962,12.481203 59.2293233,12.1804511 C59.0601504,11.8984962 58.8157895,11.6729323 58.5150376,11.5037594 C58.2142857,11.3345865 57.8571429,11.2593985 57.424812,11.2593985 C56.7857143,11.2593985 56.3345865,11.3909774 56.0902256,11.6165414 C55.8458647,11.8609023 55.7142857,12.1240602 55.7142857,12.424812 L55.7142857,17.2932331 C55.8270677,17.424812 56.0526316,17.556391 56.3721805,17.7255639 C56.6917293,17.8947368 57.0488722,17.9699248 57.462406,17.9699248 C58.2330827,17.9699248 58.7969925,17.6691729 59.1729323,17.0488722 C59.5300752,16.4473684 59.7180451,15.6015038 59.7180451,14.4924812 Z M65.3571429,18.4398496 C65.2443609,18.1390977 65.1879699,17.8195489 65.1503759,17.481203 C65.112782,17.1428571 65.112782,16.8045113 65.112782,16.4661654 L65.112782,5.84586466 C65.2255639,5.82706767 65.3383459,5.80827068 65.4511278,5.80827068 C65.5639098,5.78947368 65.6766917,5.78947368 65.7894737,5.77067669 C65.9022556,5.77067669 66.0338346,5.7518797 66.1466165,5.7518797 C66.3909774,5.7518797 66.6353383,5.77067669 66.8796992,5.82706767 C67.1240602,5.86466165 67.3496241,5.95864662 67.537594,6.10902256 C67.7443609,6.2406015 67.8947368,6.42857143 68.0263158,6.67293233 C68.1390977,6.91729323 68.2142857,7.21804511 68.2142857,7.59398496 L68.2142857,9.22932331 L71.4285714,9.22932331 L71.4285714,11.5413534 L68.2330827,11.5413534 L68.2330827,16.4285714 C68.2330827,17.5 68.6654135,18.0263158 69.5300752,18.0263158 C69.7368421,18.0263158 69.943609,17.9887218 70.1315789,17.9323308 C70.3195489,17.8571429 70.4887218,17.7819549 70.6390977,17.7067669 C70.7894737,17.6315789 70.9210526,17.537594 71.0338346,17.443609 C71.1466165,17.3496241 71.2218045,17.2744361 71.2781955,17.2368421 C71.5037594,17.575188 71.6917293,17.8571429 71.8045113,18.1015038 C71.9172932,18.3458647 71.9924812,18.5714286 71.9924812,18.7969925 C71.9924812,19.0037594 71.9172932,19.1917293 71.7481203,19.3796992 C71.5789474,19.5676692 71.3533835,19.7556391 71.0714286,19.906015 C70.7894737,20.075188 70.4323308,20.2067669 70.018797,20.3007519 C69.6052632,20.3947368 69.1541353,20.4511278 68.6654135,20.4511278 C67.7255639,20.4511278 66.9736842,20.2631579 66.4473684,19.906015 C65.9586466,19.5112782 65.5827068,19.0413534 65.3571429,18.4398496 L65.3571429,18.4398496 Z M79.3233083,18.1390977 C79.6992481,18.1390977 80.037594,18.1015038 80.3383459,18.0075188 C80.6203008,17.9323308 80.8834586,17.8195489 81.1278195,17.7067669 C81.3533835,17.593985 81.5601504,17.443609 81.7293233,17.3120301 C81.8984962,17.1616541 82.0488722,17.0300752 82.1804511,16.9172932 C82.3684211,17.1428571 82.556391,17.443609 82.7631579,17.8007519 C82.9699248,18.1578947 83.0639098,18.4586466 83.0639098,18.6842105 C83.0639098,19.0225564 82.8759398,19.3233083 82.5,19.6052632 C82.1804511,19.8496241 81.7293233,20.056391 81.1278195,20.2443609 C80.5451128,20.4135338 79.8496241,20.5075188 79.0601504,20.5075188 C78.3458647,20.5075188 77.6315789,20.4135338 76.9360902,20.2255639 C76.2406015,20.037594 75.6203008,19.7180451 75.075188,19.2669173 C74.5300752,18.8157895 74.0977444,18.1954887 73.7593985,17.424812 C73.4210526,16.6541353 73.2518797,15.6766917 73.2518797,14.5112782 C73.2518797,13.5526316 73.4022556,12.7255639 73.7030075,12.0300752 C74.0037594,11.3345865 74.3984962,10.7518797 74.887218,10.3007519 C75.3759398,9.84962406 75.9398496,9.5112782 76.5789474,9.28571429 C77.1992481,9.07894737 77.8383459,8.96616541 78.4962406,8.96616541 C79.3421053,8.96616541 80.075188,9.09774436 80.6766917,9.36090226 C81.2781955,9.62406015 81.7481203,9.98120301 82.1240602,10.4323308 C82.5,10.8834586 82.7631579,11.3909774 82.9323308,11.9736842 C83.1015038,12.556391 83.1766917,13.1578947 83.1766917,13.7969925 L83.1766917,14.1165414 C83.1766917,14.2481203 83.1766917,14.3609023 83.1578947,14.5112782 C83.1578947,14.6428571 83.1390977,14.7744361 83.1390977,14.906015 C83.1390977,15.037594 83.1203008,15.1315789 83.1015038,15.2067669 L76.3533835,15.2067669 C76.4097744,16.0526316 76.6729323,16.7481203 77.1428571,17.3120301 C77.593985,17.8571429 78.3270677,18.1390977 79.3233083,18.1390977 L79.3233083,18.1390977 Z M80.3759398,13.4962406 C80.3759398,12.7631579 80.2255639,12.1616541 79.943609,11.7105263 C79.6616541,11.2593985 79.1541353,11.0150376 78.4210526,11.0150376 C77.7819549,11.0150376 77.2932331,11.2406015 76.9172932,11.6729323 C76.5413534,12.1052632 76.3533835,12.7067669 76.3533835,13.4962406 L80.3759398,13.4962406 L80.3759398,13.4962406 Z M88.6090226,10.3195489 C88.7030075,10.1879699 88.8157895,10.037594 88.9661654,9.86842105 C89.1165414,9.69924812 89.3045113,9.54887218 89.5300752,9.41729323 C89.7556391,9.28571429 90,9.17293233 90.2631579,9.07894737 C90.5263158,8.98496241 90.8082707,8.94736842 91.1278195,8.94736842 C91.3157895,8.94736842 91.5037594,8.96616541 91.7105263,8.98496241 C91.9172932,9.02255639 92.1052632,9.07894737 92.2744361,9.15413534 C92.443609,9.22932331 92.593985,9.34210526 92.7067669,9.4924812 C92.8195489,9.64285714 92.8759398,9.81203008 92.8759398,10.018797 C92.8759398,10.3571429 92.8007519,10.7330827 92.6315789,11.1654135 C92.462406,11.5977444 92.2932331,11.9736842 92.1240602,12.2744361 C91.8609023,12.0676692 91.5977444,11.8984962 91.3533835,11.7857143 C91.0902256,11.6729323 90.7894737,11.6165414 90.4323308,11.6165414 C89.962406,11.6165414 89.5676692,11.7481203 89.2481203,12.0300752 C88.9285714,12.3120301 88.7593985,12.6315789 88.7593985,13.0263158 L88.7593985,20.4323308 L85.6390977,20.4323308 L85.6390977,9.2481203 C85.7142857,9.22932331 85.8082707,9.21052632 85.9210526,9.21052632 C86.0150376,9.19172932 86.1278195,9.19172932 86.2406015,9.17293233 C86.3533835,9.17293233 86.5037594,9.15413534 86.6729323,9.15413534 C87.1616541,9.15413534 87.593985,9.2481203 87.9511278,9.43609023 C88.2894737,9.64285714 88.5150376,9.92481203 88.6090226,10.3195489 L88.6090226,10.3195489 Z M97.462406,10.3195489 C97.556391,10.1879699 97.6691729,10.037594 97.8195489,9.86842105 C97.9699248,9.69924812 98.1578947,9.54887218 98.3834586,9.41729323 C98.6090226,9.28571429 98.8533835,9.17293233 99.1165414,9.07894737 C99.3796992,8.98496241 99.6616541,8.94736842 99.981203,8.94736842 C100.169173,8.94736842 100.357143,8.96616541 100.56391,8.98496241 C100.770677,9.02255639 100.958647,9.07894737 101.12782,9.15413534 C101.296992,9.22932331 101.447368,9.34210526 101.56015,9.4924812 C101.672932,9.64285714 101.729323,9.81203008 101.729323,10.018797 C101.729323,10.3571429 101.654135,10.7330827 101.484962,11.1654135 C101.315789,11.5977444 101.146617,11.9736842 100.977444,12.2744361 C100.714286,12.0676692 100.451128,11.8984962 100.206767,11.7857143 C99.943609,11.6729323 99.6428571,11.6165414 99.2857143,11.6165414 C98.8157895,11.6165414 98.4210526,11.7481203 98.1015038,12.0300752 C97.7819549,12.3120301 97.612782,12.6315789 97.612782,13.0263158 L97.612782,20.4323308 L94.4924812,20.4323308 L94.4924812,9.2481203 C94.5676692,9.22932331 94.6616541,9.21052632 94.7744361,9.21052632 C94.8684211,9.19172932 94.981203,9.19172932 95.093985,9.17293233 C95.2067669,9.17293233 95.3571429,9.15413534 95.5263158,9.15413534 C96.0150376,9.15413534 96.4473684,9.2481203 96.8045113,9.43609023 C97.1428571,9.64285714 97.3684211,9.92481203 97.462406,10.3195489 L97.462406,10.3195489 Z M112.330827,17.424812 C112.330827,18.6278195 112.5,19.5112782 112.857143,20.056391 C112.575188,20.1691729 112.330827,20.2443609 112.086466,20.2819549 C111.842105,20.3195489 111.597744,20.3571429 111.334586,20.3571429 C110.789474,20.3571429 110.37594,20.2443609 110.093985,20.037594 C109.81203,19.8308271 109.62406,19.5112782 109.548872,19.1165414 C109.210526,19.4736842 108.778195,19.7744361 108.214286,20.018797 C107.669173,20.2631579 106.992481,20.3759398 106.203008,20.3759398 C105.789474,20.3759398 105.37594,20.3195489 104.962406,20.2067669 C104.548872,20.093985 104.172932,19.906015 103.834586,19.6428571 C103.496241,19.3796992 103.233083,19.0413534 103.007519,18.6090226 C102.800752,18.1766917 102.68797,17.6503759 102.68797,17.0300752 C102.68797,16.2593985 102.87594,15.6203008 103.25188,15.1315789 C103.62782,14.6428571 104.097744,14.2669173 104.661654,13.9849624 C105.225564,13.7030075 105.845865,13.5150376 106.484962,13.4022556 C107.142857,13.2894737 107.744361,13.2330827 108.289474,13.1954887 C108.477444,13.1766917 108.646617,13.1766917 108.834586,13.1766917 L109.323308,13.1766917 L109.323308,12.7631579 C109.323308,12.1804511 109.172932,11.7669173 108.853383,11.5037594 C108.533835,11.2593985 108.026316,11.1278195 107.330827,11.1278195 C106.672932,11.1278195 106.090226,11.2406015 105.582707,11.4473684 C105.075188,11.6541353 104.567669,11.8984962 104.078947,12.1804511 C103.87218,11.9172932 103.684211,11.6353383 103.571429,11.3157895 C103.43985,10.9962406 103.383459,10.7706767 103.383459,10.6203008 C103.383459,10.4135338 103.496241,10.2067669 103.740602,10 C103.984962,9.79323308 104.304511,9.62406015 104.718045,9.45488722 C105.131579,9.28571429 105.601504,9.17293233 106.146617,9.06015038 C106.672932,8.96616541 107.236842,8.90977444 107.838346,8.90977444 C108.665414,8.90977444 109.360902,8.98496241 109.924812,9.15413534 C110.488722,9.32330827 110.958647,9.58646617 111.315789,9.92481203 C111.672932,10.2819549 111.93609,10.7142857 112.086466,11.2406015 C112.236842,11.7669173 112.31203,12.387218 112.31203,13.0827068 L112.330827,17.424812 L112.330827,17.424812 Z M109.398496,14.7744361 L109.078947,14.7744361 C108.966165,14.7744361 108.87218,14.7744361 108.759398,14.7932331 C108.383459,14.8308271 108.007519,14.8684211 107.631579,14.924812 C107.255639,14.981203 106.917293,15.093985 106.635338,15.2443609 C106.353383,15.3947368 106.109023,15.6015038 105.921053,15.8458647 C105.733083,16.0902256 105.639098,16.4097744 105.639098,16.7857143 C105.639098,17.2180451 105.75188,17.575188 105.996241,17.8759398 C106.240602,18.1766917 106.654135,18.3270677 107.236842,18.3270677 C107.518797,18.3270677 107.800752,18.2894737 108.06391,18.2142857 C108.327068,18.1390977 108.552632,18.0451128 108.759398,17.9135338 C108.966165,17.7819549 109.116541,17.6503759 109.229323,17.518797 C109.342105,17.3684211 109.398496,17.2368421 109.398496,17.1240602 L109.398496,14.7744361 L109.398496,14.7744361 Z" id="Shape"></path>
                    </g>
                </g>
            </g>
        </g>
    </g>
</svg>