<?xml version="1.0" encoding="UTF-8"?>
<svg width="50px" height="35px" viewBox="0 0 50 35" version="1.1" xmlns="http://www.w3.org/2000/svg" xmlns:xlink="http://www.w3.org/1999/xlink">
    <!-- Generator: Sketch 63.1 (92452) - https://sketch.com -->
    <title>logo-usda</title>
    <desc>Created with Sketch.</desc>
    <g id="Demo-Landing-v3" stroke="none" stroke-width="1" fill="none" fill-rule="evenodd">
        <g id="Demo-Landing---Global---Full-Size" transform="translate(-490.000000, -845.000000)" fill="#5B5E6D">
            <g id="Customers" transform="translate(0.000000, 626.000000)">
                <g id="Logos" transform="translate(150.000000, 156.000000)">
                    <g id="Row-2" transform="translate(20.000000, 63.000000)">
                        <g id="logo-usda" transform="translate(320.000000, 0.000000)">
                            <g id="Group">
                                <path d="M11.3472059,1.40767348 L11.2856856,10.132424 C11.2856856,13.7584062 9.15345594,15.1657352 6.28861601,15.1657352 C3.81894404,15.1657352 0.675966592,14.0576488 0.675966592,10.2807017 L0.675966592,1.40767348 C0.675966592,0.916469158 0.337184825,0.618260112 0,0.447313568 L4.04941042,0.447313568 C3.71355547,0.618260112 3.39606807,0.916469158 3.39606807,1.40767348 L3.39606807,10.3450565 C3.39606807,11.8385133 3.90277663,13.9508503 6.64256599,13.9508503 C9.15345594,13.9508503 10.0620227,12.2866537 10.0620227,10.1741099 L10.0210773,1.40767348 C10.0210773,0.916469158 9.76797845,0.618260112 9.45049786,0.447313568 L11.8980961,0.447313568 C11.5800705,0.618260112 11.3472059,0.916469158 11.3472059,1.40767348" id="Path"></path>
                                <path d="M17.0604259,15.1657352 C15.144301,15.1657352 13.750861,14.5044801 13.0141834,14.1430187 L12.9069486,10.5379828 C13.3085683,12.0511457 14.5718822,14.0576488 16.767131,14.0576488 C18.8560307,14.0576488 19.4888799,12.5429012 19.4888799,11.4972403 C19.4888799,9.44850005 17.650967,9.1712373 15.7348422,8.1264032 C13.7937141,7.03822957 12.9500741,5.88763049 12.9500741,4.26601545 C12.9500741,1.36509187 15.6281524,0.213183638 17.5487737,0.213183638 C18.2654895,0.213183638 19.6557275,0.361185725 20.7322319,1.00204578 L20.8368098,4.15887241 C20.5435149,3.02846169 19.3406314,1.32154563 17.3140697,1.32154563 C15.7119509,1.32154563 15.0801918,2.45223196 15.0801918,3.36973465 C15.0801918,4.6705407 15.9876685,5.16257185 17.9689926,6.07924771 C19.9327395,7.01804121 21.977151,7.72187794 21.977151,10.6879142 C21.977151,13.353881 19.6557275,15.1657352 17.0604259,15.1657352" id="Path"></path>
                                <path d="M28.5369404,1.51398969 C28.0286308,1.51398969 26.9119984,1.51398969 26.5947222,1.55705361 L26.5947222,13.8437073 L28.2817296,13.8437073 C33.0504788,13.8437073 34.3795371,10.6004772 34.3795371,7.48636997 C34.3795371,4.92809741 32.902026,1.51398969 28.5369404,1.51398969 Z M28.7879272,14.9528961 L23.3690241,14.9528961 C23.6843927,14.7607276 23.9185516,14.4619674 23.9185516,13.9925362 L23.9185516,1.40767348 C23.9185516,0.916469158 23.6843927,0.618260112 23.3690241,0.447313568 L28.9808682,0.447313568 C35.918296,0.447313568 37.309624,5.4185438 37.309624,7.48636997 C37.309624,11.1987556 34.4841149,14.9528961 28.7879272,14.9528961 L28.7879272,14.9528961 Z" id="Shape" fill-rule="nonzero"></path>
                                <path d="M42.177637,4.60783963 C42.177637,4.60783963 40.742434,8.23437307 40.0685712,9.83338816 L44.3292834,9.83338816 C43.3387576,7.46459685 42.177637,4.60783963 42.177637,4.60783963 Z M45.5095481,14.9528961 C46.0564868,14.6541358 46.1644711,14.3556512 46.0168358,13.9085443 C45.9521134,13.6948783 45.4046978,12.3924186 44.8149742,10.9430593 L39.6467853,10.9430593 C39.0136636,12.3924186 38.5077385,13.6518144 38.4640679,13.8867712 C38.2756234,14.3987151 38.3805419,14.6966485 38.9508488,14.9528961 L36.0412686,14.9528961 C36.6312648,14.5480952 36.8199136,14.3133452 37.0294099,13.9085443 C37.4312341,13.0976334 42.9794458,0 42.9794458,0 C42.9794458,0 48.5913581,13.0976334 48.9700184,13.9085443 C49.1805367,14.3556512 49.3266731,14.5906079 50.0249942,14.9528961 L45.5095481,14.9528961 L45.5095481,14.9528961 Z" id="Shape" fill-rule="nonzero"></path>
                            </g>
                            <g id="Group" transform="translate(0.000000, 16.536546)">
                                <path d="M49.3916,0.465365964 C49.3916,0.465365964 18.6963366,-0.305237078 0.517353698,9.49211519 C0.517353698,9.49211519 19.7842867,1.78608477 49.3916,2.55689452 L49.3916,0.465365964" id="Path"></path>
                                <path d="M0.517353698,0.465365964 C0.517353698,0.465365964 10.8583131,0.575196191 17.2794602,2.99724896 C17.2794602,2.99724896 4.1092889,1.8961906 0.517353698,2.4474088 L0.517353698,0.465365964" id="Path"></path>
                                <path d="M0.517353698,3.87899137 C0.517353698,3.87899137 7.91971002,3.54791594 12.3813342,3.98882159 C12.3813342,3.98882159 1.60741922,5.30871357 0.517353698,5.85827812 L0.517353698,3.87899137" id="Path"></path>
                                <path d="M44.3048251,4.21516557 C44.255091,4.21192716 44.1887648,4.21785276 44.146153,4.21888629 C35.2202475,4.3919688 16.5021097,5.48041804 0.525869808,11.1891093 L0.525869808,18.0682435 L49.396914,18.0682435 L49.396914,4.21516557 C49.396914,4.21516557 47.5002059,4.15590961 44.3048251,4.21516557" id="Path"></path>
                            </g>
                        </g>
                    </g>
                </g>
            </g>
        </g>
    </g>
</svg>