<?xml version="1.0" encoding="UTF-8"?>
<svg width="82px" height="38px" viewBox="0 0 82 38" version="1.1" xmlns="http://www.w3.org/2000/svg" xmlns:xlink="http://www.w3.org/1999/xlink">
    <!-- Generator: Sketch 63.1 (92452) - https://sketch.com -->
    <title>logo-chickfila</title>
    <desc>Created with Sketch.</desc>
    <g id="Demo-Landing-v3" stroke="none" stroke-width="1" fill="none" fill-rule="evenodd">
        <g id="Demo-Landing---Global---Full-Size" transform="translate(-150.000000, -924.000000)" fill="#5B5E6D" fill-rule="nonzero">
            <g id="Customers" transform="translate(0.000000, 626.000000)">
                <g id="Logos" transform="translate(150.000000, 156.000000)">
                    <g id="Row-3" transform="translate(0.000000, 141.000000)">
                        <g id="logo-chickfila">
                            <g id="g3012" transform="translate(41.000047, 19.872630) scale(-1, 1) rotate(-180.000000) translate(-41.000047, -19.872630) translate(0.000047, 0.872630)">
                                <g id="g3014">
                                    <path d="M78.7073371,15.9773775 C78.2599186,15.9773775 77.8962254,16.3692909 77.8962254,16.850967 C77.8962254,17.3340243 78.2599186,17.7234802 78.7073371,17.7234802 C79.1556389,17.7234802 79.5191554,17.3340243 79.5191554,16.850967 C79.5191554,16.3692909 79.1556389,15.9773775 78.7073371,15.9773775 M78.7073371,17.9353122 C78.1514642,17.9353122 77.6989232,17.4518961 77.6989232,16.850967 C77.6989232,16.2516344 78.1514642,15.7638773 78.7073371,15.7638773 C79.2647998,15.7638773 79.7184006,16.2516344 79.7184006,16.850967 C79.7184006,17.4518961 79.2647998,17.9353122 78.7073371,17.9353122" id="path3016"></path>
                                    <path d="M78.6385597,16.7254306 L78.7242722,16.7254306 L78.8095111,16.7218407 C78.8691784,16.7182309 78.9160598,16.7137586 78.9447096,16.7011441 C78.9956162,16.684699 79.036815,16.65219 79.0548099,16.6094931 C79.0687796,16.5800325 79.0765932,16.5298952 79.0765932,16.4556319 C79.0810919,16.3794834 79.0896158,16.3207425 79.1038223,16.2815553 L79.480531,16.2815553 L79.4667981,16.3166513 C79.4632465,16.3287244 79.4580374,16.3403161 79.4580374,16.353793 C79.4580374,16.3653848 79.4537755,16.376435 79.4537755,16.3900724 L79.4537755,16.5013771 C79.4537755,16.6327568 79.4128134,16.7254306 79.3211816,16.7825469 C79.2721692,16.8182647 79.1994793,16.8401246 79.1052429,16.8581339 C79.2098974,16.866216 79.2977409,16.8962984 79.3687733,16.9424447 C79.4414632,16.9883504 79.4755588,17.0669256 79.4755588,17.1716523 C79.4755588,17.311415 79.4071308,17.4110678 79.2721692,17.4718542 C79.194507,17.5077325 79.096719,17.5316179 78.9731226,17.5376544 C78.953707,17.5376544 78.8502364,17.5376544 78.6638946,17.5396198 L78.2417251,17.5396198 L78.2417251,16.2815553 L78.6385597,16.2815553 L78.6385597,16.7254306 L78.6385597,16.7254306 Z M79.0088756,16.9987589 C78.9586793,16.9678944 78.8838584,16.9514494 78.7912795,16.9514494 L78.6385597,16.9514494 L78.6385597,17.3188553 L78.7337432,17.3188553 C78.8331886,17.3188553 78.908483,17.311415 78.9641251,17.2934057 C79.0455757,17.2638648 79.0851171,17.2181997 79.0851171,17.1487897 C79.0851171,17.0778154 79.0619131,17.0304056 79.0088756,16.9987589" id="path3018"></path>
                                    <path d="M38.9573861,12.0150124 C39.6266592,12.0150124 39.7858081,11.3347607 39.7543669,10.9539151 C39.6217134,9.38166932 37.5269891,8.10301775 36.9963751,8.03939102 C37.2804055,11.290256 38.2181651,11.9778624 38.9573861,12.0150124 M18.0834466,11.668088 C17.6605451,11.0136851 17.1266986,10.2918168 16.4720509,9.49055409 C16.5070954,9.81975561 16.5417337,10.1324181 16.5795515,10.4337078 C17.1051137,14.7186373 17.8820817,16.1576024 18.8934985,15.9759066 C19.2229244,15.9052839 19.3575209,15.5423766 19.3658227,15.2487106 C19.4400098,14.3166247 19.0519409,13.1689398 18.0834466,11.668088 M75.3318264,7.67361355 C74.8197591,8.45910861 74.3499078,9.30130627 73.9443519,10.1548409 C73.265717,9.1766359 72.5118353,8.19326475 71.7362274,7.25760916 C72.8184751,7.28543128 74.0577521,7.39810101 75.3318264,7.67361355 M74.2845525,14.0567363 C74.7075953,14.8723675 74.9739622,15.5827375 75.0084062,16.1106582 C75.0465595,16.4245764 74.9946286,16.9668656 74.5574549,16.9668656 C73.8019834,16.9668656 73.8019834,15.7282161 74.2845525,14.0567363 M60.9815781,8.88388477 C62.8214169,11.0635892 63.762356,14.3329664 63.5452706,15.6732715 C63.4979322,15.9540579 63.3938936,16.1696569 63.1213446,16.1356102 C62.2621879,16.0236401 60.258431,12.0730963 60.9815781,8.88388477 M50.3712403,6.0429969 C49.6468567,6.28067782 49.0450585,6.6985119 48.6919634,7.14766604 C48.6656447,7.12572765 48.6414456,7.10639029 48.6147736,7.08698117 C48.6117708,7.052791 48.604882,7.01739896 48.5953436,6.98369312 C48.576267,4.24399454 49.4947733,1.71092409 50.5130789,1.8325647 C51.5861415,2.0235884 51.0799032,4.37279069 50.3712403,6.0429969 M48.759085,9.38579511 C50.8495701,11.4994332 52.4776226,14.510375 52.4668478,16.1223001 C52.4668478,16.4326306 52.398843,16.7058471 52.1111032,16.7058471 C51.4571974,16.7058471 49.3237898,14.4831269 48.759085,9.38579511 M42.6587899,7.29312676 C41.8188866,7.21527505 41.6337722,5.2677266 39.9571449,5.17410723 C38.8127213,5.10951184 38.2882895,6.56411904 38.2882895,6.56411904 C38.2882895,6.56411904 41.5267309,8.08507957 41.5028851,11.3693814 C41.4507775,12.3106337 40.9899346,13.8179432 39.2767437,13.8179432 C38.5366395,13.8179432 37.7174025,13.3312983 37.2313007,12.7949646 C37.3964552,13.6834069 37.552248,14.8242932 37.6255519,16.3746903 C37.6734202,17.3837131 36.9795947,17.4811174 36.7107549,17.4659058 C36.5109798,17.455681 35.9294946,17.2999776 35.8505384,16.3872291 C35.5855847,13.3431375 35.5454883,12.8911132 35.3056169,10.9546865 C34.8659703,7.39810101 32.4328117,6.16120952 30.8482117,6.25488271 C30.1739927,6.29538713 29.1191235,6.66726358 29.1191235,8.54824344 C29.1191235,10.5661454 30.362993,12.0598579 31.0232578,11.9681938 C31.4881633,11.9041545 31.7280347,11.4051142 31.3155901,10.6892014 C30.981925,10.0956269 30.6323627,9.26955569 31.4932857,8.92998589 C32.5156539,8.56941049 33.2716553,10.0979409 33.2992105,11.5141425 C33.2992105,12.617556 32.6279943,13.9060197 30.981925,13.9894681 C29.2494807,14.0775446 27.1800153,11.6445351 27.1800153,8.37390224 C27.1800153,8.10140332 27.1983854,7.84612505 27.2321229,7.60313443 C27.1070647,6.863884 26.4944917,6.10612137 25.8845681,6.10612137 C25.2220071,6.10612137 24.6629547,7.1176734 24.7329025,8.40852294 C24.8069129,9.73973338 25.201694,10.626059 25.368085,11.1561502 C25.7105818,12.2573214 25.3046727,12.4795755 24.8222802,12.5750245 C24.4432197,12.6483738 23.8412448,12.5467001 23.5243601,11.4519149 C23.2364437,10.4586598 22.8617991,9.10131347 22.5357294,8.10301775 C22.3331281,7.48239252 22.0743566,6.77431866 21.7334494,6.29020299 C21.4340517,5.94385257 21.1101016,5.71584033 20.8068179,5.71584033 C19.7362281,5.70559763 20.6432531,7.94157411 20.6432531,9.47478643 C20.6328316,9.90819085 20.3122375,10.6992109 19.2460636,10.4800242 C20.4265209,12.2944534 21.02355,13.8466623 20.9862799,15.4329357 C20.914919,17.1744103 19.7127355,17.6802491 18.8051806,17.6619701 C16.374071,17.6089807 15.102293,14.7471411 14.6404963,8.05564301 C12.449788,5.8365643 9.78113856,4.49694085 7.2359222,4.71718585 C3.63627823,5.02970486 1.78091312,8.81396173 2.02124383,13.3517478 C2.35932481,19.7189056 7.04397204,27.400394 11.5095555,26.9286198 C13.0747786,26.7621535 14.1542532,25.2797421 13.9876326,22.0668343 C13.7931919,18.3421501 11.2913043,12.9104506 8.64969773,13.0697955 C7.43015096,13.1432882 7.04928877,14.4831269 7.1423052,15.6680874 C7.34342276,18.2341623 8.55724654,18.9382359 8.63832239,19.9786505 C8.68544883,20.5903425 8.10150843,20.8576214 7.67323719,20.7119634 C6.93806119,20.4599319 5.47371481,18.5044907 5.29520664,15.723032 C5.07697307,12.3249304 7.16381945,11.2644789 8.40095915,11.1903404 C12.0608536,10.9695572 15.6326774,16.4611523 15.9333823,22.2300718 C16.1265689,25.9639044 14.6117223,28.3746167 11.7437923,28.7057556 C6.16748737,29.3477631 0.309526034,21.501064 0.0100737711,13.2819683 C-0.169804971,8.36760594 2.04125667,3.22368867 7.19798082,2.83227754 C9.66143245,2.66242089 12.2392028,3.70423464 14.4945598,5.57337529 C14.4904088,5.15469812 14.4945598,4.78214001 14.4933763,4.50226849 C14.5138837,3.81381899 14.7438459,3.21968846 15.4493647,3.24268521 C16.1225769,3.26783454 16.2999016,3.79014059 16.284022,4.41657779 C16.2754022,4.78031032 16.2780341,5.13340549 16.285965,5.47668849 C16.4332793,8.46947688 17.8248517,8.90237903 18.3881434,8.79544953 C19.1649878,8.62021143 18.5458792,7.86280756 18.6232457,5.71492549 C18.6781794,4.17581151 19.851218,3.76540384 20.3901339,3.76540384 C21.6642082,3.76540384 22.770655,4.75291871 23.4189085,6.22399316 L23.4415179,6.24157258 C24.0042797,4.73372486 24.9589964,4.19374969 25.72118,4.19374969 C26.6151339,4.19374969 27.4613962,4.89480973 27.9904205,5.67273488 C28.7139209,4.70288912 29.7783284,4.27572719 30.5728364,4.23628112 C32.1835785,4.1575325 33.5523296,4.94575417 34.5803502,6.00340733 C34.4607677,5.1710398 34.3162796,4.0521995 34.3162796,3.86994757 C34.3162796,3.37560714 34.5321286,3.0260099 34.9873191,2.97199804 C35.7366083,2.88377806 36.2836495,3.4213495 36.5175153,6.05932065 C36.5175153,6.05932065 37.5764471,3.45505535 39.9274701,3.45505535 C42.2837921,3.45505535 43.3028042,5.87636913 43.3028042,6.61506347 C43.3028042,6.82940681 43.2275573,7.34751533 42.6587899,7.29312676 M20.0116033,21.2267892 C20.0116033,21.9999249 18.0405241,23.4638599 16.6483335,23.6012664 C16.6647606,23.1838449 16.6616518,22.7545842 16.6386891,22.3084616 C16.584038,21.2542346 16.4349927,20.190321 16.2045359,19.1457807 C18.7626114,21.0497394 20.0116033,20.526662 20.0116033,21.2267892 M80.5312787,3.44630151 C79.1439809,3.52289755 77.705812,4.61438213 76.4264386,6.17179305 C74.1662065,5.61877683 71.8498042,5.50933598 70.2348228,5.52264611 C68.8948634,4.04358917 67.6126639,2.81145131 66.6962772,2.11116261 C66.6962772,2.11116261 65.4614161,1.11034478 64.8620907,1.9603025 C64.5116452,2.53089814 64.6900474,3.1456217 65.6532426,3.79910968 C66.2546876,4.20903302 67.0103357,4.8696604 67.8281596,5.68444852 C66.4459842,6.08931329 66.7861848,7.63038253 68.1370957,7.45295597 C68.2353052,7.43930501 68.683077,7.37119373 69.3735465,7.31786352 C70.7131526,8.8152174 72.0746616,10.5392382 73.1249383,12.1186413 C72.6300047,13.5040251 72.3413817,14.8203647 72.3413817,15.8526533 C72.3413817,17.2075601 73.0620559,18.7412747 74.5291932,18.7412747 C75.9493452,18.7412747 76.6762017,17.4715743 76.6762017,16.1590733 C76.6762017,15.0427803 76.0411959,13.532188 75.0728782,11.9033831 C75.627868,10.6324988 76.345716,9.31293021 77.1525885,8.18465442 C78.02252,8.48868867 78.8795571,8.88858457 79.6850165,9.40409205 C80.7700904,10.1015106 81.703964,8.75831749 80.5643096,7.89798433 C79.8791392,7.43663222 79.1208416,7.06176009 78.3265103,6.7578514 C79.162351,5.89163452 80.0435872,5.30914587 80.890556,5.23059457 C82.3409128,5.09786996 82.4006157,3.28408653 80.5312787,3.44630151 M66.3774495,7.47966592 C66.2075258,6.76395039 65.3322953,4.69818932 63.1003249,4.64403394 L63.0515734,4.64403394 C62.0163108,4.62713618 61.0033043,5.16388247 60.2571945,6.15132559 C59.2078011,5.43953851 58.1969142,5.09661428 57.470411,5.21427082 C55.8965857,5.47058951 55.4251447,6.80614099 55.2901949,7.67718325 C54.3881157,6.53041319 53.1885818,5.98546915 52.0349732,5.87279943 C52.4465347,5.00868131 52.6546117,3.97043726 52.6546117,3.01522906 C52.6546117,1.52453562 51.8500355,0 50.3938497,0 C48.3582983,0 47.1384513,3.074443 46.9796557,6.06794891 C46.6316831,5.92912532 46.05744,5.81968447 45.7907199,6.41808429 C45.4687128,7.13708252 46.2671067,7.80079526 46.9411491,8.21084417 C47.0587885,14.1763481 49.4862948,18.3965028 52.1111032,18.3965028 C52.9935758,18.3965028 54.0563936,17.8192701 54.0563936,16.0858497 C54.0563936,14.2696087 53.0543386,11.9434032 51.4382973,9.86691509 C51.2185624,9.58508831 50.7077315,9.03370446 50.1394941,8.46822121 C52.4339935,6.72177772 53.825354,8.60367242 54.3987139,9.759286 C54.5352534,10.0688631 54.6497134,10.3747092 54.7367949,10.6432258 C55.0623347,11.6390102 54.9688944,11.4065134 55.2753575,12.3936695 C55.7125312,13.8002024 56.4217241,13.7386924 56.7424948,13.6834069 C57.8851519,13.4792883 57.2005115,12.1179417 56.9208969,10.9207833 L56.9080025,10.8917055 C56.4784242,8.8515781 56.6781993,7.23251365 57.8630725,6.98188136 C58.2414264,6.92182433 58.8940958,7.15950524 59.5617793,7.6699721 C57.9997886,12.0196405 60.3850789,17.1690109 62.8537413,17.6653246 C63.6781007,17.8309119 64.7619382,17.5058362 65.0350172,15.9382902 C65.3185177,14.2935024 64.7492204,12.0017023 63.5657603,9.81975561 C63.2986869,9.3246259 62.5280248,8.21084417 61.6149942,7.36487949 C61.6204699,7.35682525 61.6243559,7.348771 61.623826,7.34751533 C62.3157085,6.37070955 63.1907624,6.39440589 63.1907624,6.39440589 C64.4872695,6.40231663 64.8779879,7.47019456 65.0376667,7.91213756 C65.2210147,8.41910646 65.5974257,8.58698991 65.9955628,8.45105437 C66.4288505,8.30180869 66.4602917,7.82370232 66.3774495,7.47966592 M57.1821413,16.5376049 C56.6320974,16.5376049 56.1864452,16.0607721 56.1864452,15.4678972 C56.1864452,14.8777669 56.6320974,14.3986201 57.1821413,14.3986201 C57.7313021,14.3986201 58.1750114,14.8777669 58.1750114,15.4678972 C58.1750114,16.0607721 57.7313021,16.5376049 57.1821413,16.5376049 M68.3865054,9.81975561 C69.6558105,9.81975561 70.147918,10.3528605 70.147918,10.9010154 C70.147918,11.6049456 69.3629483,11.9443001 68.3877419,11.9344341 C67.3901027,11.9233483 66.6807332,11.526197 66.6807332,10.8917055 C66.6807332,10.3747092 67.1172004,9.81975561 68.3865054,9.81975561 M44.2221937,9.81541457 C45.4952081,9.81541457 45.9919081,10.3513895 45.9919081,10.9010154 C45.9919081,11.6085332 45.2035824,11.9482286 44.2221937,11.9382191 C43.2206685,11.9269359 42.5097093,11.527937 42.5097093,10.8917055 C42.5097093,10.3716955 42.948826,9.81541457 44.2221937,9.81541457 M25.3302849,15.4690274 C24.7512726,15.4690274 24.283011,14.9658434 24.283011,14.3426351 C24.283011,13.7220098 24.7512726,13.2188259 25.3302849,13.2188259 C25.9070009,13.2188259 26.3763223,13.7220098 26.3763223,14.3426351 C26.3763223,14.9658434 25.9070009,15.4690274 25.3302849,15.4690274 M3.43722731,31.1370968 C2.96182964,30.5352708 3.10933822,29.5579986 3.97250454,28.7656691 C4.83512329,27.9710076 6.03315582,27.7135947 6.51040818,28.3145238 C6.98753689,28.9158117 6.56216248,30.1495998 5.69987933,30.9421087 C4.83706628,31.7364114 3.91661696,31.7380259 3.43722731,31.1370968 M6.85147431,35.4366997 C5.92413619,34.979276 5.59479868,33.6172299 6.27740785,32.0151708 C6.95890422,30.412753 8.35162477,29.2781629 9.27827401,29.7328959 C10.206301,30.1908577 10.3175992,32.0686266 9.6355553,33.6714032 C8.9532994,35.2720272 7.77860046,35.8926883 6.85147431,35.4366997 M13.9141344,37.424609 C12.6819758,37.7144901 11.4198598,36.6358672 10.99309,34.517906 C10.5640592,32.4008417 11.1612473,30.1750721 12.3939005,29.8880611 C13.6251759,29.5997946 15.0288125,31.3568395 15.4555647,33.4744419 C15.8836946,35.591865 15.1468052,37.1381363 13.9141344,37.424609 M22.8134009,33.981375 C21.8726385,35.3419861 19.8365572,35.4250399 17.7794563,33.7802879 C15.7223908,32.1349979 14.5492815,29.486784 15.489726,28.1227646 C16.4305061,26.7621535 19.1282475,27.2027153 21.1869382,28.8481847 C23.2431559,30.4936542 23.7534568,32.617535 22.8134009,33.981375 M12.8926141,23.4349795 C12.8695101,22.3294493 11.6162965,20.980498 11.0177307,22.0194775 C10.6915726,22.8148565 11.5116221,24.262109 12.2709443,24.2866843 C12.8830934,24.2866843 12.8975952,23.6988501 12.8926141,23.4349795" id="path3020"></path>
                                </g>
                            </g>
                        </g>
                    </g>
                </g>
            </g>
        </g>
    </g>
</svg>