<?xml version="1.0" encoding="UTF-8"?>
<svg width="114px" height="15px" viewBox="0 0 114 15" version="1.1" xmlns="http://www.w3.org/2000/svg" xmlns:xlink="http://www.w3.org/1999/xlink">
    <!-- Generator: Sketch 63.1 (92452) - https://sketch.com -->
    <title>logo-sephora</title>
    <desc>Created with Sketch.</desc>
    <g id="Demo-Landing-v3" stroke="none" stroke-width="1" fill="none" fill-rule="evenodd">
        <g id="Demo-Landing---Global---Full-Size" transform="translate(-458.000000, -1014.000000)">
            <g id="Customers" transform="translate(0.000000, 626.000000)">
                <g id="Logos" transform="translate(150.000000, 156.000000)">
                    <g id="Row-4" transform="translate(11.000000, 218.000000)">
                        <g id="logo-sephora" transform="translate(297.000000, 14.000000)">
                            <path d="M91.946799,4.28076923 C91.697866,1.96153846 88.8464516,2.13461538 88.3033251,2.13461538 L87.1604963,2.13461538 L87.1604963,6.92307692 C87.6470471,6.94615385 88.0204467,6.94615385 88.5069975,6.94615385 C89.0840695,6.94615385 92.2409926,7.02692308 91.946799,4.28076923 L91.946799,4.28076923 Z M71.4437717,2.06538462 C68.1963275,2.06538462 66.3632754,4.51153846 66.3632754,7.5 C66.3632754,10.5115385 68.1963275,12.9346154 71.4437717,12.9346154 C74.6912159,12.9346154 76.524268,10.4884615 76.524268,7.5 C76.524268,4.48846154 74.6685856,2.06538462 71.4437717,2.06538462 Z M34.5224814,2.21538462 L33.3004467,2.21538462 L33.3004467,7.32692308 L34.737469,7.32692308 C36.0273945,7.32692308 38.6751365,7.2 38.5280397,4.61538462 C38.4375186,1.97307692 35.0882382,2.21538462 34.5224814,2.21538462 Z M106.848834,2.68846154 L104.653697,9.69230769 L109.168437,9.66923077 L106.871464,2.68846154" id="Shape"></path>
                            <path d="M55.8288834,6.03461538 L48.7229777,6.03461538 L48.7229777,0.473076923 L46.5731017,0.473076923 L46.5731017,14.5961538 L48.7229777,14.5961538 L48.7229777,7.90384615 L55.8288834,7.90384615 L55.8288834,14.5961538 L57.956129,14.5961538 L57.956129,0.473076923 L55.8288834,0.473076923 M34.8619355,0.426923077 C34.0811911,0.403846154 32.497072,0.403846154 31.093995,0.403846154 L31.093995,14.5846154 L33.2665012,14.5846154 L33.2665012,9.20769231 C33.8096278,9.20769231 34.9298263,9.16153846 35.8350372,9.13846154 C37.1023325,9.11538462 40.4063524,8.46923077 40.3837221,4.58076923 C40.4176675,0.196153846 35.653995,0.426923077 34.8619355,0.426923077 L34.8619355,0.426923077 Z M34.7487841,7.32692308 L33.3117618,7.32692308 L33.3117618,2.21538462 L34.5337965,2.21538462 C35.0995533,2.21538462 38.4375186,1.96153846 38.5393548,4.60384615 C38.6751365,7.2 36.0387097,7.32692308 34.7487841,7.32692308 Z M14.8115136,0.403846154 L14.8341439,14.5846154 L23.5581141,14.5846154 L23.5581141,12.7384615 L17.0066501,12.7384615 L17.0066501,7.92692308 L21.6458561,7.92692308 C21.6458561,7.52307692 21.6232258,6.93461538 21.6458561,6.16153846 L17.0066501,6.16153846 L17.0066501,2.29615385 L23.5581141,2.29615385 C23.5354839,1.17692308 23.5581141,0.403846154 23.5581141,0.403846154 L14.8115136,0.403846154 L14.8115136,0.403846154 Z M2.12724566,3.86538462 C2.12724566,1.54615385 5.13707196,1.45384615 6.91354839,2.94230769 C7.52456576,1.15384615 7.5698263,1.02692308 7.5698263,1.02692308 C2.3874938,-1.51153846 0.022630273,1.84615385 0.022630273,3.99230769 C0.022630273,9.12692308 7.16248139,8.03076923 6.13280397,11.6423077 C5.7707196,12.9576923 3.4737469,13.7076923 0.826004963,12.0692308 C0.633647643,12.6230769 0.316823821,13.2923077 0,13.9615385 C3.49637717,15.8307692 8.0337469,14.9307692 8.18084367,11.0769231 C8.38451613,6.23076923 2.12724566,6.57692308 2.12724566,3.86538462 Z M93.8251117,4.38461538 C93.5082878,0.173076923 89.5027295,0.496153846 88.6201489,0.45 C87.884665,0.426923077 86.3231762,0.403846154 84.9766749,0.403846154 L84.9766749,14.5615385 L87.1491811,14.5615385 L87.1491811,8.60769231 C87.884665,8.60769231 88.1222829,8.60769231 89.2311663,8.56153846 L93.191464,14.5615385 L95.8278908,14.5615385 L91.448933,8.19230769 C92.6257072,7.75384615 93.9948387,6.72692308 93.8251117,4.38461538 Z M88.4956824,6.94615385 C88.0091315,6.94615385 87.635732,6.94615385 87.1491811,6.92307692 L87.1491811,2.13461538 L88.2920099,2.13461538 C88.8351365,2.13461538 91.6865509,1.96153846 91.9354839,4.28076923 C92.2409926,7.02692308 89.0840695,6.94615385 88.4956824,6.94615385 L88.4956824,6.94615385 Z M108.16139,0.426923077 L105.649429,0.426923077 L101.100744,14.6076923 L103.25062,14.6076923 C103.929529,12.0461538 104.155831,11.3192308 104.155831,11.3192308 L109.779454,11.2961538 C110.435732,13.1884615 110.922283,14.6307692 110.922283,14.6307692 L113.151365,14.6307692 L108.16139,0.426923077 L108.16139,0.426923077 Z M104.653697,9.69230769 L106.848834,2.68846154 L106.871464,2.68846154 L109.168437,9.66923077 L104.653697,9.69230769 Z M71.4437717,0.0230769231 C67.0195533,0.0230769231 64.1341935,3.35769231 64.1341935,7.5 C64.1341935,11.6423077 67.0195533,14.9769231 71.4437717,14.9769231 C75.8679901,14.9769231 78.7533499,11.6423077 78.7533499,7.5 C78.7533499,3.35769231 75.8679901,0.0230769231 71.4437717,0.0230769231 L71.4437717,0.0230769231 Z M71.4437717,12.9346154 C68.1963275,12.9346154 66.3632754,10.5230769 66.3632754,7.5 C66.3632754,4.51153846 68.1963275,2.06538462 71.4437717,2.06538462 C74.6685856,2.06538462 76.524268,4.47692308 76.524268,7.5 C76.524268,10.4884615 74.6912159,12.9346154 71.4437717,12.9346154 Z" id="Shape" fill="#5B5E6D" fill-rule="nonzero"></path>
                        </g>
                    </g>
                </g>
            </g>
        </g>
    </g>
</svg>