<?xml version="1.0" encoding="UTF-8"?>
<svg width="60px" height="19px" viewBox="0 0 60 19" version="1.1" xmlns="http://www.w3.org/2000/svg" xmlns:xlink="http://www.w3.org/1999/xlink">
    <!-- Generator: Sketch 63.1 (92452) - https://sketch.com -->
    <title>logo-ucla</title>
    <desc>Created with Sketch.</desc>
    <g id="Demo-Landing-v3" stroke="none" stroke-width="1" fill="none" fill-rule="evenodd">
        <g id="Demo-Landing---Global---Full-Size" transform="translate(-161.000000, -1014.000000)" fill="#5B5E6D" fill-rule="nonzero">
            <g id="Customers" transform="translate(0.000000, 626.000000)">
                <g id="Logos" transform="translate(150.000000, 156.000000)">
                    <g id="Row-4" transform="translate(11.000000, 218.000000)">
                        <g id="logo-ucla" transform="translate(0.000000, 14.000000)">
                            <path d="M0.258843373,13.4403625 C0.185180723,12.8219125 0.220653012,11.9208375 0.220653012,11.4691125 L1.17833976,0.8333875 L4.6980988,0.8333875 L3.74029157,11.5631625 C3.53565783,13.8920638 4.45788193,15.540575 6.81523133,15.540575 C9.2080988,15.540575 10.4795687,13.8732775 10.6814964,11.808025 L11.6964602,0.83315 L15.2326048,0.83315 L14.2558337,11.6600625 C13.8522193,15.841725 11.0527012,18.955825 6.52065301,18.955825 C2.98450843,18.955825 0.700653012,16.70765 0.258966265,13.4403625 M16.667641,9.8393875 C17.1288458,4.7378875 20.6295687,0.4970875 26.6507735,0.4970875 C28.252388,0.4970875 29.780412,0.8547625 31.2946289,1.830935 L30.8880265,6.05036 C29.5074241,4.22975625 27.8485084,3.9500525 26.3205566,3.9500525 C22.5634482,3.9500525 20.5007976,6.52099 20.2060988,9.7669025 C19.9277855,12.9536775 21.5867012,15.5243775 25.2347735,15.5243775 C26.8200024,15.5243775 28.4952554,15.072605 30.2634482,13.3299488 L29.8760024,17.6621863 C28.1625325,18.581905 26.5608217,18.9933737 24.9591349,18.9933737 C18.9702193,18.9933737 16.2282916,14.6207613 16.6670867,9.83917375 M34.1297373,0.83293625 L37.6466048,0.83293625 L36.3560506,15.2769737 L41.4037614,15.2769737 C41.7720988,15.2769737 42.9698819,15.2608404 43.3000506,15.2608404 C43.2836892,15.430261 42.969906,18.5794279 42.969906,18.5794279 L32.5253277,18.5794279 L34.1296651,0.83293625 M53.3954482,0.028896625 L53.1389663,0.028896625 L43.4883639,18.5819216 L47.2454723,18.5819216 L48.5878819,15.7663591 L55.4035446,15.7663591 L56.2520747,18.5819216 L59.9708699,18.5819216 L53.4014723,0.028421625 M52.5010867,7.45623412 C52.6129518,7.21151412 52.7029952,6.89416662 52.7575687,6.72475787 L52.8148675,6.72475787 C52.8312289,6.950656 52.8694337,7.21417412 52.9431036,7.47506787 C53.1259108,8.28183162 54.5092241,12.7672804 54.5092241,12.7672804 L50.0482602,12.7672804 C50.0482602,12.7672804 52.4438265,7.58764287 52.5010313,7.45583037 L52.5010867,7.45623412 Z" id="Shape"></path>
                        </g>
                    </g>
                </g>
            </g>
        </g>
    </g>
</svg>