<?xml version="1.0" encoding="UTF-8"?>
<svg width="85px" height="21px" viewBox="0 0 85 21" version="1.1" xmlns="http://www.w3.org/2000/svg" xmlns:xlink="http://www.w3.org/1999/xlink">
    <!-- Generator: Sketch 63.1 (92452) - https://sketch.com -->
    <title>logo-marriott</title>
    <desc>Created with Sketch.</desc>
    <g id="Demo-Landing-v3" stroke="none" stroke-width="1" fill="none" fill-rule="evenodd">
        <g id="Demo-Landing---Global---Full-Size" transform="translate(-150.000000, -782.000000)" fill="#5B5E6D">
            <g id="Customers" transform="translate(0.000000, 626.000000)">
                <g id="Logos" transform="translate(150.000000, 156.000000)">
                    <g id="Row-1">
                        <g id="logo-marriott">
                            <path d="M78.4312238,17.3585737 C77.368645,16.8056371 77.2033604,15.2432813 77.2269667,11.443282 L77.2505837,5.6197496 L75.2198823,5.61739576 L75.6921405,4.53975199 L77.2505837,4.53975199 L77.2505837,1.78210782 L80.9813947,0.403279178 L80.9813947,4.44798302 L82.705132,4.45033568 L82.2564789,5.64563594 L80.9813947,5.6432821 L80.9813947,15.7209223 C81.0522338,16.5326924 81.3355904,17.0103334 81.7133924,17.3585737 L78.4312238,17.3585737" id="path13762"></path>
                            <path d="M49.1514075,4.98916353 C49.8361831,4.41504708 51.0404294,4.40328024 51.8196504,4.77033581 C52.1502303,4.93504775 52.4571932,5.15386472 52.6697118,5.44092772 L51.1584919,7.77504788 C50.9695903,7.62445544 50.827912,7.55622016 50.5917883,7.4338679 C49.8361831,7.11151512 49.0569621,7.29975 48.608321,7.7068126 L48.608321,14.5185724 C48.5847039,15.6973993 48.7972226,16.7726905 49.4111483,17.3303443 L45.9873002,17.3303443 C45.2553013,16.7844561 45.0900167,15.9115206 45.0191776,15.1468046 L44.9955605,6.08798714 C45.0191776,5.35386525 44.830276,5.03151247 44.5469194,4.61975411 L48.0888395,4.63386406 C48.3721865,4.83857109 48.3958035,5.19387175 48.5374818,5.46681525 L49.1514075,4.98916353" id="path13790"></path>
                            <path d="M53.4725379,7.22916088 C53.4489328,6.36799098 53.6378332,5.33740265 53.0711308,4.59386777 L56.3532994,4.59386777 C56.5894231,4.75857971 56.7074856,5.03151247 56.7783247,5.29033647 C56.9672251,5.52093103 56.9436201,5.85034416 57.0144592,6.12327692 L57.0616813,15.7750488 C57.1797438,16.3491653 57.4158674,16.9279882 57.8409023,17.3797536 L54.3225992,17.3868127 C53.165575,16.2762223 53.5433782,14.4503371 53.4489328,12.5656285 L53.4725379,7.22916088" id="path13792"></path>
                            <path d="M58.6909637,7.32328369 C59.0451486,6.34210464 60.1549495,5.85034416 60.9577876,5.31622281 C62.1856509,4.86681127 63.5551914,3.74680782 64.9247222,4.66210424 C66.0817452,5.41268753 67.0971019,6.25974867 67.8290888,7.41974841 C67.9943842,7.86915995 68.0888296,8.37503992 68.2069028,8.85269164 C68.2069028,9.49504456 68.3485703,9.97269629 68.324964,10.615048 C68.3721873,11.3115167 68.3721873,11.9397489 68.324964,12.6221089 C68.2777419,13.7821086 67.7346446,14.8197454 66.8137441,15.6244564 C65.4442025,16.8409257 63.7204759,18.2197532 61.855071,17.2762166 C60.1785666,16.4973931 58.2187055,14.9562171 58.3367668,12.838572 C58.2659276,11.3373923 58.1950885,10.0409316 58.4076059,8.57974814 C58.478445,8.15622294 58.4548292,7.69269191 58.6909637,7.32328369 Z M62.1148118,14.1491642 C62.2800951,14.7515208 62.5870699,15.4879846 63.3190569,15.5703406 C63.7440929,15.5844613 64.0510558,15.2291606 64.3107965,14.9279889 C65.0664005,13.4268092 64.9483392,11.7891577 64.9483392,10.0809279 C64.7122156,8.81269655 65.0191784,7.07857918 63.6496368,6.2997557 C63.1537723,6.12327692 62.7995766,6.45033621 62.4926138,6.75151989 C61.9495164,7.55622016 61.9022931,8.47857692 61.855071,9.50210491 C61.6897757,11.1397564 61.8786761,12.497392 62.1148118,14.1491642 L62.1148118,14.1491642 Z" id="path13794" fill-rule="nonzero"></path>
                            <path d="M70.7570725,17.3585737 C69.6945057,16.8056371 69.5292103,15.2432813 69.5528274,11.443282 L69.5764324,5.6197496 L67.5693601,5.61739576 L68.0180012,4.53975199 L69.5764324,4.53975199 L69.5764324,1.78210782 L73.3308604,0.403279178 L73.3308604,4.44798302 L75.0309819,4.45033568 L74.5823396,5.64563594 L73.3308604,5.6432821 L73.3308604,15.7209223 C73.4016996,16.5326924 73.6850573,17.0103334 74.0628593,17.3585737 L70.7570725,17.3585737" id="path13796"></path>
                            <path d="M36.5658172,6.08798714 C36.5422002,5.35386525 36.4005219,5.03151247 36.1171749,4.61975411 L39.6590854,4.63386406 C39.9424312,4.83857109 39.9660483,5.19387175 40.1077266,5.46681525 L40.7216523,4.98916353 C41.4064291,4.41504708 42.6106742,4.40328024 43.3898964,4.77033581 C43.7204751,4.93504775 44.0274379,5.15386472 44.2399565,5.44092772 L42.7287366,7.77504788 C42.539835,7.62445544 42.3981675,7.55622016 42.162033,7.4338679 C41.4064291,7.11151512 40.6272069,7.29975 40.1785657,7.7068126 L40.1785657,14.5185724 C40.1549487,15.6973993 40.3674673,16.7726905 40.981393,17.3303443 L37.5575449,17.3303443 C36.849163,16.7844561 36.6366564,15.9726967 36.5894223,15.1468046 L36.5658172,6.08798714" id="path13798"></path>
                            <path d="M9.7181202,9.6715126 L8.44302397,12.3162175 C7.54574051,13.8762207 6.31787837,15.7891576 4.42885646,16.2644554 C3.69686833,16.5185729 3.03570856,16.2879891 2.32732669,16.2385691 L0.0368857553,19.9679901 C0.225787347,20.1515172 0.461921824,20.3044516 0.69804552,20.3938679 C4.71221304,21.9232771 6.34149541,20.278576 10.2848238,11.3585721 L14.0392518,19.3044573 L19.0215419,19.3044573 L16.6602618,13.9421033 L18.0061972,11.1703385 L21.6897848,19.1821062 L26.4595575,19.2126883 L18.1006414,0.935046684 L14.2517692,2.83857175 L17.2741983,9.65974576 L15.9518787,12.3397512 L10.4265021,0.462102653 L6.38871751,2.51857162 L9.7181202,9.6715126" id="path13800"></path>
                            <path d="M25.0427938,12.8950416 C25.1372392,11.5703407 25.8692381,10.327985 27.0971002,9.65974576 C28.3249636,8.90680743 29.7417273,8.60798833 31.0168116,7.95151592 C31.2293302,7.77504788 31.4890709,7.55622016 31.5126868,7.26916671 C31.536293,6.91386724 31.3473914,6.64092374 31.0404286,6.51857149 C29.1041846,6.10916698 27.5221255,7.309163 26.1289776,8.49740292 C26.2942622,7.62445544 26.4359405,6.66916393 26.8609765,5.85034416 C27.0498781,5.63151645 27.1915564,5.3303435 27.4512971,5.16798422 C28.8208268,4.49740305 30.5209483,4.30681552 32.0321682,4.41504708 C33.2836366,4.49740305 34.4406716,5.38445928 34.8656957,6.51857149 C35.0782132,7.05033899 35.0545973,7.65269562 35.1018194,8.19857308 L35.1254365,15.59857 C35.1254365,16.2385691 35.4323993,16.8409257 35.8102013,17.3585737 L32.2682919,17.3585737 C31.8432666,16.9773975 31.6307492,16.4973931 31.5126868,15.8973999 C30.5209483,16.7726905 28.4430248,18.0691619 27.2151615,17.2079813 C25.9400772,16.6362175 24.759436,14.7091599 25.0427938,12.8950416 Z M31.3237864,10.3209247 C31.3001693,9.80798435 30.9459844,9.75386857 30.6862436,9.75386857 C29.8361835,9.87621963 29.1041846,10.5844552 28.6791593,11.3115167 C28.3249636,11.9585761 28.2305182,12.5044524 28.2069011,13.0715204 C28.2069011,13.6832793 28.159679,14.1373973 28.4194186,14.6009284 C28.5610861,14.9021013 28.8444438,15.0385731 29.1514067,15.1185764 C29.694504,15.2291606 30.1903684,15.0785694 30.6154045,14.7915159 C31.6307492,14.2315202 31.4418476,13.1115155 31.4654647,12.116217 L31.3237864,10.3209247 L31.3237864,10.3209247 Z" id="path13802" fill-rule="nonzero"></path>
                            <path d="M82.1620347,16.2503359 C82.1620347,15.4926911 82.7759616,14.935048 83.5079629,14.935048 C84.2399522,14.935048 84.8538803,15.4926911 84.8538803,16.2503359 C84.8538803,17.0126873 84.2399522,17.5703411 83.5079629,17.5703411 C82.7759616,17.5703411 82.1620347,17.0126873 82.1620347,16.2503359 Z M83.5079629,17.3515134 C84.121891,17.3515134 84.594148,16.8856285 84.594148,16.2503359 C84.594148,15.6268102 84.121891,15.153865 83.5079629,15.153865 C82.9176447,15.153865 82.4217778,15.6268102 82.4217778,16.2503359 C82.4217778,16.8856285 82.9176447,17.3515134 83.5079629,17.3515134 Z M83.2246087,17.0126873 L83.0120961,17.0126873 L83.0120961,15.4926911 L83.5787925,15.4926911 C83.9330002,15.4926911 84.121891,15.6268102 84.121891,15.9256293 C84.121891,16.1985728 83.956598,16.3162186 83.7204755,16.3444588 L84.1691227,17.0126873 L83.9093783,17.0126873 L83.5079629,16.3538718 L83.2246087,16.3538718 L83.2246087,17.0126873 Z M83.5079629,16.1585777 C83.6968657,16.1585777 83.8857565,16.144457 83.8857565,15.9115206 C83.8857565,15.7232749 83.7204755,15.6879863 83.5551826,15.6879863 L83.2246087,15.6879863 L83.2246087,16.1585777 L83.5079629,16.1585777 L83.5079629,16.1585777 Z" id="path13842" fill-rule="nonzero"></path>
                        </g>
                    </g>
                </g>
            </g>
        </g>
    </g>
</svg>