<?xml version="1.0" encoding="UTF-8"?>
<svg width="93px" height="21px" viewBox="0 0 93 21" version="1.1" xmlns="http://www.w3.org/2000/svg" xmlns:xlink="http://www.w3.org/1999/xlink">
    <!-- Generator: Sketch 63.1 (92452) - https://sketch.com -->
    <title>logo-yamaha</title>
    <desc>Created with Sketch.</desc>
    <g id="Demo-Landing-v3" stroke="none" stroke-width="1" fill="none" fill-rule="evenodd">
        <g id="Demo-Landing---Global---Full-Size" transform="translate(-300.000000, -782.000000)" fill="#5B5E6D">
            <g id="Customers" transform="translate(0.000000, 626.000000)">
                <g id="Logos" transform="translate(150.000000, 156.000000)">
                    <g id="Row-1">
                        <g id="logo-yamaha" transform="translate(150.000000, 0.000000)">
                            <g id="g8" transform="translate(0.000000, 0.325521)" fill-rule="nonzero">
                                <path d="M10.0616587,0 C4.50497582,0 0,4.47558594 0,9.99739583 C0,15.5182292 4.50497582,19.9947917 10.0616587,19.9947917 C15.6186693,19.9947917 20.1239727,15.5182292 20.1239727,9.99739583 C20.1239727,4.47558594 15.6189969,0 10.0616587,0 Z M10.0616587,18.8662109 C5.13174082,18.8662109 1.13459864,14.8951823 1.13459864,9.99739583 C1.13459864,5.09863281 5.13141318,1.12792969 10.0616587,1.12792969 C14.9919043,1.12792969 18.9887188,5.09863281 18.9887188,9.99739583 C18.9887188,14.8951823 14.9919043,18.8662109 10.0616587,18.8662109 Z" id="path4"></path>
                                <path d="M17.3751184,14.0234375 L15.9141957,12.3284505 C15.8961758,12.3079427 15.8748795,12.2903646 15.8503069,12.2760417 C15.7756062,12.233724 15.6878002,12.2327474 15.6153929,12.2675781 L15.6153929,12.2675781 C15.3922737,12.3723958 15.1226305,12.3704427 14.892631,12.2386068 C14.6878593,12.1220703 14.5574608,11.9254557 14.5168341,11.7119141 L14.5171617,11.7119141 C14.4142844,11.1679688 14.0827182,10.6705729 13.5627621,10.3727214 L12.9084758,9.99772135 L16.6281115,7.86425781 L16.1677849,7.07161458 L11.9878226,9.46907552 L11.4855587,9.1813151 L11.4855587,8.60481771 L15.6651934,6.20703125 L15.2048667,5.41471354 L11.4855587,7.5485026 L11.4855587,6.79817708 C11.4855587,6.2014974 11.2175536,5.66731771 10.7952326,5.30729167 L10.7952326,5.30729167 C10.6291219,5.16601562 10.5236235,4.95572917 10.5236235,4.72102865 C10.5236235,4.45703125 10.6566432,4.22330729 10.8601043,4.08398437 C10.9266141,4.0390625 10.9695342,3.96289062 10.9695342,3.87727865 C10.9695342,3.84895833 10.9649473,3.82161458 10.9564288,3.79622396 L10.2097496,1.69205729 C10.1891086,1.63053385 10.1307896,1.58658854 10.062314,1.58658854 C9.99416599,1.58658854 9.93584703,1.63053385 9.91520605,1.69205729 L9.16885442,3.79622396 C9.16000829,3.82161458 9.1554214,3.84895833 9.1554214,3.87727865 C9.1554214,3.96289063 9.19866917,4.0390625 9.26452372,4.08398438 L9.26485136,4.08398438 C9.46798481,4.22330729 9.6013321,4.45703125 9.6013321,4.72102865 C9.6013321,4.95572917 9.49616139,5.16601563 9.32939538,5.30729167 C8.90674674,5.66731771 8.6393969,6.20182292 8.6393969,6.79817708 L8.6393969,7.5485026 L4.91976123,5.41471354 L4.45943461,6.20703125 L8.6393969,8.60481771 L8.6393969,9.18164063 L8.13713305,9.46907552 L3.95717076,7.07161458 L3.49717177,7.86425781 L7.21680744,9.99772135 L6.5621935,10.3727214 C6.04223739,10.6705729 5.71067116,11.1679688 5.60812153,11.7119141 L5.60812153,11.7119141 C5.56749484,11.9254557 5.4374239,12.1220703 5.23265228,12.2386068 C5.00232515,12.3704427 4.7330095,12.3723958 4.5095627,12.2675781 L4.5095627,12.2675781 C4.43682782,12.2330729 4.34934938,12.233724 4.27497633,12.2760417 C4.2500761,12.2903646 4.22845221,12.3082682 4.21108758,12.3284505 L2.74983724,14.0227865 C2.70691711,14.0712891 2.69774334,14.1429036 2.73181734,14.2027995 C2.76589134,14.2610677 2.83338406,14.289388 2.89694518,14.2773438 L5.10454715,13.8665365 C5.13108555,13.8613281 5.15762395,13.851888 5.18186891,13.8378906 C5.25689724,13.7945964 5.30080027,13.7200521 5.30735297,13.639974 C5.32733868,13.3958333 5.46428994,13.1640625 5.69428943,13.0322266 C5.89840579,12.9156901 6.13463034,12.9007161 6.34136778,12.9726562 C6.86656605,13.15625 7.46580974,13.1194661 7.98576586,12.820638 L8.64005217,12.4462891 L8.64005217,16.7132161 L9.56070541,16.7132161 L9.56070541,11.9176432 L10.0632969,11.6295573 L10.5655607,11.9176432 L10.5655607,16.7128906 L11.4865416,16.7128906 L11.4865416,12.4459635 L12.1405003,12.8203125 C12.6604564,13.1191406 13.2600277,13.1559245 13.785226,12.9723307 C13.9913082,12.9000651 14.2278604,12.9150391 14.4323043,13.031901 C14.6623038,13.163737 14.7989275,13.3955078 14.8189132,13.6396484 C14.8251382,13.7197266 14.8693689,13.7945964 14.943742,13.8375651 C14.9683146,13.8515625 14.994853,13.8610026 15.0213914,13.8662109 L17.2286657,14.2770182 C17.2925545,14.2890625 17.3597195,14.2607422 17.3941212,14.202474 C17.4272123,14.1429036 17.4177109,14.0716146 17.3751184,14.0234375 L17.3751184,14.0234375 Z M8.63906926,11.389974 L7.4114224,12.09375 C7.1709386,12.2317708 6.86394497,12.1497396 6.72535554,11.9111328 C6.5867661,11.671875 6.66900238,11.366862 6.90948618,11.2288411 L8.13713305,10.5247396 L8.6393969,10.813151 L8.6393969,11.389974 L8.63906926,11.389974 Z M9.5597225,6.66861979 C9.5597225,6.39257812 9.78447984,6.16894531 10.0619864,6.16894531 C10.3394929,6.16894531 10.5645778,6.39257812 10.5645778,6.66861979 L10.5645778,8.0764974 L10.062314,8.36425781 L9.5597225,8.0764974 L9.5597225,6.66861979 Z M10.6399338,10.328776 L10.062314,10.6598307 L9.48403891,10.3284505 L9.48403891,9.66536458 L10.062314,9.33365885 L10.6399338,9.66536458 L10.6399338,10.328776 Z M13.3989448,11.9114583 C13.2600277,12.1497396 12.9523788,12.2317708 12.7122227,12.0940755 L11.4849034,11.3896484 L11.4849034,10.8134766 L11.9871673,10.5250651 L13.2144865,11.2291667 C13.4549703,11.3671875 13.5372066,11.671875 13.3989448,11.9114583 L13.3989448,11.9114583 Z" id="path6"></path>
                            </g>
                            <g id="g22" transform="translate(22.279153, 1.302083)">
                                <polygon id="polygon10" points="54.7772296 6.98990885 51.4189749 6.98990885 51.4189749 0.319335938 48.3513321 0.319335938 48.3513321 17.7220052 51.4189749 17.7220052 51.4189749 10.0797526 54.7772296 10.0797526 54.7772296 17.7220052 57.9117099 17.7220052 57.9117099 0.319335938 54.7772296 0.319335938"></polygon>
                                <polygon id="polygon12" points="0.0845297281 0.319335938 3.48898091 10.9902344 3.48898091 17.7220052 6.89670843 17.7220052 6.89670843 10.6445312 10.4259884 0.319335938 7.5582027 0.319335938 5.24149841 7.09928385 3.1443093 0.319335938"></polygon>
                                <polygon id="polygon14" points="29.6705898 0.319335938 28.2011486 8.59765625 26.497121 0.319335938 21.708086 0.319335938 21.708086 17.7220052 24.4543193 17.7220052 24.4543193 4.60384115 26.7978896 16.0078125 29.3626133 16.0078125 31.4411272 4.41861979 31.4411272 17.7220052 34.6611201 17.7220052 34.6611201 0.319335938"></polygon>
                                <path d="M67.2587975,0.319335938 L62.5149761,0.319335938 L59.313986,17.7220052 L62.1526122,17.7220052 L62.8314711,13.672526 L66.3623892,13.672526 L67.0209348,17.7220052 L70.1488624,17.7220052 L67.2587975,0.319335938 Z M63.3183361,10.7714844 L64.6236324,2.98828125 L65.8905954,10.7714844 L63.3183361,10.7714844 Z" id="path16" fill-rule="nonzero"></path>
                                <path d="M39.264714,0.319335938 L36.062741,17.7220052 L38.9020225,17.7220052 L39.5815366,13.672526 L43.1124548,13.672526 L43.7710003,17.7220052 L46.8982726,17.7220052 L44.0078801,0.319335938 L39.264714,0.319335938 Z M40.0677464,10.7714844 L41.3730426,2.98828125 L42.6400057,10.7714844 L40.0677464,10.7714844 Z" id="path18" fill-rule="nonzero"></path>
                                <path d="M12.6208126,0.319335938 L9.41883962,17.7220052 L12.2584487,17.7220052 L12.9379629,13.672526 L16.4685534,13.672526 L17.1274266,17.7220052 L20.2540436,17.7220052 L17.3639788,0.319335938 L12.6208126,0.319335938 Z M13.4241727,10.7714844 L14.7294689,2.98828125 L15.9961043,10.7714844 L13.4241727,10.7714844 Z" id="path20" fill-rule="nonzero"></path>
                            </g>
                        </g>
                    </g>
                </g>
            </g>
        </g>
    </g>
</svg>