<?xml version="1.0" encoding="UTF-8"?>
<svg width="98px" height="21px" viewBox="0 0 98 21" version="1.1" xmlns="http://www.w3.org/2000/svg" xmlns:xlink="http://www.w3.org/1999/xlink">
    <!-- Generator: Sketch 63.1 (92452) - https://sketch.com -->
    <title>logo-unilever</title>
    <desc>Created with Sketch.</desc>
    <g id="Demo-Landing-v3" stroke="none" stroke-width="1" fill="none" fill-rule="evenodd">
        <g id="Demo-Landing---Global---Full-Size" transform="translate(-466.000000, -782.000000)" fill="#5B5E6D" fill-rule="nonzero">
            <g id="Customers" transform="translate(0.000000, 626.000000)">
                <g id="Logos" transform="translate(150.000000, 156.000000)">
                    <g id="Row-1">
                        <g id="logo-unilever" transform="translate(316.000000, 0.000000)">
                            <path d="M45.7522324,0 C45.7003649,0 45.6481007,0.00142130006 45.5955523,0.00458451904 C43.3000866,0.145144485 41.2030476,5.26419134 41.5379125,10.7067492 C41.6040558,11.7702486 42.0681268,14.6931059 42.7192508,16.1390109 C41.5803036,17.9621555 40.1333739,18.2350022 39.2931145,18.2350022 C38.1117927,18.2350022 36.3165585,17.5621818 36.3165585,14.8140321 C37.1619841,12.5092651 36.5997542,9.87376162 35.4194669,9.87376162 C33.7348165,9.87376162 33.1746392,12.8420609 33.1177938,14.9235845 C32.5576231,16.1607205 31.9384991,17.1694171 31.0941071,17.1694171 C28.5712651,17.1694171 28.348076,9.30836515 26.4928934,9.30836515 C24.9787748,9.30836515 22.3742587,14.3065453 21.5856768,14.3065453 C21.1391929,14.3065453 20.7423328,12.8905768 20.4601796,11.5025484 C20.3816317,11.1139418 20.305131,10.644721 20.0529504,10.6209523 C19.5537561,10.5744427 18.9295251,11.0043959 18.6990484,11.6048753 C18.4654713,12.2022544 18.0489613,14.0739743 17.5952426,15.7813623 C17.3234246,16.7642475 16.655718,18.8437152 16.5761364,19.6198938 C16.5172252,20.1800645 16.752888,20.5997149 17.3151272,20.6586262 C18.7114233,20.8033178 23.8542439,14.4760072 25.4820506,14.4760072 C27.5615087,14.4760072 28.0638087,20.7061405 30.4243865,20.7061405 C31.8268838,20.7061405 33.1177508,17.1156391 33.9611106,17.1156391 C34.9129883,17.1156391 35.3626248,20.7061405 38.0570329,20.7061405 C41.4283997,20.7061405 42.5477098,18.516089 43.5595333,18.516089 C44.4008273,18.516089 45.2999483,20.6493282 47.3752745,20.6493282 C48.6661488,20.6493282 49.7927472,20.2576047 51.1384011,19.3574028 C51.9218151,20.2576047 52.8736961,20.7061405 53.7770017,20.7061405 C59.3291153,20.7061405 60.9011063,15.7090578 62.0286864,15.7090578 C63.0374095,15.7090578 62.8141563,20.6493282 65.6811631,20.6493282 C69.4948814,20.6493282 72.0797238,13.9675289 72.0797238,10.374988 C72.0797238,9.42207576 71.7965182,8.63967983 71.0110384,8.63967983 C69.7170604,8.63967983 68.7621087,10.1548254 68.7621087,11.9490316 C68.7621087,13.5768366 69.1558452,13.6895523 69.1558452,14.8140321 C69.1558452,16.3260838 68.3703554,18.2918145 67.4133081,18.2918145 C65.1746845,18.2918145 64.6114597,9.42211543 63.2627054,9.42211543 C62.4792914,9.42211543 62.0834362,10.3749781 61.8601929,11.0498709 C60.6199599,14.5886734 58.943553,18.4634084 55.7416813,18.4634084 C55.1215648,18.4634084 54.395049,18.1791979 54.0012729,17.7885222 C56.2440315,16.3860263 57.7612363,14.9235416 57.7612363,13.1293353 C57.7612363,11.6110828 56.7514786,9.30836515 55.0099861,9.30836515 C52.822007,9.30836515 50.2939902,12.6218684 50.2939902,16.5503087 C50.2939869,17.2830815 50.4087089,17.7884892 50.5213618,18.1791616 C50.3528981,18.4065365 49.6759197,18.6866483 49.1147144,18.6866483 C47.5995622,18.6866483 45.9945013,17.0753304 45.8032968,16.1286189 C46.9339773,13.6874237 49.1922314,10.856627 48.7788215,4.07461607 C48.6286364,1.576549 47.3601492,0.00377470854 45.7522324,0 Z M36.0922839,0.778693945 C35.0267187,0.778693945 34.023152,1.89697614 34.1296041,3.30154122 C34.1978199,4.22758101 34.7445345,4.98926894 35.8163005,4.98926894 C37.0472323,4.98926894 37.94438,3.58577148 37.8317238,2.29282804 C37.7531788,1.39365743 37.0472654,0.778693945 36.0922839,0.778693945 Z M13.9532257,1.87956442 C13.8029877,1.87780842 13.6351328,1.90299849 13.4456094,1.9559006 C12.5443729,2.23908968 11.564559,3.47416307 11.8456786,5.35001803 C11.9738363,6.19750951 12.4399659,7.34364258 12.6011961,7.85420661 C12.8843829,8.7502735 13.2203072,10.1548782 12.773823,13.0714917 C12.2095169,16.7229471 10.8638575,19.2498831 7.83251992,19.1909719 C5.81197298,19.1909719 3.95577196,17.6179431 3.73563042,13.5768499 C3.50825415,9.7589966 3.79350047,8.133264 4.40844975,4.76602897 C4.68853576,3.244676 4.79910167,1.95589729 3.56506913,2.1812064 C1.99617367,2.51503674 1.54451954,3.13615478 1.03912408,4.87765061 C0.085177888,8.133264 -0.0781076078,10.4339323 0.0283457837,12.7355989 C0.255722062,17.617986 2.44267614,20.819828 7.38500674,20.9273147 C13.1097181,21.043068 15.4124206,15.4847766 15.6335957,10.880409 C15.8030943,7.51213935 15.7472557,5.15668817 15.240827,3.36145067 C14.9242443,2.40246647 14.6042585,1.88765836 13.9532257,1.87956442 L13.9532257,1.87956442 Z M45.7187261,3.36660151 C46.5078055,3.3580098 46.8667631,4.06991587 46.9608796,5.58978474 C47.1758529,9.06657226 45.6926866,13.3753426 45.0736013,13.4125509 C44.7387397,13.4342538 44.3801457,13.0632251 44.2344195,10.6520027 C44.00601,6.95507566 44.5227847,3.43798933 45.6410636,3.36977684 C45.6674205,3.36799196 45.6932716,3.3669673 45.7187261,3.36660151 L45.7187261,3.36660151 Z M94.8669418,8.35756168 C89.5897505,8.35756168 88.4704272,16.2723223 87.6260328,16.2723223 C86.2225023,16.2723223 86.6710448,9.92850811 85.6592213,9.92850811 C84.7600506,9.92850811 84.3197881,10.999223 84.1998965,11.5004858 C83.5043353,14.3860951 81.3949112,18.631839 78.2478157,18.631839 C77.5191813,18.631839 76.2272922,18.3497011 76.2272922,17.6179629 C76.2272922,16.8324798 81.1706598,16.7229471 81.1706598,12.9598734 C81.1706598,11.5584087 79.8807573,9.5905461 77.9697665,9.5905461 C75.4438221,9.5905461 72.9799158,12.3438853 72.9799158,16.160704 C72.9799158,19.5827152 75.105903,20.7061405 77.2380713,20.7061405 C80.9453342,20.7061405 83.1901718,17.6727689 84.3673587,15.1468278 C84.9316644,16.8325095 85.2634322,20.7061405 86.6710977,20.7061405 C87.2323029,20.7061405 87.6260229,20.4250404 88.3019502,18.9109229 C89.9814344,15.1468146 91.6103071,10.8255997 93.8582286,10.8255997 C94.6974534,10.8255997 94.1941017,12.3438654 96.2146483,12.3438654 C97.166526,12.3438654 97.8383349,11.5584054 97.8383349,10.6561344 C97.8383349,9.36422555 96.6611481,8.35756168 94.8669418,8.35756168 L94.8669418,8.35756168 Z M77.2380713,11.8405732 C78.4183585,11.8405732 78.7573386,13.2368451 78.4762219,14.0822708 C78.1930329,14.9235647 77.1853476,15.8806186 75.6133501,16.160704 C75.2753881,15.3173442 75.105903,11.8405732 77.2380713,11.8405732 Z M54.1717694,12.0059067 C54.7856851,12.0059067 55.2921009,12.7913998 55.2921009,13.7432808 C55.2921009,14.8667259 54.8404415,16.2175394 53.2157369,16.7229372 C52.9873274,16.4376823 52.4861075,15.7699886 52.4861075,14.3612885 C52.4861075,12.5639852 53.66224,12.0059067 54.1717694,12.0059067 L54.1717694,12.0059067 Z" id="path4456"></path>
                        </g>
                    </g>
                </g>
            </g>
        </g>
    </g>
</svg>