<?xml version="1.0" encoding="UTF-8"?>
<svg width="62px" height="35px" viewBox="0 0 62 35" version="1.1" xmlns="http://www.w3.org/2000/svg" xmlns:xlink="http://www.w3.org/1999/xlink">
    <!-- Generator: Sketch 63.1 (92452) - https://sketch.com -->
    <title>logo-daniels</title>
    <desc>Created with Sketch.</desc>
    <g id="Demo-Landing-v3" stroke="none" stroke-width="1" fill="none" fill-rule="evenodd">
        <g id="Demo-Landing---Global---Full-Size" transform="translate(-484.000000, -925.000000)" fill="#5B5E6D" fill-rule="nonzero">
            <g id="Customers" transform="translate(0.000000, 626.000000)">
                <g id="Logos" transform="translate(150.000000, 156.000000)">
                    <g id="Row-3" transform="translate(0.000000, 141.000000)">
                        <g id="logo-daniels" transform="translate(334.000000, 2.000000)">
                            <path d="M50.9285714,11.1702128 C50.3757381,11.9491489 50.847381,12.1755319 51.6666667,12.6595745 C51.8002619,12.4212766 52.2844524,12.4942553 52.4047619,12.6595745 C52.7715952,12.5359574 52.3649048,12.492766 54.6190476,12.6595745 C54.5998571,12.742234 56.5993571,14.4788298 56.8333333,14.1489362 L58.3095238,13.4042553 C58.1279524,13.1056383 56.5454762,12.8881915 56.8333333,12.6595745 C56.5240714,12.8881915 56.4967619,11.6341489 56.8333333,11.9148936 C56.4709286,11.6296809 57.7168333,11.4665957 57.5714286,11.1702128 C57.652619,11.4576596 58.4682143,12.6744681 58.3095238,12.6595745 C58.4682143,12.6744681 60.1805952,11.1798936 60.5238095,11.1702128 L59.7857143,10.4255319 C59.5768333,10.3815957 60.3732381,10.9125532 60.5238095,11.1702128 C61.1615238,10.3756383 57.8127857,7.56670213 57.5714286,7.44680851 C58.2349762,6.60234043 55.0279524,4.41595745 55.3571429,4.46808511 C55.2980952,3.94680851 55.2301905,3.35329787 54.6190476,2.9787234 C54.1075476,1.98308511 50.6333333,-0.610638298 44.2857143,1.4893617 C46.0195,1.53776596 47.2329286,2.18712766 47.2380952,2.23404255 C47.2329286,2.18712766 40.4727143,1.49159574 36.1666667,6.70212766 C38.122619,5.93287234 39.8091667,6.29106383 39.8571429,5.95744681 C39.8091667,6.28659574 33.5146905,7.57117021 29.5238095,14.1489362 C32.9153571,13.0095745 36.4552619,12.6469149 39.8571429,13.4042553 C39.9309524,13.1361702 25.8960714,14.3157447 11.8095238,23.8297872 C19.4672619,20.9478723 44.9920714,10.9795745 61.2619048,23.8297872 C61.2619048,23.8297872 58.4231905,15.593617 45.7619048,13.4042553 C47.1148333,12.3795745 48.4286429,11.7026596 49.452381,11.1702128 C49.0050952,10.8753191 48.2035238,10.7368085 47.2380952,10.4255319 C49.483381,9.35840426 51.390619,9.47755319 51.6666667,9.68085106 L50.9285714,11.1702128 Z M56.8333333,7.44680851 L56.8333333,8.19148936 L56.0952381,7.44680851 L56.8333333,7.44680851 Z M51.6666667,5.21276596 C52.1279762,3.91180851 53.1428571,5.00946809 53.1428571,5.21276596 C53.1428571,5.00946809 52.4328095,4.56787234 52.4047619,5.21276596 C51.9279524,5.67223404 52.5641905,6.70212766 52.4047619,6.70212766 C52.5641905,6.70212766 51.3825,5.76606383 51.6666667,5.21276596 Z M29.5238095,35 L29.5238095,28.2978723 C29.4706667,28.2718085 29.3141905,28.0968085 28.7857143,28.2978723 L26.5714286,28.2978723 C26.0193333,28.0968085 25.8820476,28.2524468 25.8333333,28.2978723 L25.8333333,35 L22.8809524,35 L22.8809524,26.8085106 L30.2619048,26.8085106 C31.7860714,26.8085106 32.4761905,27.4861702 32.4761905,29.0425532 L32.4761905,35 L29.5238095,35 Z M21.4047619,29.0425532 L21.4047619,32.7659574 C21.4047619,33.3691489 21.1744762,33.9351064 20.6666667,34.2553191 C20.358881,34.7676596 19.8060476,35.0014894 19.1904762,35.0000071 L14.0238095,35.0000071 C12.5697619,35.0000071 11.8095238,34.1853191 11.8095238,32.7659574 L11.8095238,31.2765957 C11.8117381,30.3159574 12.7838095,29.3232979 14.0238095,29.0425532 L18.452381,29.0425532 L18.452381,28.2978723 C18.4405714,28.1608511 18.321,28.0320213 17.7142857,28.2978723 L11.8095238,28.2978723 L11.8095238,26.8085106 L19.1904762,26.8085106 C19.8075238,26.8085106 20.3603571,27.0415957 20.6666667,27.5531915 C21.1752143,27.8741489 21.4047619,28.4393617 21.4047619,29.0425532 Z M18.452381,30.5319149 L15.5,30.5319149 C14.9169048,30.5319149 14.7619048,30.6845745 14.7619048,31.2765957 L14.7619048,32.7659574 C14.7619048,33.3765957 14.933881,33.5106383 15.5,33.5106383 L17.7142857,33.5106383 C18.2929524,33.5106383 18.452381,33.3765957 18.452381,32.7659574 L18.452381,30.5319149 Z M40.5952381,32.7659574 L40.5952381,33.5106383 C40.6129524,33.6521277 40.7295714,33.7802128 41.3333333,33.5106383 L47.2380952,33.5106383 L47.2380952,35 L39.8571429,35 C38.1897857,35 37.6428571,34.1644681 37.6428571,32.7659574 L37.6428571,29.0425532 C37.6428571,28.4401064 37.8724048,27.8734043 38.3809524,27.5531915 C38.6872619,27.0393617 39.2393571,26.8062766 39.8571429,26.808479 L45.0238095,26.808479 C46.0128571,26.808479 47.2380952,27.5085106 47.2380952,28.2978723 L47.2380952,30.5319149 C47.2321905,31.4970213 46.2608571,32.4881915 45.0238095,32.7659574 L40.5952381,32.7659574 Z M40.5952381,31.2765957 L43.547619,31.2765957 C44.1314524,31.2706383 44.2857143,31.1194681 44.2857143,30.5319149 L44.2857143,29.0425532 C44.2857143,28.4296809 44.1144762,28.2978723 43.547619,28.2978723 L41.3333333,28.2978723 C40.7554048,28.2978723 40.601881,28.4296809 40.5952381,29.0425532 L40.5952381,31.2765957 Z M59.7857143,35 L53.1428571,35 L53.1428571,33.5106383 L59.047619,33.5106383 C59.0358095,33.7787234 59.3428571,33.5865957 59.047619,33.5106383 L59.047619,32.7659574 C59.3428571,32.4368085 59.055,32.2469149 58.3095238,32.0212766 L55.3571429,32.0212766 C53.7938571,32.2469149 53.1428571,31.4962766 53.1428571,29.787234 L53.1428571,29.0425532 C53.1428571,27.4697872 53.8647143,26.8085106 55.3571429,26.8085106 L61.2619048,26.8085106 L61.2619048,28.2978723 L56.0952381,28.2978723 C56.2037381,28.0126596 56.0723571,28.0521277 56.0952381,28.2978723 C55.8723333,28.2241489 55.8140238,28.3492553 56.0952381,28.2978723 L56.0952381,29.0425532 C55.8103333,29.2302128 56.009619,29.3873404 56.0952381,29.0425532 L59.7857143,29.0425532 C61.154881,29.3873404 62,29.9458511 62,31.2765957 L62,33.5106383 C62,34.4064894 61.1873571,35 59.7857143,35 Z M0,23.8297872 L8.11904762,23.8297872 C9.6262381,23.8297872 10.3333333,24.6630851 10.3333333,26.0638298 L10.3333333,32.7659574 C10.3333333,34.1629787 9.62845238,35 8.11904762,35 L0,35 C0.00221428591,31.2765957 0.00221428591,27.5531915 0,23.8297872 Z M2.95238095,26.0638298 L2.95238095,33.5106383 L6.64285714,33.5106383 C7.16321429,33.5106383 7.38095238,33.3706383 7.38095238,32.7659574 L7.38095238,26.0638298 C7.38095238,25.5432979 7.16469048,25.3191489 6.64285714,25.3191489 L3.69047619,25.3191489 C3.11919048,25.3191489 2.95459524,25.6564894 2.95238095,26.0638298 Z M48.7142857,35 L48.7142857,23.8297872 L51.6666667,23.8297872 L51.6666667,35 L48.7142857,35 Z M33.2142857,26.8085106 L33.952381,27.5531915 L34.6904762,27.5531915 C34.8469524,27.6924468 35.580619,28.0819149 36.1666667,28.2978723 C36.0810476,28.9993617 36.1888095,29.4953191 36.1666667,29.787234 L36.1666667,35 L33.2142857,35 L33.2142857,26.8085106 L33.2142857,26.8085106 Z M33.2142857,26.0638298 L36.1666667,27.5531915 L36.1666667,24.5744681 L33.2142857,24.5744681 L33.2142857,26.0638298 Z" id="Shape"></path>
                        </g>
                    </g>
                </g>
            </g>
        </g>
    </g>
</svg>