<?xml version="1.0" encoding="UTF-8"?>
<svg width="45px" height="33px" viewBox="0 0 45 33" version="1.1" xmlns="http://www.w3.org/2000/svg" xmlns:xlink="http://www.w3.org/1999/xlink">
    <!-- Generator: Sketch 63.1 (92452) - https://sketch.com -->
    <title>logo-mcdonalds</title>
    <desc>Created with Sketch.</desc>
    <g id="Demo-Landing-v3" stroke="none" stroke-width="1" fill="none" fill-rule="evenodd">
        <g id="Demo-Landing---Global---Full-Size" transform="translate(-170.000000, -847.000000)" fill="#5B5E6D">
            <g id="Customers" transform="translate(0.000000, 626.000000)">
                <g id="Logos" transform="translate(150.000000, 156.000000)">
                    <g id="Row-2" transform="translate(20.000000, 63.000000)">
                        <g id="logo-mcdonalds" transform="translate(0.000000, 2.000000)">
                            <path d="M32.1366006,2.38428044 C35.9585004,2.38428044 39.0586681,15.8316129 39.0586681,32.439 L44.6356893,32.439 C44.6356893,14.559383 39.0094591,0.0860588235 32.1201976,0.0860588235 C28.1834767,0.0860588235 24.70604,4.42258413 22.4096195,11.2351696 C20.113199,4.42258413 16.6357622,0.0860588235 12.7318473,0.0860588235 C5.84258584,0.0860588235 0.232758621,14.5457031 0.232758621,32.4253201 L5.80977984,32.4253201 C5.80977984,15.817933 8.8771415,2.38428044 12.6990413,2.38428044 C16.5209412,2.38428044 19.6211088,14.8056211 19.6211088,30.1270985 L25.1653241,30.1270985 C25.1653241,14.8056211 28.2818947,2.38428044 32.1037946,2.38428044" id="Path"></path>
                        </g>
                    </g>
                </g>
            </g>
        </g>
    </g>
</svg>