<?xml version="1.0" encoding="UTF-8"?>
<svg width="130px" height="53px" viewBox="0 0 130 53" version="1.1" xmlns="http://www.w3.org/2000/svg" xmlns:xlink="http://www.w3.org/1999/xlink">
    <!-- Generator: Sketch 54.1 (76490) - https://sketchapp.com -->
    <title>logo-business-insider</title>
    <desc>Created with Sketch.</desc>
    <g id="Page-1" stroke="none" stroke-width="1" fill="none" fill-rule="evenodd">
        <g id="Artboard" transform="translate(-1232.000000, -253.000000)" fill="#2E2E2E">
            <g id="logo-business-insider" transform="translate(1232.000000, 253.000000)">
                <path d="M4.49637097,39.3180135 C4.49709059,34.9586034 4.49709059,34.1548076 4.4402404,33.2375347 C4.38339021,32.2620685 4.09985889,31.7746991 3.47522643,31.631398 C3.1629102,31.5448353 2.7944634,31.5164661 2.45408189,31.5164661 C2.16983094,31.5164661 2,31.4590001 2,31.2298638 C2,31.0574659 2.22668113,31 2.68076302,31 C3.75875775,31 5.54630041,31.0865626 6.36954872,31.0865626 C7.07909665,31.0865626 8.75293893,31 9.83165328,31 C10.2001001,31 10.4275008,31.0574659 10.4275008,31.2298638 C10.4275008,31.4590001 10.2569503,31.5164661 9.97341894,31.5164661 C9.68916799,31.5164661 9.46248686,31.5448353 9.12210535,31.6030287 C8.35570723,31.7456024 8.12902609,32.2336992 8.0721759,33.2375347 C8.01532571,34.155535 8.01532571,34.9586034 8.01532571,39.3180135 L8.01532571,44.3662875 C8.01532571,47.1486576 8.01532571,49.4145616 8.12830647,50.6482608 C8.21394156,51.4222325 8.41255742,51.9386986 9.26387101,52.0536305 C9.66110271,52.1110964 10.2850155,52.1678349 10.7110322,52.1678349 C11.0233484,52.1678349 11.165114,52.2543976 11.165114,52.3976987 C11.165114,52.5984658 10.9377133,52.684301 10.6261167,52.684301 C8.75293893,52.684301 6.96539627,52.5984658 6.19899815,52.5984658 C5.54630041,52.5984658 3.75875775,52.684301 2.62391284,52.684301 C2.25474642,52.684301 2.05613057,52.5984658 2.05613057,52.3976987 C2.05613057,52.2543976 2.16983094,52.1678349 2.51021246,52.1678349 C2.93622906,52.1678349 3.27661058,52.110369 3.53207662,52.0536305 C4.09913926,51.9386986 4.26968983,51.4513292 4.3546053,50.6191641 C4.49637097,49.4145616 4.49637097,47.1486576 4.49637097,44.3662875 L4.49637097,39.3180135 Z M18.9399171,49.3570956 C18.9967673,51.2505621 19.3083639,51.8237667 19.7912307,51.9961645 C20.2165277,52.1394657 20.6993945,52.1678349 21.0966262,52.1678349 C21.3801575,52.1678349 21.5219232,52.2827668 21.5219232,52.426068 C21.5219232,52.6275625 21.2952421,52.684301 20.9548605,52.684301 C19.3371488,52.684301 18.173519,52.5984658 17.7194371,52.5984658 C17.492756,52.5984658 16.3010609,52.684301 15.0237307,52.684301 C14.6833492,52.684301 14.456668,52.6559318 14.456668,52.426068 C14.456668,52.2827668 14.626499,52.1678349 14.8538997,52.1678349 C15.1942812,52.1678349 15.6483631,52.1394657 15.9887447,52.0536305 C16.6414424,51.8812326 16.7263579,51.2221928 16.7551428,49.09959 L16.9818239,34.6429044 C16.9818239,34.155535 17.1523745,33.8114667 17.4078405,33.8114667 C17.7194371,33.8114667 18.0605383,34.1839042 18.4858352,34.6138077 C18.7981515,34.9295067 22.5437874,38.8015474 26.1757229,42.3869858 C27.87835,44.0796852 31.1986889,47.5210951 31.5671357,47.8658908 L31.6801165,47.8658908 L31.4253701,37.0230128 C31.3965852,35.531808 31.169904,35.1019045 30.5740565,34.8720407 C30.2048901,34.7287396 29.6090425,34.7287396 29.268661,34.7287396 C28.9563448,34.7287396 28.8714293,34.6138077 28.8714293,34.4705065 C28.8714293,34.2697395 29.1268953,34.2413702 29.4953421,34.2413702 C30.8007376,34.2413702 32.1341984,34.2988361 32.6739154,34.2988361 C32.9574467,34.2988361 33.8936758,34.2413702 35.1141558,34.2413702 C35.4545373,34.2413702 35.681938,34.2697395 35.681938,34.4705065 C35.681938,34.6138077 35.5394527,34.7287396 35.2559214,34.7287396 C35.0004554,34.7287396 34.8018395,34.7287396 34.4895233,34.8145748 C33.8087603,35.0160693 33.6101444,35.4459728 33.5813595,36.8229732 L33.2978282,52.1969316 C33.2978282,52.741767 33.0992124,52.9716307 32.9005965,52.9716307 C32.4752995,52.9716307 32.1341984,52.7133977 31.8787323,52.4551647 C30.3185904,50.9923291 27.1968674,47.9800952 24.5860764,45.4275889 C21.8623047,42.78852 19.2234485,39.8344796 18.7405817,39.4038487 L18.6556662,39.4038487 L18.9399171,49.3570956 Z M41.0719117,52.3693295 C40.67468,52.1969316 40.5897645,52.0819997 40.5897645,51.5371644 C40.5897645,50.2176299 40.7027452,48.6980558 40.7315302,48.2957942 C40.7315302,47.9233567 40.8445109,47.6651237 41.0431268,47.6651237 C41.2705275,47.6651237 41.2985928,47.89426 41.2985928,48.0666578 C41.2985928,48.3823568 41.3842279,48.8980955 41.5259936,49.3287264 C42.0649909,51.1356302 43.9374491,51.7379315 45.4983106,51.7379315 C47.6550196,51.7379315 48.9604151,50.3609311 48.9604151,48.6398625 C48.9604151,47.5792885 48.7049491,46.517987 46.4921095,45.1984526 L45.0442287,44.3379183 C42.0930562,42.5877529 41.1287619,40.9532469 41.1287619,38.8015474 C41.1287619,35.8184103 43.966234,33.8973019 47.4276189,33.8973019 C49.0453306,33.8973019 50.3219412,34.1264383 50.9753585,34.2988361 C51.2020397,34.3563021 51.3157401,34.4421373 51.3157401,34.6138077 C51.3157401,34.9295067 51.230105,35.6176432 51.230105,37.5394789 C51.230105,38.055945 51.1171242,38.314178 50.9177887,38.314178 C50.7479578,38.314178 50.6623227,38.1708769 50.6623227,37.8842746 C50.6623227,37.6544108 50.5493419,36.9088084 50.009625,36.2774104 C49.6411782,35.8184103 48.8467148,35.1302738 47.229003,35.1302738 C45.4414604,35.1302738 43.8237487,36.0766433 43.8237487,37.740246 C43.8237487,38.8306441 44.2209804,39.6911784 46.4626049,40.9532469 L47.4844691,41.5271789 C50.7760231,43.3624521 51.7971676,45.2268218 51.7971676,47.4352599 C51.7971676,49.2428912 51.1164046,50.7057268 49.3007966,51.9961645 C48.1091015,52.8566988 46.4626049,53 45.1291442,53 C43.6827026,53 42.150626,52.8566988 41.0719117,52.3693295 Z M58.3802756,41.2973152 C58.3809952,37.5969448 58.3809952,36.9088084 58.3529299,36.1341092 C58.2960797,35.3026716 58.0406137,35.0153419 57.5008967,34.8436715 C57.2173654,34.7571088 56.9050492,34.7287396 56.5934526,34.7287396 C56.3379865,34.7287396 56.1962209,34.6712736 56.1962209,34.4421373 C56.1962209,34.2988361 56.3941171,34.2413702 56.7920684,34.2413702 C57.7282975,34.2413702 59.4309247,34.2988361 60.1404726,34.2988361 C60.7643854,34.2988361 62.3820971,34.2413702 63.3463915,34.2413702 C63.6587077,34.2413702 63.8573236,34.2988361 63.8573236,34.4421373 C63.8573236,34.6712736 63.7155579,34.7287396 63.4600919,34.7287396 C63.2046258,34.7287396 63.0067296,34.7578363 62.7224787,34.8145748 C62.0417156,34.9295067 61.8430998,35.2735749 61.7862496,36.1341092 C61.7293994,36.9088084 61.7293994,37.5969448 61.7293994,41.2973152 L61.7293994,45.5999868 C61.7293994,47.9524534 61.7293994,49.9026584 61.8423802,50.9355905 C61.9280152,51.5953578 62.0985658,51.9677953 62.836179,52.0819997 C63.1765605,52.1401931 63.7443428,52.1685624 64.1127896,52.1685624 C64.3963209,52.1685624 64.5100213,52.3118635 64.5100213,52.4267954 C64.5100213,52.5984658 64.3114055,52.6850284 64.0278741,52.6850284 C62.3820971,52.6850284 60.67947,52.5984658 59.9979873,52.5984658 C59.4309247,52.5984658 57.7282975,52.6850284 56.7352182,52.6850284 C56.422902,52.6850284 56.2523514,52.5984658 56.2523514,52.4267954 C56.2523514,52.3118635 56.3379865,52.1685624 56.6503027,52.1685624 C57.0187495,52.1685624 57.3022809,52.1401931 57.5296816,52.0819997 C58.0406137,51.9677953 58.1823794,51.623727 58.2672948,50.9064939 C58.3802756,49.9026584 58.3802756,47.9524534 58.3802756,45.5999868 L58.3802756,41.2973152 Z M74.4695988,43.9931226 C74.4695988,46.5747256 74.4983837,48.4390954 74.5264489,48.9271922 C74.5545142,49.5294935 74.612084,50.3900278 74.8106999,50.6482608 C75.1222965,51.1072609 76.1153757,51.6229996 78.073469,51.6229996 C80.3431588,51.6229996 82.0177207,51.2221928 83.521732,49.9593969 C85.1387241,48.6114932 85.6503758,46.4314244 85.6503758,43.9072874 C85.6503758,40.8099458 84.4298958,38.8015474 83.3231162,37.8268086 C81.0246415,35.7616717 78.3001501,35.5034387 76.3427765,35.5034387 C75.8318444,35.5034387 75.0085961,35.5609046 74.8099803,35.6751091 C74.5832991,35.7616717 74.497664,35.8766036 74.497664,36.1632059 C74.4695988,36.995371 74.4695988,39.0030419 74.4695988,40.9241502 L74.4695988,43.9931226 Z M71.1211946,41.2973152 C71.1211946,37.5969448 71.1211946,36.9088084 71.0924097,36.1341092 C71.0362791,35.3026716 70.8088783,35.0444386 70.0144149,34.8145748 C69.8157991,34.7571088 69.3905021,34.7287396 69.0213357,34.7287396 C68.7658696,34.7287396 68.5960387,34.6429044 68.5960387,34.4705065 C68.5960387,34.2981087 68.7946546,34.2406428 69.1631013,34.2406428 C70.4692165,34.2406428 72.0574236,34.2981087 72.7669716,34.2981087 C73.5333697,34.2981087 75.3209123,34.2406428 76.8249237,34.2406428 C79.9466467,34.2406428 84.1456449,34.2406428 86.8701362,37.0230128 C88.1186815,38.2858088 89.2254611,40.321849 89.2254611,43.2191509 C89.2254611,46.2881233 87.9200657,48.6114932 86.5009698,50.0168628 C85.3661249,51.1639995 82.7272686,52.8850681 78.1303192,52.8850681 C77.2221554,52.8850681 76.1441607,52.7992329 75.1510814,52.741767 C74.1572825,52.6552043 73.2491187,52.5984658 72.6252059,52.5984658 C72.340955,52.5984658 71.8019576,52.6268351 71.2068297,52.6268351 C70.6109821,52.6552043 69.9863497,52.684301 69.4754176,52.684301 C69.1631013,52.684301 68.9932704,52.5984658 68.9932704,52.426068 C68.9932704,52.3118635 69.0781859,52.1678349 69.3905021,52.1678349 C69.7589489,52.1678349 70.0431998,52.1394657 70.269881,52.0819997 C70.7808131,51.9670678 70.9225787,51.5087951 71.0074942,50.7908345 C71.1211946,49.7586298 71.1211946,47.8367941 71.1211946,45.5992594 L71.1211946,41.2973152 Z M95.608514,41.2973152 C95.608514,37.5969448 95.608514,36.9088084 95.5804488,36.1341092 C95.5235986,35.3026716 95.2969174,35.0444386 94.502454,34.8145748 C94.3038382,34.7571088 93.8778216,34.7287396 93.5086551,34.7287396 C93.2539087,34.7287396 93.0833582,34.6429044 93.0833582,34.4705065 C93.0833582,34.2981087 93.281974,34.2406428 93.6511404,34.2406428 C94.9558163,34.2406428 96.5447431,34.2981087 97.2550107,34.2981087 C98.0487544,34.2981087 103.582653,34.3272054 104.0648,34.2981087 C104.518882,34.2697395 104.916113,34.1839042 105.114729,34.1548076 C105.256495,34.1264383 105.398261,34.0406031 105.511961,34.0406031 C105.653727,34.0406031 105.682511,34.1548076 105.682511,34.2697395 C105.682511,34.4421373 105.540746,34.7287396 105.483896,35.8475069 C105.455111,36.10574 105.398261,37.1670414 105.34213,37.4536437 C105.313345,37.5685756 105.256495,37.8551779 105.057879,37.8551779 C104.888048,37.8551779 104.859263,37.740246 104.859263,37.5394789 C104.859263,37.3678085 104.830478,36.9371776 104.689432,36.6505753 C104.490097,36.2199445 104.292201,35.8766036 103.043655,35.7609443 C102.617639,35.7034784 99.6384009,35.6467398 99.1274688,35.6467398 C99.0137684,35.6467398 98.9576378,35.7325751 98.9576378,35.8766036 L98.9576378,41.8996165 C98.9576378,42.0429176 98.9857031,42.1578495 99.1274688,42.1578495 C99.6952511,42.1578495 102.929955,42.1578495 103.497737,42.1003835 C104.092865,42.0429176 104.462031,41.9854517 104.689432,41.727946 C104.888048,41.5555482 104.972964,41.4122471 105.086664,41.4122471 C105.200364,41.4122471 105.28528,41.5271789 105.28528,41.6704801 C105.28528,41.8137812 105.22843,42.214588 105.086664,43.4482873 C105.029814,43.9363841 104.972964,44.9118503 104.972964,45.0835207 C104.972964,45.2842878 104.944898,45.628356 104.717498,45.628356 C104.547667,45.628356 104.490097,45.5425208 104.490097,45.4275889 C104.462031,45.1700833 104.462031,44.8543843 104.405181,44.5386854 C104.263416,44.0505885 103.951099,43.678151 103.01487,43.5915884 C102.561508,43.5348499 99.7233163,43.4773839 99.0994035,43.4773839 C98.9857031,43.4773839 98.9576378,43.5915884 98.9576378,43.735617 L98.9576378,45.685822 C98.9576378,46.517987 98.9288529,48.5831239 98.9576378,49.2996297 C99.014488,50.9632324 99.7801665,51.3363973 102.334107,51.3363973 C102.986805,51.3363973 104.036734,51.3073006 104.689432,51.0206983 C105.313345,50.734096 105.597596,50.2176299 105.767427,49.2137945 C105.824277,48.9555614 105.881127,48.841357 106.051678,48.841357 C106.249574,48.841357 106.278359,49.1563285 106.278359,49.4145616 C106.278359,49.9593969 106.079743,51.6229996 105.937978,52.110369 C105.767427,52.741767 105.540746,52.741767 104.604517,52.741767 C102.731339,52.741767 101.227328,52.7133977 100.007567,52.6552043 C98.7870873,52.6268351 97.8508582,52.5984658 97.113245,52.5984658 C96.828994,52.5984658 96.2899967,52.6268351 95.6948688,52.6268351 C95.0990212,52.6552043 94.4743887,52.684301 93.9634567,52.684301 C93.6511404,52.684301 93.4813095,52.5984658 93.4813095,52.426068 C93.4813095,52.3111361 93.566225,52.1678349 93.8778216,52.1678349 C94.246988,52.1678349 94.5312389,52.1394657 94.7579201,52.0819997 C95.2688521,51.9670678 95.4106178,51.5080677 95.4955333,50.7908345 C95.6092337,49.7586298 95.6092337,47.8367941 95.6092337,45.5992594 L95.608514,41.2973152 Z M115.75507,43.1907816 C115.75507,43.4482873 115.81192,43.5348499 115.98247,43.6206851 C116.521468,43.7930829 117.259081,43.8498215 117.883713,43.8498215 C118.876793,43.8498215 119.217174,43.7639862 119.642471,43.4482873 C120.408869,42.9034519 121.260183,41.8421505 121.260183,39.8344796 C121.260183,36.3923423 118.932923,35.5034387 117.457697,35.5034387 C116.833784,35.5034387 116.237217,35.531808 115.98247,35.5892739 C115.81192,35.6467398 115.75507,35.7325751 115.75507,35.9333422 L115.75507,43.1907816 Z M112.577216,41.2973152 C112.577216,37.5969448 112.577216,36.9088084 112.548431,36.1341092 C112.492301,35.3026716 112.2649,35.0444386 111.470436,34.8145748 C111.271821,34.7571088 110.846524,34.7287396 110.477357,34.7287396 C110.221891,34.7287396 110.05206,34.6429044 110.05206,34.4705065 C110.05206,34.2981087 110.250676,34.2406428 110.619123,34.2406428 C111.924518,34.2406428 113.513445,34.2981087 114.024377,34.2981087 C114.875691,34.2981087 117.145381,34.2406428 117.911779,34.2406428 C119.500706,34.2406428 121.317033,34.3846713 122.650494,35.2735749 C123.360042,35.7609443 124.409971,36.9946436 124.409971,38.629877 C124.409971,40.4367808 123.388107,42.0429176 120.947867,44.0222193 C123.161426,46.7754927 124.920184,48.9846581 126.424915,50.5042322 C127.815226,51.9096019 128.694605,52.0245338 129.091836,52.110369 C129.347302,52.1678349 129.489068,52.1678349 129.687684,52.1678349 C129.8863,52.1678349 130,52.3111361 130,52.426068 C130,52.6268351 129.829449,52.684301 129.517853,52.684301 L127.133743,52.684301 C125.743432,52.684301 125.062669,52.5409999 124.409971,52.1969316 C123.331257,51.6520963 122.395028,50.5042322 121.004717,48.6114932 C120.011638,47.2919587 118.961708,45.6567253 118.649392,45.2842878 C118.507626,45.1409866 118.365141,45.11189 118.19531,45.11189 L115.953686,45.054424 C115.839985,45.054424 115.75507,45.11189 115.75507,45.2551911 L115.75507,45.5992594 C115.75507,47.8651633 115.783135,49.7586298 115.896835,50.7908345 C115.98247,51.5087951 116.095451,51.9670678 116.861849,52.0819997 C117.230296,52.1394657 117.770013,52.1678349 118.08161,52.1678349 C118.280226,52.1678349 118.393926,52.3111361 118.393926,52.426068 C118.393926,52.5984658 118.19531,52.684301 117.882994,52.684301 C116.435833,52.684301 114.364039,52.5984658 113.995592,52.5984658 C113.513445,52.5984658 111.924518,52.684301 110.930719,52.684301 C110.619123,52.684301 110.448572,52.5984658 110.448572,52.426068 C110.448572,52.3118635 110.534207,52.1678349 110.845804,52.1678349 C111.21497,52.1678349 111.498502,52.1394657 111.725902,52.0819997 C112.236835,51.9670678 112.377881,51.5087951 112.463516,50.7908345 C112.576496,49.7586298 112.576496,47.8367941 112.576496,45.5992594 L112.577216,41.2973152 Z" id="Fill-16"></path>
                <path d="M10.033904,11.101111 C9.43773769,10.6704801 8.78318026,10.469713 7.67446956,10.4122471 C7.1633669,10.3838778 6.87934088,10.3838778 6.45258097,10.3838778 C6.33868221,10.3838778 6.28245371,10.4406163 6.28245371,10.5839175 L6.28245371,17.3823568 C6.28245371,19.2758233 6.36751734,19.7631927 7.27654478,20.1356302 C8.04428009,20.4513292 8.69811663,20.4804259 9.35195318,20.4804259 C10.631512,20.4804259 12.7912632,19.791562 12.7912632,16.8084248 C12.7912632,15.0298902 12.194376,12.6206851 10.033904,11.101111 Z M6.28245371,8.8061103 C6.28245371,9.03597408 6.36751734,9.0927126 6.4814161,9.12180928 C6.73732787,9.17927523 7.1633669,9.20764449 7.81720345,9.20764449 C8.75506601,9.20764449 9.38078831,9.0927126 9.86377672,8.66280915 C10.6026769,8.06050787 11.0287159,7.02830313 11.0287159,5.62220606 C11.0287159,3.70037032 9.9207261,1.1762333 7.47622805,1.1762333 C7.07758239,1.1762333 6.82167062,1.1762333 6.5376446,1.23369925 C6.33868221,1.29116519 6.28173283,1.40609708 6.28173283,1.72179606 L6.28245371,8.8061103 Z M2.87053708,8.31874091 C2.87125796,3.95860336 2.87125796,3.15553498 2.81430858,2.23753472 C2.7573592,1.26279593 2.52956168,0.803795794 1.59169912,0.6030287 C1.36462248,0.545562756 0.880913188,0.516466076 0.482988409,0.516466076 C0.170848139,0.516466076 0,0.459000132 0,0.258233038 C0,0.0574659437 0.198962389,0.000727417008 0.625722297,0 C2.1316369,0 3.92301929,0.086562624 4.49107133,0.086562624 C5.88380805,0.086562624 6.99251876,0 7.95921646,0.000727417008 C13.1041243,0.000727417008 14.0138726,2.78237006 14.0138726,4.3026716 C14.0138726,6.65513821 12.6773644,8.05978045 11.1145004,9.32257638 C13.4450997,10.1256448 16.2875226,12.1624124 16.2875226,15.517987 C16.2875226,18.5869594 13.928809,21.7708636 8.69811663,21.7708636 C8.35714124,21.7708636 7.53245655,21.7133977 6.70849274,21.6850284 C5.8556938,21.6275625 5.00289487,21.5984658 4.57613496,21.5984658 C4.26327381,21.5984658 3.63827239,21.5984658 2.95632159,21.6275625 C2.30248504,21.6275625 1.56358486,21.6850284 0.994811947,21.6850284 C0.625001419,21.6850284 0.42603903,21.5984658 0.42603903,21.3976987 C0.42603903,21.2543976 0.539937789,21.1685624 0.880913188,21.1685624 C1.3076731,21.1685624 1.6486485,21.1110964 1.90456026,21.0536305 C2.4726123,20.9386986 2.61534619,20.308028 2.72852407,19.475863 C2.87053708,18.2712604 2.87053708,16.0053564 2.87053708,13.3662875 L2.87053708,8.31874091 Z M20.1240365,10.2973152 C20.1240365,6.59767227 20.1528716,5.90880836 20.0959222,5.13483666 C20.0389728,4.27430234 19.8111753,4.04443857 19.0153258,3.81530221 C18.8163634,3.75783627 18.3903243,3.72873958 18.0493489,3.72873958 C17.764602,3.72873958 17.622589,3.64290438 17.622589,3.47123396 C17.622589,3.29883613 17.7934372,3.24137019 18.1625268,3.24137019 C19.499035,3.24137019 21.1757978,3.29883613 21.914698,3.29883613 C22.5404203,3.29883613 24.217183,3.24137019 25.1269313,3.24137019 C25.4967419,3.24137019 25.6668691,3.29883613 25.6668691,3.47123396 C25.6668691,3.64290438 25.5248561,3.72873958 25.2689443,3.72873958 C24.9849183,3.72873958 24.8429053,3.75783627 24.5300442,3.81530221 C23.8762076,3.9302341 23.6772452,4.27430234 23.6202958,5.13483666 C23.5633465,5.90880836 23.5633465,6.59767227 23.5633465,10.2973152 L23.5633465,13.7110832 C23.5633465,17.2674249 24.2460181,18.6444253 25.4679067,19.6198915 C26.5766174,20.5087951 27.7703918,20.5946303 28.6231907,20.5946303 C29.7030663,20.5946303 30.9826251,20.2789314 31.9774371,19.3041926 C33.3701738,17.9846581 33.4271232,15.8620553 33.4271232,13.3670149 L33.4271232,10.2973152 C33.4271232,6.59767227 33.3990089,5.90880836 33.3701738,5.13483666 C33.3132244,4.3026716 33.114262,4.04443857 32.3184125,3.81530221 C32.1194501,3.75783627 31.6934111,3.72873958 31.4086642,3.72873958 C31.1246381,3.72873958 30.9826251,3.64290438 30.9826251,3.47123396 C30.9826251,3.29883613 31.1534733,3.24137019 31.4944487,3.24137019 C32.7732866,3.24137019 34.4507703,3.29883613 34.4788845,3.29883613 C34.7636314,3.29883613 36.4403942,3.24137019 37.406371,3.24137019 C37.7480673,3.24137019 37.9189154,3.29883613 37.9189154,3.47123396 C37.9189154,3.64290438 37.7761815,3.72873958 37.4921555,3.72873958 C37.2081295,3.72873958 37.0653956,3.75783627 36.7532553,3.81530221 C36.0705836,3.9302341 35.9004564,4.27430234 35.843507,5.13483666 C35.8153927,5.90880836 35.7865576,6.59767227 35.7865576,10.2973152 L35.7865576,12.9080148 C35.7865576,15.6329189 35.5025316,18.5011242 33.3990089,20.2505621 C31.6364617,21.7424944 29.7319014,22 28.1113672,22 C26.8036941,22 24.217183,21.9432615 22.3984073,20.3371247 C21.1188484,19.2176299 20.1240365,17.4114535 20.1240365,13.883481 L20.1240365,10.2973152 Z M40.2487938,21.3693295 C39.8501481,21.1969316 39.7650845,21.0819997 39.7650845,20.5371644 C39.7650845,19.2176299 39.8789833,17.6980558 39.9070975,17.2965216 C39.9070975,16.9233567 40.0209963,16.6651237 40.2199587,16.6651237 C40.4477562,16.6651237 40.4758704,16.89426 40.4758704,17.0666578 C40.4758704,17.3823568 40.5609341,17.8980955 40.703668,18.3287264 C41.2436058,20.1356302 43.1193309,20.7379315 44.6829158,20.7379315 C46.8433878,20.7379315 48.1510609,19.3616585 48.1510609,17.6405899 C48.1510609,16.5792885 47.8951491,15.517987 45.6777277,14.1984526 L44.2280416,13.3379183 C41.27172,11.5884804 40.3057432,9.95324693 40.3057432,7.80227483 C40.3057432,4.81913768 43.148166,2.89730194 46.6155903,2.89730194 C48.2361245,2.89730194 49.5156834,3.1264383 50.168799,3.29883613 C50.3965965,3.35630208 50.5097744,3.44213728 50.5097744,3.61453511 C50.5097744,3.9302341 50.4247108,4.61837059 50.4247108,6.54020632 C50.4247108,7.05594498 50.3115329,7.31417802 50.1118496,7.31417802 C49.9417224,7.31417802 49.8566588,7.17087687 49.8566588,6.88427457 C49.8566588,6.65441079 49.74276,5.90880836 49.2021013,5.27813781 C48.8330117,4.81913768 48.0371621,4.13100119 46.4166279,4.13100119 C44.6259664,4.13100119 43.0054321,5.0766433 43.0054321,6.740246 C43.0054321,7.83064409 43.4033569,8.69117842 45.6488926,9.95324693 L46.6725396,10.5264515 C49.9698366,12.3624521 50.9934837,14.2268218 50.9934837,16.4359873 C50.9934837,18.2421637 50.310812,19.7057268 48.4920363,20.9961645 C47.2975411,21.8566988 45.6488926,22 44.3131052,22 C42.8634191,22 41.3286694,21.8574263 40.2487938,21.3693295 Z M55.1998081,10.2973152 C55.1998081,6.59767227 55.1998081,5.90880836 55.1716939,5.13483666 C55.1147445,4.3026716 54.8588327,4.0160693 54.318895,3.84367147 C54.0348689,3.75783627 53.7220078,3.729467 53.4091466,3.729467 C53.1532349,3.729467 53.0112219,3.67200106 53.0112219,3.44213728 C53.0112219,3.29883613 53.2101842,3.24137019 53.608109,3.24137019 C54.5466925,3.24137019 56.2515695,3.29883613 56.9623554,3.29883613 C57.5880777,3.29883613 59.2078911,3.24137019 60.1745888,3.24137019 C60.486729,3.24137019 60.6864123,3.29883613 60.6864123,3.44213728 C60.6864123,3.67200106 60.5443993,3.729467 60.2884875,3.729467 C60.0325757,3.729467 59.8336134,3.75783627 59.5495873,3.81530221 C58.8669157,3.9302341 58.6679533,4.27430234 58.6110039,5.13483666 C58.5547754,5.90880836 58.5547754,6.59767227 58.5547754,10.2980426 L58.5547754,14.5999868 C58.5547754,16.9524534 58.5547754,18.9026584 58.6679533,19.9355905 C58.7530169,20.5953578 58.923865,20.9677953 59.6627652,21.0827272 C60.0037406,21.1401931 60.5725135,21.1692898 60.9416032,21.1692898 C61.2263501,21.1692898 61.339528,21.3125909 61.339528,21.4275228 C61.339528,21.5991932 61.1405656,21.6850284 60.8565396,21.6850284 C59.2078911,21.6850284 57.5022932,21.5991932 56.8203424,21.5991932 C56.2515695,21.5991932 54.5459716,21.6850284 53.5511596,21.6850284 C53.2382985,21.6850284 53.0681712,21.5991932 53.0681712,21.4275228 C53.0681712,21.3125909 53.1532349,21.1692898 53.466096,21.1692898 C53.8351857,21.1692898 54.1199326,21.1401931 54.3470092,21.0827272 C54.8588327,20.9677953 55.0008458,20.623727 55.0859094,19.9072213 C55.1998081,18.9026584 55.1998081,16.9524534 55.1998081,14.6007142 L55.1998081,10.2973152 Z M67.1382724,18.357823 C67.1952218,20.2505621 67.5080829,20.8244941 67.9910713,20.9961645 C68.4178312,21.1394657 68.9008196,21.1685624 69.2987444,21.1685624 C69.5827704,21.1685624 69.7247835,21.2834942 69.7247835,21.4267954 C69.7247835,21.6275625 69.4977068,21.6850284 69.1567314,21.6850284 C67.5361972,21.6850284 66.3705371,21.5984658 65.9163838,21.5984658 C65.6885863,21.5984658 64.4948119,21.6850284 63.215974,21.6850284 C62.8742777,21.6850284 62.6472011,21.6559318 62.6472011,21.4267954 C62.6472011,21.2834942 62.8180492,21.1685624 63.0451258,21.1685624 C63.3861012,21.1685624 63.8409754,21.1394657 64.1826717,21.0536305 C64.8357873,20.8819601 64.920851,20.2221928 64.9496861,18.09959 L65.1774836,3.64290438 C65.1774836,3.15553498 65.3476109,2.81073932 65.6035227,2.81073932 C65.9163838,2.81073932 66.2573592,3.18390425 66.6833982,3.61453511 C66.9962594,3.9302341 70.7484305,7.80227483 74.3867029,11.3877133 C76.0923008,13.0796852 79.4184329,16.5218225 79.7875226,16.8658908 L79.9014213,16.8658908 L79.6455096,6.02374025 C79.6173953,4.53180796 79.3895978,4.10190451 78.7927106,3.87204074 C78.423621,3.72873958 77.8260129,3.72873958 77.4850375,3.72873958 C77.1721764,3.72873958 77.0871127,3.61453511 77.0871127,3.47123396 C77.0871127,3.26973945 77.3430245,3.24137019 77.7121142,3.24137019 C79.0205081,3.24137019 80.3562955,3.29883613 80.8962333,3.29883613 C81.1802593,3.29883613 82.1181219,3.24137019 83.3407313,3.24137019 C83.6824276,3.24137019 83.9087834,3.26973945 83.9087834,3.47123396 C83.9087834,3.61453511 83.7667704,3.72873958 83.4827443,3.72873958 C83.2268326,3.72873958 83.0278702,3.72873958 82.715009,3.81530221 C82.0330582,4.0160693 81.8340958,4.44597275 81.8052607,5.82297315 L81.5212347,21.1969316 C81.5212347,21.741767 81.3222723,21.9716307 81.1233099,21.9716307 C80.6972709,21.9716307 80.3562955,21.7133977 80.1003837,21.4551647 C78.5367988,19.9923291 75.4096291,16.9808226 72.7950038,14.4275889 C70.0657589,11.7892475 67.4222984,8.83447957 66.93931,8.4038487 L66.8535255,8.4038487 L67.1382724,18.357823 Z M88.2859559,10.2973152 C88.2859559,6.59767227 88.2859559,5.90880836 88.2571208,5.13483666 C88.2008923,4.3026716 87.9730948,4.04443857 87.1772452,3.81530221 C86.9782828,3.75783627 86.5522438,3.72873958 86.1824333,3.72873958 C85.9265215,3.72873958 85.7563942,3.64290438 85.7563942,3.47123396 C85.7563942,3.29883613 85.9553566,3.24137019 86.3244463,3.24137019 C87.6321194,3.24137019 89.2238185,3.29883613 89.9346044,3.29883613 C90.730454,3.29883613 96.2732866,3.3272054 96.756275,3.29883613 C97.2111492,3.26973945 97.6097949,3.18390425 97.8080364,3.15553498 C97.9507703,3.1264383 98.0927833,3.04060309 98.2059612,3.04060309 C98.348695,3.04060309 98.3768093,3.15553498 98.3768093,3.26973945 C98.3768093,3.44213728 98.2347963,3.729467 98.1778469,4.84823436 C98.1497327,5.10573998 98.0920624,6.1670414 98.0358339,6.45437111 C98.0069988,6.56857559 97.9507703,6.8559053 97.7518079,6.8559053 C97.5809597,6.8559053 97.5521246,6.74097342 97.5521246,6.54020632 C97.5521246,6.36780849 97.5240104,5.93790504 97.3819973,5.65057532 C97.1823141,5.22067187 96.9840726,4.87660362 95.7333488,4.76167174 C95.3073098,4.70420579 92.3221531,4.64673985 91.8103296,4.64673985 C91.6971517,4.64673985 91.6402023,4.73330247 91.6402023,4.87660362 L91.6402023,10.8996165 C91.6402023,11.043645 91.6683166,11.1578495 91.8103296,11.1578495 C92.3791025,11.1578495 95.6194501,11.1578495 96.188223,11.101111 C96.7851102,11.043645 97.1549207,10.9861791 97.3819973,10.727946 C97.5809597,10.5555482 97.6660234,10.4122471 97.7799221,10.4122471 C97.8938209,10.4122471 97.9788845,10.5271789 97.9788845,10.6704801 C97.9788845,10.8137812 97.9219351,11.2153154 97.7799221,12.4490147 C97.7229727,12.9371115 97.6660234,13.9118503 97.6660234,14.0842481 C97.6660234,14.2850152 97.6379091,14.6290835 97.4108325,14.6290835 C97.2399843,14.6290835 97.1823141,14.5425208 97.1823141,14.4283164 C97.1541998,14.1700833 97.1541998,13.8543843 97.0979713,13.5386854 C96.9559583,13.051316 96.6423763,12.678151 95.7045137,12.5923158 C95.2496396,12.5348499 92.4072167,12.4773839 91.7822153,12.4773839 C91.6683166,12.4773839 91.6402023,12.5923158 91.6402023,12.735617 L91.6402023,14.6865494 C91.6402023,15.517987 91.612088,17.5831239 91.6402023,18.3003571 C91.6971517,19.9639598 92.4641661,20.3371247 95.0225629,20.3371247 C95.6763995,20.3371247 96.7281608,20.308028 97.3819973,20.0214257 C98.0077196,19.734096 98.2917457,19.2183574 98.4618729,18.2145219 C98.5195432,17.9562889 98.5757717,17.841357 98.7466198,17.841357 C98.9455822,17.841357 98.9744173,18.1570559 98.9744173,18.4145616 C98.9744173,18.9601243 98.7747341,20.623727 98.6327211,21.1110964 C98.4625938,21.7424944 98.2347963,21.7424944 97.2969337,21.7424944 C95.4204877,21.7424944 93.9138522,21.7133977 92.6919636,21.6559318 C91.470075,21.6275625 90.5314916,21.5984658 89.7925914,21.5984658 C89.5078445,21.5984658 88.9679067,21.6275625 88.3717404,21.6275625 C87.7741324,21.6559318 87.149131,21.6850284 86.6373074,21.6850284 C86.3244463,21.6850284 86.154319,21.5984658 86.154319,21.4267954 C86.154319,21.3118635 86.2393827,21.1685624 86.5522438,21.1685624 C86.9213335,21.1685624 87.2060804,21.1394657 87.433157,21.0819997 C87.9449805,20.9677953 88.0869935,20.5087951 88.1720572,19.791562 C88.2859559,18.7586298 88.2859559,16.8375215 88.2859559,14.5999868 L88.2859559,10.2973152 Z M102.100145,21.3693295 C101.702221,21.1969316 101.616436,21.0819997 101.616436,20.5371644 C101.616436,19.2176299 101.730335,17.6980558 101.758449,17.2965216 C101.758449,16.9233567 101.872348,16.6651237 102.07131,16.6651237 C102.299108,16.6651237 102.327222,16.89426 102.327222,17.0666578 C102.327222,17.3823568 102.412286,17.8980955 102.555019,18.3287264 C103.094236,20.1356302 104.970682,20.7379315 106.534267,20.7379315 C108.694739,20.7379315 110.001692,19.3616585 110.001692,17.6405899 C110.001692,16.5792885 109.74578,15.517987 107.529079,14.1984526 L106.079393,13.3379183 C103.123072,11.5884804 102.156374,9.95324693 102.156374,7.80227483 C102.156374,4.81913768 104.999518,2.89730194 108.466942,2.89730194 C110.087476,2.89730194 111.366314,3.1264383 112.020151,3.29883613 C112.247948,3.35630208 112.361847,3.44213728 112.361847,3.61453511 C112.361847,3.9302341 112.276062,4.61837059 112.276062,6.54020632 C112.276062,7.05594498 112.162164,7.31417802 111.963201,7.31417802 C111.793074,7.31417802 111.707289,7.17087687 111.707289,6.88427457 C111.707289,6.65441079 111.594112,5.90880836 111.053453,5.27813781 C110.684363,4.81913768 109.888514,4.13100119 108.267979,4.13100119 C106.477318,4.13100119 104.856784,5.0766433 104.856784,6.740246 C104.856784,7.83064409 105.254708,8.69117842 107.500244,9.95324693 L108.52317,10.5264515 C111.821188,12.3624521 112.844114,14.2268218 112.844114,16.4359873 C112.844114,18.2421637 112.162164,19.7057268 110.342667,20.9961645 C109.148893,21.8566988 107.500244,22 106.164457,22 C104.714771,22 103.180021,21.8574263 102.100145,21.3693295 Z M116.25531,21.3693295 C115.857385,21.1969316 115.772322,21.0819997 115.772322,20.5371644 C115.772322,19.2176299 115.8855,17.6980558 115.914335,17.2965216 C115.914335,16.9233567 116.027513,16.6651237 116.227196,16.6651237 C116.454272,16.6651237 116.482387,16.89426 116.482387,17.0666578 C116.482387,17.3823568 116.568171,17.8980955 116.710184,18.3287264 C117.250122,20.1356302 119.125847,20.7379315 120.689432,20.7379315 C122.849904,20.7379315 124.157577,19.3616585 124.157577,17.6405899 C124.157577,16.5792885 123.901665,15.517987 121.684965,14.1984526 L120.234558,13.3379183 C117.278236,11.5884804 116.312259,9.95324693 116.312259,7.80227483 C116.312259,4.81913768 119.154682,2.89730194 122.622107,2.89730194 C124.242641,2.89730194 125.521479,3.1264383 126.176036,3.29883613 C126.403113,3.35630208 126.516291,3.44213728 126.516291,3.61453511 C126.516291,3.9302341 126.431227,4.61837059 126.431227,6.54020632 C126.431227,7.05594498 126.318049,7.31417802 126.118366,7.31417802 C125.947518,7.31417802 125.863175,7.17087687 125.863175,6.88427457 C125.863175,6.65441079 125.749276,5.90880836 125.209338,5.27813781 C124.839528,4.81913768 124.043678,4.13100119 122.423144,4.13100119 C120.632483,4.13100119 119.011948,5.0766433 119.011948,6.740246 C119.011948,7.83064409 119.409873,8.69117842 121.655409,9.95324693 L122.679056,10.5264515 C125.976353,12.3624521 127,14.2268218 127,16.4359873 C127,18.2421637 126.317328,19.7057268 124.497832,20.9961645 C123.304057,21.8566988 121.655409,22 120.319622,22 C118.869935,22 117.335186,21.8574263 116.25531,21.3693295 L116.25531,21.3693295 Z" id="Fill-17"></path>
            </g>
        </g>
    </g>
</svg>