<svg width="133" height="35" viewBox="0 0 133 35" fill="none" xmlns="http://www.w3.org/2000/svg">
<path fill-rule="evenodd" clip-rule="evenodd" d="M29.0758 9.892C29.2532 9.65275 29.4985 9.33198 29.7946 8.95083C30.0749 8.59056 30.3321 8.26297 30.5894 7.93739C30.6795 7.8234 30.7631 7.71782 30.8381 7.62331C30.8831 7.5667 30.9152 7.52629 30.932 7.50517C31.2039 7.1639 31.1824 6.67442 30.8817 6.35828L28.3842 3.7326C28.0621 3.39397 27.5306 3.36865 27.1778 3.67513C27.157 3.69322 27.157 3.69322 27.0619 3.77568C26.9692 3.85593 26.8658 3.94538 26.7543 4.04172C26.4356 4.31689 26.1154 4.59203 25.8147 4.84859C25.4448 5.16399 25.16 5.4044 24.9366 5.58947C23.6952 4.70899 22.195 4.09653 20.4758 3.71581C20.4481 3.47829 20.4154 3.1778 20.3788 2.8261C20.3703 2.74421 20.3616 2.6599 20.3527 2.57337C20.3129 2.18391 20.2715 1.76626 20.231 1.34855C20.2168 1.20232 20.2038 1.06654 20.1922 0.944717C20.1803 0.81952 20.1803 0.81952 20.1777 0.792035C20.1354 0.34308 19.7585 0 19.3075 0H15.7396C15.3 0 14.9289 0.326401 14.8727 0.762318C14.8692 0.789545 14.8692 0.789545 14.8532 0.913321C14.8376 1.03374 14.8201 1.16796 14.8011 1.31251C14.747 1.72541 14.6921 2.13827 14.6398 2.52332C14.6298 2.59734 14.6298 2.59734 14.6197 2.67117C14.5667 3.05942 14.5203 3.3899 14.4824 3.64754C12.7839 3.97198 11.2044 4.61156 9.85755 5.53528C9.63859 5.36401 9.35765 5.13535 9.03026 4.86289C8.65776 4.55207 8.34662 4.28856 8.03843 4.02499C7.93051 3.93269 7.8307 3.847 7.74148 3.77015C7.68811 3.72418 7.65 3.69127 7.63035 3.67425C7.28336 3.37378 6.76307 3.39292 6.4391 3.71807L3.94164 6.22461C3.63973 6.52762 3.60149 7.00461 3.85127 7.35185C3.86744 7.37433 3.86744 7.37433 3.94098 7.47674C4.01253 7.57641 4.09227 7.68766 4.17816 7.80765C4.4235 8.15041 4.66881 8.49449 4.8976 8.81729C5.18751 9.2265 5.41181 9.54598 5.5812 9.79129C4.60162 11.0996 3.90741 12.8039 3.69053 14.49C3.64306 14.4942 3.59323 14.4985 3.54114 14.5029C3.28297 14.5245 2.97489 14.5473 2.62776 14.5709C2.23419 14.5977 1.81186 14.6241 1.38945 14.6488C1.24153 14.6575 1.1042 14.6653 0.981007 14.6722C0.907249 14.6764 0.854481 14.6793 0.826952 14.6807C0.363211 14.7057 0 15.089 0 15.5535V19.1339C0 19.5815 0.338147 19.9567 0.783322 20.0032C0.811324 20.0061 0.864501 20.0117 0.939242 20.0197C1.06417 20.0331 1.20346 20.0483 1.35351 20.0649C1.78192 20.1125 2.2102 20.1623 2.6091 20.2118C2.83699 20.2402 3.04876 20.2676 3.24115 20.2939C3.43859 20.3209 3.61311 20.3463 3.76128 20.3698C3.99178 21.8545 4.63982 23.2678 5.69938 24.8595C5.51859 25.1017 5.26948 25.4224 4.96903 25.8012C4.6614 26.1883 4.39275 26.5221 4.12405 26.853C4.02996 26.9689 3.94261 27.0762 3.86426 27.1721C3.81736 27.2295 3.7838 27.2705 3.76634 27.2918C3.47641 27.6451 3.50766 28.1621 3.83804 28.478L6.33516 30.865C6.65067 31.1666 7.14034 31.1892 7.48228 30.918C7.50336 30.9012 7.54411 30.869 7.60121 30.8239C7.69663 30.7486 7.80335 30.6646 7.91873 30.5742C8.24822 30.3159 8.58076 30.0577 8.89498 29.8171C9.3654 29.4577 9.69367 29.2131 9.93775 29.0396C11.6953 30.1205 13.0584 30.7319 14.5251 30.9604C14.5304 31.011 14.5357 31.0645 14.5412 31.1208C14.5668 31.3838 14.5939 31.7004 14.6219 32.0586C14.6528 32.4539 14.6832 32.8782 14.7117 33.3026C14.7217 33.4512 14.7307 33.5891 14.7387 33.7129C14.7434 33.787 14.7467 33.84 14.7484 33.8675C14.7769 34.3284 15.159 34.6877 15.6208 34.6877H19.0696C19.5177 34.6877 19.8932 34.3488 19.939 33.903C19.9419 33.8752 19.9474 33.8221 19.9553 33.7476C19.9685 33.623 19.9835 33.4841 19.9999 33.3344C20.0469 32.9071 20.0964 32.4799 20.1458 32.0822C20.1779 31.8242 20.209 31.5872 20.2386 31.3759C20.2651 31.1871 20.2901 31.0213 20.3131 30.882C22.011 30.5022 23.5801 29.848 24.9486 28.9367C25.1802 29.1151 25.4826 29.3597 25.8374 29.6542C25.8826 29.6918 25.8826 29.6918 25.9279 29.7294C26.2332 29.9838 26.5558 30.2569 26.875 30.53C26.9867 30.6257 27.0901 30.7145 27.1824 30.7941C27.2376 30.8417 27.2768 30.8756 27.2973 30.8934C27.6505 31.1998 28.1822 31.174 28.5041 30.8349L30.8824 28.3287C31.1975 27.9966 31.203 27.4776 30.8949 27.1389C30.8769 27.1191 30.8426 27.0814 30.7944 27.028C30.7138 26.9389 30.6239 26.839 30.5271 26.731C30.2506 26.4225 29.9742 26.1105 29.7167 25.8148C29.6754 25.7674 29.6754 25.7674 29.6342 25.7199C29.3532 25.3958 29.1176 25.1168 28.9415 24.8982C29.8754 23.5985 30.5186 22.1283 30.871 20.4544C30.9694 20.4396 31.0808 20.4241 31.2039 20.4079C31.451 20.3754 31.7399 20.3412 32.062 20.3057C32.4621 20.2616 32.8917 20.2181 33.3214 20.177C33.472 20.1626 33.6117 20.1495 33.737 20.1381C33.812 20.1312 33.8653 20.1264 33.8933 20.124C34.3444 20.0841 34.6904 19.7063 34.6904 19.2534V15.4343C34.6904 14.9738 34.333 14.5922 33.8734 14.5622C33.8457 14.5604 33.7926 14.5569 33.7183 14.5518C33.5942 14.5435 33.4559 14.5339 33.3069 14.5234C32.8814 14.4934 32.4561 14.4615 32.0597 14.4294C31.7499 14.4043 31.4706 14.38 31.2298 14.3569C31.0964 14.3441 30.9762 14.3318 30.8704 14.3202C30.4206 12.6241 29.8681 11.2633 29.0758 9.892ZM31.8688 18.5683C31.5355 18.605 31.2349 18.6406 30.9744 18.6749C30.6663 18.7153 30.4179 18.7532 30.2318 18.7895C30.1127 18.8127 30.0147 18.8358 29.9289 18.8631C29.855 18.8865 29.7877 18.9132 29.7166 18.9521C29.6481 18.9896 29.5827 19.0349 29.517 19.0977C29.3884 19.2207 29.2887 19.3814 29.2527 19.5946C28.9438 21.4452 28.2583 22.9874 27.188 24.3141C26.9994 24.5472 26.9655 24.7914 27.0027 25.0217C27.0179 25.1155 27.0437 25.1929 27.0772 25.2687C27.1114 25.3459 27.1525 25.4172 27.2042 25.4961C27.2741 25.6029 27.3696 25.7316 27.4927 25.8875C27.6944 26.1429 27.9725 26.4739 28.3117 26.8651C28.3541 26.9139 28.3541 26.9139 28.3965 26.9627C28.608 27.2056 28.8313 27.4584 29.0568 27.7112L27.8065 29.0286C27.549 28.8093 27.2918 28.5922 27.0448 28.3865C26.9984 28.3479 26.9984 28.3479 26.952 28.3093C26.5496 27.9753 26.2095 27.701 25.948 27.5019C25.7896 27.3812 25.6593 27.2875 25.5528 27.2192C25.4762 27.1701 25.4076 27.1309 25.335 27.0982C25.2649 27.0667 25.194 27.0419 25.1083 27.0254C24.883 26.982 24.6476 27.0029 24.4048 27.1822C23.0029 28.2187 21.3116 28.9281 19.4432 29.2758C19.2206 29.3174 19.0607 29.425 18.9394 29.5612C18.8811 29.6266 18.8394 29.6908 18.8045 29.7579C18.7683 29.8275 18.7427 29.8944 18.7197 29.9689C18.6916 30.0594 18.6664 30.1663 18.6405 30.2971C18.599 30.5064 18.5543 30.7869 18.5057 31.1333C18.4747 31.3543 18.4425 31.6001 18.4094 31.8664C18.3666 32.2099 18.3241 32.5733 18.2831 32.9398H16.4371C16.4132 32.5923 16.3881 32.2482 16.3627 31.9224C16.3339 31.5541 16.3059 31.2271 16.2791 30.9518C16.2521 30.674 16.2267 30.4517 16.2021 30.2869C16.1865 30.182 16.1708 30.0963 16.1521 30.0214C16.1352 29.954 16.1158 29.8931 16.0856 29.8261C16.0481 29.7454 16.0481 29.7454 15.9529 29.6129C15.7913 29.4306 15.7913 29.4306 15.3372 29.2957C13.8293 29.1832 12.4553 28.5739 10.4142 27.2772C10.1607 27.1164 9.94541 27.1128 9.72849 27.1634C9.6553 27.1805 9.59432 27.203 9.53314 27.2307C9.46814 27.2602 9.40443 27.2955 9.33215 27.3396C9.22782 27.4034 9.0976 27.4913 8.93815 27.6043C8.67245 27.7927 8.32476 28.0517 7.91277 28.3663C7.87155 28.3978 7.87155 28.3978 7.8304 28.4293C7.55961 28.6366 7.27628 28.8562 6.993 29.0776L5.62734 27.7721C5.84968 27.4974 6.0699 27.2232 6.27821 26.9611C6.30744 26.9243 6.30744 26.9243 6.33665 26.8875C6.66387 26.475 6.93353 26.1274 7.12971 25.863C7.24692 25.705 7.33802 25.5767 7.40401 25.4751C7.44929 25.4054 7.48544 25.3445 7.51598 25.283C7.54531 25.2239 7.56942 25.1654 7.58903 25.0939C7.65468 24.8548 7.65721 24.6218 7.46183 24.3434C6.20587 22.5512 5.53968 21.0984 5.42951 19.6009C5.4098 19.3305 5.28798 19.1379 5.12704 18.9968C5.05692 18.9354 4.98936 18.8933 4.91822 18.8583C4.84831 18.8238 4.78147 18.7998 4.70607 18.7779C4.61406 18.7511 4.50323 18.7263 4.36616 18.7005C4.14454 18.6587 3.84534 18.6126 3.47599 18.5621C3.27603 18.5348 3.05734 18.5064 2.82279 18.4773C2.47835 18.4345 2.11374 18.3916 1.74609 18.3502V16.3787C2.08721 16.3581 2.4248 16.3367 2.74454 16.315C3.09999 16.2908 3.41666 16.2673 3.685 16.2448C3.96609 16.2213 4.19073 16.1992 4.35599 16.1782C4.45909 16.165 4.5426 16.152 4.61398 16.1367C4.67691 16.1232 4.73326 16.1079 4.79555 16.0838C4.87135 16.0538 4.87135 16.0538 5.00522 15.9707C5.20608 15.8236 5.20608 15.8236 5.37138 15.2958C5.45002 13.5512 6.22212 11.659 7.3123 10.4289C7.66683 10.0271 7.63443 9.89165 7.45515 9.48477C7.43762 9.445 7.4202 9.41182 7.39967 9.37586C7.37683 9.33587 7.3488 9.2907 7.31321 9.23566C7.25549 9.14639 7.17405 9.02545 7.06935 8.87311C6.88954 8.61147 6.64313 8.26013 6.34574 7.84035C6.12331 7.52651 5.91273 7.23092 5.70049 6.93406L7.10306 5.52639C7.34907 5.73586 7.59447 5.94307 7.82989 6.13957C7.87003 6.17305 7.87003 6.17305 7.91022 6.20652C8.29772 6.529 8.62477 6.79423 8.87512 6.987C9.02642 7.10351 9.15022 7.19403 9.25053 7.26014C9.32237 7.30748 9.38618 7.34535 9.45337 7.37752C9.51973 7.40929 9.58647 7.43477 9.66843 7.45336C9.90731 7.50752 10.1549 7.49246 10.4155 7.28981C11.7756 6.23411 13.4874 5.54035 15.3579 5.2729C15.8625 5.20032 15.9258 5.0869 16.0653 4.68451C16.079 4.64495 16.0885 4.61044 16.0975 4.57223C16.1073 4.53066 16.1168 4.48313 16.1273 4.42461C16.1441 4.33079 16.1648 4.2022 16.1894 4.0388C16.232 3.75657 16.2863 3.37233 16.3498 2.90762C16.3599 2.83307 16.3599 2.83307 16.3701 2.75839C16.4139 2.43533 16.4595 2.09326 16.505 1.74805H18.5118C18.5453 2.09091 18.5791 2.43041 18.612 2.75143C18.6209 2.83892 18.6297 2.92421 18.6383 3.00711C18.6847 3.45257 18.725 3.81889 18.7578 4.08746C18.7768 4.24336 18.7933 4.36634 18.8077 4.45745C18.817 4.5166 18.8258 4.56536 18.8359 4.60993C18.8457 4.65303 18.8565 4.69259 18.8731 4.73853C18.9932 5.07092 19.0889 5.22787 19.5444 5.31068C21.5221 5.67582 23.1557 6.34819 24.3769 7.3635C24.7735 7.69272 24.9819 7.64344 25.3294 7.47495C25.3769 7.45193 25.4151 7.42912 25.4557 7.40244C25.4984 7.3743 25.5444 7.3409 25.5994 7.29886C25.6857 7.23296 25.8006 7.14087 25.9444 7.02267C26.1898 6.82094 26.5178 6.54469 26.909 6.2111C27.1865 5.97435 27.4375 5.759 27.6902 5.54126L29.0902 7.01312C28.8727 7.28894 28.6571 7.56389 28.4535 7.82565C28.1005 8.27995 27.8425 8.61739 27.6543 8.8719C27.543 9.02221 27.4564 9.14324 27.3939 9.23637C27.3528 9.2975 27.32 9.34962 27.2923 9.39982C27.2662 9.44697 27.2441 9.49255 27.2235 9.54805C27.1284 9.80412 27.1005 10.0077 27.2972 10.3262C28.2391 11.8527 28.8268 13.2926 29.3107 15.2877C29.3731 15.5434 29.5092 15.6988 29.6745 15.8115C29.7922 15.8819 29.7922 15.8819 29.8633 15.9107C29.9244 15.9346 29.9816 15.9509 30.0454 15.9655C30.1225 15.9831 30.2139 15.9987 30.3263 16.0145C30.5085 16.0403 30.7549 16.0676 31.0612 16.097C31.3114 16.1209 31.5988 16.146 31.9165 16.1717C32.2443 16.1983 32.5907 16.2246 32.9405 16.2499V18.4575C32.5746 18.4932 32.2118 18.5305 31.8688 18.5683Z" fill="white"/>
<path fill-rule="evenodd" clip-rule="evenodd" d="M17.1371 8.75C12.3189 8.75 8.41406 12.6679 8.41406 17.4993C8.41406 22.3308 12.3189 26.2487 17.1371 26.2487C21.9552 26.2487 25.8599 22.3307 25.8599 17.4993C25.8599 12.6679 21.9552 8.75 17.1371 8.75ZM17.1353 10.498C20.9866 10.498 24.11 13.632 24.11 17.4994C24.11 21.3667 20.9866 24.5007 17.1353 24.5007C13.2837 24.5007 10.1602 21.3668 10.1602 17.4994C10.1602 13.632 13.2837 10.498 17.1353 10.498Z" fill="white"/>
<path fill-rule="evenodd" clip-rule="evenodd" d="M58.0366 16.6438C58.0366 17.7925 57.8391 18.8291 57.4443 19.7534C57.0494 20.6778 56.5109 21.463 55.8289 22.1092C55.1468 22.7554 54.3392 23.2534 53.4058 23.6034C52.4725 23.9534 51.4584 24.1284 50.3635 24.1284C49.2686 24.1284 48.2545 23.9534 47.3212 23.6034C46.3879 23.2534 45.5757 22.7554 44.8847 22.1092C44.1936 21.463 43.6552 20.6778 43.2693 19.7534C42.8834 18.8291 42.6904 17.7925 42.6904 16.6438V4.58228H46.0827V16.5092C46.0827 17.0656 46.1545 17.6175 46.2981 18.165C46.4417 18.7124 46.6795 19.2015 47.0116 19.6323C47.3436 20.063 47.7834 20.413 48.3308 20.6823C48.8783 20.9515 49.5558 21.0861 50.3635 21.0861C51.1712 21.0861 51.8488 20.9515 52.3962 20.6823C52.9436 20.413 53.3834 20.063 53.7154 19.6323C54.0475 19.2015 54.2853 18.7124 54.4289 18.165C54.5725 17.6175 54.6443 17.0656 54.6443 16.5092V4.58228H58.0366V16.6438ZM63.1616 10.7209V12.5248H63.2424C63.4039 12.2735 63.6148 12.0177 63.875 11.7575C64.1353 11.4972 64.4539 11.2639 64.8308 11.0575C65.2077 10.851 65.634 10.6805 66.1097 10.5459C66.5853 10.4113 67.1193 10.344 67.7116 10.344C68.627 10.344 69.4706 10.519 70.2424 10.869C71.0142 11.219 71.6782 11.6991 72.2347 12.3094C72.7911 12.9196 73.2218 13.6376 73.527 14.4632C73.8321 15.2889 73.9847 16.1773 73.9847 17.1286C73.9847 18.0799 73.8366 18.9728 73.5404 19.8075C73.2443 20.6421 72.8225 21.369 72.275 21.9882C71.7276 22.6075 71.0635 23.101 70.2827 23.469C69.502 23.8369 68.618 24.0209 67.6308 24.0209C66.7154 24.0209 65.8763 23.8325 65.1135 23.4555C64.3507 23.0786 63.7629 22.5671 63.35 21.9209H63.2962V30.1055H60.0654V10.7209H63.1616ZM70.702 17.1288C70.702 16.6263 70.6257 16.1282 70.4731 15.6346C70.3206 15.141 70.0917 14.6968 69.7866 14.3019C69.4815 13.907 69.0956 13.5884 68.6289 13.3461C68.1622 13.1038 67.6148 12.9827 66.9866 12.9827C66.3943 12.9827 65.8648 13.1083 65.3981 13.3596C64.9315 13.6109 64.5321 13.9339 64.2 14.3288C63.868 14.7237 63.6167 15.1724 63.4462 15.675C63.2757 16.1775 63.1904 16.6801 63.1904 17.1827C63.1904 17.6852 63.2757 18.1833 63.4462 18.6769C63.6167 19.1705 63.868 19.6147 64.2 20.0096C64.5321 20.4045 64.9315 20.723 65.3981 20.9654C65.8648 21.2077 66.3943 21.3288 66.9866 21.3288C67.6148 21.3288 68.1622 21.2032 68.6289 20.9519C69.0956 20.7006 69.4815 20.3775 69.7866 19.9827C70.0917 19.5878 70.3206 19.1391 70.4731 18.6365C70.6257 18.1339 70.702 17.6314 70.702 17.1288ZM75.4209 4.58228H78.8132V12.8207H78.894L86.8632 4.58228H91.4401L82.5286 13.3861L92.0324 23.6438H87.2671L78.894 14.0861H78.8132V23.6438H75.4209V4.58228ZM100.255 15.8899C100.255 15.4771 100.197 15.0822 100.08 14.7053C99.9632 14.3284 99.7793 13.9963 99.528 13.7092C99.2767 13.422 98.9581 13.1931 98.5722 13.0226C98.1863 12.8521 97.7331 12.7668 97.2126 12.7668C96.2434 12.7668 95.4222 13.0585 94.7491 13.6418C94.0761 14.2252 93.7036 14.9745 93.6318 15.8899H100.255ZM103.486 17.344V17.7748C103.486 17.9183 103.477 18.0619 103.459 18.2055H93.6321C93.668 18.6722 93.7892 19.0985 93.9956 19.4844C94.202 19.8703 94.4757 20.2023 94.8168 20.4805C95.1578 20.7587 95.5437 20.9786 95.9744 21.1401C96.4052 21.3017 96.8539 21.3824 97.3206 21.3824C98.1283 21.3824 98.8103 21.2344 99.3668 20.9382C99.9232 20.6421 100.381 20.2337 100.74 19.7132L102.894 21.4363C101.619 23.1594 99.7706 24.0209 97.3475 24.0209C96.3424 24.0209 95.418 23.8639 94.5744 23.5498C93.7309 23.2357 92.9994 22.7914 92.3802 22.2171C91.761 21.6427 91.2764 20.9382 90.9264 20.1036C90.5764 19.269 90.4014 18.3222 90.4014 17.2632C90.4014 16.2222 90.5764 15.2754 90.9264 14.4228C91.2764 13.5703 91.7565 12.8433 92.3668 12.2421C92.977 11.6408 93.6994 11.1741 94.5341 10.8421C95.3687 10.51 96.2706 10.344 97.2398 10.344C98.1373 10.344 98.9674 10.4921 99.7302 10.7882C100.493 11.0844 101.153 11.5241 101.709 12.1074C102.265 12.6908 102.701 13.4177 103.015 14.2882C103.329 15.1587 103.486 16.1773 103.486 17.344ZM113.86 15.8899C113.86 15.4771 113.802 15.0822 113.685 14.7053C113.569 14.3284 113.385 13.9963 113.133 13.7092C112.882 13.422 112.564 13.1931 112.178 13.0226C111.792 12.8521 111.339 12.7668 110.818 12.7668C109.849 12.7668 109.028 13.0585 108.355 13.6418C107.682 14.2252 107.309 14.9745 107.237 15.8899H113.86ZM117.091 17.344V17.7748C117.091 17.9184 117.082 18.0619 117.065 18.2055H107.238C107.274 18.6722 107.395 19.0985 107.601 19.4844C107.807 19.8703 108.081 20.2023 108.422 20.4805C108.763 20.7587 109.149 20.9786 109.58 21.1401C110.011 21.3017 110.459 21.3825 110.926 21.3825C111.734 21.3825 112.416 21.2344 112.972 20.9382C113.529 20.6421 113.986 20.2337 114.345 19.7132L116.499 21.4363C115.225 23.1594 113.376 24.0209 110.953 24.0209C109.948 24.0209 109.024 23.8639 108.18 23.5498C107.336 23.2357 106.605 22.7914 105.986 22.2171C105.366 21.6427 104.882 20.9382 104.532 20.1036C104.182 19.269 104.007 18.3222 104.007 17.2632C104.007 16.2222 104.182 15.2754 104.532 14.4228C104.882 13.5703 105.362 12.8434 105.972 12.2421C106.582 11.6408 107.305 11.1741 108.14 10.8421C108.974 10.51 109.876 10.344 110.845 10.344C111.743 10.344 112.573 10.4921 113.336 10.7882C114.099 11.0844 114.758 11.5241 115.315 12.1075C115.871 12.6908 116.306 13.4177 116.62 14.2882C116.934 15.1587 117.091 16.1773 117.091 17.344ZM121.462 10.7209V12.5248H121.543C121.705 12.2735 121.916 12.0177 122.176 11.7575C122.436 11.4972 122.755 11.2639 123.132 11.0575C123.509 10.851 123.935 10.6805 124.41 10.5459C124.886 10.4113 125.42 10.344 126.012 10.344C126.928 10.344 127.771 10.519 128.543 10.869C129.315 11.219 129.979 11.6991 130.535 12.3094C131.092 12.9196 131.523 13.6376 131.828 14.4632C132.133 15.2889 132.285 16.1773 132.285 17.1286C132.285 18.0799 132.137 18.9728 131.841 19.8075C131.545 20.6421 131.123 21.369 130.576 21.9882C130.028 22.6075 129.364 23.101 128.584 23.469C127.803 23.8369 126.919 24.0209 125.932 24.0209C125.016 24.0209 124.177 23.8325 123.414 23.4555C122.651 23.0786 122.064 22.5671 121.651 21.9209H121.597V30.1055H118.366V10.7209H121.462ZM128.999 17.1288C128.999 16.6263 128.923 16.1282 128.77 15.6346C128.617 15.141 128.389 14.6968 128.083 14.3019C127.778 13.907 127.392 13.5884 126.926 13.3461C126.459 13.1038 125.912 12.9827 125.283 12.9827C124.691 12.9827 124.162 13.1083 123.695 13.3596C123.228 13.6109 122.829 13.9339 122.497 14.3288C122.165 14.7237 121.914 15.1724 121.743 15.675C121.573 16.1775 121.487 16.6801 121.487 17.1827C121.487 17.6852 121.573 18.1833 121.743 18.6769C121.914 19.1705 122.165 19.6147 122.497 20.0096C122.829 20.4045 123.228 20.723 123.695 20.9654C124.162 21.2077 124.691 21.3288 125.283 21.3288C125.912 21.3288 126.459 21.2032 126.926 20.9519C127.392 20.7006 127.778 20.3775 128.083 19.9827C128.389 19.5878 128.617 19.1391 128.77 18.6365C128.923 18.1339 128.999 17.6314 128.999 17.1288Z" fill="white"/>
</svg>
