<?xml version="1.0" encoding="UTF-8"?>
<svg width="1292px" height="583px" viewBox="0 0 1292 583" version="1.1" xmlns="http://www.w3.org/2000/svg" xmlns:xlink="http://www.w3.org/1999/xlink">
    <!-- Generator: Sketch 46.1 (44463) - http://www.bohemiancoding.com/sketch -->
    <title>Confetti</title>
    <desc>Created with Sketch.</desc>
    <defs></defs>
    <g id="Marketing" stroke="none" stroke-width="1" fill="none" fill-rule="evenodd" opacity="0.723448822">
        <g id="Free-Trial-Landing" transform="translate(-78.000000, -47.000000)">
            <g id="Hero">
                <g id="Background">
                    <g id="Confetti" transform="translate(77.000000, 42.000000)">
                        <g id="misc/confetti/triangle" opacity="0.72" transform="translate(816.003960, 35.663082) scale(1, -1) rotate(-109.000000) translate(-816.003960, -35.663082) translate(808.003960, 27.538944)" stroke="#FFF200" stroke-width="2">
                            <path d="M8,2.23606798 L1.61803399,15 L14.381966,15 L8,2.23606798 Z" id="Triangle"></path>
                        </g>
                        <g id="misc/confetti/triangle" opacity="0.84" transform="translate(11.979253, 577.402368) scale(-1, 1) rotate(-35.000000) translate(-11.979253, -577.402368) translate(3.979253, 569.278230)" stroke="#FFF200" stroke-width="2">
                            <path d="M8,2.23606798 L1.61803399,15 L14.381966,15 L8,2.23606798 Z" id="Triangle"></path>
                        </g>
                        <g id="misc/confetti/rect" opacity="0.89" transform="translate(1285.504565, 568.864505) rotate(-274.000000) translate(-1285.504565, -568.864505) translate(1278.504565, 561.755884)" stroke="#3ADCBE" stroke-width="2">
                            <rect id="Rectangle" x="1" y="1" width="12" height="12" rx="3"></rect>
                        </g>
                        <g id="misc/confetti/rect" opacity="0.79" transform="translate(1137.445354, 20.911116) scale(-1, -1) rotate(-269.000000) translate(-1137.445354, -20.911116) translate(1130.445354, 13.802495)" stroke="#3ADCBE" stroke-width="2">
                            <rect id="Rectangle" x="1" y="1" width="12" height="12" rx="3"></rect>
                        </g>
                        <g id="misc/confetti/circle" opacity="0.79" transform="translate(1280.638432, 164.935899) scale(1, -1) rotate(-190.000000) translate(-1280.638432, -164.935899) translate(1269.638432, 153.765209)">
                            <circle id="Oval" stroke="#5071FF" stroke-width="2" cx="11" cy="11" r="10"></circle>
                            <circle id="Oval-2" fill="#5071FF" fill-rule="evenodd" cx="11" cy="11" r="2.89473684"></circle>
                        </g>
                        <g id="misc/confetti/circle" opacity="0.75" transform="translate(224.946887, 427.699947) scale(-1, -1) rotate(-274.000000) translate(-224.946887, -427.699947) translate(216.446887, 419.068050)">
                            <circle id="Oval" stroke="#5071FF" stroke-width="2" cx="8.5" cy="8.5" r="7.5"></circle>
                            <circle id="Oval-2" fill="#5071FF" fill-rule="evenodd" cx="8.5" cy="8.5" r="2.23684211"></circle>
                        </g>
                        <g id="misc/confetti/circle-grid" opacity="0.87" transform="translate(59.437542, 353.742229) scale(1, -1) rotate(-330.000000) translate(-59.437542, -353.742229) translate(48.937542, 343.079298)" fill="#FF3B30">
                            <g id="Group" transform="translate(1.105263, 1.105263)">
                                <path d="M17.8894083,10.9386363 L18.3372225,10.9386363 L18.3372225,8.95627523 C18.3372225,8.71660309 18.1546136,8.5190308 17.9185499,8.50348355 C17.918205,8.50348355 17.803708,8.49597196 17.6304107,8.48356911 C17.3705509,8.46487747 16.9794679,8.43552987 16.6564968,8.40565819 C16.4956148,8.39098439 16.3505969,8.37561183 16.2538607,8.36268491 C16.2062686,8.35639614 16.1691951,8.35010736 16.1593663,8.34783642 L16.1576419,8.34748704 L16.0990139,8.6014836 L16.1948879,8.36006459 C16.164022,8.34783642 16.1583316,8.3480111 16.1576419,8.34748704 L16.0990139,8.6014836 L16.1948879,8.36006459 L16.0419379,8.74560132 L16.2764497,8.40513413 C16.2336858,8.37543714 16.2110968,8.36705211 16.1948879,8.36006459 L16.0419379,8.74560132 L16.2764497,8.40513413 L16.0267636,8.76761203 L16.3583564,8.48007534 C16.3252489,8.44146926 16.2980041,8.420332 16.2764497,8.40513413 L16.0267636,8.76761203 L16.3583564,8.48007534 L16.0214181,8.77215392 L16.4523336,8.66611822 C16.4307792,8.5779007 16.3902569,8.51833205 16.3583564,8.48007534 L16.0214181,8.77215392 L16.4523336,8.66611822 C16.1833347,7.53745811 15.8365676,6.68655215 15.3123647,5.82813461 L15.311675,5.82708648 L14.9338695,6.06466235 L15.3785798,6.06466235 C15.3778901,6.01312935 15.3725446,5.92945373 15.311675,5.82708648 L14.9338695,6.06466235 L15.3785798,6.06466235 L14.9447329,6.06466235 L15.3584049,6.19760003 C15.3649574,6.17314369 15.3772003,6.14100107 15.3785798,6.06466235 L14.9447329,6.06466235 L15.3584049,6.19760003 L15.0106031,6.08579962 L15.3328845,6.26013839 C15.3365056,6.25192805 15.3435755,6.2423202 15.3584049,6.19760003 L15.0106031,6.08579962 L15.3328845,6.26013839 L15.1863146,6.18082997 L15.3299531,6.26572841 L15.3328845,6.26013839 L15.1863146,6.18082997 L15.3299531,6.26572841 L15.3304704,6.26468028 C15.3365056,6.25437368 15.364785,6.21192446 15.402031,6.16021677 C15.5349785,5.97399921 15.7905274,5.63947141 16.0090028,5.35735005 C16.1183267,5.21585266 16.2192013,5.08658343 16.2926586,4.99260121 C16.3659436,4.89879367 16.4116389,4.84079721 16.4116389,4.84062252 C16.5506217,4.6640128 16.5395858,4.40896811 16.3859461,4.24528532 L15.1063047,2.88219372 C14.9414566,2.70663213 14.6686642,2.69353052 14.4881246,2.85232205 C14.4877797,2.85249673 14.4017346,2.92848608 14.2710287,3.04273212 C14.0751424,3.2141012 13.7795885,3.47159152 13.5304196,3.68453637 C13.4059215,3.79074676 13.2926315,3.88630118 13.2119319,3.95215861 C13.1717545,3.98482529 13.1391642,4.01067914 13.1220932,4.02343137 L13.1136438,4.02954546 L13.1129541,4.03006952 L13.2531439,4.23864717 L13.1326117,4.01801604 C13.1164028,4.02727451 13.1136438,4.02972015 13.1129541,4.03006952 L13.2531439,4.23864717 L13.1326117,4.01801604 L13.3271186,4.37385579 L13.1771,3.99670409 C13.1526142,4.006836 13.1412335,4.01329946 13.1326117,4.01801604 L13.3271186,4.37385579 L13.1771,3.99670409 L13.3386717,4.40302871 L13.2295203,3.97923527 C13.2052069,3.98569873 13.1895153,3.99163813 13.1771,3.99670409 L13.3386717,4.40302871 L13.2295203,3.97923527 L13.3412583,4.41281125 L13.3412583,3.96473616 C13.2865963,3.96526022 13.2540061,3.9729465 13.2295203,3.97923527 L13.3412583,4.41281125 L13.3412583,3.96473616 L13.3412583,4.41682908 L13.6159475,4.06063995 C13.5098999,3.97853652 13.4088529,3.96526022 13.3412583,3.96473616 L13.3412583,4.41682908 L13.6159475,4.06063995 L13.3402237,4.41805189 L13.626466,4.06919967 C12.7996394,3.37446491 11.7745123,3.00307792 10.7392115,2.8088247 L10.7386942,2.80865001 L10.6579946,3.25393009 L10.8957827,2.8706643 C10.8575021,2.84620796 10.8047369,2.82105287 10.7386942,2.80865001 L10.6579946,3.25393009 L10.8957827,2.8706643 L10.6590292,3.2523579 L11.0228674,2.99259663 C11.001313,2.96377308 10.971999,2.92097449 10.8957827,2.8706643 L10.6590292,3.2523579 L11.0228674,2.99259663 L10.6690304,3.24519569 L11.0749428,3.09251825 C11.0671832,3.07417599 11.0614929,3.05076778 11.0228674,2.99259663 L10.6690304,3.24519569 L11.0749428,3.09251825 L10.7559378,3.212529 L11.0883928,3.13706372 C11.0868409,3.13234714 11.0866684,3.12570899 11.0749428,3.09251825 L10.7559378,3.212529 L11.0883928,3.13706372 L11.0285578,3.15051471 L11.0887376,3.13863592 L11.0883928,3.13706372 L11.0285578,3.15051471 L11.0887376,3.13863592 C11.0871857,3.13182308 11.0795986,3.08325977 11.0720114,3.02229361 C11.0439045,2.80271061 11.0006233,2.38153749 10.9651016,2.02098116 C10.9473408,1.84035362 10.9313043,1.67387582 10.9199236,1.55281693 C10.9083705,1.43158336 10.9013006,1.35611808 10.9013006,1.35594339 C10.8795738,1.12290941 10.6864464,0.944727497 10.4553833,0.944727497 L8.62739802,0.944727497 C8.40168038,0.944727497 8.2120017,1.11365093 8.18320502,1.34039615 C8.18303259,1.34074552 8.16872047,1.45429282 8.14647633,1.6254872 C8.11336878,1.88227877 8.06284527,2.2679902 8.01852944,2.58766951 C7.99645773,2.74733447 7.97576551,2.89110281 7.96024635,2.99102443 C7.95248677,3.04063587 7.94576179,3.08029008 7.94196822,3.09985515 L7.94007143,3.109463 L7.94007143,3.10981237 L8.22234781,3.17584449 L7.94800345,3.08221165 C7.94076117,3.10457173 7.94058874,3.10824018 7.94007143,3.10981237 L8.22234781,3.17584449 L7.94800345,3.08221165 L8.34874279,3.21916715 L7.97662769,3.01583015 C7.95645277,3.05443623 7.95248677,3.06998348 7.94800345,3.08221165 L8.34874279,3.21916715 L7.97662769,3.01583015 L8.36615874,3.22860031 L8.03887679,2.92691388 C8.00145835,2.9693631 7.98783597,2.9959157 7.97662769,3.01583015 L8.36615874,3.22860031 L8.03887679,2.92691388 L8.3689177,3.23104595 L8.12561168,2.85214736 C8.08370993,2.87992277 8.05801709,2.90577662 8.03887679,2.92691388 L8.3689177,3.23104595 L8.12561168,2.85214736 L8.36943501,3.2317447 L8.30701347,2.78332023 C8.22734843,2.79484965 8.16682368,2.82489601 8.12561168,2.85214736 L8.36943501,3.2317447 L8.30701347,2.78332023 L8.30597886,2.78332023 C7.22601739,2.9400155 6.19657943,3.34756294 5.35095735,4.01225133 L5.35147466,4.01172727 L5.62237031,4.36651889 L5.50804579,3.9331176 C5.46183317,3.94552046 5.405102,3.96962743 5.35147466,4.01172727 L5.62237031,4.36651889 L5.50804579,3.9331176 L5.6213357,4.36232638 L5.6213357,3.91809442 C5.59202172,3.91826911 5.55477572,3.92071474 5.50804579,3.9331176 L5.6213357,4.36232638 L5.6213357,3.91809442 L5.6213357,4.3487007 L5.72738333,3.93154541 C5.70427702,3.9257807 5.67341112,3.9184438 5.6213357,3.91809442 L5.6213357,4.3487007 L5.72738333,3.93154541 L5.6370273,4.28651172 L5.79618496,3.95687519 C5.78601129,3.95215861 5.77118186,3.94359889 5.72738333,3.93154541 L5.6370273,4.28651172 L5.79618496,3.95687519 L5.73203908,4.08963818 L5.80687594,3.96246521 L5.79618496,3.95687519 L5.73203908,4.08963818 L5.80687594,3.96246521 C5.80222019,3.96001958 5.76169793,3.93259354 5.71307121,3.89521028 C5.62547414,3.82900347 5.50063108,3.72820841 5.36647652,3.61693206 C5.16507224,3.44993019 4.94073408,3.25794792 4.76743674,3.10841487 C4.68070185,3.03364834 4.60689959,2.9693631 4.55465174,2.92394419 C4.50240388,2.87835058 4.47240016,2.85197267 4.47222773,2.85197267 C4.2946195,2.69597616 4.02786229,2.70593338 3.86180722,2.87468213 L2.58216583,4.17558475 C2.42766391,4.33280408 2.4080063,4.58068656 2.5359532,4.76079004 C2.53612564,4.76113941 2.60285805,4.85494695 2.70338775,4.99749247 C2.85426853,5.21096139 3.08084834,5.53256226 3.26828537,5.80350358 C3.3620901,5.9387122 3.44623846,6.06169266 3.50503886,6.14956079 C3.5341804,6.19323283 3.55728671,6.2290439 3.56970205,6.24878366 L3.57625458,6.25978901 L3.57728919,6.26153589 L3.64143508,6.22345388 L3.57625458,6.25961432 L3.57728919,6.26153589 L3.64143508,6.22345388 L3.57625458,6.25961432 L3.85870339,6.10222031 L3.56383925,6.23410986 C3.5714264,6.25122929 3.57470267,6.25646994 3.57625458,6.25961432 L3.85870339,6.10222031 L3.56383925,6.23410986 L3.94440367,6.0639636 L3.54797521,6.19096188 C3.55504506,6.21332197 3.56004568,6.22502607 3.56383925,6.23410986 L3.94440367,6.0639636 L3.54797521,6.19096188 L3.96371641,6.05784952 L3.53624962,6.14519359 C3.54038807,6.16545741 3.54435408,6.17960715 3.54797521,6.19096188 L3.96371641,6.05784952 L3.53624962,6.14519359 L3.97061382,6.05627732 L3.52745543,6.05627732 C3.52762786,6.09820248 3.53228361,6.12458039 3.53624962,6.14519359 L3.97061382,6.05627732 L3.52745543,6.05627732 L3.97354521,6.05627732 L3.5434919,5.93626657 C3.53021439,5.98605269 3.52762786,6.02535752 3.52745543,6.05627732 L3.97354521,6.05627732 L3.5434919,5.93626657 L3.97440739,6.0566267 L3.63108897,5.76681907 C3.58280712,5.8253396 3.55676941,5.8871792 3.5434919,5.93626657 L3.97440739,6.0566267 L3.63108897,5.76681907 L3.97509713,6.05715076 L3.63988316,5.75633778 C3.29897883,6.14676578 3.01118453,6.628381 2.79788222,7.15716202 C2.58526966,7.68594303 2.44714909,8.26206454 2.42093894,8.84307731 L2.86582168,8.86334113 L2.48129125,8.63607186 C2.45197727,8.68620735 2.42438765,8.75957638 2.42093894,8.843252 L2.86582168,8.86334113 L2.48129125,8.63607186 L2.86340759,8.86194363 L2.56509474,8.53090959 C2.54060895,8.55379374 2.51060523,8.58558698 2.48129125,8.63607186 L2.86340759,8.86194363 L2.56509474,8.53090959 L2.85582044,8.8535586 L2.66665906,8.46085965 C2.64475979,8.47238906 2.61423877,8.48671349 2.56509474,8.53090959 L2.85582044,8.8535586 L2.66665906,8.46085965 L2.82650646,8.79294181 L2.73183955,8.43552987 C2.72270049,8.43867425 2.70873324,8.44077051 2.66665906,8.46085965 L2.82650646,8.79294181 L2.73183955,8.43552987 L2.77994897,8.61720554 L2.7394267,8.43378298 L2.73183955,8.43552987 L2.77994897,8.61720554 L2.7394267,8.43378298 L2.73925427,8.43378298 C2.7301152,8.43570455 2.68062631,8.44321614 2.61854965,8.44985429 C2.3952461,8.47466001 1.98071195,8.50418231 1.63015125,8.52671708 C1.45426738,8.53789712 1.29304049,8.54750497 1.17595701,8.55449249 C1.05904597,8.56130533 0.986623198,8.56514847 0.986450762,8.56532316 C0.749007533,8.57825008 0.562777549,8.77721988 0.562777549,9.01828952 L0.562777549,10.8767967 C0.562777549,11.1094813 0.735730025,11.3039092 0.96403419,11.3280162 C0.964206625,11.3280162 0.992830864,11.3309859 1.04369924,11.3364012 C1.22216964,11.3559663 1.67101839,11.4057524 2.07089555,11.4583335 C2.27040304,11.4845368 2.45870224,11.5116134 2.58802862,11.5346723 C2.6516572,11.5458523 2.70269801,11.5568576 2.72011396,11.5615742 L2.72442484,11.562797 L2.72580432,11.5582552 L2.72425241,11.562797 L2.72442484,11.562797 L2.72580432,11.5582552 L2.72425241,11.562797 L2.81184947,11.2848682 L2.67424621,11.5402623 C2.71183707,11.5603514 2.72114857,11.5612249 2.72425241,11.562797 L2.81184947,11.2848682 L2.67424621,11.5402623 L2.87271909,11.1716703 L2.58337287,11.4719592 C2.62751628,11.5144084 2.6551059,11.5290822 2.67424621,11.5402623 L2.87271909,11.1716703 L2.58337287,11.4719592 L2.88823825,11.1554243 L2.50905331,11.3741338 C2.53526346,11.4206009 2.56164604,11.4502979 2.58337287,11.4719592 L2.88823825,11.1554243 L2.50905331,11.3741338 L2.89323887,11.1526293 L2.45232214,11.1854707 C2.45784007,11.2630322 2.4830156,11.3283656 2.50905331,11.3741338 L2.89323887,11.1526293 L2.45232214,11.1854707 C2.49370658,11.7532071 2.65545077,12.2807653 2.87461588,12.7650009 C3.09412585,13.2495858 3.37122917,13.693643 3.65350554,14.1017146 L3.65402284,14.1022386 L4.01682644,13.8437002 L3.58625582,13.9521815 C3.5969468,13.9956788 3.61694928,14.0491334 3.65402284,14.1022386 L4.01682644,13.8437002 L3.58625582,13.9521815 L4.01337774,13.8447483 L3.57332318,13.8447483 C3.57349562,13.8730478 3.57573728,13.9081601 3.58625582,13.9521815 L4.01337774,13.8447483 L3.57332318,13.8447483 L4.0004451,13.8447483 L3.58798017,13.7318997 C3.58211738,13.7551333 3.57384049,13.7865771 3.57332318,13.8447483 L4.0004451,13.8447483 L3.58798017,13.7318997 L3.93371269,13.826406 L3.61194866,13.6658676 C3.60798265,13.6751261 3.60022307,13.688053 3.58798017,13.7318997 L3.93371269,13.826406 L3.61194866,13.6658676 L3.77679669,13.7481457 L3.61574224,13.6585307 L3.61194866,13.6658676 L3.77679669,13.7481457 L3.61574224,13.6585307 L3.62039799,13.6613257 L3.61574224,13.658356 L3.61574224,13.6585307 L3.62039799,13.6613257 L3.61574224,13.658356 C3.61125892,13.6665664 3.58280712,13.7105878 3.54469895,13.763693 C3.40813029,13.9556753 3.14085578,14.2984134 2.91289648,14.5857754 C2.79857197,14.7300678 2.69338651,14.861608 2.61665286,14.9569877 C2.53991921,15.0523674 2.49249954,15.1110627 2.4923271,15.1112373 C2.34403286,15.2943105 2.36006933,15.5633303 2.52905579,15.7270131 L3.80869719,16.9660761 C3.96992408,17.1220726 4.22185186,17.1339514 4.39652869,16.9933274 C4.39652869,16.9933274 4.41825552,16.9758586 4.4573983,16.9445894 C4.59413939,16.8354093 4.93900973,16.5607996 5.25784236,16.3157121 C5.41682759,16.1936051 5.57012245,16.0784856 5.68306749,15.9981291 C5.73910892,15.9581255 5.78601129,15.9265069 5.81153169,15.9106103 L5.82515407,15.9025746 L5.82670599,15.9015265 L5.73393587,15.7277118 L5.80670351,15.910785 C5.82377459,15.9036228 5.82670599,15.9015265 5.82670599,15.9015265 L5.73393587,15.7277118 L5.80670351,15.910785 L5.66944511,15.5654265 L5.76411202,15.9251094 C5.78549398,15.91917 5.79790931,15.9142788 5.80670351,15.910785 L5.66944511,15.5654265 L5.76411202,15.9251094 L5.65547786,15.5126707 L5.65547786,15.9392592 C5.71220903,15.9387351 5.74221275,15.9303501 5.76411202,15.9251094 L5.65547786,15.5126707 L5.65547786,15.9392592 L5.65547786,15.495726 L5.55787956,15.9280791 C5.59840182,15.9373376 5.63012989,15.9390845 5.65547786,15.9392592 L5.65547786,15.495726 L5.55787956,15.9280791 L5.65651247,15.4911841 L5.41648272,15.867637 C5.4678684,15.9011771 5.51770216,15.9188206 5.55787956,15.9280791 L5.65651247,15.4911841 L5.41648272,15.867637 L5.41941412,15.8695586 C5.83774184,16.1385783 6.28555598,16.4109171 6.77199559,16.6296267 C7.25809033,16.8481616 7.78556952,17.0128925 8.35632993,17.0562152 L8.3566748,17.0562152 L8.38943749,16.6074413 L8.18027362,17.0045075 C8.22545164,17.0291385 8.28718343,17.0511492 8.3566748,17.0562152 L8.38943749,16.6074413 L8.18027362,17.0045075 L8.38685096,16.6123326 L8.03042746,16.8719192 C8.05439595,16.9035377 8.0899176,16.9534985 8.18027362,17.0045075 L8.38685096,16.6123326 L8.03042746,16.8719192 L8.36822796,16.6259583 L7.99025007,16.8020439 C7.99766478,16.8181152 8.00766602,16.8392525 8.03042746,16.8719192 L8.36822796,16.6259583 L7.99025007,16.8020439 L8.29011483,16.6622934 L7.97197194,16.7531312 C7.9742136,16.7597694 7.97662769,16.7714735 7.99025007,16.8020439 L8.29011483,16.6622934 L7.97197194,16.7531312 L8.10164319,16.7160973 L7.97076489,16.7480653 L7.97197194,16.7531312 L8.10164319,16.7160973 L7.97076489,16.7480653 L7.97231681,16.7559262 C7.97662769,16.7782863 7.98455971,16.832265 7.99231929,16.8991705 C8.02042622,17.1376198 8.05301647,17.5498839 8.07750226,17.8950676 C8.0899176,18.0681836 8.10026371,18.225927 8.10767842,18.3399983 C8.11509313,18.4540697 8.11940401,18.5242943 8.11940401,18.524469 C8.134061,18.7634424 8.32994735,18.9500093 8.56652841,18.9500093 L10.3334716,18.9500093 C10.5631552,18.9500093 10.7554205,18.7742731 10.7790441,18.5428113 C10.7790441,18.5426366 10.7819755,18.5139877 10.7871485,18.4628041 C10.805944,18.2835741 10.8543982,17.8320052 10.9061288,17.428825 C10.9319941,17.2279336 10.9590664,17.0376982 10.9821727,16.9073809 C10.993381,16.8430956 11.0045893,16.7917373 11.0094175,16.7742685 L11.0106245,16.770076 L11.0051066,16.7683291 L11.0106245,16.7702507 L11.0106245,16.770076 L11.0051066,16.7683291 L11.0106245,16.7702507 L10.7440397,16.6813344 L10.9887252,16.818814 C11.0076931,16.7828282 11.0090726,16.7732204 11.0106245,16.7702507 L10.7440397,16.6813344 L10.9887252,16.818814 L10.6307498,16.6177479 L10.9273383,16.9031883 C10.964067,16.8631848 10.9782067,16.8371562 10.9887252,16.818814 L10.6307498,16.6177479 L10.9273383,16.9031883 L10.6131614,16.6006285 L10.8454316,16.9713167 C10.8833674,16.9468604 10.9085429,16.9231028 10.9273383,16.9031883 L10.6131614,16.6006285 L10.8454316,16.9713167 L10.6093679,16.5946891 L10.6898951,17.033331 C10.7555929,17.0207535 10.8078407,16.9954237 10.8454316,16.9713167 L10.6093679,16.5946891 L10.6898951,17.033331 C11.7510611,16.8331384 12.7506678,16.420525 13.6004283,15.7841361 L13.6014629,15.7832626 L13.3381544,15.4246279 L13.4514443,15.8566317 C13.4962775,15.8447529 13.5500773,15.8220434 13.6014629,15.7832626 L13.3381544,15.4246279 L13.4514443,15.8566317 L13.3393615,15.4296938 L13.3393615,15.8714802 C13.3691928,15.8714802 13.4062663,15.8688598 13.4514443,15.8566317 L13.3393615,15.4296938 L13.3393615,15.8714802 L13.3393615,15.4454158 L13.2410734,15.8599507 C13.2629727,15.8650167 13.2924591,15.8711308 13.3393615,15.8714802 L13.3393615,15.4454158 L13.2410734,15.8599507 L13.3238423,15.5109238 L13.1733064,15.8363678 C13.1834801,15.840735 13.1989993,15.8491201 13.2410734,15.8599507 L13.3238423,15.5109238 L13.1733064,15.8363678 L13.2591791,15.6506743 L13.1643398,15.8318259 L13.1733064,15.8363678 L13.2591791,15.6506743 L13.1643398,15.8318259 L13.1886531,15.7851842 L13.1626154,15.8309525 L13.1643398,15.8318259 L13.1886531,15.7851842 L13.1626154,15.8309525 C13.1676161,15.8333981 13.2098627,15.8615229 13.260731,15.8997796 C13.3522941,15.9682574 13.4823102,16.0725462 13.6216379,16.1878404 C13.8311466,16.3607817 14.0639341,16.5599261 14.2434391,16.7146998 C14.3332778,16.7924361 14.409839,16.8589922 14.4639837,16.906158 C14.5179559,16.9533238 14.5489942,16.9805752 14.5491666,16.9807499 C14.7298787,17.1395414 15.0028436,17.1260904 15.1675192,16.9503541 L16.3862909,15.6494515 C16.5480351,15.4766849 16.5509665,15.2078399 16.392671,15.0317542 C16.392671,15.0317542 16.3742205,15.011141 16.3411129,14.9742818 C16.2257538,14.8448379 15.9352005,14.5174723 15.6768926,14.2133403 C15.5479111,14.0615363 15.4265168,13.9147982 15.3428857,13.8066663 C15.3015013,13.7532117 15.268911,13.7083169 15.2540816,13.6857821 L15.2471842,13.6747767 L15.2470118,13.6742527 L15.0537119,13.7871012 L15.2594271,13.7009799 C15.2511502,13.6807161 15.2475291,13.6754755 15.2470118,13.6742527 L15.0537119,13.7871012 L15.2594271,13.7009799 L14.9180055,13.8438749 L15.2751187,13.7484951 C15.2690835,13.7254363 15.2635655,13.7112865 15.2594271,13.7009799 L14.9180055,13.8438749 L15.2751187,13.7484951 L14.8711031,13.8564524 L15.2887411,13.8564524 C15.2883962,13.8035219 15.2809815,13.7717286 15.2751187,13.7484951 L14.8711031,13.8564524 L15.2887411,13.8564524 L14.8535147,13.8564524 L15.2721873,13.9766378 C15.2858097,13.9275505 15.2885686,13.8878963 15.2887411,13.8564524 L14.8535147,13.8564524 L15.2721873,13.9766378 L14.8481692,13.8548802 L15.189246,14.1375256 C15.2328721,14.0838964 15.2589098,14.0252011 15.2721873,13.9766378 L14.8481692,13.8548802 L15.189246,14.1375256 L15.1911428,14.1352547 C15.8184619,13.3496821 16.2495498,12.4007761 16.435435,11.2658272 L16.4356074,11.2654778 L16.0022778,11.1924582 L16.3399059,11.4775492 C16.3737032,11.4363228 16.4183639,11.367321 16.4356074,11.2654778 L16.0022778,11.1924582 L16.3399059,11.4775492 L16.0133137,11.2018913 L16.2566197,11.5551108 C16.2774843,11.5399129 16.3054188,11.5187756 16.3399059,11.4775492 L16.0133137,11.2018913 L16.2566197,11.5551108 L16.0464212,11.2501053 L16.1840245,11.5954637 C16.1960949,11.5900484 16.2154077,11.5834102 16.2566197,11.5551108 L16.0464212,11.2501053 L16.1840245,11.5954637 L16.1193613,11.4331784 L16.1688502,11.6010538 L16.1840245,11.5954637 L16.1193613,11.4331784 L16.1688502,11.6010538 C16.170747,11.6000056 16.2188564,11.5886509 16.2800709,11.5783443 C16.3895672,11.5593033 16.552346,11.5367685 16.7292645,11.5152819 C16.995332,11.4827899 17.2964038,11.4515207 17.529881,11.4284619 C17.6466196,11.4169324 17.746632,11.4074993 17.8173304,11.4008611 C17.8880288,11.394223 17.9287235,11.3905545 17.928896,11.3905545 C18.160304,11.3699413 18.3372225,11.1741159 18.3372225,10.9386363 L17.8894083,10.9386363 L17.8499207,10.4867181 C17.8481963,10.4868928 17.3760688,10.5289926 16.8979061,10.5824472 C16.6582212,10.6089998 16.4181914,10.6383474 16.2281679,10.667695 C16.1322939,10.6825435 16.0507321,10.6968679 15.9760677,10.7146861 C15.9376146,10.7241193 15.9029552,10.732679 15.8520868,10.7529428 C15.8257042,10.7639482 15.7953556,10.7756523 15.745177,10.8102405 C15.7201739,10.8280587 15.6889631,10.851991 15.6517171,10.8967111 C15.6156782,10.9407326 15.569638,11.0123547 15.5520496,11.1168182 L15.5520496,11.1164688 C15.3866843,12.1118419 15.0262947,12.8954929 14.4941598,13.5654219 L14.4960566,13.5629763 C14.4513959,13.6183525 14.424496,13.6787946 14.4105288,13.7292794 C14.3963891,13.7802884 14.3932852,13.8223882 14.3931128,13.8564524 C14.3932852,13.9062385 14.4000102,13.9408268 14.4062179,13.9682528 C14.4191505,14.0211833 14.432428,14.0501816 14.4438087,14.0753366 C14.4660529,14.1223278 14.4850208,14.1520247 14.5053681,14.1836433 C14.5433038,14.2414651 14.5860678,14.2991122 14.6369361,14.3649696 C14.8123027,14.5915401 15.0816464,14.90528 15.3118474,15.1694085 C15.5413586,15.4323142 15.7293129,15.6414159 15.7301751,15.642464 L16.0614231,15.3371091 L15.7365552,15.0247667 L14.5177834,16.3256693 L14.8426513,16.6380117 L15.136136,16.2952736 C15.1349289,16.2942255 14.7866099,15.9879971 14.4208749,15.6793232 C14.2375763,15.5248989 14.050829,15.3701252 13.8964995,15.2494157 C13.8187313,15.1886242 13.7502745,15.1369165 13.6869908,15.0937685 C13.6547454,15.0719325 13.6249141,15.0525421 13.5864611,15.0315796 C13.5669759,15.0209236 13.5454215,15.0099182 13.5128313,14.997166 C13.4962775,14.9908772 13.4769647,14.9840644 13.4504097,14.9776009 C13.4236823,14.9713121 13.3900574,14.9644993 13.3393615,14.9641499 C13.307461,14.9643246 13.2683182,14.9672943 13.2214158,14.9796972 C13.1748583,14.9921 13.1195066,15.0155082 13.0669139,15.0551625 L13.0679485,15.0544637 C12.3402721,15.5996654 11.4694745,15.9631914 10.5260817,16.141024 C10.4245174,16.1609384 10.3569228,16.2070561 10.3151935,16.2425178 C10.2732917,16.2788529 10.2505303,16.309074 10.2332868,16.3335303 C10.2008689,16.3813949 10.1889709,16.4110918 10.1779351,16.436771 C10.1586223,16.4849849 10.1498281,16.5183504 10.1403442,16.5545108 C10.1237904,16.6205429 10.1103405,16.6905929 10.0962008,16.7721722 C10.047919,17.0537695 9.99722301,17.4667323 9.95687318,17.8171567 C9.91686822,18.166533 9.88807155,18.4488291 9.88807155,18.4500519 L10.3334716,18.4965189 L10.3334716,18.0426791 L8.56652841,18.0426791 L8.56652841,18.4965189 L9.01348037,18.4683941 C9.01330793,18.4671713 8.98451126,17.9937664 8.94778257,17.5163437 C8.92915957,17.2773704 8.90881222,17.0382223 8.88846487,16.8514807 C8.87794632,16.7573237 8.86811752,16.6776659 8.85604706,16.607616 C8.84949452,16.5714556 8.84380416,16.5400117 8.83018178,16.4935446 C8.82224976,16.4690883 8.81500749,16.4421863 8.78724542,16.3896052 C8.77207113,16.3632273 8.75275839,16.3284643 8.70516628,16.2804251 C8.68102536,16.2566675 8.64860755,16.2292415 8.60187762,16.2039117 C8.55583743,16.1785819 8.49307102,16.1563965 8.42254504,16.1513306 L8.42288991,16.1513306 C7.98145587,16.1179651 7.55519613,15.9888706 7.13497162,15.8002074 C6.71526442,15.6117189 6.3038341,15.3638364 5.89964606,15.1035511 L5.90240503,15.1054726 C5.85015717,15.0712338 5.79911636,15.0532409 5.75773192,15.0434583 C5.71583017,15.0338505 5.68237775,15.0321036 5.65547786,15.0319289 C5.6027127,15.0322783 5.57012245,15.0394405 5.54408474,15.0455546 C5.49459585,15.0581322 5.46976519,15.0698363 5.44717618,15.0799682 C5.4056193,15.0993586 5.37837455,15.1157792 5.34837083,15.1341215 C5.29370888,15.1678363 5.23611553,15.2073158 5.16990042,15.2543069 C4.94056165,15.417815 4.61258995,15.6716369 4.33634881,15.8884249 C4.06096985,16.1046888 3.8405977,16.2819973 3.83973552,16.2826961 L4.11821832,16.6380117 L4.42756702,16.3099474 L3.14792562,15.0708844 L2.83857692,15.3989487 L3.18482675,15.6868348 C3.18551649,15.6857867 3.48210498,15.319815 3.78041782,14.9395189 C3.92974668,14.7492835 4.07924797,14.5559037 4.19495197,14.3992085 C4.25306263,14.3204241 4.30237908,14.2517717 4.34255648,14.1908055 C4.36290383,14.1598857 4.38083709,14.1319356 4.39997739,14.096998 C4.40963376,14.0790051 4.41980743,14.0597894 4.43222277,14.029219 C4.43843043,14.0138464 4.44550028,13.9953295 4.45274255,13.9682528 C4.45946752,13.9408268 4.46843415,13.9055398 4.46895146,13.8447483 C4.46895146,13.8148766 4.46653737,13.7783668 4.45550151,13.7332973 C4.4446381,13.6885771 4.42411831,13.6344238 4.38669988,13.5802704 L4.38704475,13.5807945 C4.1220119,13.1980528 3.8749123,12.7983663 3.68885475,12.386801 C3.50245233,11.9748864 3.37709196,11.5533639 3.34570876,11.1189145 C3.34139788,11.0602193 3.32587872,11.0072887 3.30742815,10.9650142 C3.26914754,10.8811639 3.22517658,10.8374919 3.1934485,10.8077949 C3.12895775,10.7520694 3.09360854,10.7389678 3.06463943,10.7242939 C3.01049479,10.700711 2.97859428,10.6926754 2.9429002,10.6827182 C2.87858188,10.6659481 2.81133217,10.6530212 2.73166712,10.6388714 C2.45697789,10.5910069 2.04503027,10.5389498 1.69343496,10.4971994 C1.34304669,10.4556236 1.05818379,10.4255772 1.05697675,10.4254025 L1.01059169,10.8767967 L1.45840582,10.8767967 L1.45840582,9.01828952 L1.01059169,9.01828952 L1.03473261,9.47125588 C1.03593966,9.47125588 1.50082487,9.44575141 1.96898636,9.41360879 C2.20349819,9.39736279 2.43783759,9.3795446 2.62010156,9.36172641 C2.71166464,9.35281732 2.7889156,9.3442576 2.85530314,9.333951 C2.88961774,9.32853567 2.91893171,9.32381909 2.9615232,9.31263904 C2.98411221,9.30617558 3.00790826,9.30076025 3.05774203,9.27717735 C3.08326243,9.26390105 3.11671485,9.24800443 3.16827297,9.20171207 C3.19379338,9.17795448 3.22465927,9.1452878 3.25483543,9.09340542 C3.28466671,9.04257117 3.31242877,8.96815402 3.31587748,8.88377965 C3.33605239,8.42260294 3.4493423,7.94098773 3.62729539,7.49990016 C3.80455875,7.05881259 4.0470026,6.65860205 4.3103111,6.35796375 L4.3191053,6.34765715 C4.36755958,6.28878725 4.39359729,6.22677295 4.40704723,6.17733621 C4.42049718,6.1273754 4.4230837,6.08772119 4.42325614,6.05627732 C4.4225664,5.99932899 4.41497925,5.96910794 4.40980619,5.94552504 C4.39825304,5.90063019 4.38963128,5.88298668 4.38307874,5.86709006 C4.37031854,5.83826652 4.36290383,5.82551428 4.35531668,5.8120633 C4.34152187,5.78743227 4.3289341,5.76734313 4.31375981,5.74341085 C4.25840812,5.65641616 4.16943157,5.52557474 4.06165959,5.36905416 C3.73972312,4.90246212 3.26362962,4.23183433 3.26311231,4.23096089 L2.89944654,4.49596281 L3.21672725,4.81616618 L4.49636865,3.51508887 L4.17908794,3.1948855 L3.88594815,3.53797302 C3.88715519,3.53902115 4.22374865,3.83424411 4.57551639,4.13173802 C4.75174514,4.28057232 4.93107771,4.429756 5.07833735,4.54592362 C5.15248447,4.60426946 5.21766497,4.65388089 5.27698267,4.69528198 C5.30750369,4.71624456 5.33526575,4.73493619 5.3713047,4.7553747 C5.3899277,4.7656813 5.41010262,4.77651197 5.44165825,4.78961358 C5.45786716,4.79607704 5.47700746,4.80306457 5.50390735,4.81022678 C5.53132454,4.81703962 5.56598401,4.82507527 5.6213357,4.82542465 C5.65237403,4.82524996 5.69117194,4.82262964 5.73928136,4.80987741 C5.78687346,4.79712517 5.84481168,4.77231945 5.89947363,4.72952086 L5.89999094,4.72899679 C6.60576809,4.17348849 7.48915346,3.81834749 8.43289115,3.68174136 L8.43185654,3.68174136 C8.51290107,3.67021194 8.57428799,3.63911745 8.61584486,3.61151673 C8.69844131,3.55386964 8.72327198,3.51072167 8.7439642,3.48189812 C8.76275963,3.4527252 8.77155382,3.43403357 8.77845123,3.41901039 C8.79138387,3.38966278 8.79603962,3.37446491 8.80017806,3.3613633 C8.80759277,3.33690696 8.81052417,3.32345597 8.813628,3.30965561 C8.82449142,3.26039355 8.83242344,3.21165556 8.84328685,3.14282843 C8.88001555,2.90892101 8.93640185,2.49141634 8.98451126,2.12719155 C9.03244824,1.76384021 9.07141858,1.45691314 9.07141858,1.45638908 L8.62739802,1.39839261 L8.62739802,1.85205772 L10.4553833,1.85205772 L10.4553833,1.39839261 L10.0094659,1.44101652 C10.0096383,1.44171527 10.0527471,1.90516292 10.0998219,2.37088152 C10.1232731,2.6039155 10.1477589,2.83712418 10.168796,3.01600484 C10.1793146,3.10579455 10.1887985,3.18108514 10.1977651,3.24117786 C10.2022484,3.27192297 10.2062144,3.29725275 10.2125945,3.32817255 C10.2163881,3.34441855 10.2193195,3.36014049 10.2301829,3.39350592 C10.2363906,3.41114942 10.2424258,3.432112 10.2662219,3.47595873 C10.2789821,3.49814412 10.2953634,3.52714235 10.3345062,3.56906751 C10.3543362,3.5898554 10.3805464,3.61413705 10.4193443,3.63894277 C10.4577974,3.66357379 10.5107349,3.68890358 10.5771225,3.70130643 L10.5766052,3.70113175 C11.5158596,3.87616927 12.3930373,4.20912487 13.0539813,4.76690412 L13.0643274,4.77563853 C13.1708923,4.85791665 13.2726291,4.87154232 13.3412583,4.87206638 C13.3974721,4.87171701 13.431097,4.86333198 13.4567898,4.85686852 C13.5064512,4.84289346 13.5273158,4.83171342 13.5454215,4.8231537 C13.5783566,4.80638364 13.5924963,4.79642642 13.6071533,4.78699326 C13.6333634,4.76917507 13.6533659,4.75415189 13.6766447,4.73615901 C13.7611379,4.67100033 13.8823598,4.5696812 14.0273778,4.44652606 C14.4591555,4.07968096 15.0744042,3.53832239 15.0754388,3.53744895 L14.7817817,3.1948855 L14.4572587,3.50757728 L15.7369001,4.87066888 L16.0614231,4.5579771 L15.7112072,4.27515699 C15.7105175,4.27603043 15.4272065,4.63623739 15.1426885,5.00675095 C15.000257,5.19226976 14.8576532,5.38005951 14.7479844,5.52941788 C14.6929776,5.60453378 14.6465925,5.66916839 14.6095189,5.72436985 C14.5905511,5.75249464 14.5745146,5.77712567 14.5570987,5.80699734 C14.5483045,5.8223699 14.5391654,5.83844121 14.5267501,5.86551787 C14.5205424,5.87949292 14.5133001,5.89608829 14.5048508,5.92299027 C14.4970912,5.95111506 14.484331,5.985878 14.4829515,6.06466235 C14.4838137,6.11759286 14.4891592,6.20231661 14.5505461,6.30555731 L14.5500288,6.30450918 C15.0276742,7.0911299 15.3261595,7.81783258 15.5818809,8.88028588 C15.5980898,8.94806488 15.6265416,9.00064602 15.6530966,9.03820397 C15.7074137,9.11262112 15.7512122,9.14022184 15.7819057,9.16135911 C15.8427753,9.19874237 15.8712271,9.2057299 15.8969199,9.21516306 C15.9436499,9.23001155 15.9724465,9.23542688 16.0057265,9.24189035 C16.065734,9.25307039 16.1314318,9.26197948 16.2093725,9.27158733 C16.4787162,9.30390464 16.8861805,9.33744476 17.2326028,9.36399736 C17.5783353,9.39037527 17.8592322,9.40889221 17.8602668,9.4090669 L17.8894083,8.95627523 L17.4415942,8.95627523 L17.4415942,10.9386363 L17.8894083,10.9386363 L17.8499207,10.4867181 L17.8894083,10.9386363 Z" id="Fill-1"></path>
                                <path d="M9.45,5.7802769 L9.45,5.33062966 C8.207969,5.33028338 7.07951297,5.83550889 6.2666009,6.64961799 C5.45282052,7.46286138 4.94850592,8.59070201 4.94867958,9.83195001 C4.94850592,11.0730249 5.45282052,12.2008655 6.2666009,13.014282 C7.07951297,13.828218 8.207969,14.3334435 9.45,14.3332704 C10.692031,14.3334435 11.820487,13.828218 12.6333991,13.014282 C13.4471795,12.2008655 13.9514941,11.0730249 13.9513204,9.83195001 C13.9514941,8.59070201 13.4471795,7.46286138 12.6333991,6.64961799 C11.820487,5.83550889 10.692031,5.33028338 9.45,5.33062966 L9.45,5.7802769 L9.45,6.22992414 C10.4449099,6.23027043 11.3417007,6.6319576 11.9944964,7.28452612 C12.6467711,7.93744093 13.0489724,8.83552342 13.0493197,9.83195001 C13.0489724,10.8285498 12.6467711,11.726286 11.9944964,12.3793739 C11.3417007,13.0317693 10.4449099,13.4336296 9.45,13.4338027 C8.4550901,13.4336296 7.55829926,13.0317693 6.9055036,12.3793739 C6.25322893,11.726286 5.85102761,10.8285498 5.85068029,9.83195001 C5.85102761,8.83552342 6.25322893,7.93744093 6.9055036,7.28452612 C7.55829926,6.6319576 8.4550901,6.23027043 9.45,6.22992414 L9.45,5.7802769 Z" id="Fill-3"></path>
                            </g>
                        </g>
                        <g id="misc/confetti/circle" opacity="0.8" transform="translate(110.847036, 101.051410) rotate(-332.000000) translate(-110.847036, -101.051410) translate(100.847036, 90.896238)">
                            <circle id="Oval" stroke="#5071FF" stroke-width="2" cx="10" cy="10" r="9"></circle>
                            <circle id="Oval-2" fill="#5071FF" fill-rule="evenodd" cx="10" cy="10" r="2.63157895"></circle>
                        </g>
                        <g id="misc/confetti/circle-grid" opacity="0.82" transform="translate(1162.398242, 344.538980) rotate(-347.000000) translate(-1162.398242, -344.538980) translate(1154.898242, 336.922600)" fill="#FF3B30">
                            <g id="Group" transform="translate(0.789474, 0.789474)">
                                <path d="M12.7781488,7.81331164 L13.098016,7.81331164 L13.098016,6.39733945 C13.098016,6.22614507 12.9675811,6.085022 12.7989642,6.07391682 C12.7987178,6.07391682 12.7169343,6.0685514 12.5931505,6.05969222 C12.4075363,6.04634105 12.1281914,6.02537848 11.8974977,6.00404157 C11.782582,5.99356028 11.6789978,5.98257988 11.6099005,5.97334636 C11.5759062,5.96885438 11.549425,5.9643624 11.5424045,5.9627403 L11.5411728,5.96249074 L11.4992957,6.14391686 L11.5677771,5.9714747 C11.54573,5.9627403 11.5416655,5.96286507 11.5411728,5.96249074 L11.4992957,6.14391686 L11.5677771,5.9714747 L11.4585271,6.24685809 L11.6260355,6.00366723 C11.5954899,5.9824551 11.5793549,5.97646579 11.5677771,5.9714747 L11.4585271,6.24685809 L11.6260355,6.00366723 L11.4476883,6.26258002 L11.6845403,6.05719667 C11.6608921,6.0296209 11.6414315,6.01452285 11.6260355,6.00366723 L11.4476883,6.26258002 L11.6845403,6.05719667 L11.4438701,6.26582423 L11.7516669,6.19008444 C11.7362709,6.12707193 11.7073264,6.08452289 11.6845403,6.05719667 L11.4438701,6.26582423 L11.7516669,6.19008444 C11.5595248,5.38389865 11.311834,4.77610868 10.9374034,4.16295329 L10.9369107,4.16220463 L10.6670496,4.33190168 L10.9846999,4.33190168 C10.9842072,4.29509239 10.980389,4.23532409 10.9369107,4.16220463 L10.6670496,4.33190168 L10.9846999,4.33190168 L10.6748092,4.33190168 L10.9702892,4.42685717 C10.9749696,4.40938835 10.9837145,4.38642934 10.9846999,4.33190168 L10.6748092,4.33190168 L10.9702892,4.42685717 L10.7218594,4.34699973 L10.9520603,4.47152742 C10.9546469,4.46566289 10.9596968,4.45880014 10.9702892,4.42685717 L10.7218594,4.34699973 L10.9520603,4.47152742 L10.8473676,4.41487855 L10.9499665,4.47552029 L10.9520603,4.47152742 L10.8473676,4.41487855 L10.9499665,4.47552029 L10.950336,4.47477163 C10.9546469,4.46740977 10.9748464,4.4370889 11.0014507,4.40015484 C11.0964132,4.26714229 11.2789482,4.02819386 11.435002,3.82667861 C11.5130905,3.72560904 11.5851438,3.63327388 11.6376133,3.56614372 C11.6899597,3.49913834 11.7225992,3.45771229 11.7225992,3.45758751 C11.8218726,3.33143772 11.8139899,3.14926294 11.7042472,3.03234666 L10.7902176,2.0587098 C10.672469,1.93330867 10.4776173,1.92395037 10.3486604,2.03737289 C10.3484141,2.03749767 10.2869533,2.09177577 10.1935919,2.17338009 C10.0536731,2.29578657 9.84256319,2.47970823 9.66458546,2.63181169 C9.57565818,2.70767626 9.49473682,2.77592941 9.43709421,2.82297044 C9.40839607,2.84630378 9.38511732,2.86477081 9.37292369,2.87387955 L9.36688846,2.87824676 L9.36639579,2.87862109 L9.46653135,3.02760512 L9.38043694,2.87001146 C9.36885915,2.87662465 9.36688846,2.87837153 9.36639579,2.87862109 L9.46653135,3.02760512 L9.38043694,2.87001146 L9.51937042,3.12418271 L9.41221427,2.85478863 C9.39472442,2.86202571 9.38659534,2.86664247 9.38043694,2.87001146 L9.51937042,3.12418271 L9.41221427,2.85478863 L9.52762267,3.14502051 L9.44965734,2.84231091 C9.43229066,2.84692767 9.42108237,2.85117009 9.41221427,2.85478863 L9.52762267,3.14502051 L9.44965734,2.84231091 L9.52947019,3.15200804 L9.52947019,2.8319544 C9.49042594,2.83232873 9.46714719,2.83781893 9.44965734,2.84231091 L9.52947019,3.15200804 L9.52947019,2.8319544 L9.52947019,3.15487791 L9.72567678,2.90045711 C9.64992847,2.8418118 9.57775204,2.83232873 9.52947019,2.8319544 L9.52947019,3.15487791 L9.72567678,2.90045711 L9.52873118,3.15575135 L9.73319003,2.90657119 C9.14259957,2.41033208 8.41036594,2.14505565 7.67086539,2.00630336 L7.67049589,2.00617858 L7.61285327,2.32423578 L7.78270192,2.0504745 C7.75535863,2.03300569 7.71766922,2.01503776 7.67049589,2.00617858 L7.61285327,2.32423578 L7.78270192,2.0504745 L7.61359228,2.32311279 L7.87347672,2.13756902 C7.85808072,2.11698077 7.83714216,2.08641035 7.78270192,2.0504745 L7.61359228,2.32311279 L7.87347672,2.13756902 L7.62073603,2.31799692 L7.91067345,2.2089416 C7.90513089,2.19583999 7.90106634,2.17911984 7.87347672,2.13756902 L7.62073603,2.31799692 L7.91067345,2.2089416 L7.68281269,2.29466357 L7.92028055,2.2407598 C7.91917204,2.23739082 7.91904887,2.23264928 7.91067345,2.2089416 L7.68281269,2.29466357 L7.92028055,2.2407598 L7.87754126,2.25036765 L7.92052689,2.2418828 L7.92028055,2.2407598 L7.87754126,2.25036765 L7.92052689,2.2418828 C7.91941837,2.23701649 7.91399898,2.20232841 7.90857959,2.15878115 C7.88850321,2.00193615 7.85758805,1.70109821 7.83221544,1.44355797 C7.81952914,1.3145383 7.80807452,1.19562558 7.79994543,1.10915495 C7.79169318,1.02255954 7.78664329,0.968655771 7.78664329,0.968530994 C7.77112413,0.802078147 7.63317599,0.674805355 7.4681309,0.674805355 L6.16242716,0.674805355 C6.00120027,0.674805355 5.8657155,0.795464953 5.84514644,0.957425819 C5.84502328,0.957675374 5.83480033,1.03878058 5.81891167,1.16106229 C5.79526341,1.34448484 5.7591752,1.619993 5.72752103,1.84833536 C5.71175552,1.96238176 5.69697537,2.06507344 5.68589025,2.13644602 C5.68034769,2.17188276 5.67554414,2.2002072 5.67283444,2.21418225 L5.67147959,2.221045 L5.67147959,2.22129455 L5.87310558,2.26846035 L5.67714532,2.20157975 C5.67197227,2.21755123 5.6718491,2.22017156 5.67147959,2.22129455 L5.87310558,2.26846035 L5.67714532,2.20157975 L5.9633877,2.29940511 L5.69759121,2.15416439 C5.68318055,2.18174016 5.68034769,2.19284534 5.67714532,2.20157975 L5.9633877,2.29940511 L5.69759121,2.15416439 L5.97582767,2.30614308 L5.74205485,2.09065277 C5.7153274,2.12097365 5.70559712,2.13993979 5.69759121,2.15416439 L5.97582767,2.30614308 L5.74205485,2.09065277 L5.97779836,2.30788996 L5.80400834,2.03724811 C5.77407852,2.0570877 5.75572649,2.07555473 5.74205485,2.09065277 L5.97779836,2.30788996 L5.80400834,2.03724811 L5.97816786,2.30838907 L5.93358105,1.98808588 C5.87667745,1.99632118 5.83344549,2.01778286 5.80400834,2.03724811 L5.97816786,2.30838907 L5.93358105,1.98808588 L5.93284205,1.98808588 C5.161441,2.10001107 4.42612816,2.39111638 3.8221124,2.86589381 L3.8224819,2.86551948 L4.01597879,3.11894207 L3.93431842,2.80936972 C3.90130941,2.8182289 3.86078714,2.83544816 3.8224819,2.86551948 L4.01597879,3.11894207 L3.93431842,2.80936972 L4.01523979,3.11594741 L4.01523979,2.79863887 C3.99430123,2.79876365 3.96769695,2.80051053 3.93431842,2.80936972 L4.01523979,3.11594741 L4.01523979,2.79863887 L4.01523979,3.10621479 L4.09098809,2.80824672 C4.07448358,2.80412907 4.05243652,2.79888843 4.01523979,2.79863887 L4.01523979,3.10621479 L4.09098809,2.80824672 L4.02644807,3.06179409 L4.14013212,2.82633942 C4.13286521,2.82297044 4.12227276,2.81685635 4.09098809,2.80824672 L4.02644807,3.06179409 L4.14013212,2.82633942 L4.09431363,2.92117013 L4.14776853,2.83033229 L4.14013212,2.82633942 L4.09431363,2.92117013 L4.14776853,2.83033229 C4.144443,2.82858541 4.11549852,2.80899538 4.08076515,2.78229305 C4.01819582,2.73500248 3.9290222,2.66300601 3.83319751,2.5835229 C3.68933731,2.46423585 3.52909577,2.32710566 3.40531196,2.22029633 C3.34335846,2.16689167 3.29064257,2.12097365 3.25332267,2.08853156 C3.21600277,2.0559647 3.19457154,2.03712334 3.19444838,2.03712334 C3.06758536,1.92569725 2.8770445,1.93280956 2.75843373,2.05334438 L1.84440416,2.98256053 C1.73404565,3.09486006 1.7200045,3.27191897 1.81139514,3.40056431 C1.81151831,3.40081387 1.85918432,3.46781925 1.93099125,3.56963748 C2.03876323,3.72211528 2.20060596,3.95183019 2.33448955,4.1453597 C2.40149293,4.24193729 2.4615989,4.32978047 2.50359918,4.39254342 C2.52441457,4.42373774 2.54091908,4.44931707 2.54978718,4.4634169 L2.55446756,4.47127787 L2.55520657,4.47252564 L2.60102505,4.4453242 L2.55446756,4.47115309 L2.55520657,4.47252564 L2.60102505,4.4453242 L2.55446756,4.47115309 L2.75621671,4.35872879 L2.54559946,4.45293561 C2.55101886,4.46516378 2.55335905,4.4689071 2.55446756,4.47115309 L2.75621671,4.35872879 L2.54559946,4.45293561 L2.81743119,4.33140257 L2.53426801,4.42211563 C2.5393179,4.43808712 2.54288977,4.44644719 2.54559946,4.45293561 L2.81743119,4.33140257 L2.53426801,4.42211563 L2.83122601,4.32703537 L2.52589259,4.38942399 C2.52884862,4.40389815 2.53168148,4.41400511 2.53426801,4.42211563 L2.83122601,4.32703537 L2.52589259,4.38942399 L2.83615273,4.32591237 L2.51961102,4.32591237 C2.51973419,4.35585891 2.52305972,4.37470028 2.52589259,4.38942399 L2.83615273,4.32591237 L2.51961102,4.32591237 L2.83824658,4.32591237 L2.53106564,4.24019041 C2.52158171,4.27575192 2.51973419,4.3038268 2.51961102,4.32591237 L2.83824658,4.32591237 L2.53106564,4.24019041 L2.83886242,4.32616193 L2.59363498,4.11915648 C2.55914794,4.16095685 2.54054958,4.205128 2.53106564,4.24019041 L2.83886242,4.32616193 L2.59363498,4.11915648 L2.83935509,4.32653626 L2.59991654,4.11166984 C2.35641345,4.39054699 2.15084609,4.73455786 1.9984873,5.11225858 C1.84662119,5.48995931 1.74796363,5.90147467 1.7292421,6.31648379 L2.04701549,6.33095795 L1.77235089,6.16862275 C1.75141234,6.20443382 1.73170546,6.25684027 1.7292421,6.31660857 L2.04701549,6.33095795 L1.77235089,6.16862275 L2.04529114,6.32995973 L1.83221053,6.09350685 C1.81472068,6.10985267 1.79328945,6.13256213 1.77235089,6.16862275 L2.04529114,6.32995973 L1.83221053,6.09350685 L2.03987174,6.32397043 L1.90475647,6.04347118 C1.88911414,6.05170647 1.86731341,6.06193821 1.83221053,6.09350685 L2.03987174,6.32397043 L1.90475647,6.04347118 L2.01893319,6.28067272 L1.95131397,6.02537848 C1.94478606,6.02762447 1.93480946,6.02912179 1.90475647,6.04347118 L2.01893319,6.28067272 L1.95131397,6.02537848 L1.98567783,6.15514681 L1.95673336,6.0241307 L1.95131397,6.02537848 L1.98567783,6.15514681 L1.95673336,6.0241307 L1.95661019,6.0241307 C1.95008229,6.02550325 1.91473308,6.03086867 1.87039261,6.03561021 C1.71089007,6.05332858 1.41479425,6.07441593 1.16439375,6.0905122 C1.03876241,6.09849794 0.923600353,6.10536069 0.839969296,6.11035178 C0.756461406,6.11521809 0.704730855,6.11796319 0.704607687,6.11808797 C0.535005381,6.12732149 0.401983964,6.26944277 0.401983964,6.44163537 L0.401983964,7.7691405 C0.401983964,7.93534379 0.525521446,8.07422087 0.68859585,8.09144013 C0.688719018,8.09144013 0.709164903,8.09356134 0.745499456,8.09742944 C0.872978314,8.11140449 1.19358456,8.146966 1.47921111,8.18452395 C1.62171646,8.20324054 1.75621589,8.22258101 1.84859187,8.23905161 C1.89404086,8.24703735 1.93049858,8.25489832 1.94293854,8.25826731 L1.94601774,8.25914075 L1.94700309,8.25589654 L1.94589458,8.25914075 L1.94601774,8.25914075 L1.94700309,8.25589654 L1.94589458,8.25914075 L2.00846391,8.06062015 L1.91017586,8.24304448 C1.93702648,8.25739387 1.94367755,8.25801775 1.94589458,8.25914075 L2.00846391,8.06062015 L1.91017586,8.24304448 L2.05194221,7.97976449 L1.84526634,8.19425658 C1.87679734,8.22457745 1.89650422,8.23505874 1.91017586,8.24304448 L2.05194221,7.97976449 L1.84526634,8.19425658 L2.06302732,7.96816021 L1.79218094,8.12438132 C1.81090247,8.15757207 1.82974717,8.1787842 1.84526634,8.19425658 L2.06302732,7.96816021 L1.79218094,8.12438132 L2.0665992,7.96616377 L1.75165867,7.98962189 C1.75560005,8.04502299 1.77358257,8.09168968 1.79218094,8.12438132 L2.0665992,7.96616377 L1.75165867,7.98962189 C1.78121899,8.39514795 1.89675055,8.77197523 2.05329705,9.11785776 C2.21008989,9.46398984 2.40802083,9.7811736 2.60964681,10.0726533 L2.61001632,10.0730276 L2.86916174,9.88835726 L2.5616113,9.96584393 C2.56924772,9.99691346 2.5835352,10.0350953 2.61001632,10.0730276 L2.86916174,9.88835726 L2.5616113,9.96584393 L2.86669838,9.88910592 L2.5523737,9.88910592 C2.55249687,9.90931984 2.55409805,9.93440006 2.5616113,9.96584393 L2.86669838,9.88910592 L2.5523737,9.88910592 L2.85746079,9.88910592 L2.56284298,9.80849982 C2.55865527,9.8250952 2.55274321,9.8475551 2.5523737,9.88910592 L2.85746079,9.88910592 L2.56284298,9.80849982 L2.80979478,9.87600431 L2.57996333,9.76133402 C2.57713047,9.76794722 2.57158791,9.77718073 2.56284298,9.80849982 L2.80979478,9.87600431 L2.57996333,9.76133402 L2.69771192,9.82010411 L2.58267303,9.75609338 L2.57996333,9.76133402 L2.69771192,9.82010411 L2.58267303,9.75609338 L2.58599856,9.75808981 L2.58267303,9.7559686 L2.58267303,9.75609338 L2.58599856,9.75808981 L2.58267303,9.7559686 C2.57947066,9.76183313 2.55914794,9.793277 2.53192782,9.83120928 C2.43437878,9.96833947 2.24346841,10.2131524 2.08064034,10.418411 C1.99897998,10.521477 1.92384751,10.6154343 1.86903776,10.6835627 C1.81422801,10.751691 1.78035681,10.7936162 1.78023365,10.793741 C1.67430918,10.9245075 1.68576381,11.1166645 1.80646842,11.2335808 L2.72049799,12.1186258 C2.83566005,12.2300519 3.01560847,12.2385367 3.14037763,12.138091 C3.14037763,12.138091 3.1558968,12.1256133 3.18385593,12.1032782 C3.28152814,12.0252924 3.52786409,11.8291426 3.75560169,11.6540801 C3.86916256,11.5668608 3.9786589,11.4846326 4.05933392,11.427235 C4.09936352,11.3986611 4.13286521,11.3760764 4.15109407,11.3647216 L4.16082434,11.3589819 L4.16193285,11.3582332 L4.09566848,11.2340799 L4.14764536,11.3648464 C4.15983899,11.3597306 4.16193285,11.3582332 4.16193285,11.3582332 L4.09566848,11.2340799 L4.14764536,11.3648464 L4.04960365,11.1181618 L4.11722287,11.3750782 C4.1324957,11.3708357 4.1413638,11.367342 4.14764536,11.3648464 L4.04960365,11.1181618 L4.11722287,11.3750782 L4.03962705,11.0804791 L4.03962705,11.3851851 C4.08014931,11.3848108 4.10158054,11.3788215 4.11722287,11.3750782 L4.03962705,11.0804791 L4.03962705,11.3851851 L4.03962705,11.0683757 L3.96991397,11.3771994 C3.99885844,11.3838126 4.02152135,11.3850603 4.03962705,11.3851851 L4.03962705,11.0683757 L3.96991397,11.3771994 L4.04036605,11.0651315 L3.86891623,11.3340264 C3.90562028,11.3579837 3.94121583,11.3705862 3.96991397,11.3771994 L4.04036605,11.0651315 L3.86891623,11.3340264 L3.87101008,11.335399 C4.1698156,11.527556 4.48968284,11.7220837 4.83713971,11.8783048 C5.18435024,12.0344011 5.56112109,12.1520661 5.9688071,12.1830108 L5.96905343,12.1830108 L5.99245535,11.8624581 L5.84305259,12.1460768 C5.8753226,12.1636704 5.91941674,12.1793923 5.96905343,12.1830108 L5.99245535,11.8624581 L5.84305259,12.1460768 L5.99060783,11.8659518 L5.73601962,12.0513708 C5.75313996,12.0739555 5.77851257,12.1096418 5.84305259,12.1460768 L5.99060783,11.8659518 L5.73601962,12.0513708 L5.97730569,11.8756845 L5.70732148,12.0014599 C5.7126177,12.0129394 5.71976144,12.0280375 5.73601962,12.0513708 L5.97730569,11.8756845 L5.70732148,12.0014599 L5.92151059,11.9016381 L5.69426567,11.9665223 C5.69586685,11.9712638 5.69759121,11.9796239 5.70732148,12.0014599 L5.92151059,11.9016381 L5.69426567,11.9665223 L5.78688799,11.9400695 L5.6934035,11.9629038 L5.69426567,11.9665223 L5.78688799,11.9400695 L5.6934035,11.9629038 L5.69451201,11.9685187 C5.69759121,11.9844902 5.70325693,12.0230464 5.70879949,12.0708361 C5.72887587,12.241157 5.75215462,12.5356313 5.76964447,12.7821912 C5.77851257,12.9058454 5.78590265,13.0185193 5.79119887,13.0999988 C5.79649509,13.1814784 5.79957429,13.2316388 5.79957429,13.2317636 C5.81004357,13.4024589 5.94996239,13.535721 6.11894886,13.535721 L7.38105114,13.535721 C7.54511089,13.535721 7.68244318,13.4101951 7.6993172,13.2448652 C7.6993172,13.2447404 7.70141105,13.224277 7.70510609,13.1877172 C7.7185314,13.0596958 7.7531416,12.7371466 7.790092,12.4491607 C7.80856719,12.3056669 7.82790457,12.1697844 7.84440907,12.0767006 C7.85241499,12.0307826 7.86042091,11.9940981 7.86386962,11.9816204 L7.86473179,11.9786257 L7.86079042,11.9773779 L7.86473179,11.9787505 L7.86473179,11.9786257 L7.86079042,11.9773779 L7.86473179,11.9787505 L7.6743141,11.9152389 L7.84908946,12.0134385 C7.86263794,11.9877344 7.86362328,11.9808717 7.86473179,11.9787505 L7.6743141,11.9152389 L7.84908946,12.0134385 L7.59339273,11.8698199 L7.80524166,12.073706 C7.83147644,12.045132 7.84157621,12.0265402 7.84908946,12.0134385 L7.59339273,11.8698199 L7.80524166,12.073706 L7.5808296,11.8575918 L7.74673687,12.1223691 C7.77383382,12.1049003 7.79181635,12.0879306 7.80524166,12.073706 L7.5808296,11.8575918 L7.74673687,12.1223691 L7.5781199,11.8533493 L7.63563935,12.166665 C7.68256635,12.157681 7.71988625,12.1395883 7.74673687,12.1223691 L7.5781199,11.8533493 L7.63563935,12.166665 C8.39361509,12.0236703 9.10761986,11.7289464 9.71459166,11.2743829 L9.71533067,11.273759 L9.52725317,11.0175913 L9.60817453,11.3261655 C9.6401982,11.3176806 9.67862661,11.3014596 9.71533067,11.273759 L9.52725317,11.0175913 L9.60817453,11.3261655 L9.52811534,11.0212099 L9.52811534,11.3367715 C9.5494234,11.3367715 9.57590452,11.3348999 9.60817453,11.3261655 L9.52811534,11.0212099 L9.52811534,11.3367715 L9.52811534,11.0324398 L9.45790959,11.3285362 C9.47355193,11.3321548 9.49461365,11.336522 9.52811534,11.3367715 L9.52811534,11.0324398 L9.45790959,11.3285362 L9.51703022,11.0792313 L9.40950458,11.3116913 C9.41677149,11.3148107 9.42785661,11.3208001 9.45790959,11.3285362 L9.51703022,11.0792313 L9.40950458,11.3116913 L9.47084223,11.1790531 L9.40309984,11.3084471 L9.40950458,11.3116913 L9.47084223,11.1790531 L9.40309984,11.3084471 L9.42046653,11.2751316 L9.40186816,11.3078232 L9.40309984,11.3084471 L9.42046653,11.2751316 L9.40186816,11.3078232 C9.40544004,11.3095701 9.43561619,11.3296592 9.47195074,11.3569855 C9.53735294,11.4058981 9.6302216,11.4803902 9.72974132,11.5627431 C9.87939042,11.6862726 10.0456672,11.8285187 10.1738851,11.9390713 C10.2380556,11.9945972 10.2927422,12.0421373 10.3314169,12.0758272 C10.3699685,12.109517 10.3921387,12.1289823 10.3922619,12.1291071 C10.5213419,12.2425296 10.7163168,12.2329217 10.8339423,12.1073958 L11.7044935,11.1781797 C11.8200251,11.054775 11.8221189,10.8627428 11.7090507,10.7369673 C11.7090507,10.7369673 11.6958718,10.7222436 11.6722235,10.6959156 C11.5898241,10.6034557 11.3822861,10.3696231 11.1977805,10.1523859 C11.1056508,10.0439545 11.0189406,9.9391416 10.9592041,9.86190448 C10.9296438,9.82372265 10.906365,9.79165489 10.8957726,9.77555863 L10.8908459,9.76769766 L10.8907227,9.76732333 L10.7526514,9.84792943 L10.8995908,9.78641425 C10.8936787,9.77194009 10.8910922,9.76819677 10.8907227,9.76732333 L10.7526514,9.84792943 L10.8995908,9.78641425 L10.6557182,9.88848204 L10.9107991,9.82035366 C10.9064882,9.80388306 10.9025468,9.79377611 10.8995908,9.78641425 L10.6557182,9.88848204 L10.9107991,9.82035366 L10.6222165,9.897466 L10.9205293,9.897466 C10.920283,9.85965849 10.9149868,9.83694903 10.9107991,9.82035366 L10.6222165,9.897466 L10.9205293,9.897466 L10.6096534,9.897466 L10.9087052,9.98331274 C10.9184355,9.94825034 10.9204062,9.9199259 10.9205293,9.897466 L10.6096534,9.897466 L10.9087052,9.98331274 L10.6058352,9.896343 L10.8494614,10.0982326 C10.8806229,10.059926 10.8992213,10.0180008 10.9087052,9.98331274 L10.6058352,9.896343 L10.8494614,10.0982326 L10.8508163,10.0966105 C11.2989014,9.53548721 11.6068213,8.8576972 11.7395964,8.04701943 L11.7397196,8.04676987 L11.4301984,7.99461298 L11.6713613,8.19824945 C11.6955023,8.16880202 11.7274028,8.11951501 11.7397196,8.04676987 L11.4301984,7.99461298 L11.6713613,8.19824945 L11.4380812,8.00135096 L11.6118712,8.25365055 C11.6267745,8.24279493 11.6467277,8.22769688 11.6713613,8.19824945 L11.4380812,8.00135096 L11.6118712,8.25365055 L11.4617294,8.03578948 L11.5600175,8.28247409 C11.5686392,8.278606 11.5824341,8.27386446 11.6118712,8.25365055 L11.4617294,8.03578948 L11.5600175,8.28247409 L11.5138295,8.16655603 L11.5491787,8.28646696 L11.5600175,8.28247409 L11.5138295,8.16655603 L11.5491787,8.28646696 C11.5505336,8.2857183 11.5848974,8.27760778 11.6286221,8.27024592 C11.7068337,8.2566452 11.8231043,8.24054894 11.9494746,8.22520134 C12.1395228,8.20199277 12.3545741,8.17965764 12.5213436,8.16318704 C12.6047283,8.15495175 12.6761657,8.14821378 12.7266646,8.14347224 C12.7771635,8.1387307 12.8062311,8.13611038 12.8063543,8.13611038 C12.9716457,8.12138667 13.098016,7.98151137 13.098016,7.81331164 L12.7781488,7.81331164 L12.7499433,7.49051291 C12.7487116,7.49063768 12.4114777,7.520709 12.0699329,7.55889084 C11.8987294,7.57785698 11.7272796,7.59881956 11.5915485,7.61978214 C11.5230671,7.6303882 11.4648086,7.64061994 11.4114769,7.65334721 C11.3840104,7.66008519 11.3592537,7.66619927 11.3229191,7.68067343 C11.3040744,7.6885344 11.2823969,7.69689447 11.246555,7.72160037 C11.2286956,7.73432765 11.2064022,7.75142213 11.1797979,7.78336511 C11.1540558,7.81480897 11.12117,7.86596764 11.1086068,7.94058444 L11.1086068,7.94033488 C10.9904888,8.65131563 10.7330677,9.21106636 10.3529713,9.68958711 L10.3543261,9.68784022 C10.3224256,9.72739461 10.3032114,9.77056754 10.2932348,9.80662816 C10.2831351,9.84306312 10.280918,9.87313444 10.2807949,9.897466 C10.280918,9.93302751 10.2857216,9.95773341 10.2901556,9.97732344 C10.2993932,10.0151309 10.3088772,10.035844 10.3170062,10.0538119 C10.3328949,10.087377 10.3464434,10.1085891 10.3609772,10.1311738 C10.3880742,10.1724751 10.4186198,10.2136515 10.4549544,10.2606926 C10.5802162,10.4225287 10.7726046,10.6466286 10.9370339,10.8352918 C11.1009704,11.0230815 11.2352235,11.1724399 11.2358394,11.1731886 L11.4724451,10.9550779 L11.2403966,10.7319762 L10.3698453,11.6611924 L10.6018938,11.8842941 L10.8115257,11.6394811 C10.8106635,11.6387325 10.5618642,11.419998 10.3006249,11.1995166 C10.1696973,11.0892135 10.0363064,10.9786608 9.92607108,10.8924398 C9.87052232,10.8490173 9.82162464,10.8120832 9.77642199,10.7812632 C9.75338958,10.7656661 9.73208152,10.7518158 9.70461506,10.7368425 C9.69069707,10.7292311 9.67530108,10.7213702 9.65202233,10.7122614 C9.6401982,10.7077694 9.62640339,10.7029031 9.60743552,10.6982864 C9.58834448,10.6937944 9.56432673,10.6889281 9.52811534,10.6886785 C9.50532927,10.6888033 9.47737014,10.6909245 9.44386845,10.6997837 C9.41061309,10.7086429 9.37107617,10.725363 9.33350994,10.7536875 L9.33424894,10.7531884 C8.81448007,11.1426181 8.19248178,11.4022796 7.51862977,11.5293028 C7.44608383,11.5435274 7.39780198,11.5764686 7.36799533,11.6017984 C7.33806551,11.6277521 7.32180734,11.6493385 7.30949054,11.6668074 C7.28633496,11.7009963 7.27783637,11.7222085 7.26995362,11.7405507 C7.25615881,11.7749892 7.24987724,11.7988217 7.243103,11.8246506 C7.23127888,11.8718164 7.22167177,11.9218521 7.211572,11.980123 C7.17708497,12.1812639 7.14087358,12.4762374 7.11205227,12.7265405 C7.0834773,12.976095 7.06290825,13.177735 7.06290825,13.1786085 L7.38105114,13.2117992 L7.38105114,12.8876279 L6.11894886,12.8876279 L6.11894886,13.2117992 L6.43820026,13.1917101 C6.43807709,13.1908367 6.41750804,12.8526903 6.39127326,12.5116741 C6.37797112,12.3409788 6.3634373,12.1701588 6.34890348,12.0367719 C6.34139023,11.969517 6.33436966,11.9126185 6.3257479,11.8625829 C6.32106751,11.836754 6.31700297,11.8142941 6.3072727,11.7811033 C6.30160697,11.7636345 6.29643392,11.7444188 6.27660387,11.7068609 C6.26576509,11.6880195 6.25197028,11.6631888 6.21797592,11.6288751 C6.2007324,11.6119054 6.17757682,11.5923153 6.1441983,11.5742226 C6.11131245,11.5561299 6.0664793,11.5402832 6.0161036,11.5366647 L6.01634994,11.5366647 C5.70103991,11.5128322 5.39656867,11.4206219 5.0964083,11.2858624 C4.79661744,11.1512278 4.50273865,10.9741689 4.2140329,10.7882508 L4.21600359,10.7896233 C4.17868369,10.765167 4.14222597,10.7523149 4.11266566,10.7453274 C4.08273584,10.7384646 4.05884125,10.7372169 4.03962705,10.7370921 C4.00193764,10.7373416 3.9786589,10.7424575 3.96006053,10.7468247 C3.92471132,10.7558087 3.90697513,10.7641688 3.89084013,10.7714058 C3.86115664,10.7852561 3.8416961,10.7969852 3.82026488,10.8100868 C3.78122063,10.8341688 3.74008252,10.8623684 3.69278602,10.8959335 C3.52897261,11.012725 3.29470711,11.1940264 3.09739201,11.3488749 C2.90069275,11.5033492 2.74328407,11.6299981 2.74266823,11.6304972 L2.94158452,11.8842941 L3.16254787,11.6499624 L2.2485183,10.7649174 L2.02755495,10.9992491 L2.27487625,11.204882 C2.27536892,11.2041333 2.48721784,10.942725 2.70029845,10.6710849 C2.80696192,10.5352025 2.91374855,10.3970741 2.99639427,10.2851489 C3.03790188,10.2288744 3.07312792,10.1798369 3.10182606,10.1362896 C3.11635988,10.1142041 3.12916935,10.0942397 3.14284099,10.0692843 C3.1497384,10.0564322 3.15700531,10.0427067 3.1658734,10.0208707 C3.17030745,10.0098903 3.17535734,9.99666391 3.18053039,9.97732344 C3.18533395,9.95773341 3.19173868,9.9325284 3.19210818,9.88910592 C3.19210818,9.86776901 3.19038383,9.84169057 3.18250108,9.80949804 C3.1747415,9.77755506 3.16008451,9.73887412 3.13335706,9.70019317 L3.13360339,9.7005675 C2.94429421,9.42718056 2.7677945,9.14169021 2.63489625,8.84771502 C2.50175166,8.55349027 2.41220854,8.25240278 2.38979197,7.94208176 C2.38671277,7.90015661 2.37562765,7.8623491 2.36244868,7.83215301 C2.33510539,7.77225993 2.30369755,7.74106562 2.28103465,7.71985349 C2.23496982,7.68004955 2.20972039,7.67069125 2.18902817,7.66020996 C2.15035342,7.64336503 2.12756734,7.63762528 2.10207157,7.63051298 C2.05612992,7.61853436 2.00809441,7.60930085 1.9511908,7.59919389 C1.75498421,7.56500492 1.46073591,7.5278213 1.2095964,7.49799954 C0.959319067,7.46830256 0.755845567,7.44684087 0.754983391,7.44671609 L0.721851204,7.7691405 L1.04171844,7.7691405 L1.04171844,6.44163537 L0.721851204,6.44163537 L0.739094721,6.76518277 C0.739956897,6.76518277 1.07201777,6.74696529 1.40641883,6.72400628 C1.57392728,6.712402 1.74131256,6.69967472 1.87150112,6.68694744 C1.93690331,6.6805838 1.99208257,6.67446971 2.03950224,6.66710786 C2.06401267,6.66323976 2.08495122,6.65987078 2.11537371,6.65188503 C2.13150872,6.64726827 2.1485059,6.64340018 2.18410145,6.62655525 C2.20233031,6.61707218 2.2262249,6.60571745 2.26305212,6.57265148 C2.28128098,6.55568177 2.30332805,6.53234843 2.32488245,6.49528959 C2.34619051,6.45897941 2.36602055,6.4058243 2.36848391,6.34555689 C2.38289456,6.01614496 2.46381593,5.67213409 2.59092528,5.35707154 C2.71754196,5.04200899 2.89071614,4.75614432 3.07879364,4.54140268 L3.08507521,4.53404082 C3.11968541,4.49199089 3.13828378,4.44769497 3.14789088,4.41238301 C3.15749798,4.37669671 3.1593455,4.34837228 3.15946867,4.32591237 C3.158976,4.28523499 3.15355661,4.26364853 3.14986157,4.2468036 C3.14160931,4.21473585 3.13545091,4.20213335 3.13077053,4.19077862 C3.1216561,4.17019037 3.11635988,4.16108163 3.11094049,4.15147378 C3.10108705,4.13388019 3.09209579,4.11953081 3.081257,4.10243632 C3.04172008,4.04029726 2.97816541,3.9468391 2.90118542,3.83503868 C2.6712308,3.50175866 2.33116401,3.02273881 2.33079451,3.02211492 L2.07103324,3.21140201 L2.29766232,3.4401187 L3.21169189,2.51077776 L2.98506281,2.28206107 L2.77567725,2.52712358 C2.77653942,2.52787225 3.01696332,2.73874579 3.268226,2.95124145 C3.39410367,3.05755166 3.52219837,3.16411143 3.62738382,3.2470883 C3.68034605,3.2887639 3.72690355,3.32420064 3.76927333,3.35377284 C3.79107406,3.36874611 3.81090411,3.38209728 3.83664622,3.39669622 C3.84994836,3.40405807 3.86435901,3.41179426 3.88689875,3.42115256 C3.89847654,3.42576932 3.91214819,3.43076041 3.93136239,3.43587627 C3.9509461,3.44074259 3.97570286,3.44648234 4.01523979,3.44673189 C4.03741002,3.44660712 4.06512282,3.44473546 4.09948668,3.43562672 C4.13348105,3.42651798 4.17486549,3.40879961 4.21390974,3.37822918 L4.21427924,3.37785485 C4.71840578,2.98106321 5.34939533,2.72739107 6.02349368,2.62981526 L6.02275467,2.62981526 C6.08064362,2.62157996 6.12449142,2.59936961 6.1541749,2.5796548 C6.21317237,2.53847831 6.23090855,2.50765833 6.24568871,2.48707009 C6.25911402,2.46623229 6.26539559,2.45288112 6.27032231,2.44215028 C6.27955991,2.4211877 6.28288544,2.41033208 6.28584147,2.40097379 C6.2911377,2.38350497 6.29323155,2.37389712 6.29544857,2.36403972 C6.30320816,2.32885254 6.30887388,2.29403969 6.31663347,2.24487745 C6.34286825,2.07780072 6.38314418,1.7795831 6.41750804,1.51942254 C6.45174874,1.25988587 6.4795847,1.04065224 6.4795847,1.04027791 L6.16242716,0.998851865 L6.16242716,1.32289837 L7.4681309,1.32289837 L7.4681309,0.998851865 L7.14961851,1.02929751 C7.14974167,1.02979662 7.18053367,1.36083066 7.21415853,1.6934868 C7.23090937,1.85993965 7.24839923,2.02651727 7.26342572,2.15428917 C7.27093897,2.21842468 7.2777132,2.27220367 7.28411794,2.31512704 C7.28732031,2.33708784 7.29015317,2.35518054 7.29471039,2.37726611 C7.29742008,2.38887039 7.29951394,2.40010035 7.30727352,2.4239328 C7.31170757,2.4365353 7.31601845,2.45150857 7.33301563,2.48282766 C7.34213006,2.49867437 7.35383102,2.51938739 7.38179015,2.54933393 C7.39595446,2.56418243 7.414676,2.58152646 7.44238879,2.59924483 C7.46985525,2.61683842 7.50766782,2.63493113 7.55508749,2.64379031 L7.55471799,2.64366553 C8.22561397,2.76869233 8.85216948,3.00651777 9.32427234,3.40493152 L9.33166242,3.41117038 C9.40778023,3.46994046 9.48044933,3.47967309 9.52947019,3.48004742 C9.56962295,3.47979786 9.59364071,3.47380856 9.61199274,3.4691918 C9.64746511,3.45920962 9.66236844,3.45122387 9.67530108,3.44510979 C9.69882616,3.43313117 9.70892594,3.42601887 9.71939521,3.4192809 C9.73811675,3.40655362 9.75240423,3.39582278 9.76903191,3.38297072 C9.82938422,3.33642881 9.91597131,3.264058 10.0195556,3.17609004 C10.3279682,2.91405783 10.7674315,2.52737314 10.7681706,2.52674925 L10.5584155,2.28206107 L10.3266133,2.50541234 L11.2406429,3.4790492 L11.4724451,3.25569793 L11.2222909,3.05368357 C11.2217982,3.05430745 11.0194332,3.31159813 10.8162061,3.57625068 C10.7144693,3.70876411 10.6126094,3.84289965 10.5342746,3.9495842 C10.494984,4.00323841 10.4618518,4.04940599 10.4353707,4.0888356 C10.4218222,4.10892474 10.4103676,4.12651833 10.3979276,4.14785524 C10.391646,4.15883564 10.3851181,4.17031515 10.37625,4.18965562 C10.371816,4.1996378 10.3666429,4.21149164 10.3606077,4.23070733 C10.3550652,4.25079647 10.3459507,4.27562714 10.3449654,4.33190168 C10.3455812,4.36970919 10.3493994,4.43022615 10.3932472,4.50396951 L10.3928777,4.50322084 C10.734053,5.06509278 10.9472568,5.58416613 11.1299149,6.34306135 C11.1414927,6.39147492 11.1618154,6.42903287 11.1807833,6.45585998 C11.2195812,6.50901508 11.2508659,6.52872989 11.2727898,6.54382794 C11.3162681,6.57053027 11.3365908,6.57552136 11.3549428,6.58225933 C11.3883213,6.59286539 11.4088904,6.59673349 11.4326618,6.60135025 C11.4755243,6.60933599 11.5224513,6.61569963 11.5781232,6.62256238 C11.7705116,6.64564617 12.0615575,6.6696034 12.309002,6.68856954 C12.5559538,6.70741091 12.7565944,6.72063729 12.7573334,6.72076207 L12.7781488,6.39733945 L12.4582816,6.39733945 L12.4582816,7.81331164 L12.7781488,7.81331164 L12.7499433,7.49051291 L12.7781488,7.81331164 Z" id="Fill-1"></path>
                                <path d="M6.75,4.12876922 L6.75,3.80759262 C5.862835,3.80734527 5.05679498,4.16822064 4.4761435,4.74972713 C3.8948718,5.33061527 3.53464709,6.13621572 3.53477113,7.02282144 C3.53464709,7.90930348 3.8948718,8.71490394 4.4761435,9.29591574 C5.05679498,9.87729857 5.862835,10.2381739 6.75,10.2380503 C7.637165,10.2381739 8.44320502,9.87729857 9.0238565,9.29591574 C9.6051282,8.71490394 9.96535291,7.90930348 9.96522887,7.02282144 C9.96535291,6.13621572 9.6051282,5.33061527 9.0238565,4.74972713 C8.44320502,4.16822064 7.637165,3.80734527 6.75,3.80759262 L6.75,4.12876922 L6.75,4.44994582 C7.46064993,4.45019316 8.10121482,4.73711257 8.56749743,5.20323295 C9.03340791,5.66960066 9.32069456,6.31108816 9.32094265,7.02282144 C9.32069456,7.73467839 9.03340791,8.37591854 8.56749743,8.84240993 C8.10121482,9.30840663 7.46064993,9.59544972 6.75,9.59557339 C6.03935007,9.59544972 5.39878518,9.30840663 4.93250257,8.84240993 C4.46659209,8.37591854 4.17930544,7.73467839 4.17905735,7.02282144 C4.17930544,6.31108816 4.46659209,5.66960066 4.93250257,5.20323295 C5.39878518,4.73711257 6.03935007,4.45019316 6.75,4.44994582 L6.75,4.12876922 Z" id="Fill-3"></path>
                            </g>
                        </g>
                        <g id="misc/confetti/polygon" opacity="0.76" transform="translate(456.355837, 13.726442) scale(-1, -1) rotate(-138.000000) translate(-456.355837, -13.726442) translate(446.855837, 4.079028)" stroke="#40BE65" stroke-width="2">
                            <path d="M10.6755705,2.09016994 C9.97459569,1.58088193 9.02540431,1.58088193 8.3244295,2.09016994 L2.8161041,6.0922026 C2.11512929,6.60149061 1.82181302,7.50422526 2.08956158,8.32827058 L4.19355465,14.8036954 C4.46130321,15.6277408 5.22921516,16.1856614 6.09566769,16.1856614 L12.9043323,16.1856614 C13.7707848,16.1856614 14.5386968,15.6277408 14.8064453,14.8036954 L16.9104384,8.32827058 C17.178187,7.50422526 16.8848707,6.60149061 16.1838959,6.0922026 L10.6755705,2.09016994 Z" id="Polygon"></path>
                        </g>
                        <g id="misc/confetti/line" opacity="0.92" transform="translate(1102.272186, 449.388245) scale(-1, 1) rotate(-270.000000) translate(-1102.272186, -449.388245) translate(1084.772186, 437.709797)" stroke="#EDC054" stroke-width="2">
                            <path d="M-1.14673137,13.0767105 C-0.642380277,14.5179409 1.22518956,13.322044 2.89497508,13.3335834 C5.26330108,13.3499503 5.26330108,8.65852029 7.63162707,8.6645979 C10.0123166,8.67070723 10.0123166,13.3591375 12.3930062,13.3579573 C14.7760915,13.3567759 14.7760915,8.65984915 17.1591769,8.65987476 C19.5423142,8.65990038 19.5423142,13.3431831 21.9254515,13.3580597 C24.2785943,13.3727491 24.2785943,8.70646756 26.6317372,8.71900671 C29.0104601,8.73168217 29.0104601,13.417318 31.389183,13.408489 C33.0579791,13.402295 34.9015916,13.8060436 35.3888642,12.3628473" id="Path-2" transform="translate(17.121066, 11.224091) rotate(-330.000000) translate(-17.121066, -11.224091) "></path>
                        </g>
                        <g id="misc/confetti/line" opacity="0.77" transform="translate(237.790770, 201.809001) scale(-1, -1) rotate(-228.000000) translate(-237.790770, -201.809001) translate(216.290770, 187.084001)" stroke="#EDC054" stroke-width="2">
                            <path d="M-1.4088414,16.4880263 C-0.789210055,18.3052298 1.50523289,16.7973598 3.55668367,16.8119095 C6.46634132,16.832546 6.46634132,10.9172647 9.37599897,10.9249278 C12.3008461,10.9326309 12.3008461,16.8441299 15.2256933,16.8426418 C18.1534839,16.8411522 18.1534839,10.9189402 21.0812744,10.9189725 C24.0091288,10.9190048 24.0091288,16.8240135 26.9369833,16.842771 C29.8279873,16.8612924 29.8279873,10.97772 32.7189914,10.9935302 C35.6414224,11.0095123 35.6414224,16.9174879 38.5638533,16.9063557 C40.6140886,16.8985458 42.8790983,17.4076201 43.4777474,15.5879378" id="Path-2" transform="translate(21.034453, 14.152115) rotate(-330.000000) translate(-21.034453, -14.152115) "></path>
                        </g>
                    </g>
                </g>
            </g>
        </g>
    </g>
</svg>