<svg width="121" height="30" viewBox="0 0 121 30" xmlns="http://www.w3.org/2000/svg"><g fill="#2E2E2E" fill-rule="evenodd"><path d="M111.65 24.798c-1.513-.79-1.749-3.022-1.715-8.45l.033-8.32-2.89-.003.672-1.54h2.218v-3.94L115.28.577v5.778l2.454.004-.638 1.707-1.816-.003v14.396c.101 1.16.505 1.842 1.042 2.34h-4.672M69.968 7.127c.975-.82 2.69-.837 3.799-.312.47.235.907.548 1.21.958l-2.151 3.334c-.27-.215-.471-.312-.807-.487-1.076-.46-2.185-.192-2.824.39v9.73c-.033 1.685.27 3.221 1.143 4.018h-4.874c-1.042-.78-1.277-2.027-1.378-3.12l-.033-12.94c.033-1.05-.236-1.51-.64-2.098l5.043.02c.403.292.437.8.639 1.19l.873-.683M76.12 10.327c-.034-1.23.235-2.702-.572-3.764h4.673c.336.235.504.625.605.995.269.329.235.8.336 1.19l.067 13.788c.168.82.504 1.647 1.11 2.292l-5.01.01c-1.646-1.586-1.108-4.195-1.243-6.887l.034-7.624"/><path d="M83.548 10.462c.505-1.402 2.084-2.104 3.227-2.867 1.748-.642 3.698-2.242 5.647-.935 1.647 1.072 3.093 2.282 4.135 3.94.235.642.37 1.364.538 2.047 0 .917.201 1.6.168 2.517.067.995.067 1.893 0 2.868-.068 1.657-.84 3.14-2.152 4.289-1.95 1.737-4.403 3.707-7.058 2.36-2.387-1.113-5.177-3.315-5.009-6.34-.1-2.145-.202-3.997.1-6.084.102-.605.068-1.267.404-1.795zm4.874 9.751c.236.86.673 1.913 1.715 2.03.605.02 1.042-.487 1.411-.917 1.076-2.145.908-4.484.908-6.925-.336-1.811.1-4.289-1.849-5.401-.706-.252-1.21.215-1.647.645-.773 1.15-.84 2.467-.907 3.93-.236 2.339.033 4.278.37 6.638z" fill-rule="nonzero"/><path d="M100.725 24.798c-1.513-.79-1.748-3.022-1.715-8.45l.034-8.32-2.857-.003.639-1.54h2.218v-3.94L104.39.577v5.778l2.42.004-.639 1.707-1.781-.003v14.396c.1 1.16.504 1.842 1.042 2.34h-4.706M52.053 8.697c-.034-1.049-.236-1.51-.64-2.097l5.043.02c.403.292.437.8.639 1.19l.873-.683c.975-.82 2.69-.837 3.799-.312.47.235.907.548 1.21.958l-2.151 3.334c-.27-.215-.471-.312-.807-.487-1.076-.46-2.185-.192-2.824.39v9.73c-.033 1.685.27 3.221 1.143 4.018h-4.874c-1.008-.78-1.31-1.94-1.378-3.12l-.033-12.94M13.834 13.816l-1.815 3.779c-1.277 2.228-3.025 4.96-5.714 5.64-1.042.363-1.984.034-2.992-.037l-3.26 5.328c.268.262.605.48.94.608 5.715 2.185 8.034-.165 13.648-12.907l5.344 11.35h7.093l-3.362-7.66 1.916-3.96 5.244 11.446 6.79.044-11.9-26.111-5.478 2.72L24.59 13.8l-1.882 3.828L14.842.66 9.095 3.598l4.739 10.218"/><path d="M35.65 18.421c.134-1.892 1.176-3.667 2.924-4.621 1.747-1.076 3.764-1.503 5.58-2.44.302-.253.672-.565.705-.975a1.035 1.035 0 0 0-.672-1.073c-2.756-.585-5.008 1.13-6.992 2.827.236-1.247.437-2.612 1.042-3.781.27-.313.471-.743.84-.975 1.95-.958 4.37-1.23 6.522-1.076 1.781.118 3.428 1.385 4.033 3.005.303.76.27 1.62.336 2.4l.034 10.572c0 .914.437 1.774.975 2.514h-5.042c-.605-.545-.908-1.23-1.076-2.087-1.412 1.25-4.37 3.102-6.117 1.872-1.816-.817-3.496-3.57-3.093-6.162zm8.94-3.677c-.033-.733-.537-.81-.907-.81-1.21.175-2.252 1.187-2.857 2.225-.505.925-.639 1.705-.673 2.515 0 .874-.067 1.522.303 2.184.202.43.605.626 1.042.74.773.158 1.479-.057 2.084-.467 1.445-.8 1.176-2.4 1.21-3.822l-.202-2.565zM116.96 23.215c0-1.083.874-1.88 1.916-1.88 1.042 0 1.916.797 1.916 1.88 0 1.089-.874 1.885-1.916 1.885-1.042 0-1.916-.796-1.916-1.885zm1.916 1.573c.874 0 1.546-.666 1.546-1.573 0-.891-.672-1.567-1.546-1.567-.84 0-1.546.676-1.546 1.567 0 .907.706 1.573 1.546 1.573zm-.403-.484h-.303v-2.172h.807c.504 0 .773.192.773.619 0 .39-.235.558-.571.598l.638.955h-.37l-.571-.941h-.403v.94zm.403-1.22c.269 0 .538-.02.538-.353 0-.27-.235-.32-.47-.32h-.471v.673h.403z" fill-rule="nonzero"/></g></svg>