<?xml version="1.0" encoding="UTF-8"?>
<svg width="124px" height="30px" viewBox="0 0 124 30" version="1.1" xmlns="http://www.w3.org/2000/svg" xmlns:xlink="http://www.w3.org/1999/xlink">
    <!-- Generator: Sketch 57.1 (83088) - https://sketch.com -->
    <title>lha-logo</title>
    <desc>Created with Sketch.</desc>
    <g id="Home" stroke="none" stroke-width="1" fill="none" fill-rule="evenodd">
        <g id="Website---Home-Redesign-Copy" transform="translate(-734.000000, -941.000000)" fill="#2E2E2E" fill-rule="nonzero">
            <g id="Hero">
                <g id="Logos" transform="translate(183.000000, 852.000000)">
                    <g id="Hospitality" transform="translate(0.000000, 89.000000)">
                        <g id="lha-logo" transform="translate(551.000000, 0.000000)">
                            <path d="M12.0833333,23.3058333 C13.5191667,21.9258333 13.1666667,20.2066667 11.0833333,18.0391667 L7.37333333,14.1808333 L15.4925,6.37416667 C17.6591667,4.29083333 18.0266667,2.52833333 16.5375,0.98 C15.0483333,-0.568333333 13.275,-0.27 11.1066667,1.81333333 L0.823333333,11.695 L0.860833333,11.7408333 C-0.5,13.395 -0.270833333,14.6891667 1.7375,16.7775 L6.855,22.0991667 C8.93833333,24.2658333 10.6433333,24.6875 12.0791667,23.3058333" id="Path"></path>
                            <path d="M18.6075,14.59 C18.6075,15.6254233 17.983776,16.5588922 17.0271696,16.9551316 C16.0705631,17.351371 14.9694615,17.1323482 14.2373066,16.4001934 C13.5051518,15.6680385 13.286129,14.5669369 13.6823684,13.6103304 C14.0786078,12.653724 15.0120767,12.03 16.0475,12.03 C17.4611584,12.03046 18.60704,13.1763416 18.6075,14.59" id="Path"></path>
                            <path d="M20.1908333,6.2425 C18.755,7.62333333 19.1075,9.3425 21.1908333,11.5108333 L24.9,15.3683333 L16.7833333,23.175 C14.6166667,25.2583333 14.2491667,27.0208333 15.7383333,28.5683333 C17.2275,30.1158333 19,29.8183333 21.1691667,27.735 L31.4466667,17.8541667 L31.41,17.8083333 C32.7741667,16.1541667 32.5416667,14.86 30.5325,12.7716667 L25.4166667,7.44916667 C23.3333333,5.2825 21.6283333,4.86166667 20.1916667,6.2425" id="Path"></path>
                            <path d="M74.0716667,18.3908333 C74.0716667,17.53 73.4316667,17.1258333 72.1316667,17.1258333 L69.8208333,17.1258333 L69.8208333,12.2608333 C69.8208333,10.9625 69.3825,10.3208333 68.4541667,10.3208333 C67.5258333,10.3208333 67.0883333,10.9625 67.0883333,12.2608333 L67.0883333,18.4166667 L67.1133333,18.4166667 C67.22,19.3333333 67.6925,19.6516667 68.9466667,19.6516667 L72.1341667,19.6516667 C73.4341667,19.6516667 74.0741667,19.2466667 74.0741667,18.3866667" id="Path"></path>
                            <path d="M79.1941667,10.2925 C81.7925,10.2925 83.6241667,12.2575 83.6241667,14.9883333 C83.6241667,17.7191667 81.7908333,19.685 79.1941667,19.685 C77.9678586,19.6951053 76.7925573,19.1948854 75.9496724,18.3041112 C75.1067876,17.4133369 74.6722124,16.2122135 74.75,14.9883333 C74.67242,13.7641552 75.1074362,12.5628525 75.9508454,11.6721832 C76.7942547,10.781514 77.9700802,10.2817124 79.1966667,10.2925 M79.1966667,17.1866667 C80.1966667,17.1866667 80.9283333,16.3208333 80.9283333,14.955 C80.9283333,13.6216667 80.1625,12.7566667 79.1966667,12.7566667 C78.2308333,12.7566667 77.465,13.59 77.465,14.955 C77.465,16.3375 78.1975,17.1866667 79.1966667,17.1866667" id="Shape"></path>
                            <path d="M85.2558333,12.3408333 C85.2558333,11.0583333 85.6725,10.4425 86.5725,10.4425 C87.1159963,10.452832 87.6039257,10.7781183 87.8225,11.2758333 C88.4210078,10.6472444 89.2715816,10.3228809 90.1366667,10.3933333 C92.1858333,10.3933333 93.335,11.5758333 93.335,13.8575 L93.335,17.6216667 C93.335,18.9041667 92.9183333,19.5383333 92.02,19.5383333 C91.1216667,19.5383333 90.7041667,18.9058333 90.7041667,17.6216667 L90.7041667,14.6558333 C90.7041667,13.2733333 90.3533333,12.6241667 89.2875,12.6241667 C88.2875,12.6241667 87.8883333,13.3066667 87.8883333,14.6241667 L87.8883333,17.6241667 C87.8883333,18.9066667 87.4716667,19.5408333 86.5725,19.5408333 C85.6733333,19.5408333 85.2558333,18.9083333 85.2558333,17.6241667 L85.2558333,12.3408333" id="Path"></path>
                            <path d="M98.9316667,19.5833333 C96.7991667,19.5833333 94.8841667,17.5833333 94.8841667,14.9033333 C94.8841667,12.2366667 96.7491667,10.2733333 98.9316667,10.2733333 C99.6899369,10.2540608 100.4275,10.5219409 100.996667,11.0233333 L100.996667,8.62666667 C100.996667,7.34416667 101.413333,6.71 102.311667,6.71 C103.194167,6.71 103.610833,7.34333333 103.610833,8.62666667 L103.610833,17.62 C103.610833,18.9016667 103.211667,19.5366667 102.311667,19.5366667 C101.766215,19.518023 101.279977,19.1877058 101.061667,18.6875 C100.51401,19.2805795 99.7369701,19.6083458 98.93,19.5866667 M99.3125,17.1383333 C100.295,17.1383333 101.028333,16.2891667 101.028333,14.94 C101.028333,13.5575 100.295,12.7083333 99.3125,12.7083333 C98.33,12.7083333 97.5808333,13.5741667 97.5808333,14.94 C97.5808333,16.2733333 98.3308333,17.1383333 99.3125,17.1383333" id="Shape"></path>
                            <path d="M109.5,10.2925 C112.0975,10.2925 113.929167,12.2575 113.929167,14.9883333 C113.929167,17.7191667 112.095833,19.685 109.5,19.685 C108.273259,19.6958037 107.097293,19.1958893 106.253857,18.3050331 C105.41042,17.414177 104.975512,16.212651 105.053333,14.9883333 C104.975753,13.7641552 105.41077,12.5628525 106.254179,11.6721832 C107.097588,10.781514 108.273413,10.2817124 109.5,10.2925 M109.5,17.1866667 C110.5,17.1866667 111.231667,16.3208333 111.231667,14.955 C111.231667,13.6216667 110.465833,12.7566667 109.5,12.7566667 C108.534167,12.7566667 107.768333,13.59 107.768333,14.955 C107.768333,16.3375 108.500833,17.1866667 109.5,17.1866667" id="Shape"></path>
                            <path d="M115.5125,12.3408333 C115.5125,11.0583333 115.929167,10.4425 116.828333,10.4425 C117.371959,10.4524181 117.860091,10.7778395 118.078333,11.2758333 C118.677235,10.6473151 119.528018,10.3229887 120.393333,10.3933333 C122.4425,10.3933333 123.591667,11.5758333 123.591667,13.8575 L123.591667,17.6216667 C123.591667,18.9041667 123.175,19.5383333 122.275,19.5383333 C121.375,19.5383333 120.959167,18.9058333 120.959167,17.6216667 L120.959167,14.6558333 C120.959167,13.2733333 120.61,12.6241667 119.5425,12.6241667 C118.5425,12.6241667 118.143333,13.3066667 118.143333,14.6241667 L118.143333,17.6241667 C118.143333,18.9066667 117.726667,19.5408333 116.8275,19.5408333 C115.928333,19.5408333 115.511667,18.9083333 115.511667,17.6241667 L115.511667,12.3408333" id="Path"></path>
                            <path d="M45.9758333,18.3075 C45.9758333,17.4475 45.335,17.0425 44.0366667,17.0425 L41.725,17.0425 L41.725,12.1783333 C41.725,10.8783333 41.2866667,10.2375 40.3583333,10.2375 C39.43,10.2375 38.9916667,10.8783333 38.9916667,12.1783333 L38.9916667,18.3333333 L39.0175,18.3333333 C39.125,19.25 39.6008333,19.5683333 40.8508333,19.5683333 L44.0391667,19.5683333 C45.3375,19.5683333 45.9783333,19.1633333 45.9783333,18.3033333" id="Path"></path>
                            <path d="M51.9166667,10.3083333 C53.965,10.3083333 55.1141667,11.4908333 55.1141667,13.7716667 L55.1141667,17.5358333 C55.1141667,18.8191667 54.6975,19.4525 53.7983333,19.4525 C52.8991667,19.4525 52.4825,18.82 52.4825,17.5358333 L52.4825,14.5716667 C52.4825,13.1891667 52.1333333,12.54 51.0658333,12.54 C50.0658333,12.54 49.6666667,13.2225 49.6666667,14.54 L49.6666667,17.54 C49.6666667,18.8233333 49.25,19.4566667 48.3508333,19.4566667 C47.4516667,19.4566667 47.035,18.8241667 47.035,17.54 L47.035,8.5425 C47.035,7.26 47.4516667,6.62583333 48.3508333,6.62583333 C49.2333333,6.62583333 49.6666667,7.25833333 49.6666667,8.5425 L49.6666667,11.1408333 C50.2526922,10.5380714 51.079391,10.2318866 51.9166667,10.3075" id="Path"></path>
                            <path d="M60.6125,19.5358333 C58.4641667,19.5358333 56.6325,17.6533333 56.6325,14.9058333 C56.6325,12.2391667 58.4808333,10.2583333 60.7158333,10.2583333 C61.5236913,10.2191858 62.3022455,10.5654848 62.8141667,11.1916667 C63.0371142,10.6976413 63.5223942,10.3741213 64.0641667,10.3583333 C64.9641667,10.3583333 65.3633333,10.975 65.3633333,12.2575 L65.3633333,17.5366667 C65.3633333,18.8191667 64.9466667,19.4533333 64.0641667,19.4533333 C63.4899051,19.4600899 62.980333,19.0864036 62.8141667,18.5366667 C62.2742445,19.1904351 61.463429,19.5592671 60.6158333,19.5366667 M61.0491667,17.0216667 C62.015,17.0216667 62.7308333,16.1716667 62.7308333,14.8725 C62.7308333,13.59 61.9983333,12.7741667 61.0491667,12.7741667 C60.1,12.7741667 59.35,13.5733333 59.35,14.8725 C59.35,16.2058333 60.0833333,17.0216667 61.0491667,17.0216667" id="Shape"></path>
                        </g>
                    </g>
                </g>
            </g>
        </g>
    </g>
</svg>