<svg width="74" height="30" viewBox="0 0 74 30" xmlns="http://www.w3.org/2000/svg"><g fill="#2E2E2E" fill-rule="evenodd"><path d="M.357 17.333v1.926C.357 25.669 4.702 30 10.835 30c6.212 0 10.522-4.405 10.522-10.778V9h-6.121v10.592c0 2.319-1.476 4.467-4.387 4.467-2.77 0-4.368-1.976-4.368-4.464v-2.262H.357z"/><path d="M36.935 5c-6.723 0-12.578 5.444-12.578 12.554 0 6.798 5.57 12.446 12.588 12.446 5.318 0 10.29-2.669 11.838-8.155h-6.715c-.823 1.524-2.543 2.782-5.197 2.782-3.274 0-5.52-2.196-6.113-4.73h18.508l.091-1.846C49.357 9.671 43.604 5 36.935 5zm-.036 5.375c2.982 0 5.414 1.807 6.13 4.543H30.827c.67-2.158 2.67-4.543 6.072-4.543z" fill-rule="nonzero"/><path d="M73.357 17.222v2.037C73.357 25.669 69.012 30 62.88 30c-6.211 0-10.522-4.405-10.522-10.778V1h6.121v5.222h8.76v5.889h-8.76v7.481c0 2.319 1.476 4.467 4.387 4.467 2.77 0 4.369-1.976 4.369-4.464v-2.373h6.123zM22.357 3.5a3.5 3.5 0 1 1-7 0 3.5 3.5 0 0 1 7 0zM7.357 3.5a3.5 3.5 0 1 1-7 0 3.5 3.5 0 0 1 7 0z"/></g></svg>