<?xml version="1.0" encoding="UTF-8"?>
<svg width="84px" height="47px" viewBox="0 0 84 47" version="1.1" xmlns="http://www.w3.org/2000/svg" xmlns:xlink="http://www.w3.org/1999/xlink">
    <!-- Generator: Sketch 57.1 (83088) - https://sketch.com -->
    <title>danielslogo</title>
    <desc>Created with Sketch.</desc>
    <g id="Home" stroke="none" stroke-width="1" fill="none" fill-rule="evenodd">
        <g id="Website---Home-Redesign-Copy" transform="translate(-718.000000, -1490.000000)" fill="#2E2E2E">
            <g id="danielslogo" transform="translate(718.000000, 1490.000000)">
                <path d="M69,15 C68.251,16.046 68.89,16.35 70,17 C70.181,16.68 70.837,16.778 71,17 C71.497,16.834 70.946,16.776 74,17 C73.974,17.111 76.683,19.443 77,19 L79,18 C78.754,17.599 76.61,17.307 77,17 C76.581,17.307 76.544,15.623 77,16 C76.509,15.617 78.197,15.398 78,15 C78.11,15.386 79.215,17.02 79,17 C79.215,17.02 81.535,15.013 82,15 L81,14 C80.717,13.941 81.796,14.654 82,15 C82.864,13.933 78.327,10.161 78,10 C78.899,8.866 74.554,5.93 75,6 C74.92,5.3 74.828,4.503 74,4 C73.307,2.663 68.6,-0.82 60,2 C62.349,2.065 63.993,2.937 64,3 C63.993,2.937 54.834,2.003 49,9 C51.65,7.967 53.935,8.448 54,8 C53.935,8.442 45.407,10.167 40,19 C44.595,17.47 49.391,16.983 54,18 C54.1,17.64 35.085,19.224 16,32 C26.375,28.13 60.957,14.744 83,32 C83,32 79.154,20.94 62,18 C63.833,16.624 65.613,15.715 67,15 C66.394,14.604 65.308,14.418 64,14 C67.042,12.567 69.626,12.727 70,13 L69,15 Z M77,10 L77,11 L76,10 L77,10 Z M70,7 C70.625,5.253 72,6.727 72,7 C72,6.727 71.038,6.134 71,7 C70.354,7.617 71.216,9 71,9 C71.216,9 69.615,7.743 70,7 Z M40,47 L40,38 C39.928,37.965 39.716,37.73 39,38 L36,38 C35.252,37.73 35.066,37.939 35,38 L35,47 L31,47 L31,36 L41,36 C43.065,36 44,36.91 44,39 L44,47 L40,47 Z M29,39 L29,44 C29,44.81 28.688,45.57 28,46 C27.583,46.688 26.834,47.002 26,47 L19,47 C17.03,47 16,45.906 16,44 L16,42 C16.003,40.71 17.32,39.377 19,39 L25,39 L25,38 C24.984,37.816 24.822,37.643 24,38 L16,38 L16,36 L26,36 C26.836,36 27.585,36.313 28,37 C28.689,37.431 29,38.19 29,39 Z M25,41 L21,41 C20.21,41 20,41.205 20,42 L20,44 C20,44.82 20.233,45 21,45 L24,45 C24.784,45 25,44.82 25,44 L25,41 Z M55,44 L55,45 C55.024,45.19 55.182,45.362 56,45 L64,45 L64,47 L54,47 C51.741,47 51,45.878 51,44 L51,39 C51,38.191 51.311,37.43 52,37 C52.415,36.31 53.163,35.997 54,35.9999786 L61,35.9999786 C62.34,35.9999786 64,36.94 64,38 L64,41 C63.992,42.296 62.676,43.627 61,44 L55,44 Z M55,42 L59,42 C59.791,41.992 60,41.789 60,41 L60,39 C60,38.177 59.768,38 59,38 L56,38 C55.217,38 55.009,38.177 55,39 L55,42 Z M81,47 L72,47 L72,45 L80,45 C79.984,45.36 80.4,45.102 80,45 L80,44 C80.4,43.558 80.01,43.303 79,43 L75,43 C72.882,43.303 72,42.295 72,40 L72,39 C72,36.888 72.978,36 75,36 L83,36 L83,38 L76,38 C76.147,37.617 75.969,37.67 76,38 C75.698,37.901 75.619,38.069 76,38 L76,39 C75.614,39.252 75.884,39.463 76,39 L81,39 C82.855,39.463 84,40.213 84,42 L84,45 C84,46.203 82.899,47 81,47 Z M0,32 L11,32 C13.042,32 14,33.119 14,35 L14,44 C14,45.876 13.045,47 11,47 L0,47 C0.00300000027,42 0.00300000027,37 0,32 Z M4,35 L4,45 L9,45 C9.705,45 10,44.812 10,44 L10,35 C10,34.301 9.707,34 9,34 L5,34 C4.226,34 4.003,34.453 4,35 Z M66,47 L66,32 L70,32 L70,47 L66,47 Z M45,36 L46,37 L47,37 C47.212,37.187 48.206,37.71 49,38 C48.884,38.942 49.03,39.608 49,40 L49,47 L45,47 L45,36 L45,36 Z M45,35 L49,37 L49,33 L45,33 L45,35 Z" id="Shape"></path>
            </g>
        </g>
    </g>
</svg>