<?xml version="1.0" encoding="UTF-8"?>
<svg width="63px" height="45px" viewBox="0 0 63 45" version="1.1" xmlns="http://www.w3.org/2000/svg" xmlns:xlink="http://www.w3.org/1999/xlink">
    <!-- Generator: Sketch 57.1 (83088) - https://sketch.com -->
    <title>Lyft_logo</title>
    <desc>Created with Sketch.</desc>
    <g id="Home" stroke="none" stroke-width="1" fill="none" fill-rule="evenodd">
        <g id="Website---Home-Redesign-Copy" transform="translate(-554.000000, -1133.000000)" fill="#2E2E2E" fill-rule="nonzero">
            <g id="Lyft_logo" transform="translate(554.000000, 1133.000000)">
                <path d="M0.236408451,1.05940141 L9.76246479,1.05940141 L9.76246479,26.6251056 C9.76246479,30.6709859 11.613169,33.0810211 13.0766197,34.1141197 C11.5272887,35.4913732 6.79278169,36.6965493 3.2634507,33.7696479 C1.18267606,32.0444366 0.236408451,29.2075352 0.236408451,26.5389085 L0.236408451,1.05940141 Z M59.7704577,22.2962324 L59.7704577,19.6095423 L62.6758099,19.6095423 L62.6758099,10.1839437 L59.4852465,10.1839437 C58.2604225,4.52503521 53.2223239,0.284577465 47.1970775,0.284577465 C40.2559859,0.284577465 34.6294014,5.91147887 34.6294014,12.8522535 L34.6294014,34.8639085 C36.6068662,35.141831 38.9627113,34.8293662 40.9671127,33.1672183 C43.0475704,31.4416901 43.993838,28.6051056 43.993838,25.9364789 L43.993838,25.1255282 L48.7514789,25.1255282 L48.7514789,15.6999296 L43.993838,15.6999296 L43.993838,12.8522535 L44.0052465,12.8522535 C44.0052465,11.0896479 45.4341549,9.66073944 47.1970775,9.66073944 C48.9596831,9.66073944 50.3942958,11.0896479 50.3942958,12.8522535 L50.3942958,22.2962324 C50.3942958,29.237007 56.0269014,34.8639085 62.9676761,34.8639085 L62.9676761,25.4877465 C61.2050704,25.4877465 59.7704577,24.058838 59.7704577,22.2962324 Z M23.6918662,10.1839437 L23.6918662,24.017007 C23.6918662,24.8022887 23.0403169,25.4389437 22.236338,25.4389437 C21.4323592,25.4389437 20.7808099,24.8022887 20.7808099,24.017007 L20.7808099,10.1839437 L11.3548944,10.1839437 L11.3548944,26.4530282 C11.3548944,29.3796127 12.3474296,33.0810211 16.8642254,34.2861972 C21.3857746,35.4926408 24.0087676,32.9951408 24.0087676,32.9951408 C23.7698239,34.640493 22.2201761,35.845669 19.7239437,36.1039437 C17.8352113,36.2991549 15.4197887,35.6735915 14.2149296,35.1570423 L14.2149296,43.7764437 C17.2850704,44.681831 20.5323592,44.974331 23.7102465,44.3576408 C29.4775352,43.238662 33.1174648,38.4182746 33.1174648,32.0051408 L33.1174648,10.1839437 L23.6918662,10.1839437 Z" id="logo_standard"></path>
            </g>
        </g>
    </g>
</svg>