<?xml version="1.0" encoding="UTF-8"?>
<svg width="115px" height="52px" viewBox="0 0 115 52" version="1.1" xmlns="http://www.w3.org/2000/svg" xmlns:xlink="http://www.w3.org/1999/xlink">
    <!-- Generator: Sketch 57.1 (83088) - https://sketch.com -->
    <title>Chick-fil-A_Logo</title>
    <desc>Created with Sketch.</desc>
    <g id="Home" stroke="none" stroke-width="1" fill="none" fill-rule="evenodd">
        <g id="Website---Home-Redesign-Copy" transform="translate(-388.000000, -1453.000000)" fill="#2E2E2E" fill-rule="nonzero">
            <g id="Chick-fil-A_Logo" transform="translate(388.000000, 1452.000000)">
                <g id="g3012" transform="translate(58.318251, 26.971842) scale(-1, 1) rotate(-180.000000) translate(-58.318251, -26.971842) translate(0.147519, 1.118184)">
                    <g id="g3014" transform="translate(0.221181, 0.000000)">
                        <path d="M109.531777,21.8893736 C108.909274,21.8893736 108.40326,22.4263039 108.40326,23.0862112 C108.40326,23.7480108 108.909274,24.2815742 109.531777,24.2815742 C110.155509,24.2815742 110.661277,23.7480108 110.661277,23.0862112 C110.661277,22.4263039 110.155509,21.8893736 109.531777,21.8893736 M109.531777,24.5717889 C108.758379,24.5717889 108.128749,23.9094978 108.128749,23.0862112 C108.128749,22.2651117 108.758379,21.5968733 109.531777,21.5968733 C110.307387,21.5968733 110.938491,22.2651117 110.938491,23.0862112 C110.938491,23.9094978 110.307387,24.5717889 109.531777,24.5717889" id="path3016"></path>
                        <path d="M109.298054,22.8500385 L109.387494,22.8500385 L109.476441,22.8456394 C109.538703,22.8412158 109.587623,22.8357354 109.617519,22.8202773 C109.670639,22.8001252 109.71363,22.760288 109.732408,22.7079662 C109.746985,22.6718645 109.755138,22.6104252 109.755138,22.5194213 C109.759833,22.4261073 109.768727,22.354125 109.783552,22.3061041 L110.176644,22.3061041 L110.162314,22.3491116 C110.158608,22.3639061 110.153172,22.3781109 110.153172,22.3946258 C110.153172,22.4088306 110.148725,22.4223718 110.148725,22.4390833 L110.148725,22.5754785 C110.148725,22.7364741 110.105981,22.8500385 110.010364,22.9200301 C109.95922,22.9637995 109.883369,22.990587 109.785034,23.012656 C109.89424,23.02256 109.985904,23.0594236 110.060026,23.1159724 C110.135877,23.1722262 110.171455,23.2685139 110.171455,23.3968483 C110.171455,23.5681165 110.100051,23.6902332 109.95922,23.7647222 C109.87818,23.8086882 109.776139,23.8379579 109.647168,23.8453552 C109.626908,23.8453552 109.518937,23.8453552 109.324491,23.8477636 L108.883961,23.8477636 L108.883961,22.3061041 L109.298054,22.3061041 L109.298054,22.8500385 L109.298054,22.8500385 Z M109.684476,23.184981 C109.632096,23.147159 109.554021,23.1270069 109.457416,23.1270069 L109.298054,23.1270069 L109.298054,23.5772341 L109.397377,23.5772341 C109.501148,23.5772341 109.579717,23.5681165 109.637779,23.5460475 C109.722772,23.5098474 109.764033,23.4538885 109.764033,23.368832 C109.764033,23.2818585 109.73982,23.2237615 109.684476,23.184981 L109.684476,23.184981 Z" id="path3018"></path>
                        <path d="M54.22682,16.4608425 C55.1579941,16.4608425 55.3794213,15.528882 55.3356765,15.0071149 C55.1511129,12.8531021 52.2366781,11.1013201 51.4984234,11.0141501 C51.893601,15.4679097 53.1983261,16.4099462 54.22682,16.4608425 M25.1844617,15.9855481 C24.5960697,15.0890012 23.8533177,14.100025 22.9424923,13.0022767 C22.9912506,13.4532904 23.0394436,13.8816452 23.0920602,14.294419 C23.8232862,20.1648706 24.9042984,22.1362858 26.3115042,21.8873583 C26.7698414,21.7906037 26.9571084,21.2934123 26.968659,20.8910832 C27.071877,19.6141041 26.5319484,18.0417495 25.1844617,15.9855481 M104.835357,10.5130265 C104.122906,11.5891728 103.469192,12.7430029 102.904934,13.9123648 C101.960734,12.5722016 100.911843,11.2249606 99.8327228,9.94309098 C101.338477,9.98120792 103.06271,10.135568 104.835357,10.5130265 M103.378262,19.2580511 C103.966851,20.3754846 104.337452,21.3487077 104.385375,22.0719712 C104.438459,22.5020463 104.366206,23.2449949 103.757957,23.2449949 C102.706853,23.2449949 102.706853,21.5480168 103.378262,19.2580511 M84.8695493,12.1711258 C87.4293564,15.1573709 88.7385051,19.6364926 88.4364694,21.4727414 C88.3706065,21.8574251 88.2258555,22.1528007 87.8466521,22.106156 C86.6512891,21.9527543 83.8634193,16.5404187 84.8695493,12.1711258 M70.1071594,8.27904433 C69.0993091,8.60467263 68.2620143,9.1771149 67.7707456,9.79246638 C67.7341278,9.76241028 67.7004591,9.73591765 67.6633497,9.70932672 C67.6591718,9.66248539 67.6495873,9.6139975 67.6363164,9.56781972 C67.6097746,5.81436984 68.8877121,2.34400524 70.3045025,2.51065566 C71.7974775,2.77236252 71.0931373,5.99082352 70.1071594,8.27904433 M67.8641334,12.8587545 C70.7726699,15.7544872 73.0378142,19.8795465 73.022823,22.0879208 C73.022823,22.5130808 72.9282064,22.8873936 72.5278679,22.8873936 C71.6180747,22.8873936 68.6498192,19.842216 67.8641334,12.8587545 M59.3766623,9.9917509 C58.2080868,9.88509227 57.9505332,7.21690624 55.6178058,7.08864555 C54.0255448,7.00014838 53.2958917,8.9929936 53.2958917,8.9929936 C53.2958917,8.9929936 57.8016044,11.0767444 57.7684272,15.5763132 C57.6959288,16.8658504 57.0547482,18.9308991 54.671149,18.9308991 C53.6414263,18.9308991 52.5016044,18.2641844 51.8252805,17.5293949 C52.0550635,18.7465812 52.2718214,20.3096216 52.3738106,22.4337012 C52.4404108,23.8160855 51.4750765,23.9495317 51.101034,23.9286915 C50.8230826,23.9146833 50.0140499,23.701366 49.9041964,22.4508796 C49.5355606,18.2804043 49.4797737,17.6611207 49.1460354,15.0081717 C48.5343457,10.135568 45.1490402,8.44099833 42.9443522,8.56933275 C42.0062969,8.62482472 40.5386349,9.134304 40.5386349,11.7112895 C40.5386349,14.4758615 42.2692572,16.5222818 43.1878976,16.3966999 C43.8347306,16.3089646 44.1684689,15.625268 43.5946258,14.644451 C43.1303904,13.8312404 42.6440369,12.6995038 43.8418576,12.2342854 C45.2643003,11.7402889 46.3161411,13.8344106 46.3544793,15.7746392 C46.3544793,17.286341 45.4206019,19.0515659 43.1303904,19.1658921 C40.7200037,19.2865589 37.8407122,15.9532802 37.8407122,11.4724381 C37.8407122,11.0991083 37.866271,10.7493712 37.9132106,10.4164685 C37.7392145,9.40367848 36.8869285,8.36552629 36.0383289,8.36552629 C35.1164936,8.36552629 34.338672,9.75137578 34.4359918,11.5198692 C34.5389641,13.3436581 35.0882315,14.5579444 35.3197348,15.2841816 C35.796258,16.7928114 35.2315079,17.0973046 34.560345,17.228072 C34.03295,17.3285621 33.1954094,17.1892669 32.754521,15.6893861 C32.3539368,14.3286038 31.8326857,12.4690082 31.3790179,11.1013201 C31.0971344,10.2510493 30.7371001,9.2809719 30.2627886,8.61772234 C29.8462302,8.14321432 29.3955115,7.83083233 28.9735463,7.83083233 C27.4840119,7.81679959 28.7459751,10.8801386 28.7459751,12.9806747 C28.7314755,13.5744487 28.2854261,14.6581642 26.8020356,14.3578735 C28.444431,16.8436831 29.2750904,18.9702448 29.2232356,21.1434758 C29.1239497,23.529336 27.4513262,24.2223467 26.1886256,24.1973041 C22.8061708,24.1247074 21.0367189,20.2039215 20.3942113,11.0364157 C17.346232,7.99622693 13.6332829,6.16091208 10.092069,6.46265279 C5.08380738,6.890811 2.50239822,12.0753297 2.83677548,18.2922007 C3.30715478,27.0153529 9.82500464,37.5391681 16.0380664,36.8928267 C18.2157948,36.664764 19.7176908,34.6338264 19.485868,30.232069 C19.2153385,25.1291663 15.7344088,17.6876134 12.0590851,17.9059195 C10.3623036,18.0066062 9.83240193,19.842216 9.96181768,21.465639 C10.2416368,24.9812204 11.9304558,25.9458175 12.0432584,27.3712093 C12.1088264,28.2092414 11.2963776,28.5754196 10.7005147,28.3758648 C9.67764861,28.0305759 7.64027219,25.3515766 7.39190995,21.5409144 C7.08827692,16.8854373 9.9917509,15.4325944 11.7130098,15.3310229 C16.8050992,15.0285449 21.7746541,22.5521562 22.1930312,30.4557081 C22.4618158,35.5711444 20.3541774,38.8738755 16.363965,39.3275434 C8.60553278,40.2071084 0.455225911,29.4569508 0.0385915742,18.1966011 C-0.211677567,11.463812 2.86461977,4.4165274 10.0392803,3.88028517 C13.4667333,3.64757767 17.0532403,5.0748864 20.1911667,7.63565195 C20.1853914,7.06205462 20.1911667,6.55164147 20.1895201,6.16821107 C20.2180525,5.22501948 20.5380038,4.41104702 21.5196073,4.44255309 C22.4562617,4.47700825 22.7029774,5.19257952 22.6808838,6.05081285 C22.6688908,6.54913475 22.6725526,7.03288324 22.6835871,7.50318882 C22.8885486,11.6033775 24.8246731,12.1964634 25.6083928,12.0499675 C26.6892331,11.8098873 25.827854,10.7722267 25.9354957,7.82957897 C26.0119262,5.72095753 27.6439998,5.1586896 28.3938051,5.1586896 C30.1664518,5.1586896 31.705875,6.51160762 32.607804,8.52701335 L32.6392609,8.55109756 C33.4222433,6.4853116 34.7505611,5.74553325 35.8110034,5.74553325 C37.0547807,5.74553325 38.2322035,6.70600158 38.9682463,7.77177687 C39.9748678,6.44306594 41.4558008,5.85784429 42.5612167,5.80380228 C44.8022767,5.69591487 46.7066494,6.77579662 48.1369563,8.22480571 C47.9705787,7.0844431 47.7695493,5.55160623 47.7695493,5.30191691 C47.7695493,4.62465919 48.0698646,4.14570296 48.7031809,4.07170546 C49.745683,3.95084207 50.5067931,4.68732727 50.8321756,8.30140824 C50.8321756,8.30140824 52.3054901,4.73350505 55.5765186,4.73350505 C58.8549198,4.73350505 60.2726931,8.05076046 60.2726931,9.06278865 C60.2726931,9.35644394 60.1680006,10.0662645 59.3766623,9.9917509 M27.8671474,29.081188 C27.8671474,30.1404016 25.1247427,32.1460262 23.187758,32.3342762 C23.2106135,31.7623991 23.2062881,31.1743021 23.1743397,30.563104 C23.0983024,29.1187888 22.8909325,27.6612028 22.5702931,26.2301586 C26.1293981,28.8386256 27.8671474,28.1219976 27.8671474,29.081188 M112.069466,4.7215121 C110.139289,4.82645043 108.138333,6.32180933 106.358314,8.45549801 C103.213605,7.6978531 99.9907447,7.54791663 97.7437865,7.56615181 C95.8794723,5.53980989 94.0955207,3.85175276 92.8205323,2.89234119 C92.8205323,2.89234119 91.1024437,1.52119781 90.2685894,2.68565937 C89.7810071,3.46738848 90.0292219,4.30957387 91.369336,5.20486738 C92.2061393,5.76647176 93.2574886,6.67154642 94.3953445,7.78782482 C92.4722944,8.34249884 92.9456227,10.453799 94.8251739,10.2107206 C94.9618149,10.1920185 95.5848094,10.0987044 96.5454744,10.0256408 C98.409297,12.07705 100.303594,14.438998 101.764866,16.6028165 C101.076254,18.500824 100.674687,20.3042395 100.674687,21.7184986 C100.674687,23.5747519 101.677376,25.6759761 103.718636,25.6759761 C105.694524,25.6759761 106.705815,23.9364574 106.705815,22.138301 C106.705815,20.6089539 105.822318,18.5394079 104.475077,16.3079078 C105.247246,14.5667671 106.246003,12.7589279 107.368622,11.2131642 C108.578976,11.6296981 109.77139,12.1775647 110.892043,12.8838218 C112.40173,13.8393012 113.701048,11.9990958 112.115422,10.8204196 C111.16213,10.1883567 110.107095,9.67477325 109.001924,9.25841139 C110.164847,8.07167439 111.39093,7.27365158 112.569336,7.1660345 C114.587248,6.98419874 114.670314,4.49927386 112.069466,4.7215121 M92.3769406,10.2473138 C92.1405221,9.26676713 90.9227951,6.4366271 87.817407,6.362433 L87.749578,6.362433 C86.309195,6.33928267 84.8997774,7.07463739 83.861699,8.42745711 C82.4016554,7.4522925 80.9951869,6.98247844 79.9843875,7.14367059 C77.7946907,7.49483307 77.1387647,9.32456923 76.9510062,10.5179171 C75.6959241,8.94681582 74.0269869,8.20022999 72.4219466,8.04586989 C72.9945609,6.86200825 73.2840629,5.4395901 73.2840629,4.13093295 C73.2840629,2.08864875 72.1646388,0 70.1386163,0 C67.3065102,0 65.609311,4.21205741 65.3883752,8.31322916 C64.9042335,8.12303765 64.1052768,7.97310118 63.7341834,8.79292266 C63.286168,9.77796671 64.3969906,10.6872684 65.3348001,11.2490448 C65.4984745,19.421922 68.8759158,25.2036307 72.5278679,25.2036307 C73.755671,25.2036307 75.2343921,24.4128086 75.2343921,22.0379829 C75.2343921,19.5496912 73.8402114,16.3627363 71.5917787,13.5178999 C71.2860568,13.1317908 70.5753269,12.3763823 69.784726,11.6016572 C72.9771121,9.20898961 74.9129417,11.7872285 75.7106696,13.3704456 C75.9006399,13.7945734 76.0598906,14.2135894 76.1810489,14.5814634 C76.6339794,15.9457108 76.5039738,15.6271849 76.9303626,16.9796114 C77.5386117,18.9065937 78.5253269,18.8223236 78.971622,18.7465812 C80.5614254,18.4669341 79.6088704,16.601858 79.2198368,14.9617235 L79.2018965,14.9218863 C78.604215,12.126865 78.8821664,9.90870954 80.5307057,9.56533757 C81.0571177,9.48305805 81.9651906,9.80868636 82.8941528,10.5080377 C80.7209218,16.4671831 84.0396272,23.5219387 87.47433,24.2018997 C88.6212789,24.4287582 90.1292451,23.983397 90.5091858,21.8358231 C90.9036261,19.582426 90.1115506,16.4426073 88.4649773,13.4532904 C88.0933924,12.7749513 87.0211537,11.2490448 85.7508346,10.0900538 C85.7584531,10.0790193 85.7638598,10.0679848 85.7631225,10.0662645 C86.7257535,8.72801818 87.9432347,8.7604827 87.9432347,8.7604827 C89.7470926,8.7713206 90.2907076,10.2343378 90.5128721,10.8398099 C90.7679681,11.5343689 91.2916767,11.7643731 91.8456135,11.5781383 C92.4484559,11.3736683 92.4922007,10.7186516 92.3769406,10.2473138 M79.5833117,22.6568979 C78.8180237,22.6568979 78.1979783,22.0036261 78.1979783,21.1913739 C78.1979783,20.3828819 78.8180237,19.7264398 79.5833117,19.7264398 C80.3473709,19.7264398 80.964713,20.3828819 80.964713,21.1913739 C80.964713,22.0036261 80.3473709,22.6568979 79.5833117,22.6568979 M95.1721831,13.4532904 C96.9381944,13.4532904 97.622874,14.1836562 97.622874,14.9346411 C97.622874,15.8990415 96.5307289,16.363965 95.1739034,16.3504484 C93.7858666,16.3352606 92.7989057,15.7911541 92.7989057,14.9218863 C92.7989057,14.2135894 93.4061718,13.4532904 95.1721831,13.4532904 M61.5518594,13.447343 C63.3230316,13.447343 64.0141009,14.181641 64.0141009,14.9346411 C64.0141009,15.9039567 62.9172865,16.3693471 61.5518594,16.3556339 C60.158416,16.3401757 59.1692433,15.793538 59.1692433,14.9218863 C59.1692433,14.2094607 59.7801957,13.447343 61.5518594,13.447343 M35.2671427,21.1929222 C34.4615506,21.1929222 33.8100482,20.5035486 33.8100482,19.6497389 C33.8100482,18.7994681 34.4615506,18.1100946 35.2671427,18.1100946 C36.06954,18.1100946 36.7225169,18.7994681 36.7225169,19.6497389 C36.7225169,20.5035486 36.06954,21.1929222 35.2671427,21.1929222 M4.80686358,42.6585366 C4.14543263,41.8340211 4.35066447,40.4951359 5.55160623,39.4096263 C6.75178614,38.3209218 8.41863442,37.9682602 9.08264583,38.7915469 C9.74648521,39.615325 9.15465269,41.3056431 7.95493972,42.3913985 C6.75448947,43.4796114 5.47384865,43.4818232 4.80686358,42.6585366 M9.55717843,48.5490912 C8.26695307,47.9224103 7.80873876,46.0563758 8.7584675,43.8615181 C9.70664796,41.666169 11.6443698,40.1117546 12.9336367,40.7347491 C14.2248206,41.3621673 14.3796722,43.9347538 13.4307299,46.1305945 C12.4814926,48.323486 10.8471089,49.173806 9.55717843,48.5490912 M19.3836085,51.2725726 C17.6692799,51.6697162 15.9132709,50.1919781 15.3194969,47.2903227 C14.7225772,44.3898961 15.5534578,41.3405407 17.2684745,40.9473291 C18.9815742,40.5523973 20.9344839,42.9595892 21.5282333,45.860753 C22.1238997,48.7616711 21.0986497,50.8800983 19.3836085,51.2725726 M31.7653482,46.5552629 C30.4564453,48.4193314 27.623602,48.5331169 24.7615135,46.2797691 C21.8994742,44.0256839 20.2673022,40.3975702 21.5757628,38.5288324 C22.8846903,36.664764 26.6381156,37.2683437 29.5024158,39.5226746 C32.3632755,41.7770055 33.0732681,44.6867708 31.7653482,46.5552629 M17.9623454,32.1064592 C17.9302003,30.5918576 16.1865775,28.7437633 15.35378,30.1671891 C14.8999893,31.2568766 16.0409418,33.2396457 17.0974029,33.2733145 C17.949099,33.2733145 17.9692757,32.4679681 17.9623454,32.1064592" id="path3020"></path>
                    </g>
                </g>
            </g>
        </g>
    </g>
</svg>