<?xml version="1.0" encoding="UTF-8"?>
<svg width="76px" height="30px" viewBox="0 0 76 30" version="1.1" xmlns="http://www.w3.org/2000/svg" xmlns:xlink="http://www.w3.org/1999/xlink">
    <!-- Generator: Sketch 57.1 (83088) - https://sketch.com -->
    <title>logo-qbic</title>
    <desc>Created with Sketch.</desc>
    <g id="Home" stroke="none" stroke-width="1" fill="none" fill-rule="evenodd">
        <g id="Website---Home-Redesign-Copy" transform="translate(-608.000000, -941.000000)" fill="#2E2E2E" fill-rule="nonzero">
            <g id="Hero">
                <g id="Logos" transform="translate(183.000000, 852.000000)">
                    <g id="Hospitality" transform="translate(0.000000, 89.000000)">
                        <g id="logo-qbic" transform="translate(425.000000, 0.000000)">
                            <g id="Logos/Qbic/Standard/_Pink">
                                <path d="M38.6004941,22.1005025 C41.2564229,22.1005025 43.2558301,19.8844221 43.2558301,17.1708543 C43.2558301,14.4572864 41.241502,12.2864321 38.6004941,12.2864321 C35.9445652,12.2864321 33.975,14.4572864 33.975,17.1708543 C33.975,19.8844221 35.9445652,22.1005025 38.6004941,22.1005025 L38.6004941,22.1005025 Z M39.3465415,7.92964825 C43.8228261,7.92964825 47.911166,11.5477387 47.911166,17.1256281 C47.911166,22.7336683 43.8228261,26.3969849 39.2719368,26.3969849 C36.8398222,26.3969849 34.9747036,25.281407 33.9600791,23.7587939 L33.9600791,25.1758794 C33.9600791,25.5678392 33.6318182,25.8994975 33.2438735,25.8994975 L30.1403162,25.8994975 C29.7076087,25.8994975 29.3942688,25.5678392 29.3942688,25.1758794 L29.3942688,1.26633166 C29.3942688,0.87437186 29.7225297,0.54271357 30.1403162,0.54271357 L33.2587945,0.54271357 C33.6467392,0.54271357 34.0048419,0.87437186 34.0048419,1.26633166 L34.0048419,10.5075377 C34.8702569,9.0603015 36.884585,7.92964825 39.3465415,7.92964825 Z M51.5369565,25.8994975 C51.104249,25.8994975 50.790909,25.5376884 50.790909,25.1457286 L50.790909,9.1959799 C50.790909,8.75879395 51.11917,8.44221105 51.5369565,8.44221105 L54.655435,8.44221105 C55.0881425,8.44221105 55.401482,8.77386935 55.401482,9.1959799 L55.401482,25.1306533 C55.401482,25.522613 55.0732215,25.8844221 54.655435,25.8844221 L51.5369565,25.8844221 L51.5369565,25.8994975 Z M50.208992,3.22613066 C50.208992,1.62814071 51.4921935,0.286432161 53.118577,0.286432161 C54.7001975,0.286432161 55.983399,1.62814071 55.983399,3.22613066 C55.983399,4.82412061 54.7001975,6.16582915 53.118577,6.16582915 C51.4921935,6.15075375 50.208992,4.82412061 50.208992,3.22613066 Z M67.4874505,26.3969849 C62.2949605,26.3969849 58.2812255,22.3718593 58.2812255,17.1557789 C58.2812255,11.9396985 62.2949605,7.91457285 67.4874505,7.91457285 C71.0386365,7.91457285 73.828854,9.6482412 75.261265,12.0452261 C75.544763,12.5125628 75.3358695,13.0552764 74.933004,13.3417085 L73.172332,14.7135678 C72.560573,15.1809045 72.023419,14.9698492 71.665316,14.5025125 C70.516403,13.0854271 69.412253,12.2562814 67.5471345,12.2562814 C64.8613635,12.2562814 62.9216405,14.4271357 62.9216405,17.1407035 C62.9216405,19.8542713 64.8613635,22.0251256 67.5471345,22.0251256 C69.412253,22.0251256 70.516403,21.1959799 71.665316,19.7788944 C72.023419,19.3115578 72.560573,19.0854271 73.172332,19.5678392 L74.933004,20.9396985 C75.3209485,21.2261306 75.544763,21.7688442 75.261265,22.2512563 C73.828854,24.6633166 71.0386365,26.3969849 67.4874505,26.3969849 Z M26.0072134,25.0703517 C26.7980237,24.678392 26.9919961,25.4321608 27.006917,25.4170854 L27.8424901,27.7236181 C28.0663043,28.3266331 27.7828063,28.9899497 27.2158103,29.2613065 C26.2459486,29.7437186 25.1268774,29.9698492 23.7093874,29.9698492 C20.6655138,29.9698492 18.2333992,28.4472362 17.129249,25.8844221 C15.8908103,26.2311558 14.6076087,26.4120603 13.3244071,26.4120603 C5.90869565,26.4120603 0.104446641,20.6231156 0.104446641,13.2361809 C0.104446641,5.84924625 5.90869565,0.0603015075 13.3244071,0.0603015075 C20.7401186,0.0603015075 26.5443676,5.84924625 26.5443676,13.2361809 C26.5443676,17.5326633 24.5001977,21.5276382 21.0534585,23.9849246 C21.6801384,24.9949748 22.6947629,25.5075377 24.0674901,25.5075377 C24.8284585,25.5075377 25.4700593,25.3266331 26.0072134,25.0703517 Z M7.80365615,19.1155779 C7.80365615,15.8140704 10.3402174,13.4170855 13.8167984,13.4020101 C17.1740119,13.4020101 19.4270751,15.2864321 20.0985178,18.6030151 C21.1728261,17.1105528 21.7398222,15.2713568 21.7398222,13.2361809 C21.7398222,8.18592965 18.1886364,4.52261307 13.2945652,4.52261307 C8.40049405,4.52261307 4.8493083,8.20100505 4.8493083,13.2663317 C4.8493083,16.0854272 5.93853755,18.5276382 7.87826085,20.0954774 C7.833498,19.7788944 7.80365615,19.4472362 7.80365615,19.1155779 Z M13.4885376,17.3366834 C12.1456522,17.3366834 11.1608696,18.2864321 11.1608696,19.5829146 C11.1608696,20.9849246 12.0412056,21.9648241 13.3094862,21.9648241 C14.4583992,21.9648241 15.5028656,21.7688442 16.4279645,21.4070352 C16.278755,18.6633166 15.3238143,17.3366834 13.4885376,17.3366834 Z" id="Combined-Shape"></path>
                            </g>
                        </g>
                    </g>
                </g>
            </g>
        </g>
    </g>
</svg>