<svg width="65" height="45" viewBox="0 0 65 45" xmlns="http://www.w3.org/2000/svg"><g fill="#2E2E2E" fill-rule="evenodd"><path d="M14.696 1.803l-.08 11.172c0 4.644-2.761 6.446-6.471 6.446-3.199 0-7.27-1.419-7.27-6.256V1.803C.875 1.173.437.792 0 .573h5.244c-.434.219-.846.6-.846 1.23v11.445c0 1.912.657 4.617 4.205 4.617 3.252 0 4.429-2.13 4.429-4.836l-.053-11.226c0-.63-.328-1.011-.74-1.23h3.17c-.411.219-.713.6-.713 1.23M22.095 19.421c-2.481 0-4.286-.847-5.24-1.31l-.139-4.616c.52 1.938 2.156 4.507 5 4.507 2.705 0 3.524-1.94 3.524-3.279 0-2.623-2.38-2.978-4.861-4.316-2.514-1.394-3.607-2.867-3.607-4.944 0-3.715 3.468-5.19 5.956-5.19.928 0 2.729.19 4.123 1.01l.135 4.043c-.38-1.448-1.938-3.634-4.562-3.634-2.075 0-2.893 1.448-2.893 2.623 0 1.666 1.175 2.296 3.741 3.47 2.543 1.202 5.191 2.104 5.191 5.902 0 3.414-3.006 5.734-6.368 5.734"/><path d="M36.959 1.939c-.658 0-2.105 0-2.516.055v15.734h2.185c6.176 0 7.898-4.153 7.898-8.141 0-3.276-1.914-7.648-7.567-7.648zm.325 17.21h-7.018c.408-.247.711-.63.711-1.23V1.803c0-.63-.303-1.011-.711-1.23h7.268c8.985 0 10.787 6.366 10.787 9.014 0 4.754-3.66 9.561-11.037 9.561zM54.625 5.9s-1.859 4.645-2.731 6.692h5.518c-1.283-3.033-2.787-6.691-2.787-6.691zm4.315 13.248c.709-.382.849-.764.657-1.337-.083-.274-.792-1.941-1.556-3.797h-6.694c-.82 1.856-1.475 3.468-1.531 3.77-.244.655-.108 1.036.63 1.364h-3.768c.764-.518 1.008-.819 1.28-1.337C48.478 16.773 55.664 0 55.664 0s7.268 16.773 7.758 17.811c.273.573.462.874 1.367 1.337H58.94z" fill-rule="nonzero"/><g><path d="M63.968 21.772S24.214 20.786.67 33.332c0 0 24.953-9.868 63.298-8.881v-2.679M.67 21.772s13.393.141 21.709 3.243c0 0-17.057-1.41-21.709-.704v-2.539M.67 26.144s9.587-.424 15.365.14c0 0-13.953 1.69-15.365 2.395v-2.535"/><path d="M57.38 26.574c-.064-.004-.15.004-.205.005-11.56.222-35.803 1.616-56.494 8.926v8.81h63.294v-17.74s-2.456-.077-6.595 0"/></g></g></svg>