<svg width="104" height="19" viewBox="0 0 104 19" fill="none" xmlns="http://www.w3.org/2000/svg">
<path d="M22.6891 4.41309H24.4895V4.94712H22V1.09782H22.6891V4.41309Z" fill="white"/>
<path d="M25.8811 4.94712H25.2193V2.08658H25.8811V4.94712ZM25.1784 1.34369C25.1784 1.24499 25.2102 1.16303 25.2737 1.09782C25.3391 1.03261 25.4317 1 25.5516 1C25.6714 1 25.764 1.03261 25.8294 1.09782C25.8948 1.16303 25.9274 1.24499 25.9274 1.34369C25.9274 1.44063 25.8948 1.5217 25.8294 1.58691C25.764 1.65036 25.6714 1.68209 25.5516 1.68209C25.4317 1.68209 25.3391 1.65036 25.2737 1.58691C25.2102 1.5217 25.1784 1.44063 25.1784 1.34369Z" fill="white"/>
<path d="M28.4794 4.16986C28.4794 4.0553 28.4304 3.96805 28.3323 3.90813C28.2361 3.8482 28.0754 3.79533 27.8502 3.7495C27.625 3.70368 27.4371 3.64552 27.2864 3.57502C26.9559 3.41992 26.7907 3.1952 26.7907 2.90086C26.7907 2.65411 26.8978 2.4479 27.1121 2.28222C27.3263 2.11655 27.5987 2.03371 27.9292 2.03371C28.2815 2.03371 28.5656 2.11831 28.7817 2.28751C28.9996 2.45671 29.1086 2.67614 29.1086 2.9458H28.4467C28.4467 2.82243 28.3995 2.7202 28.3051 2.63913C28.2106 2.55629 28.0853 2.51487 27.9292 2.51487C27.7839 2.51487 27.665 2.54748 27.5724 2.61269C27.4816 2.6779 27.4362 2.76515 27.4362 2.87442C27.4362 2.97312 27.4789 3.04979 27.5642 3.10443C27.6495 3.15907 27.822 3.21458 28.0817 3.27098C28.3414 3.32562 28.5448 3.39172 28.6918 3.46927C28.8407 3.54505 28.9506 3.6367 29.0214 3.74422C29.094 3.85173 29.1304 3.98215 29.1304 4.13549C29.1304 4.39282 29.0205 4.60167 28.8008 4.76206C28.5811 4.92069 28.2933 5 27.9374 5C27.6958 5 27.4807 4.9577 27.2918 4.8731C27.103 4.7885 26.9559 4.67217 26.8506 4.52412C26.7453 4.37607 26.6926 4.21657 26.6926 4.0456H27.3354C27.3445 4.19718 27.4035 4.31439 27.5124 4.39722C27.6214 4.4783 27.7658 4.51884 27.9455 4.51884C28.1198 4.51884 28.2524 4.48711 28.3432 4.42366C28.434 4.35845 28.4794 4.27385 28.4794 4.16986Z" fill="white"/>
<path d="M30.7617 1.39128V2.08658H31.2819V2.56246H30.7617V4.15929C30.7617 4.26856 30.7835 4.34787 30.827 4.39722C30.8724 4.44481 30.9523 4.46861 31.0667 4.46861C31.143 4.46861 31.2202 4.45979 31.2983 4.44217V4.93919C31.1475 4.97973 31.0023 5 30.8625 5C30.354 5 30.0998 4.72769 30.0998 4.18308V2.56246H29.615V2.08658H30.0998V1.39128H30.7617Z" fill="white"/>
<path d="M33.3109 5C32.8914 5 32.551 4.87222 32.2895 4.61666C32.0298 4.35933 31.9 4.0174 31.9 3.59088V3.51157C31.9 3.22604 31.9563 2.97136 32.0689 2.74752C32.1833 2.52192 32.343 2.34655 32.5482 2.22141C32.7534 2.09628 32.9822 2.03371 33.2346 2.03371C33.6359 2.03371 33.9455 2.15796 34.1634 2.40648C34.3831 2.65499 34.493 3.00661 34.493 3.46134V3.72042H32.5673C32.5873 3.9566 32.6681 4.14342 32.8097 4.2809C32.9532 4.41837 33.1329 4.48711 33.349 4.48711C33.6523 4.48711 33.8992 4.36814 34.0899 4.1302L34.4467 4.46067C34.3287 4.63164 34.1707 4.76471 33.9728 4.85988C33.7767 4.95329 33.556 5 33.3109 5ZM33.2319 2.54924C33.0503 2.54924 32.9032 2.61093 32.7907 2.7343C32.6799 2.85768 32.6091 3.02952 32.5782 3.24983H33.8393V3.20225C33.8248 2.98722 33.7658 2.82507 33.6623 2.7158C33.5588 2.60476 33.4153 2.54924 33.2319 2.54924Z" fill="white"/>
<path d="M35.8465 2.08658L35.8656 2.41705C36.0835 2.16149 36.3694 2.03371 36.7235 2.03371C37.3373 2.03371 37.6496 2.37475 37.6605 3.05684V4.94712H36.9986V3.09385C36.9986 2.91232 36.9578 2.77837 36.8761 2.692C36.7962 2.60388 36.6645 2.55981 36.4811 2.55981C36.2142 2.55981 36.0154 2.67702 35.8846 2.91143V4.94712H35.2227V2.08658H35.8465Z" fill="white"/>
<path d="M40.0488 3.49042C40.0488 3.21018 40.106 2.95814 40.2204 2.7343C40.3348 2.5087 40.4955 2.33598 40.7025 2.21613C40.9095 2.09451 41.1474 2.03371 41.4161 2.03371C41.8138 2.03371 42.1361 2.15796 42.3831 2.40648C42.6318 2.65499 42.7662 2.98458 42.7862 3.39524L42.7889 3.54594C42.7889 3.82794 42.7326 4.07997 42.62 4.30205C42.5093 4.52412 42.3495 4.69597 42.1407 4.81758C41.9336 4.93919 41.694 5 41.4216 5C41.0058 5 40.6725 4.86605 40.422 4.59815C40.1732 4.32849 40.0488 3.96982 40.0488 3.52214V3.49042ZM40.7107 3.54594C40.7107 3.84027 40.7733 4.07116 40.8986 4.2386C41.0239 4.40427 41.1982 4.48711 41.4216 4.48711C41.6449 4.48711 41.8183 4.40251 41.9418 4.23331C42.0671 4.06411 42.1298 3.81648 42.1298 3.49042C42.1298 3.20137 42.0653 2.97224 41.9364 2.80304C41.8093 2.63384 41.6359 2.54924 41.4161 2.54924C41.2001 2.54924 41.0285 2.63296 40.9013 2.8004C40.7742 2.96607 40.7107 3.21458 40.7107 3.54594Z" fill="white"/>
<path d="M44.186 2.08658L44.205 2.41705C44.4229 2.16149 44.7089 2.03371 45.063 2.03371C45.6768 2.03371 45.9891 2.37475 46 3.05684V4.94712H45.3381V3.09385C45.3381 2.91232 45.2973 2.77837 45.2156 2.692C45.1357 2.60388 45.004 2.55981 44.8206 2.55981C44.5537 2.55981 44.3549 2.67702 44.2241 2.91143V4.94712H43.5622V2.08658H44.186Z" fill="white"/>
<path d="M101.467 11.116C102.843 11.116 103.829 11.8359 103.859 12.8745H102.66C102.606 12.3556 102.141 12.0369 101.431 12.0369C100.741 12.0369 100.28 12.3381 100.28 12.7966C100.28 13.1478 100.587 13.383 101.23 13.5332L102.275 13.762C103.528 14.0465 104 14.4819 104 15.3425C104 16.4033 102.937 17.1287 101.419 17.1287C99.9537 17.1287 98.9678 16.4199 98.8736 15.3472H100.138C100.227 15.9106 100.705 16.2126 101.478 16.2126C102.24 16.2126 102.72 15.9162 102.72 15.4482C102.72 15.0842 102.483 14.8896 101.834 14.733L100.724 14.4764C99.6007 14.2189 99.0342 13.6778 99.0342 12.8625C99.0333 11.8264 100.019 11.116 101.467 11.116ZM96.864 9.7938V11.1836H98.0449V12.1379H96.864V15.3766C96.864 15.8796 97.101 16.114 97.6204 16.114C97.7499 16.114 97.9566 16.0965 98.039 16.0854V17.0342C97.8978 17.0683 97.6137 17.0898 97.3313 17.0898C96.073 17.0898 95.583 16.6432 95.583 15.5046V12.1379H94.6786V11.1828H95.583V9.79301H96.864V9.7938ZM91.509 11.116C92.8849 11.116 93.8709 11.8359 93.9011 12.8745H92.7017C92.6479 12.3556 92.1822 12.0369 91.4728 12.0369C90.7828 12.0369 90.3222 12.3381 90.3222 12.7966C90.3222 13.1478 90.629 13.383 91.272 13.5332L92.3176 13.762C93.5691 14.0465 94.0423 14.4819 94.0423 15.3425C94.0423 16.4033 92.9791 17.1287 91.4611 17.1287C89.996 17.1287 89.0101 16.4199 88.916 15.3472H90.1793C90.2684 15.9106 90.7475 16.2126 91.5199 16.2126C92.2823 16.2126 92.7614 15.9162 92.7614 15.4482C92.7614 15.0842 92.5252 14.8896 91.8754 14.733L90.7651 14.4764C89.643 14.2189 89.0757 13.6778 89.0757 12.8625C89.0757 11.8264 90.0616 11.116 91.509 11.116ZM86.5087 14.8578V14.4048L85.0201 14.4946C84.1939 14.5391 83.7568 14.8403 83.7568 15.3488C83.7568 15.8399 84.2116 16.1863 84.921 16.1863C85.8237 16.1863 86.5087 15.6174 86.5087 14.8578ZM82.4759 15.3766C82.4759 14.35 83.3088 13.7469 84.8562 13.6571L86.5095 13.5681V13.1216C86.5095 12.4573 86.0431 12.1005 85.2328 12.1005C84.5654 12.1005 84.0754 12.4239 83.9745 12.9261H82.7818C82.8171 11.8764 83.8569 11.112 85.2689 11.112C86.792 11.112 87.7779 11.8653 87.7779 13.0326V17.058H86.5566V16.0926H86.5264C86.1784 16.7235 85.4034 17.1422 84.5654 17.1422C83.3315 17.1414 82.4759 16.4207 82.4759 15.3766ZM80.4393 13.205C80.3275 12.5852 79.8131 12.1212 78.9751 12.1212C77.9942 12.1212 77.3445 12.8975 77.3445 14.1204C77.3445 15.3711 78.0001 16.1244 78.986 16.1244C79.7786 16.1244 80.2981 15.7501 80.4393 15.0699H81.6681C81.5261 16.3039 80.4813 17.1295 78.9751 17.1295C77.2033 17.1295 76.0459 15.9853 76.0459 14.1204C76.0459 12.2944 77.2033 11.1104 78.9633 11.1104C80.5578 11.1104 81.5496 12.0592 81.6572 13.2042H80.4401V13.205H80.4393ZM70.3564 14.1212C70.3564 15.3274 71.0061 16.0981 71.9979 16.0981C72.9788 16.0981 73.6336 15.3162 73.6336 14.1212C73.6336 12.9372 72.978 12.1498 71.9979 12.1498C71.0053 12.149 70.3564 12.9253 70.3564 14.1212ZM69.0519 14.1212C69.0519 12.3063 70.1084 11.1232 71.6499 11.1232C72.5417 11.1232 73.2444 11.5133 73.5991 12.1609H73.6218V9.00079H74.9028V17.0572H73.663V16.0584H73.6395C73.273 16.7282 72.5644 17.1192 71.6609 17.1192C70.1084 17.1192 69.0519 15.9352 69.0519 14.1212ZM66.869 14.1212C66.869 12.853 66.2546 12.1053 65.2208 12.1053C64.1869 12.1053 63.5733 12.8594 63.5733 14.1212C63.5733 15.3933 64.1878 16.1363 65.2208 16.1363C66.2546 16.1363 66.869 15.3933 66.869 14.1212ZM62.2739 14.1212C62.2739 12.2729 63.4254 11.1112 65.2208 11.1112C67.022 11.1112 68.1676 12.2721 68.1676 14.1212C68.1676 15.975 67.0279 17.1311 65.2208 17.1311C63.4136 17.1311 62.2739 15.9742 62.2739 14.1212ZM56.9979 13.2551H58.5159C59.6674 13.2551 60.323 12.6687 60.323 11.6532C60.323 10.6369 59.6674 10.056 58.5226 10.056H56.9988V13.2551H56.9979ZM58.8706 9.00079C60.5239 9.00079 61.6763 10.0783 61.6763 11.6468C61.6763 13.2217 60.5004 14.3039 58.8294 14.3039H56.9988V17.0564H55.6749V9H58.8706V9.00079ZM47.2168 13.5793H50.3225C50.2939 12.6798 49.6845 12.0886 48.7995 12.0886C47.9186 12.0886 47.2806 12.6909 47.2168 13.5793ZM51.5278 15.3321C51.3572 16.3985 50.2578 17.1303 48.8516 17.1303C47.0445 17.1303 45.9224 15.9853 45.9224 14.149C45.9224 12.3063 47.0512 11.1112 48.7986 11.1112C50.5175 11.1112 51.5976 12.2277 51.5976 14.0091V14.4223H47.2092V14.4946C47.2092 15.499 47.8766 16.1585 48.8802 16.1585C49.5887 16.1585 50.1435 15.8399 50.3158 15.3321H51.5278ZM43.3504 9.00079H44.6263V17.0572H43.3504V9.00079ZM40.9582 14.1212C40.9582 12.9317 40.3085 12.1498 39.3167 12.1498C38.3425 12.1498 37.6869 12.9484 37.6869 14.1212C37.6869 15.3043 38.3425 16.0981 39.3167 16.0981C40.3085 16.0973 40.9582 15.3202 40.9582 14.1212ZM42.2703 14.1212C42.2703 15.9464 41.2364 17.1192 39.6773 17.1192C38.7905 17.1192 38.0887 16.7449 37.7222 16.091H37.6928V19H36.4169V11.1828H37.6516V12.1601H37.6743C38.0282 11.5292 38.7846 11.1224 39.6529 11.1224C41.2297 11.1224 42.2703 12.3008 42.2703 14.1212ZM34.0718 14.1212C34.0718 12.9317 33.4221 12.1498 32.4303 12.1498C31.4561 12.1498 30.8005 12.9484 30.8005 14.1212C30.8005 15.3043 31.4561 16.0981 32.4303 16.0981C33.4221 16.0973 34.0718 15.3202 34.0718 14.1212ZM35.383 14.1212C35.383 15.9464 34.3484 17.1192 32.79 17.1192C31.9033 17.1192 31.2014 16.7449 30.835 16.091H30.8055V19H29.5296V11.1828H30.7635V12.1601H30.7862C31.1409 11.5292 31.8974 11.1224 32.7656 11.1224C34.3433 11.1224 35.383 12.3008 35.383 14.1212ZM23.4922 13.8749H26.0675L24.7975 10.3405H24.7622L23.4922 13.8749ZM26.4046 14.88H23.1559L22.3759 17.0572H21L24.0772 9.00079H25.506L28.5832 17.0572H27.1829L26.4046 14.88Z" fill="white"/>
<g clip-path="url(#clip0)">
<path d="M4.0044 0.106323H13.9956C16.2072 0.106323 18 1.89915 18 4.11072V14.1019C18 16.3135 16.2072 18.1063 13.9956 18.1063H4.0044C1.79283 18.1063 0 16.3135 0 14.1019V4.11072C0 1.89915 1.79283 0.106323 4.0044 0.106323Z" fill="url(#paint0_linear)"/>
<path d="M9.54985 15.8646C10.0868 15.6726 10.202 15.4116 10.4222 13.8822C10.6784 12.1044 10.7342 11.004 10.586 10.6554C10.3892 10.1934 9.85525 9.93123 9.10825 9.92823C8.36725 9.92523 7.82845 10.1898 7.63045 10.6554C7.48165 11.0034 7.53745 12.1044 7.79365 13.8822C7.96765 15.1242 8.06365 15.438 8.30365 15.6492C8.63365 15.9414 9.10165 16.0224 9.54565 15.8652L9.54985 15.8646ZM11.8436 14.0406C13.6976 13.1286 14.8856 11.5854 15.3176 9.53223C15.4256 9.00243 15.4436 7.73823 15.3416 7.25223C15.0716 5.94723 14.5556 4.92663 13.6976 4.02423C12.4616 2.72103 10.8716 2.03223 9.10165 2.03223C7.34965 2.03223 5.76565 2.70843 4.55965 3.97263C3.64165 4.92663 3.12565 5.93643 2.86165 7.26663C2.77165 7.70943 2.77165 8.91663 2.85565 9.41463C3.13165 10.989 4.00765 12.423 5.28565 13.3866C5.74165 13.731 6.85765 14.3322 7.03765 14.3322C7.10365 14.3322 7.10965 14.2638 7.07965 13.9872C7.02565 13.5432 6.97165 13.4508 6.71965 13.3452C6.31765 13.1772 5.63365 12.69 5.21365 12.2688C4.48765 11.5488 3.95365 10.6068 3.70765 9.61683C3.55165 8.99883 3.56965 7.62483 3.74365 6.98883C4.28965 4.96683 5.93965 3.39483 7.96165 2.97483C8.54965 2.85483 9.61765 2.85483 10.2116 2.97483C12.2576 3.39483 13.9496 5.04483 14.4656 7.12083C14.6036 7.68483 14.6036 9.05883 14.4656 9.62283C14.1236 10.9968 13.2356 12.2568 12.0716 13.0068C11.8436 13.1568 11.5676 13.3128 11.4536 13.3608C11.2016 13.4688 11.1476 13.5588 11.0996 14.0028C11.0696 14.2728 11.0756 14.3508 11.1416 14.3508C11.1836 14.3508 11.4896 14.2188 11.8136 14.0628L11.8436 14.0406ZM11.8196 11.5998C12.4436 11.1018 12.9956 10.2186 13.2236 9.35223C13.3616 8.82903 13.3616 7.83423 13.2176 7.31223C12.8396 5.90343 11.8016 4.81143 10.3616 4.29843C9.86965 4.12443 8.77765 4.08543 8.17165 4.21923C6.08365 4.68423 4.60165 6.77523 4.88965 8.84943C5.00365 9.68523 5.29165 10.3716 5.80165 11.0094C6.05365 11.3316 6.66565 11.8722 6.77365 11.8722C6.79165 11.8722 6.80965 11.6682 6.80965 11.4198V10.9662L6.49765 10.5942C5.32165 9.18543 5.40565 7.21743 6.68965 5.92623C7.18765 5.42343 7.76365 5.12823 8.50765 4.99203C8.98765 4.90323 9.08965 4.90323 9.59365 4.98603C10.3586 5.11083 10.9514 5.40723 11.4776 5.92803C12.7676 7.20603 12.8516 9.18423 11.6756 10.5942L11.366 10.9662V11.4222C11.366 11.6742 11.3858 11.8782 11.4104 11.8782C11.4344 11.8782 11.6084 11.7582 11.7944 11.6082L11.8196 11.5998ZM9.73765 9.15003C10.2716 8.90163 10.5596 8.43303 10.5656 7.82223C10.5656 7.27323 10.2596 6.79443 9.73165 6.51423C9.39565 6.33783 8.80165 6.33783 8.46565 6.51543C8.09965 6.70563 7.79965 7.07463 7.68565 7.45983C7.33765 8.64303 8.59165 9.67983 9.72565 9.15003H9.73765Z" fill="white"/>
<path d="M9.00702 9.38294C8.18058 9.38294 7.51061 8.71297 7.51061 7.88654C7.51061 7.0601 8.18058 6.39014 9.00702 6.39014C9.83346 6.39014 10.5034 7.0601 10.5034 7.88654C10.5034 8.71297 9.83346 9.38294 9.00702 9.38294Z" fill="white"/>
<path d="M8.86333 9.96252C8.75953 9.97632 8.55313 10.0033 8.36233 10.0645C8.17033 10.1245 7.99633 10.2187 7.86073 10.3153C7.72873 10.4113 7.63273 10.5109 7.57273 10.6321C7.51273 10.7533 7.48273 10.8973 7.46473 11.1331C7.45273 11.3695 7.45273 11.6971 7.50673 12.3091C7.56073 12.9193 7.66873 13.8139 7.75273 14.3869C7.83673 14.9629 7.89673 15.2149 7.97473 15.4009C8.05273 15.5929 8.15473 15.7189 8.26873 15.8089C8.38273 15.8989 8.51473 15.9529 8.64073 15.9829C8.76673 16.0129 8.88073 16.0129 8.98873 16.0129C9.09673 16.0129 9.19873 16.0129 9.33673 15.9829C9.47473 15.9529 9.65473 15.8989 9.78673 15.7909C9.92473 15.6829 10.0147 15.5269 10.0867 15.3229C10.1587 15.1189 10.2127 14.8729 10.2847 14.3809C10.3567 13.8889 10.4527 13.1569 10.5127 12.5989C10.5727 12.0409 10.5967 11.6569 10.6015 11.3989C10.6075 11.1409 10.5955 11.0131 10.5655 10.8889C10.5355 10.7689 10.4875 10.6549 10.4215 10.5589C10.3555 10.4629 10.2691 10.3789 10.1815 10.3129C10.0957 10.2469 10.0075 10.1989 9.90193 10.1617C9.79753 10.1197 9.67213 10.0837 9.51793 10.0537C9.36193 10.0237 9.18193 9.99372 9.08953 9.98172C8.99713 9.96792 8.99713 9.96792 8.89393 9.98172L8.86333 9.96252Z" fill="white"/>
</g>
<defs>
<linearGradient id="paint0_linear" x1="9.0186" y1="18.3349" x2="9.171" y2="0.106322" gradientUnits="userSpaceOnUse">
<stop stop-color="#822CBE"/>
<stop offset="1" stop-color="#D772FB"/>
</linearGradient>
<clipPath id="clip0">
<rect width="18" height="18" fill="white" transform="matrix(-1 0 0 1 18 0.106323)"/>
</clipPath>
</defs>
</svg>
