<svg width="104" height="19" viewBox="0 0 104 19" fill="none" xmlns="http://www.w3.org/2000/svg">
<path d="M22.6891 4.41305H24.4895V4.94708H22V1.09778H22.6891V4.41305Z" fill="#060000"/>
<path d="M25.881 4.94712H25.2192V2.08658H25.881V4.94712ZM25.1783 1.34369C25.1783 1.24499 25.2101 1.16303 25.2736 1.09782C25.339 1.03261 25.4316 1 25.5515 1C25.6713 1 25.7639 1.03261 25.8293 1.09782C25.8947 1.16303 25.9273 1.24499 25.9273 1.34369C25.9273 1.44063 25.8947 1.5217 25.8293 1.58691C25.7639 1.65036 25.6713 1.68209 25.5515 1.68209C25.4316 1.68209 25.339 1.65036 25.2736 1.58691C25.2101 1.5217 25.1783 1.44063 25.1783 1.34369Z" fill="#060000"/>
<path d="M28.4794 4.16984C28.4794 4.05528 28.4304 3.96803 28.3323 3.90811C28.2361 3.84818 28.0754 3.79531 27.8502 3.74948C27.625 3.70366 27.4371 3.6455 27.2864 3.575C26.9559 3.4199 26.7907 3.19518 26.7907 2.90084C26.7907 2.65409 26.8978 2.44788 27.1121 2.2822C27.3263 2.11653 27.5987 2.03369 27.9292 2.03369C28.2815 2.03369 28.5656 2.11829 28.7817 2.28749C28.9996 2.45669 29.1086 2.67612 29.1086 2.94578H28.4467C28.4467 2.82241 28.3995 2.72018 28.3051 2.63911C28.2106 2.55627 28.0853 2.51485 27.9292 2.51485C27.7839 2.51485 27.665 2.54746 27.5724 2.61267C27.4816 2.67788 27.4362 2.76513 27.4362 2.8744C27.4362 2.9731 27.4789 3.04977 27.5642 3.10441C27.6495 3.15905 27.822 3.21456 28.0817 3.27096C28.3414 3.3256 28.5448 3.3917 28.6918 3.46925C28.8407 3.54503 28.9506 3.63668 29.0214 3.7442C29.094 3.85171 29.1304 3.98213 29.1304 4.13547C29.1304 4.3928 29.0205 4.60165 28.8008 4.76204C28.5811 4.92067 28.2933 4.99998 27.9374 4.99998C27.6958 4.99998 27.4807 4.95768 27.2918 4.87308C27.103 4.78848 26.9559 4.67215 26.8506 4.5241C26.7453 4.37605 26.6926 4.21655 26.6926 4.04558H27.3354C27.3445 4.19716 27.4035 4.31437 27.5124 4.3972C27.6214 4.47828 27.7658 4.51882 27.9455 4.51882C28.1198 4.51882 28.2524 4.48709 28.3432 4.42364C28.434 4.35843 28.4794 4.27383 28.4794 4.16984Z" fill="#060000"/>
<path d="M30.7617 1.39124V2.08654H31.2819V2.56242H30.7617V4.15925C30.7617 4.26852 30.7835 4.34783 30.827 4.39718C30.8724 4.44477 30.9523 4.46856 31.0667 4.46856C31.143 4.46856 31.2202 4.45975 31.2983 4.44213V4.93915C31.1475 4.97969 31.0023 4.99996 30.8625 4.99996C30.354 4.99996 30.0998 4.72765 30.0998 4.18304V2.56242H29.615V2.08654H30.0998V1.39124H30.7617Z" fill="#060000"/>
<path d="M33.3109 4.99998C32.8914 4.99998 32.551 4.8722 32.2895 4.61664C32.0298 4.35931 31.9 4.01738 31.9 3.59086V3.51155C31.9 3.22602 31.9563 2.97134 32.0689 2.7475C32.1833 2.5219 32.343 2.34653 32.5482 2.22139C32.7534 2.09626 32.9822 2.03369 33.2346 2.03369C33.6359 2.03369 33.9455 2.15794 34.1634 2.40646C34.3831 2.65497 34.493 3.00659 34.493 3.46132V3.7204H32.5673C32.5873 3.95658 32.6681 4.1434 32.8097 4.28088C32.9532 4.41835 33.1329 4.48709 33.349 4.48709C33.6523 4.48709 33.8992 4.36812 34.0899 4.13018L34.4467 4.46065C34.3287 4.63162 34.1707 4.76469 33.9728 4.85986C33.7767 4.95327 33.556 4.99998 33.3109 4.99998ZM33.2319 2.54922C33.0503 2.54922 32.9032 2.61091 32.7907 2.73428C32.6799 2.85766 32.6091 3.0295 32.5782 3.24981H33.8393V3.20223C33.8248 2.9872 33.7658 2.82505 33.6623 2.71578C33.5588 2.60474 33.4153 2.54922 33.2319 2.54922Z" fill="#060000"/>
<path d="M35.8465 2.08656L35.8656 2.41703C36.0835 2.16147 36.3694 2.03369 36.7235 2.03369C37.3373 2.03369 37.6496 2.37473 37.6605 3.05682V4.9471H36.9986V3.09383C36.9986 2.9123 36.9578 2.77835 36.8761 2.69198C36.7962 2.60386 36.6645 2.55979 36.4811 2.55979C36.2142 2.55979 36.0154 2.677 35.8846 2.91141V4.9471H35.2227V2.08656H35.8465Z" fill="#060000"/>
<path d="M40.0488 3.4904C40.0488 3.21016 40.106 2.95812 40.2204 2.73428C40.3348 2.50868 40.4955 2.33596 40.7025 2.21611C40.9095 2.09449 41.1474 2.03369 41.4161 2.03369C41.8138 2.03369 42.1361 2.15794 42.3831 2.40646C42.6318 2.65497 42.7662 2.98456 42.7862 3.39522L42.7889 3.54592C42.7889 3.82792 42.7326 4.07995 42.62 4.30203C42.5093 4.5241 42.3495 4.69595 42.1407 4.81756C41.9336 4.93917 41.694 4.99998 41.4216 4.99998C41.0058 4.99998 40.6725 4.86603 40.422 4.59813C40.1732 4.32847 40.0488 3.9698 40.0488 3.52212V3.4904ZM40.7107 3.54592C40.7107 3.84025 40.7733 4.07114 40.8986 4.23858C41.0239 4.40425 41.1982 4.48709 41.4216 4.48709C41.6449 4.48709 41.8183 4.40249 41.9418 4.23329C42.0671 4.06409 42.1298 3.81646 42.1298 3.4904C42.1298 3.20135 42.0653 2.97222 41.9364 2.80302C41.8093 2.63382 41.6359 2.54922 41.4161 2.54922C41.2001 2.54922 41.0285 2.63294 40.9013 2.80038C40.7742 2.96605 40.7107 3.21456 40.7107 3.54592Z" fill="#060000"/>
<path d="M44.1861 2.08656L44.2051 2.41703C44.423 2.16147 44.709 2.03369 45.0631 2.03369C45.6769 2.03369 45.9892 2.37473 46.0001 3.05682V4.9471H45.3382V3.09383C45.3382 2.9123 45.2974 2.77835 45.2157 2.69198C45.1358 2.60386 45.0041 2.55979 44.8207 2.55979C44.5538 2.55979 44.355 2.677 44.2242 2.91141V4.9471H43.5623V2.08656H44.1861Z" fill="#060000"/>
<path d="M101.467 11.116C102.843 11.116 103.829 11.8359 103.859 12.8745H102.66C102.606 12.3556 102.141 12.0369 101.431 12.0369C100.741 12.0369 100.28 12.3381 100.28 12.7966C100.28 13.1478 100.587 13.383 101.23 13.5332L102.275 13.762C103.528 14.0465 104 14.4819 104 15.3425C104 16.4033 102.937 17.1287 101.419 17.1287C99.9537 17.1287 98.9678 16.4199 98.8736 15.3472H100.138C100.227 15.9106 100.705 16.2126 101.478 16.2126C102.24 16.2126 102.72 15.9162 102.72 15.4482C102.72 15.0842 102.483 14.8896 101.834 14.733L100.724 14.4764C99.6007 14.2189 99.0342 13.6778 99.0342 12.8625C99.0333 11.8264 100.019 11.116 101.467 11.116ZM96.864 9.7938V11.1836H98.0449V12.1379H96.864V15.3766C96.864 15.8796 97.101 16.114 97.6204 16.114C97.7499 16.114 97.9566 16.0965 98.039 16.0854V17.0342C97.8978 17.0683 97.6137 17.0898 97.3313 17.0898C96.073 17.0898 95.583 16.6432 95.583 15.5046V12.1379H94.6786V11.1828H95.583V9.79301H96.864V9.7938ZM91.509 11.116C92.8849 11.116 93.8709 11.8359 93.9011 12.8745H92.7017C92.6479 12.3556 92.1822 12.0369 91.4728 12.0369C90.7828 12.0369 90.3222 12.3381 90.3222 12.7966C90.3222 13.1478 90.629 13.383 91.272 13.5332L92.3176 13.762C93.5691 14.0465 94.0423 14.4819 94.0423 15.3425C94.0423 16.4033 92.9791 17.1287 91.4611 17.1287C89.996 17.1287 89.0101 16.4199 88.916 15.3472H90.1793C90.2684 15.9106 90.7475 16.2126 91.5199 16.2126C92.2823 16.2126 92.7614 15.9162 92.7614 15.4482C92.7614 15.0842 92.5252 14.8896 91.8754 14.733L90.7651 14.4764C89.643 14.2189 89.0757 13.6778 89.0757 12.8625C89.0757 11.8264 90.0616 11.116 91.509 11.116ZM86.5087 14.8578V14.4048L85.0201 14.4946C84.1939 14.5391 83.7568 14.8403 83.7568 15.3488C83.7568 15.8399 84.2116 16.1863 84.921 16.1863C85.8237 16.1863 86.5087 15.6174 86.5087 14.8578ZM82.4759 15.3766C82.4759 14.35 83.3088 13.7469 84.8562 13.6571L86.5095 13.5681V13.1216C86.5095 12.4573 86.0431 12.1005 85.2328 12.1005C84.5654 12.1005 84.0754 12.4239 83.9745 12.9261H82.7818C82.8171 11.8764 83.8569 11.112 85.2689 11.112C86.792 11.112 87.7779 11.8653 87.7779 13.0326V17.058H86.5566V16.0926H86.5264C86.1784 16.7235 85.4034 17.1422 84.5654 17.1422C83.3315 17.1414 82.4759 16.4207 82.4759 15.3766ZM80.4393 13.205C80.3275 12.5852 79.8131 12.1212 78.9751 12.1212C77.9942 12.1212 77.3445 12.8975 77.3445 14.1204C77.3445 15.3711 78.0001 16.1244 78.986 16.1244C79.7786 16.1244 80.2981 15.7501 80.4393 15.0699H81.6681C81.5261 16.3039 80.4813 17.1295 78.9751 17.1295C77.2033 17.1295 76.0459 15.9853 76.0459 14.1204C76.0459 12.2944 77.2033 11.1104 78.9633 11.1104C80.5578 11.1104 81.5496 12.0592 81.6572 13.2042H80.4401V13.205H80.4393ZM70.3564 14.1212C70.3564 15.3274 71.0061 16.0981 71.9979 16.0981C72.9788 16.0981 73.6336 15.3162 73.6336 14.1212C73.6336 12.9372 72.978 12.1498 71.9979 12.1498C71.0053 12.149 70.3564 12.9253 70.3564 14.1212ZM69.0519 14.1212C69.0519 12.3063 70.1084 11.1232 71.6499 11.1232C72.5417 11.1232 73.2444 11.5133 73.5991 12.1609H73.6218V9.00079H74.9028V17.0572H73.663V16.0584H73.6395C73.273 16.7282 72.5644 17.1192 71.6609 17.1192C70.1084 17.1192 69.0519 15.9352 69.0519 14.1212ZM66.869 14.1212C66.869 12.853 66.2546 12.1053 65.2208 12.1053C64.1869 12.1053 63.5733 12.8594 63.5733 14.1212C63.5733 15.3933 64.1878 16.1363 65.2208 16.1363C66.2546 16.1363 66.869 15.3933 66.869 14.1212ZM62.2739 14.1212C62.2739 12.2729 63.4254 11.1112 65.2208 11.1112C67.022 11.1112 68.1676 12.2721 68.1676 14.1212C68.1676 15.975 67.0279 17.1311 65.2208 17.1311C63.4136 17.1311 62.2739 15.9742 62.2739 14.1212ZM56.9979 13.2551H58.5159C59.6674 13.2551 60.323 12.6687 60.323 11.6532C60.323 10.6369 59.6674 10.056 58.5226 10.056H56.9988V13.2551H56.9979ZM58.8706 9.00079C60.5239 9.00079 61.6763 10.0783 61.6763 11.6468C61.6763 13.2217 60.5004 14.3039 58.8294 14.3039H56.9988V17.0564H55.6749V9H58.8706V9.00079ZM47.2168 13.5793H50.3225C50.2939 12.6798 49.6845 12.0886 48.7995 12.0886C47.9186 12.0886 47.2806 12.6909 47.2168 13.5793ZM51.5278 15.3321C51.3572 16.3985 50.2578 17.1303 48.8516 17.1303C47.0445 17.1303 45.9224 15.9853 45.9224 14.149C45.9224 12.3063 47.0512 11.1112 48.7986 11.1112C50.5175 11.1112 51.5976 12.2277 51.5976 14.0091V14.4223H47.2092V14.4946C47.2092 15.499 47.8766 16.1585 48.8802 16.1585C49.5887 16.1585 50.1435 15.8399 50.3158 15.3321H51.5278ZM43.3504 9.00079H44.6263V17.0572H43.3504V9.00079ZM40.9582 14.1212C40.9582 12.9317 40.3085 12.1498 39.3167 12.1498C38.3425 12.1498 37.6869 12.9484 37.6869 14.1212C37.6869 15.3043 38.3425 16.0981 39.3167 16.0981C40.3085 16.0973 40.9582 15.3202 40.9582 14.1212ZM42.2703 14.1212C42.2703 15.9464 41.2364 17.1192 39.6773 17.1192C38.7905 17.1192 38.0887 16.7449 37.7222 16.091H37.6928V19H36.4169V11.1828H37.6516V12.1601H37.6743C38.0282 11.5292 38.7846 11.1224 39.6529 11.1224C41.2297 11.1224 42.2703 12.3008 42.2703 14.1212ZM34.0718 14.1212C34.0718 12.9317 33.4221 12.1498 32.4303 12.1498C31.4561 12.1498 30.8005 12.9484 30.8005 14.1212C30.8005 15.3043 31.4561 16.0981 32.4303 16.0981C33.4221 16.0973 34.0718 15.3202 34.0718 14.1212ZM35.383 14.1212C35.383 15.9464 34.3484 17.1192 32.79 17.1192C31.9033 17.1192 31.2014 16.7449 30.835 16.091H30.8055V19H29.5296V11.1828H30.7635V12.1601H30.7862C31.1409 11.5292 31.8974 11.1224 32.7656 11.1224C34.3433 11.1224 35.383 12.3008 35.383 14.1212ZM23.4922 13.8749H26.0675L24.7975 10.3405H24.7622L23.4922 13.8749ZM26.4046 14.88H23.1559L22.3759 17.0572H21L24.0772 9.00079H25.506L28.5832 17.0572H27.1829L26.4046 14.88Z" fill="#060000"/>
<path d="M4.0044 0.106323H13.9956C16.2072 0.106323 18 1.89915 18 4.11072V14.1019C18 16.3135 16.2072 18.1063 13.9956 18.1063H4.0044C1.79283 18.1063 0 16.3135 0 14.1019V4.11072C0 1.89915 1.79283 0.106323 4.0044 0.106323Z" fill="url(#paint0_linear)"/>
<path d="M9.54993 15.8646C10.0869 15.6726 10.2021 15.4116 10.4223 13.8822C10.6785 12.1044 10.7343 11.004 10.5861 10.6554C10.3893 10.1934 9.85533 9.93123 9.10833 9.92823C8.36733 9.92523 7.82853 10.1898 7.63053 10.6554C7.48173 11.0034 7.53753 12.1044 7.79373 13.8822C7.96773 15.1242 8.06373 15.438 8.30373 15.6492C8.63373 15.9414 9.10173 16.0224 9.54573 15.8652L9.54993 15.8646ZM11.8437 14.0406C13.6977 13.1286 14.8857 11.5854 15.3177 9.53223C15.4257 9.00243 15.4437 7.73823 15.3417 7.25223C15.0717 5.94723 14.5557 4.92663 13.6977 4.02423C12.4617 2.72103 10.8717 2.03223 9.10173 2.03223C7.34973 2.03223 5.76573 2.70843 4.55973 3.97263C3.64173 4.92663 3.12573 5.93643 2.86173 7.26663C2.77173 7.70943 2.77173 8.91663 2.85573 9.41463C3.13173 10.989 4.00773 12.423 5.28573 13.3866C5.74173 13.731 6.85773 14.3322 7.03773 14.3322C7.10373 14.3322 7.10973 14.2638 7.07973 13.9872C7.02573 13.5432 6.97173 13.4508 6.71973 13.3452C6.31773 13.1772 5.63373 12.69 5.21373 12.2688C4.48773 11.5488 3.95373 10.6068 3.70773 9.61683C3.55173 8.99883 3.56973 7.62483 3.74373 6.98883C4.28973 4.96683 5.93973 3.39483 7.96173 2.97483C8.54973 2.85483 9.61773 2.85483 10.2117 2.97483C12.2577 3.39483 13.9497 5.04483 14.4657 7.12083C14.6037 7.68483 14.6037 9.05883 14.4657 9.62283C14.1237 10.9968 13.2357 12.2568 12.0717 13.0068C11.8437 13.1568 11.5677 13.3128 11.4537 13.3608C11.2017 13.4688 11.1477 13.5588 11.0997 14.0028C11.0697 14.2728 11.0757 14.3508 11.1417 14.3508C11.1837 14.3508 11.4897 14.2188 11.8137 14.0628L11.8437 14.0406ZM11.8197 11.5998C12.4437 11.1018 12.9957 10.2186 13.2237 9.35223C13.3617 8.82903 13.3617 7.83423 13.2177 7.31223C12.8397 5.90343 11.8017 4.81143 10.3617 4.29843C9.86973 4.12443 8.77773 4.08543 8.17173 4.21923C6.08373 4.68423 4.60173 6.77523 4.88973 8.84943C5.00373 9.68523 5.29173 10.3716 5.80173 11.0094C6.05373 11.3316 6.66573 11.8722 6.77373 11.8722C6.79173 11.8722 6.80973 11.6682 6.80973 11.4198V10.9662L6.49773 10.5942C5.32173 9.18543 5.40573 7.21743 6.68973 5.92623C7.18773 5.42343 7.76373 5.12823 8.50773 4.99203C8.98773 4.90323 9.08973 4.90323 9.59373 4.98603C10.3587 5.11083 10.9515 5.40723 11.4777 5.92803C12.7677 7.20603 12.8517 9.18423 11.6757 10.5942L11.3661 10.9662V11.4222C11.3661 11.6742 11.3859 11.8782 11.4105 11.8782C11.4345 11.8782 11.6085 11.7582 11.7945 11.6082L11.8197 11.5998ZM9.73773 9.15003C10.2717 8.90163 10.5597 8.43303 10.5657 7.82223C10.5657 7.27323 10.2597 6.79443 9.73173 6.51423C9.39573 6.33783 8.80173 6.33783 8.46573 6.51543C8.09973 6.70563 7.79973 7.07463 7.68573 7.45983C7.33773 8.64303 8.59173 9.67983 9.72573 9.15003H9.73773Z" fill="white"/>
<path d="M9.00691 9.38294C8.18047 9.38294 7.5105 8.71297 7.5105 7.88654C7.5105 7.0601 8.18047 6.39014 9.00691 6.39014C9.83335 6.39014 10.5033 7.0601 10.5033 7.88654C10.5033 8.71297 9.83335 9.38294 9.00691 9.38294Z" fill="white"/>
<path d="M8.86331 9.96252C8.75951 9.97632 8.55311 10.0033 8.36231 10.0645C8.17031 10.1245 7.99631 10.2187 7.86071 10.3153C7.72871 10.4113 7.63271 10.5109 7.57271 10.6321C7.51271 10.7533 7.48271 10.8973 7.46471 11.1331C7.45271 11.3695 7.45271 11.6971 7.50671 12.3091C7.56071 12.9193 7.66871 13.8139 7.75271 14.3869C7.83671 14.9629 7.89671 15.2149 7.97471 15.4009C8.05271 15.5929 8.15471 15.7189 8.26871 15.8089C8.38271 15.8989 8.51471 15.9529 8.64071 15.9829C8.76671 16.0129 8.88071 16.0129 8.98871 16.0129C9.09671 16.0129 9.19871 16.0129 9.33671 15.9829C9.47471 15.9529 9.65471 15.8989 9.78671 15.7909C9.92471 15.6829 10.0147 15.5269 10.0867 15.3229C10.1587 15.1189 10.2127 14.8729 10.2847 14.3809C10.3567 13.8889 10.4527 13.1569 10.5127 12.5989C10.5727 12.0409 10.5967 11.6569 10.6015 11.3989C10.6075 11.1409 10.5955 11.0131 10.5655 10.8889C10.5355 10.7689 10.4875 10.6549 10.4215 10.5589C10.3555 10.4629 10.2691 10.3789 10.1815 10.3129C10.0957 10.2469 10.0075 10.1989 9.90191 10.1617C9.79751 10.1197 9.67211 10.0837 9.51791 10.0537C9.36191 10.0237 9.18191 9.99372 9.08951 9.98172C8.99711 9.96792 8.99711 9.96792 8.89391 9.98172L8.86331 9.96252Z" fill="white"/>
<defs>
<linearGradient id="paint0_linear" x1="9.0186" y1="18.3349" x2="9.171" y2="0.106323" gradientUnits="userSpaceOnUse">
<stop stop-color="#822CBE"/>
<stop offset="1" stop-color="#D772FB"/>
</linearGradient>
</defs>
</svg>
