<?xml version="1.0" encoding="UTF-8"?>
<svg width="130px" height="19px" viewBox="0 0 130 19" version="1.1" xmlns="http://www.w3.org/2000/svg" xmlns:xlink="http://www.w3.org/1999/xlink">
    <title>five-stars</title>
    <g id="Documentation" stroke="none" stroke-width="1" fill="none" fill-rule="evenodd">
        <g id="Testmonial-Carrousel" transform="translate(-368.000000, -1040.000000)" fill="#EFC75E">
            <g id="Group" transform="translate(166.000000, 629.000000)">
                <path d="M211.836862,411 L214.876619,417.254413 L221.673723,418.257354 L216.755292,423.125735 L217.916377,430 L211.836862,426.754413 L205.757347,430 L206.918431,423.125735 L202,418.257354 L208.797104,417.254413 L211.836862,411 Z M239.418431,411 L242.458188,417.254413 L249.255292,418.257354 L244.336862,423.125735 L245.497946,430 L239.418431,426.754413 L233.338916,430 L234.5,423.125735 L229.581569,418.257354 L236.378673,417.254413 L239.418431,411 Z M267,411 L270.039757,417.254413 L276.836862,418.257354 L271.918431,423.125735 L273.079515,430 L267,426.754413 L260.920485,430 L262.081569,423.125735 L257.163138,418.257354 L263.960243,417.254413 L267,411 Z M294.581569,411 L297.621327,417.254413 L304.418431,418.257354 L299.5,423.125735 L300.661084,430 L294.581569,426.754413 L288.502054,430 L289.663138,423.125735 L284.744708,418.257354 L291.541812,417.254413 L294.581569,411 Z M322.163138,411 L325.202896,417.254413 L332,418.257354 L327.081569,423.125735 L328.242653,430 L322.163138,426.754413 L316.083623,430 L317.244708,423.125735 L312.326277,418.257354 L319.123381,417.254413 L322.163138,411 Z" id="five-stars"></path>
            </g>
        </g>
    </g>
</svg>