<?xml version="1.0" encoding="UTF-8"?>
<svg width="39px" height="40px" viewBox="0 0 39 40" version="1.1" xmlns="http://www.w3.org/2000/svg" xmlns:xlink="http://www.w3.org/1999/xlink">
    <title>Combined Shape</title>
    <g id="Documentation" stroke="none" stroke-width="1" fill="none" fill-rule="evenodd">
        <g id="Testmonial-Carrousel" transform="translate(-305.000000, -1014.000000)" fill="#EC563D" fill-rule="nonzero">
            <g id="Group" transform="translate(166.000000, 629.000000)">
                <path d="M158.995391,385.004609 C160.308727,385.004609 161.618929,385.13278 162.907187,385.388203 L162.907187,385.388203 L158.995391,393.574063 C152.695156,393.574063 147.569531,398.699766 147.569531,405 C147.569531,411.300234 152.695156,416.425859 158.995391,416.425859 C161.837422,416.425859 164.438281,415.380547 166.439531,413.657188 L166.439531,413.657188 L170.77125,421.159922 C167.467969,423.571172 163.398281,424.995391 158.995391,424.995391 C147.952266,424.995391 139,416.043125 139,405 C139,393.956875 147.952266,385.004609 158.995391,385.004609 Z M172.985703,402.143516 L177.933281,410.712969 L172.985703,419.282422 L168.038125,410.712969 L158.142891,410.712969 L163.090547,402.143516 L172.985703,402.143516 Z M169.27125,386.432813 C170.516875,386.432813 171.600078,386.757734 172.484687,387.425703 C173.387266,388.093672 173.838594,389.014453 173.838594,390.187891 C173.838594,392.0475 172.791641,393.185 170.823828,394.195781 L170.823828,394.195781 L169.7225,394.755547 C168.548906,395.35125 167.971172,395.874844 167.808828,396.813594 L167.808828,396.813594 L173.784531,396.813594 L173.784531,399.287031 L164.739766,399.287031 L164.739766,398.871875 C164.739766,397.337188 165.046641,396.055391 165.660312,395.0625 C166.274219,394.051406 167.339375,393.166719 168.874062,392.390547 L168.874062,392.390547 L169.578203,392.0475 C170.823828,391.415625 171.14875,390.874063 171.14875,390.224063 C171.14875,389.447891 170.480781,388.888125 169.397656,388.888125 C168.115781,388.888125 167.140859,389.556094 166.472891,390.910234 L166.472891,390.910234 L164.739766,389.176797 C165.11875,388.364453 165.732656,387.714609 166.545,387.208984 C167.375547,386.685391 168.278125,386.432813 169.27125,386.432813 Z" id="Combined-Shape"></path>
            </g>
        </g>
    </g>
</svg>