<?xml version="1.0" encoding="UTF-8"?>
<svg width="40px" height="40px" viewBox="0 0 40 40" version="1.1" xmlns="http://www.w3.org/2000/svg" xmlns:xlink="http://www.w3.org/1999/xlink">
    <title>Google__G__Logo</title>
    <g id="Documentation" stroke="none" stroke-width="1" fill="none" fill-rule="evenodd">
        <g id="Testmonial-Carrousel" transform="translate(-705.000000, -1014.000000)" fill-rule="nonzero">
            <g id="subhead" transform="translate(665.000000, 629.000000)">
                <g id="Google__G__Logo" transform="translate(40.000000, 385.000000)">
                    <path d="M39.1575092,20.4688645 C39.1575092,19.1135531 39.047619,17.7509158 38.8131868,16.4175824 L20.007326,16.4175824 L20.007326,24.0952381 L30.7765568,24.0952381 C30.3296703,26.5714286 28.8937729,28.7619048 26.7912088,30.1538462 L26.7912088,35.1355311 L33.2161172,35.1355311 C36.989011,31.6630037 39.1575092,26.5347985 39.1575092,20.4688645 Z" id="Path" fill="#4285F4"></path>
                    <path d="M20.007326,39.9487179 C25.3846154,39.9487179 29.9194139,38.1831502 33.2234432,35.1355311 L26.7985348,30.1538462 C25.010989,31.3699634 22.7032967,32.0586081 20.014652,32.0586081 C14.8131868,32.0586081 10.4029304,28.5494505 8.82051282,23.8315018 L2.19047619,23.8315018 L2.19047619,28.967033 C5.57509158,35.6996337 12.4688645,39.9487179 20.007326,39.9487179 Z" id="Path" fill="#34A853"></path>
                    <path d="M8.81318681,23.8315018 C7.97802198,21.3553114 7.97802198,18.6739927 8.81318681,16.1978022 L8.81318681,11.0622711 L2.19047619,11.0622711 C-0.637362637,16.6959707 -0.637362637,23.3333333 2.19047619,28.967033 L8.81318681,23.8315018 L8.81318681,23.8315018 Z" id="Path" fill="#FBBC04"></path>
                    <path d="M20.007326,7.96336996 C22.8498168,7.91941392 25.5970696,8.98901099 27.6556777,10.952381 L33.3479853,5.26007326 C29.7435897,1.87545788 24.959707,0.0146520147 20.007326,0.0732600733 C12.4688645,0.0732600733 5.57509158,4.32234432 2.19047619,11.0622711 L8.81318681,16.1978022 C10.3882784,11.4725275 14.8058608,7.96336996 20.007326,7.96336996 Z" id="Path" fill="#EA4335"></path>
                </g>
            </g>
        </g>
    </g>
</svg>