<svg width="1440" height="827" viewBox="0 0 1440 827" fill="none" xmlns="http://www.w3.org/2000/svg">
<g opacity="0.03">
<path d="M-19 85.6939L1719 85.6938" stroke="black"/>
<path d="M-19 170.72L1719 170.72" stroke="black"/>
<path d="M-19 255.746L1719 255.746" stroke="black"/>
<path d="M-19 340.771L1719 340.771" stroke="black"/>
<path d="M-19 425.797L1719 425.797" stroke="black"/>
<path d="M-19 510.823L1719 510.823" stroke="black"/>
<path d="M-19 595.849L1719 595.849" stroke="black"/>
<path d="M-19 680.547L1719 680.547" stroke="black"/>
<path d="M-19 765.547L1719 765.547" stroke="black"/>
<path d="M79 0.547363V766.547" stroke="black"/>
<path d="M207 0.547363V766.547" stroke="black"/>
<path d="M336 0.547363V766.547" stroke="black"/>
<path d="M464 0.547363V766.547" stroke="black"/>
<path d="M593 0.547363V766.547" stroke="black"/>
<path d="M721 0.547363V766.547" stroke="black"/>
<path d="M850 0.547363V766.547" stroke="black"/>
<path d="M978 0.547363V766.547" stroke="black"/>
<path d="M1107 0.547363V766.547" stroke="black"/>
<path d="M1235 0.547363V766.547" stroke="black"/>
<path d="M1364 0.547363V766.547" stroke="black"/>
<path d="M79 766.547V1532.55" stroke="black"/>
<path d="M207 766.547V1532.55" stroke="black"/>
<path d="M336 766.547V1532.55" stroke="black"/>
<path d="M464 766.547V1532.55" stroke="black"/>
<path d="M593 766.547V1532.55" stroke="black"/>
<path d="M721 766.547V1532.55" stroke="black"/>
<path d="M850 766.547V1532.55" stroke="black"/>
<path d="M978 766.547V1532.55" stroke="black"/>
<path d="M1107 766.547V1532.55" stroke="black"/>
<path d="M1235 766.547V1532.55" stroke="black"/>
<path d="M1364 766.547V1532.55" stroke="black"/>
</g>
</svg>
