<svg width="394px" height="104px" viewBox="-2 18 394 104" version="1.1" xmlns="http://www.w3.org/2000/svg" xmlns:xlink="http://www.w3.org/1999/xlink"><g id="UpKeep-Logo" stroke="none" stroke-width="1" fill-rule="evenodd" transform="translate(-2.000000, 18.000000)"><g id="Symbol"><path id="Stroke-1" fill="#ff3b30" d="M86.7995356,29.7963841 C87.326726,29.0854668 88.0556655,28.132303 88.9356046,26.9997643 C89.7682866,25.9292258 90.5326636,24.9558101 91.2971663,23.9883843 C91.5648371,23.6496652 91.8133533,23.3359538 92.0362923,23.0551208 C92.1698163,22.8869224 92.2653183,22.7668394 92.3153067,22.7040859 C93.1230833,21.6900223 93.0592442,20.2355552 92.1657272,19.2961644 L84.7447272,11.4941644 C83.7876442,10.4879439 82.2083236,10.4127119 81.1599273,11.3234 C81.0980783,11.3771254 81.0980783,11.3771254 80.8154161,11.6221677 C80.5401939,11.8606236 80.2329407,12.1264106 79.9014073,12.4126726 C78.954434,13.2303353 78.003047,14.0478936 77.1095704,14.8102372 C76.0104839,15.7474224 75.1640065,16.4617739 74.5003514,17.0117021 C70.8116624,14.3954368 66.3537611,12.5755358 61.2452935,11.4442708 C61.1630643,10.7384856 61.0659928,9.84560514 60.9572237,8.80054109 C60.9318982,8.5572119 60.906051,8.30669945 60.8797323,8.049585 C60.7612737,6.89232826 60.6382989,5.65130664 60.5180146,4.4101307 C60.4759034,3.97559781 60.4371419,3.57213932 60.4026254,3.2101579 C60.3672488,2.83814385 60.3672488,2.83814385 60.359557,2.75647548 C60.2339087,1.42243816 59.1139414,0.403 57.774,0.403 L47.172,0.403 C45.866,0.403 44.7631582,1.37287793 44.5962865,2.66817318 C44.585864,2.74907622 44.585864,2.74907622 44.5382019,3.11686965 C44.4917536,3.47469581 44.4397454,3.87350558 44.3834309,4.30302544 C44.2225697,5.52993843 44.0594864,6.75672379 43.9042563,7.90087131 C43.8743896,8.12080076 43.8743896,8.12080076 43.8444776,8.34018771 C43.687017,9.49385682 43.549095,10.4758374 43.4362722,11.2414171 C38.3895298,12.2054567 33.6960372,14.1059326 29.6939959,16.8506829 C29.0433847,16.3417817 28.2085942,15.6623296 27.2357736,14.8527204 C26.1289218,13.9291527 25.2043768,13.1461602 24.2886337,12.3629701 C23.9679525,12.0887072 23.6713776,11.834095 23.4062614,11.6057448 C23.2476551,11.4691338 23.1344408,11.3713423 23.0760294,11.3207606 C22.0449834,10.4279461 20.4989694,10.4848215 19.5363122,11.4509813 L12.1153122,18.8989813 C11.2182124,19.799345 11.1045775,21.2167094 11.8467698,22.2485008 C11.8948176,22.3152961 11.8948176,22.3152961 12.1133372,22.6195837 C12.3259417,22.9157744 12.5628994,23.2463243 12.8181056,23.6028726 C13.5471044,24.6213561 14.2760295,25.6437633 14.9558584,26.6029402 C15.8173091,27.8188948 16.4837947,28.7681888 16.9871427,29.4971287 C14.0763738,33.3847092 12.0135917,38.4489613 11.3691373,43.4590239 C11.2280813,43.4715425 11.0800192,43.4842894 10.9252467,43.4972396 C10.1581082,43.5614281 9.24265911,43.6293243 8.21120418,43.6995086 C7.04174421,43.7790834 5.78682541,43.8573724 4.53163726,43.9309435 C4.09210974,43.9567057 3.68404051,43.9800321 3.31799336,44.0005011 C3.09882439,44.0127569 2.94202839,44.0213558 2.86022889,44.025764 C1.48225632,44.1000344 0.403,45.2390273 0.403,46.619 L0.403,57.258 C0.403,58.5879794 1.40778072,59.7030137 2.730584,59.8409874 C2.8137921,59.8496664 2.97180394,59.8663581 3.19389182,59.8901565 C3.56510725,59.9299352 3.97901012,59.9750151 4.42484775,60.0244866 C5.69783713,60.1657414 6.97045429,60.3137345 8.15574107,60.4610434 C8.83291308,60.5452032 9.46217347,60.6267866 10.0338546,60.7049268 C10.6205269,60.7851161 11.1390845,60.8606831 11.5793769,60.9303546 C12.264301,65.3420141 14.1898993,69.5416464 17.3383077,74.2713644 C16.8010831,74.9910209 16.0608953,75.9439317 15.168125,77.0695217 C14.2540076,78.219761 13.4557416,79.2114321 12.6573089,80.1949145 C12.3777331,80.5392865 12.1181767,80.8579495 11.8853639,81.1429717 C11.7460071,81.3135801 11.6462904,81.4353591 11.5944135,81.4985762 C10.7328922,82.5484447 10.825763,84.0848079 11.807475,85.0232558 L19.227475,92.1162558 C20.1650001,93.0124641 21.6199986,93.0795896 22.6360579,92.2735088 C22.6987011,92.2238101 22.8197971,92.1279703 22.9894577,91.9940619 C23.2729838,91.7702825 23.5900983,91.52078 23.9329345,91.2520262 C24.9119905,90.4845313 25.900126,89.7172132 26.8337957,89.0022878 C28.2316236,87.9345895 29.2070623,87.2075854 29.932318,86.6921976 C35.154609,89.90393 39.2051773,91.7207426 43.5632976,92.3994941 C43.5789364,92.549992 43.5949031,92.7090433 43.6111539,92.8762286 C43.6871214,93.6577708 43.7676378,94.5985221 43.8508929,95.6629792 C43.9427579,96.8375159 44.0330364,98.0981888 44.117787,99.3591749 C44.1474663,99.800766 44.1743265,100.210741 44.1978854,100.57847 C44.2119865,100.798572 44.221879,100.956076 44.2269304,101.037951 C44.3114434,102.407517 45.4468293,103.475 46.819,103.475 L57.067,103.475 C58.3985084,103.475 59.5143049,102.467976 59.650399,101.143441 C59.6589115,101.060593 59.6753224,100.903087 59.6987619,100.681634 C59.7379503,100.311385 59.782434,99.8985366 59.8313389,99.4538265 C59.9709679,98.1841276 60.1178858,96.9148322 60.2649398,95.7328546 C60.3603009,94.96637 60.4526139,94.2622006 60.5406488,93.6343325 C60.6193182,93.0732594 60.6935674,92.5805665 60.7619896,92.1666681 C65.8072592,91.0382091 70.4697154,89.0942059 74.5359916,86.3862231 C75.2240249,86.9164389 76.1226778,87.6432 77.1770572,88.5184002 C77.3114361,88.6300127 77.3114361,88.6300127 77.4457597,88.7418465 C78.3530554,89.4976672 79.3115962,90.3090946 80.2600511,91.120737 C80.5921948,91.4049697 80.899242,91.6688324 81.1736123,91.9054681 C81.3377214,92.047007 81.4540804,92.147679 81.5151281,92.2006424 C82.5644921,93.1110444 84.1444933,93.0343823 85.1007896,92.0266649 L92.1677896,84.5796649 C93.1042131,83.5928889 93.1204609,82.0507074 92.2050353,81.044421 C92.1515387,80.9856146 92.0497093,80.8733439 91.9064809,80.7148924 C91.6669439,80.449896 91.3998272,80.1532327 91.1120813,79.832206 C90.2904483,78.9155426 89.4690533,77.9883647 88.7040958,77.1098334 C88.5814296,76.9688605 88.5814296,76.9688605 88.4590506,76.8278229 C87.6239601,75.8647038 86.9238794,75.0356904 86.4004493,74.3862212 C89.1757447,70.5243211 91.086935,66.1557165 92.1339551,61.1817157 C92.4263757,61.1378614 92.7574369,61.091638 93.1232548,61.043589 C93.857276,60.9471777 94.7159538,60.8452879 95.673052,60.7398865 C96.8617637,60.6089784 98.1383076,60.4795246 99.4152597,60.3574497 C99.8625126,60.3146929 100.277721,60.2759275 100.650086,60.2418755 C100.872802,60.2215086 101.031203,60.2072861 101.114516,60.1999266 C102.455017,60.0815135 103.483,58.9587205 103.483,57.613 L103.483,46.265 C103.483,44.8964478 102.420958,43.7627515 101.055318,43.6735254 C100.973126,43.6681561 100.81521,43.6576724 100.594511,43.6427555 C100.225828,43.6178365 99.8148002,43.5894857 99.372079,43.5582327 C98.1078321,43.4689857 96.8438843,43.3744446 95.6661963,43.278927 C94.7454465,43.2042485 93.9156946,43.1320001 93.2001841,43.0634383 C92.8037928,43.0254551 92.4464563,42.9889662 92.1323323,42.9543542 C90.7955308,37.9146558 89.1539866,33.8710788 86.7995356,29.7963841 Z M81.3332104,88.4513351 L84.9188719,88.2773576 C84.8541198,88.2211802 84.7339525,88.1172134 84.5658818,87.9722577 C84.2866192,87.7314026 83.9745266,87.4632041 83.6370969,87.1744478 C83.4362743,87.0025934 83.2349848,86.8307297 83.0337633,86.6593417 L81.3332104,88.4513351 Z M23.2156878,15.1170187 L19.6759706,15.2472394 C19.7391167,15.3019181 19.8543918,15.4014897 20.0165814,15.541187 C20.2861251,15.7733507 20.5872658,16.0318827 20.9127303,16.3102365 C21.1131855,16.481676 21.3140777,16.6531247 21.5148312,16.8240637 L23.2156878,15.1170187 Z M95.1044949,55.5770986 C94.1140589,55.6861714 93.2208359,55.7921603 92.4468495,55.8938209 C91.5311822,56.0140908 90.7933025,56.1267141 90.2402289,56.2344167 C89.8864085,56.3033178 89.5950856,56.372137 89.3401631,56.4530616 C89.1206203,56.5227549 88.9207149,56.6019943 88.7094601,56.717717 C88.5059673,56.8291878 88.3114174,56.9636486 88.1163024,57.1502023 C87.7340579,57.5156745 87.4377418,57.9932228 87.3310581,58.6267395 C86.413056,64.1257185 84.3760586,68.7083381 81.1957749,72.6503381 C80.635354,73.3429295 80.5345544,74.0688019 80.6453472,74.7530827 C80.6904678,75.0317572 80.7669642,75.2616788 80.8666746,75.486857 C80.9683029,75.7163665 81.0904567,75.9282903 81.2438035,76.1625873 C81.451589,76.4800606 81.7352732,76.8624256 82.1011769,77.3257896 C82.7004673,78.0847039 83.5270183,79.0681675 84.5347825,80.2304331 C84.6608134,80.3756793 84.6608134,80.3756793 84.7869214,80.5206076 C85.4153502,81.2423396 86.0786418,81.9934969 86.7486974,82.7446517 L83.0337633,86.6593417 C82.2684565,86.0075008 81.5041317,85.3625409 80.7702049,84.7511448 C80.6324571,84.6364601 80.6324571,84.6364601 80.4944527,84.5218364 C79.2988662,83.5294255 78.2882208,82.7142866 77.5113304,82.1226167 C77.0404724,81.7640172 76.653506,81.4857242 76.3368498,81.2827045 C76.1091913,81.1367444 75.9053469,81.0203416 75.6896809,80.9232396 C75.481454,80.829487 75.2707366,80.7557666 75.0159879,80.7067011 C74.3466207,80.5777788 73.6471637,80.6399706 72.925597,81.1726456 C68.76018,84.2525398 63.7346499,86.3604553 58.1827709,87.3938517 C57.5212057,87.5172881 57.0462262,87.8370305 56.6855535,88.2418044 C56.512294,88.4362492 56.3883948,88.6268143 56.2847726,88.8261954 C56.1771874,89.0332019 56.1012815,89.2319929 56.0327562,89.453107 C55.9493501,89.722238 55.8744781,90.0396664 55.797489,90.4284394 C55.674332,91.0503464 55.5412799,91.8838567 55.3969639,92.9131242 C55.3048724,93.569924 55.2091491,94.3001073 55.1106774,95.0915945 C54.983715,96.1120813 54.8573339,97.1920206 54.7355584,98.281 L49.2504155,98.281 C49.1792197,97.248348 49.1047845,96.2259094 49.0290786,95.2579739 C48.9434817,94.1635761 48.8603282,93.1920136 48.7807893,92.3737291 C48.7005535,91.5482762 48.6249666,90.8878287 48.5520856,90.398069 C48.5057016,90.0863688 48.4591117,89.8317778 48.4032767,89.6092076 C48.3530709,89.4090769 48.2954687,89.2279698 48.2057516,89.0287998 C48.0943044,88.7890537 48.0943044,88.7890537 47.8115338,88.395511 C47.3313865,87.8535893 47.3313865,87.8535893 45.9821135,87.452822 C41.5015137,87.1184893 37.4185976,85.3080243 31.3536004,81.4549523 C30.6003146,80.9771531 29.9606849,80.9665239 29.3161154,81.1169174 C29.0986403,81.1676595 28.9174306,81.2344529 28.7356407,81.3168746 C28.5425068,81.4044395 28.3532061,81.5092826 28.1384145,81.6405992 C27.8284268,81.8301156 27.4414859,82.0912013 26.967681,82.4270875 C26.1781703,82.9867816 25.1450365,83.756377 23.9208282,84.6912407 C23.7983651,84.784803 23.7983651,84.784803 23.6760734,84.8784031 C22.8714407,85.4945228 22.0295646,86.146926 21.1878115,86.8048083 L17.1298346,82.9256668 C17.7905151,82.1092582 18.4448701,81.294593 19.0638679,80.5158599 C19.1507,80.4065821 19.1507,80.4065821 19.2375045,80.2971813 C20.2098338,79.0712846 21.0110811,78.0383729 21.5940287,77.2527601 C21.9423054,76.7834029 22.2130207,76.4020296 22.4090786,76.1002131 C22.5436443,75.8930593 22.6510682,75.7122951 22.7417945,75.5294532 C22.8289611,75.3537853 22.9005963,75.1798824 22.958867,74.9676527 C23.1539369,74.2571806 23.1614738,73.5648239 22.5809067,72.7373802 C18.8489056,67.4121643 16.8693754,63.0952738 16.5420001,58.6454526 C16.4834391,57.8420599 16.1214613,57.2695742 15.6432398,56.850447 C15.434892,56.6678449 15.2341465,56.5428158 15.0227356,56.4387538 C14.8150214,56.3365113 14.6164019,56.2652071 14.3923553,56.1999257 C14.1189446,56.120261 13.7896362,56.0468053 13.3823268,55.9699695 C12.7238203,55.8457473 11.8347491,55.7087873 10.7372558,55.5587765 C10.1430918,55.4775632 9.49327167,55.3933142 8.7963294,55.3066974 C7.77283406,55.1794962 6.68943148,55.0522436 5.597,54.9291759 L5.597,49.0708253 C6.61060458,49.0098291 7.61373606,48.9461729 8.5638095,48.8815261 C9.62000586,48.8096583 10.5609734,48.7398694 11.3583289,48.6731526 C12.1935498,48.6032675 12.861067,48.5376684 13.3521081,48.4751022 C13.6584727,48.4360666 13.9066297,48.397235 14.1187079,48.3517709 C14.305716,48.3116811 14.4731576,48.2661437 14.6582362,48.1946637 C14.8834839,48.1055861 14.8834839,48.1055861 15.2812489,47.8584669 C15.8781161,47.4213688 15.8781161,47.4213688 16.3692684,45.8530812 C16.6029667,40.6691696 18.8972039,35.046744 22.1365956,31.3914532 C23.1900456,30.1975524 23.0937786,29.7951491 22.561041,28.5861267 C22.5089706,28.4679555 22.457215,28.3693485 22.3961837,28.2624893 C22.3283162,28.1436608 22.2450406,28.0094655 22.1393013,27.8459203 C21.9677823,27.5806349 21.7257702,27.2212735 21.414675,26.7686141 C20.8803774,25.9911838 20.148196,24.9471781 19.2645288,23.6998415 C18.6035857,22.7672883 17.9778602,21.8889522 17.3471969,21.0068612 L21.5148311,16.8240637 C22.2458496,17.4465165 22.9750293,18.0622114 23.6745764,18.6460972 C23.7938258,18.7455837 23.7938258,18.7455837 23.9132593,18.8450299 C25.0646784,19.8032738 26.0365015,20.5913722 26.7803877,21.1641885 C27.2299785,21.5103878 27.597818,21.7793412 27.8958938,21.9757796 C28.1093717,22.1164661 28.2989795,22.2289902 28.4986342,22.3245806 C28.6957985,22.4189786 28.8941299,22.4947017 29.137663,22.5499222 C29.8474577,22.7108665 30.5832094,22.6660989 31.3574038,22.0639477 C35.3989333,18.9270254 40.4854086,16.8655558 46.0435779,16.070855 C47.5429975,15.855186 47.730846,15.5181691 48.1455737,14.3224803 C48.1863466,14.2049293 48.2143969,14.1023915 48.241226,13.9888532 C48.2704101,13.865349 48.2984638,13.724108 48.3296998,13.5502124 C48.3797737,13.2714436 48.4411094,12.8893379 48.5143891,12.4038072 C48.6409581,11.5651976 48.8022972,10.4234352 48.9907646,9.042588 C49.0209676,8.82106651 49.0209676,8.82106651 49.0511027,8.59916029 C49.1813424,7.63920852 49.3169002,6.62278921 49.4520368,5.597 L55.4149818,5.597 C55.5145539,6.61578474 55.6150899,7.624599 55.7127315,8.57848763 C55.7393426,8.83845955 55.765491,9.09189102 55.7911289,9.33822255 C55.9288912,10.6618553 56.0487067,11.7503484 56.1460888,12.5483908 C56.2026196,13.0116584 56.2515586,13.3770792 56.2942125,13.6477852 C56.3219084,13.8235598 56.3481333,13.9684502 56.3782277,14.1008773 C56.4073305,14.2289413 56.4393911,14.3465044 56.4887094,14.4830024 C56.8455651,15.4706707 57.1300339,15.9370373 58.4834345,16.1831102 C64.3600213,17.2681072 69.2141083,19.2659953 72.8426737,22.282929 C74.0211787,23.2611664 74.6406422,23.1147517 75.6730531,22.6140958 C75.8141358,22.5456793 75.9278958,22.4779101 76.0483236,22.3986179 C76.1752971,22.315016 76.3118486,22.2157583 76.4754509,22.0908417 C76.7319196,21.8950179 77.0731036,21.6214031 77.5004839,21.2701524 C78.2298237,20.6707306 79.2043688,19.8498973 80.3669159,18.8586336 C81.1914261,18.1551666 81.9371568,17.5152559 82.6880631,16.8682539 L86.8480153,21.2417813 C86.2017125,22.0613619 85.5610845,22.8783655 84.9560423,23.6561727 C83.9071418,25.0060822 83.1407368,26.0087586 82.5812399,26.7650132 C82.2507952,27.2116649 81.9932493,27.571291 81.8075179,27.8480109 C81.6855869,28.029675 81.5881539,28.1845363 81.505689,28.3337052 C81.4282373,28.4738058 81.3625077,28.6092455 81.3012952,28.7741427 C81.018838,29.5350395 80.9359417,30.1399215 81.520225,31.0862959 C84.3189979,35.6221387 86.0654921,39.9007074 87.5031527,45.8290491 C87.6887209,46.5890084 88.092953,47.0508055 88.5842254,47.3855149 C88.9339291,47.5947927 88.9339291,47.5947927 89.1452021,47.6802082 C89.3268989,47.7514679 89.4969272,47.7998609 89.6864112,47.8431491 C89.915437,47.8954708 90.1869149,47.9417872 90.5209422,47.9888958 C91.0625532,48.0652803 91.7946345,48.1465462 92.7047523,48.2337558 C93.4481769,48.3049925 94.302186,48.379353 95.24631,48.4559272 C96.220382,48.5349304 97.249619,48.6130632 98.289,48.6881247 L98.289,55.2480452 C97.2016417,55.3541046 96.1235996,55.4648687 95.1044949,55.5770986 Z"></path><path id="Stroke-3" fill="#ff3b30" d="M51.323,26.403 C37.0057976,26.403 25.403,38.0446282 25.403,52.401 C25.403,66.7573718 37.0057976,78.399 51.323,78.399 C65.6393744,78.399 77.242,66.7571995 77.242,52.401 C77.242,38.0448005 65.6393744,26.403 51.323,26.403 Z M51.323,31.597 C62.7668809,31.597 72.048,40.9094556 72.048,52.401 C72.048,63.8925444 62.7668809,73.205 51.323,73.205 C39.8782564,73.205 30.597,63.8926824 30.597,52.401 C30.597,40.9093176 39.8782564,31.597 51.323,31.597 Z"></path></g><path id="Type" d="M172.6,58.68 C172.6,62.0933504 172.013339,65.1733196 170.84,67.92 C169.666661,70.6666804 168.066677,72.9999904 166.04,74.92 C164.013323,76.8400096 161.613347,78.3199948 158.84,79.36 C156.066653,80.4000052 153.05335,80.92 149.8,80.92 C146.54665,80.92 143.533347,80.4000052 140.76,79.36 C137.986653,78.3199948 135.573344,76.8400096 133.52,74.92 C131.466656,72.9999904 129.866672,70.6666804 128.72,67.92 C127.573328,65.1733196 127,62.0933504 127,58.68 L127,22.84 L137.08,22.84 L137.08,58.28 C137.08,59.9333416 137.293331,61.5733252 137.72,63.2 C138.146669,64.8266748 138.853328,66.2799936 139.84,67.56 C140.826672,68.8400064 142.133325,69.879996 143.76,70.68 C145.386675,71.480004 147.399988,71.88 149.8,71.88 C152.200012,71.88 154.213325,71.480004 155.84,70.68 C157.466675,69.879996 158.773328,68.8400064 159.76,67.56 C160.746672,66.2799936 161.453331,64.8266748 161.88,63.2 C162.306669,61.5733252 162.52,59.9333416 162.52,58.28 L162.52,22.84 L172.6,22.84 L172.6,58.68 Z M187.828863,41.08 L187.828863,46.44 L188.068863,46.44 C188.548865,45.6933296 189.175526,44.9333372 189.948863,44.16 C190.7222,43.3866628 191.668857,42.6933364 192.788863,42.08 C193.908869,41.4666636 195.175523,40.960002 196.588863,40.56 C198.002203,40.159998 199.588854,39.96 201.348863,39.96 C204.068877,39.96 206.575518,40.4799948 208.868863,41.52 C211.162208,42.5600052 213.135521,43.9866576 214.788863,45.8 C216.442205,47.6133424 217.722192,49.7466544 218.628863,52.2 C219.535534,54.6533456 219.988863,57.2933192 219.988863,60.12 C219.988863,62.9466808 219.548867,65.5999876 218.668863,68.08 C217.788859,70.5600124 216.535538,72.7199908 214.908863,74.56 C213.282188,76.4000092 211.308875,77.8666612 208.988863,78.96 C206.668851,80.0533388 204.042211,80.6 201.108863,80.6 C198.388849,80.6 195.895541,80.0400056 193.628863,78.92 C191.362185,77.7999944 189.615536,76.2800096 188.388863,74.36 L188.228863,74.36 L188.228863,98.68 L178.628863,98.68 L178.628863,41.08 L187.828863,41.08 Z M210.228863,60.12 C210.228863,58.6266592 210.002199,57.146674 209.548863,55.68 C209.095527,54.213326 208.415534,52.8933392 207.508863,51.72 C206.602192,50.5466608 205.455537,49.6000036 204.068863,48.88 C202.682189,48.1599964 201.055539,47.8 199.188863,47.8 C197.428854,47.8 195.855537,48.1733296 194.468863,48.92 C193.082189,49.6666704 191.895535,50.6266608 190.908863,51.8 C189.922191,52.9733392 189.175532,54.3066592 188.668863,55.8 C188.162194,57.2933408 187.908863,58.7866592 187.908863,60.28 C187.908863,61.7733408 188.162194,63.253326 188.668863,64.72 C189.175532,66.186674 189.922191,67.5066608 190.908863,68.68 C191.895535,69.8533392 193.082189,70.7999964 194.468863,71.52 C195.855537,72.2400036 197.428854,72.6 199.188863,72.6 C201.055539,72.6 202.682189,72.2266704 204.068863,71.48 C205.455537,70.7333296 206.602192,69.7733392 207.508863,68.6 C208.415534,67.4266608 209.095527,66.0933408 209.548863,64.6 C210.002199,63.1066592 210.228863,61.6133408 210.228863,60.12 Z M224.257726,22.84 L234.337726,22.84 L234.337726,47.32 L234.577726,47.32 L258.257726,22.84 L271.857726,22.84 L245.377726,49 L273.617726,79.48 L259.457726,79.48 L234.577726,51.08 L234.337726,51.08 L234.337726,79.48 L224.257726,79.48 L224.257726,22.84 Z M298.046589,56.44 C298.046589,55.2133272 297.873257,54.0400056 297.526589,52.92 C297.179921,51.7999944 296.633259,50.8133376 295.886589,49.96 C295.139919,49.1066624 294.193261,48.4266692 293.046589,47.92 C291.899917,47.4133308 290.553263,47.16 289.006589,47.16 C286.126575,47.16 283.686599,48.026658 281.686589,49.76 C279.686579,51.493342 278.579923,53.7199864 278.366589,56.44 L298.046589,56.44 Z M307.646589,60.76 L307.646589,62.04 C307.646589,62.4666688 307.619923,62.8933312 307.566589,63.32 L278.366589,63.32 C278.473256,64.7066736 278.833253,65.9733276 279.446589,67.12 C280.059925,68.2666724 280.873251,69.2533292 281.886589,70.08 C282.899927,70.9066708 284.046583,71.5599976 285.326589,72.04 C286.606595,72.5200024 287.939915,72.76 289.326589,72.76 C291.726601,72.76 293.753247,72.3200044 295.406589,71.44 C297.059931,70.5599956 298.419917,69.3466744 299.486589,67.8 L305.886589,72.92 C302.099903,78.0400256 296.606625,80.6 289.406589,80.6 C286.419907,80.6 283.673268,80.133338 281.166589,79.2 C278.65991,78.266662 276.486598,76.9466752 274.646589,75.24 C272.80658,73.5333248 271.366594,71.4400124 270.326589,68.96 C269.286584,66.4799876 268.766589,63.6666824 268.766589,60.52 C268.766589,57.4266512 269.286584,54.613346 270.326589,52.08 C271.366594,49.546654 272.793247,47.3866756 274.606589,45.6 C276.419931,43.8133244 278.566577,42.4266716 281.046589,41.44 C283.526601,40.4533284 286.206575,39.96 289.086589,39.96 C291.753269,39.96 294.219911,40.3999956 296.486589,41.28 C298.753267,42.1600044 300.713247,43.466658 302.366589,45.2 C304.019931,46.933342 305.313251,49.0933204 306.246589,51.68 C307.179927,54.2666796 307.646589,57.293316 307.646589,60.76 Z M338.475452,56.44 C338.475452,55.2133272 338.30212,54.0400056 337.955452,52.92 C337.608783,51.7999944 337.062122,50.8133376 336.315452,49.96 C335.568781,49.1066624 334.622124,48.4266692 333.475452,47.92 C332.328779,47.4133308 330.982126,47.16 329.435452,47.16 C326.555437,47.16 324.115462,48.026658 322.115452,49.76 C320.115442,51.493342 319.008786,53.7199864 318.795452,56.44 L338.475452,56.44 Z M348.075452,60.76 L348.075452,62.04 C348.075452,62.4666688 348.048785,62.8933312 347.995452,63.32 L318.795452,63.32 C318.902119,64.7066736 319.262115,65.9733276 319.875452,67.12 C320.488788,68.2666724 321.302113,69.2533292 322.315452,70.08 C323.32879,70.9066708 324.475445,71.5599976 325.755452,72.04 C327.035458,72.5200024 328.368778,72.76 329.755452,72.76 C332.155464,72.76 334.18211,72.3200044 335.835452,71.44 C337.488793,70.5599956 338.84878,69.3466744 339.915452,67.8 L346.315452,72.92 C342.528766,78.0400256 337.035488,80.6 329.835452,80.6 C326.84877,80.6 324.102131,80.133338 321.595452,79.2 C319.088773,78.266662 316.915461,76.9466752 315.075452,75.24 C313.235443,73.5333248 311.795457,71.4400124 310.755452,68.96 C309.715447,66.4799876 309.195452,63.6666824 309.195452,60.52 C309.195452,57.4266512 309.715447,54.613346 310.755452,52.08 C311.795457,49.546654 313.222109,47.3866756 315.035452,45.6 C316.848794,43.8133244 318.995439,42.4266716 321.475452,41.44 C323.955464,40.4533284 326.635437,39.96 329.515452,39.96 C332.182132,39.96 334.648774,40.3999956 336.915452,41.28 C339.18213,42.1600044 341.14211,43.466658 342.795452,45.2 C344.448793,46.933342 345.742114,49.0933204 346.675452,51.68 C347.60879,54.2666796 348.075452,57.293316 348.075452,60.76 Z M361.064315,41.08 L361.064315,46.44 L361.304315,46.44 C361.784317,45.6933296 362.410978,44.9333372 363.184315,44.16 C363.957652,43.3866628 364.904309,42.6933364 366.024315,42.08 C367.14432,41.4666636 368.410974,40.960002 369.824315,40.56 C371.237655,40.159998 372.824306,39.96 374.584315,39.96 C377.304328,39.96 379.81097,40.4799948 382.104315,41.52 C384.39766,42.5600052 386.370973,43.9866576 388.024315,45.8 C389.677656,47.6133424 390.957644,49.7466544 391.864315,52.2 C392.770986,54.6533456 393.224315,57.2933192 393.224315,60.12 C393.224315,62.9466808 392.784319,65.5999876 391.904315,68.08 C391.02431,70.5600124 389.77099,72.7199908 388.144315,74.56 C386.51764,76.4000092 384.544326,77.8666612 382.224315,78.96 C379.904303,80.0533388 377.277663,80.6 374.344315,80.6 C371.624301,80.6 369.130993,80.0400056 366.864315,78.92 C364.597637,77.7999944 362.850988,76.2800096 361.624315,74.36 L361.464315,74.36 L361.464315,98.68 L351.864315,98.68 L351.864315,41.08 L361.064315,41.08 Z M383.464315,60.12 C383.464315,58.6266592 383.23765,57.146674 382.784315,55.68 C382.330979,54.213326 381.650986,52.8933392 380.744315,51.72 C379.837644,50.5466608 378.690988,49.6000036 377.304315,48.88 C375.917641,48.1599964 374.290991,47.8 372.424315,47.8 C370.664306,47.8 369.090988,48.1733296 367.704315,48.92 C366.317641,49.6666704 365.130986,50.6266608 364.144315,51.8 C363.157643,52.9733392 362.410984,54.3066592 361.904315,55.8 C361.397646,57.2933408 361.144315,58.7866592 361.144315,60.28 C361.144315,61.7733408 361.397646,63.253326 361.904315,64.72 C362.410984,66.186674 363.157643,67.5066608 364.144315,68.68 C365.130986,69.8533392 366.317641,70.7999964 367.704315,71.52 C369.090988,72.2400036 370.664306,72.6 372.424315,72.6 C374.290991,72.6 375.917641,72.2266704 377.304315,71.48 C378.690988,70.7333296 379.837644,69.7733392 380.744315,68.6 C381.650986,67.4266608 382.330979,66.0933408 382.784315,64.6 C383.23765,63.1066592 383.464315,61.6133408 383.464315,60.12 Z"></path></g></svg>