<svg
    width="17"
    height="14"
    viewBox="0 0 17 14"
    fill="none"
    xmlns="http://www.w3.org/2000/svg"
>
    <g clip-path="url(#clip0_793_11416)">
    <path
        d="M1.25 3H3.75"
        stroke="black"
        stroke-width="1.5"
        stroke-linecap="round"
        stroke-linejoin="round"
    />
    <path
        d="M9.25 3H15.75"
        stroke="black"
        stroke-width="1.5"
        stroke-linecap="round"
        stroke-linejoin="round"
    />
    <path
        d="M1.25 11H8.75"
        stroke="black"
        stroke-width="1.5"
        stroke-linecap="round"
        stroke-linejoin="round"
    />
    <path
        d="M14.25 11H15.75"
        stroke="black"
        stroke-width="1.5"
        stroke-linecap="round"
        stroke-linejoin="round"
    />
    <path
        d="M6.5 5.25C7.74264 5.25 8.75 4.24264 8.75 3C8.75 1.75736 7.74264 0.75 6.5 0.75C5.25736 0.75 4.25 1.75736 4.25 3C4.25 4.24264 5.25736 5.25 6.5 5.25Z"
        stroke="black"
        stroke-width="1.5"
        stroke-linecap="round"
        stroke-linejoin="round"
    />
    <path
        d="M11.5 13.25C12.7426 13.25 13.75 12.2426 13.75 11C13.75 9.75736 12.7426 8.75 11.5 8.75C10.2574 8.75 9.25 9.75736 9.25 11C9.25 12.2426 10.2574 13.25 11.5 13.25Z"
        stroke="black"
        stroke-width="1.5"
        stroke-linecap="round"
        stroke-linejoin="round"
    />
    </g>
    <defs>
    <clipPath id="clip0_793_11416">
        <rect
        width="16"
        height="14"
        fill="white"
        transform="translate(0.5)"
        />
    </clipPath>
    </defs>
</svg>