<?xml version="1.0" encoding="UTF-8"?>
<svg width="624px" height="512px" viewBox="0 0 624 512" version="1.1" xmlns="http://www.w3.org/2000/svg" xmlns:xlink="http://www.w3.org/1999/xlink">
    <title>Fill-1</title>
    <g id="Page-1" stroke="none" stroke-width="1" fill="none" fill-rule="evenodd">
        <path d="M1.15647562,65.9191105 C1.15647562,28.9118906 31.2248418,0 67.0755862,0 L557.42125,0 C594.42847,0 623.340361,30.0683662 623.340361,65.9191105 L623.340361,306.46604 C623.340361,343.47326 593.271995,372.385151 557.42125,372.385151 L506.536323,372.385151 C469.529103,372.385151 414.018273,387.419334 381.636956,404.766468 L203.53971,504.223372 C171.158392,521.570506 158.43716,508.849274 173.471344,476.467957 L194.287905,431.365408 C209.322088,397.827614 191.974953,371.228675 154.967734,371.228675 L65.9191105,371.228675 C28.9118906,371.228675 0,341.160309 0,305.309565 L0,65.9191105" id="Fill-1" fill="#FD810A" fill-rule="nonzero"></path>
    </g>
</svg>