<svg width="80" height="24" viewBox="0 0 80 24" fill="none" xmlns="http://www.w3.org/2000/svg">
<path d="M11.997 0C5.37137 0 0 5.37268 0 12.0001C0 18.6278 5.37137 24 11.997 24C18.6233 24 23.9941 18.6278 23.9941 12.0001C23.9941 5.37311 18.6233 0.000573193 11.9968 0.000573193L11.997 0ZM17.4987 17.3075C17.4475 17.3915 17.3803 17.4644 17.3009 17.5223C17.2214 17.5802 17.1314 17.6219 17.0358 17.6449C16.9403 17.6679 16.8411 17.6719 16.7441 17.6565C16.647 17.6412 16.5539 17.6068 16.4701 17.5555C13.6534 15.8344 10.1074 15.4447 5.93138 16.399C5.73801 16.443 5.53509 16.4084 5.36722 16.3028C5.19936 16.1972 5.08027 16.0293 5.03615 15.8359C5.01417 15.7401 5.01129 15.641 5.02767 15.5441C5.04406 15.4472 5.07938 15.3546 5.13162 15.2714C5.18387 15.1882 5.25201 15.1161 5.33213 15.0593C5.41226 15.0025 5.50281 14.962 5.59858 14.9403C10.1686 13.8959 14.0886 14.3456 17.2509 16.2787C17.6033 16.495 17.715 16.955 17.4987 17.3075V17.3075ZM18.9671 14.0401C18.6964 14.4803 18.1205 14.6193 17.6807 14.3484C14.4559 12.3658 9.54023 11.7916 5.72594 12.9497C5.23127 13.0992 4.7088 12.8203 4.55866 12.3264C4.48702 12.0889 4.51246 11.8327 4.62939 11.6139C4.74631 11.3952 4.94519 11.2318 5.18241 11.1595C9.53937 9.83713 14.9559 10.4777 18.6591 12.754C19.0989 13.0248 19.2379 13.6009 18.9671 14.0402V14.0401ZM19.0932 10.6376C15.2266 8.34038 8.84728 8.12916 5.15562 9.24989C4.56282 9.42973 3.93591 9.09499 3.75627 8.50202C3.66988 8.21714 3.70015 7.9096 3.84041 7.64703C3.98067 7.38446 4.21945 7.18836 4.50422 7.10185C8.74198 5.81504 15.7868 6.06366 20.2384 8.70708C20.3653 8.78216 20.4761 8.88153 20.5645 8.99951C20.653 9.11749 20.7172 9.25176 20.7537 9.39463C20.7902 9.5375 20.7981 9.68616 20.777 9.8321C20.756 9.97803 20.7063 10.1184 20.631 10.2451C20.3158 10.7785 19.6253 10.9543 19.0938 10.6376H19.0932ZM32.6398 11.0778C30.5683 10.5837 30.2001 10.2369 30.2001 9.50826C30.2001 8.81986 30.8477 8.35657 31.8118 8.35657C32.7458 8.35657 33.6713 8.70837 34.6426 9.4326C34.6712 9.45452 34.7085 9.46326 34.7443 9.45753C34.7623 9.45495 34.7796 9.4487 34.7951 9.43919C34.8107 9.42968 34.8241 9.4171 34.8346 9.40222L35.846 7.97612C35.8659 7.94784 35.8744 7.91302 35.8696 7.87873C35.8648 7.84444 35.8471 7.81327 35.8202 7.79155C34.6641 6.86398 33.3633 6.41302 31.8419 6.41302C29.6056 6.41302 28.0426 7.75558 28.0426 9.67649C28.0426 11.7364 29.3907 12.4658 31.7201 13.0288C33.7014 13.4855 34.0366 13.8681 34.0366 14.5519C34.0366 15.31 33.3604 15.7814 32.2716 15.7814C31.0625 15.7814 30.0755 15.373 28.9724 14.4187C28.9449 14.3954 28.9095 14.3836 28.8735 14.3857C28.8363 14.3886 28.8033 14.4058 28.7804 14.433L27.6458 15.7829C27.5985 15.8402 27.6043 15.9233 27.6587 15.972C28.9423 17.1184 30.521 17.7231 32.2258 17.7231C34.6354 17.7231 36.1927 16.4062 36.1927 14.3671C36.197 12.6465 35.1669 11.6936 32.6441 11.0797L32.6398 11.0778ZM41.6451 9.03437C40.6008 9.03437 39.7441 9.44593 39.0364 10.2892V9.34003C39.0365 9.30414 39.0224 9.26966 38.9972 9.24416C38.9719 9.21866 38.9376 9.20423 38.9017 9.20404H37.0465C36.972 9.20404 36.9118 9.26508 36.9118 9.34003V19.8869C36.9118 19.9614 36.972 20.023 37.0465 20.023H38.9017C38.9762 20.023 39.0364 19.9614 39.0364 19.8869V16.5581C39.7441 17.3505 40.6008 17.7389 41.6451 17.7389C43.5863 17.7389 45.5518 16.2443 45.5518 13.3871C45.5547 10.5293 43.5892 9.03423 41.6466 9.03423L41.6451 9.03437ZM43.3943 13.3871C43.3943 14.8414 42.4989 15.8574 41.2153 15.8574C39.9475 15.8574 38.9905 14.7955 38.9905 13.3871C38.9905 11.9784 39.9475 10.9169 41.2153 10.9169C42.4775 10.9167 43.3943 11.9554 43.3943 13.3869V13.3871ZM50.5874 9.03437C48.0875 9.03437 46.1291 10.9597 46.1291 13.4181C46.1291 15.8502 48.0746 17.7546 50.5573 17.7546C53.0658 17.7546 55.0299 15.8359 55.0299 13.3871C55.0299 10.9465 53.0787 9.03466 50.5874 9.03466V9.03437ZM50.5874 15.8717C49.2579 15.8717 48.2551 14.8027 48.2551 13.3863C48.2551 11.9635 49.2236 10.9311 50.5573 10.9311C51.8953 10.9311 52.9039 11.9996 52.9039 13.4174C52.9039 14.84 51.9297 15.8717 50.5874 15.8717ZM60.3677 9.20404H58.3263V7.11676C58.3263 7.09899 58.3229 7.08139 58.3162 7.06495C58.3095 7.04851 58.2996 7.03355 58.2871 7.02094C58.2746 7.00832 58.2597 6.99829 58.2433 6.99143C58.2269 6.98456 58.2094 6.98099 58.1916 6.98091H56.3364C56.2619 6.98091 56.2003 7.04196 56.2003 7.11676V9.20404H55.3092C55.2347 9.20404 55.1746 9.26508 55.1746 9.34003V10.9345C55.1746 11.0093 55.2347 11.0705 55.3092 11.0705H56.2003V15.1968C56.2003 16.8633 57.0298 17.7088 58.6672 17.7088C59.3319 17.7088 59.8835 17.5712 60.4035 17.276C60.4465 17.2531 60.4723 17.2072 60.4723 17.1585V15.6396C60.4723 15.5937 60.4479 15.5493 60.4078 15.5249C60.3883 15.5124 60.3658 15.5053 60.3427 15.5043C60.3196 15.5033 60.2966 15.5084 60.276 15.5192C59.9193 15.6983 59.5741 15.7814 59.1873 15.7814C58.5927 15.7814 58.3263 15.5106 58.3263 14.9059V11.0712H60.3677C60.4422 11.0712 60.5024 11.0102 60.5024 10.9352V9.34089C60.503 9.3231 60.5 9.30537 60.4935 9.28878C60.4871 9.27218 60.4773 9.25707 60.4649 9.24436C60.4524 9.23165 60.4375 9.22159 60.4211 9.21481C60.4046 9.20803 60.3869 9.20466 60.3691 9.2049L60.3677 9.20404ZM67.4791 9.21221V8.95585C67.4791 8.20167 67.7685 7.86535 68.416 7.86535C68.8028 7.86535 69.1137 7.94216 69.4618 8.05823C69.5048 8.0717 69.5492 8.06496 69.5836 8.03931C69.601 8.02672 69.6152 8.01013 69.6249 7.99093C69.6347 7.97174 69.6396 7.95049 69.6395 7.92897V6.36559C69.6398 6.33639 69.6306 6.30788 69.6133 6.28437C69.596 6.26087 69.5715 6.24365 69.5435 6.23533C69.1767 6.12599 68.7069 6.01379 68.002 6.01379C66.2901 6.01379 65.3832 6.97876 65.3832 8.80338V9.19601H64.4922C64.4177 9.19601 64.3561 9.25706 64.3561 9.33186V10.9345C64.3561 11.0093 64.4177 11.0705 64.4922 11.0705H65.3832V17.4336C65.3832 17.5096 65.4448 17.5698 65.5193 17.5698H67.3731C67.449 17.5698 67.5092 17.5096 67.5092 17.4336V11.0709H69.2412L71.8944 17.4336C71.5935 18.1014 71.297 18.2347 70.893 18.2347C70.5664 18.2347 70.2211 18.1372 69.8701 17.9438C69.8369 17.927 69.7985 17.9234 69.7627 17.9338C69.7269 17.9467 69.6968 17.9725 69.6825 18.0068L69.0535 19.3868C69.0235 19.4527 69.0492 19.5287 69.1123 19.5631C69.7684 19.9184 70.3601 20.0703 71.0921 20.0703C72.4617 20.0703 73.2195 19.4312 73.8857 17.7145L77.1033 9.39792C77.1117 9.37736 77.1147 9.35503 77.1122 9.33297C77.1097 9.31091 77.1017 9.28984 77.089 9.27168C77.0769 9.2535 77.0605 9.2386 77.0412 9.2283C77.022 9.218 77.0005 9.21262 76.9787 9.21264H75.0475C74.9888 9.21264 74.9372 9.24946 74.9186 9.30377L72.9402 14.9546L70.7741 9.30005C70.7644 9.27442 70.7472 9.25234 70.7246 9.23673C70.7021 9.22112 70.6754 9.21272 70.648 9.21264H67.4791V9.21221ZM63.3561 9.20404H61.5009C61.4264 9.20404 61.3648 9.26508 61.3648 9.34003V17.4336C61.3648 17.5096 61.4264 17.5698 61.5009 17.5698H63.3561C63.4306 17.5698 63.4922 17.5096 63.4922 17.4336V9.3406C63.4922 9.32272 63.4887 9.30501 63.4819 9.28848C63.4751 9.27196 63.4651 9.25694 63.4524 9.24431C63.4398 9.23167 63.4248 9.22166 63.4082 9.21484C63.3917 9.20803 63.374 9.20455 63.3561 9.20461V9.20404ZM62.4392 5.51855C61.7043 5.51855 61.1084 6.11353 61.1084 6.8485C61.1084 7.02332 61.1428 7.19642 61.2097 7.35793C61.2766 7.51943 61.3746 7.66618 61.4982 7.78978C61.6218 7.91339 61.7685 8.01143 61.93 8.07832C62.0914 8.1452 62.2645 8.17962 62.4392 8.1796C63.1742 8.1796 63.7687 7.58391 63.7687 6.8485C63.7687 6.11367 63.1727 5.51855 62.4392 5.51855ZM78.6878 11.8065C77.9543 11.8065 77.3826 11.2168 77.3826 10.5007C77.3826 9.78468 77.9614 9.18828 78.6949 9.18828C79.4284 9.18828 80 9.7778 80 10.4933C80 11.2094 79.4212 11.8065 78.6878 11.8065ZM78.6949 9.3181C78.0259 9.3181 77.5202 9.84974 77.5202 10.5007C77.5202 11.1515 78.023 11.6759 78.6878 11.6759C79.3568 11.6759 79.8625 11.1447 79.8625 10.4933C79.8625 9.84257 79.3596 9.3181 78.6949 9.3181V9.3181ZM78.9843 10.6276L79.3539 11.1446H79.0416L78.7092 10.6703H78.4241V11.1446H78.1634V9.77408H78.7737C79.0932 9.77408 79.3023 9.93701 79.3023 10.2113C79.3038 10.436 79.1734 10.5733 78.9857 10.6276H78.9843ZM78.7637 10.0092H78.4241V10.4427H78.7637C78.9327 10.4427 79.0344 10.3597 79.0344 10.2258C79.0344 10.0847 78.9327 10.0092 78.7637 10.0092V10.0092Z" fill="#1ED760"/>
</svg>
