<svg width="21" height="21" viewBox="0 0 21 21" fill="none" xmlns="http://www.w3.org/2000/svg">
<path fill-rule="evenodd" clip-rule="evenodd" d="M10.5 0C7.71523 0 5.04451 1.10625 3.07538 3.07538C1.10625 5.04451 0 7.71523 0 10.5C0 13.2848 1.10625 15.9555 3.07538 17.9246C5.04451 19.8938 7.71523 21 10.5 21C13.2848 21 15.9555 19.8938 17.9246 17.9246C19.8938 15.9555 21 13.2848 21 10.5C21 7.71523 19.8938 5.04451 17.9246 3.07538C15.9555 1.10625 13.2848 0 10.5 0ZM15.3159 15.1441C15.2712 15.2176 15.2124 15.2816 15.1429 15.3324C15.0734 15.3831 14.9945 15.4197 14.9109 15.4399C14.8272 15.4601 14.7404 15.4636 14.6554 15.4502C14.5704 15.4368 14.4888 15.4067 14.4155 15.3617C11.9495 13.8553 8.84745 13.515 5.19198 14.3496C5.10823 14.3688 5.02154 14.3712 4.93686 14.3568C4.85217 14.3424 4.77114 14.3115 4.6984 14.2658C4.62567 14.2201 4.56264 14.1605 4.51293 14.0905C4.46321 14.0204 4.42778 13.9413 4.40866 13.8575C4.38954 13.7738 4.3871 13.6871 4.40148 13.6024C4.41586 13.5177 4.44678 13.4367 4.49247 13.364C4.53817 13.2912 4.59774 13.2282 4.66779 13.1785C4.73784 13.1288 4.817 13.0934 4.90074 13.0742C8.89989 12.1592 12.3311 12.5531 15.0984 14.2447C15.4063 14.4333 15.5034 14.8361 15.3159 15.1441ZM16.5991 12.2853C16.4856 12.4701 16.3034 12.6022 16.0926 12.6529C15.8817 12.7035 15.6594 12.6684 15.4744 12.5554C12.6524 10.8202 8.34979 10.3181 5.01121 11.3313C4.80808 11.3795 4.59423 11.3484 4.41323 11.2444C4.23223 11.1403 4.09771 10.9712 4.0371 10.7714C3.97649 10.5717 3.99434 10.3563 4.08701 10.1692C4.17969 9.98216 4.34021 9.83748 4.53587 9.76466C8.34979 8.60754 13.0899 9.16881 16.3302 11.1595C16.422 11.2157 16.5018 11.2895 16.565 11.3765C16.6283 11.4636 16.6738 11.5623 16.6988 11.667C16.7239 11.7717 16.7281 11.8802 16.7112 11.9865C16.6943 12.0928 16.6566 12.1947 16.6003 12.2865L16.5991 12.2853ZM16.7118 9.30829C13.3264 7.29867 7.74277 7.11344 4.51243 8.09538C4.38847 8.13492 4.25788 8.14944 4.12825 8.13807C3.99863 8.12671 3.87256 8.08969 3.75736 8.02918C3.64217 7.96867 3.54015 7.88586 3.45724 7.78558C3.37432 7.68529 3.31217 7.56953 3.27439 7.44501C3.2366 7.3205 3.22394 7.18972 3.23715 7.06027C3.25035 6.93082 3.28915 6.80528 3.35129 6.69096C3.41343 6.57663 3.49767 6.4758 3.59912 6.39432C3.70057 6.31283 3.8172 6.25233 3.94224 6.21631C7.65016 5.08932 13.8163 5.30802 17.7116 7.62003C17.9357 7.75291 18.0977 7.96934 18.1622 8.2217C18.2266 8.47407 18.1882 8.7417 18.0553 8.96573C17.9224 9.18975 17.706 9.35182 17.4536 9.41627C17.2013 9.48072 16.9336 9.44228 16.7096 9.3094" fill="#37C06B"/>
</svg>
