<svg width="133" height="35" viewBox="0 0 133 35" fill="none" xmlns="http://www.w3.org/2000/svg">
<path fill-rule="evenodd" clip-rule="evenodd" d="M29.0758 9.892C29.2532 9.65275 29.4985 9.33198 29.7946 8.95083C30.0749 8.59056 30.3321 8.26297 30.5894 7.93739C30.6795 7.8234 30.7631 7.71782 30.8381 7.62331C30.8831 7.5667 30.9152 7.52629 30.932 7.50517C31.2039 7.1639 31.1824 6.67442 30.8817 6.35828L28.3842 3.7326C28.0621 3.39397 27.5306 3.36865 27.1778 3.67513C27.157 3.69322 27.157 3.69322 27.0619 3.77568C26.9692 3.85593 26.8658 3.94538 26.7543 4.04172C26.4356 4.31689 26.1154 4.59203 25.8147 4.84859C25.4448 5.16399 25.16 5.4044 24.9366 5.58947C23.6952 4.70899 22.195 4.09653 20.4758 3.71581C20.4481 3.47829 20.4154 3.1778 20.3788 2.8261C20.3703 2.74421 20.3616 2.6599 20.3527 2.57337C20.3129 2.18391 20.2715 1.76626 20.231 1.34855C20.2168 1.20232 20.2038 1.06654 20.1922 0.944717C20.1803 0.81952 20.1803 0.81952 20.1777 0.792035C20.1354 0.34308 19.7585 0 19.3075 0H15.7396C15.3 0 14.9289 0.326401 14.8727 0.762318C14.8692 0.789545 14.8692 0.789545 14.8532 0.913321C14.8376 1.03374 14.8201 1.16796 14.8011 1.31251C14.747 1.72541 14.6921 2.13827 14.6398 2.52332C14.6298 2.59734 14.6298 2.59734 14.6197 2.67117C14.5667 3.05942 14.5203 3.3899 14.4824 3.64754C12.7839 3.97198 11.2044 4.61156 9.85755 5.53528C9.63859 5.36401 9.35765 5.13535 9.03026 4.86289C8.65776 4.55207 8.34662 4.28856 8.03843 4.02499C7.93051 3.93269 7.8307 3.847 7.74148 3.77015C7.68811 3.72418 7.65 3.69127 7.63035 3.67425C7.28336 3.37378 6.76307 3.39292 6.4391 3.71807L3.94164 6.22461C3.63973 6.52762 3.60149 7.00461 3.85127 7.35185C3.86744 7.37433 3.86744 7.37433 3.94098 7.47674C4.01253 7.57641 4.09227 7.68766 4.17816 7.80765C4.4235 8.15041 4.66881 8.49449 4.8976 8.81729C5.18751 9.2265 5.41181 9.54598 5.5812 9.79129C4.60162 11.0996 3.90741 12.8039 3.69053 14.49C3.64306 14.4942 3.59323 14.4985 3.54114 14.5029C3.28297 14.5245 2.97489 14.5473 2.62776 14.5709C2.23419 14.5977 1.81186 14.6241 1.38945 14.6488C1.24153 14.6575 1.1042 14.6653 0.981007 14.6722C0.907249 14.6764 0.854481 14.6793 0.826952 14.6807C0.363211 14.7057 0 15.089 0 15.5535V19.1339C0 19.5815 0.338147 19.9567 0.783322 20.0032C0.811324 20.0061 0.864501 20.0117 0.939242 20.0197C1.06417 20.0331 1.20346 20.0483 1.35351 20.0649C1.78192 20.1125 2.2102 20.1623 2.6091 20.2118C2.83699 20.2402 3.04876 20.2676 3.24115 20.2939C3.43859 20.3209 3.61311 20.3463 3.76128 20.3698C3.99178 21.8545 4.63982 23.2678 5.69938 24.8595C5.51859 25.1017 5.26948 25.4224 4.96903 25.8012C4.6614 26.1883 4.39275 26.5221 4.12405 26.853C4.02996 26.9689 3.94261 27.0762 3.86426 27.1721C3.81736 27.2295 3.7838 27.2705 3.76634 27.2918C3.47641 27.6451 3.50766 28.1621 3.83804 28.478L6.33516 30.865C6.65067 31.1666 7.14034 31.1892 7.48228 30.918C7.50336 30.9012 7.54411 30.869 7.60121 30.8239C7.69663 30.7486 7.80335 30.6646 7.91873 30.5742C8.24822 30.3159 8.58076 30.0577 8.89498 29.8171C9.3654 29.4577 9.69367 29.2131 9.93775 29.0396C11.6953 30.1205 13.0584 30.7319 14.5251 30.9604C14.5304 31.011 14.5357 31.0645 14.5412 31.1208C14.5668 31.3838 14.5939 31.7004 14.6219 32.0586C14.6528 32.4539 14.6832 32.8782 14.7117 33.3026C14.7217 33.4512 14.7307 33.5891 14.7387 33.7129C14.7434 33.787 14.7467 33.84 14.7484 33.8675C14.7769 34.3284 15.159 34.6877 15.6208 34.6877H19.0696C19.5177 34.6877 19.8932 34.3488 19.939 33.903C19.9419 33.8752 19.9474 33.8221 19.9553 33.7476C19.9685 33.623 19.9835 33.4841 19.9999 33.3344C20.0469 32.9071 20.0964 32.4799 20.1458 32.0822C20.1779 31.8242 20.209 31.5872 20.2386 31.3759C20.2651 31.1871 20.2901 31.0213 20.3131 30.882C22.011 30.5022 23.5801 29.848 24.9486 28.9367C25.1802 29.1151 25.4826 29.3597 25.8374 29.6542C25.8826 29.6918 25.8826 29.6918 25.9279 29.7294C26.2332 29.9838 26.5558 30.2569 26.875 30.53C26.9867 30.6257 27.0901 30.7145 27.1824 30.7941C27.2376 30.8417 27.2768 30.8756 27.2973 30.8934C27.6505 31.1998 28.1822 31.174 28.5041 30.8349L30.8824 28.3287C31.1975 27.9966 31.203 27.4776 30.8949 27.1389C30.8769 27.1191 30.8426 27.0814 30.7944 27.028C30.7138 26.9389 30.6239 26.839 30.5271 26.731C30.2506 26.4225 29.9742 26.1105 29.7167 25.8148C29.6754 25.7674 29.6754 25.7674 29.6342 25.7199C29.3532 25.3958 29.1176 25.1168 28.9415 24.8982C29.8754 23.5985 30.5186 22.1283 30.871 20.4544C30.9694 20.4396 31.0808 20.4241 31.2039 20.4079C31.451 20.3754 31.7399 20.3412 32.062 20.3057C32.4621 20.2616 32.8917 20.2181 33.3214 20.177C33.472 20.1626 33.6117 20.1495 33.737 20.1381C33.812 20.1312 33.8653 20.1264 33.8933 20.124C34.3444 20.0841 34.6904 19.7063 34.6904 19.2534V15.4343C34.6904 14.9738 34.333 14.5922 33.8734 14.5622C33.8457 14.5604 33.7926 14.5569 33.7183 14.5518C33.5942 14.5435 33.4559 14.5339 33.3069 14.5234C32.8814 14.4934 32.4561 14.4615 32.0597 14.4294C31.7499 14.4043 31.4706 14.38 31.2298 14.3569C31.0964 14.3441 30.9762 14.3318 30.8704 14.3202C30.4206 12.6241 29.8681 11.2633 29.0758 9.892ZM27.2344 29.6314L28.4411 29.5728C28.4193 29.5539 28.3789 29.5189 28.3223 29.4702C28.2283 29.3891 28.1233 29.2989 28.0097 29.2017C27.9421 29.1438 27.8744 29.086 27.8067 29.0283L27.2344 29.6314ZM7.67563 4.95215L6.48438 4.99597C6.50563 5.01437 6.54442 5.04788 6.599 5.0949C6.68972 5.17303 6.79106 5.26004 6.90059 5.35371C6.96805 5.41141 7.03566 5.46911 7.10322 5.52663L7.67563 4.95215ZM31.8688 18.5683C31.5355 18.605 31.2349 18.6406 30.9744 18.6749C30.6663 18.7153 30.4179 18.7532 30.2318 18.7895C30.1127 18.8127 30.0147 18.8358 29.9289 18.8631C29.855 18.8865 29.7877 18.9132 29.7166 18.9521C29.6481 18.9896 29.5827 19.0349 29.517 19.0977C29.3884 19.2207 29.2887 19.3814 29.2527 19.5946C28.9438 21.4452 28.2583 22.9874 27.188 24.3141C26.9994 24.5472 26.9655 24.7914 27.0027 25.0217C27.0179 25.1155 27.0437 25.1929 27.0772 25.2687C27.1114 25.3459 27.1525 25.4172 27.2042 25.4961C27.2741 25.6029 27.3696 25.7316 27.4927 25.8875C27.6944 26.1429 27.9725 26.4739 28.3117 26.8651C28.3541 26.9139 28.3541 26.9139 28.3965 26.9627C28.608 27.2056 28.8313 27.4584 29.0568 27.7112L27.8065 29.0286C27.549 28.8093 27.2918 28.5922 27.0448 28.3865C26.9984 28.3479 26.9984 28.3479 26.952 28.3093C26.5496 27.9753 26.2095 27.701 25.948 27.5019C25.7896 27.3812 25.6593 27.2875 25.5528 27.2192C25.4762 27.1701 25.4076 27.1309 25.335 27.0982C25.2649 27.0667 25.194 27.0419 25.1083 27.0254C24.883 26.982 24.6476 27.0029 24.4048 27.1822C23.0029 28.2187 21.3116 28.9281 19.4432 29.2758C19.2206 29.3174 19.0607 29.425 18.9394 29.5612C18.8811 29.6266 18.8394 29.6908 18.8045 29.7579C18.7683 29.8275 18.7427 29.8944 18.7197 29.9689C18.6916 30.0594 18.6664 30.1663 18.6405 30.2971C18.599 30.5064 18.5543 30.7869 18.5057 31.1333C18.4747 31.3543 18.4425 31.6001 18.4094 31.8664C18.3666 32.2099 18.3241 32.5733 18.2831 32.9398H16.4371C16.4132 32.5923 16.3881 32.2482 16.3627 31.9224C16.3339 31.5541 16.3059 31.2271 16.2791 30.9518C16.2521 30.674 16.2267 30.4517 16.2021 30.2869C16.1865 30.182 16.1708 30.0963 16.1521 30.0214C16.1352 29.954 16.1158 29.8931 16.0856 29.8261C16.0481 29.7454 16.0481 29.7454 15.9529 29.6129C15.7913 29.4306 15.7913 29.4306 15.3372 29.2957C13.8293 29.1832 12.4553 28.5739 10.4142 27.2772C10.1607 27.1164 9.94541 27.1128 9.72849 27.1634C9.6553 27.1805 9.59432 27.203 9.53314 27.2307C9.46814 27.2602 9.40443 27.2955 9.33215 27.3396C9.22782 27.4034 9.0976 27.4913 8.93815 27.6043C8.67245 27.7927 8.32476 28.0517 7.91277 28.3663C7.87155 28.3978 7.87155 28.3978 7.8304 28.4293C7.55961 28.6366 7.27628 28.8562 6.993 29.0776L5.62734 27.7721C5.84968 27.4974 6.0699 27.2232 6.27821 26.9611C6.30744 26.9243 6.30744 26.9243 6.33665 26.8875C6.66387 26.475 6.93353 26.1274 7.12971 25.863C7.24692 25.705 7.33802 25.5767 7.40401 25.4751C7.44929 25.4054 7.48544 25.3445 7.51598 25.283C7.54531 25.2239 7.56942 25.1654 7.58903 25.0939C7.65468 24.8548 7.65721 24.6218 7.46183 24.3434C6.20587 22.5512 5.53968 21.0984 5.42951 19.6009C5.4098 19.3305 5.28798 19.1379 5.12704 18.9968C5.05692 18.9354 4.98936 18.8933 4.91822 18.8583C4.84831 18.8238 4.78147 18.7998 4.70607 18.7779C4.61406 18.7511 4.50323 18.7263 4.36616 18.7005C4.14454 18.6587 3.84534 18.6126 3.47599 18.5621C3.27603 18.5348 3.05734 18.5064 2.82279 18.4773C2.47835 18.4345 2.11374 18.3916 1.74609 18.3502V16.3787C2.08721 16.3581 2.4248 16.3367 2.74454 16.315C3.09999 16.2908 3.41666 16.2673 3.685 16.2448C3.96609 16.2213 4.19073 16.1992 4.35599 16.1782C4.45909 16.165 4.5426 16.152 4.61398 16.1367C4.67691 16.1232 4.73326 16.1079 4.79555 16.0838C4.87135 16.0538 4.87135 16.0538 5.00522 15.9707C5.20608 15.8236 5.20608 15.8236 5.37138 15.2958C5.45002 13.5512 6.22212 11.659 7.3123 10.4289C7.66683 10.0271 7.63443 9.89165 7.45515 9.48477C7.43762 9.445 7.4202 9.41182 7.39967 9.37586C7.37683 9.33587 7.3488 9.2907 7.31321 9.23566C7.25549 9.14639 7.17405 9.02545 7.06935 8.87311C6.88954 8.61147 6.64313 8.26013 6.34574 7.84035C6.12331 7.52651 5.91273 7.23092 5.70049 6.93406L7.10306 5.52639C7.34907 5.73586 7.59447 5.94307 7.82989 6.13957C7.87003 6.17305 7.87003 6.17305 7.91022 6.20652C8.29772 6.529 8.62477 6.79423 8.87512 6.987C9.02642 7.10351 9.15022 7.19403 9.25053 7.26014C9.32237 7.30748 9.38618 7.34535 9.45337 7.37752C9.51973 7.40929 9.58647 7.43477 9.66843 7.45336C9.90731 7.50752 10.1549 7.49246 10.4155 7.28981C11.7756 6.23411 13.4874 5.54035 15.3579 5.2729C15.8625 5.20032 15.9258 5.0869 16.0653 4.68451C16.079 4.64495 16.0885 4.61044 16.0975 4.57223C16.1073 4.53066 16.1168 4.48313 16.1273 4.42461C16.1441 4.33079 16.1648 4.2022 16.1894 4.0388C16.232 3.75657 16.2863 3.37233 16.3498 2.90762C16.3599 2.83307 16.3599 2.83307 16.3701 2.75839C16.4139 2.43533 16.4595 2.09326 16.505 1.74805H18.5118C18.5453 2.09091 18.5791 2.43041 18.612 2.75143C18.6209 2.83892 18.6297 2.92421 18.6383 3.00711C18.6847 3.45257 18.725 3.81889 18.7578 4.08746C18.7768 4.24336 18.7933 4.36634 18.8077 4.45745C18.817 4.5166 18.8258 4.56536 18.8359 4.60993C18.8457 4.65303 18.8565 4.69259 18.8731 4.73853C18.9932 5.07092 19.0889 5.22787 19.5444 5.31068C21.5221 5.67582 23.1557 6.34819 24.3769 7.3635C24.7735 7.69272 24.9819 7.64344 25.3294 7.47495C25.3769 7.45193 25.4151 7.42912 25.4557 7.40244C25.4984 7.3743 25.5444 7.3409 25.5994 7.29886C25.6857 7.23296 25.8006 7.14087 25.9444 7.02267C26.1898 6.82094 26.5178 6.54469 26.909 6.2111C27.1865 5.97435 27.4375 5.759 27.6902 5.54126L29.0902 7.01312C28.8727 7.28894 28.6571 7.56389 28.4535 7.82565C28.1005 8.27995 27.8425 8.61739 27.6543 8.8719C27.543 9.02221 27.4564 9.14324 27.3939 9.23637C27.3528 9.2975 27.32 9.34962 27.2923 9.39982C27.2662 9.44697 27.2441 9.49255 27.2235 9.54805C27.1284 9.80412 27.1005 10.0077 27.2972 10.3262C28.2391 11.8527 28.8268 13.2926 29.3107 15.2877C29.3731 15.5434 29.5092 15.6988 29.6745 15.8115C29.7922 15.8819 29.7922 15.8819 29.8633 15.9107C29.9244 15.9346 29.9816 15.9509 30.0454 15.9655C30.1225 15.9831 30.2139 15.9987 30.3263 16.0145C30.5085 16.0403 30.7549 16.0676 31.0612 16.097C31.3114 16.1209 31.5988 16.146 31.9165 16.1717C32.2443 16.1983 32.5907 16.2246 32.9405 16.2499V18.4575C32.5746 18.4932 32.2118 18.5305 31.8688 18.5683Z" fill="white"/>
<path fill-rule="evenodd" clip-rule="evenodd" d="M17.1362 8.75C12.3179 8.75 8.41309 12.6679 8.41309 17.4993C8.41309 22.3308 12.3179 26.2487 17.1362 26.2487C21.9542 26.2487 25.8589 22.3307 25.8589 17.4993C25.8589 12.6679 21.9542 8.75 17.1362 8.75ZM17.1343 10.498C20.9856 10.498 24.109 13.632 24.109 17.4994C24.109 21.3667 20.9856 24.5007 17.1343 24.5007C13.2827 24.5007 10.1592 21.3668 10.1592 17.4994C10.1592 13.632 13.2827 10.498 17.1343 10.498Z" fill="white"/>
<path fill-rule="evenodd" clip-rule="evenodd" d="M57.9506 19.6124C57.9506 20.7612 57.7532 21.7977 57.3583 22.7221C56.9635 23.6464 56.425 24.4317 55.743 25.0778C55.0609 25.724 54.2532 26.2221 53.3199 26.5721C52.3865 26.9221 51.3724 27.0971 50.2776 27.0971C49.1827 27.0971 48.1686 26.9221 47.2353 26.5721C46.3019 26.2221 45.4898 25.724 44.7987 25.0778C44.1077 24.4317 43.5692 23.6464 43.1833 22.7221C42.7974 21.7977 42.6045 20.7612 42.6045 19.6124V7.5509H45.9968V19.4778C45.9968 20.0342 46.0686 20.5862 46.2122 21.1336C46.3558 21.681 46.5936 22.1701 46.9256 22.6009C47.2577 23.0317 47.6974 23.3817 48.2449 23.6509C48.7923 23.9201 49.4699 24.0547 50.2776 24.0547C51.0853 24.0547 51.7628 23.9201 52.3103 23.6509C52.8577 23.3817 53.2974 23.0317 53.6295 22.6009C53.9615 22.1701 54.1994 21.681 54.343 21.1336C54.4865 20.5862 54.5583 20.0342 54.5583 19.4778V7.5509H57.9506V19.6124ZM63.0757 13.6894V15.4932H63.1565C63.3181 15.2419 63.5289 14.9862 63.7892 14.7259C64.0495 14.4656 64.3681 14.2323 64.745 14.0259C65.1219 13.8195 65.5482 13.649 66.0238 13.5144C66.4995 13.3797 67.0334 13.3124 67.6257 13.3124C68.5411 13.3124 69.3847 13.4874 70.1565 13.8374C70.9283 14.1874 71.5924 14.6676 72.1488 15.2778C72.7052 15.8881 73.136 16.606 73.4411 17.4317C73.7463 18.2573 73.8988 19.1458 73.8988 20.0971C73.8988 21.0483 73.7507 21.9413 73.4546 22.7759C73.1584 23.6105 72.7366 24.3374 72.1892 24.9567C71.6418 25.5759 70.9777 26.0695 70.1969 26.4374C69.4161 26.8054 68.5322 26.9894 67.545 26.9894C66.6296 26.9894 65.7905 26.8009 65.0277 26.424C64.2648 26.0471 63.677 25.5355 63.2642 24.8894H63.2104V33.074H59.9796V13.6894H63.0757ZM70.616 20.0974C70.616 19.5949 70.5397 19.0968 70.3872 18.6032C70.2346 18.1096 70.0058 17.6654 69.7006 17.2705C69.3955 16.8757 69.0096 16.5571 68.543 16.3148C68.0763 16.0724 67.5289 15.9513 66.9006 15.9513C66.3083 15.9513 65.7789 16.0769 65.3122 16.3282C64.8455 16.5795 64.4462 16.9026 64.1141 17.2974C63.7821 17.6923 63.5308 18.141 63.3603 18.6436C63.1897 19.1462 63.1045 19.6487 63.1045 20.1513C63.1045 20.6539 63.1897 21.1519 63.3603 21.6455C63.5308 22.1391 63.7821 22.5833 64.1141 22.9782C64.4462 23.3731 64.8455 23.6917 65.3122 23.934C65.7789 24.1763 66.3083 24.2974 66.9006 24.2974C67.5289 24.2974 68.0763 24.1718 68.543 23.9205C69.0096 23.6692 69.3955 23.3462 69.7006 22.9513C70.0058 22.5564 70.2346 22.1077 70.3872 21.6051C70.5397 21.1026 70.616 20.6 70.616 20.0974ZM75.3355 7.5509H78.7278V15.7894H78.8085L86.7778 7.5509H91.3547L82.4431 16.3547L91.947 26.6124H87.1816L78.8085 17.0547H78.7278V26.6124H75.3355V7.5509ZM100.168 18.8586C100.168 18.4458 100.11 18.0509 99.9933 17.674C99.8766 17.2971 99.6926 16.965 99.4413 16.6778C99.19 16.3906 98.8715 16.1618 98.4856 15.9913C98.0997 15.8208 97.6465 15.7355 97.1259 15.7355C96.1567 15.7355 95.3356 16.0272 94.6625 16.6105C93.9894 17.1939 93.617 17.9432 93.5452 18.8586H100.168ZM103.4 20.3126V20.7434C103.4 20.887 103.391 21.0306 103.373 21.1742H93.5462C93.5821 21.6408 93.7033 22.0671 93.9097 22.453C94.1161 22.8389 94.3898 23.171 94.7308 23.4492C95.0718 23.7274 95.4577 23.9472 95.8885 24.1088C96.3193 24.2703 96.768 24.3511 97.2347 24.3511C98.0424 24.3511 98.7244 24.203 99.2808 23.9069C99.8372 23.6107 100.295 23.2024 100.654 22.6819L102.808 24.4049C101.533 26.128 99.6847 26.9895 97.2616 26.9895C96.2565 26.9895 95.3321 26.8325 94.4885 26.5184C93.6449 26.2043 92.9135 25.7601 92.2943 25.1857C91.675 24.6113 91.1904 23.9069 90.8404 23.0722C90.4904 22.2376 90.3154 21.2908 90.3154 20.2319C90.3154 19.1908 90.4904 18.244 90.8404 17.3915C91.1904 16.5389 91.6706 15.812 92.2808 15.2107C92.8911 14.6094 93.6135 14.1428 94.4481 13.8107C95.2827 13.4786 96.1847 13.3126 97.1539 13.3126C98.0513 13.3126 98.8815 13.4607 99.6443 13.7569C100.407 14.053 101.067 14.4927 101.623 15.0761C102.18 15.6594 102.615 16.3863 102.929 17.2569C103.243 18.1274 103.4 19.1459 103.4 20.3126ZM113.774 18.8586C113.774 18.4458 113.716 18.0509 113.599 17.674C113.482 17.2971 113.298 16.965 113.047 16.6778C112.796 16.3906 112.477 16.1618 112.091 15.9913C111.706 15.8208 111.252 15.7355 110.732 15.7355C109.763 15.7355 108.941 16.0272 108.268 16.6105C107.595 17.1939 107.223 17.9432 107.151 18.8586H113.774ZM117.005 20.3124V20.7432C117.005 20.8868 116.996 21.0304 116.978 21.174H107.151C107.187 21.6406 107.308 22.0669 107.514 22.4528C107.721 22.8387 107.995 23.1708 108.336 23.449C108.677 23.7272 109.063 23.9471 109.493 24.1086C109.924 24.2701 110.373 24.3509 110.839 24.3509C111.647 24.3509 112.329 24.2028 112.886 23.9067C113.442 23.6105 113.9 23.2022 114.259 22.6817L116.413 24.4048C115.138 26.1278 113.29 26.9894 110.866 26.9894C109.861 26.9894 108.937 26.8323 108.093 26.5182C107.25 26.2041 106.518 25.7599 105.899 25.1855C105.28 24.6112 104.795 23.9067 104.445 23.0721C104.095 22.2374 103.92 21.2907 103.92 20.2317C103.92 19.1906 104.095 18.2439 104.445 17.3913C104.795 16.5387 105.275 15.8118 105.886 15.2105C106.496 14.6092 107.218 14.1426 108.053 13.8105C108.888 13.4785 109.789 13.3124 110.759 13.3124C111.656 13.3124 112.486 13.4605 113.249 13.7567C114.012 14.0528 114.672 14.4926 115.228 15.0759C115.784 15.6592 116.22 16.3862 116.534 17.2567C116.848 18.1272 117.005 19.1458 117.005 20.3124ZM121.376 13.6894V15.4932H121.457C121.618 15.2419 121.829 14.9862 122.09 14.7259C122.35 14.4656 122.668 14.2323 123.045 14.0259C123.422 13.8195 123.849 13.649 124.324 13.5144C124.8 13.3797 125.334 13.3124 125.926 13.3124C126.842 13.3124 127.685 13.4874 128.457 13.8374C129.229 14.1874 129.893 14.6676 130.449 15.2778C131.006 15.8881 131.436 16.606 131.742 17.4317C132.047 18.2573 132.199 19.1458 132.199 20.0971C132.199 21.0483 132.051 21.9413 131.755 22.7759C131.459 23.6105 131.037 24.3374 130.49 24.9567C129.942 25.5759 129.278 26.0695 128.497 26.4374C127.717 26.8054 126.833 26.9894 125.845 26.9894C124.93 26.9894 124.091 26.8009 123.328 26.424C122.565 26.0471 121.977 25.5355 121.565 24.8894H121.511V33.074H118.28V13.6894H121.376ZM128.913 20.0974C128.913 19.5949 128.837 19.0968 128.684 18.6032C128.531 18.1096 128.303 17.6654 127.998 17.2705C127.692 16.8757 127.306 16.5571 126.84 16.3148C126.373 16.0724 125.826 15.9513 125.198 15.9513C124.605 15.9513 124.076 16.0769 123.609 16.3282C123.142 16.5795 122.743 16.9026 122.411 17.2974C122.079 17.6923 121.828 18.141 121.657 18.6436C121.487 19.1462 121.401 19.6487 121.401 20.1513C121.401 20.6539 121.487 21.1519 121.657 21.6455C121.828 22.1391 122.079 22.5833 122.411 22.9782C122.743 23.3731 123.142 23.6917 123.609 23.934C124.076 24.1763 124.605 24.2974 125.198 24.2974C125.826 24.2974 126.373 24.1718 126.84 23.9205C127.306 23.6692 127.692 23.3462 127.998 22.9513C128.303 22.5564 128.531 22.1077 128.684 21.6051C128.837 21.1026 128.913 20.6 128.913 20.0974Z" fill="white"/>
</svg>
