<svg width="34" height="34" viewBox="0 0 34 34" fill="none" xmlns="http://www.w3.org/2000/svg">
<path fill-rule="evenodd" clip-rule="evenodd" d="M28.4433 9.67683C28.6169 9.44279 28.8568 9.12899 29.1465 8.75614C29.4207 8.4037 29.6723 8.08323 29.924 7.76474C30.0121 7.65322 30.0939 7.54994 30.1673 7.45749C30.2113 7.40211 30.2427 7.36258 30.2592 7.34192C30.5251 7.00807 30.5041 6.52924 30.21 6.21997L27.7668 3.65141C27.4517 3.32015 26.9318 3.29538 26.5866 3.59519C26.5663 3.61288 26.5663 3.61288 26.4732 3.69355C26.3826 3.77206 26.2815 3.85956 26.1723 3.9538C25.8606 4.22299 25.5473 4.49215 25.2532 4.74312C24.8914 5.05166 24.6127 5.28684 24.3942 5.46789C23.1798 4.60656 21.7122 4.00742 20.0304 3.63499C20.0033 3.40263 19.9714 3.10868 19.9355 2.76462C19.9272 2.68451 19.9187 2.60204 19.91 2.51739C19.871 2.1364 19.8306 1.72784 19.791 1.31922C19.7771 1.17616 19.7643 1.04334 19.753 0.924167C19.7413 0.801693 19.7413 0.801693 19.7388 0.774807C19.6974 0.335618 19.3287 0 18.8876 0H15.3972C14.9672 0 14.6042 0.319301 14.5492 0.745736C14.5458 0.772371 14.5458 0.772371 14.5301 0.893455C14.5148 1.01126 14.4977 1.14255 14.4792 1.28396C14.4262 1.68788 14.3725 2.09176 14.3214 2.46843C14.3116 2.54084 14.3116 2.54084 14.3017 2.61307C14.2499 2.99287 14.2045 3.31616 14.1673 3.5682C12.5059 3.88558 10.9607 4.51125 9.64313 5.41487C9.42893 5.24734 9.15411 5.02365 8.83383 4.75711C8.46944 4.45305 8.16506 4.19528 7.86358 3.93744C7.75801 3.84715 7.66037 3.76332 7.57309 3.68815C7.52087 3.64317 7.4836 3.61098 7.46437 3.59432C7.12493 3.30039 6.61596 3.31912 6.29903 3.6372L3.85591 6.08921C3.56056 6.38563 3.52315 6.85225 3.7675 7.19193C3.78331 7.21392 3.78331 7.21392 3.85526 7.3141C3.92525 7.41161 4.00326 7.52044 4.08728 7.63782C4.32728 7.97312 4.56725 8.30972 4.79106 8.62549C5.07467 9.02581 5.29409 9.33833 5.4598 9.57831C4.50152 10.8582 3.82242 12.5254 3.61025 14.1748C3.56381 14.1789 3.51507 14.1831 3.46411 14.1874C3.21156 14.2085 2.91018 14.2309 2.5706 14.254C2.18559 14.2802 1.77245 14.306 1.35922 14.3302C1.21452 14.3387 1.08018 14.3463 0.959669 14.3531C0.887514 14.3571 0.835894 14.36 0.808964 14.3614C0.355311 14.3859 0 14.7608 0 15.2151V18.7177C0 19.1555 0.330792 19.5226 0.766283 19.5681C0.793676 19.5709 0.845697 19.5764 0.918812 19.5842C1.04102 19.5973 1.17729 19.6122 1.32407 19.6285C1.74316 19.675 2.16212 19.7237 2.55234 19.7722C2.77528 19.7999 2.98244 19.8268 3.17065 19.8525C3.36379 19.8789 3.53451 19.9038 3.67947 19.9267C3.90496 21.3791 4.5389 22.7617 5.57541 24.3188C5.39855 24.5557 5.15486 24.8694 4.86095 25.24C4.56 25.6187 4.2972 25.9452 4.03434 26.2689C3.9423 26.3823 3.85685 26.4872 3.7802 26.5811C3.73432 26.6372 3.70149 26.6773 3.68442 26.6981C3.40079 27.0438 3.43136 27.5496 3.75456 27.8585L6.19736 30.1937C6.50601 30.4887 6.98502 30.5108 7.31953 30.2454C7.34015 30.2291 7.38002 30.1975 7.43587 30.1534C7.52921 30.0798 7.63361 29.9976 7.74648 29.9091C8.0688 29.6565 8.39412 29.4039 8.7015 29.1685C9.16169 28.817 9.48282 28.5776 9.72159 28.408C11.4409 29.4653 12.7744 30.0635 14.2092 30.2869C14.2143 30.3365 14.2196 30.3888 14.2249 30.4439C14.2499 30.7012 14.2764 31.0109 14.3038 31.3613C14.3341 31.748 14.3638 32.163 14.3917 32.5782C14.4015 32.7235 14.4103 32.8585 14.4181 32.9796C14.4227 33.052 14.426 33.1039 14.4276 33.1308C14.4555 33.5817 14.8292 33.9332 15.281 33.9332H18.6548C19.0932 33.9332 19.4605 33.6016 19.5053 33.1656C19.5081 33.1383 19.5135 33.0864 19.5212 33.0135C19.5341 32.8916 19.5488 32.7557 19.5649 32.6093C19.6109 32.1913 19.6592 31.7734 19.7076 31.3843C19.739 31.132 19.7694 30.9001 19.7984 30.6934C19.8243 30.5087 19.8487 30.3465 19.8713 30.2103C21.5323 29.8388 23.0672 29.1987 24.4059 28.3072C24.6324 28.4818 24.9283 28.7211 25.2754 29.0092C25.3197 29.0459 25.3197 29.0459 25.3639 29.0827C25.6626 29.3316 25.9781 29.5987 26.2904 29.8659C26.3997 29.9595 26.5008 30.0464 26.5911 30.1243C26.6452 30.1709 26.6835 30.204 26.7036 30.2214C27.0491 30.5212 27.5692 30.4959 27.884 30.1642L30.2106 27.7125C30.5189 27.3876 30.5243 26.8799 30.2229 26.5486C30.2053 26.5293 30.1718 26.4923 30.1246 26.4401C30.0457 26.3529 29.9578 26.2552 29.8631 26.1495C29.5926 25.8478 29.3222 25.5425 29.0703 25.2533C29.0299 25.2069 29.0299 25.2069 28.9896 25.1604C28.7147 24.8434 28.4842 24.5704 28.3119 24.3566C29.2256 23.0852 29.8548 21.647 30.1995 20.0095C30.2958 19.995 30.4048 19.9798 30.5252 19.964C30.7668 19.9322 31.0495 19.8987 31.3646 19.864C31.756 19.8209 32.1762 19.7783 32.5966 19.7381C32.7439 19.724 32.8806 19.7113 33.0032 19.7C33.0765 19.6933 33.1286 19.6887 33.1561 19.6862C33.5974 19.6472 33.9358 19.2776 33.9358 18.8346V15.0986C33.9358 14.648 33.5862 14.2748 33.1366 14.2454C33.1095 14.2437 33.0575 14.2402 32.9849 14.2353C32.8635 14.2271 32.7282 14.2178 32.5824 14.2075C32.1662 14.1781 31.7501 14.147 31.3624 14.1155C31.0592 14.0909 30.7861 14.0672 30.5505 14.0446C30.42 14.0321 30.3024 14.0201 30.199 14.0087C29.7589 12.3495 29.2184 11.0183 28.4433 9.67683ZM26.644 28.9864L27.8245 28.9292C27.8032 28.9107 27.7636 28.8764 27.7083 28.8287C27.6164 28.7494 27.5136 28.6611 27.4025 28.5661C27.3364 28.5095 27.2701 28.4529 27.2039 28.3965L26.644 28.9864ZM7.51055 4.84375L6.34521 4.88662C6.366 4.90462 6.40395 4.9374 6.45735 4.98339C6.54609 5.05983 6.64523 5.14494 6.75238 5.23658C6.81837 5.29302 6.88451 5.34946 6.9506 5.40574L7.51055 4.84375ZM31.1774 18.1633C30.8514 18.1992 30.5573 18.2341 30.3025 18.2676C30.001 18.3072 29.7581 18.3443 29.576 18.3797C29.4596 18.4024 29.3637 18.4251 29.2797 18.4517C29.2074 18.4747 29.1416 18.5008 29.0721 18.5389C29.0051 18.5755 28.941 18.6198 28.8768 18.6812C28.751 18.8016 28.6534 18.9588 28.6183 19.1673C28.3161 20.9777 27.6455 22.4864 26.5984 23.7842C26.4139 24.0122 26.3808 24.2511 26.4172 24.4764C26.4321 24.5682 26.4573 24.6439 26.4901 24.718C26.5236 24.7935 26.5638 24.8633 26.6143 24.9405C26.6827 25.045 26.7761 25.1709 26.8965 25.3234C27.0938 25.5732 27.3659 25.897 27.6977 26.2797C27.7392 26.3275 27.7392 26.3275 27.7807 26.3752C27.9876 26.6128 28.206 26.8601 28.4266 27.1074L27.2035 28.3962C26.9516 28.1816 26.7 27.9692 26.4583 27.768C26.413 27.7302 26.413 27.7302 26.3676 27.6925C25.9739 27.3657 25.6412 27.0974 25.3855 26.9026C25.2304 26.7845 25.103 26.6929 24.9988 26.6261C24.9239 26.578 24.8567 26.5397 24.7857 26.5077C24.7172 26.4769 24.6478 26.4526 24.5639 26.4365C24.3436 26.394 24.1133 26.4145 23.8758 26.5899C22.5044 27.6038 20.8499 28.2978 19.0221 28.638C18.8043 28.6786 18.648 28.7839 18.5292 28.9172C18.4722 28.9812 18.4314 29.0439 18.3973 29.1095C18.3619 29.1777 18.3369 29.2431 18.3143 29.3159C18.2869 29.4045 18.2622 29.509 18.2369 29.637C18.1963 29.8418 18.1525 30.1162 18.105 30.455C18.0747 30.6713 18.0432 30.9117 18.0108 31.1722C17.969 31.5082 17.9274 31.8637 17.8873 32.2222H16.0815C16.058 31.8823 16.0335 31.5457 16.0086 31.227C15.9804 30.8667 15.953 30.5468 15.9268 30.2775C15.9004 30.0057 15.8755 29.7883 15.8516 29.627C15.8363 29.5244 15.8209 29.4406 15.8026 29.3673C15.786 29.3014 15.7671 29.2418 15.7375 29.1762C15.7008 29.0973 15.7008 29.0973 15.6077 28.9678C15.4497 28.7893 15.4497 28.7893 15.0055 28.6574C13.5304 28.5473 12.1862 27.9513 10.1895 26.6828C9.9415 26.5255 9.73093 26.522 9.51872 26.5715C9.44713 26.5882 9.38747 26.6102 9.32762 26.6373C9.26404 26.6662 9.20172 26.7007 9.131 26.7439C9.02895 26.8063 8.90156 26.8923 8.74558 27.0028C8.48565 27.1871 8.14553 27.4405 7.7425 27.7482C7.70218 27.779 7.70218 27.779 7.66192 27.8099C7.39702 28.0127 7.11986 28.2275 6.84274 28.4441L5.50678 27.167C5.72429 26.8982 5.93971 26.63 6.1435 26.3736C6.17208 26.3377 6.17208 26.3377 6.20066 26.3016C6.52077 25.898 6.78456 25.558 6.97647 25.2994C7.09113 25.1448 7.18026 25.0193 7.2448 24.9199C7.2891 24.8517 7.32447 24.7922 7.35434 24.732C7.38303 24.6742 7.40662 24.6169 7.4258 24.5471C7.49002 24.3132 7.4925 24.0852 7.30137 23.8128C6.07273 22.0597 5.42103 20.6385 5.31325 19.1735C5.29397 18.909 5.1748 18.7205 5.01736 18.5825C4.94877 18.5224 4.88268 18.4813 4.81308 18.447C4.7447 18.4133 4.67931 18.3899 4.60555 18.3684C4.51554 18.3422 4.40713 18.318 4.27303 18.2927C4.05624 18.2518 3.76354 18.2067 3.40223 18.1573C3.20662 18.1306 2.99268 18.1028 2.76324 18.0743C2.42628 18.0324 2.06961 17.9905 1.70996 17.95V16.0214C2.04366 16.0013 2.37391 15.9803 2.68669 15.959C3.03441 15.9354 3.34419 15.9124 3.60669 15.8904C3.88166 15.8674 4.10142 15.8458 4.26308 15.8252C4.36394 15.8124 4.44564 15.7996 4.51546 15.7846C4.57703 15.7714 4.63215 15.7564 4.69308 15.7329C4.76724 15.7036 4.76724 15.7036 4.89819 15.6222C5.09469 15.4783 5.09469 15.4783 5.25639 14.962C5.33332 13.2554 6.08863 11.4044 7.1551 10.201C7.50191 9.80793 7.47022 9.67545 7.29483 9.27742C7.27769 9.23852 7.26065 9.20605 7.24056 9.17087C7.21821 9.13175 7.1908 9.08757 7.15599 9.03373C7.09952 8.94639 7.01984 8.82809 6.91743 8.67906C6.74153 8.42312 6.50048 8.07941 6.20956 7.66877C5.99196 7.36175 5.78596 7.07259 5.57834 6.78219L6.9504 5.40514C7.19106 5.61006 7.43112 5.81276 7.66143 6.00498C7.70069 6.03774 7.70069 6.03774 7.74001 6.07048C8.11907 6.38595 8.43901 6.6454 8.68392 6.83398C8.83193 6.94796 8.95303 7.0365 9.05116 7.10117C9.12144 7.14749 9.18386 7.18454 9.24959 7.21601C9.3145 7.24708 9.3798 7.27201 9.45997 7.29019C9.69365 7.34318 9.93587 7.32844 10.1908 7.1302C11.5213 6.09747 13.1959 5.4188 15.0257 5.15717C15.5193 5.08616 15.5812 4.97521 15.7177 4.58157C15.7311 4.54287 15.7404 4.50911 15.7492 4.47173C15.7588 4.43107 15.7681 4.38458 15.7783 4.32733C15.7948 4.23555 15.815 4.10975 15.8391 3.94991C15.8808 3.67382 15.9339 3.29793 15.996 2.84333C16.0059 2.77041 16.0059 2.77041 16.0158 2.69735C16.0587 2.38132 16.1033 2.04669 16.1478 1.70898H18.1109C18.1437 2.04439 18.1768 2.37651 18.209 2.69054C18.2177 2.77613 18.2263 2.85957 18.2348 2.94066C18.2801 3.37643 18.3196 3.73478 18.3516 3.99751C18.3702 4.15002 18.3864 4.27033 18.4004 4.35945C18.4095 4.41732 18.4182 4.46502 18.4281 4.50861C18.4376 4.55078 18.4482 4.58948 18.4644 4.63442C18.5819 4.95958 18.6756 5.11311 19.1211 5.19412C21.0558 5.55132 22.6539 6.20907 23.8485 7.20229C24.2364 7.52435 24.4404 7.47615 24.7803 7.31132C24.8267 7.2888 24.8642 7.26649 24.9038 7.24038C24.9456 7.21286 24.9906 7.18018 25.0444 7.13906C25.1289 7.07459 25.2412 6.98451 25.3819 6.86887C25.622 6.67153 25.9428 6.4013 26.3256 6.07495C26.597 5.84336 26.8425 5.63269 27.0897 5.41969L28.4593 6.85953C28.2465 7.12935 28.0356 7.39832 27.8364 7.65439C27.4911 8.09881 27.2388 8.4289 27.0546 8.67788C26.9458 8.82492 26.861 8.94332 26.7998 9.03442C26.7597 9.09423 26.7276 9.14521 26.7005 9.19432C26.675 9.24044 26.6533 9.28503 26.6332 9.33932C26.5402 9.58982 26.5129 9.78896 26.7053 10.1005C27.6267 11.5938 28.2016 13.0024 28.6749 14.9541C28.736 15.2043 28.8691 15.3563 29.0309 15.4665C29.146 15.5354 29.146 15.5354 29.2155 15.5635C29.2754 15.587 29.3313 15.6029 29.3937 15.6172C29.4691 15.6344 29.5585 15.6497 29.6685 15.6652C29.8468 15.6903 30.0878 15.7171 30.3874 15.7458C30.6322 15.7692 30.9133 15.7937 31.2241 15.8189C31.5448 15.8449 31.8837 15.8707 32.2258 15.8954V18.055C31.8679 18.0899 31.513 18.1264 31.1774 18.1633Z" fill="#9AACBE"/>
<path fill-rule="evenodd" clip-rule="evenodd" d="M16.7643 8.55859C12.0508 8.55859 8.23096 12.3912 8.23096 17.1176C8.23096 21.844 12.0508 25.6766 16.7643 25.6766C21.4775 25.6766 25.2973 21.8439 25.2973 17.1176C25.2973 12.3913 21.4775 8.55859 16.7643 8.55859ZM16.7653 10.2695C20.5328 10.2695 23.5883 13.3354 23.5883 17.1186C23.5883 20.9018 20.5328 23.9676 16.7653 23.9676C12.9975 23.9676 9.94189 20.9019 9.94189 17.1186C9.94189 13.3353 12.9975 10.2695 16.7653 10.2695Z" fill="#9AACBE"/>
</svg>
