<svg width="133" height="35" viewBox="0 0 133 35" fill="none" xmlns="http://www.w3.org/2000/svg">
<path fill-rule="evenodd" clip-rule="evenodd" d="M29.0758 9.892C29.2532 9.65275 29.4985 9.33198 29.7946 8.95083C30.0749 8.59056 30.3321 8.26297 30.5894 7.93739C30.6795 7.8234 30.7631 7.71782 30.8381 7.62331C30.8831 7.5667 30.9152 7.52629 30.932 7.50517C31.2039 7.1639 31.1824 6.67442 30.8817 6.35828L28.3842 3.7326C28.0621 3.39397 27.5306 3.36865 27.1778 3.67513C27.157 3.69322 27.157 3.69322 27.0619 3.77568C26.9692 3.85593 26.8658 3.94538 26.7543 4.04172C26.4356 4.31689 26.1154 4.59203 25.8147 4.84859C25.4448 5.16399 25.16 5.4044 24.9366 5.58947C23.6952 4.70899 22.195 4.09653 20.4758 3.71581C20.4481 3.47829 20.4154 3.1778 20.3788 2.8261C20.3703 2.74421 20.3616 2.6599 20.3527 2.57337C20.3129 2.18391 20.2715 1.76626 20.231 1.34855C20.2168 1.20232 20.2038 1.06654 20.1922 0.944717C20.1803 0.81952 20.1803 0.81952 20.1777 0.792035C20.1354 0.34308 19.7585 0 19.3075 0H15.7396C15.3 0 14.9289 0.326401 14.8727 0.762318C14.8692 0.789545 14.8692 0.789545 14.8532 0.913321C14.8376 1.03374 14.8201 1.16796 14.8011 1.31251C14.747 1.72541 14.6921 2.13827 14.6398 2.52332C14.6298 2.59734 14.6298 2.59734 14.6197 2.67117C14.5667 3.05942 14.5203 3.3899 14.4824 3.64754C12.7839 3.97198 11.2044 4.61156 9.85755 5.53528C9.63859 5.36401 9.35765 5.13535 9.03026 4.86289C8.65776 4.55207 8.34662 4.28856 8.03843 4.02499C7.93051 3.93269 7.8307 3.847 7.74148 3.77015C7.68811 3.72418 7.65 3.69127 7.63035 3.67425C7.28336 3.37378 6.76307 3.39292 6.4391 3.71807L3.94164 6.22461C3.63973 6.52762 3.60149 7.00461 3.85127 7.35185C3.86744 7.37433 3.86744 7.37433 3.94098 7.47674C4.01253 7.57641 4.09227 7.68766 4.17816 7.80765C4.4235 8.15041 4.66881 8.49449 4.8976 8.81729C5.18751 9.2265 5.41181 9.54598 5.5812 9.79129C4.60162 11.0996 3.90741 12.8039 3.69053 14.49C3.64306 14.4942 3.59323 14.4985 3.54114 14.5029C3.28297 14.5245 2.97489 14.5473 2.62776 14.5709C2.23419 14.5977 1.81186 14.6241 1.38945 14.6488C1.24153 14.6575 1.1042 14.6653 0.981007 14.6722C0.907249 14.6764 0.854481 14.6793 0.826952 14.6807C0.363211 14.7057 0 15.089 0 15.5535V19.1339C0 19.5815 0.338147 19.9567 0.783322 20.0032C0.811324 20.0061 0.864501 20.0117 0.939242 20.0197C1.06417 20.0331 1.20346 20.0483 1.35351 20.0649C1.78192 20.1125 2.2102 20.1623 2.6091 20.2118C2.83699 20.2402 3.04876 20.2676 3.24115 20.2939C3.43859 20.3209 3.61311 20.3463 3.76128 20.3698C3.99178 21.8545 4.63982 23.2678 5.69938 24.8595C5.51859 25.1017 5.26948 25.4224 4.96903 25.8012C4.6614 26.1883 4.39275 26.5221 4.12405 26.853C4.02996 26.9689 3.94261 27.0762 3.86426 27.1721C3.81736 27.2295 3.7838 27.2705 3.76634 27.2918C3.47641 27.6451 3.50766 28.1621 3.83804 28.478L6.33516 30.865C6.65067 31.1666 7.14034 31.1892 7.48228 30.918C7.50336 30.9012 7.54411 30.869 7.60121 30.8239C7.69663 30.7486 7.80335 30.6646 7.91873 30.5742C8.24822 30.3159 8.58076 30.0577 8.89498 29.8171C9.3654 29.4577 9.69367 29.2131 9.93775 29.0396C11.6953 30.1205 13.0584 30.7319 14.5251 30.9604C14.5304 31.011 14.5357 31.0645 14.5412 31.1208C14.5668 31.3838 14.5939 31.7004 14.6219 32.0586C14.6528 32.4539 14.6832 32.8782 14.7117 33.3026C14.7217 33.4512 14.7307 33.5891 14.7387 33.7129C14.7434 33.787 14.7467 33.84 14.7484 33.8675C14.7769 34.3284 15.159 34.6877 15.6208 34.6877H19.0696C19.5177 34.6877 19.8932 34.3488 19.939 33.903C19.9419 33.8752 19.9474 33.8221 19.9553 33.7476C19.9685 33.623 19.9835 33.4841 19.9999 33.3344C20.0469 32.9071 20.0964 32.4799 20.1458 32.0822C20.1779 31.8242 20.209 31.5872 20.2386 31.3759C20.2651 31.1871 20.2901 31.0213 20.3131 30.882C22.011 30.5022 23.5801 29.848 24.9486 28.9367C25.1802 29.1151 25.4826 29.3597 25.8374 29.6542C25.8826 29.6918 25.8826 29.6918 25.9279 29.7294C26.2332 29.9838 26.5558 30.2569 26.875 30.53C26.9867 30.6257 27.0901 30.7145 27.1824 30.7941C27.2376 30.8417 27.2768 30.8756 27.2973 30.8934C27.6505 31.1998 28.1822 31.174 28.5041 30.8349L30.8824 28.3287C31.1975 27.9966 31.203 27.4776 30.8949 27.1389C30.8769 27.1191 30.8426 27.0814 30.7944 27.028C30.7138 26.9389 30.6239 26.839 30.5271 26.731C30.2506 26.4225 29.9742 26.1105 29.7167 25.8148C29.6754 25.7674 29.6754 25.7674 29.6342 25.7199C29.3532 25.3958 29.1176 25.1168 28.9415 24.8982C29.8754 23.5985 30.5186 22.1283 30.871 20.4544C30.9694 20.4396 31.0808 20.4241 31.2039 20.4079C31.451 20.3754 31.7399 20.3412 32.062 20.3057C32.4621 20.2616 32.8917 20.2181 33.3214 20.177C33.472 20.1626 33.6117 20.1495 33.737 20.1381C33.812 20.1312 33.8653 20.1264 33.8933 20.124C34.3444 20.0841 34.6904 19.7063 34.6904 19.2534V15.4343C34.6904 14.9738 34.333 14.5922 33.8734 14.5622C33.8457 14.5604 33.7926 14.5569 33.7183 14.5518C33.5942 14.5435 33.4559 14.5339 33.3069 14.5234C32.8814 14.4934 32.4561 14.4615 32.0597 14.4294C31.7499 14.4043 31.4706 14.38 31.2298 14.3569C31.0964 14.3441 30.9762 14.3318 30.8704 14.3202C30.4206 12.6241 29.8681 11.2633 29.0758 9.892ZM27.2344 29.6314L28.4411 29.5728C28.4193 29.5539 28.3789 29.5189 28.3223 29.4702C28.2283 29.3891 28.1233 29.2989 28.0097 29.2017C27.9421 29.1438 27.8744 29.086 27.8067 29.0283L27.2344 29.6314ZM7.67563 4.95215L6.48438 4.99597C6.50563 5.01437 6.54442 5.04788 6.599 5.0949C6.68972 5.17303 6.79106 5.26004 6.90059 5.35371C6.96805 5.41141 7.03566 5.46911 7.10322 5.52663L7.67563 4.95215ZM31.8688 18.5683C31.5355 18.605 31.2349 18.6406 30.9744 18.6749C30.6663 18.7153 30.4179 18.7532 30.2318 18.7895C30.1127 18.8127 30.0147 18.8358 29.9289 18.8631C29.855 18.8865 29.7877 18.9132 29.7166 18.9521C29.6481 18.9896 29.5827 19.0349 29.517 19.0977C29.3884 19.2207 29.2887 19.3814 29.2527 19.5946C28.9438 21.4452 28.2583 22.9874 27.188 24.3141C26.9994 24.5472 26.9655 24.7914 27.0027 25.0217C27.0179 25.1155 27.0437 25.1929 27.0772 25.2687C27.1114 25.3459 27.1525 25.4172 27.2042 25.4961C27.2741 25.6029 27.3696 25.7316 27.4927 25.8875C27.6944 26.1429 27.9725 26.4739 28.3117 26.8651C28.3541 26.9139 28.3541 26.9139 28.3965 26.9627C28.608 27.2056 28.8313 27.4584 29.0568 27.7112L27.8065 29.0286C27.549 28.8093 27.2918 28.5922 27.0448 28.3865C26.9984 28.3479 26.9984 28.3479 26.952 28.3093C26.5496 27.9753 26.2095 27.701 25.948 27.5019C25.7896 27.3812 25.6593 27.2875 25.5528 27.2192C25.4762 27.1701 25.4076 27.1309 25.335 27.0982C25.2649 27.0667 25.194 27.0419 25.1083 27.0254C24.883 26.982 24.6476 27.0029 24.4048 27.1822C23.0029 28.2187 21.3116 28.9281 19.4432 29.2758C19.2206 29.3174 19.0607 29.425 18.9394 29.5612C18.8811 29.6266 18.8394 29.6908 18.8045 29.7579C18.7683 29.8275 18.7427 29.8944 18.7197 29.9689C18.6916 30.0594 18.6664 30.1663 18.6405 30.2971C18.599 30.5064 18.5543 30.7869 18.5057 31.1333C18.4747 31.3543 18.4425 31.6001 18.4094 31.8664C18.3666 32.2099 18.3241 32.5733 18.2831 32.9398H16.4371C16.4132 32.5923 16.3881 32.2482 16.3627 31.9224C16.3339 31.5541 16.3059 31.2271 16.2791 30.9518C16.2521 30.674 16.2267 30.4517 16.2021 30.2869C16.1865 30.182 16.1708 30.0963 16.1521 30.0214C16.1352 29.954 16.1158 29.8931 16.0856 29.8261C16.0481 29.7454 16.0481 29.7454 15.9529 29.6129C15.7913 29.4306 15.7913 29.4306 15.3372 29.2957C13.8293 29.1832 12.4553 28.5739 10.4142 27.2772C10.1607 27.1164 9.94541 27.1128 9.72849 27.1634C9.6553 27.1805 9.59432 27.203 9.53314 27.2307C9.46814 27.2602 9.40443 27.2955 9.33215 27.3396C9.22782 27.4034 9.0976 27.4913 8.93815 27.6043C8.67245 27.7927 8.32476 28.0517 7.91277 28.3663C7.87155 28.3978 7.87155 28.3978 7.8304 28.4293C7.55961 28.6366 7.27628 28.8562 6.993 29.0776L5.62734 27.7721C5.84968 27.4974 6.0699 27.2232 6.27821 26.9611C6.30744 26.9243 6.30744 26.9243 6.33665 26.8875C6.66387 26.475 6.93353 26.1274 7.12971 25.863C7.24692 25.705 7.33802 25.5767 7.40401 25.4751C7.44929 25.4054 7.48544 25.3445 7.51598 25.283C7.54531 25.2239 7.56942 25.1654 7.58903 25.0939C7.65468 24.8548 7.65721 24.6218 7.46183 24.3434C6.20587 22.5512 5.53968 21.0984 5.42951 19.6009C5.4098 19.3305 5.28798 19.1379 5.12704 18.9968C5.05692 18.9354 4.98936 18.8933 4.91822 18.8583C4.84831 18.8238 4.78147 18.7998 4.70607 18.7779C4.61406 18.7511 4.50323 18.7263 4.36616 18.7005C4.14454 18.6587 3.84534 18.6126 3.47599 18.5621C3.27603 18.5348 3.05734 18.5064 2.82279 18.4773C2.47835 18.4345 2.11374 18.3916 1.74609 18.3502V16.3787C2.08721 16.3581 2.4248 16.3367 2.74454 16.315C3.09999 16.2908 3.41666 16.2673 3.685 16.2448C3.96609 16.2213 4.19073 16.1992 4.35599 16.1782C4.45909 16.165 4.5426 16.152 4.61398 16.1367C4.67691 16.1232 4.73326 16.1079 4.79555 16.0838C4.87135 16.0538 4.87135 16.0538 5.00522 15.9707C5.20608 15.8236 5.20608 15.8236 5.37138 15.2958C5.45002 13.5512 6.22212 11.659 7.3123 10.4289C7.66683 10.0271 7.63443 9.89165 7.45515 9.48477C7.43762 9.445 7.4202 9.41182 7.39967 9.37586C7.37683 9.33587 7.3488 9.2907 7.31321 9.23566C7.25549 9.14639 7.17405 9.02545 7.06935 8.87311C6.88954 8.61147 6.64313 8.26013 6.34574 7.84035C6.12331 7.52651 5.91273 7.23092 5.70049 6.93406L7.10306 5.52639C7.34907 5.73586 7.59447 5.94307 7.82989 6.13957C7.87003 6.17305 7.87003 6.17305 7.91022 6.20652C8.29772 6.529 8.62477 6.79423 8.87512 6.987C9.02642 7.10351 9.15022 7.19403 9.25053 7.26014C9.32237 7.30748 9.38618 7.34535 9.45337 7.37752C9.51973 7.40929 9.58647 7.43477 9.66843 7.45336C9.90731 7.50752 10.1549 7.49246 10.4155 7.28981C11.7756 6.23411 13.4874 5.54035 15.3579 5.2729C15.8625 5.20032 15.9258 5.0869 16.0653 4.68451C16.079 4.64495 16.0885 4.61044 16.0975 4.57223C16.1073 4.53066 16.1168 4.48313 16.1273 4.42461C16.1441 4.33079 16.1648 4.2022 16.1894 4.0388C16.232 3.75657 16.2863 3.37233 16.3498 2.90762C16.3599 2.83307 16.3599 2.83307 16.3701 2.75839C16.4139 2.43533 16.4595 2.09326 16.505 1.74805H18.5118C18.5453 2.09091 18.5791 2.43041 18.612 2.75143C18.6209 2.83892 18.6297 2.92421 18.6383 3.00711C18.6847 3.45257 18.725 3.81889 18.7578 4.08746C18.7768 4.24336 18.7933 4.36634 18.8077 4.45745C18.817 4.5166 18.8258 4.56536 18.8359 4.60993C18.8457 4.65303 18.8565 4.69259 18.8731 4.73853C18.9932 5.07092 19.0889 5.22787 19.5444 5.31068C21.5221 5.67582 23.1557 6.34819 24.3769 7.3635C24.7735 7.69272 24.9819 7.64344 25.3294 7.47495C25.3769 7.45193 25.4151 7.42912 25.4557 7.40244C25.4984 7.3743 25.5444 7.3409 25.5994 7.29886C25.6857 7.23296 25.8006 7.14087 25.9444 7.02267C26.1898 6.82094 26.5178 6.54469 26.909 6.2111C27.1865 5.97435 27.4375 5.759 27.6902 5.54126L29.0902 7.01312C28.8727 7.28894 28.6571 7.56389 28.4535 7.82565C28.1005 8.27995 27.8425 8.61739 27.6543 8.8719C27.543 9.02221 27.4564 9.14324 27.3939 9.23637C27.3528 9.2975 27.32 9.34962 27.2923 9.39982C27.2662 9.44697 27.2441 9.49255 27.2235 9.54805C27.1284 9.80412 27.1005 10.0077 27.2972 10.3262C28.2391 11.8527 28.8268 13.2926 29.3107 15.2877C29.3731 15.5434 29.5092 15.6988 29.6745 15.8115C29.7922 15.8819 29.7922 15.8819 29.8633 15.9107C29.9244 15.9346 29.9816 15.9509 30.0454 15.9655C30.1225 15.9831 30.2139 15.9987 30.3263 16.0145C30.5085 16.0403 30.7549 16.0676 31.0612 16.097C31.3114 16.1209 31.5988 16.146 31.9165 16.1717C32.2443 16.1983 32.5907 16.2246 32.9405 16.2499V18.4575C32.5746 18.4932 32.2118 18.5305 31.8688 18.5683Z" fill="#FF3529"/>
<path fill-rule="evenodd" clip-rule="evenodd" d="M17.1365 8.75C12.3182 8.75 8.41345 12.6679 8.41345 17.4993C8.41345 22.3308 12.3182 26.2487 17.1365 26.2487C21.9545 26.2487 25.8593 22.3307 25.8593 17.4993C25.8593 12.6679 21.9545 8.75 17.1365 8.75ZM17.1346 10.498C20.9859 10.498 24.1094 13.632 24.1094 17.4994C24.1094 21.3667 20.9859 24.5007 17.1346 24.5007C13.283 24.5007 10.1595 21.3668 10.1595 17.4994C10.1595 13.632 13.283 10.498 17.1346 10.498Z" fill="#FF3529"/>
<path fill-rule="evenodd" clip-rule="evenodd" d="M57.9509 19.6126C57.9509 20.7613 57.7535 21.7978 57.3586 22.7222C56.9637 23.6465 56.4253 24.4318 55.7432 25.0779C55.0611 25.7241 54.2535 26.2222 53.3201 26.5722C52.3868 26.9222 51.3727 27.0972 50.2778 27.0972C49.1829 27.0972 48.1688 26.9222 47.2355 26.5722C46.3022 26.2222 45.49 25.7241 44.799 25.0779C44.1079 24.4318 43.5695 23.6465 43.1836 22.7222C42.7977 21.7978 42.6047 20.7613 42.6047 19.6126V7.55103H45.997V19.4779C45.997 20.0344 46.0688 20.5863 46.2124 21.1337C46.356 21.6812 46.5938 22.1703 46.9259 22.601C47.2579 23.0318 47.6977 23.3818 48.2451 23.651C48.7926 23.9203 49.4701 24.0549 50.2778 24.0549C51.0855 24.0549 51.7631 23.9203 52.3105 23.651C52.8579 23.3818 53.2977 23.0318 53.6297 22.601C53.9618 22.1703 54.1996 21.6812 54.3432 21.1337C54.4868 20.5863 54.5586 20.0344 54.5586 19.4779V7.55103H57.9509V19.6126ZM63.076 13.6895V15.4933H63.1568C63.3183 15.2421 63.5292 14.9863 63.7895 14.726C64.0497 14.4658 64.3683 14.2324 64.7452 14.026C65.1222 13.8196 65.5484 13.6491 66.0241 13.5145C66.4997 13.3799 67.0337 13.3126 67.626 13.3126C68.5414 13.3126 69.385 13.4876 70.1568 13.8376C70.9286 14.1876 71.5927 14.6677 72.1491 15.2779C72.7055 15.8882 73.1363 16.6062 73.4414 17.4318C73.7465 18.2574 73.8991 19.1459 73.8991 20.0972C73.8991 21.0485 73.751 21.9414 73.4549 22.776C73.1587 23.6106 72.7369 24.3376 72.1895 24.9568C71.642 25.576 70.9779 26.0696 70.1972 26.4376C69.4164 26.8055 68.5324 26.9895 67.5452 26.9895C66.6299 26.9895 65.7908 26.801 65.0279 26.4241C64.2651 26.0472 63.6773 25.5356 63.2645 24.8895H63.2106V33.0741H59.9799V13.6895H63.076ZM70.6163 20.0976C70.6163 19.595 70.54 19.0969 70.3874 18.6033C70.2349 18.1097 70.006 17.6655 69.7009 17.2706C69.3958 16.8758 69.0099 16.5572 68.5432 16.3149C68.0765 16.0726 67.5291 15.9514 66.9009 15.9514C66.3086 15.9514 65.7791 16.0771 65.3124 16.3283C64.8458 16.5796 64.4464 16.9027 64.1144 17.2976C63.7823 17.6924 63.531 18.1412 63.3605 18.6437C63.19 19.1463 63.1047 19.6488 63.1047 20.1514C63.1047 20.654 63.19 21.1521 63.3605 21.6456C63.531 22.1392 63.7823 22.5835 64.1144 22.9783C64.4464 23.3732 64.8458 23.6918 65.3124 23.9341C65.7791 24.1764 66.3086 24.2976 66.9009 24.2976C67.5291 24.2976 68.0765 24.1719 68.5432 23.9206C69.0099 23.6694 69.3958 23.3463 69.7009 22.9514C70.006 22.5565 70.2349 22.1078 70.3874 21.6053C70.54 21.1027 70.6163 20.6001 70.6163 20.0976ZM75.3357 7.55103H78.728V15.7895H78.8088L86.778 7.55103H91.3549L82.4434 16.3549L91.9472 26.6126H87.1818L78.8088 17.0549H78.728V26.6126H75.3357V7.55103ZM100.168 18.8587C100.168 18.4459 100.11 18.051 99.9935 17.6741C99.8768 17.2972 99.6928 16.9651 99.4416 16.6779C99.1903 16.3908 98.8717 16.1619 98.4858 15.9914C98.0999 15.8209 97.6467 15.7356 97.1262 15.7356C96.1569 15.7356 95.3358 16.0273 94.6627 16.6106C93.9896 17.194 93.6172 17.9433 93.5454 18.8587H100.168ZM103.4 20.3127V20.7435C103.4 20.8871 103.391 21.0307 103.373 21.1743H93.5464C93.5823 21.641 93.7035 22.0672 93.9099 22.4531C94.1163 22.839 94.39 23.1711 94.7311 23.4493C95.0721 23.7275 95.458 23.9474 95.8888 24.1089C96.3195 24.2704 96.7682 24.3512 97.2349 24.3512C98.0426 24.3512 98.7246 24.2031 99.2811 23.907C99.8375 23.6108 100.295 23.2025 100.654 22.682L102.808 24.4051C101.534 26.1281 99.6849 26.9897 97.2618 26.9897C96.2567 26.9897 95.3323 26.8326 94.4888 26.5185C93.6452 26.2044 92.9138 25.7602 92.2945 25.1858C91.6753 24.6115 91.1907 23.907 90.8407 23.0724C90.4907 22.2377 90.3157 21.291 90.3157 20.232C90.3157 19.1909 90.4907 18.2442 90.8407 17.3916C91.1907 16.539 91.6708 15.8121 92.2811 15.2108C92.8913 14.6095 93.6137 14.1429 94.4484 13.8108C95.283 13.4788 96.1849 13.3127 97.1541 13.3127C98.0516 13.3127 98.8817 13.4608 99.6445 13.757C100.407 14.0531 101.067 14.4929 101.623 15.0762C102.18 15.6595 102.615 16.3865 102.929 17.257C103.243 18.1275 103.4 19.1461 103.4 20.3127ZM113.774 18.8587C113.774 18.4459 113.716 18.051 113.599 17.6741C113.483 17.2972 113.299 16.9651 113.047 16.6779C112.796 16.3908 112.478 16.1619 112.092 15.9914C111.706 15.8209 111.253 15.7356 110.732 15.7356C109.763 15.7356 108.942 16.0273 108.269 16.6106C107.596 17.194 107.223 17.9433 107.151 18.8587H113.774ZM117.005 20.3126V20.7433C117.005 20.8869 116.996 21.0305 116.978 21.1741H107.151C107.187 21.6408 107.308 22.067 107.515 22.4529C107.721 22.8388 107.995 23.1709 108.336 23.4491C108.677 23.7273 109.063 23.9472 109.494 24.1087C109.924 24.2703 110.373 24.351 110.84 24.351C111.647 24.351 112.33 24.203 112.886 23.9068C113.442 23.6106 113.9 23.2023 114.259 22.6818L116.413 24.4049C115.138 26.128 113.29 26.9895 110.867 26.9895C109.862 26.9895 108.937 26.8324 108.094 26.5183C107.25 26.2042 106.519 25.76 105.899 25.1856C105.28 24.6113 104.796 23.9068 104.446 23.0722C104.096 22.2376 103.921 21.2908 103.921 20.2318C103.921 19.1908 104.096 18.244 104.446 17.3914C104.796 16.5388 105.276 15.8119 105.886 15.2106C106.496 14.6094 107.219 14.1427 108.053 13.8106C108.888 13.4786 109.79 13.3126 110.759 13.3126C111.656 13.3126 112.487 13.4606 113.249 13.7568C114.012 14.053 114.672 14.4927 115.228 15.076C115.785 15.6594 116.22 16.3863 116.534 17.2568C116.848 18.1273 117.005 19.1459 117.005 20.3126ZM121.376 13.6895V15.4933H121.457C121.619 15.2421 121.83 14.9863 122.09 14.726C122.35 14.4658 122.669 14.2324 123.046 14.026C123.423 13.8196 123.849 13.6491 124.325 13.5145C124.8 13.3799 125.334 13.3126 125.926 13.3126C126.842 13.3126 127.685 13.4876 128.457 13.8376C129.229 14.1876 129.893 14.6677 130.45 15.2779C131.006 15.8882 131.437 16.6062 131.742 17.4318C132.047 18.2574 132.2 19.1459 132.2 20.0972C132.2 21.0485 132.051 21.9414 131.755 22.776C131.459 23.6106 131.037 24.3376 130.49 24.9568C129.942 25.576 129.278 26.0696 128.498 26.4376C127.717 26.8055 126.833 26.9895 125.846 26.9895C124.93 26.9895 124.091 26.801 123.328 26.4241C122.566 26.0472 121.978 25.5356 121.565 24.8895H121.511V33.0741H118.28V13.6895H121.376ZM128.913 20.0976C128.913 19.595 128.837 19.0969 128.684 18.6033C128.532 18.1097 128.303 17.6655 127.998 17.2706C127.693 16.8758 127.307 16.5572 126.84 16.3149C126.373 16.0726 125.826 15.9514 125.198 15.9514C124.605 15.9514 124.076 16.0771 123.609 16.3283C123.143 16.5796 122.743 16.9027 122.411 17.2976C122.079 17.6924 121.828 18.1412 121.657 18.6437C121.487 19.1463 121.402 19.6488 121.402 20.1514C121.402 20.654 121.487 21.1521 121.657 21.6456C121.828 22.1392 122.079 22.5835 122.411 22.9783C122.743 23.3732 123.143 23.6918 123.609 23.9341C124.076 24.1764 124.605 24.2976 125.198 24.2976C125.826 24.2976 126.373 24.1719 126.84 23.9206C127.307 23.6694 127.693 23.3463 127.998 22.9514C128.303 22.5565 128.532 22.1078 128.684 21.6053C128.837 21.1027 128.913 20.6001 128.913 20.0976Z" fill="white"/>
</svg>
