<!-- Generated by IcoMoon.io -->
<svg version="1.1" xmlns="http://www.w3.org/2000/svg" width="32" height="32" viewBox="0 0 32 32">
<title>UpKeep_icon</title>
<path fill="#ff3b30" d="M26.948 9.688c0.16-0.215 0.38-0.504 0.647-0.847 0.252-0.324 0.484-0.619 0.715-0.912 0.081-0.103 0.156-0.198 0.224-0.283 0.040-0.051 0.069-0.087 0.084-0.106 0.245-0.307 0.225-0.747-0.045-1.032l-2.247-2.362c-0.29-0.305-0.768-0.327-1.085-0.052-0.019 0.016-0.019 0.016-0.104 0.090-0.083 0.072-0.176 0.153-0.277 0.239-0.287 0.248-0.575 0.495-0.845 0.726-0.333 0.284-0.589 0.5-0.79 0.667-1.117-0.792-2.467-1.343-4.014-1.686-0.025-0.214-0.054-0.484-0.087-0.801-0.008-0.074-0.016-0.15-0.024-0.227-0.036-0.35-0.073-0.726-0.11-1.102-0.013-0.132-0.024-0.254-0.035-0.363-0.011-0.113-0.011-0.113-0.013-0.137-0.038-0.404-0.377-0.713-0.783-0.713h-3.21c-0.395 0-0.729 0.294-0.78 0.686-0.003 0.024-0.003 0.024-0.018 0.136-0.014 0.108-0.030 0.229-0.047 0.359-0.049 0.372-0.098 0.743-0.145 1.089-0.009 0.067-0.009 0.067-0.018 0.133-0.048 0.349-0.089 0.647-0.124 0.878-1.528 0.292-2.949 0.867-4.161 1.699-0.197-0.154-0.45-0.36-0.744-0.605-0.335-0.28-0.615-0.517-0.892-0.754-0.097-0.083-0.187-0.16-0.267-0.229-0.048-0.041-0.082-0.071-0.1-0.086-0.312-0.27-0.78-0.253-1.072 0.039l-2.247 2.255c-0.272 0.273-0.306 0.702-0.081 1.014 0.015 0.020 0.015 0.020 0.081 0.112 0.064 0.090 0.136 0.19 0.213 0.298 0.221 0.308 0.441 0.618 0.647 0.908 0.261 0.368 0.463 0.656 0.615 0.876-0.881 1.177-1.506 2.711-1.701 4.228-0.043 0.004-0.088 0.008-0.134 0.012-0.232 0.019-0.51 0.040-0.822 0.061-0.354 0.024-0.734 0.048-1.114 0.070-0.133 0.008-0.257 0.015-0.367 0.021-0.066 0.004-0.114 0.006-0.139 0.008-0.417 0.023-0.744 0.367-0.744 0.785v3.222c0 0.403 0.304 0.74 0.705 0.782 0.025 0.003 0.073 0.008 0.14 0.015 0.112 0.012 0.238 0.026 0.373 0.041 0.385 0.043 0.771 0.088 1.13 0.132 0.205 0.026 0.396 0.050 0.569 0.074 0.178 0.024 0.335 0.047 0.468 0.068 0.207 1.336 0.79 2.608 1.744 4.040-0.163 0.218-0.387 0.506-0.657 0.847-0.277 0.348-0.519 0.649-0.76 0.946-0.085 0.104-0.163 0.201-0.234 0.287-0.042 0.052-0.072 0.089-0.088 0.108-0.261 0.318-0.233 0.783 0.064 1.067l2.247 2.148c0.284 0.271 0.724 0.292 1.032 0.048 0.019-0.015 0.056-0.044 0.107-0.085 0.086-0.068 0.182-0.143 0.286-0.225 0.296-0.232 0.596-0.465 0.878-0.681 0.423-0.323 0.719-0.544 0.938-0.7 1.581 0.973 2.808 1.523 4.128 1.728 0.005 0.046 0.010 0.094 0.014 0.144 0.023 0.237 0.047 0.521 0.073 0.844 0.028 0.356 0.055 0.738 0.081 1.119 0.009 0.134 0.017 0.258 0.024 0.369 0.004 0.067 0.007 0.114 0.009 0.139 0.026 0.415 0.369 0.738 0.785 0.738h3.103c0.403 0 0.741-0.305 0.782-0.706 0.003-0.025 0.008-0.073 0.015-0.14 0.012-0.112 0.025-0.237 0.040-0.372 0.042-0.384 0.087-0.769 0.131-1.127 0.029-0.232 0.057-0.445 0.084-0.636 0.024-0.17 0.046-0.319 0.067-0.444 1.528-0.342 2.94-0.93 4.171-1.75 0.208 0.161 0.48 0.381 0.8 0.646 0.041 0.034 0.041 0.034 0.081 0.068 0.275 0.229 0.565 0.474 0.852 0.72 0.101 0.086 0.194 0.166 0.277 0.238 0.050 0.043 0.085 0.073 0.103 0.089 0.318 0.276 0.796 0.252 1.086-0.053l2.14-2.255c0.284-0.299 0.289-0.766 0.011-1.070-0.016-0.018-0.047-0.052-0.090-0.1-0.073-0.080-0.153-0.17-0.241-0.267-0.249-0.278-0.497-0.558-0.729-0.824-0.037-0.043-0.037-0.043-0.074-0.085-0.253-0.292-0.465-0.543-0.623-0.739 0.84-1.169 1.419-2.492 1.736-3.998 0.089-0.013 0.189-0.027 0.3-0.042 0.222-0.029 0.482-0.060 0.772-0.092 0.36-0.040 0.747-0.079 1.133-0.116 0.135-0.013 0.261-0.025 0.374-0.035 0.067-0.006 0.115-0.011 0.141-0.013 0.406-0.036 0.717-0.376 0.717-0.783v-3.436c0-0.414-0.322-0.758-0.735-0.785-0.025-0.002-0.073-0.005-0.14-0.009-0.112-0.008-0.236-0.016-0.37-0.026-0.383-0.027-0.765-0.056-1.122-0.085-0.279-0.023-0.53-0.045-0.747-0.065-0.12-0.012-0.228-0.023-0.323-0.033-0.405-1.526-0.902-2.751-1.615-3.984zM25.294 27.449l0.515-0.543c0.061 0.052 0.122 0.104 0.183 0.156 0.102 0.087 0.197 0.169 0.281 0.241 0.051 0.044 0.087 0.075 0.107 0.092l-1.086 0.053zM7.694 5.243l-0.515 0.517c-0.061-0.052-0.122-0.104-0.182-0.156-0.099-0.084-0.19-0.163-0.271-0.233-0.049-0.042-0.084-0.072-0.103-0.089l1.072-0.039zM29.462 17.495c-0.3 0.033-0.57 0.065-0.805 0.096-0.277 0.036-0.501 0.070-0.668 0.103-0.107 0.021-0.195 0.042-0.273 0.066-0.067 0.021-0.127 0.045-0.191 0.080-0.062 0.034-0.121 0.075-0.18 0.131-0.116 0.111-0.205 0.255-0.238 0.447-0.278 1.665-0.895 3.053-1.858 4.246-0.17 0.21-0.2 0.43-0.167 0.637 0.014 0.084 0.037 0.154 0.067 0.222 0.031 0.070 0.068 0.134 0.114 0.205 0.063 0.096 0.149 0.212 0.26 0.352 0.181 0.23 0.432 0.528 0.737 0.88 0.038 0.044 0.038 0.044 0.076 0.088 0.19 0.218 0.391 0.446 0.594 0.673l-1.125 1.186c-0.232-0.198-0.463-0.393-0.685-0.578-0.042-0.035-0.042-0.035-0.084-0.070-0.362-0.3-0.668-0.547-0.903-0.727-0.142-0.109-0.26-0.193-0.356-0.254-0.069-0.044-0.131-0.079-0.196-0.109-0.063-0.028-0.127-0.051-0.204-0.066-0.203-0.039-0.415-0.020-0.633 0.141-1.261 0.933-2.783 1.571-4.464 1.884-0.2 0.037-0.344 0.134-0.453 0.257-0.052 0.059-0.090 0.117-0.121 0.177-0.033 0.063-0.056 0.123-0.076 0.19-0.025 0.081-0.048 0.178-0.071 0.295-0.037 0.188-0.078 0.441-0.121 0.752-0.028 0.199-0.057 0.42-0.087 0.66-0.038 0.309-0.077 0.636-0.114 0.966h-1.661c-0.022-0.313-0.044-0.622-0.067-0.915-0.026-0.331-0.051-0.626-0.075-0.873-0.024-0.25-0.047-0.45-0.069-0.598-0.014-0.094-0.028-0.171-0.045-0.239-0.015-0.061-0.033-0.115-0.060-0.176-0.034-0.073-0.034-0.073-0.119-0.192-0.145-0.164-0.145-0.164-0.554-0.285-1.357-0.101-2.593-0.649-4.43-1.816-0.228-0.145-0.422-0.148-0.617-0.102-0.066 0.015-0.121 0.036-0.176 0.060-0.058 0.026-0.116 0.058-0.181 0.098-0.094 0.057-0.211 0.136-0.354 0.238-0.239 0.169-0.552 0.402-0.923 0.686-0.037 0.028-0.037 0.028-0.074 0.057-0.244 0.186-0.499 0.384-0.753 0.583l-1.229-1.175c0.2-0.247 0.398-0.494 0.586-0.73 0.026-0.033 0.026-0.033 0.053-0.066 0.294-0.371 0.537-0.684 0.714-0.922 0.105-0.142 0.187-0.258 0.247-0.349 0.041-0.063 0.073-0.117 0.101-0.173 0.026-0.053 0.048-0.106 0.066-0.17 0.059-0.215 0.061-0.425-0.114-0.675-1.13-1.613-1.729-2.92-1.829-4.267-0.018-0.243-0.127-0.417-0.272-0.544-0.063-0.055-0.124-0.093-0.188-0.125-0.063-0.031-0.123-0.053-0.191-0.072-0.083-0.024-0.183-0.046-0.306-0.070-0.199-0.038-0.469-0.079-0.801-0.125-0.18-0.025-0.377-0.050-0.588-0.076-0.31-0.038-0.638-0.077-0.969-0.114v-1.774c0.307-0.018 0.611-0.038 0.898-0.057 0.32-0.022 0.605-0.043 0.846-0.063 0.253-0.021 0.455-0.041 0.604-0.060 0.093-0.012 0.168-0.024 0.232-0.037 0.057-0.012 0.107-0.026 0.163-0.048 0.068-0.027 0.068-0.027 0.189-0.102 0.181-0.132 0.181-0.132 0.329-0.607 0.071-1.57 0.765-3.272 1.746-4.379 0.319-0.361 0.29-0.483 0.129-0.849-0.016-0.036-0.031-0.066-0.050-0.098-0.021-0.036-0.046-0.077-0.078-0.126-0.052-0.080-0.125-0.189-0.219-0.326-0.162-0.235-0.383-0.552-0.651-0.929-0.2-0.282-0.39-0.548-0.581-0.815l1.262-1.267c0.221 0.189 0.442 0.375 0.654 0.552 0.036 0.030 0.036 0.030 0.072 0.060 0.349 0.29 0.643 0.529 0.868 0.702 0.136 0.105 0.248 0.186 0.338 0.246 0.065 0.043 0.122 0.077 0.182 0.106s0.12 0.051 0.194 0.068c0.215 0.049 0.438 0.035 0.672-0.147 1.224-0.95 2.764-1.574 4.447-1.815 0.454-0.065 0.511-0.167 0.636-0.529 0.012-0.036 0.021-0.067 0.029-0.101 0.009-0.037 0.017-0.080 0.027-0.133 0.015-0.084 0.034-0.2 0.056-0.347 0.038-0.254 0.087-0.6 0.144-1.018 0.009-0.067 0.009-0.067 0.018-0.134 0.039-0.291 0.080-0.598 0.121-0.909h1.806c0.030 0.308 0.061 0.614 0.090 0.903 0.008 0.079 0.016 0.155 0.024 0.23 0.042 0.401 0.078 0.73 0.107 0.972 0.017 0.14 0.032 0.251 0.045 0.333 0.008 0.053 0.016 0.097 0.025 0.137 0.009 0.039 0.018 0.074 0.034 0.116 0.108 0.299 0.194 0.44 0.604 0.515 1.779 0.329 3.249 0.934 4.348 1.847 0.357 0.296 0.544 0.252 0.857 0.1 0.043-0.021 0.077-0.041 0.114-0.065 0.038-0.025 0.080-0.055 0.129-0.093 0.078-0.059 0.181-0.142 0.31-0.248 0.221-0.181 0.516-0.43 0.868-0.73 0.25-0.213 0.476-0.407 0.703-0.603l1.26 1.324c-0.196 0.248-0.39 0.496-0.573 0.731-0.318 0.409-0.55 0.712-0.719 0.941-0.1 0.135-0.178 0.244-0.234 0.328-0.037 0.055-0.066 0.102-0.091 0.147-0.023 0.042-0.043 0.083-0.062 0.133-0.086 0.23-0.111 0.414 0.066 0.7 0.847 1.373 1.376 2.669 1.812 4.464 0.056 0.23 0.179 0.37 0.327 0.471 0.106 0.063 0.106 0.063 0.17 0.089 0.055 0.021 0.106 0.036 0.164 0.049 0.069 0.016 0.152 0.030 0.253 0.044 0.164 0.023 0.386 0.048 0.661 0.074 0.225 0.022 0.484 0.044 0.77 0.067 0.295 0.024 0.607 0.048 0.921 0.070v1.986c-0.329 0.032-0.656 0.066-0.964 0.1z"></path>
<path fill="#ff3b30" d="M16.208 8.66c-4.335 0-7.849 3.525-7.849 7.872s3.513 7.872 7.849 7.872c4.335 0 7.848-3.525 7.848-7.872s-3.513-7.872-7.848-7.872zM16.208 10.233c3.465 0 6.276 2.82 6.276 6.3s-2.81 6.3-6.276 6.3c-3.466 0-6.276-2.82-6.276-6.3s2.81-6.3 6.276-6.3z"></path>
</svg>
