<svg width="80" height="18" viewBox="0 0 80 18" fill="none" xmlns="http://www.w3.org/2000/svg">
<path d="M24.9659 2.79265C24.6719 1.70079 23.811 0.839895 22.7192 0.545932C20.7244 0 12.7454 0 12.7454 0C12.7454 0 4.7664 0 2.77165 0.524934C1.70079 0.818897 0.818897 1.70079 0.524934 2.79265C0 4.7874 0 8.92388 0 8.92388C0 8.92388 0 13.0814 0.524934 15.0551C0.818897 16.147 1.67979 17.0079 2.77165 17.3018C4.7874 17.8478 12.7454 17.8478 12.7454 17.8478C12.7454 17.8478 20.7244 17.8478 22.7192 17.3228C23.811 17.0289 24.6719 16.168 24.9659 15.0761C25.4908 13.0814 25.4908 8.94488 25.4908 8.94488C25.4908 8.94488 25.5118 4.7874 24.9659 2.79265V2.79265Z" fill="#FF0000"/>
<path d="M10.2046 5.10242V12.7455L16.8398 8.92394L10.2046 5.10242Z" fill="white"/>
<path d="M37.0186 16.2519C36.5147 15.9159 36.1577 15.391 35.9478 14.6561C35.7378 13.9422 35.6328 12.9763 35.6328 11.8005V10.1837C35.6328 8.9868 35.7588 8.02092 35.9898 7.28602C36.2417 6.55111 36.6197 6.02617 37.1236 5.69022C37.6486 5.35426 38.3205 5.18628 39.1604 5.18628C39.9793 5.18628 40.6512 5.35426 41.1551 5.69022C41.6591 6.02617 42.016 6.57211 42.247 7.28602C42.478 7.99993 42.6039 8.96581 42.6039 10.1837V11.8005C42.6039 12.9973 42.499 13.9422 42.268 14.6771C42.037 15.391 41.6801 15.9369 41.1761 16.2729C40.6722 16.6088 39.9793 16.7768 39.1184 16.7768C38.2365 16.7558 37.5226 16.5879 37.0186 16.2519V16.2519ZM39.8533 14.4881C40.0003 14.1312 40.0633 13.5222 40.0633 12.7033V9.21777C40.0633 8.41987 40.0003 7.83195 39.8533 7.454C39.7063 7.07604 39.4753 6.90806 39.1184 6.90806C38.7824 6.90806 38.5304 7.09704 38.4045 7.454C38.2575 7.83195 38.1945 8.41987 38.1945 9.21777V12.7033C38.1945 13.5222 38.2575 14.1312 38.4045 14.4881C38.5304 14.8451 38.7824 15.034 39.1394 15.034C39.4753 15.034 39.7063 14.8661 39.8533 14.4881Z" fill="white"/>
<path d="M75.7799 11.8214V12.3884C75.7799 13.1023 75.8009 13.6482 75.8429 14.0052C75.8849 14.3621 75.9689 14.6351 76.1159 14.7821C76.2419 14.9501 76.4519 15.034 76.7458 15.034C77.1238 15.034 77.3757 14.8871 77.5227 14.5931C77.6697 14.2991 77.7327 13.8162 77.7537 13.1233L79.9164 13.2493C79.9374 13.3543 79.9374 13.4802 79.9374 13.6482C79.9374 14.6771 79.6645 15.454 79.0975 15.9579C78.5306 16.4619 77.7327 16.7138 76.7038 16.7138C75.465 16.7138 74.6041 16.3149 74.1001 15.538C73.5962 14.7611 73.3442 13.5642 73.3442 11.9264V9.97368C73.3442 8.29389 73.5962 7.07604 74.1211 6.29914C74.6461 5.52224 75.528 5.14429 76.7668 5.14429C77.6277 5.14429 78.2996 5.31227 78.7616 5.62723C79.2235 5.94219 79.5385 6.44612 79.7274 7.09704C79.9164 7.76896 80.0004 8.69284 80.0004 9.86869V11.7795H75.7799V11.8214ZM76.0949 7.11804C75.9689 7.28602 75.8849 7.53799 75.8429 7.89494C75.8009 8.2519 75.7799 8.79783 75.7799 9.53274V10.3306H77.6277V9.53274C77.6277 8.81883 77.6067 8.27289 77.5647 7.89494C77.5227 7.51699 77.4177 7.26502 77.2917 7.11804C77.1658 6.97106 76.9558 6.88707 76.7038 6.88707C76.4099 6.86607 76.2209 6.95006 76.0949 7.11804Z" fill="white"/>
<path d="M30.8874 11.6115L28.0317 1.25977H30.5304L31.5383 5.94218C31.7903 7.09703 31.9792 8.08391 32.1052 8.90281H32.1682C32.2522 8.31488 32.4412 7.349 32.7351 5.96318L33.785 1.25977H36.2837L33.3861 11.6115V16.5668H30.9084V11.6115H30.8874Z" fill="white"/>
<path d="M50.7299 5.39624V16.5878H48.7562L48.5462 15.223H48.4832C47.9583 16.2519 47.1394 16.7768 46.0685 16.7768C45.3336 16.7768 44.7877 16.5248 44.4307 16.0419C44.0737 15.559 43.9058 14.8031 43.9058 13.7532V5.39624H46.4254V13.6062C46.4254 14.1101 46.4884 14.4671 46.5934 14.6771C46.6984 14.8871 46.8874 14.992 47.1394 14.992C47.3493 14.992 47.5593 14.929 47.7693 14.7821C47.9793 14.6561 48.1262 14.4881 48.2102 14.2781V5.39624H50.7299Z" fill="white"/>
<path d="M63.6435 5.39624V16.5878H61.6697L61.4598 15.223H61.3968C60.8718 16.2519 60.0529 16.7768 58.9821 16.7768C58.2472 16.7768 57.7012 16.5248 57.3443 16.0419C56.9873 15.559 56.8193 14.8031 56.8193 13.7532V5.39624H59.339V13.6062C59.339 14.1101 59.402 14.4671 59.507 14.6771C59.612 14.8871 59.801 14.992 60.0529 14.992C60.2629 14.992 60.4729 14.929 60.6829 14.7821C60.8928 14.6561 61.0398 14.4881 61.1238 14.2781V5.39624H63.6435Z" fill="white"/>
<path d="M57.5752 3.29651H55.0765V16.5668H52.6198V3.29651H50.1211V1.25977H57.5752V3.29651Z" fill="white"/>
<path d="M71.9789 7.18106C71.8319 6.46715 71.58 5.96321 71.244 5.64825C70.9081 5.33329 70.4251 5.16531 69.8372 5.16531C69.3753 5.16531 68.9343 5.2913 68.5354 5.56426C68.1364 5.81623 67.8215 6.17318 67.6115 6.59313H67.5905V0.692871H65.1548V16.5669H67.2335L67.4855 15.517H67.5485C67.7375 15.895 68.0314 16.1889 68.4304 16.4199C68.8293 16.6299 69.2493 16.7559 69.7322 16.7559C70.5931 16.7559 71.202 16.3569 71.601 15.58C71.9999 14.8031 72.2099 13.5643 72.2099 11.9055V10.1417C72.1889 8.86085 72.1259 7.87397 71.9789 7.18106V7.18106ZM69.6692 11.7375C69.6692 12.5564 69.6272 13.1863 69.5642 13.6482C69.5012 14.1102 69.3753 14.4461 69.2283 14.6351C69.0603 14.8241 68.8503 14.9291 68.5984 14.9291C68.3884 14.9291 68.1994 14.8871 68.0314 14.7821C67.8634 14.6771 67.7165 14.5301 67.6115 14.3412V7.99996C67.6955 7.70599 67.8425 7.45402 68.0524 7.24405C68.2624 7.05507 68.4934 6.95009 68.7243 6.95009C68.9763 6.95009 69.1863 7.05507 69.3123 7.24405C69.4592 7.45402 69.5432 7.78998 69.6062 8.25192C69.6692 8.73486 69.6902 9.40678 69.6902 10.2677V11.7375H69.6692Z" fill="white"/>
</svg>
