<?xml version="1.0" encoding="UTF-8"?>
<svg width="338px" height="659px" viewBox="0 0 338 659" version="1.1" xmlns="http://www.w3.org/2000/svg" xmlns:xlink="http://www.w3.org/1999/xlink">
    <!-- Generator: Sketch 50.2 (55047) - http://www.bohemiancoding.com/sketch -->
    <title>Screen</title>
    <desc>Created with Sketch.</desc>
    <defs>
        <linearGradient x1="50%" y1="0%" x2="50%" y2="100%" id="linearGradient-1">
            <stop stop-color="#C8C8C8" offset="0%"></stop>
            <stop stop-color="#000000" offset="3.47387126%"></stop>
            <stop stop-color="#000000" offset="97.5693785%"></stop>
            <stop stop-color="#979797" offset="100%"></stop>
        </linearGradient>
        <path d="M22.5,-5.68868377e-14 L312.752918,-5.68868377e-14 C325.179325,-5.91695316e-14 335.252918,10.0735931 335.252918,22.5 L335.252918,634.711957 C335.252918,646.586079 325.62704,656.211957 313.752918,656.211957 L21.5,656.211957 C9.62587788,656.211957 -2.09855311e-15,646.586079 -3.55271368e-15,634.711957 L-3.55271368e-15,22.5 C-5.07450962e-15,10.0735931 10.0735931,-5.46041438e-14 22.5,-5.68868377e-14 Z" id="path-2"></path>
        <rect id="path-4" x="0" y="0" width="285" height="35" rx="8"></rect>
        <filter x="-3.5%" y="-22.9%" width="107.0%" height="157.1%" filterUnits="objectBoundingBox" id="filter-5">
            <feOffset dx="0" dy="2" in="SourceAlpha" result="shadowOffsetOuter1"></feOffset>
            <feGaussianBlur stdDeviation="3" in="shadowOffsetOuter1" result="shadowBlurOuter1"></feGaussianBlur>
            <feColorMatrix values="0 0 0 0 0   0 0 0 0 0   0 0 0 0 0  0 0 0 0.1 0" type="matrix" in="shadowBlurOuter1"></feColorMatrix>
        </filter>
        <rect id="path-6" x="0" y="0" width="285" height="35" rx="8"></rect>
        <filter x="-3.5%" y="-22.9%" width="107.0%" height="157.1%" filterUnits="objectBoundingBox" id="filter-7">
            <feOffset dx="0" dy="2" in="SourceAlpha" result="shadowOffsetOuter1"></feOffset>
            <feGaussianBlur stdDeviation="3" in="shadowOffsetOuter1" result="shadowBlurOuter1"></feGaussianBlur>
            <feColorMatrix values="0 0 0 0 0   0 0 0 0 0   0 0 0 0 0  0 0 0 0.1 0" type="matrix" in="shadowBlurOuter1"></feColorMatrix>
        </filter>
        <rect id="path-8" x="0" y="0" width="285" height="35" rx="8"></rect>
        <filter x="-3.5%" y="-22.9%" width="107.0%" height="157.1%" filterUnits="objectBoundingBox" id="filter-9">
            <feOffset dx="0" dy="2" in="SourceAlpha" result="shadowOffsetOuter1"></feOffset>
            <feGaussianBlur stdDeviation="3" in="shadowOffsetOuter1" result="shadowBlurOuter1"></feGaussianBlur>
            <feColorMatrix values="0 0 0 0 0   0 0 0 0 0   0 0 0 0 0  0 0 0 0.1 0" type="matrix" in="shadowBlurOuter1"></feColorMatrix>
        </filter>
        <rect id="path-10" x="0" y="0" width="285" height="35" rx="8"></rect>
        <filter x="-3.5%" y="-22.9%" width="107.0%" height="157.1%" filterUnits="objectBoundingBox" id="filter-11">
            <feOffset dx="0" dy="2" in="SourceAlpha" result="shadowOffsetOuter1"></feOffset>
            <feGaussianBlur stdDeviation="3" in="shadowOffsetOuter1" result="shadowBlurOuter1"></feGaussianBlur>
            <feColorMatrix values="0 0 0 0 0   0 0 0 0 0   0 0 0 0 0  0 0 0 0.1 0" type="matrix" in="shadowBlurOuter1"></feColorMatrix>
        </filter>
        <rect id="path-12" x="0" y="0" width="285" height="35" rx="8"></rect>
        <filter x="-3.5%" y="-22.9%" width="107.0%" height="157.1%" filterUnits="objectBoundingBox" id="filter-13">
            <feOffset dx="0" dy="2" in="SourceAlpha" result="shadowOffsetOuter1"></feOffset>
            <feGaussianBlur stdDeviation="3" in="shadowOffsetOuter1" result="shadowBlurOuter1"></feGaussianBlur>
            <feColorMatrix values="0 0 0 0 0   0 0 0 0 0   0 0 0 0 0  0 0 0 0.1 0" type="matrix" in="shadowBlurOuter1"></feColorMatrix>
        </filter>
        <rect id="path-14" x="0" y="0" width="285" height="35" rx="8"></rect>
        <filter x="-3.5%" y="-22.9%" width="107.0%" height="157.1%" filterUnits="objectBoundingBox" id="filter-15">
            <feOffset dx="0" dy="2" in="SourceAlpha" result="shadowOffsetOuter1"></feOffset>
            <feGaussianBlur stdDeviation="3" in="shadowOffsetOuter1" result="shadowBlurOuter1"></feGaussianBlur>
            <feColorMatrix values="0 0 0 0 0   0 0 0 0 0   0 0 0 0 0  0 0 0 0.1 0" type="matrix" in="shadowBlurOuter1"></feColorMatrix>
        </filter>
        <rect id="path-16" x="0" y="0" width="285" height="35" rx="8"></rect>
        <filter x="-3.5%" y="-22.9%" width="107.0%" height="157.1%" filterUnits="objectBoundingBox" id="filter-17">
            <feOffset dx="0" dy="2" in="SourceAlpha" result="shadowOffsetOuter1"></feOffset>
            <feGaussianBlur stdDeviation="3" in="shadowOffsetOuter1" result="shadowBlurOuter1"></feGaussianBlur>
            <feColorMatrix values="0 0 0 0 0   0 0 0 0 0   0 0 0 0 0  0 0 0 0.1 0" type="matrix" in="shadowBlurOuter1"></feColorMatrix>
        </filter>
        <rect id="path-18" x="0" y="0" width="285" height="35" rx="8"></rect>
        <filter x="-3.5%" y="-22.9%" width="107.0%" height="157.1%" filterUnits="objectBoundingBox" id="filter-19">
            <feOffset dx="0" dy="2" in="SourceAlpha" result="shadowOffsetOuter1"></feOffset>
            <feGaussianBlur stdDeviation="3" in="shadowOffsetOuter1" result="shadowBlurOuter1"></feGaussianBlur>
            <feColorMatrix values="0 0 0 0 0   0 0 0 0 0   0 0 0 0 0  0 0 0 0.1 0" type="matrix" in="shadowBlurOuter1"></feColorMatrix>
        </filter>
        <rect id="path-20" x="0" y="0" width="285" height="35" rx="8"></rect>
        <filter x="-3.5%" y="-22.9%" width="107.0%" height="157.1%" filterUnits="objectBoundingBox" id="filter-21">
            <feOffset dx="0" dy="2" in="SourceAlpha" result="shadowOffsetOuter1"></feOffset>
            <feGaussianBlur stdDeviation="3" in="shadowOffsetOuter1" result="shadowBlurOuter1"></feGaussianBlur>
            <feColorMatrix values="0 0 0 0 0   0 0 0 0 0   0 0 0 0 0  0 0 0 0.1 0" type="matrix" in="shadowBlurOuter1"></feColorMatrix>
        </filter>
        <path d="M-5,-38 L336,-38 C340.418278,-38 344,-34.418278 344,-30 L344,79 L-13,79 L-13,-30 C-13,-34.418278 -9.418278,-38 -5,-38 Z" id="path-22"></path>
        <filter x="-3.6%" y="-9.4%" width="107.3%" height="122.2%" filterUnits="objectBoundingBox" id="filter-23">
            <feOffset dx="0" dy="2" in="SourceAlpha" result="shadowOffsetOuter1"></feOffset>
            <feGaussianBlur stdDeviation="4" in="shadowOffsetOuter1" result="shadowBlurOuter1"></feGaussianBlur>
            <feColorMatrix values="0 0 0 0 0   0 0 0 0 0   0 0 0 0 0  0 0 0 0.1 0" type="matrix" in="shadowBlurOuter1"></feColorMatrix>
        </filter>
    </defs>
    <g id="Interactive-Landing-Page" stroke="none" stroke-width="1" fill="none" fill-rule="evenodd">
        <g transform="translate(-752.000000, -4090.000000)" id="Assign-Worker">
            <g transform="translate(-2.000000, 3971.000000)">
                <g id="Android-">
                    <g id="Android-Mockup" transform="translate(743.698444, 79.000000)">
                        <g id="Screen" transform="translate(11.873541, 41.221014)">
                            <mask id="mask-3" fill="white">
                                <use xlink:href="#path-2"></use>
                            </mask>
                            <path stroke="url(#linearGradient-1)" d="M22.5,-0.5 L312.752918,-0.5 C325.455468,-0.5 335.752918,9.79745075 335.752918,22.5 L335.752918,634.711957 C335.752918,646.862221 325.903183,656.711957 313.752918,656.711957 L21.5,656.711957 C9.3497355,656.711957 -0.5,646.862221 -0.5,634.711957 L-0.5,22.5 C-0.5,9.79745075 9.79745075,-0.5 22.5,-0.5 Z"></path>
                            <polygon fill="#4A4A4A" mask="url(#mask-3)" points="0 -5.69e-14 335.25 -5.69e-14 335.25 656.211957 0 656.211957"></polygon>
                            <rect id="Content-Box-" fill="#FFFFFF" mask="url(#mask-3)" x="-13" y="-38" width="348" height="732" rx="8"></rect>
                            <g id="Main-Details" mask="url(#mask-3)">
                                <g transform="translate(23.428016, 112.778986)">
                                    <g id="Assign-Repeating-Schedule" stroke-width="1" fill="none" transform="translate(0.000000, 495.000000)">
                                        <g id="Group-5-Copy">
                                            <g id="Rectangle-7">
                                                <use fill="black" fill-opacity="1" filter="url(#filter-5)" xlink:href="#path-4"></use>
                                                <use fill="#FFFFFF" fill-rule="evenodd" xlink:href="#path-4"></use>
                                            </g>
                                            <path d="M20.863,20.348 L17.535,20.348 L16.586,23 L15.13,23 L18.445,13.9 L19.94,13.9 L23.255,23 L21.799,23 L20.863,20.348 Z M20.46,19.139 L19.199,15.46 L17.938,19.139 L20.46,19.139 Z M23.5655555,21.817 L24.4495555,21.115 C24.7615555,21.57 25.2295555,21.999 26.0745555,21.999 C26.6725555,21.999 27.1145555,21.7 27.1145555,21.154 C27.1145555,19.854 23.8125555,20.322 23.8125555,17.969 C23.8125555,16.773 24.8265555,16.045 26.1395555,16.045 C27.4135555,16.045 28.0895555,16.786 28.3495555,17.306 L27.3745555,17.956 C27.1795555,17.644 26.8155555,17.202 26.0615555,17.202 C25.5415555,17.202 25.1515555,17.475 25.1515555,17.943 C25.1515555,19.243 28.4665555,18.697 28.4665555,21.089 C28.4665555,22.35 27.4005555,23.169 26.0095555,23.169 C24.6315555,23.169 23.9035555,22.428 23.5655555,21.817 Z M28.959111,21.817 L29.843111,21.115 C30.155111,21.57 30.623111,21.999 31.468111,21.999 C32.066111,21.999 32.508111,21.7 32.508111,21.154 C32.508111,19.854 29.206111,20.322 29.206111,17.969 C29.206111,16.773 30.220111,16.045 31.533111,16.045 C32.807111,16.045 33.483111,16.786 33.743111,17.306 L32.768111,17.956 C32.573111,17.644 32.209111,17.202 31.455111,17.202 C30.935111,17.202 30.545111,17.475 30.545111,17.943 C30.545111,19.243 33.860111,18.697 33.860111,21.089 C33.860111,22.35 32.794111,23.169 31.403111,23.169 C30.025111,23.169 29.297111,22.428 28.959111,21.817 Z M34.8336665,23 L34.8336665,16.214 L36.2506665,16.214 L36.2506665,23 L34.8336665,23 Z M34.6516665,14.537 C34.6516665,14.043 35.0416665,13.653 35.5356665,13.653 C36.0296665,13.653 36.4196665,14.043 36.4196665,14.537 C36.4196665,15.031 36.0296665,15.421 35.5356665,15.421 C35.0416665,15.421 34.6516665,15.031 34.6516665,14.537 Z M38.121222,24.846 L38.576222,23.754 C38.823222,23.897 39.616222,24.274 40.565222,24.274 C41.696222,24.274 42.697222,23.858 42.697222,22.571 L42.697222,22.116 C42.541222,22.337 41.865222,23.169 40.526222,23.169 C38.576222,23.169 37.276222,21.7 37.276222,19.62 C37.276222,17.527 38.628222,16.045 40.552222,16.045 C41.826222,16.045 42.554222,16.812 42.762222,17.124 L42.762222,16.214 L44.101222,16.214 L44.101222,22.103 C44.101222,24.651 42.554222,25.496 40.578222,25.496 C39.668222,25.496 38.719222,25.197 38.121222,24.846 Z M42.736222,19.607 C42.736222,18.216 41.878222,17.306 40.708222,17.306 C39.538222,17.306 38.693222,18.242 38.693222,19.607 C38.693222,20.998 39.564222,21.908 40.721222,21.908 C41.943222,21.908 42.736222,20.946 42.736222,19.607 Z M48.7927775,16.045 C50.5477775,16.045 51.1587775,17.436 51.1587775,18.918 L51.1587775,23 L49.7547775,23 L49.7547775,18.801 C49.7547775,17.865 49.1697775,17.319 48.3897775,17.319 C47.4927775,17.319 46.9077775,17.982 46.9077775,18.905 L46.9077775,23 L45.4907775,23 L45.4907775,16.214 L46.8817775,16.214 L46.8817775,17.098 C47.1807775,16.565 47.8827775,16.045 48.7927775,16.045 Z M55.8228885,23 L55.8228885,13.9 L58.2668885,13.9 C60.2168885,13.9 61.3088885,15.057 61.3088885,16.578 C61.3088885,17.631 60.7498885,18.541 59.8268885,18.918 L62.0368885,23 L60.4378885,23 L58.5268885,19.243 L57.2658885,19.243 L57.2658885,23 L55.8228885,23 Z M57.2658885,18.008 L58.2408885,18.008 C59.1508885,18.008 59.8138885,17.501 59.8138885,16.578 C59.8138885,15.733 59.2938885,15.161 58.2408885,15.161 L57.2658885,15.161 L57.2658885,18.008 Z M62.477444,19.633 C62.477444,17.527 63.920444,16.045 65.779444,16.045 C67.833444,16.045 69.042444,17.462 69.042444,19.594 C69.042444,19.711 69.042444,19.828 69.029444,19.945 L63.920444,19.945 C63.946444,21.154 64.817444,21.934 66.026444,21.934 C67.053444,21.934 67.638444,21.362 67.898444,20.985 L68.834444,21.687 C68.509444,22.246 67.612444,23.169 66.000444,23.169 C63.881444,23.169 62.477444,21.687 62.477444,19.633 Z M63.972444,18.97 L67.599444,18.97 C67.547444,17.852 66.767444,17.228 65.792444,17.228 C64.817444,17.228 64.063444,17.904 63.972444,18.97 Z M70.0419995,25.431 L70.0419995,16.214 L71.3809995,16.214 L71.3809995,17.111 C71.5629995,16.864 72.2519995,16.045 73.5649995,16.045 C75.5019995,16.045 76.8799995,17.527 76.8799995,19.594 C76.8799995,21.7 75.5929995,23.169 73.6559995,23.169 C72.3689995,23.169 71.6409995,22.389 71.4589995,22.103 L71.4589995,25.431 L70.0419995,25.431 Z M71.4069995,19.594 C71.4069995,21.063 72.3039995,21.908 73.4349995,21.908 C74.6179995,21.908 75.4499995,20.959 75.4499995,19.594 C75.4499995,18.203 74.5789995,17.306 73.4219995,17.306 C72.1739995,17.306 71.4069995,18.346 71.4069995,19.594 Z M77.515555,19.633 C77.515555,17.527 78.958555,16.045 80.817555,16.045 C82.871555,16.045 84.080555,17.462 84.080555,19.594 C84.080555,19.711 84.080555,19.828 84.067555,19.945 L78.958555,19.945 C78.984555,21.154 79.855555,21.934 81.064555,21.934 C82.091555,21.934 82.676555,21.362 82.936555,20.985 L83.872555,21.687 C83.547555,22.246 82.650555,23.169 81.038555,23.169 C78.919555,23.169 77.515555,21.687 77.515555,19.633 Z M79.010555,18.97 L82.637555,18.97 C82.585555,17.852 81.805555,17.228 80.830555,17.228 C79.855555,17.228 79.101555,17.904 79.010555,18.97 Z M84.6641105,20.907 C84.6641105,19.594 85.7301105,18.671 87.2901105,18.671 C88.0701105,18.671 88.6551105,18.931 88.9151105,19.165 L88.9151105,18.528 C88.9151105,17.748 88.3691105,17.28 87.4721105,17.28 C86.7181105,17.28 86.0681105,17.54 85.5741105,17.813 L85.0281105,16.825 C85.5741105,16.474 86.4841105,16.045 87.6151105,16.045 C89.6301105,16.045 90.3191105,17.137 90.3191105,18.619 L90.3191105,23 L89.0841105,23 L88.9671105,22.493 C88.6161105,22.883 88.0701105,23.169 87.2251105,23.169 C85.7951105,23.169 84.6641105,22.272 84.6641105,20.907 Z M86.0811105,20.868 C86.0811105,21.544 86.6661105,22.038 87.5241105,22.038 C88.3561105,22.038 88.9541105,21.57 88.9541105,20.868 C88.9541105,20.153 88.3691105,19.698 87.5111105,19.698 C86.6531105,19.698 86.0811105,20.192 86.0811105,20.868 Z M91.786666,16.214 L91.786666,14.797 L93.190666,14.797 L93.190666,16.214 L94.568666,16.214 L94.568666,17.384 L93.190666,17.384 L93.190666,20.543 C93.190666,21.596 93.593666,21.83 94.347666,21.83 C94.464666,21.83 94.620666,21.817 94.620666,21.817 L94.620666,23.039 C94.620666,23.039 94.373666,23.091 93.931666,23.091 C92.280666,23.091 91.786666,21.986 91.786666,20.322 L91.786666,17.384 L91.032666,17.384 L91.032666,16.214 L91.786666,16.214 Z M95.6072215,23 L95.6072215,16.214 L97.0242215,16.214 L97.0242215,23 L95.6072215,23 Z M95.4252215,14.537 C95.4252215,14.043 95.8152215,13.653 96.3092215,13.653 C96.8032215,13.653 97.1932215,14.043 97.1932215,14.537 C97.1932215,15.031 96.8032215,15.421 96.3092215,15.421 C95.8152215,15.421 95.4252215,15.031 95.4252215,14.537 Z M101.767777,16.045 C103.522777,16.045 104.133777,17.436 104.133777,18.918 L104.133777,23 L102.729777,23 L102.729777,18.801 C102.729777,17.865 102.144777,17.319 101.364777,17.319 C100.467777,17.319 99.882777,17.982 99.882777,18.905 L99.882777,23 L98.465777,23 L98.465777,16.214 L99.856777,16.214 L99.856777,17.098 C100.155777,16.565 100.857777,16.045 101.767777,16.045 Z M105.952333,24.846 L106.407333,23.754 C106.654333,23.897 107.447333,24.274 108.396333,24.274 C109.527333,24.274 110.528333,23.858 110.528333,22.571 L110.528333,22.116 C110.372333,22.337 109.696333,23.169 108.357333,23.169 C106.407333,23.169 105.107333,21.7 105.107333,19.62 C105.107333,17.527 106.459333,16.045 108.383333,16.045 C109.657333,16.045 110.385333,16.812 110.593333,17.124 L110.593333,16.214 L111.932333,16.214 L111.932333,22.103 C111.932333,24.651 110.385333,25.496 108.409333,25.496 C107.499333,25.496 106.550333,25.197 105.952333,24.846 Z M110.567333,19.607 C110.567333,18.216 109.709333,17.306 108.539333,17.306 C107.369333,17.306 106.524333,18.242 106.524333,19.607 C106.524333,20.998 107.395333,21.908 108.552333,21.908 C109.774333,21.908 110.567333,20.946 110.567333,19.607 Z M116.011444,21.115 L117.233444,20.543 C117.480444,21.193 118.013444,21.83 119.014444,21.83 C119.833444,21.83 120.379444,21.375 120.379444,20.608 C120.379444,18.684 116.284444,19.113 116.284444,16.188 C116.284444,14.771 117.337444,13.731 119.014444,13.731 C120.743444,13.731 121.484444,14.953 121.705444,15.59 L120.509444,16.123 C120.301444,15.681 119.885444,15.057 118.988444,15.057 C118.182444,15.057 117.727444,15.551 117.727444,16.175 C117.727444,17.969 121.848444,17.644 121.848444,20.504 C121.848444,22.025 120.743444,23.169 118.949444,23.169 C117.090444,23.169 116.284444,21.921 116.011444,21.115 Z M128.359999,16.877 L127.930999,18.073 C127.618999,17.774 126.994999,17.332 126.136999,17.332 C124.849999,17.332 123.991999,18.32 123.991999,19.607 C123.991999,20.907 124.927999,21.908 126.188999,21.908 C127.059999,21.908 127.670999,21.414 127.956999,21.154 L128.359999,22.324 C128.021999,22.623 127.241999,23.169 126.110999,23.169 C124.043999,23.169 122.561999,21.648 122.561999,19.607 C122.561999,17.579 124.082999,16.045 126.097999,16.045 C127.215999,16.045 127.969999,16.539 128.359999,16.877 Z M132.661554,16.045 C134.416554,16.045 135.027554,17.436 135.027554,18.918 L135.027554,23 L133.623554,23 L133.623554,18.801 C133.623554,17.865 133.038555,17.319 132.258554,17.319 C131.361554,17.319 130.763554,17.982 130.763554,18.905 L130.763554,23 L129.346554,23 L129.346554,13.601 L130.763554,13.601 L130.763554,17.098 C131.062555,16.565 131.751554,16.045 132.661554,16.045 Z M136.01411,19.633 C136.01411,17.527 137.45711,16.045 139.31611,16.045 C141.37011,16.045 142.57911,17.462 142.57911,19.594 C142.57911,19.711 142.57911,19.828 142.56611,19.945 L137.45711,19.945 C137.48311,21.154 138.35411,21.934 139.56311,21.934 C140.59011,21.934 141.17511,21.362 141.43511,20.985 L142.37111,21.687 C142.04611,22.246 141.14911,23.169 139.53711,23.169 C137.41811,23.169 136.01411,21.687 136.01411,19.633 Z M137.50911,18.97 L141.13611,18.97 C141.08411,17.852 140.30411,17.228 139.32911,17.228 C138.35411,17.228 137.60011,17.904 137.50911,18.97 Z M150.000666,13.601 L150.000666,23 L148.661666,23 L148.661666,22.116 C148.479666,22.35 147.790666,23.169 146.477666,23.169 C144.540666,23.169 143.162666,21.7 143.162666,19.62 C143.162666,17.527 144.449666,16.045 146.386666,16.045 C147.673666,16.045 148.401666,16.825 148.583666,17.124 L148.583666,13.601 L150.000666,13.601 Z M148.635666,19.633 C148.635666,18.151 147.738666,17.306 146.607666,17.306 C145.424666,17.306 144.592666,18.268 144.592666,19.633 C144.592666,21.024 145.463666,21.921 146.620666,21.921 C147.868666,21.921 148.635666,20.881 148.635666,19.633 Z M153.756221,23.169 C152.001221,23.169 151.390221,21.778 151.390221,20.296 L151.390221,16.214 L152.794221,16.214 L152.794221,20.413 C152.794221,21.349 153.379221,21.895 154.159221,21.895 C155.056221,21.895 155.641221,21.245 155.641221,20.309 L155.641221,16.214 L157.058221,16.214 L157.058221,23 L155.667221,23 L155.667221,22.116 C155.368221,22.662 154.666221,23.169 153.756221,23.169 Z M158.447777,23 L158.447777,13.601 L159.864777,13.601 L159.864777,23 L158.447777,23 Z M160.903332,19.633 C160.903332,17.527 162.346332,16.045 164.205332,16.045 C166.259332,16.045 167.468332,17.462 167.468332,19.594 C167.468332,19.711 167.468332,19.828 167.455332,19.945 L162.346332,19.945 C162.372332,21.154 163.243332,21.934 164.452332,21.934 C165.479332,21.934 166.064332,21.362 166.324332,20.985 L167.260332,21.687 C166.935332,22.246 166.038332,23.169 164.426332,23.169 C162.307332,23.169 160.903332,21.687 160.903332,19.633 Z M162.398332,18.97 L166.025332,18.97 C165.973332,17.852 165.193332,17.228 164.218332,17.228 C163.243332,17.228 162.489332,17.904 162.398332,18.97 Z" id="Assign-Repeating-Sch" fill="#212B35"></path>
                                        </g>
                                        <g id="Group-19" transform="translate(251.000000, 6.000000)">
                                            <circle id="Oval-3" fill="#212B35" cx="11.5" cy="11.5" r="11.5"></circle>
                                            <path d="M11.4999974,7 C10.9152095,7 10.4411744,7.47406149 10.4411744,8.05882291 L10.4411744,10.4411744 L8.05882291,10.4411744 C7.47406149,10.4411744 7,10.9152148 7,11.5000026 C7,12.0847905 7.47406149,12.5588256 8.05882291,12.5588256 L10.4411744,12.5588256 L10.4411744,14.9411771 C10.4411744,15.5259385 10.9152095,16 11.4999974,16 C12.0847852,16 12.5588203,15.5259385 12.5588203,14.9411771 L12.5588203,12.5588256 L14.9411718,12.5588256 C15.5259332,12.5588256 15.9999947,12.0847905 15.9999947,11.5000026 C15.9999947,10.9152148 15.5259332,10.4411744 14.9411718,10.4411744 L12.5588203,10.4411744 L12.5588203,8.05882291 C12.5588203,7.47406149 12.0847852,7 11.4999974,7 Z" id="Shape-Copy-3" fill="#F6F8F7" fill-rule="nonzero"></path>
                                        </g>
                                    </g>
                                    <g id="End-Date" stroke-width="1" fill="none" transform="translate(0.000000, 452.000000)">
                                        <g id="Group-5-Copy">
                                            <g id="Rectangle-7">
                                                <use fill="black" fill-opacity="1" filter="url(#filter-7)" xlink:href="#path-6"></use>
                                                <use fill="#FFFFFF" fill-rule="evenodd" xlink:href="#path-6"></use>
                                            </g>
                                            <path d="M15.949,23 L15.949,13.9 L20.447,13.9 L20.447,15.2 L17.392,15.2 L17.392,17.735 L20.044,17.735 L20.044,19.022 L17.392,19.022 L17.392,21.7 L20.577,21.7 L20.577,23 L15.949,23 Z M25.1645555,16.045 C26.9195555,16.045 27.5305555,17.436 27.5305555,18.918 L27.5305555,23 L26.1265555,23 L26.1265555,18.801 C26.1265555,17.865 25.5415555,17.319 24.7615555,17.319 C23.8645555,17.319 23.2795555,17.982 23.2795555,18.905 L23.2795555,23 L21.8625555,23 L21.8625555,16.214 L23.2535555,16.214 L23.2535555,17.098 C23.5525555,16.565 24.2545555,16.045 25.1645555,16.045 Z M35.342111,13.601 L35.342111,23 L34.003111,23 L34.003111,22.116 C33.821111,22.35 33.132111,23.169 31.819111,23.169 C29.882111,23.169 28.504111,21.7 28.504111,19.62 C28.504111,17.527 29.791111,16.045 31.728111,16.045 C33.015111,16.045 33.743111,16.825 33.925111,17.124 L33.925111,13.601 L35.342111,13.601 Z M33.977111,19.633 C33.977111,18.151 33.080111,17.306 31.949111,17.306 C30.766111,17.306 29.934111,18.268 29.934111,19.633 C29.934111,21.024 30.805111,21.921 31.962111,21.921 C33.210111,21.921 33.977111,20.881 33.977111,19.633 Z M40.058222,23 L40.058222,13.9 L42.203222,13.9 C45.245222,13.9 47.052222,15.603 47.052222,18.45 C47.052222,21.414 45.206222,23 42.203222,23 L40.058222,23 Z M41.501222,21.739 L42.346222,21.739 C44.296222,21.739 45.557222,20.621 45.557222,18.45 C45.557222,16.357 44.296222,15.174 42.346222,15.174 L41.501222,15.174 L41.501222,21.739 Z M47.7397775,20.907 C47.7397775,19.594 48.8057775,18.671 50.3657775,18.671 C51.1457775,18.671 51.7307775,18.931 51.9907775,19.165 L51.9907775,18.528 C51.9907775,17.748 51.4447775,17.28 50.5477775,17.28 C49.7937775,17.28 49.1437775,17.54 48.6497775,17.813 L48.1037775,16.825 C48.6497775,16.474 49.5597775,16.045 50.6907775,16.045 C52.7057775,16.045 53.3947775,17.137 53.3947775,18.619 L53.3947775,23 L52.1597775,23 L52.0427775,22.493 C51.6917775,22.883 51.1457775,23.169 50.3007775,23.169 C48.8707775,23.169 47.7397775,22.272 47.7397775,20.907 Z M49.1567775,20.868 C49.1567775,21.544 49.7417775,22.038 50.5997775,22.038 C51.4317775,22.038 52.0297775,21.57 52.0297775,20.868 C52.0297775,20.153 51.4447775,19.698 50.5867775,19.698 C49.7287775,19.698 49.1567775,20.192 49.1567775,20.868 Z M54.862333,16.214 L54.862333,14.797 L56.266333,14.797 L56.266333,16.214 L57.644333,16.214 L57.644333,17.384 L56.266333,17.384 L56.266333,20.543 C56.266333,21.596 56.669333,21.83 57.423333,21.83 C57.540333,21.83 57.696333,21.817 57.696333,21.817 L57.696333,23.039 C57.696333,23.039 57.449333,23.091 57.007333,23.091 C55.356333,23.091 54.862333,21.986 54.862333,20.322 L54.862333,17.384 L54.108333,17.384 L54.108333,16.214 L54.862333,16.214 Z M58.2798885,19.633 C58.2798885,17.527 59.7228885,16.045 61.5818885,16.045 C63.6358885,16.045 64.8448885,17.462 64.8448885,19.594 C64.8448885,19.711 64.8448885,19.828 64.8318885,19.945 L59.7228885,19.945 C59.7488885,21.154 60.6198885,21.934 61.8288885,21.934 C62.8558885,21.934 63.4408885,21.362 63.7008885,20.985 L64.6368885,21.687 C64.3118885,22.246 63.4148885,23.169 61.8028885,23.169 C59.6838885,23.169 58.2798885,21.687 58.2798885,19.633 Z M59.7748885,18.97 L63.4018885,18.97 C63.3498885,17.852 62.5698885,17.228 61.5948885,17.228 C60.6198885,17.228 59.8658885,17.904 59.7748885,18.97 Z" id="End-Date" fill="#212B35"></path>
                                        </g>
                                        <g id="Group-19" transform="translate(251.000000, 6.000000)">
                                            <circle id="Oval-3" fill="#212B35" cx="11.5" cy="11.5" r="11.5"></circle>
                                            <path d="M11.4999974,7 C10.9152095,7 10.4411744,7.47406149 10.4411744,8.05882291 L10.4411744,10.4411744 L8.05882291,10.4411744 C7.47406149,10.4411744 7,10.9152148 7,11.5000026 C7,12.0847905 7.47406149,12.5588256 8.05882291,12.5588256 L10.4411744,12.5588256 L10.4411744,14.9411771 C10.4411744,15.5259385 10.9152095,16 11.4999974,16 C12.0847852,16 12.5588203,15.5259385 12.5588203,14.9411771 L12.5588203,12.5588256 L14.9411718,12.5588256 C15.5259332,12.5588256 15.9999947,12.0847905 15.9999947,11.5000026 C15.9999947,10.9152148 15.5259332,10.4411744 14.9411718,10.4411744 L12.5588203,10.4411744 L12.5588203,8.05882291 C12.5588203,7.47406149 12.0847852,7 11.4999974,7 Z" id="Shape-Copy-3" fill="#F6F8F7" fill-rule="nonzero"></path>
                                        </g>
                                    </g>
                                    <g id="Due-Date" stroke-width="1" fill="none" transform="translate(0.000000, 409.000000)">
                                        <g id="Group-5-Copy">
                                            <g id="Rectangle-7">
                                                <use fill="black" fill-opacity="1" filter="url(#filter-9)" xlink:href="#path-8"></use>
                                                <use fill="#FFFFFF" fill-rule="evenodd" xlink:href="#path-8"></use>
                                            </g>
                                            <path d="M15.949,23 L15.949,13.9 L18.094,13.9 C21.136,13.9 22.943,15.603 22.943,18.45 C22.943,21.414 21.097,23 18.094,23 L15.949,23 Z M17.392,21.739 L18.237,21.739 C20.187,21.739 21.448,20.621 21.448,18.45 C21.448,16.357 20.187,15.174 18.237,15.174 L17.392,15.174 L17.392,21.739 Z M26.3605555,23.169 C24.6055555,23.169 23.9945555,21.778 23.9945555,20.296 L23.9945555,16.214 L25.3985555,16.214 L25.3985555,20.413 C25.3985555,21.349 25.9835555,21.895 26.7635555,21.895 C27.6605555,21.895 28.2455555,21.245 28.2455555,20.309 L28.2455555,16.214 L29.6625555,16.214 L29.6625555,23 L28.2715555,23 L28.2715555,22.116 C27.9725555,22.662 27.2705555,23.169 26.3605555,23.169 Z M30.649111,19.633 C30.649111,17.527 32.092111,16.045 33.951111,16.045 C36.005111,16.045 37.214111,17.462 37.214111,19.594 C37.214111,19.711 37.214111,19.828 37.201111,19.945 L32.092111,19.945 C32.118111,21.154 32.989111,21.934 34.198111,21.934 C35.225111,21.934 35.810111,21.362 36.070111,20.985 L37.006111,21.687 C36.681111,22.246 35.784111,23.169 34.172111,23.169 C32.053111,23.169 30.649111,21.687 30.649111,19.633 Z M32.144111,18.97 L35.771111,18.97 C35.719111,17.852 34.939111,17.228 33.964111,17.228 C32.989111,17.228 32.235111,17.904 32.144111,18.97 Z M41.488222,23 L41.488222,13.9 L43.633222,13.9 C46.675222,13.9 48.482222,15.603 48.482222,18.45 C48.482222,21.414 46.636222,23 43.633222,23 L41.488222,23 Z M42.931222,21.739 L43.776222,21.739 C45.726222,21.739 46.987222,20.621 46.987222,18.45 C46.987222,16.357 45.726222,15.174 43.776222,15.174 L42.931222,15.174 L42.931222,21.739 Z M49.1697775,20.907 C49.1697775,19.594 50.2357775,18.671 51.7957775,18.671 C52.5757775,18.671 53.1607775,18.931 53.4207775,19.165 L53.4207775,18.528 C53.4207775,17.748 52.8747775,17.28 51.9777775,17.28 C51.2237775,17.28 50.5737775,17.54 50.0797775,17.813 L49.5337775,16.825 C50.0797775,16.474 50.9897775,16.045 52.1207775,16.045 C54.1357775,16.045 54.8247775,17.137 54.8247775,18.619 L54.8247775,23 L53.5897775,23 L53.4727775,22.493 C53.1217775,22.883 52.5757775,23.169 51.7307775,23.169 C50.3007775,23.169 49.1697775,22.272 49.1697775,20.907 Z M50.5867775,20.868 C50.5867775,21.544 51.1717775,22.038 52.0297775,22.038 C52.8617775,22.038 53.4597775,21.57 53.4597775,20.868 C53.4597775,20.153 52.8747775,19.698 52.0167775,19.698 C51.1587775,19.698 50.5867775,20.192 50.5867775,20.868 Z M56.292333,16.214 L56.292333,14.797 L57.696333,14.797 L57.696333,16.214 L59.074333,16.214 L59.074333,17.384 L57.696333,17.384 L57.696333,20.543 C57.696333,21.596 58.099333,21.83 58.853333,21.83 C58.970333,21.83 59.126333,21.817 59.126333,21.817 L59.126333,23.039 C59.126333,23.039 58.879333,23.091 58.437333,23.091 C56.786333,23.091 56.292333,21.986 56.292333,20.322 L56.292333,17.384 L55.538333,17.384 L55.538333,16.214 L56.292333,16.214 Z M59.7098885,19.633 C59.7098885,17.527 61.1528885,16.045 63.0118885,16.045 C65.0658885,16.045 66.2748885,17.462 66.2748885,19.594 C66.2748885,19.711 66.2748885,19.828 66.2618885,19.945 L61.1528885,19.945 C61.1788885,21.154 62.0498885,21.934 63.2588885,21.934 C64.2858885,21.934 64.8708885,21.362 65.1308885,20.985 L66.0668885,21.687 C65.7418885,22.246 64.8448885,23.169 63.2328885,23.169 C61.1138885,23.169 59.7098885,21.687 59.7098885,19.633 Z M61.2048885,18.97 L64.8318885,18.97 C64.7798885,17.852 63.9998885,17.228 63.0248885,17.228 C62.0498885,17.228 61.2958885,17.904 61.2048885,18.97 Z" id="Due-Date" fill="#212B35"></path>
                                        </g>
                                        <g id="Group-19" transform="translate(251.000000, 6.000000)">
                                            <circle id="Oval-3" fill="#212B35" cx="11.5" cy="11.5" r="11.5"></circle>
                                            <path d="M11.4999974,7 C10.9152095,7 10.4411744,7.47406149 10.4411744,8.05882291 L10.4411744,10.4411744 L8.05882291,10.4411744 C7.47406149,10.4411744 7,10.9152148 7,11.5000026 C7,12.0847905 7.47406149,12.5588256 8.05882291,12.5588256 L10.4411744,12.5588256 L10.4411744,14.9411771 C10.4411744,15.5259385 10.9152095,16 11.4999974,16 C12.0847852,16 12.5588203,15.5259385 12.5588203,14.9411771 L12.5588203,12.5588256 L14.9411718,12.5588256 C15.5259332,12.5588256 15.9999947,12.0847905 15.9999947,11.5000026 C15.9999947,10.9152148 15.5259332,10.4411744 14.9411718,10.4411744 L12.5588203,10.4411744 L12.5588203,8.05882291 C12.5588203,7.47406149 12.0847852,7 11.4999974,7 Z" id="Shape-Copy-3" fill="#F6F8F7" fill-rule="nonzero"></path>
                                        </g>
                                    </g>
                                    <g id="Assign-Image" stroke-width="1" fill="none" transform="translate(0.000000, 337.000000)">
                                        <g id="Group-5-Copy">
                                            <g id="Rectangle-7">
                                                <use fill="black" fill-opacity="1" filter="url(#filter-11)" xlink:href="#path-10"></use>
                                                <use fill="#FFFFFF" fill-rule="evenodd" xlink:href="#path-10"></use>
                                            </g>
                                            <path d="M20.863,20.348 L17.535,20.348 L16.586,23 L15.13,23 L18.445,13.9 L19.94,13.9 L23.255,23 L21.799,23 L20.863,20.348 Z M20.46,19.139 L19.199,15.46 L17.938,19.139 L20.46,19.139 Z M23.5655555,21.817 L24.4495555,21.115 C24.7615555,21.57 25.2295555,21.999 26.0745555,21.999 C26.6725555,21.999 27.1145555,21.7 27.1145555,21.154 C27.1145555,19.854 23.8125555,20.322 23.8125555,17.969 C23.8125555,16.773 24.8265555,16.045 26.1395555,16.045 C27.4135555,16.045 28.0895555,16.786 28.3495555,17.306 L27.3745555,17.956 C27.1795555,17.644 26.8155555,17.202 26.0615555,17.202 C25.5415555,17.202 25.1515555,17.475 25.1515555,17.943 C25.1515555,19.243 28.4665555,18.697 28.4665555,21.089 C28.4665555,22.35 27.4005555,23.169 26.0095555,23.169 C24.6315555,23.169 23.9035555,22.428 23.5655555,21.817 Z M28.959111,21.817 L29.843111,21.115 C30.155111,21.57 30.623111,21.999 31.468111,21.999 C32.066111,21.999 32.508111,21.7 32.508111,21.154 C32.508111,19.854 29.206111,20.322 29.206111,17.969 C29.206111,16.773 30.220111,16.045 31.533111,16.045 C32.807111,16.045 33.483111,16.786 33.743111,17.306 L32.768111,17.956 C32.573111,17.644 32.209111,17.202 31.455111,17.202 C30.935111,17.202 30.545111,17.475 30.545111,17.943 C30.545111,19.243 33.860111,18.697 33.860111,21.089 C33.860111,22.35 32.794111,23.169 31.403111,23.169 C30.025111,23.169 29.297111,22.428 28.959111,21.817 Z M34.8336665,23 L34.8336665,16.214 L36.2506665,16.214 L36.2506665,23 L34.8336665,23 Z M34.6516665,14.537 C34.6516665,14.043 35.0416665,13.653 35.5356665,13.653 C36.0296665,13.653 36.4196665,14.043 36.4196665,14.537 C36.4196665,15.031 36.0296665,15.421 35.5356665,15.421 C35.0416665,15.421 34.6516665,15.031 34.6516665,14.537 Z M38.121222,24.846 L38.576222,23.754 C38.823222,23.897 39.616222,24.274 40.565222,24.274 C41.696222,24.274 42.697222,23.858 42.697222,22.571 L42.697222,22.116 C42.541222,22.337 41.865222,23.169 40.526222,23.169 C38.576222,23.169 37.276222,21.7 37.276222,19.62 C37.276222,17.527 38.628222,16.045 40.552222,16.045 C41.826222,16.045 42.554222,16.812 42.762222,17.124 L42.762222,16.214 L44.101222,16.214 L44.101222,22.103 C44.101222,24.651 42.554222,25.496 40.578222,25.496 C39.668222,25.496 38.719222,25.197 38.121222,24.846 Z M42.736222,19.607 C42.736222,18.216 41.878222,17.306 40.708222,17.306 C39.538222,17.306 38.693222,18.242 38.693222,19.607 C38.693222,20.998 39.564222,21.908 40.721222,21.908 C41.943222,21.908 42.736222,20.946 42.736222,19.607 Z M48.7927775,16.045 C50.5477775,16.045 51.1587775,17.436 51.1587775,18.918 L51.1587775,23 L49.7547775,23 L49.7547775,18.801 C49.7547775,17.865 49.1697775,17.319 48.3897775,17.319 C47.4927775,17.319 46.9077775,17.982 46.9077775,18.905 L46.9077775,23 L45.4907775,23 L45.4907775,16.214 L46.8817775,16.214 L46.8817775,17.098 C47.1807775,16.565 47.8827775,16.045 48.7927775,16.045 Z M55.8228885,23 L55.8228885,13.9 L57.2658885,13.9 L57.2658885,23 L55.8228885,23 Z M68.457444,18.567 L68.457444,23 L67.053444,23 L67.053444,18.931 C67.053444,17.878 66.598444,17.319 65.753444,17.319 C64.960444,17.319 64.375444,17.904 64.375444,18.944 L64.375444,23 L62.958444,23 L62.958444,18.801 C62.958444,17.878 62.464444,17.319 61.658444,17.319 C60.891444,17.319 60.293444,17.943 60.293444,18.918 L60.293444,23 L58.876444,23 L58.876444,16.214 L60.267444,16.214 L60.267444,17.098 C60.514444,16.578 61.177444,16.045 62.100444,16.045 C63.049444,16.045 63.725444,16.487 64.050444,17.176 C64.453444,16.461 65.207444,16.045 66.143444,16.045 C67.677444,16.045 68.457444,17.098 68.457444,18.567 Z M69.4309995,20.907 C69.4309995,19.594 70.4969995,18.671 72.0569995,18.671 C72.8369995,18.671 73.4219995,18.931 73.6819995,19.165 L73.6819995,18.528 C73.6819995,17.748 73.1359995,17.28 72.2389995,17.28 C71.4849995,17.28 70.8349995,17.54 70.3409995,17.813 L69.7949995,16.825 C70.3409995,16.474 71.2509995,16.045 72.3819995,16.045 C74.3969995,16.045 75.0859995,17.137 75.0859995,18.619 L75.0859995,23 L73.8509995,23 L73.7339995,22.493 C73.3829995,22.883 72.8369995,23.169 71.9919995,23.169 C70.5619995,23.169 69.4309995,22.272 69.4309995,20.907 Z M70.8479995,20.868 C70.8479995,21.544 71.4329995,22.038 72.2909995,22.038 C73.1229995,22.038 73.7209995,21.57 73.7209995,20.868 C73.7209995,20.153 73.1359995,19.698 72.2779995,19.698 C71.4199995,19.698 70.8479995,20.192 70.8479995,20.868 Z M76.865555,24.846 L77.320555,23.754 C77.567555,23.897 78.360555,24.274 79.309555,24.274 C80.440555,24.274 81.441555,23.858 81.441555,22.571 L81.441555,22.116 C81.285555,22.337 80.609555,23.169 79.270555,23.169 C77.320555,23.169 76.020555,21.7 76.020555,19.62 C76.020555,17.527 77.372555,16.045 79.296555,16.045 C80.570555,16.045 81.298555,16.812 81.506555,17.124 L81.506555,16.214 L82.845555,16.214 L82.845555,22.103 C82.845555,24.651 81.298555,25.496 79.322555,25.496 C78.412555,25.496 77.463555,25.197 76.865555,24.846 Z M81.480555,19.607 C81.480555,18.216 80.622555,17.306 79.452555,17.306 C78.282555,17.306 77.437555,18.242 77.437555,19.607 C77.437555,20.998 78.308555,21.908 79.465555,21.908 C80.687555,21.908 81.480555,20.946 81.480555,19.607 Z M83.8321105,19.633 C83.8321105,17.527 85.2751105,16.045 87.1341105,16.045 C89.1881105,16.045 90.3971105,17.462 90.3971105,19.594 C90.3971105,19.711 90.3971105,19.828 90.3841105,19.945 L85.2751105,19.945 C85.3011105,21.154 86.1721105,21.934 87.3811105,21.934 C88.4081105,21.934 88.9931105,21.362 89.2531105,20.985 L90.1891105,21.687 C89.8641105,22.246 88.9671105,23.169 87.3551105,23.169 C85.2361105,23.169 83.8321105,21.687 83.8321105,19.633 Z M85.3271105,18.97 L88.9541105,18.97 C88.9021105,17.852 88.1221105,17.228 87.1471105,17.228 C86.1721105,17.228 85.4181105,17.904 85.3271105,18.97 Z" id="Assign-Image" fill="#212B35"></path>
                                        </g>
                                        <g id="Group-19" transform="translate(251.000000, 6.000000)">
                                            <circle id="Oval-3" fill="#212B35" cx="11.5" cy="11.5" r="11.5"></circle>
                                            <path d="M11.4999974,7 C10.9152095,7 10.4411744,7.47406149 10.4411744,8.05882291 L10.4411744,10.4411744 L8.05882291,10.4411744 C7.47406149,10.4411744 7,10.9152148 7,11.5000026 C7,12.0847905 7.47406149,12.5588256 8.05882291,12.5588256 L10.4411744,12.5588256 L10.4411744,14.9411771 C10.4411744,15.5259385 10.9152095,16 11.4999974,16 C12.0847852,16 12.5588203,15.5259385 12.5588203,14.9411771 L12.5588203,12.5588256 L14.9411718,12.5588256 C15.5259332,12.5588256 15.9999947,12.0847905 15.9999947,11.5000026 C15.9999947,10.9152148 15.5259332,10.4411744 14.9411718,10.4411744 L12.5588203,10.4411744 L12.5588203,8.05882291 C12.5588203,7.47406149 12.0847852,7 11.4999974,7 Z" id="Shape-Copy-3" fill="#F6F8F7" fill-rule="nonzero"></path>
                                        </g>
                                    </g>
                                    <g id="Assign-Location" stroke-width="1" fill="none" transform="translate(1.000000, 294.000000)">
                                        <g id="Group-5-Copy">
                                            <g id="Rectangle-7">
                                                <use fill="black" fill-opacity="1" filter="url(#filter-13)" xlink:href="#path-12"></use>
                                                <use fill="#FFFFFF" fill-rule="evenodd" xlink:href="#path-12"></use>
                                            </g>
                                            <path d="M20.863,20.348 L17.535,20.348 L16.586,23 L15.13,23 L18.445,13.9 L19.94,13.9 L23.255,23 L21.799,23 L20.863,20.348 Z M20.46,19.139 L19.199,15.46 L17.938,19.139 L20.46,19.139 Z M23.5655555,21.817 L24.4495555,21.115 C24.7615555,21.57 25.2295555,21.999 26.0745555,21.999 C26.6725555,21.999 27.1145555,21.7 27.1145555,21.154 C27.1145555,19.854 23.8125555,20.322 23.8125555,17.969 C23.8125555,16.773 24.8265555,16.045 26.1395555,16.045 C27.4135555,16.045 28.0895555,16.786 28.3495555,17.306 L27.3745555,17.956 C27.1795555,17.644 26.8155555,17.202 26.0615555,17.202 C25.5415555,17.202 25.1515555,17.475 25.1515555,17.943 C25.1515555,19.243 28.4665555,18.697 28.4665555,21.089 C28.4665555,22.35 27.4005555,23.169 26.0095555,23.169 C24.6315555,23.169 23.9035555,22.428 23.5655555,21.817 Z M28.959111,21.817 L29.843111,21.115 C30.155111,21.57 30.623111,21.999 31.468111,21.999 C32.066111,21.999 32.508111,21.7 32.508111,21.154 C32.508111,19.854 29.206111,20.322 29.206111,17.969 C29.206111,16.773 30.220111,16.045 31.533111,16.045 C32.807111,16.045 33.483111,16.786 33.743111,17.306 L32.768111,17.956 C32.573111,17.644 32.209111,17.202 31.455111,17.202 C30.935111,17.202 30.545111,17.475 30.545111,17.943 C30.545111,19.243 33.860111,18.697 33.860111,21.089 C33.860111,22.35 32.794111,23.169 31.403111,23.169 C30.025111,23.169 29.297111,22.428 28.959111,21.817 Z M34.8336665,23 L34.8336665,16.214 L36.2506665,16.214 L36.2506665,23 L34.8336665,23 Z M34.6516665,14.537 C34.6516665,14.043 35.0416665,13.653 35.5356665,13.653 C36.0296665,13.653 36.4196665,14.043 36.4196665,14.537 C36.4196665,15.031 36.0296665,15.421 35.5356665,15.421 C35.0416665,15.421 34.6516665,15.031 34.6516665,14.537 Z M38.121222,24.846 L38.576222,23.754 C38.823222,23.897 39.616222,24.274 40.565222,24.274 C41.696222,24.274 42.697222,23.858 42.697222,22.571 L42.697222,22.116 C42.541222,22.337 41.865222,23.169 40.526222,23.169 C38.576222,23.169 37.276222,21.7 37.276222,19.62 C37.276222,17.527 38.628222,16.045 40.552222,16.045 C41.826222,16.045 42.554222,16.812 42.762222,17.124 L42.762222,16.214 L44.101222,16.214 L44.101222,22.103 C44.101222,24.651 42.554222,25.496 40.578222,25.496 C39.668222,25.496 38.719222,25.197 38.121222,24.846 Z M42.736222,19.607 C42.736222,18.216 41.878222,17.306 40.708222,17.306 C39.538222,17.306 38.693222,18.242 38.693222,19.607 C38.693222,20.998 39.564222,21.908 40.721222,21.908 C41.943222,21.908 42.736222,20.946 42.736222,19.607 Z M48.7927775,16.045 C50.5477775,16.045 51.1587775,17.436 51.1587775,18.918 L51.1587775,23 L49.7547775,23 L49.7547775,18.801 C49.7547775,17.865 49.1697775,17.319 48.3897775,17.319 C47.4927775,17.319 46.9077775,17.982 46.9077775,18.905 L46.9077775,23 L45.4907775,23 L45.4907775,16.214 L46.8817775,16.214 L46.8817775,17.098 C47.1807775,16.565 47.8827775,16.045 48.7927775,16.045 Z M55.8228885,23 L55.8228885,13.9 L57.2658885,13.9 L57.2658885,21.7 L60.4508885,21.7 L60.4508885,23 L55.8228885,23 Z M62.412444,19.62 C62.412444,20.959 63.309444,21.908 64.570444,21.908 C65.831444,21.908 66.754444,20.933 66.754444,19.607 C66.754444,18.281 65.831444,17.306 64.570444,17.306 C63.296444,17.306 62.412444,18.294 62.412444,19.62 Z M60.982444,19.62 C60.982444,17.566 62.529444,16.045 64.570444,16.045 C66.663444,16.045 68.171444,17.566 68.171444,19.607 C68.171444,21.648 66.637444,23.169 64.570444,23.169 C62.490444,23.169 60.982444,21.674 60.982444,19.62 Z M74.5789995,16.877 L74.1499995,18.073 C73.8379995,17.774 73.2139995,17.332 72.3559995,17.332 C71.0689995,17.332 70.2109995,18.32 70.2109995,19.607 C70.2109995,20.907 71.1469995,21.908 72.4079995,21.908 C73.2789995,21.908 73.8899995,21.414 74.1759995,21.154 L74.5789995,22.324 C74.2409995,22.623 73.4609995,23.169 72.3299995,23.169 C70.2629995,23.169 68.7809995,21.648 68.7809995,19.607 C68.7809995,17.579 70.3019995,16.045 72.3169995,16.045 C73.4349995,16.045 74.1889995,16.539 74.5789995,16.877 Z M75.149555,20.907 C75.149555,19.594 76.215555,18.671 77.775555,18.671 C78.555555,18.671 79.140555,18.931 79.400555,19.165 L79.400555,18.528 C79.400555,17.748 78.854555,17.28 77.957555,17.28 C77.203555,17.28 76.553555,17.54 76.059555,17.813 L75.513555,16.825 C76.059555,16.474 76.969555,16.045 78.100555,16.045 C80.115555,16.045 80.804555,17.137 80.804555,18.619 L80.804555,23 L79.569555,23 L79.452555,22.493 C79.101555,22.883 78.555555,23.169 77.710555,23.169 C76.280555,23.169 75.149555,22.272 75.149555,20.907 Z M76.566555,20.868 C76.566555,21.544 77.151555,22.038 78.009555,22.038 C78.841555,22.038 79.439555,21.57 79.439555,20.868 C79.439555,20.153 78.854555,19.698 77.996555,19.698 C77.138555,19.698 76.566555,20.192 76.566555,20.868 Z M82.2721105,16.214 L82.2721105,14.797 L83.6761105,14.797 L83.6761105,16.214 L85.0541105,16.214 L85.0541105,17.384 L83.6761105,17.384 L83.6761105,20.543 C83.6761105,21.596 84.0791105,21.83 84.8331105,21.83 C84.9501105,21.83 85.1061105,21.817 85.1061105,21.817 L85.1061105,23.039 C85.1061105,23.039 84.8591105,23.091 84.4171105,23.091 C82.7661105,23.091 82.2721105,21.986 82.2721105,20.322 L82.2721105,17.384 L81.5181105,17.384 L81.5181105,16.214 L82.2721105,16.214 Z M86.092666,23 L86.092666,16.214 L87.509666,16.214 L87.509666,23 L86.092666,23 Z M85.910666,14.537 C85.910666,14.043 86.300666,13.653 86.794666,13.653 C87.288666,13.653 87.678666,14.043 87.678666,14.537 C87.678666,15.031 87.288666,15.421 86.794666,15.421 C86.300666,15.421 85.910666,15.031 85.910666,14.537 Z M89.9652215,19.62 C89.9652215,20.959 90.8622215,21.908 92.1232215,21.908 C93.3842215,21.908 94.3072215,20.933 94.3072215,19.607 C94.3072215,18.281 93.3842215,17.306 92.1232215,17.306 C90.8492215,17.306 89.9652215,18.294 89.9652215,19.62 Z M88.5352215,19.62 C88.5352215,17.566 90.0822215,16.045 92.1232215,16.045 C94.2162215,16.045 95.7242215,17.566 95.7242215,19.607 C95.7242215,21.648 94.1902215,23.169 92.1232215,23.169 C90.0432215,23.169 88.5352215,21.674 88.5352215,19.62 Z M100.051777,16.045 C101.806777,16.045 102.417777,17.436 102.417777,18.918 L102.417777,23 L101.013777,23 L101.013777,18.801 C101.013777,17.865 100.428777,17.319 99.648777,17.319 C98.751777,17.319 98.166777,17.982 98.166777,18.905 L98.166777,23 L96.749777,23 L96.749777,16.214 L98.140777,16.214 L98.140777,17.098 C98.439777,16.565 99.141777,16.045 100.051777,16.045 Z" id="Assign-Location" fill="#212B35"></path>
                                        </g>
                                        <g id="Group-19" transform="translate(251.000000, 6.000000)">
                                            <circle id="Oval-3" fill="#212B35" cx="11.5" cy="11.5" r="11.5"></circle>
                                            <path d="M11.4999974,7 C10.9152095,7 10.4411744,7.47406149 10.4411744,8.05882291 L10.4411744,10.4411744 L8.05882291,10.4411744 C7.47406149,10.4411744 7,10.9152148 7,11.5000026 C7,12.0847905 7.47406149,12.5588256 8.05882291,12.5588256 L10.4411744,12.5588256 L10.4411744,14.9411771 C10.4411744,15.5259385 10.9152095,16 11.4999974,16 C12.0847852,16 12.5588203,15.5259385 12.5588203,14.9411771 L12.5588203,12.5588256 L14.9411718,12.5588256 C15.5259332,12.5588256 15.9999947,12.0847905 15.9999947,11.5000026 C15.9999947,10.9152148 15.5259332,10.4411744 14.9411718,10.4411744 L12.5588203,10.4411744 L12.5588203,8.05882291 C12.5588203,7.47406149 12.0847852,7 11.4999974,7 Z" id="Shape-Copy-3" fill="#F6F8F7" fill-rule="nonzero"></path>
                                        </g>
                                    </g>
                                    <g id="Assign-Asset" stroke-width="1" fill="none" transform="translate(1.000000, 251.000000)">
                                        <g id="Group-20-Copy-2">
                                            <g id="Group-5-Copy">
                                                <g id="Rectangle-7">
                                                    <use fill="black" fill-opacity="1" filter="url(#filter-15)" xlink:href="#path-14"></use>
                                                    <use fill="#FFFFFF" fill-rule="evenodd" xlink:href="#path-14"></use>
                                                </g>
                                                <path d="M20.863,20.348 L17.535,20.348 L16.586,23 L15.13,23 L18.445,13.9 L19.94,13.9 L23.255,23 L21.799,23 L20.863,20.348 Z M20.46,19.139 L19.199,15.46 L17.938,19.139 L20.46,19.139 Z M23.5655555,21.817 L24.4495555,21.115 C24.7615555,21.57 25.2295555,21.999 26.0745555,21.999 C26.6725555,21.999 27.1145555,21.7 27.1145555,21.154 C27.1145555,19.854 23.8125555,20.322 23.8125555,17.969 C23.8125555,16.773 24.8265555,16.045 26.1395555,16.045 C27.4135555,16.045 28.0895555,16.786 28.3495555,17.306 L27.3745555,17.956 C27.1795555,17.644 26.8155555,17.202 26.0615555,17.202 C25.5415555,17.202 25.1515555,17.475 25.1515555,17.943 C25.1515555,19.243 28.4665555,18.697 28.4665555,21.089 C28.4665555,22.35 27.4005555,23.169 26.0095555,23.169 C24.6315555,23.169 23.9035555,22.428 23.5655555,21.817 Z M28.959111,21.817 L29.843111,21.115 C30.155111,21.57 30.623111,21.999 31.468111,21.999 C32.066111,21.999 32.508111,21.7 32.508111,21.154 C32.508111,19.854 29.206111,20.322 29.206111,17.969 C29.206111,16.773 30.220111,16.045 31.533111,16.045 C32.807111,16.045 33.483111,16.786 33.743111,17.306 L32.768111,17.956 C32.573111,17.644 32.209111,17.202 31.455111,17.202 C30.935111,17.202 30.545111,17.475 30.545111,17.943 C30.545111,19.243 33.860111,18.697 33.860111,21.089 C33.860111,22.35 32.794111,23.169 31.403111,23.169 C30.025111,23.169 29.297111,22.428 28.959111,21.817 Z M34.8336665,23 L34.8336665,16.214 L36.2506665,16.214 L36.2506665,23 L34.8336665,23 Z M34.6516665,14.537 C34.6516665,14.043 35.0416665,13.653 35.5356665,13.653 C36.0296665,13.653 36.4196665,14.043 36.4196665,14.537 C36.4196665,15.031 36.0296665,15.421 35.5356665,15.421 C35.0416665,15.421 34.6516665,15.031 34.6516665,14.537 Z M38.121222,24.846 L38.576222,23.754 C38.823222,23.897 39.616222,24.274 40.565222,24.274 C41.696222,24.274 42.697222,23.858 42.697222,22.571 L42.697222,22.116 C42.541222,22.337 41.865222,23.169 40.526222,23.169 C38.576222,23.169 37.276222,21.7 37.276222,19.62 C37.276222,17.527 38.628222,16.045 40.552222,16.045 C41.826222,16.045 42.554222,16.812 42.762222,17.124 L42.762222,16.214 L44.101222,16.214 L44.101222,22.103 C44.101222,24.651 42.554222,25.496 40.578222,25.496 C39.668222,25.496 38.719222,25.197 38.121222,24.846 Z M42.736222,19.607 C42.736222,18.216 41.878222,17.306 40.708222,17.306 C39.538222,17.306 38.693222,18.242 38.693222,19.607 C38.693222,20.998 39.564222,21.908 40.721222,21.908 C41.943222,21.908 42.736222,20.946 42.736222,19.607 Z M48.7927775,16.045 C50.5477775,16.045 51.1587775,17.436 51.1587775,18.918 L51.1587775,23 L49.7547775,23 L49.7547775,18.801 C49.7547775,17.865 49.1697775,17.319 48.3897775,17.319 C47.4927775,17.319 46.9077775,17.982 46.9077775,18.905 L46.9077775,23 L45.4907775,23 L45.4907775,16.214 L46.8817775,16.214 L46.8817775,17.098 C47.1807775,16.565 47.8827775,16.045 48.7927775,16.045 Z M60.7368885,20.348 L57.4088885,20.348 L56.4598885,23 L55.0038885,23 L58.3188885,13.9 L59.8138885,13.9 L63.1288885,23 L61.6728885,23 L60.7368885,20.348 Z M60.3338885,19.139 L59.0728885,15.46 L57.8118885,19.139 L60.3338885,19.139 Z M63.439444,21.817 L64.323444,21.115 C64.635444,21.57 65.103444,21.999 65.948444,21.999 C66.546444,21.999 66.988444,21.7 66.988444,21.154 C66.988444,19.854 63.686444,20.322 63.686444,17.969 C63.686444,16.773 64.700444,16.045 66.013444,16.045 C67.287444,16.045 67.963444,16.786 68.223444,17.306 L67.248444,17.956 C67.053444,17.644 66.689444,17.202 65.935444,17.202 C65.415444,17.202 65.025444,17.475 65.025444,17.943 C65.025444,19.243 68.340444,18.697 68.340444,21.089 C68.340444,22.35 67.274444,23.169 65.883444,23.169 C64.505444,23.169 63.777444,22.428 63.439444,21.817 Z M68.8329995,21.817 L69.7169995,21.115 C70.0289995,21.57 70.4969995,21.999 71.3419995,21.999 C71.9399995,21.999 72.3819995,21.7 72.3819995,21.154 C72.3819995,19.854 69.0799995,20.322 69.0799995,17.969 C69.0799995,16.773 70.0939995,16.045 71.4069995,16.045 C72.6809995,16.045 73.3569995,16.786 73.6169995,17.306 L72.6419995,17.956 C72.4469995,17.644 72.0829995,17.202 71.3289995,17.202 C70.8089995,17.202 70.4189995,17.475 70.4189995,17.943 C70.4189995,19.243 73.7339995,18.697 73.7339995,21.089 C73.7339995,22.35 72.6679995,23.169 71.2769995,23.169 C69.8989995,23.169 69.1709995,22.428 68.8329995,21.817 Z M74.304555,19.633 C74.304555,17.527 75.747555,16.045 77.606555,16.045 C79.660555,16.045 80.869555,17.462 80.869555,19.594 C80.869555,19.711 80.869555,19.828 80.856555,19.945 L75.747555,19.945 C75.773555,21.154 76.644555,21.934 77.853555,21.934 C78.880555,21.934 79.465555,21.362 79.725555,20.985 L80.661555,21.687 C80.336555,22.246 79.439555,23.169 77.827555,23.169 C75.708555,23.169 74.304555,21.687 74.304555,19.633 Z M75.799555,18.97 L79.426555,18.97 C79.374555,17.852 78.594555,17.228 77.619555,17.228 C76.644555,17.228 75.890555,17.904 75.799555,18.97 Z M81.9861105,16.214 L81.9861105,14.797 L83.3901105,14.797 L83.3901105,16.214 L84.7681105,16.214 L84.7681105,17.384 L83.3901105,17.384 L83.3901105,20.543 C83.3901105,21.596 83.7931105,21.83 84.5471105,21.83 C84.6641105,21.83 84.8201105,21.817 84.8201105,21.817 L84.8201105,23.039 C84.8201105,23.039 84.5731105,23.091 84.1311105,23.091 C82.4801105,23.091 81.9861105,21.986 81.9861105,20.322 L81.9861105,17.384 L81.2321105,17.384 L81.2321105,16.214 L81.9861105,16.214 Z" id="Assign-Asset" fill="#212B35"></path>
                                            </g>
                                            <g id="Group-19" transform="translate(251.000000, 6.000000)">
                                                <circle id="Oval-3" fill="#212B35" cx="11.5" cy="11.5" r="11.5"></circle>
                                                <path d="M11.4999974,7 C10.9152095,7 10.4411744,7.47406149 10.4411744,8.05882291 L10.4411744,10.4411744 L8.05882291,10.4411744 C7.47406149,10.4411744 7,10.9152148 7,11.5000026 C7,12.0847905 7.47406149,12.5588256 8.05882291,12.5588256 L10.4411744,12.5588256 L10.4411744,14.9411771 C10.4411744,15.5259385 10.9152095,16 11.4999974,16 C12.0847852,16 12.5588203,15.5259385 12.5588203,14.9411771 L12.5588203,12.5588256 L14.9411718,12.5588256 C15.5259332,12.5588256 15.9999947,12.0847905 15.9999947,11.5000026 C15.9999947,10.9152148 15.5259332,10.4411744 14.9411718,10.4411744 L12.5588203,10.4411744 L12.5588203,8.05882291 C12.5588203,7.47406149 12.0847852,7 11.4999974,7 Z" id="Shape-Copy-3" fill="#F6F8F7" fill-rule="nonzero"></path>
                                            </g>
                                        </g>
                                    </g>
                                    <g id="Asset-Additional-Workers" stroke-width="1" fill="none" transform="translate(1.000000, 208.000000)">
                                        <g id="Group-5-Copy">
                                            <g id="Rectangle-7">
                                                <use fill="black" fill-opacity="1" filter="url(#filter-17)" xlink:href="#path-16"></use>
                                                <use fill="#FFFFFF" fill-rule="evenodd" xlink:href="#path-16"></use>
                                            </g>
                                            <path d="M20.863,20.348 L17.535,20.348 L16.586,23 L15.13,23 L18.445,13.9 L19.94,13.9 L23.255,23 L21.799,23 L20.863,20.348 Z M20.46,19.139 L19.199,15.46 L17.938,19.139 L20.46,19.139 Z M23.5655555,21.817 L24.4495555,21.115 C24.7615555,21.57 25.2295555,21.999 26.0745555,21.999 C26.6725555,21.999 27.1145555,21.7 27.1145555,21.154 C27.1145555,19.854 23.8125555,20.322 23.8125555,17.969 C23.8125555,16.773 24.8265555,16.045 26.1395555,16.045 C27.4135555,16.045 28.0895555,16.786 28.3495555,17.306 L27.3745555,17.956 C27.1795555,17.644 26.8155555,17.202 26.0615555,17.202 C25.5415555,17.202 25.1515555,17.475 25.1515555,17.943 C25.1515555,19.243 28.4665555,18.697 28.4665555,21.089 C28.4665555,22.35 27.4005555,23.169 26.0095555,23.169 C24.6315555,23.169 23.9035555,22.428 23.5655555,21.817 Z M28.959111,21.817 L29.843111,21.115 C30.155111,21.57 30.623111,21.999 31.468111,21.999 C32.066111,21.999 32.508111,21.7 32.508111,21.154 C32.508111,19.854 29.206111,20.322 29.206111,17.969 C29.206111,16.773 30.220111,16.045 31.533111,16.045 C32.807111,16.045 33.483111,16.786 33.743111,17.306 L32.768111,17.956 C32.573111,17.644 32.209111,17.202 31.455111,17.202 C30.935111,17.202 30.545111,17.475 30.545111,17.943 C30.545111,19.243 33.860111,18.697 33.860111,21.089 C33.860111,22.35 32.794111,23.169 31.403111,23.169 C30.025111,23.169 29.297111,22.428 28.959111,21.817 Z M34.8336665,23 L34.8336665,16.214 L36.2506665,16.214 L36.2506665,23 L34.8336665,23 Z M34.6516665,14.537 C34.6516665,14.043 35.0416665,13.653 35.5356665,13.653 C36.0296665,13.653 36.4196665,14.043 36.4196665,14.537 C36.4196665,15.031 36.0296665,15.421 35.5356665,15.421 C35.0416665,15.421 34.6516665,15.031 34.6516665,14.537 Z M38.121222,24.846 L38.576222,23.754 C38.823222,23.897 39.616222,24.274 40.565222,24.274 C41.696222,24.274 42.697222,23.858 42.697222,22.571 L42.697222,22.116 C42.541222,22.337 41.865222,23.169 40.526222,23.169 C38.576222,23.169 37.276222,21.7 37.276222,19.62 C37.276222,17.527 38.628222,16.045 40.552222,16.045 C41.826222,16.045 42.554222,16.812 42.762222,17.124 L42.762222,16.214 L44.101222,16.214 L44.101222,22.103 C44.101222,24.651 42.554222,25.496 40.578222,25.496 C39.668222,25.496 38.719222,25.197 38.121222,24.846 Z M42.736222,19.607 C42.736222,18.216 41.878222,17.306 40.708222,17.306 C39.538222,17.306 38.693222,18.242 38.693222,19.607 C38.693222,20.998 39.564222,21.908 40.721222,21.908 C41.943222,21.908 42.736222,20.946 42.736222,19.607 Z M48.7927775,16.045 C50.5477775,16.045 51.1587775,17.436 51.1587775,18.918 L51.1587775,23 L49.7547775,23 L49.7547775,18.801 C49.7547775,17.865 49.1697775,17.319 48.3897775,17.319 C47.4927775,17.319 46.9077775,17.982 46.9077775,18.905 L46.9077775,23 L45.4907775,23 L45.4907775,16.214 L46.8817775,16.214 L46.8817775,17.098 C47.1807775,16.565 47.8827775,16.045 48.7927775,16.045 Z M60.7368885,20.348 L57.4088885,20.348 L56.4598885,23 L55.0038885,23 L58.3188885,13.9 L59.8138885,13.9 L63.1288885,23 L61.6728885,23 L60.7368885,20.348 Z M60.3338885,19.139 L59.0728885,15.46 L57.8118885,19.139 L60.3338885,19.139 Z M70.342444,13.601 L70.342444,23 L69.003444,23 L69.003444,22.116 C68.821444,22.35 68.132444,23.169 66.819444,23.169 C64.882444,23.169 63.504444,21.7 63.504444,19.62 C63.504444,17.527 64.791444,16.045 66.728444,16.045 C68.015444,16.045 68.743444,16.825 68.925444,17.124 L68.925444,13.601 L70.342444,13.601 Z M68.977444,19.633 C68.977444,18.151 68.080444,17.306 66.949444,17.306 C65.766444,17.306 64.934444,18.268 64.934444,19.633 C64.934444,21.024 65.805444,21.921 66.962444,21.921 C68.210444,21.921 68.977444,20.881 68.977444,19.633 Z M78.2059995,13.601 L78.2059995,23 L76.8669995,23 L76.8669995,22.116 C76.6849995,22.35 75.9959995,23.169 74.6829995,23.169 C72.7459995,23.169 71.3679995,21.7 71.3679995,19.62 C71.3679995,17.527 72.6549995,16.045 74.5919995,16.045 C75.8789995,16.045 76.6069995,16.825 76.7889995,17.124 L76.7889995,13.601 L78.2059995,13.601 Z M76.8409995,19.633 C76.8409995,18.151 75.9439995,17.306 74.8129995,17.306 C73.6299995,17.306 72.7979995,18.268 72.7979995,19.633 C72.7979995,21.024 73.6689995,21.921 74.8259995,21.921 C76.0739995,21.921 76.8409995,20.881 76.8409995,19.633 Z M79.647555,23 L79.647555,16.214 L81.064555,16.214 L81.064555,23 L79.647555,23 Z M79.465555,14.537 C79.465555,14.043 79.855555,13.653 80.349555,13.653 C80.843555,13.653 81.233555,14.043 81.233555,14.537 C81.233555,15.031 80.843555,15.421 80.349555,15.421 C79.855555,15.421 79.465555,15.031 79.465555,14.537 Z M82.6231105,16.214 L82.6231105,14.797 L84.0271105,14.797 L84.0271105,16.214 L85.4051105,16.214 L85.4051105,17.384 L84.0271105,17.384 L84.0271105,20.543 C84.0271105,21.596 84.4301105,21.83 85.1841105,21.83 C85.3011105,21.83 85.4571105,21.817 85.4571105,21.817 L85.4571105,23.039 C85.4571105,23.039 85.2101105,23.091 84.7681105,23.091 C83.1171105,23.091 82.6231105,21.986 82.6231105,20.322 L82.6231105,17.384 L81.8691105,17.384 L81.8691105,16.214 L82.6231105,16.214 Z M86.443666,23 L86.443666,16.214 L87.860666,16.214 L87.860666,23 L86.443666,23 Z M86.261666,14.537 C86.261666,14.043 86.651666,13.653 87.145666,13.653 C87.639666,13.653 88.029666,14.043 88.029666,14.537 C88.029666,15.031 87.639666,15.421 87.145666,15.421 C86.651666,15.421 86.261666,15.031 86.261666,14.537 Z M90.3162215,19.62 C90.3162215,20.959 91.2132215,21.908 92.4742215,21.908 C93.7352215,21.908 94.6582215,20.933 94.6582215,19.607 C94.6582215,18.281 93.7352215,17.306 92.4742215,17.306 C91.2002215,17.306 90.3162215,18.294 90.3162215,19.62 Z M88.8862215,19.62 C88.8862215,17.566 90.4332215,16.045 92.4742215,16.045 C94.5672215,16.045 96.0752215,17.566 96.0752215,19.607 C96.0752215,21.648 94.5412215,23.169 92.4742215,23.169 C90.3942215,23.169 88.8862215,21.674 88.8862215,19.62 Z M100.402777,16.045 C102.157777,16.045 102.768777,17.436 102.768777,18.918 L102.768777,23 L101.364777,23 L101.364777,18.801 C101.364777,17.865 100.779777,17.319 99.999777,17.319 C99.102777,17.319 98.517777,17.982 98.517777,18.905 L98.517777,23 L97.100777,23 L97.100777,16.214 L98.491777,16.214 L98.491777,17.098 C98.790777,16.565 99.492777,16.045 100.402777,16.045 Z M103.742333,20.907 C103.742333,19.594 104.808333,18.671 106.368333,18.671 C107.148333,18.671 107.733333,18.931 107.993333,19.165 L107.993333,18.528 C107.993333,17.748 107.447333,17.28 106.550333,17.28 C105.796333,17.28 105.146333,17.54 104.652333,17.813 L104.106333,16.825 C104.652333,16.474 105.562333,16.045 106.693333,16.045 C108.708333,16.045 109.397333,17.137 109.397333,18.619 L109.397333,23 L108.162333,23 L108.045333,22.493 C107.694333,22.883 107.148333,23.169 106.303333,23.169 C104.873333,23.169 103.742333,22.272 103.742333,20.907 Z M105.159333,20.868 C105.159333,21.544 105.744333,22.038 106.602333,22.038 C107.434333,22.038 108.032333,21.57 108.032333,20.868 C108.032333,20.153 107.447333,19.698 106.589333,19.698 C105.731333,19.698 105.159333,20.192 105.159333,20.868 Z M110.747888,23 L110.747888,13.601 L112.164888,13.601 L112.164888,23 L110.747888,23 Z M124.134999,23 L122.171999,16.058 L120.208999,23 L118.583999,23 L116.061999,13.9 L117.608999,13.9 L119.467999,21.206 L121.482999,13.9 L122.847999,13.9 L124.875999,21.206 L126.734999,13.9 L128.268999,13.9 L125.759999,23 L124.134999,23 Z M129.879555,19.62 C129.879555,20.959 130.776555,21.908 132.037554,21.908 C133.298554,21.908 134.221554,20.933 134.221554,19.607 C134.221554,18.281 133.298554,17.306 132.037554,17.306 C130.763554,17.306 129.879555,18.294 129.879555,19.62 Z M128.449555,19.62 C128.449555,17.566 129.996555,16.045 132.037554,16.045 C134.130554,16.045 135.638554,17.566 135.638554,19.607 C135.638554,21.648 134.104554,23.169 132.037554,23.169 C129.957554,23.169 128.449555,21.674 128.449555,19.62 Z M139.99211,16.045 L139.99211,17.475 C138.51011,17.475 138.08111,18.606 138.08111,20.075 L138.08111,23 L136.66411,23 L136.66411,16.214 L138.05511,16.214 L138.05511,17.28 C138.31511,16.604 139.03011,16.045 139.99211,16.045 Z M140.900666,23 L140.900666,13.601 L142.317666,13.601 L142.317666,19.113 L144.826666,16.214 L146.438666,16.214 L143.721666,19.282 L146.620666,23 L144.943666,23 L142.317666,19.438 L142.317666,23 L140.900666,23 Z M146.918221,19.633 C146.918221,17.527 148.361221,16.045 150.220221,16.045 C152.274221,16.045 153.483221,17.462 153.483221,19.594 C153.483221,19.711 153.483221,19.828 153.470221,19.945 L148.361221,19.945 C148.387221,21.154 149.258221,21.934 150.467221,21.934 C151.494221,21.934 152.079221,21.362 152.339221,20.985 L153.275221,21.687 C152.950221,22.246 152.053221,23.169 150.441221,23.169 C148.322221,23.169 146.918221,21.687 146.918221,19.633 Z M148.413221,18.97 L152.040221,18.97 C151.988221,17.852 151.208221,17.228 150.233221,17.228 C149.258221,17.228 148.504221,17.904 148.413221,18.97 Z M157.810777,16.045 L157.810777,17.475 C156.328777,17.475 155.899777,18.606 155.899777,20.075 L155.899777,23 L154.482777,23 L154.482777,16.214 L155.873777,16.214 L155.873777,17.28 C156.133777,16.604 156.848777,16.045 157.810777,16.045 Z M158.238332,21.817 L159.122332,21.115 C159.434332,21.57 159.902332,21.999 160.747332,21.999 C161.345332,21.999 161.787332,21.7 161.787332,21.154 C161.787332,19.854 158.485332,20.322 158.485332,17.969 C158.485332,16.773 159.499332,16.045 160.812332,16.045 C162.086332,16.045 162.762332,16.786 163.022332,17.306 L162.047332,17.956 C161.852332,17.644 161.488332,17.202 160.734332,17.202 C160.214332,17.202 159.824332,17.475 159.824332,17.943 C159.824332,19.243 163.139332,18.697 163.139332,21.089 C163.139332,22.35 162.073332,23.169 160.682332,23.169 C159.304332,23.169 158.576332,22.428 158.238332,21.817 Z" id="Assign-Additional-Wo" fill="#212B35"></path>
                                        </g>
                                        <g id="Group-19" transform="translate(251.000000, 6.000000)">
                                            <circle id="Oval-3" fill="#212B35" cx="11.5" cy="11.5" r="11.5"></circle>
                                            <path d="M11.4999974,7 C10.9152095,7 10.4411744,7.47406149 10.4411744,8.05882291 L10.4411744,10.4411744 L8.05882291,10.4411744 C7.47406149,10.4411744 7,10.9152148 7,11.5000026 C7,12.0847905 7.47406149,12.5588256 8.05882291,12.5588256 L10.4411744,12.5588256 L10.4411744,14.9411771 C10.4411744,15.5259385 10.9152095,16 11.4999974,16 C12.0847852,16 12.5588203,15.5259385 12.5588203,14.9411771 L12.5588203,12.5588256 L14.9411718,12.5588256 C15.5259332,12.5588256 15.9999947,12.0847905 15.9999947,11.5000026 C15.9999947,10.9152148 15.5259332,10.4411744 14.9411718,10.4411744 L12.5588203,10.4411744 L12.5588203,8.05882291 C12.5588203,7.47406149 12.0847852,7 11.4999974,7 Z" id="Shape-Copy-3" fill="#F6F8F7" fill-rule="nonzero"></path>
                                        </g>
                                    </g>
                                    <g id="Priority" stroke-width="1" fill="none" transform="translate(4.000000, 122.000000)">
                                        <g id="Group-13" transform="translate(107.000000, 0.000000)">
                                            <rect id="Rectangle-8" fill="#212B35" x="0" y="0" width="40" height="23" rx="4"></rect>
                                            <path d="M12.577,15 L9.255,9.786 L9.255,15 L7.726,15 L7.726,7.3 L9.299,7.3 L12.588,12.558 L12.588,7.3 L14.117,7.3 L14.117,15 L12.577,15 Z M14.9957777,12.14 C14.9957777,10.391 16.3377777,9.104 18.0867777,9.104 C19.8467777,9.104 21.1887777,10.402 21.1887777,12.14 C21.1887777,13.878 19.8907777,15.143 18.0867777,15.143 C16.2937777,15.143 14.9957777,13.878 14.9957777,12.14 Z M16.5137777,12.14 C16.5137777,13.119 17.1847777,13.801 18.0867777,13.801 C18.9997777,13.801 19.6707777,13.119 19.6707777,12.14 C19.6707777,11.161 18.9997777,10.446 18.0867777,10.446 C17.1737777,10.446 16.5137777,11.15 16.5137777,12.14 Z M24.9605554,9.104 C26.5995554,9.104 26.9515554,10.457 26.9515554,11.678 L26.9515554,15 L25.4335554,15 L25.4335554,11.502 C25.4335554,10.864 24.9935554,10.468 24.4765554,10.468 C23.8495554,10.468 23.4535554,10.93 23.4535554,11.546 L23.4535554,15 L21.9355554,15 L21.9355554,9.247 L23.4205554,9.247 L23.4205554,9.918 C23.6625554,9.522 24.2125554,9.104 24.9605554,9.104 Z M27.6653331,12.14 C27.6653331,10.402 28.8423331,9.104 30.4813331,9.104 C32.2633331,9.104 33.2753331,10.292 33.2753331,12.173 C33.2753331,12.283 33.2753331,12.393 33.2643331,12.503 L29.2163331,12.503 C29.2493331,13.273 29.8653331,13.823 30.7123331,13.823 C31.4933331,13.823 31.9443331,13.361 32.1093331,13.119 L33.1103331,13.878 C32.8903331,14.285 32.1203331,15.143 30.6903331,15.143 C28.8423331,15.143 27.6653331,13.867 27.6653331,12.14 Z M29.2603331,11.513 L31.7353331,11.513 C31.7023331,10.809 31.1963331,10.347 30.5033331,10.347 C29.7883331,10.347 29.3263331,10.853 29.2603331,11.513 Z" id="None" fill="#FFFFFF"></path>
                                        </g>
                                        <g id="Group-16" transform="translate(152.000000, 0.000000)">
                                            <rect id="Rectangle-8-Copy" stroke="#212B35" fill="#FFFFFF" x="0.5" y="0.5" width="39" height="22" rx="4"></rect>
                                            <path d="M10.737,15 L10.737,7.3 L12.288,7.3 L12.288,13.603 L14.796,13.603 L14.796,15 L10.737,15 Z M15.1577777,12.14 C15.1577777,10.391 16.4997777,9.104 18.2487777,9.104 C20.0087777,9.104 21.3507777,10.402 21.3507777,12.14 C21.3507777,13.878 20.0527777,15.143 18.2487777,15.143 C16.4557777,15.143 15.1577777,13.878 15.1577777,12.14 Z M16.6757777,12.14 C16.6757777,13.119 17.3467777,13.801 18.2487777,13.801 C19.1617777,13.801 19.8327777,13.119 19.8327777,12.14 C19.8327777,11.161 19.1617777,10.446 18.2487777,10.446 C17.3357777,10.446 16.6757777,11.15 16.6757777,12.14 Z M27.1135554,15 L26.0575554,11.315 L24.9905554,15 L23.2965554,15 L21.5805554,9.247 L23.2305554,9.247 L24.2425554,13.328 L25.3425554,9.247 L26.7725554,9.247 L27.8615554,13.328 L28.8845554,9.247 L30.5345554,9.247 L28.8075554,15 L27.1135554,15 Z" id="Low" fill="#212B35"></path>
                                        </g>
                                        <path d="M0.949,17 L0.949,7.9 L3.588,7.9 C5.304,7.9 6.5,8.992 6.5,10.63 C6.5,12.242 5.252,13.399 3.601,13.399 L2.392,13.399 L2.392,17 L0.949,17 Z M2.392,12.138 L3.419,12.138 C4.368,12.138 5.018,11.54 5.018,10.63 C5.018,9.733 4.368,9.161 3.432,9.161 L2.392,9.161 L2.392,12.138 Z M10.8015555,10.045 L10.8015555,11.475 C9.3195555,11.475 8.8905555,12.606 8.8905555,14.075 L8.8905555,17 L7.4735555,17 L7.4735555,10.214 L8.8645555,10.214 L8.8645555,11.28 C9.1245555,10.604 9.8395555,10.045 10.8015555,10.045 Z M11.710111,17 L11.710111,10.214 L13.127111,10.214 L13.127111,17 L11.710111,17 Z M11.528111,8.537 C11.528111,8.043 11.918111,7.653 12.412111,7.653 C12.906111,7.653 13.296111,8.043 13.296111,8.537 C13.296111,9.031 12.906111,9.421 12.412111,9.421 C11.918111,9.421 11.528111,9.031 11.528111,8.537 Z M15.5826665,13.62 C15.5826665,14.959 16.4796665,15.908 17.7406665,15.908 C19.0016665,15.908 19.9246665,14.933 19.9246665,13.607 C19.9246665,12.281 19.0016665,11.306 17.7406665,11.306 C16.4666665,11.306 15.5826665,12.294 15.5826665,13.62 Z M14.1526665,13.62 C14.1526665,11.566 15.6996665,10.045 17.7406665,10.045 C19.8336665,10.045 21.3416665,11.566 21.3416665,13.607 C21.3416665,15.648 19.8076665,17.169 17.7406665,17.169 C15.6606665,17.169 14.1526665,15.674 14.1526665,13.62 Z M25.695222,10.045 L25.695222,11.475 C24.213222,11.475 23.784222,12.606 23.784222,14.075 L23.784222,17 L22.367222,17 L22.367222,10.214 L23.758222,10.214 L23.758222,11.28 C24.018222,10.604 24.733222,10.045 25.695222,10.045 Z M26.6037775,17 L26.6037775,10.214 L28.0207775,10.214 L28.0207775,17 L26.6037775,17 Z M26.4217775,8.537 C26.4217775,8.043 26.8117775,7.653 27.3057775,7.653 C27.7997775,7.653 28.1897775,8.043 28.1897775,8.537 C28.1897775,9.031 27.7997775,9.421 27.3057775,9.421 C26.8117775,9.421 26.4217775,9.031 26.4217775,8.537 Z M29.579333,10.214 L29.579333,8.797 L30.983333,8.797 L30.983333,10.214 L32.361333,10.214 L32.361333,11.384 L30.983333,11.384 L30.983333,14.543 C30.983333,15.596 31.386333,15.83 32.140333,15.83 C32.257333,15.83 32.413333,15.817 32.413333,15.817 L32.413333,17.039 C32.413333,17.039 32.166333,17.091 31.724333,17.091 C30.073333,17.091 29.579333,15.986 29.579333,14.322 L29.579333,11.384 L28.825333,11.384 L28.825333,10.214 L29.579333,10.214 Z M36.1688885,19.327 L34.8038885,19.327 L35.7658885,16.883 L33.0748885,10.214 L34.5958885,10.214 L36.4288885,15.154 L38.2358885,10.214 L39.7178885,10.214 L36.1688885,19.327 Z" fill="#212B35"></path>
                                        <g id="Group-15" transform="translate(197.000000, 0.000000)">
                                            <rect id="Rectangle-8-Copy-2" stroke="#3F4B57" fill="#FFFFFF" x="0.5" y="0.5" width="39" height="22" rx="4"></rect>
                                            <path d="M11.728,7.3 L13.928,12.547 L16.139,7.3 L18.141,7.3 L18.141,15 L16.656,15 L16.656,9.5 L14.654,14.351 L13.213,14.351 L11.211,9.5 L11.211,15 L9.726,15 L9.726,7.3 L11.728,7.3 Z M19.0307777,12.14 C19.0307777,10.402 20.2077777,9.104 21.8467777,9.104 C23.6287777,9.104 24.6407777,10.292 24.6407777,12.173 C24.6407777,12.283 24.6407777,12.393 24.6297777,12.503 L20.5817777,12.503 C20.6147777,13.273 21.2307777,13.823 22.0777777,13.823 C22.8587777,13.823 23.3097777,13.361 23.4747777,13.119 L24.4757777,13.878 C24.2557777,14.285 23.4857777,15.143 22.0557777,15.143 C20.2077777,15.143 19.0307777,13.867 19.0307777,12.14 Z M20.6257777,11.513 L23.1007777,11.513 C23.0677777,10.809 22.5617777,10.347 21.8687777,10.347 C21.1537777,10.347 20.6917777,10.853 20.6257777,11.513 Z M30.9975554,7.047 L30.9975554,15 L29.5675554,15 L29.5675554,14.406 C29.4135554,14.593 28.8415554,15.143 27.8625554,15.143 C26.2125554,15.143 25.0465554,13.9 25.0465554,12.129 C25.0465554,10.347 26.1245554,9.104 27.7745554,9.104 C28.7645554,9.104 29.3365554,9.654 29.4795554,9.852 L29.4795554,7.047 L30.9975554,7.047 Z M29.5235554,12.14 C29.5235554,11.062 28.8855554,10.446 28.0495554,10.446 C27.1695554,10.446 26.5755554,11.139 26.5755554,12.14 C26.5755554,13.163 27.1915554,13.801 28.0495554,13.801 C28.9735554,13.801 29.5235554,13.053 29.5235554,12.14 Z" id="Med" fill="#212B35"></path>
                                        </g>
                                        <g id="Group-14" transform="translate(242.000000, 0.000000)">
                                            <rect id="Rectangle-8-Copy-3" stroke="#212B35" fill="#FFFFFF" x="0.5" y="0.5" width="39" height="22" rx="4"></rect>
                                            <path d="M9.737,15 L9.737,7.3 L11.288,7.3 L11.288,10.424 L14.489,10.424 L14.489,7.3 L16.04,7.3 L16.04,15 L14.489,15 L14.489,11.821 L11.288,11.821 L11.288,15 L9.737,15 Z M17.2487777,15 L17.2487777,9.247 L18.7667777,9.247 L18.7667777,15 L17.2487777,15 Z M17.1167777,7.861 C17.1167777,7.366 17.5017777,6.992 17.9967777,6.992 C18.5027777,6.992 18.8877777,7.366 18.8877777,7.861 C18.8877777,8.356 18.5027777,8.73 17.9967777,8.73 C17.5017777,8.73 17.1167777,8.356 17.1167777,7.861 Z M20.2615554,16.584 L20.7235554,15.418 C20.9105554,15.517 21.5705554,15.814 22.3625554,15.814 C23.1875554,15.814 23.9465554,15.561 23.9465554,14.67 L23.9465554,14.406 C23.8255554,14.571 23.2645554,15.143 22.2635554,15.143 C20.6025554,15.143 19.5135554,13.9 19.5135554,12.129 C19.5135554,10.358 20.6795554,9.104 22.3185554,9.104 C23.2865554,9.104 23.8695554,9.632 24.0345554,9.852 L24.0345554,9.247 L25.4645554,9.247 L25.4645554,14.274 C25.4645554,16.419 24.0675554,17.112 22.3735554,17.112 C21.5815554,17.112 20.7785554,16.87 20.2615554,16.584 Z M23.9905554,12.118 C23.9905554,11.139 23.3965554,10.446 22.5055554,10.446 C21.6475554,10.446 21.0425554,11.106 21.0425554,12.118 C21.0425554,13.13 21.6585554,13.801 22.5165554,13.801 C23.3965554,13.801 23.9905554,13.141 23.9905554,12.118 Z M29.5223331,9.104 C31.1723331,9.104 31.5133331,10.457 31.5133331,11.678 L31.5133331,15 L30.0063331,15 L30.0063331,11.502 C30.0063331,10.864 29.5663331,10.468 29.0493331,10.468 C28.4113331,10.468 28.0043331,10.93 28.0043331,11.546 L28.0043331,15 L26.4863331,15 L26.4863331,7.047 L28.0043331,7.047 L28.0043331,9.918 C28.2463331,9.522 28.7743331,9.104 29.5223331,9.104 Z" id="High" fill="#212B35"></path>
                                        </g>
                                    </g>
                                    <g id="Task-Description" stroke-width="1" fill="none" transform="translate(0.000000, 72.000000)">
                                        <g id="Rectangle-7-Copy">
                                            <use fill="black" fill-opacity="1" filter="url(#filter-19)" xlink:href="#path-18"></use>
                                            <use fill="#FFFFFF" fill-rule="evenodd" xlink:href="#path-18"></use>
                                        </g>
                                        <path d="M17.73,23 L17.73,14.862 L15.273,14.862 L15.273,13.9 L21.227,13.9 L21.227,14.862 L18.783,14.862 L18.783,23 L17.73,23 Z M21.5505555,20.92 C21.5505555,19.633 22.6295555,18.697 24.1505555,18.697 C25.0085555,18.697 25.6585555,19.022 25.9315555,19.308 L25.9315555,18.476 C25.9315555,17.527 25.2945555,16.981 24.2935555,16.981 C23.4615555,16.981 22.7855555,17.28 22.3045555,17.566 L21.8885555,16.812 C22.3435555,16.526 23.2405555,16.071 24.3845555,16.071 C26.2305555,16.071 26.9585555,17.098 26.9585555,18.541 L26.9585555,23 L26.0745555,23 L25.9575555,22.428 C25.6065555,22.831 25.0345555,23.169 24.1245555,23.169 C22.6425555,23.169 21.5505555,22.233 21.5505555,20.92 Z M22.5905555,20.907 C22.5905555,21.687 23.2535555,22.311 24.2935555,22.311 C25.2815555,22.311 25.9705555,21.726 25.9705555,20.907 C25.9705555,20.062 25.2945555,19.516 24.2805555,19.516 C23.2535555,19.516 22.5905555,20.114 22.5905555,20.907 Z M27.971111,21.726 L28.686111,21.258 C28.972111,21.791 29.453111,22.298 30.376111,22.298 C31.052111,22.298 31.624111,21.908 31.624111,21.219 C31.624111,19.659 28.231111,20.192 28.231111,17.904 C28.231111,16.76 29.180111,16.071 30.402111,16.071 C31.663111,16.071 32.313111,16.864 32.495111,17.371 L31.741111,17.8 C31.559111,17.436 31.208111,16.929 30.337111,16.929 C29.713111,16.929 29.219111,17.28 29.219111,17.865 C29.219111,19.386 32.625111,18.814 32.625111,21.167 C32.625111,22.363 31.637111,23.169 30.324111,23.169 C28.907111,23.169 28.270111,22.363 27.971111,21.726 Z M33.7546665,23 L33.7546665,13.601 L34.7816665,13.601 L34.7816665,19.139 L37.5376665,16.24 L38.8376665,16.24 L35.9256665,19.269 L39.0066665,23 L37.6806665,23 L34.7816665,19.399 L34.7816665,23 L33.7546665,23 Z M43.1247775,23 L43.1247775,13.9 L44.9967775,13.9 C48.1037775,13.9 49.8717775,15.603 49.8717775,18.45 C49.8717775,21.466 48.0387775,23 44.9967775,23 L43.1247775,23 Z M44.1777775,22.064 L45.2047775,22.064 C47.3887775,22.064 48.7927775,20.829 48.7927775,18.45 C48.7927775,16.175 47.3887775,14.849 45.2047775,14.849 L44.1777775,14.849 L44.1777775,22.064 Z M50.676333,19.646 C50.676333,17.488 52.158333,16.071 53.952333,16.071 C55.941333,16.071 57.163333,17.501 57.163333,19.529 C57.163333,19.568 57.163333,19.711 57.150333,19.841 L51.729333,19.841 C51.742333,21.349 52.756333,22.259 54.160333,22.259 C55.304333,22.259 55.941333,21.661 56.266333,21.206 L56.942333,21.7 C56.565333,22.337 55.681333,23.169 54.147333,23.169 C52.093333,23.169 50.676333,21.726 50.676333,19.646 Z M51.781333,19.074 L56.110333,19.074 C56.045333,17.67 55.070333,16.955 53.952333,16.955 C52.847333,16.955 51.859333,17.8 51.781333,19.074 Z M57.8118885,21.726 L58.5268885,21.258 C58.8128885,21.791 59.2938885,22.298 60.2168885,22.298 C60.8928885,22.298 61.4648885,21.908 61.4648885,21.219 C61.4648885,19.659 58.0718885,20.192 58.0718885,17.904 C58.0718885,16.76 59.0208885,16.071 60.2428885,16.071 C61.5038885,16.071 62.1538885,16.864 62.3358885,17.371 L61.5818885,17.8 C61.3998885,17.436 61.0488885,16.929 60.1778885,16.929 C59.5538885,16.929 59.0598885,17.28 59.0598885,17.865 C59.0598885,19.386 62.4658885,18.814 62.4658885,21.167 C62.4658885,22.363 61.4778885,23.169 60.1648885,23.169 C58.7478885,23.169 58.1108885,22.363 57.8118885,21.726 Z M68.977444,16.994 L68.626444,17.878 C68.353444,17.592 67.651444,17.02 66.624444,17.02 C65.207444,17.02 64.206444,18.151 64.206444,19.62 C64.206444,21.076 65.259444,22.233 66.650444,22.233 C67.716444,22.233 68.392444,21.609 68.665444,21.336 L68.977444,22.207 C68.704444,22.493 67.872444,23.169 66.611444,23.169 C64.596444,23.169 63.140444,21.622 63.140444,19.62 C63.140444,17.618 64.635444,16.071 66.598444,16.071 C67.833444,16.071 68.626444,16.656 68.977444,16.994 Z M73.1359995,16.071 L73.1359995,17.098 C71.5889995,17.098 71.1339995,18.32 71.1339995,19.763 L71.1339995,23 L70.1069995,23 L70.1069995,16.24 L71.1209995,16.24 L71.1209995,17.371 C71.3549995,16.695 72.1089995,16.071 73.1359995,16.071 Z M74.135555,23 L74.135555,16.24 L75.162555,16.24 L75.162555,23 L74.135555,23 Z M73.940555,14.498 C73.940555,14.108 74.252555,13.796 74.642555,13.796 C75.045555,13.796 75.357555,14.108 75.357555,14.498 C75.357555,14.901 75.045555,15.213 74.642555,15.213 C74.252555,15.213 73.940555,14.901 73.940555,14.498 Z M76.7861105,25.431 L76.7861105,16.24 L77.7741105,16.24 L77.7741105,17.306 C77.9431105,17.059 78.6581105,16.071 80.1271105,16.071 C82.0511105,16.071 83.4291105,17.54 83.4291105,19.607 C83.4291105,21.7 82.1161105,23.169 80.2051105,23.169 C78.7881105,23.169 78.0211105,22.259 77.8131105,21.908 L77.8131105,25.431 L76.7861105,25.431 Z M77.7741105,19.607 C77.7741105,21.271 78.8141105,22.233 80.0881105,22.233 C81.4141105,22.233 82.3761105,21.154 82.3761105,19.607 C82.3761105,18.021 81.3621105,17.007 80.0621105,17.007 C78.6581105,17.007 77.7741105,18.19 77.7741105,19.607 Z M84.688666,16.24 L84.688666,14.823 L85.715666,14.823 L85.715666,16.24 L87.197666,16.24 L87.197666,17.111 L85.715666,17.111 L85.715666,20.595 C85.715666,21.856 86.079666,22.155 86.963666,22.155 C87.093666,22.155 87.249666,22.142 87.249666,22.142 L87.249666,23.052 C87.249666,23.052 86.976666,23.091 86.625666,23.091 C85.273666,23.091 84.688666,22.207 84.688666,20.686 L84.688666,17.111 L83.895666,17.111 L83.895666,16.24 L84.688666,16.24 Z M88.3012215,23 L88.3012215,16.24 L89.3282215,16.24 L89.3282215,23 L88.3012215,23 Z M88.1062215,14.498 C88.1062215,14.108 88.4182215,13.796 88.8082215,13.796 C89.2112215,13.796 89.5232215,14.108 89.5232215,14.498 C89.5232215,14.901 89.2112215,15.213 88.8082215,15.213 C88.4182215,15.213 88.1062215,14.901 88.1062215,14.498 Z M91.549777,19.62 C91.549777,21.141 92.576777,22.233 94.019777,22.233 C95.475777,22.233 96.515777,21.128 96.515777,19.62 C96.515777,18.125 95.475777,17.007 94.019777,17.007 C92.563777,17.007 91.549777,18.138 91.549777,19.62 Z M90.496777,19.62 C90.496777,17.579 92.017777,16.071 94.032777,16.071 C96.073777,16.071 97.555777,17.592 97.555777,19.62 C97.555777,21.648 96.047777,23.169 94.019777,23.169 C91.991777,23.169 90.496777,21.674 90.496777,19.62 Z M101.753332,16.071 C103.326333,16.071 104.132333,17.241 104.132333,18.775 L104.132333,23 L103.105333,23 L103.105333,18.736 C103.105333,17.657 102.429333,17.007 101.506332,17.007 C100.466333,17.007 99.7513325,17.774 99.7513325,18.892 L99.7513325,23 L98.7243325,23 L98.7243325,16.24 L99.7383325,16.24 L99.7383325,17.215 C100.063333,16.604 100.817333,16.071 101.753332,16.071 Z" fill-opacity="0.3" fill="#212B35"></path>
                                    </g>
                                    <g id="Task-Title" stroke-width="1" fill="none" transform="translate(0.000000, 29.000000)">
                                        <g id="Rectangle-7">
                                            <use fill="black" fill-opacity="1" filter="url(#filter-21)" xlink:href="#path-20"></use>
                                            <use fill="#FFFFFF" fill-rule="evenodd" xlink:href="#path-20"></use>
                                        </g>
                                        <path d="M17.73,23 L17.73,14.862 L15.273,14.862 L15.273,13.9 L21.227,13.9 L21.227,14.862 L18.783,14.862 L18.783,23 L17.73,23 Z M21.5505555,20.92 C21.5505555,19.633 22.6295555,18.697 24.1505555,18.697 C25.0085555,18.697 25.6585555,19.022 25.9315555,19.308 L25.9315555,18.476 C25.9315555,17.527 25.2945555,16.981 24.2935555,16.981 C23.4615555,16.981 22.7855555,17.28 22.3045555,17.566 L21.8885555,16.812 C22.3435555,16.526 23.2405555,16.071 24.3845555,16.071 C26.2305555,16.071 26.9585555,17.098 26.9585555,18.541 L26.9585555,23 L26.0745555,23 L25.9575555,22.428 C25.6065555,22.831 25.0345555,23.169 24.1245555,23.169 C22.6425555,23.169 21.5505555,22.233 21.5505555,20.92 Z M22.5905555,20.907 C22.5905555,21.687 23.2535555,22.311 24.2935555,22.311 C25.2815555,22.311 25.9705555,21.726 25.9705555,20.907 C25.9705555,20.062 25.2945555,19.516 24.2805555,19.516 C23.2535555,19.516 22.5905555,20.114 22.5905555,20.907 Z M27.971111,21.726 L28.686111,21.258 C28.972111,21.791 29.453111,22.298 30.376111,22.298 C31.052111,22.298 31.624111,21.908 31.624111,21.219 C31.624111,19.659 28.231111,20.192 28.231111,17.904 C28.231111,16.76 29.180111,16.071 30.402111,16.071 C31.663111,16.071 32.313111,16.864 32.495111,17.371 L31.741111,17.8 C31.559111,17.436 31.208111,16.929 30.337111,16.929 C29.713111,16.929 29.219111,17.28 29.219111,17.865 C29.219111,19.386 32.625111,18.814 32.625111,21.167 C32.625111,22.363 31.637111,23.169 30.324111,23.169 C28.907111,23.169 28.270111,22.363 27.971111,21.726 Z M33.7546665,23 L33.7546665,13.601 L34.7816665,13.601 L34.7816665,19.139 L37.5376665,16.24 L38.8376665,16.24 L35.9256665,19.269 L39.0066665,23 L37.6806665,23 L34.7816665,19.399 L34.7816665,23 L33.7546665,23 Z M44.8277775,23 L44.8277775,14.862 L42.3707775,14.862 L42.3707775,13.9 L48.3247775,13.9 L48.3247775,14.862 L45.8807775,14.862 L45.8807775,23 L44.8277775,23 Z M49.480333,23 L49.480333,16.24 L50.507333,16.24 L50.507333,23 L49.480333,23 Z M49.285333,14.498 C49.285333,14.108 49.597333,13.796 49.987333,13.796 C50.390333,13.796 50.702333,14.108 50.702333,14.498 C50.702333,14.901 50.390333,15.213 49.987333,15.213 C49.597333,15.213 49.285333,14.901 49.285333,14.498 Z M52.2088885,16.24 L52.2088885,14.823 L53.2358885,14.823 L53.2358885,16.24 L54.7178885,16.24 L54.7178885,17.111 L53.2358885,17.111 L53.2358885,20.595 C53.2358885,21.856 53.5998885,22.155 54.4838885,22.155 C54.6138885,22.155 54.7698885,22.142 54.7698885,22.142 L54.7698885,23.052 C54.7698885,23.052 54.4968885,23.091 54.1458885,23.091 C52.7938885,23.091 52.2088885,22.207 52.2088885,20.686 L52.2088885,17.111 L51.4158885,17.111 L51.4158885,16.24 L52.2088885,16.24 Z M55.821444,23 L55.821444,13.601 L56.848444,13.601 L56.848444,23 L55.821444,23 Z M58.0299995,19.646 C58.0299995,17.488 59.5119995,16.071 61.3059995,16.071 C63.2949995,16.071 64.5169995,17.501 64.5169995,19.529 C64.5169995,19.568 64.5169995,19.711 64.5039995,19.841 L59.0829995,19.841 C59.0959995,21.349 60.1099995,22.259 61.5139995,22.259 C62.6579995,22.259 63.2949995,21.661 63.6199995,21.206 L64.2959995,21.7 C63.9189995,22.337 63.0349995,23.169 61.5009995,23.169 C59.4469995,23.169 58.0299995,21.726 58.0299995,19.646 Z M59.1349995,19.074 L63.4639995,19.074 C63.3989995,17.67 62.4239995,16.955 61.3059995,16.955 C60.2009995,16.955 59.2129995,17.8 59.1349995,19.074 Z" fill-opacity="0.3" fill="#212B35"></path>
                                    </g>
                                    <path d="M4.224,3.9 L6.824,10.101 L9.437,3.9 L11.803,3.9 L11.803,13 L10.048,13 L10.048,6.5 L7.682,12.233 L5.979,12.233 L3.613,6.5 L3.613,13 L1.858,13 L1.858,3.9 L4.224,3.9 Z M12.8285555,10.894 C12.8285555,9.555 13.8815555,8.645 15.4675555,8.645 C16.1565555,8.645 16.6895555,8.853 16.9365555,9.022 L16.9365555,8.58 C16.9365555,7.982 16.4945555,7.579 15.7015555,7.579 C15.0255555,7.579 14.4015555,7.8 13.8945555,8.06 L13.2185555,6.838 C13.8295555,6.422 14.8565555,6.032 15.8965555,6.032 C18.0805555,6.032 18.7305555,7.176 18.7305555,8.697 L18.7305555,13 L17.1445555,13 L17.0275555,12.558 C16.6765555,12.935 16.1565555,13.169 15.3765555,13.169 C13.9985555,13.169 12.8285555,12.324 12.8285555,10.894 Z M14.6225555,10.842 C14.6225555,11.401 15.1295555,11.778 15.8055555,11.778 C16.4815555,11.778 16.9755555,11.414 16.9755555,10.842 C16.9755555,10.244 16.4815555,9.893 15.7925555,9.893 C15.1035555,9.893 14.6225555,10.283 14.6225555,10.842 Z M19.912111,13 L19.912111,6.201 L21.706111,6.201 L21.706111,13 L19.912111,13 Z M19.756111,4.563 C19.756111,3.978 20.211111,3.536 20.796111,3.536 C21.394111,3.536 21.849111,3.978 21.849111,4.563 C21.849111,5.148 21.394111,5.59 20.796111,5.59 C20.211111,5.59 19.756111,5.148 19.756111,4.563 Z M26.5536665,6.032 C28.4906665,6.032 28.9066665,7.631 28.9066665,9.074 L28.9066665,13 L27.1126665,13 L27.1126665,8.866 C27.1126665,8.112 26.5926665,7.644 25.9816665,7.644 C25.2406665,7.644 24.7726665,8.19 24.7726665,8.918 L24.7726665,13 L22.9786665,13 L22.9786665,6.201 L24.7336665,6.201 L24.7336665,6.994 C25.0196665,6.526 25.6696665,6.032 26.5536665,6.032 Z M39.8497775,3.601 L39.8497775,13 L38.1597775,13 L38.1597775,12.298 C37.9777775,12.519 37.3017775,13.169 36.1447775,13.169 C34.1947775,13.169 32.8167775,11.7 32.8167775,9.607 C32.8167775,7.501 34.0907775,6.032 36.0407775,6.032 C37.2107775,6.032 37.8867775,6.682 38.0557775,6.916 L38.0557775,3.601 L39.8497775,3.601 Z M38.1077775,9.62 C38.1077775,8.346 37.3537775,7.618 36.3657775,7.618 C35.3257775,7.618 34.6237775,8.437 34.6237775,9.62 C34.6237775,10.829 35.3517775,11.583 36.3657775,11.583 C37.4577775,11.583 38.1077775,10.699 38.1077775,9.62 Z M40.745333,9.62 C40.745333,7.566 42.136333,6.032 44.073333,6.032 C46.179333,6.032 47.375333,7.436 47.375333,9.659 C47.375333,9.789 47.375333,9.919 47.362333,10.049 L42.578333,10.049 C42.617333,10.959 43.345333,11.609 44.346333,11.609 C45.269333,11.609 45.802333,11.063 45.997333,10.777 L47.180333,11.674 C46.920333,12.155 46.010333,13.169 44.320333,13.169 C42.136333,13.169 40.745333,11.661 40.745333,9.62 Z M42.630333,8.879 L45.555333,8.879 C45.516333,8.047 44.918333,7.501 44.099333,7.501 C43.254333,7.501 42.708333,8.099 42.630333,8.879 Z M48.4008885,6.201 L48.4008885,4.771 L50.1688885,4.771 L50.1688885,6.201 L51.4428885,6.201 L51.4428885,7.657 L50.1688885,7.657 L50.1688885,10.283 C50.1688885,11.297 50.4808885,11.505 51.1698885,11.505 C51.2868885,11.505 51.3518885,11.505 51.4948885,11.492 L51.4948885,13.026 C51.4948885,13.026 51.2218885,13.091 50.7278885,13.091 C49.1028885,13.091 48.3878885,12.181 48.3878885,10.335 L48.3878885,7.657 L47.6728885,7.657 L47.6728885,6.201 L48.4008885,6.201 Z M52.026444,10.894 C52.026444,9.555 53.079444,8.645 54.665444,8.645 C55.354444,8.645 55.887444,8.853 56.134444,9.022 L56.134444,8.58 C56.134444,7.982 55.692444,7.579 54.899444,7.579 C54.223444,7.579 53.599444,7.8 53.092444,8.06 L52.416444,6.838 C53.027444,6.422 54.054444,6.032 55.094444,6.032 C57.278444,6.032 57.928444,7.176 57.928444,8.697 L57.928444,13 L56.342444,13 L56.225444,12.558 C55.874444,12.935 55.354444,13.169 54.574444,13.169 C53.196444,13.169 52.026444,12.324 52.026444,10.894 Z M53.820444,10.842 C53.820444,11.401 54.327444,11.778 55.003444,11.778 C55.679444,11.778 56.173444,11.414 56.173444,10.842 C56.173444,10.244 55.679444,9.893 54.990444,9.893 C54.301444,9.893 53.820444,10.283 53.820444,10.842 Z M59.1099995,13 L59.1099995,6.201 L60.9039995,6.201 L60.9039995,13 L59.1099995,13 Z M58.9539995,4.563 C58.9539995,3.978 59.4089995,3.536 59.9939995,3.536 C60.5919995,3.536 61.0469995,3.978 61.0469995,4.563 C61.0469995,5.148 60.5919995,5.59 59.9939995,5.59 C59.4089995,5.59 58.9539995,5.148 58.9539995,4.563 Z M62.176555,13 L62.176555,3.601 L63.970555,3.601 L63.970555,13 L62.176555,13 Z M67.3231105,13.169 C65.9841105,13.169 65.1521105,12.493 64.7881105,11.908 L65.8411105,10.972 C66.1791105,11.362 66.6341105,11.713 67.4011105,11.713 C67.9081105,11.713 68.2331105,11.492 68.2331105,11.102 C68.2331105,10.062 65.0221105,10.465 65.0221105,8.047 C65.0221105,6.786 66.1011105,6.032 67.4921105,6.032 C68.7791105,6.032 69.4941105,6.708 69.8191105,7.241 L68.6361105,8.125 C68.4281105,7.865 68.0511105,7.475 67.4141105,7.475 C66.9981105,7.475 66.7121105,7.683 66.7121105,8.021 C66.7121105,9.1 69.9361105,8.58 69.9361105,11.011 C69.9361105,12.337 68.7921105,13.169 67.3231105,13.169 Z" id="Headline" fill="#212B35"></path>
                                </g>
                            </g>
                            <g id="Headline-Box" mask="url(#mask-3)">
                                <use fill="black" fill-opacity="1" filter="url(#filter-23)" xlink:href="#path-22"></use>
                                <use fill="#FFFFFF" fill-rule="evenodd" xlink:href="#path-22"></use>
                            </g>
                            <path d="M104.510016,57.5389855 L100.226016,57.5389855 L99.1280156,60.7789855 L96.5720156,60.7789855 L101.036016,48.1789855 L103.700016,48.1789855 L108.164016,60.7789855 L105.608016,60.7789855 L104.510016,57.5389855 Z M103.844016,55.4329855 L102.368016,50.8969855 L100.910016,55.4329855 L103.844016,55.4329855 Z M118.296015,47.7649855 L118.296015,60.7789855 L115.956015,60.7789855 L115.956015,59.8069855 C115.704015,60.1129855 114.768015,61.0129855 113.166015,61.0129855 C110.466015,61.0129855 108.558015,58.9789855 108.558015,56.0809855 C108.558015,53.1649855 110.322015,51.1309855 113.022015,51.1309855 C114.642015,51.1309855 115.578015,52.0309855 115.812015,52.3549855 L115.812015,47.7649855 L118.296015,47.7649855 Z M115.884015,56.0989855 C115.884015,54.3349855 114.840015,53.3269855 113.472015,53.3269855 C112.032015,53.3269855 111.060015,54.4609855 111.060015,56.0989855 C111.060015,57.7729855 112.068015,58.8169855 113.472015,58.8169855 C114.984015,58.8169855 115.884015,57.5929855 115.884015,56.0989855 Z M129.256015,47.7649855 L129.256015,60.7789855 L126.916015,60.7789855 L126.916015,59.8069855 C126.664015,60.1129855 125.728015,61.0129855 124.126015,61.0129855 C121.426015,61.0129855 119.518015,58.9789855 119.518015,56.0809855 C119.518015,53.1649855 121.282015,51.1309855 123.982015,51.1309855 C125.602015,51.1309855 126.538015,52.0309855 126.772015,52.3549855 L126.772015,47.7649855 L129.256015,47.7649855 Z M126.844015,56.0989855 C126.844015,54.3349855 125.800015,53.3269855 124.432015,53.3269855 C122.992015,53.3269855 122.020015,54.4609855 122.020015,56.0989855 C122.020015,57.7729855 123.028015,58.8169855 124.432015,58.8169855 C125.944015,58.8169855 126.844015,57.5929855 126.844015,56.0989855 Z M145.452015,60.7789855 L143.076015,52.0849855 L140.700015,60.7789855 L137.838015,60.7789855 L134.454015,48.1789855 L137.226015,48.1789855 L139.404015,57.6109855 L141.906015,48.1789855 L144.246015,48.1789855 L146.748015,57.6109855 L148.944015,48.1789855 L151.698015,48.1789855 L148.332015,60.7789855 L145.452015,60.7789855 Z M151.858015,56.0989855 C151.858015,53.2369855 154.054015,51.1309855 156.916015,51.1309855 C159.796015,51.1309855 161.992015,53.2549855 161.992015,56.0989855 C161.992015,58.9429855 159.868015,61.0129855 156.916015,61.0129855 C153.982015,61.0129855 151.858015,58.9429855 151.858015,56.0989855 Z M154.342015,56.0989855 C154.342015,57.7009855 155.440015,58.8169855 156.916015,58.8169855 C158.410015,58.8169855 159.508015,57.7009855 159.508015,56.0989855 C159.508015,54.4969855 158.410015,53.3269855 156.916015,53.3269855 C155.422015,53.3269855 154.342015,54.4789855 154.342015,56.0989855 Z M168.236015,51.1309855 L168.236015,53.6509855 C166.382015,53.6509855 165.698015,54.8029855 165.698015,56.6749855 L165.698015,60.7789855 L163.214015,60.7789855 L163.214015,51.3649855 L165.644015,51.3649855 L165.644015,52.7329855 C166.058015,51.7969855 166.994015,51.1309855 168.236015,51.1309855 Z M169.494015,60.7789855 L169.494015,47.7649855 L171.978015,47.7649855 L171.978015,55.3249855 L175.002015,51.3649855 L177.792015,51.3649855 L174.480015,55.6309855 L178.044015,60.7789855 L175.128015,60.7789855 L171.978015,55.9189855 L171.978015,60.7789855 L169.494015,60.7789855 Z M189.254015,61.0129855 C185.384015,61.0129855 182.702015,58.1869855 182.702015,54.4789855 C182.702015,50.8069855 185.384015,47.9449855 189.254015,47.9449855 C193.124015,47.9449855 195.806015,50.8069855 195.806015,54.4789855 C195.806015,58.1869855 193.124015,61.0129855 189.254015,61.0129855 Z M189.254015,50.3209855 C186.986015,50.3209855 185.348015,52.1029855 185.348015,54.4789855 C185.348015,56.8909855 186.986015,58.6369855 189.254015,58.6369855 C191.522015,58.6369855 193.160015,56.8909855 193.160015,54.4789855 C193.160015,52.1029855 191.522015,50.3209855 189.254015,50.3209855 Z M202.140015,51.1309855 L202.140015,53.6509855 C200.286015,53.6509855 199.602015,54.8029855 199.602015,56.6749855 L199.602015,60.7789855 L197.118015,60.7789855 L197.118015,51.3649855 L199.548015,51.3649855 L199.548015,52.7329855 C199.962015,51.7969855 200.898015,51.1309855 202.140015,51.1309855 Z M212.614014,47.7649855 L212.614014,60.7789855 L210.274014,60.7789855 L210.274014,59.8069855 C210.022014,60.1129855 209.086014,61.0129855 207.484014,61.0129855 C204.784014,61.0129855 202.876014,58.9789855 202.876014,56.0809855 C202.876014,53.1649855 204.640014,51.1309855 207.340014,51.1309855 C208.960014,51.1309855 209.896014,52.0309855 210.130014,52.3549855 L210.130014,47.7649855 L212.614014,47.7649855 Z M210.202014,56.0989855 C210.202014,54.3349855 209.158014,53.3269855 207.790014,53.3269855 C206.350014,53.3269855 205.378014,54.4609855 205.378014,56.0989855 C205.378014,57.7729855 206.386014,58.8169855 207.790014,58.8169855 C209.302014,58.8169855 210.202014,57.5929855 210.202014,56.0989855 Z M213.854014,56.0989855 C213.854014,53.2549855 215.780014,51.1309855 218.462014,51.1309855 C221.378014,51.1309855 223.034014,53.0749855 223.034014,56.1529855 C223.034014,56.3329855 223.034014,56.5129855 223.016014,56.6929855 L216.392014,56.6929855 C216.446014,57.9529855 217.454014,58.8529855 218.840014,58.8529855 C220.118014,58.8529855 220.856014,58.0969855 221.126014,57.7009855 L222.764014,58.9429855 C222.404014,59.6089855 221.144014,61.0129855 218.804014,61.0129855 C215.780014,61.0129855 213.854014,58.9249855 213.854014,56.0989855 Z M216.464014,55.0729855 L220.514014,55.0729855 C220.460014,53.9209855 219.632014,53.1649855 218.498014,53.1649855 C217.328014,53.1649855 216.572014,53.9929855 216.464014,55.0729855 Z M229.242014,51.1309855 L229.242014,53.6509855 C227.388014,53.6509855 226.704014,54.8029855 226.704014,56.6749855 L226.704014,60.7789855 L224.220014,60.7789855 L224.220014,51.3649855 L226.650014,51.3649855 L226.650014,52.7329855 C227.064014,51.7969855 228.000014,51.1309855 229.242014,51.1309855 Z" id="Headline" fill="#212B35" mask="url(#mask-3)"></path>
                            <rect id="Overlay-Box" stroke="#979797" fill-opacity="0.35" fill="#000000" mask="url(#mask-3)" x="-0.0719844358" y="-14.5" width="335" height="685" rx="4"></rect>
                        </g>
                    </g>
                </g>
            </g>
        </g>
    </g>
</svg>