<?xml version="1.0" encoding="UTF-8"?>
<svg width="535px" height="419px" viewBox="0 0 535 419" version="1.1" xmlns="http://www.w3.org/2000/svg" xmlns:xlink="http://www.w3.org/1999/xlink">
    <!-- Generator: Sketch 50.2 (55047) - http://www.bohemiancoding.com/sketch -->
    <title>basketball-illustration</title>
    <desc>Created with Sketch.</desc>
    <defs>
        <linearGradient x1="50%" y1="100%" x2="50%" y2="1.38764327e-14%" id="linearGradient-1">
            <stop stop-color="#808080" stop-opacity="0.25" offset="0%"></stop>
            <stop stop-color="#808080" stop-opacity="0.12" offset="54%"></stop>
            <stop stop-color="#808080" stop-opacity="0.1" offset="100%"></stop>
        </linearGradient>
        <linearGradient x1="50.0035554%" y1="100%" x2="50.0035554%" y2="0%" id="linearGradient-2">
            <stop stop-color="#808080" stop-opacity="0.25" offset="0%"></stop>
            <stop stop-color="#808080" stop-opacity="0.12" offset="54%"></stop>
            <stop stop-color="#808080" stop-opacity="0.1" offset="100%"></stop>
        </linearGradient>
        <linearGradient x1="50%" y1="100.006361%" x2="50%" y2="-0.0033675577%" id="linearGradient-3">
            <stop stop-color="#808080" stop-opacity="0.25" offset="0%"></stop>
            <stop stop-color="#808080" stop-opacity="0.12" offset="54%"></stop>
            <stop stop-color="#808080" stop-opacity="0.1" offset="100%"></stop>
        </linearGradient>
        <linearGradient x1="50%" y1="99.9984025%" x2="50%" y2="0.000798766704%" id="linearGradient-4">
            <stop stop-color="#808080" stop-opacity="0.25" offset="0%"></stop>
            <stop stop-color="#808080" stop-opacity="0.12" offset="54%"></stop>
            <stop stop-color="#808080" stop-opacity="0.1" offset="100%"></stop>
        </linearGradient>
        <linearGradient x1="50.0046292%" y1="100%" x2="50.0046292%" y2="-3.0990851e-14%" id="linearGradient-5">
            <stop stop-color="#808080" stop-opacity="0.25" offset="0%"></stop>
            <stop stop-color="#808080" stop-opacity="0.12" offset="54%"></stop>
            <stop stop-color="#808080" stop-opacity="0.1" offset="100%"></stop>
        </linearGradient>
        <linearGradient x1="50.005576%" y1="100%" x2="50.005576%" y2="-3.73282236e-14%" id="linearGradient-6">
            <stop stop-color="#808080" stop-opacity="0.25" offset="0%"></stop>
            <stop stop-color="#808080" stop-opacity="0.12" offset="54%"></stop>
            <stop stop-color="#808080" stop-opacity="0.1" offset="100%"></stop>
        </linearGradient>
        <linearGradient x1="49.9853501%" y1="100%" x2="49.9853501%" y2="0.00776036008%" id="linearGradient-7">
            <stop stop-color="#808080" stop-opacity="0.25" offset="0%"></stop>
            <stop stop-color="#808080" stop-opacity="0.12" offset="54%"></stop>
            <stop stop-color="#808080" stop-opacity="0.1" offset="100%"></stop>
        </linearGradient>
        <linearGradient x1="50.0067815%" y1="100%" x2="50.0067815%" y2="-0.0245639892%" id="linearGradient-8">
            <stop stop-color="#808080" stop-opacity="0.25" offset="0%"></stop>
            <stop stop-color="#808080" stop-opacity="0.12" offset="54%"></stop>
            <stop stop-color="#808080" stop-opacity="0.1" offset="100%"></stop>
        </linearGradient>
        <linearGradient x1="50%" y1="99.9649615%" x2="50%" y2="0%" id="linearGradient-9">
            <stop stop-color="#808080" stop-opacity="0.25" offset="0%"></stop>
            <stop stop-color="#808080" stop-opacity="0.12" offset="54%"></stop>
            <stop stop-color="#808080" stop-opacity="0.1" offset="100%"></stop>
        </linearGradient>
        <linearGradient x1="49.9985663%" y1="99.9895513%" x2="49.9985663%" y2="0.0329517205%" id="linearGradient-10">
            <stop stop-color="#808080" stop-opacity="0.25" offset="0%"></stop>
            <stop stop-color="#808080" stop-opacity="0.12" offset="54%"></stop>
            <stop stop-color="#808080" stop-opacity="0.1" offset="100%"></stop>
        </linearGradient>
    </defs>
    <g id="Page-1" stroke="none" stroke-width="1" fill="none" fill-rule="evenodd">
        <g id="Interactive-Landing---Signup-Form" transform="translate(-729.000000, -253.000000)">
            <g id="Container" transform="translate(179.000000, 97.000000)">
                <g id="basketball-illustration" transform="translate(550.000000, 156.000000)">
                    <path d="M125.583511,337 C125.583511,337 136.569235,347.876261 130.368309,364.015401 C124.167383,380.154541 141,407 141,407 L140.463588,406.915029 C117.896723,402.974509 106.669614,377.419543 119.23239,358.439193 C123.942089,351.386617 127.766709,343.107276 125.583511,337 Z" id="Shape" fill="#293855" fill-rule="nonzero"></path>
                    <path d="M125.550363,337 C125.550363,337 131.764622,350.335104 125.550363,361.211365 C119.336104,372.087626 124.475232,402.634626 141,407" id="Shape" stroke="#535461"></path>
                    <path d="M106,381.134497 C106,381.134497 118.607325,379.177497 119.756388,390.193514 C120.905451,401.209531 144,402.74041 144,402.74041 L143.568427,403.01923 C124.498296,415.229438 106.269733,410.794623 109.042589,394.602025 C110.013629,388.56268 109.954287,382.507553 106,381.134497 Z" id="Shape" fill="#293855" fill-rule="nonzero"></path>
                    <path d="M106,381.134497 C106,381.134497 118.607325,379.177497 119.756388,390.193514 C120.905451,401.209531 144,402.74041 144,402.74041 L143.568427,403.01923 C124.498296,415.229438 106.269733,410.794623 109.042589,394.602025 C110.013629,388.56268 109.954287,382.507553 106,381.134497 Z" id="Shape" fill="#F5F5F5" fill-rule="nonzero" opacity="0.2"></path>
                    <path d="M106,381 C106,381 115.785917,383.137054 114.982112,391.941718 C114.178308,400.746382 129.515332,411.319458 144,402.947548" id="Shape" stroke="#535461"></path>
                    <path d="M471.129856,193.701773 C477.211075,206.199903 473.341208,224.130383 481.952726,234.345969 C488.267838,241.837398 498.7505,241.794833 505.910817,248.115726 C511.481725,253.047939 514.256547,261.119315 516.781529,268.781004 L529.050284,306.025326 C534.637138,322.987454 539.410683,344.823268 528.157237,357.257551 C521.411549,364.706415 511.221253,365.552393 502.009056,364.759621 C435.333585,359.018675 381.702969,291.712865 315.256076,283.024297 C268.291412,276.878984 221.890217,301.055869 174.65445,299.720394 C149.670418,299.012752 125.276434,291.207407 101.169501,283.418023 C82.6281604,277.442969 62.0508865,269.584418 53.2107919,249.44056 C49.2611885,240.438076 48.0332499,229.562734 42.1646603,222.161755 C37.6675346,216.484656 31.1663706,213.797744 25.5795158,209.684907 C1.24400561,191.749106 -1.5467639,151.631651 0.574220928,117.851051 C1.749002,99.1118368 3.73709304,79.9256906 11.1419348,63.2934407 C18.5467766,46.6611907 32.4793612,32.9073948 48.3840895,32.3646919 C58.4414913,32.0188517 68.0523699,36.8180486 77.8386684,39.4996398 C87.6249668,42.1812309 99.1016742,42.2610402 106.448043,34.1790224 C112.476105,27.5442125 114.368512,16.8870159 120.396575,10.2362442 C125.090383,5.06992471 131.639389,3.06405196 137.970449,1.83498935 C172.017837,-4.77321743 208.287209,6.69803363 234.988229,32.5136691 C241.478761,38.786677 247.66098,46.0227167 255.592081,49.2416902 C266.154479,53.5247872 277.700292,49.8961261 288.868685,49.9865766 C328.269035,50.3058136 354.991318,92.9878062 382.760803,119.894168 C398.995108,135.627234 414.697838,139.016467 432.314238,149.498083 C443.216845,155.989237 464.554271,180.192725 471.129856,193.701773 Z" id="Shape" fill="#293855" fill-rule="nonzero" opacity="0.1"></path>
                    <rect id="Rectangle-path" fill="url(#linearGradient-1)" fill-rule="nonzero" x="137" y="190" width="23" height="218"></rect>
                    <polygon id="Shape" fill="url(#linearGradient-2)" fill-rule="nonzero" points="188 418 113 418 139.63372 401 159.739671 401"></polygon>
                    <path d="M32,78.3324154 C32,78.3324154 132.635135,-21.4155192 263,78.3324154 L263,164.528422 C263,164.528422 160.756274,226.339472 32.0053089,164.528422 L32,78.3324154 Z" id="Shape" fill="url(#linearGradient-3)" fill-rule="nonzero"></path>
                    <path d="M40,80.2468429 C40,80.2468429 134.524902,-12.5585536 257,80.2468429 L257,160.444993 C257,160.444993 160.952478,217.943759 40,160.444993 L40,80.2468429 Z" id="Shape" fill="url(#linearGradient-4)" fill-rule="nonzero"></path>
                    <rect id="Rectangle-path" fill="url(#linearGradient-5)" fill-rule="nonzero" x="120" y="127" width="57" height="49"></rect>
                    <rect id="Rectangle-path" fill="url(#linearGradient-6)" fill-rule="nonzero" x="124" y="133" width="48" height="40"></rect>
                    <g id="Group" opacity="0.1" transform="translate(105.000000, 182.000000)" fill="url(#linearGradient-7)" fill-rule="nonzero">
                        <path d="M64.0501644,68.8368177 L45.7906957,37.5376605 L29.5945952,67.7384145 L15.5422539,36.0873418 L0.92181644,68.3142764 L0.412673639,68.1116583 C6.30801134,50.9851007 0.46090822,2.4367487 0.412673639,1.94619973 L0.187578927,0.127969297 L15.5583321,34.7489962 L28.3726525,6.48910977 L45.8067739,36.3859368 L61.7509827,6.61174701 L75.2566654,37.2763898 L88.3657527,2.20747037 L91.6457042,1.55695978 L91.5706727,1.95153178 C91.4742035,2.45274486 82.5186496,49.4068127 87.6100776,65.3283261 L88.8213015,68.079666 L88.3389557,68.3302725 C87.8151695,67.4416045 87.3978634,66.4949294 87.0955754,65.509616 L75.3049,38.7267085 L64.0501644,68.8368177 Z M46.090822,36.9564666 L63.937617,67.5677888 L74.9833361,38.0228774 L61.7027481,7.87011177 L46.090822,36.9564666 Z M15.8209426,35.4048388 L29.5945952,66.496046 L45.4476943,36.9671307 L28.3994495,7.67815782 L15.8209426,35.4048388 Z M1.12547356,3.64712496 C2.0580088,12.0077857 5.68632118,47.6738952 1.84899228,64.8857656 L15.247487,35.4048388 L1.12547356,3.64712496 Z M75.5782293,38.0122133 L86.3345409,62.4330208 C83.0653082,45.0505246 90.0861194,6.92100615 90.9650607,2.26079091 L88.7837857,2.69268729 L75.5782293,38.0122133 Z" id="Shape"></path>
                    </g>
                    <g id="Group" opacity="0.1" transform="translate(107.000000, 187.000000)" fill="url(#linearGradient-8)" fill-rule="nonzero">
                        <path d="M13.5490625,64.992826 L0.242135538,31.3399097 L0.742198062,31.137854 L13.5753816,63.5731185 L26.4348842,33.9294136 L9.29063531,2.11095082 L9.75911494,1.85040526 L26.7033388,33.3019773 L39.5523137,3.69549325 L39.7102282,3.69549325 L77.8623669,0.0531725648 L42.521106,63.769857 L26.7665046,34.5249463 L13.5490625,64.992826 Z M27.040223,33.9028273 L42.5263698,62.6479159 L76.9043524,0.675291573 L39.9313085,4.20594988 L27.040223,33.9028273 Z" id="Shape"></path>
                    </g>
                    <g id="Group" opacity="0.1" transform="translate(146.000000, 187.000000)" fill="url(#linearGradient-1)" fill-rule="nonzero">
                        <polygon id="Shape" points="32.3961404 63.5948745 32.1192503 63.0563456 0.106496188 0.495446562 0.591053844 0.242337992 32.3269179 62.2593229 44.2544909 31.0031072 44.7603478 31.2023628"></polygon>
                    </g>
                    <path d="M150.5,177 C124.815206,177 104,180.358444 104,184.5 C104,188.641556 124.820575,192 150.5,192 C176.179425,192 197,188.641556 197,184.5 C197,180.358444 176.179425,177 150.5,177 Z M150.5,188.783462 C126.930551,188.783462 107.828022,186.623336 107.828022,183.96391 C107.828022,181.304485 126.930551,179.149615 150.5,179.149615 C174.069449,179.149615 193.166609,181.299229 193.166609,183.96391 C193.166609,186.628591 174.06408,188.783462 150.5,188.783462 Z" id="Shape" fill="url(#linearGradient-9)" fill-rule="nonzero"></path>
                    <g id="Group" opacity="0.2" transform="translate(103.000000, 177.000000)" fill="url(#linearGradient-9)" fill-rule="nonzero">
                        <path d="M46.2860402,0.160066998 C20.7606896,0.160066998 0.0746979323,3.45951253 0.0746979323,7.52831235 C0.0746979323,11.5971122 20.7660252,14.8965577 46.2860402,14.8965577 C71.8060552,14.8965577 92.4973825,11.5971122 92.4973825,7.52831235 C92.4973825,3.45951253 71.8060552,0.160066998 46.2860402,0.160066998 Z M46.2860402,11.7365254 C22.8629029,11.7365254 3.87895691,9.61434677 3.87895691,7.00164029 C3.87895691,4.38893381 22.8629029,2.27191868 46.2860402,2.27191868 C69.7091775,2.27191868 88.6877879,4.38377036 88.6877879,7.00164029 C88.6877879,9.61951022 69.703842,11.7365254 46.2860402,11.7365254 Z" id="Shape"></path>
                    </g>
                    <path d="M150.5,175 C124.815206,175 104,178.358444 104,182.5 C104,186.641556 124.820575,190 150.5,190 C176.179425,190 197,186.641556 197,182.5 C197,178.358444 176.179425,175 150.5,175 Z M150.5,186.783462 C126.930551,186.783462 107.828022,184.623336 107.828022,181.96391 C107.828022,179.304485 126.93592,177.144359 150.5,177.144359 C174.06408,177.144359 193.166609,179.278206 193.166609,181.958655 C193.166609,184.639103 174.06408,186.778206 150.5,186.778206 L150.5,186.783462 Z" id="Shape" fill="url(#linearGradient-9)" fill-rule="nonzero"></path>
                    <rect id="Rectangle-path" fill="#E8EAF1" fill-rule="nonzero" x="137" y="190" width="23" height="213"></rect>
                    <polygon id="Shape" fill="#E8EAF1" fill-rule="nonzero" points="188 415 114 415 140.275362 398 160.115942 398"></polygon>
                    <path d="M35,81.4921845 C35,81.4921845 134.316159,-16.3652307 263,81.4921845 L263,166.053755 C263,166.053755 162.081967,226.682806 35,166.053755 L35,81.4921845 Z" id="Shape" fill="#E8EAF1" fill-rule="nonzero"></path>
                    <path d="M42,82.6880469 C42,82.6880469 134.3472,-8.86005861 254,82.6880469 L254,161.792153 C254,161.792153 160.19,218.509808 42,161.792153 L42,82.6880469 Z" id="Shape" fill="#F3F5F7" fill-rule="nonzero"></path>
                    <rect id="Rectangle-path" fill="#FFFFFF" fill-rule="nonzero" x="120" y="130" width="56" height="48"></rect>
                    <rect id="Rectangle-path" fill="#F3F5F7" fill-rule="nonzero" x="125" y="134" width="46" height="40"></rect>
                    <path d="M167.422466,251 L149.858183,220.461648 L134.253074,249.924482 L120.738451,219.062945 L106.703832,250.491381 L106.215352,250.29535 C111.909037,233.590384 106.262624,186.2517 106.215352,185.77487 L106,184 L120.785723,217.759608 L133.113286,190.209394 L149.879193,219.349043 L165.253193,190.315357 L178.242569,220.217935 L190.848514,186.018583 L194,185.382809 L193.926465,185.769571 C193.831921,186.262296 185.217858,232.043334 190.118419,247.572118 L191.284469,250.252965 L190.816999,250.496679 C190.312697,249.630437 189.910768,248.707569 189.619434,247.746956 L178.274084,221.627234 L167.422466,251 Z M150.152322,219.910644 L167.317417,249.76024 L177.937925,220.954373 L165.169154,191.549818 L150.152322,219.910644 Z M121.032589,218.416574 L134.300346,248.721809 L149.53253,219.926538 L133.118539,191.380278 L121.032589,218.416574 Z M106.898174,187.449075 C107.796347,195.59758 111.283992,230.36383 107.591501,247.164163 L120.454817,218.416574 L106.898174,187.449075 Z M178.505193,220.938479 L188.84732,244.742923 C185.695834,227.788945 192.450519,190.612051 193.301421,186.071564 L191.20043,186.495414 L178.505193,220.938479 Z" id="Shape" fill="#000000" fill-rule="nonzero" opacity="0.1"></path>
                    <path d="M121.19772,252 L108,218.844274 L108.494715,218.64676 L121.224318,250.617399 L133.991157,221.395946 L116.968705,190.049879 L117.436822,189.793644 L134.241174,220.755359 L147.008014,191.587288 L147.16228,191.587288 L185,188 L149.928428,250.793561 L134.305009,221.967137 L121.19772,252 Z M134.576304,221.369255 L149.933748,249.688548 L184.031848,188.629911 L147.364421,192.105096 L134.576304,221.369255 Z" id="Shape" fill="#000000" fill-rule="nonzero" opacity="0.1"></path>
                    <polygon id="Shape" fill="#000000" fill-rule="nonzero" opacity="0.1" points="177.821142 249 177.543135 248.476916 146 188.243049 146.47582 188 177.746294 247.710784 189.502795 217.614985 190 217.805197"></polygon>
                    <path d="M149,178 C124.149412,178 104,181.358929 104,185.5 C104,189.641071 124.149412,193 149,193 C173.850588,193 194,189.641071 194,185.5 C194,181.358929 173.850588,178 149,178 Z M149,189.785714 C126.192941,189.785714 107.705882,187.642857 107.705882,184.964286 C107.705882,182.285714 126.192941,180.142857 149,180.142857 C171.807059,180.142857 190.294118,182.285714 190.294118,184.964286 C190.294118,187.642857 171.807059,189.785714 149,189.785714 Z" id="Shape" fill="#5F546F" fill-rule="nonzero"></path>
                    <path d="M149,178 C124.149412,178 104,181.358929 104,185.5 C104,189.641071 124.149412,193 149,193 C173.850588,193 194,189.641071 194,185.5 C194,181.358929 173.850588,178 149,178 Z M149,189.785714 C126.192941,189.785714 107.705882,187.642857 107.705882,184.964286 C107.705882,182.285714 126.192941,180.142857 149,180.142857 C171.807059,180.142857 190.294118,182.285714 190.294118,184.964286 C190.294118,187.642857 171.807059,189.785714 149,189.785714 Z" id="Shape" fill="#000000" fill-rule="nonzero" opacity="0.2"></path>
                    <path d="M149,175 C124.149412,175 104,178.358929 104,182.5 C104,186.641071 124.149412,190 149,190 C173.850588,190 194,186.641071 194,182.5 C194,178.358929 173.850588,175 149,175 Z M149,186.785714 C126.192941,186.785714 107.705882,184.642857 107.705882,181.964286 C107.705882,179.285714 126.192941,177.142857 149,177.142857 C171.807059,177.142857 190.294118,179.285714 190.294118,181.964286 C190.294118,184.642857 171.807059,186.785714 149,186.785714 Z" id="Shape" fill="#5F546F" fill-rule="nonzero"></path>
                    <path d="M315.089239,391.968509 C300.628344,396.052099 284.694135,391.877286 270.452102,396.674565 C269.197955,397.03108 268.026107,397.632841 267.003694,398.445372 C263.59799,401.434281 264.943189,407.267214 267.985903,410.626383 C272.848906,415.992467 280.493056,417.666685 287.672791,418.38574 C322.744065,421.889793 357.820678,409.139978 392.934656,411.82302 C398.155312,412.225476 404.240738,412.660129 407.742528,408.748254 C410.326165,405.866667 410.502322,401.423549 409.226518,397.76388 C406.883095,391.045543 400.407987,386.457541 393.591242,384.531117 C386.774496,382.604693 379.552056,382.921292 372.473744,383.237891 C362.865176,383.67791 353.176536,383.55449 343.594658,384.193054 C333.350857,384.901377 324.793893,389.247905 315.089239,391.968509 Z" id="Shape" fill="#293855" fill-rule="nonzero" opacity="0.1"></path>
                    <path d="M397.522131,311.779161 C393.816528,311.247678 386.966457,305.401364 386.966457,305.401364 C385.956494,303.885494 384.234197,303.005814 382.419153,303.078783 L375.616725,293.474884 C372.979818,288.925601 369.851775,284.681802 366.289194,280.820273 C365.706885,280.171863 365.105166,279.542942 364.484036,278.933508 C362.649265,277.102129 360.677792,275.414186 358.586834,273.884419 C357.211082,272.854546 355.912403,271.724773 354.701245,270.504186 C353.581513,269.38465 352.5213,268.206668 351.525014,266.975139 L346.79243,260.320971 L346.474807,259.86921 C346.595645,259.219341 346.627702,258.555969 346.570094,257.897408 C346.570094,257.743278 346.538332,257.589148 346.517157,257.435018 L326.983337,234.379282 L321.160247,222.452802 C321.091428,222.511265 320.858505,222.707914 320.493238,222.984285 L320.387364,222.68134 L320.387364,222.543154 L320.387364,221.538651 C320.357771,213.283368 322.398565,205.153435 326.321622,197.898285 C327.639171,195.462694 328.328882,192.734868 328.327941,189.963242 C328.327941,189.74002 328.327941,189.516797 328.327941,189.293574 L328.22736,189.181962 C328.04208,188.974684 327.618583,188.496349 327.07333,187.789477 C327.142148,187.651291 327.21626,187.507791 327.285079,187.37492 C329.709602,182.899833 333.0817,182.134497 333.0817,182.134497 C344.431432,180.540048 352.61552,172.860117 352.61552,172.860117 C361.085469,168.07677 359.497354,163.824905 359.497354,163.824905 L351.842637,145.276146 L347.078291,135.470284 L345.760155,130.963307 C345.328402,127.965513 344.718536,124.996313 343.933822,122.071596 C342.80626,117.755953 337.189625,116.528227 334.479242,120.06259 C334.415717,120.147627 334.346899,120.237979 334.283374,120.333646 C331.796714,123.941767 332.45253,128.85698 335.797377,131.680809 C338.444236,133.944927 340.747004,136.267508 340.747004,136.267508 C345.51135,137.590901 348.687581,162.235771 348.687581,162.235771 L345.51135,164.361703 C340.586875,164.618156 335.99365,166.930672 332.843483,170.7395 L322.880705,170.7395 C322.880705,170.696981 322.907174,170.654463 322.923055,170.606629 L321.271415,170.234591 L316.507068,169.171625 L314.74426,168.773013 L314.717792,168.884624 L314.220182,168.773013 L314.220182,168.842105 C313.551097,167.777711 312.949935,166.671778 312.420318,165.530966 C312.562441,165.552533 312.706986,165.552533 312.849109,165.530966 C312.886165,165.451243 312.917928,165.371521 312.944396,165.291799 L313.113795,165.291799 C313.849622,163.697349 313.214376,161.704288 313.923734,160.07795 C314.306722,159.391838 314.731006,158.7298 315.194226,158.095518 C316.25297,156.261901 316.125921,153.965894 315.813591,151.861221 C315.474793,149.597104 314.956009,147.285152 313.659048,145.398387 C312.362087,143.511623 310.122844,142.129767 307.835958,142.427397 C306.036094,142.666564 304.458566,143.90492 302.648114,144.021846 C301.367035,144.096254 300.138892,143.591345 298.942512,143.198048 C297.632496,142.774413 296.288052,142.466749 294.92458,142.278582 C294.019354,142.151026 292.955316,142.135081 292.346539,142.810065 L292.293602,142.879158 C292.217088,142.937961 292.146199,143.003796 292.081853,143.075806 C291.842838,143.375419 291.663148,143.718191 291.552481,144.085624 L290.382569,147.322356 C290.260129,147.545728 290.260129,147.816487 290.382569,148.039858 C290.488444,148.172729 290.673724,148.209933 290.816654,148.300285 C291.743055,148.900861 290.499031,150.383699 291.26662,151.11183 C291.727174,151.547646 292.711805,151.59548 293.68585,151.590165 C291.88746,154.435592 291.584242,157.982767 292.873428,161.094234 C294.162614,164.2057 296.882185,166.490422 300.160067,167.215767 C300.160067,167.391157 300.160067,167.566546 300.160067,167.74725 C300.185322,169.148873 300.075406,170.54966 299.831856,171.930022 L299.058973,171.999115 C297.7726,172.068208 295.173384,172.169189 292.902379,172.062893 C292.141938,172.032608 291.383764,171.95986 290.631374,171.844985 C290.631374,171.844985 290.541381,172.812284 290.366688,174.295122 L289.837316,174.443937 C284.900443,175.868127 280.613191,178.977034 277.714702,183.234667 L265.835598,190.143947 C265.835598,190.143947 260.54188,188.820554 245.248329,202.070427 L234.163283,207.91674 C234.163283,207.91674 217.228678,212.923311 220.394322,217.951141 C223.559965,222.978971 239.39877,211.860345 239.39877,211.860345 L245.751232,208.947818 L265.020366,200.444089 C265.020366,200.444089 271.372828,196.192224 276.105412,194.597775 C280.837996,193.003326 285.607636,188.219978 285.607636,188.219978 L286.798722,188.1562 L287.328094,188.124311 C287.249202,188.267129 287.162609,188.40552 287.068702,188.538868 C287.021058,188.613276 286.968121,188.682368 286.915184,188.746146 L286.915184,231.408292 L286.830485,232.593499 L286.867541,232.593499 L285.597048,249.946421 C285.597048,249.946421 285.861734,257.918667 284.802991,262.39907 C283.744247,266.879472 285.597048,285.189063 285.597048,285.189063 C285.597048,285.189063 286.290525,285.189063 287.418087,285.109341 L287.386325,285.640824 L286.920478,293.14005 C286.920478,293.14005 286.031133,296.031318 291.155452,297.535415 C292.329013,297.876853 293.445746,298.39088 294.46932,299.060771 L300.377109,302.945913 L306.449004,306.666294 L307.677147,309.254617 L307.735378,309.382173 L306.44371,308.590263 C306.44371,308.590263 305.384967,311.247678 308.82059,314.686374 C311.428328,317.0288 312.798616,320.458353 312.526192,323.960753 C312.526192,323.960753 313.055564,330.33855 316.231795,328.744101 C316.231795,328.744101 321.244946,327.681135 320.996141,318.938238 C320.996141,318.938238 318.995116,311.65692 321.324352,308.579633 C321.387877,308.494596 321.45493,308.413102 321.525513,308.335151 C324.172372,305.422624 320.731456,300.894388 320.731456,300.894388 C320.731456,300.894388 314.617211,298.417677 314.273119,302.531356 L314.019021,302.419744 C312.917928,301.888261 310.943371,300.596758 308.852352,297.450378 C308.852352,297.450378 305.422023,288.707481 300.144186,287.910257 L301.028237,282.877112 L301.128817,282.297796 C302.944563,281.436793 304.416216,280.325993 305.157337,278.896304 L305.189099,278.832526 L305.189099,278.805952 L305.189099,278.768748 L305.189099,278.731544 L305.189099,278.69434 L305.215568,278.641192 L305.215568,278.598673 L305.242036,278.54021 L305.273799,278.476432 L305.273799,278.423284 L305.310855,278.348876 L305.411435,278.295728 L305.448491,278.216006 L305.480254,278.146913 L305.522603,278.056561 L305.559659,277.982153 L305.602009,277.891801 L305.649653,277.796134 L305.686709,277.721726 L305.739646,277.610115 L305.776702,277.535707 L306.004332,277.041428 L306.036094,276.97765 L306.099619,276.839464 L306.147262,276.738483 L306.21608,276.584353 L306.25843,276.494001 L306.337836,276.313296 L306.369598,276.238889 L306.454298,276.05287 L306.496647,275.962517 L306.581347,275.771184 L306.618403,275.686146 L306.708396,275.484183 L306.745452,275.40446 L306.840739,275.191867 L306.872501,275.112145 L306.967788,274.888922 L306.999551,274.814514 L307.105425,274.575347 L307.105425,274.532828 C308.794121,270.589224 310.916902,264.918299 310.811028,261.559326 C310.824873,261.291994 310.824873,261.024119 310.811028,260.756787 L310.747503,260.756787 L310.747503,260.703639 C310.747503,260.592027 310.705153,260.485731 310.673391,260.384749 L324.92408,263.573647 L333.394029,272.848027 L333.431085,272.848027 L333.462848,272.848027 L333.499904,272.848027 L333.542253,272.848027 L333.584603,272.848027 L333.63754,272.821453 L333.685184,272.821453 L333.754002,272.789564 L333.806939,272.762989 L333.881051,272.725786 L333.944576,272.693897 L334.034569,272.646063 L334.0928,272.614174 L334.193381,272.561026 L334.256905,272.523822 L334.36278,272.470674 L334.436892,272.428155 L334.553354,272.364377 L334.627466,272.327173 L334.749221,272.25808 L334.833921,272.210247 L334.966264,272.135839 L335.056257,271.917931 L335.204481,271.832894 L335.283887,271.790375 L335.437405,271.705338 L335.527398,271.65219 L335.686209,271.561838 L335.770909,271.508689 L335.940308,271.407708 L336.030301,271.354559 L336.204994,271.248263 L336.289693,271.195114 L336.474973,271.083503 L336.506736,271.083503 L336.803184,271.428967 L340.508787,275.744609 C344.214389,277.339059 352.652576,285.28473 352.652576,285.28473 C353.62662,287.628571 357.750427,290.976914 359.857326,292.581993 C360.45971,293.029208 361.099045,293.42394 361.768359,293.761885 C362.922389,294.362461 364.547561,295.792151 366.035095,297.237785 C367.97617,299.163911 370.058961,300.940544 372.265802,302.552615 C374.306675,304.114884 376.122044,305.953591 377.6601,308.016261 L377.840087,308.250114 C376.580182,312.501978 383.790226,316.822936 383.790226,316.822936 C386.437085,316.291453 394.610586,323.732215 394.610586,323.732215 C394.610586,323.732215 402.265302,329.828326 405.430946,323.200732 C408.596589,316.573139 397.522131,311.779161 397.522131,311.779161 Z M383.536128,304.678548 L382.477384,303.17445 C383.062215,303.45098 383.458549,304.016544 383.520246,304.662603 L383.536128,304.678548 Z" id="Shape" fill="url(#linearGradient-10)" fill-rule="nonzero"></path>
                    <path d="M318,175.459071 C318,175.459071 291.04799,191.174812 296.807012,182.266195 C299.297787,178.514053 300.600995,174.097644 300.546637,169.593073 C300.545594,168.122428 300.347955,166.658535 299.958982,165.240363 L311.20991,160 C311.015028,161.542548 311.15349,163.109001 311.615926,164.593339 C313.191911,170.165235 318,175.459071 318,175.459071 Z" id="Shape" fill="#DB8B8B" fill-rule="nonzero"></path>
                    <path d="M311,164.675545 C308.931596,168.66513 304.693746,170.729885 300.554537,169.764758 C300.553553,168.267794 300.367052,166.777702 300,165.334149 L310.616865,160 C310.432966,161.570155 310.563625,163.164642 311,164.675545 Z" id="Shape" fill="#000000" fill-rule="nonzero" opacity="0.1"></path>
                    <circle id="Oval" fill="#DB8B8B" fill-rule="nonzero" cx="303" cy="159" r="10"></circle>
                    <path d="M295.400887,153.731236 C296.376286,153.92602 297.2373,154.479566 297.805205,155.276972 C298.471016,156.307463 298.455163,157.719235 299.390469,158.523017 C300.096233,159.031677 300.97852,159.249986 301.847629,159.131007 C302.706577,159.009223 303.576649,158.97985 304.442178,159.043415 C305.842495,159.26497 306.989169,160.274851 307.765949,161.429 C308.472271,162.625849 309.100575,163.864891 309.647129,165.138766 C309.870568,165.64407 310.189666,166.103791 310.587719,166.493862 C310.995525,166.886082 311.570288,167.065879 312.135994,166.978192 C312.859931,165.432456 312.236394,163.556963 312.928626,162.01638 C313.302942,161.363801 313.717638,160.734038 314.170416,160.130582 C315.227259,158.383901 315.084585,156.199261 314.772817,154.194957 C314.439911,152.036079 313.932627,149.835982 312.659131,148.042928 C311.385635,146.249875 309.192687,144.951457 306.973317,145.214232 C305.208389,145.44094 303.660114,146.620851 301.884618,146.7239 C300.63226,146.796035 299.422174,146.316857 298.227942,145.940728 C296.944408,145.537358 295.627138,145.244268 294.291202,145.064811 C293.403454,144.946304 292.362464,144.925694 291.765348,145.580056 C291.528036,145.863659 291.34866,146.188978 291.236927,146.538412 L290.090252,149.629884 C289.969916,149.843241 289.969916,150.101803 290.090252,150.31516 C290.195936,150.438819 290.3756,150.474886 290.512989,150.56763 C291.421874,151.139552 290.201221,152.551324 290.951579,153.246906 C291.701937,153.942487 294.349329,153.489071 295.400887,153.731236 Z" id="Shape" fill="#000000" fill-rule="nonzero" opacity="0.1"></path>
                    <path d="M296.400887,152.731236 C297.376286,152.92602 298.2373,153.479566 298.805205,154.276972 C299.471016,155.307463 299.455163,156.719235 300.390469,157.523017 C301.096233,158.031677 301.97852,158.249986 302.847629,158.131007 C303.706577,158.009223 304.576649,157.97985 305.442178,158.043415 C306.842495,158.26497 307.989169,159.274851 308.765949,160.429 C309.472271,161.625849 310.100575,162.864891 310.647129,164.138766 C310.870568,164.64407 311.189666,165.103791 311.587719,165.493862 C311.995525,165.886082 312.570288,166.065879 313.135994,165.978192 C313.859931,164.432456 313.236394,162.556963 313.928626,161.01638 C314.302942,160.363801 314.717638,159.734038 315.170416,159.130582 C316.227259,157.383901 316.084585,155.199261 315.772817,153.194957 C315.439911,151.036079 314.932627,148.835982 313.659131,147.042928 C312.385635,145.249875 310.192687,143.951457 307.973317,144.214232 C306.208389,144.44094 304.660114,145.620851 302.884618,145.7239 C301.63226,145.796035 300.422174,145.316857 299.227942,144.940728 C297.944408,144.537358 296.627138,144.244268 295.291202,144.064811 C294.403454,143.946304 293.362464,143.925694 292.765348,144.580056 C292.528036,144.863659 292.34866,145.188978 292.236927,145.538412 L291.090252,148.629884 C290.969916,148.843241 290.969916,149.101803 291.090252,149.31516 C291.195936,149.438819 291.3756,149.474886 291.512989,149.56763 C292.421874,150.139552 291.201221,151.551324 291.951579,152.246906 C292.701937,152.942487 295.349329,152.489071 296.400887,152.731236 Z" id="Shape" fill="#472727" fill-rule="nonzero"></path>
                    <path d="M352.181047,175.321284 C352.181047,175.321284 344.192218,182.929173 333.108903,184.504328 C333.108903,184.504328 329.814432,185.265117 327.446202,189.695908 C326.583353,191.361338 325.971301,193.149342 325.630559,195 L313.736783,174.485488 L313,173.21572 L332.845766,173.21572 C335.926131,169.451215 340.411909,167.168837 345.218451,166.92046 L348.312938,164.820254 C348.312938,164.820254 345.218451,140.416075 340.581983,139.103446 C340.581983,139.103446 338.319008,136.799648 335.745532,134.560143 C332.471191,131.762053 331.830169,126.885084 334.266704,123.309039 C334.329857,123.217959 334.393009,123.126879 334.461425,123.041156 C337.092791,119.542599 342.592347,120.758789 343.697521,125.034209 C344.464993,127.938415 345.060751,130.88685 345.481588,133.863646 L346.770957,138.326584 L351.412688,148.034679 L358.885768,166.400766 C358.885768,166.400766 360.427749,170.601178 352.181047,175.321284 Z" id="Shape" fill="#DB8B8B" fill-rule="nonzero"></path>
                    <path d="M292,175 L290.435983,188.971267 L286.919603,189.170089 L285.74393,189.234572 C285.74393,189.234572 281.051878,193.974056 276.365145,195.54851 C271.678413,197.122964 265.422343,201.341212 265.422343,201.341212 L246.404104,209.745467 L240.153354,212.641818 C240.153354,212.641818 224.518499,223.716734 221.390464,218.692452 C218.262429,213.668169 234.955922,208.670754 234.955922,208.670754 L245.898724,202.878052 C261.012239,189.718193 266.220311,191.05621 266.220311,191.05621 L277.923843,184.215663 C280.784107,179.987015 285.015323,176.898872 289.888044,175.483621 C290.579334,175.27031 291.285225,175.108667 292,175 Z" id="Shape" fill="#DB8B8B" fill-rule="nonzero"></path>
                    <path d="M326,187.863524 C325.181801,189.476323 324.601421,191.207825 324.278311,193 L313,173.133769 C313.268851,172.746185 313.504312,172.334711 313.703647,171.904128 C313.992322,171.295401 314.21976,170.657307 314.382342,170 L316.014203,170.383939 L320.43071,171.421611 L321.962764,171.779607 C321.962764,171.821114 321.932821,171.862621 321.922841,171.904128 C319.866795,178.182044 323.744338,184.755696 326,187.863524 Z" id="Shape" fill="#000000" fill-rule="nonzero" opacity="0.1"></path>
                    <path d="M293,175 L291.15288,187.817596 L287,188 C288.765445,185.535078 289.965445,179.007964 290.512042,175.463405 C291.325757,175.261274 292.157321,175.106387 293,175 Z" id="Shape" fill="#000000" fill-rule="nonzero" opacity="0.1"></path>
                    <path d="M326.035781,198.399391 C322.116919,205.596984 320.098061,213.669776 320.168947,221.859063 L320.168947,222.879974 L320.168947,223.012905 C320.168947,223.012905 323.043695,230.823933 320.168947,230.823933 C317.294198,230.823933 317.555539,234.732106 313.902101,235.513741 C310.248663,236.295376 297.442965,241.761501 293.528186,239.421914 C289.613408,237.082327 287,232.131975 287,232.131975 L287,189.679113 C287.053335,189.615306 287.10667,189.546182 287.154671,189.471741 C289.410735,186.281396 290.658771,172.98829 290.658771,172.98829 C291.40437,173.102585 292.155779,173.175367 292.909502,173.206297 C295.154899,173.312642 297.709639,173.206297 299.000342,173.14249 L299.800365,173.094635 C302.05643,174.854642 305.133851,175.10987 306.659228,175.10987 C307.19465,175.111866 307.729287,175.150954 308.259273,175.226849 C312.670066,175.843649 314.014104,170 314.014104,170 L315.758154,170.393476 L320.478289,171.456924 L322.115669,171.823814 C319.176918,180.124029 326.915806,188.998506 327.891834,190.072589 L327.99317,190.184251 C328.076195,193.046539 327.401057,195.880086 326.035781,198.399391 Z" id="Shape" fill="#293855" fill-rule="nonzero"></path>
                    <path d="M294,174.242395 C294,177.738276 293.019874,189.324778 287,191 L287,190.908428 C287.063234,190.84379 287.126468,190.773764 287.183379,190.698352 C289.858175,187.466413 291.33785,174 291.33785,174 C292.219268,174.122803 293.108025,174.203727 294,174.242395 Z" id="Shape" fill="#FFFFFF" fill-rule="nonzero" opacity="0.3"></path>
                    <path d="M327,190 C317.523433,189.500571 318.644545,176.776 319.649315,171 L321.272812,171.374571 C318.358979,179.843143 326.02696,188.903429 327,190 Z" id="Shape" fill="#FFFFFF" fill-rule="nonzero" opacity="0.3"></path>
                    <g id="Group" opacity="0.1" transform="translate(293.000000, 174.000000)" fill="#000000" fill-rule="nonzero">
                        <path d="M35.1483296,17.2514358 C35.1426229,17.1965268 35.1023415,17.1516446 35.0487147,17.1404431 C32.951559,16.6119065 35.2794018,17.3782846 32.951559,16.6119065 C32.8624299,16.5801943 33.0773883,16.2260748 33.0773883,16.2260748 C33.148197,19.0682428 32.4755368,21.8791179 31.1270335,24.3761097 C27.2747387,31.5305547 25.2901744,39.5549518 25.3598553,47.6951461 L25.3598553,48.7099365 L25.3598553,48.8367853 C25.3598553,48.8367853 28.1857727,56.6009885 25.3598553,56.6009885 C22.533938,56.6009885 22.7908396,60.4857327 19.1994605,61.2626816 C15.906926,61.9762061 5.08035969,66.5903309 0.325059134,65.5702552 C0.618660932,65.7869552 0.91750562,65.9930845 1.22683609,66.1780723 C5.08035969,68.5089189 17.6632939,63.0702769 21.2546731,62.293328 C24.8460522,61.5163792 24.5943935,57.6316349 27.4150679,57.6316349 C30.2357424,57.6316349 27.4150679,49.8674317 27.4150679,49.8674317 L27.4150679,49.7352975 L27.4150679,48.7205072 C27.345387,40.5803129 29.3299513,32.5559158 33.1822461,25.4014708 C34.5362181,22.9059945 35.2143239,20.0950324 35.1483296,17.2514358 Z" id="Shape"></path>
                        <path d="M8.09002444,0.623797385 C7.95842876,0.512130718 7.82111153,0.393484885 7.6952374,0.274839051 L7.39771674,0.274839051 C7.62657879,0.414422385 7.86116239,0.519109885 8.09002444,0.623797385 Z" id="Shape"></path>
                    </g>
                    <path d="M383,304.937899 L379.910526,312 C379.028575,310.527935 378.06199,309.109856 377.015789,307.753124 C375.514939,305.718473 373.743733,303.90456 371.752632,302.363064 C369.597722,300.771918 367.563903,299.018353 365.668421,297.117237 C364.215789,295.690928 362.626316,294.275303 361.5,293.682343 C360.845635,293.348908 360.220553,292.959306 359.631579,292.517791 C357.578947,290.915196 353.547368,287.629877 352.594737,285.316799 C352.594737,285.316799 344.347368,277.469427 340.736842,275.898884 L337.136842,271.625298 L333,266.7267 L343.568421,256 L346.678947,260.417819 L351.305263,266.988458 C353.397909,269.627732 355.791854,272.005527 358.436842,274.071926 C361.071784,276.011699 363.505375,278.218625 365.7,280.65859 C369.160096,284.477683 372.195888,288.671418 374.752632,293.164171 L381.4,302.646189 L381.447368,302.720977 L382.5,304.21139 L383,304.937899 Z" id="Shape" fill="#DB8B8B" fill-rule="nonzero"></path>
                    <path d="M317,305.230971 L312.761999,315 L309.324028,311.39895 L307.907757,308.511811 L306.675277,305.997375 L300.58315,302.396325 L294.636975,298.627297 C293.610027,297.977415 292.489758,297.478581 291.312522,297.146982 C286.171783,295.687664 287.058304,292.884514 287.058304,292.884514 L287.528592,285.608924 L287.852929,280.543307 L301.907525,279 L301.204796,282.858268 L300.318275,287.740157 C305.615777,288.511811 309.053747,296.994751 309.053747,296.994751 C311.14572,300.044619 313.12958,301.309711 314.237731,301.813648 C314.52624,301.95511 314.831113,302.062607 315.145874,302.133858 L317,305.230971 Z" id="Shape" fill="#DB8B8B" fill-rule="nonzero"></path>
                    <polygon id="Shape" fill="#000000" fill-rule="nonzero" opacity="0.1" points="381.115 303.065 381 303 381.07 303"></polygon>
                    <path d="M383,304.726272 L379.386104,312 C378.354446,310.483822 377.223788,309.023248 376,307.62586 C376.55409,308.099037 379.650836,310.618982 380.64204,308.31912 C381.021871,307.381135 381.45966,306.462712 381.953386,305.568088 C382.259456,305.091456 382.414803,304.549439 382.402814,304 L383,304.726272 Z" id="Shape" fill="#000000" fill-rule="nonzero" opacity="0.1"></path>
                    <path d="M382.456894,304.196984 L381.40232,302.70586 L381.354864,302.631036 L374.695228,293.144493 C372.12815,288.652544 369.081448,284.460388 365.610071,280.643634 C363.411396,278.202505 360.973313,275.994525 358.333509,274.053827 C355.683639,271.986442 353.285277,269.607512 351.188769,266.966978 L346.569734,260.419927 L343.453467,256 L343,256.45963 L345.789349,260.419927 L350.424202,266.993701 C352.52362,269.627047 354.923715,271.998764 357.574216,274.059172 C360.21402,275.99987 362.652103,278.207849 364.850778,280.648979 C368.316317,284.464869 371.357681,288.655186 373.920116,293.144493 L380.590298,302.641726 L380.637754,302.716549 L381.692328,304.207673 L382.219615,304.934529 L379.446085,311.262455 C379.736093,311.727429 379.899552,312 379.899552,312 L383,304.934529 L382.456894,304.196984 Z" id="Shape" fill="#000000" fill-rule="nonzero" opacity="0.1"></path>
                    <path d="M316,305.365193 L311.804994,315 L308.401902,311.448427 L307,308.600956 L311.023781,311.189566 C314.978002,308.79769 313.453032,302.683393 313.271106,302 C313.556688,302.139518 313.858468,302.245538 314.170036,302.31581 L316,305.365193 Z" id="Shape" fill="#000000" fill-rule="nonzero" opacity="0.1"></path>
                    <path d="M314.33402,303.475161 C314.33402,303.475161 316.408299,310.55292 311.982793,313.209802 L306.166897,309.474923 C306.166897,309.474923 305.0365,312.142693 308.659424,315.610795 C311.391168,317.969197 312.824886,321.419851 312.536688,324.942549 C312.536688,324.942549 313.101887,331.339754 316.413951,329.744536 C316.413951,329.744536 321.675952,328.65565 321.399005,319.879229 C321.399005,319.879229 319.302117,312.55647 321.743776,309.458589 C321.8116,309.375108 321.881308,309.293442 321.952899,309.21359 C324.722374,306.279042 321.122057,301.749276 321.122057,301.749276 C321.122057,301.749276 314.610967,299.212172 314.33402,303.475161 Z" id="Shape" fill="#535461" fill-rule="nonzero"></path>
                    <path d="M319.739837,232.358271 C316.902279,232.358271 317.160239,236.464774 313.554066,237.286074 C309.947893,238.107375 297.307863,243.850892 293.443731,241.392578 C289.579598,238.934263 287,233.732692 287,233.732692 L287,233.173984 C293.443731,236.732954 301.440484,233.173984 301.440484,233.173984 C307.136658,234.336097 316.933866,226.408031 319.745101,224 L319.745101,224.139677 C319.745101,224.139677 322.57213,232.358271 319.739837,232.358271 Z" id="Shape" fill="#000000" fill-rule="nonzero" opacity="0.1"></path>
                    <path d="M287.274096,280.634631 L300,279 L299.363705,283.086577 C295.423569,285.166005 289.750753,285.805401 287,286 L287.274096,280.634631 Z" id="Shape" fill="#000000" fill-rule="nonzero" opacity="0.1"></path>
                    <path d="M346,260.230769 C345.384763,264.846154 340.352828,268.810256 336.931512,271 L333,266.297436 L343.043863,256 L346,260.230769 Z" id="Shape" fill="#000000" fill-rule="nonzero" opacity="0.1"></path>
                    <path d="M301.893826,233.252779 C301.893826,233.252779 293.868516,236.601655 287.392229,233.252779 L286.096971,250.764716 C286.096971,250.764716 286.356023,258.487633 285.319817,262.856416 C284.283611,267.2252 286.096971,285 286.096971,285 C286.096971,285 302.152878,284.742394 305.256209,278.822718 C305.256209,278.822718 311.986261,265.432474 310.696291,260.800827 L324.679785,263.892097 L332.969433,272.892528 C332.969433,272.892528 347.211979,266.200034 345.916722,257.956649 L326.752197,235.565974 L321.058351,224 C321.058351,224 308.629165,234.540808 301.893826,233.252779 Z" id="Shape" fill="#293855" fill-rule="nonzero"></path>
                    <path d="M332.977735,272.888314 L324.693298,263.878145 L310.70439,260.797656 C310.736111,260.913306 310.762545,261.034212 310.788979,261.160376 C310.831954,261.407067 310.856692,261.656557 310.862995,261.906842 C311.079754,267.26353 305.269546,278.823251 305.269546,278.823251 C302.1609,284.747673 286.110135,285 286.110135,285 C286.110135,285 284.270324,267.242503 285.327686,262.863582 C286.385049,258.48466 286.104848,250.772923 286.104848,250.772923 L287.352536,233.91434 L287.400117,233.267752 C289.207996,234.172803 291.192568,234.6751 293.215612,234.739659 C296.080959,234.821955 298.935783,234.359854 301.626932,233.378145 L301.901846,233.267752 C302.053401,233.295789 302.208481,233.318568 302.367086,233.336091 C307.928813,233.945881 316.847667,227.353844 319.951027,224.898914 C320.654173,224.341693 321.061258,224 321.061258,224 L326.760442,235.564978 L345.919854,257.964236 C345.961073,258.221752 345.985795,258.481611 345.993869,258.742244 C346.326939,266.627456 332.977735,272.888314 332.977735,272.888314 Z" id="Shape" fill="#000000" fill-rule="nonzero" opacity="0.1"></path>
                    <path d="M315,170.419093 C309.104577,181.734591 300.410045,175.471167 298,173.392927 L298.810553,173.341258 C301.096313,175.241527 304.21424,175.517095 305.759695,175.517095 C306.302165,175.519251 306.843838,175.561453 307.380801,175.643397 C311.84965,176.309352 313.21138,170 313.21138,170 L315,170.419093 Z" id="Shape" fill="#FFFFFF" fill-rule="nonzero" opacity="0.3"></path>
                    <path d="M380.602271,303.007857 C382.421921,302.909136 384.159927,303.746251 385.171245,305.208514 C385.171245,305.208514 391.952733,310.72044 395.604714,311.234613 C395.604714,311.234613 406.571318,315.769612 403.436479,322.06308 C400.301641,328.356549 392.731111,322.577253 392.731111,322.577253 C392.731111,322.577253 384.638109,315.527951 382.025743,316.03184 C382.025743,316.03184 374.844403,311.877328 376.161249,307.846218 C376.161249,307.846218 379.30675,310.931251 380.255732,308.560917 C380.582698,307.68439 380.960031,306.826107 381.38598,305.990056 C381.892459,305.023412 382.153696,303.76369 380.602271,303.007857 Z" id="Shape" fill="#535461" fill-rule="nonzero"></path>
                    <path d="M299,232.573482 C296.477833,233.357416 291.403941,234.404416 287.078818,232 L287,233.152226 C292.246305,235.18835 298.049261,232.96808 299,232.573482 Z" id="Shape" fill="#000000" fill-rule="nonzero" opacity="0.1"></path>
                    <path d="M307,231 C305.345298,231.312748 303.58965,231.399544 301.868397,231.253698 C301.868397,231.253698 301.167748,231.424091 300,231.632351 C302.030584,231.833037 304.46988,231.541474 307,231 Z" id="Shape" fill="#000000" fill-rule="nonzero" opacity="0.1"></path>
                    <path d="M346,259.192312 C345.74244,266.923553 332.50274,273 332.50274,273 L332.31642,272.803127 C335.982545,270.850364 345.397199,265.141058 344.312157,258.404821 L324.447128,235.727223 L319,224.909871 C319.728841,224.345857 320.150802,224 320.150802,224 L326.05825,235.70594 L345.9178,258.378217 C345.963536,258.647541 345.990995,258.919492 346,259.192312 Z" id="Shape" fill="#000000" fill-rule="nonzero" opacity="0.1"></path>
                    <path d="M307.360154,260 C308.598319,264.652122 302.159862,278.081036 302.159862,278.081036 C301.280512,279.837449 299.324717,281.098058 297,282 C299.95138,281.082234 302.584376,279.684488 303.64566,277.564133 C303.64566,277.564133 309.356379,265.643731 308.982402,260.374491 L307.360154,260 Z" id="Shape" fill="#000000" fill-rule="nonzero" opacity="0.1"></path>
                    <path d="M303.5,192 C299.909127,192 297,196.250559 297,201.5 C297,206.749441 299.909127,211 303.5,211 C307.090873,211 310,206.749441 310,201.5 C310,196.250559 307.090873,192 303.5,192 Z M303.5,207.094799 C301.38711,207.094799 299.669736,204.592282 299.669736,201.5 C299.669736,198.407718 301.381906,195.905201 303.5,195.905201 C305.618094,195.905201 307.330264,198.407718 307.330264,201.5 C307.330264,204.592282 305.61289,207.094799 303.5,207.094799 Z" id="Shape" fill="#FFFFFF" fill-rule="nonzero" opacity="0.3"></path>
                    <path d="M346.998589,127.013658 C346.998589,127.320275 346.998589,127.623367 346.998589,127.922934 C346.998589,128.086815 346.998589,128.250697 346.962022,128.409291 C346.742881,131.124877 345.843987,133.739257 344.350077,136.005976 C344.250823,136.159284 344.146345,136.307305 344.041867,136.455327 C341.151538,140.556831 336.482509,142.994133 331.50453,143 C331.154529,143 330.804529,143 330.459752,142.962995 C330.114975,142.925989 329.817214,142.91013 329.498556,142.867838 C325.016869,142.252889 321.024659,139.686337 318.570177,135.842094 C318.486595,135.720505 318.408237,135.588343 318.335102,135.466754 L318.335102,135.440321 C316.803185,132.903345 315.994993,129.986801 316.000023,127.013658 C315.999085,126.221157 316.054953,125.429632 316.167188,124.645311 L316.25077,124.116663 C317.109537,119.214092 320.176477,114.996356 324.546308,112.70842 L325.110488,112.428236 C328.8138,110.698773 333.045296,110.533268 336.869466,111.968312 C337.362515,112.153818 337.845528,112.365573 338.316483,112.60269 C341.786678,114.351814 344.496908,117.335472 345.927692,120.981775 C345.979931,121.103364 346.021722,121.219667 346.063513,121.341256 C346.707259,123.160422 347.023948,125.081533 346.998589,127.013658 Z" id="Shape" fill="#D54941" fill-rule="nonzero"></path>
                    <path d="M347,121.518413 C345.983287,121.838069 344.928325,122.000275 343.867833,122 L343.686103,122 L343.269193,122 C343.012634,122 342.761419,121.966005 342.520894,121.932011 C340.442036,121.668526 338.450346,120.892349 336.705539,119.665722 C332.039359,114.623229 327.469388,112.90085 325,112.300283 L325.577259,112 C328.003887,112.651558 331.943149,114.266289 336.04276,118.345609 C337.09975,119.405633 338.346555,120.230201 339.709427,120.770538 C340.646105,121.13759 341.620229,121.386701 342.611759,121.512748 C342.825559,121.512748 343.034014,121.558073 343.242468,121.57507 L343.664723,121.57507 C344.748217,121.606467 345.829831,121.461242 346.87172,121.144476 C346.909135,121.286119 346.95724,121.410765 347,121.518413 Z" id="Shape" fill="#FFFFFF" fill-rule="nonzero" opacity="0.5"></path>
                    <path d="M347,128.395238 C347,128.599016 347,128.802795 346.963307,129 C345.622718,127.924734 344.189623,127.042683 342.691241,126.370599 L342.298106,126.193115 C338.725867,124.688008 335.035693,123.665511 331.290328,123.14301 C322.484106,121.736281 318.091478,123.050981 316,124.299946 L316.083869,123.642596 C318.348326,122.393631 322.809097,121.256415 331.342746,122.61713 C335.085537,123.141255 338.774669,124.152448 342.350524,125.634367 L342.743659,125.811852 C344.232967,126.476805 345.660148,127.343033 347,128.395238 Z" id="Shape" fill="#FFFFFF" fill-rule="nonzero" opacity="0.5"></path>
                    <path d="M343.903048,124.902389 C343.903048,125.045222 343.872533,125.188055 343.857275,125.336177 C343.769118,126.059158 343.643665,126.815643 343.480915,127.605631 C343.355461,128.20165 343.216445,128.774744 343.063867,129.324915 C343.023179,129.467747 342.982492,129.61058 342.941804,129.748123 C341.009144,136.186177 337.077707,139.450171 333.970193,141.079522 C333.310415,141.428477 332.631063,141.735858 331.935814,142 L331,141.904778 C331.976228,141.588817 332.925489,141.188917 333.837959,140.709215 C336.889527,139.122184 340.749761,135.879352 342.631561,129.504778 C342.672249,129.377816 342.707851,129.245563 342.743452,129.113311 C342.885859,128.601934 343.014703,128.072924 343.129984,127.52628 C343.296125,126.732765 343.423274,125.956883 343.51143,125.198635 C343.51143,125.055802 343.541946,124.907679 343.557204,124.764846 C343.686964,123.452836 343.686964,122.13044 343.557204,120.81843 C343.557204,120.680887 343.531774,120.543345 343.51143,120.411092 C343.201411,117.561539 342.013128,114.892859 340.124189,112.803925 C339.507291,112.131688 338.825581,111.527201 338.089811,111 C338.56984,111.185633 339.040099,111.397533 339.498618,111.634812 C339.796994,111.906371 340.091978,112.202617 340.383573,112.523549 C342.327503,114.698337 343.542554,117.4691 343.847103,120.421672 C343.847103,120.553925 343.877619,120.691468 343.892876,120.82372 C344.032223,122.179232 344.035632,123.546144 343.903048,124.902389 Z" id="Shape" fill="#FFFFFF" fill-rule="nonzero" opacity="0.5"></path>
                    <path d="M345,135.528441 C344.897112,135.689326 344.788809,135.844663 344.680505,136 C344.225869,133.980561 343.496731,132.036516 342.51444,130.22479 C342.462798,130.134686 342.398991,130.052507 342.32491,129.980689 C342.216663,129.879581 342.094398,129.795452 341.962094,129.73104 C339.877256,128.671419 333.649819,130.4467 329.019856,133.009762 C325.456679,134.984761 320.794224,135.33427 318.243682,135.356461 L318,134.96257 L318,134.934832 C320.436823,134.934832 325.223827,134.635253 328.830325,132.638062 C333.162455,130.252529 339.606498,128.19986 342.086643,129.309411 C342.218074,129.368276 342.343276,129.440775 342.460289,129.525773 C342.630437,129.6502 342.774137,129.808743 342.882671,129.991784 C343.820825,131.734979 344.532626,133.596287 345,135.528441 Z" id="Shape" fill="#FFFFFF" fill-rule="nonzero" opacity="0.5"></path>
                    <rect id="Rectangle-path" fill="#000000" fill-rule="nonzero" opacity="0.1" x="137" y="397" width="23" height="2"></rect>
                    <polygon id="Shape" fill="#FFFFFF" fill-rule="nonzero" opacity="0.3" points="97.5157082 51.3625793 42 106.05074 42 119 105 49"></polygon>
                    <polygon id="Shape" fill="#FFFFFF" fill-rule="nonzero" opacity="0.3" points="115.630926 44.7697461 42 139.027331 42 153 134 42"></polygon>
                </g>
            </g>
        </g>
    </g>
</svg>