<?xml version="1.0" encoding="UTF-8"?>
<svg width="557px" height="467px" viewBox="0 0 557 467" version="1.1" xmlns="http://www.w3.org/2000/svg" xmlns:xlink="http://www.w3.org/1999/xlink">
    <!-- Generator: sketchtool 50.2 (55047) - http://www.bohemiancoding.com/sketch -->
    <title>79DEF8CF-B4E8-41FD-8D7A-2AE21A979E00</title>
    <desc>Created with sketchtool.</desc>
    <defs>
        <linearGradient x1="49.9990906%" y1="99.9986219%" x2="49.9990906%" y2="5.94155337e-06%" id="linearGradient-1">
            <stop stop-color="#808080" stop-opacity="0.25" offset="0%"></stop>
            <stop stop-color="#808080" stop-opacity="0.12" offset="54%"></stop>
            <stop stop-color="#808080" stop-opacity="0.1" offset="100%"></stop>
        </linearGradient>
        <linearGradient x1="49.990264%" y1="99.9993906%" x2="49.990264%" y2="0.00841935186%" id="linearGradient-2">
            <stop stop-color="#808080" stop-opacity="0.25" offset="0%"></stop>
            <stop stop-color="#808080" stop-opacity="0.12" offset="54%"></stop>
            <stop stop-color="#808080" stop-opacity="0.1" offset="100%"></stop>
        </linearGradient>
    </defs>
    <g id="Interactive-Landing-Page" stroke="none" stroke-width="1" fill="none" fill-rule="evenodd">
        <g transform="translate(-838.000000, -108.000000)" id="Hero">
            <g>
                <g id="Illustration" transform="translate(838.000000, 108.292835)">
                    <path d="M56.9146417,13.9683801 C36.0112357,17.7106334 12.0076012,24.379595 3.5513811,44.8839045 C-4.176054,63.6298754 4.89327103,84.7472897 10.9953998,104.146854 C17.0088772,123.29958 20.1280897,143.243045 20.2498131,163.317259 C20.4059813,191.554787 14.9053894,221.330862 26.0800935,246.988723 C38.6892316,275.937684 69.8939564,292.682388 80.8315161,322.354351 C85.4182347,334.795753 85.9734995,348.411308 88.1598546,361.558359 C93.0068536,390.692409 106.246449,418.206937 125.680717,439.521007 C138.602191,453.691828 155.427871,465.583749 174.063946,465.867165 C188.200062,466.086957 201.549553,459.672492 214.644548,454.05622 C229.921674,447.506615 245.580513,441.885889 261.535504,437.224756 C268.256521,435.263977 275.179979,433.459367 282.132357,434.072471 C295.52812,435.229273 306.702825,445.062087 319.416075,449.689294 C353.871412,462.182752 389.489335,435.032617 425.841828,432.169533 C457.006064,429.711329 488.309117,445.380208 518.929657,438.838494 C523.441184,437.872565 528.265047,436.12001 530.630706,431.955524 C534.54648,425.055202 529.687913,415.505805 533.169886,408.350987 C536.651859,401.196168 546.050872,400.455815 551.568816,395.013063 C557.185088,389.471983 557.642025,379.905234 554.778941,372.380239 C551.915857,364.855244 546.392129,358.863011 541.082409,353.003811 C514.80108,323.981309 490.604113,293.137376 468.672409,260.702606 C446.299865,227.623863 425.361755,188.714839 431.654756,148.625877 C433.829543,134.831018 439.173967,121.776511 441.597466,108.027923 C444.020966,94.2793354 443.026116,78.708785 434.136096,68.3322741 C428.826376,62.1318172 421.376573,58.5515161 414.146563,55.1389512 C346.716594,23.3095535 274.468546,-9.28333333 201.462793,2.76475597 C189.576656,4.72553479 177.811983,7.87203531 165.78703,8.30005192 C148.382949,8.92472482 132.002638,1.14523364 115.003437,3.67284528 C95.7022015,6.52436137 76.1985254,10.5153271 56.9146417,13.9683801 Z" id="Shape" fill="#293855" fill-rule="nonzero" opacity="0.1"></path>
                    <path d="M110.248982,98.8197819 C110.248982,98.8197819 86.4593562,85.7594912 79.402866,65.7526064 C76.4990664,57.3396251 70.9439967,50.0959116 63.5720353,45.1094808 C60.0541142,42.7685998 56.329058,40.755056 52.4436033,39.0941121" id="Shape" stroke="#535461" stroke-width="2"></path>
                    <path d="M47.9320768,26.5138941 C50.1820561,28.7754413 52.6055556,39.4122326 52.6055556,39.4122326 C52.6055556,39.4122326 41.9861163,36.925109 39.7361371,34.6577778 C37.672434,32.3660094 37.7698033,28.8581688 39.9574589,26.6844081 C42.1451144,24.5106474 45.6535042,24.4356307 47.9320768,26.5138941 Z" id="Shape" fill="#293855" fill-rule="nonzero"></path>
                    <path d="M67.1639045,32.3152544 C67.8232814,35.4386189 64.081028,45.6820976 64.081028,45.6820976 C64.081028,45.6820976 56.5213292,37.8216303 55.8619522,34.6924818 C55.3621824,31.6407386 57.3512611,28.7357092 60.3771921,28.0980194 C63.4031231,27.4603296 66.3953915,29.3155815 67.1696885,32.3094704 L67.1639045,32.3152544 Z" id="Shape" fill="#293855" fill-rule="nonzero"></path>
                    <path d="M88.1598546,54.0284216 C87.1534372,57.0534579 78.7492731,64.0116199 78.7492731,64.0116199 C78.7492731,64.0116199 76.1927414,53.4095327 77.1991589,50.3787124 C78.2069983,47.3440138 81.4841228,45.7009197 84.5188214,46.7087591 C87.55352,47.7165985 89.196614,50.993723 88.1887747,54.0284216 L88.1598546,54.0284216 Z" id="Shape" fill="#293855" fill-rule="nonzero"></path>
                    <path d="M100.369896,74.0353063 C99.8898235,77.1875909 92.7812773,85.4645067 92.7812773,85.4645067 C92.7812773,85.4645067 88.4664071,75.4466044 88.9464798,72.2943198 C89.1643673,70.1721832 90.5326832,68.3422652 92.5065983,67.5331931 C94.4805135,66.724121 96.7395271,67.0672623 98.3841567,68.4259867 C100.028786,69.7847112 100.791996,71.9384054 100.369896,74.0295223 L100.369896,74.0353063 Z" id="Shape" fill="#293855" fill-rule="nonzero"></path>
                    <path d="M55.9140083,54.6762305 C59.1067809,54.6415265 68.2917861,48.753406 68.2917861,48.753406 C68.2917861,48.753406 58.9737487,43.0850779 55.7809761,43.1197819 C52.5865565,43.1565178 50.0267481,45.7758868 50.0634839,48.9703063 C50.1002197,52.1647259 52.7195887,54.7245344 55.9140083,54.6877985 L55.9140083,54.6762305 Z" id="Shape" fill="#293855" fill-rule="nonzero"></path>
                    <path d="M70.4607892,77.8932399 C73.4916096,76.9041745 80.4960436,68.5404984 80.4960436,68.5404984 C80.4960436,68.5404984 69.9055244,65.9203427 66.874704,66.9094081 C63.9561081,67.9842045 62.4099894,71.174611 63.3748293,74.1313785 C64.3396692,77.0881459 67.4699912,78.7525561 70.4607892,77.8990239 L70.4607892,77.8932399 Z" id="Shape" fill="#293855" fill-rule="nonzero"></path>
                    <path d="M87.697134,98.5190135 C90.8552025,98.0562928 99.1726064,90.9998027 99.1726064,90.9998027 C99.1726064,90.9998027 89.1778401,86.6270924 86.0255556,87.0898131 C83.9110602,87.307755 82.0864995,88.6679795 81.2738848,90.6322214 C80.46127,92.5964634 80.7915644,94.84816 82.1340646,96.4962749 C83.4765648,98.1443897 85.6149096,98.9233078 87.702918,98.5247975 L87.697134,98.5190135 Z" id="Shape" fill="#293855" fill-rule="nonzero"></path>
                    <path d="M88.8481516,178.639097 C88.8481516,178.639097 65.0585254,165.578806 58.0020353,145.571921 C55.0982357,137.15894 49.5431659,129.915226 42.1712046,124.928795 C38.6532834,122.587914 34.9282273,120.574371 31.0427726,118.913427" id="Shape" stroke="#535461" stroke-width="2"></path>
                    <path d="M26.5312461,106.333209 C28.7812253,108.594756 31.2047248,119.231547 31.2047248,119.231547 C31.2047248,119.231547 20.5852856,116.744424 18.3353063,114.477092 C16.2716033,112.185324 16.3689726,108.677483 18.5566281,106.503723 C20.7442836,104.329962 24.2526734,104.254945 26.5312461,106.333209 Z" id="Shape" fill="#293855" fill-rule="nonzero"></path>
                    <path d="M45.7630737,112.134569 C46.4224507,115.257934 42.6801973,125.501412 42.6801973,125.501412 C42.6801973,125.501412 35.1204984,117.640945 34.4611215,114.511796 C33.9613517,111.460053 35.9504304,108.555024 38.9763614,107.917334 C42.0022924,107.279644 44.9945608,109.134896 45.7688577,112.128785 L45.7630737,112.134569 Z" id="Shape" fill="#293855" fill-rule="nonzero"></path>
                    <path d="M66.7590239,133.847736 C65.7526064,136.872773 57.3484424,143.830935 57.3484424,143.830935 C57.3484424,143.830935 54.7919107,133.228847 55.7983281,130.198027 C56.4502859,128.234921 58.1000242,126.768752 60.1261025,126.351811 C62.1521809,125.93487 64.2467899,126.630501 65.6209105,128.176666 C66.9950311,129.722831 67.4399017,131.88463 66.7879439,133.847736 L66.7590239,133.847736 Z" id="Shape" fill="#293855" fill-rule="nonzero"></path>
                    <path d="M78.9690654,153.854621 C78.4889927,157.006906 71.3804465,165.283821 71.3804465,165.283821 C71.3804465,165.283821 67.0655763,155.265919 67.545649,152.113634 C67.7635366,149.991498 69.1318524,148.16158 71.1057676,147.352508 C73.0796828,146.543436 75.3386963,146.886577 76.9833259,148.245301 C78.6279555,149.604026 79.3911657,151.75772 78.9690654,153.848837 L78.9690654,153.854621 Z" id="Shape" fill="#293855" fill-rule="nonzero"></path>
                    <path d="M34.5131776,134.495545 C37.7059502,134.460841 46.8909553,128.572721 46.8909553,128.572721 C46.8909553,128.572721 37.572918,122.904393 34.3801454,122.939097 C31.1857259,122.975833 28.6259176,125.595201 28.6626534,128.789621 C28.6993892,131.98404 31.3187581,134.543849 34.5131776,134.507113 L34.5131776,134.495545 Z" id="Shape" fill="#293855" fill-rule="nonzero"></path>
                    <path d="M49.0599585,157.712555 C52.0907788,156.723489 59.0952129,148.359813 59.0952129,148.359813 C59.0952129,148.359813 48.5046937,145.739657 45.4738733,146.728723 C43.43712,147.309984 41.880975,148.958024 41.4174006,151.024743 C40.9538262,153.091462 41.6569748,155.246272 43.2503293,156.641783 C44.8436839,158.037293 47.0723752,158.450282 49.0599585,157.718339 L49.0599585,157.712555 Z" id="Shape" fill="#293855" fill-rule="nonzero"></path>
                    <path d="M66.2963032,178.338328 C69.4543718,177.875607 77.7717757,170.819117 77.7717757,170.819117 C77.7717757,170.819117 67.7770093,166.446407 64.6247248,166.909128 C62.5102295,167.12707 60.6856688,168.487294 59.873054,170.451536 C59.0604392,172.415778 59.3907336,174.667475 60.7332338,176.31559 C62.075734,177.963704 64.2140789,178.742622 66.3020872,178.344112 L66.2963032,178.338328 Z" id="Shape" fill="#293855" fill-rule="nonzero"></path>
                    <path d="M364.629668,8.21954673e-15 L95.9219938,8.21954673e-15 C89.3932266,-0.00921057693 83.1282025,2.5755021 78.5051587,7.18552938 C73.8821149,11.7955567 71.279748,18.0532681 71.2705504,24.5820353 L71.2705504,396.910218 C71.2782151,403.439988 73.8799057,409.699185 78.5031158,414.310463 C83.1263259,418.921741 89.3922257,421.507247 95.9219938,421.498037 L364.629668,421.498037 C371.158435,421.507248 377.423459,418.922535 382.046503,414.312508 C386.669547,409.702481 389.271914,403.444769 389.281111,396.916002 L389.281111,24.5762513 C389.258767,10.9830561 378.222868,-0.0191817286 364.629668,8.21954673e-15 Z" id="Shape" fill="url(#linearGradient-1)" fill-rule="nonzero"></path>
                    <rect id="Rectangle-path" fill="#535461" fill-rule="nonzero" x="75.0590758" y="5.04943925" width="310.439294" height="412.654289" rx="20"></rect>
                    <rect id="Rectangle-path" fill="#F1F1F4" fill-rule="nonzero" x="90.8320665" y="44.0857113" width="278.893313" height="334.587529"></rect>
                    <circle id="Oval" fill="#FFFFFF" fill-rule="nonzero" cx="229.017809" cy="23.9747144" r="3.78852544"></circle>
                    <circle id="Oval" fill="#FFFFFF" fill-rule="nonzero" cx="229.017809" cy="397.511755" r="11.3597923"></circle>
                    <rect id="Rectangle-path" fill="#293855" fill-rule="nonzero" x="124.431371" y="87.5467497" width="54.3696781" height="54.3696781" rx="11.85"></rect>
                    <rect id="Rectangle-path" fill="#293855" fill-rule="nonzero" opacity="0.2" transform="translate(308.941236, 114.731589) rotate(-180.000000) translate(-308.941236, -114.731589) " x="281.756397" y="87.5467497" width="54.3696781" height="54.3696781" rx="11.85"></rect>
                    <rect id="Rectangle-path" fill="#293855" fill-rule="nonzero" x="203.093884" y="87.5467497" width="54.3696781" height="54.3696781" rx="11.85"></rect>
                    <rect id="Rectangle-path" fill="#293855" fill-rule="nonzero" x="124.431371" y="183.561288" width="54.3696781" height="54.3696781" rx="11.85"></rect>
                    <rect id="Rectangle-path" fill="#293855" fill-rule="nonzero" opacity="0.2" transform="translate(308.941236, 210.746127) rotate(-180.000000) translate(-308.941236, -210.746127) " x="281.756397" y="183.561288" width="54.3696781" height="54.3696781" rx="11.85"></rect>
                    <rect id="Rectangle-path" fill="#293855" fill-rule="nonzero" opacity="0.2" x="203.093884" y="183.561288" width="54.3696781" height="54.3696781" rx="11.85"></rect>
                    <rect id="Rectangle-path" fill="#293855" fill-rule="nonzero" x="124.431371" y="279.575826" width="54.3696781" height="54.3696781" rx="11.85"></rect>
                    <rect id="Rectangle-path" fill="#293855" fill-rule="nonzero" transform="translate(308.941236, 306.760665) rotate(-180.000000) translate(-308.941236, -306.760665) " x="281.756397" y="279.575826" width="54.3696781" height="54.3696781" rx="11.85"></rect>
                    <rect id="Rectangle-path" fill="#293855" fill-rule="nonzero" x="203.093884" y="279.575826" width="54.3696781" height="54.3696781" rx="11.85"></rect>
                    <path d="M457.526625,160.737591 C457.419528,160.117852 457.185168,159.52703 456.838328,159.002388 C456.427432,158.523067 455.972346,158.083473 455.479086,157.689418 C452.749034,155.121319 454.218172,150.494112 453.165483,146.925379 C452.008681,143.113718 447.959875,140.192793 444.443198,138.249367 C443.874939,137.921186 443.263646,137.673944 442.62702,137.514798 C441.831318,137.387323 441.02672,137.323497 440.220872,137.323925 C438.961273,137.248159 437.722556,136.96681 436.553811,136.491028 C434.882233,135.808515 433.389958,134.755826 431.677892,134.177425 C431.34516,134.05543 430.990155,134.006124 430.636771,134.032825 C428.768536,133.859304 428.704912,136.184476 426.697861,137.53215 C425.864964,138.11055 425.072555,138.908744 425.072555,139.903593 C425.072555,141.262835 426.460717,142.159356 427.698494,142.755109 C428.936272,143.350862 429.219688,143.235182 429.462617,143.229398 L429.566729,143.229398 C429.734465,143.258318 429.919553,143.402918 430.399626,143.929263 C422.725123,145.126741 417.053005,151.715217 417.009647,159.482461 C417.00773,161.675519 417.471005,163.844042 418.368889,165.84487 C418.316833,166.215047 418.258993,166.596791 418.195369,167.001672 C417.588048,170.732357 416.460166,175.232316 414.528307,178.957217 C412.943489,179.281121 411.942856,179.535618 411.942856,179.535618 C411.958562,179.611858 411.968232,179.689218 411.971776,179.766978 L411.393375,180.194995 L408.964091,181.930197 C404.180717,174.000322 399.293229,164.15594 399.096573,156.763977 C399.096573,156.763977 398.518172,157.163074 397.534891,157.787747 L397.534891,152.535867 L397.222555,152.478027 L397.534891,151.899626 L399.790654,147.631028 C400.639943,146.025331 401.097753,144.241657 401.12676,142.425421 C401.230872,135.715971 401.01108,119.173707 396.372305,116.426303 C390.524673,112.955898 389.356303,127.959616 386.238723,135.646563 C383.925119,141.378515 385.081921,149.684351 385.78757,153.530717 C385.839626,153.790997 385.885898,154.028141 385.93217,154.247934 C384.030318,154.964693 382.180737,155.813142 380.396874,156.787113 C381.628868,157.27297 382.548525,161.130903 383.057518,163.907227 C383.109574,164.202212 383.16163,164.485628 383.207902,164.745909 C382.030718,165.115734 380.830947,165.409398 379.616033,165.625078 L389.66864,187.558037 C387.522773,190.045161 383.04595,194.400519 379.616033,192.144756 C374.936771,189.067664 360.528806,190.60621 360.528806,190.60621 C360.528806,190.60621 352.292378,168.736874 352.685691,162.189377 C352.685691,162.189377 352.25189,162.409169 351.528889,162.767778 L351.528889,156.804465 C351.261535,156.98493 350.981212,157.145391 350.690208,157.284538 L350.99676,156.740841 L351.442129,155.948432 C352.291409,154.446878 352.797118,152.775665 352.922835,151.055161 C353.408692,144.328359 354.120125,127.05731 348.798837,124.899875 C342.170363,122.210312 340.221153,141.424787 340.221153,141.424787 L341.632451,158.823084 L341.661371,159.210613 C338.51487,159.488245 335.929418,159.488245 335.929418,159.488245 C336.721828,160.269086 336.976324,164.578172 337.08622,167.279304 C337.08622,167.556937 337.08622,167.811433 337.08622,168.048577 C335.478266,168.32621 334.101672,168.349346 333.205151,167.944465 L343.732046,196.384434 C343.732046,196.384434 344.512887,203.325244 358.157362,206.3792 C366.179782,208.189595 371.772918,209.849605 375.023531,210.936999 C369.459315,224.124538 350.152295,271.669086 355.814839,283.237103 C355.814839,283.237103 358.845659,282.080301 361.945888,281.062316 C362.663105,291.033946 363.906667,306.135992 365.416293,315.812638 C363.76785,320.908349 362.524289,325.182731 362.119408,327.629367 C362.084704,327.831807 362.055784,328.022679 362.032648,328.207767 C360.875846,337.433261 351.505753,355.114974 365.543541,370.10134 C365.543541,370.10134 375.289595,375.885348 376.070436,382.78567 C376.724029,388.604382 387.025348,403.110675 390.287529,407.587497 C387.678941,412.070104 380.321682,423.892617 373.727913,426.987061 C365.543541,430.833427 372.166231,436.212555 379.963074,435.084673 C387.759917,433.956791 413.510322,415.482669 413.510322,415.482669 C413.510322,415.482669 413.331018,403.405659 410.890166,402.52649 L408.547643,397.691059 C409.847795,397.488998 411.120746,397.139712 412.341952,396.649938 C422.868847,392.421828 437.294164,384.734881 437.294164,384.734881 C437.294164,384.734881 437.57758,375.706044 433.488287,372.397591 C431.394476,365.936854 421.700478,360.135493 421.700478,360.135493 C421.700478,360.135493 414.672908,342.060467 397.517539,337.051516 C397.517539,337.051516 394.746999,333.14731 394.851111,328.676272 C395.978993,326.513053 396.742482,325.136459 396.742482,325.136459 L405.615151,304.082669 C407.912142,302.034484 409.865045,299.630461 411.399159,296.962555 C411.530263,296.723482 411.657511,296.482482 411.780903,296.239553 C417.131111,296.87001 421.324517,297.500467 421.324517,297.500467 L420.936989,279.049481 C417.40296,240.979138 428.323167,229.833354 428.323167,229.833354 C428.323167,229.833354 443.93999,211.000623 445.478536,197.54702 C446.918754,185.128754 436.403427,184.504081 434.77812,184.480945 C434.467934,182.63938 434.53682,180.753886 434.980561,178.939865 L435.165649,179.072897 C435.495653,179.343192 435.898032,179.510179 436.322451,179.55297 C436.407088,179.561103 436.49231,179.561103 436.576947,179.55297 L436.715763,179.55297 C437.09896,179.534936 437.471227,179.419473 437.797373,179.217497 C441.875099,177.077414 445.050519,173.207913 449.527342,172.091599 C450.464351,171.860239 451.441848,171.756127 452.361506,171.455358 C454.44322,170.720952 456.121669,169.147407 456.988712,167.117352 C457.829072,165.098929 458.017155,162.868228 457.526625,160.737591 Z M400.264943,364.334683 C401.045784,367.024247 413.52189,376.24974 413.52189,376.24974 L414.001963,379.563977 C410.803366,382.593767 407.437586,385.442032 403.920436,388.095389 L399.484102,378.939304 C399.484102,378.939304 392.855628,357.798754 387.007996,355.496719 C385.926386,355.068702 385.579346,353.761516 385.72973,351.927985 C389.529823,354.710093 399.617134,362.177248 400.247591,364.352035 L400.264943,364.334683 Z" id="Shape" fill="url(#linearGradient-2)" fill-rule="nonzero"></path>
                    <path d="M377.007445,208.548204 C377.007445,208.548204 350.493551,269.904964 356.931153,283.161911 C356.931153,283.161911 367.539024,278.997425 369.07757,279.75513 C370.616116,280.512835 385.741298,200.595192 385.741298,200.595192 L377.007445,208.548204 Z" id="Shape" fill="#575988" fill-rule="nonzero"></path>
                    <path d="M377.007445,208.548204 C377.007445,208.548204 350.493551,269.904964 356.931153,283.161911 C356.931153,283.161911 367.539024,278.997425 369.07757,279.75513 C370.616116,280.512835 385.741298,200.595192 385.741298,200.595192 L377.007445,208.548204 Z" id="Shape" fill="#000000" fill-rule="nonzero" opacity="0.05"></path>
                    <path d="M391.398058,403.98406 C391.398058,403.98406 382.305597,421.029533 374.352586,424.80649 C366.399574,428.583448 372.837175,433.898951 380.414226,432.759502 C387.991277,431.620052 412.989761,413.440914 412.989761,413.440914 C412.989761,413.440914 412.816241,401.543209 410.439013,400.675607 C408.061786,399.808006 391.398058,403.98406 391.398058,403.98406 Z" id="Shape" fill="#575988" fill-rule="nonzero"></path>
                    <path d="M415.262876,376.336501 C415.262876,376.336501 402.387674,389.211703 396.701994,390.351153 C391.016314,391.490602 401.624185,399.061869 411.850312,394.897383 C422.076438,390.732897 436.09109,383.155846 436.09109,383.155846 C436.09109,383.155846 436.467051,371.009429 430.02945,369.898899 C423.591848,368.78837 415.262876,376.336501 415.262876,376.336501 Z" id="Shape" fill="#575988" fill-rule="nonzero"></path>
                    <path d="M362.235088,271.038629 C362.235088,271.038629 364.884164,317.247072 368.296729,323.673105 C371.709294,330.099138 384.584496,349.805254 384.584496,349.805254 C384.584496,349.805254 399.356854,360.413126 400.114559,363.062201 C400.872264,365.711277 412.989761,374.803738 412.989761,374.803738 L413.747466,380.107674 C413.747466,380.107674 433.823759,378.950872 432.684309,372.154663 C431.54486,365.358453 420.942773,358.897715 420.942773,358.897715 C420.942773,358.897715 414.123427,341.094538 397.459699,336.172347 C397.459699,336.172347 392.155763,328.595296 396.701994,322.539439 C396.701994,322.539439 408.06757,294.134174 414.505171,290.727394 C420.942773,287.320613 411.850312,267.643416 411.850312,267.643416 L362.235088,271.038629 Z" id="Shape" fill="#67647E" fill-rule="nonzero"></path>
                    <path d="M362.235088,271.038629 C362.235088,271.038629 364.884164,317.247072 368.296729,323.673105 C371.709294,330.099138 384.584496,349.805254 384.584496,349.805254 C384.584496,349.805254 399.356854,360.413126 400.114559,363.062201 C400.872264,365.711277 412.989761,374.803738 412.989761,374.803738 L413.747466,380.107674 C413.747466,380.107674 433.823759,378.950872 432.684309,372.154663 C431.54486,365.358453 420.942773,358.897715 420.942773,358.897715 C420.942773,358.897715 414.123427,341.094538 397.459699,336.172347 C397.459699,336.172347 392.155763,328.595296 396.701994,322.539439 C396.701994,322.539439 408.06757,294.134174 414.505171,290.727394 C420.942773,287.320613 411.850312,267.643416 411.850312,267.643416 L362.235088,271.038629 Z" id="Shape" fill="#000000" fill-rule="nonzero" opacity="0.05"></path>
                    <path d="M399.35107,377.470166 L411.497487,402.844611 C409.606116,409.282212 391.421194,407.009097 391.421194,407.009097 C391.421194,407.009097 377.406542,388.072253 376.648837,381.252908 C375.891132,374.433562 366.42271,368.753666 366.42271,368.753666 C352.789803,353.981308 361.87648,336.559875 363.015929,327.467414 C363.015929,327.293894 363.067985,327.103022 363.096906,326.889013 C364.103323,320.792669 370.234372,303.255556 375.000395,290.120073 C378.216303,281.27054 380.813323,274.422274 380.813323,274.422274 C380.813323,274.422274 406.187767,275.579076 411.468567,284.648401 C413.89785,288.812887 412.810457,293.145109 410.919086,296.615514 C409.439219,299.238031 407.548986,301.606679 405.320166,303.631516 L396.69621,324.419242 C396.69621,324.419242 381.553676,352.089938 387.256708,354.368837 C392.95974,356.647736 399.35107,377.470166 399.35107,377.470166 Z" id="Shape" fill="#67647E" fill-rule="nonzero"></path>
                    <path d="M354.120125,152.888692 C354.000287,154.582158 353.510649,156.228764 352.685691,157.712555 L352.25189,158.493396 L350.117591,162.339761 L343.298245,162.339761 L343.153645,160.546719 L341.782835,143.402918 C341.782835,143.402918 343.674206,124.466075 350.117591,127.115151 C355.28271,129.243666 354.594413,146.260218 354.120125,152.888692 Z" id="Shape" fill="#F7C4A7" fill-rule="nonzero"></path>
                    <path d="M352.25189,158.487612 L350.117591,162.333977 L343.298245,162.333977 L343.153645,160.540935 C346.329065,160.263302 350.106023,159.684901 352.25189,158.487612 Z" id="Shape" fill="#000000" fill-rule="nonzero" opacity="0.1"></path>
                    <path d="M352.766667,158.551236 L352.766667,167.261952 L338.752015,171.050478 C338.752015,171.050478 338.752015,170.142388 338.711526,168.881475 C338.63055,166.220831 338.381838,161.975369 337.612565,161.206096 C337.618349,161.217664 348.978141,161.217664 352.766667,158.551236 Z" id="Shape" fill="#E6E6F0" fill-rule="nonzero"></path>
                    <path d="M352.766667,163.658515 L352.766667,167.261952 L338.752015,171.050478 C338.752015,171.050478 338.752015,170.142388 338.711526,168.881475 C343.379221,168.065929 350.117591,164.948349 352.766667,163.658515 Z" id="Shape" fill="#000000" fill-rule="nonzero" opacity="0.1"></path>
                    <path d="M434.506272,178.031776 C431.741516,186.013707 435.333385,189.599792 435.333385,189.599792 C435.333385,189.599792 401.24244,191.872908 409.577196,185.811267 C414.441547,182.271454 416.598982,174.463043 417.54756,168.58649 C417.951028,166.148355 418.200235,163.687189 418.293697,161.217664 C418.293697,161.217664 445.536376,160.818567 439.8854,168.41297 C437.615069,171.327983 435.801287,174.571337 434.506272,178.031776 Z" id="Shape" fill="#F7C4A7" fill-rule="nonzero"></path>
                    <path d="M439.891184,168.395618 C437.11486,172.132087 436.206771,172.681568 435.263977,175.376916 C434.41172,175.521333 433.548714,175.592928 432.684309,175.590924 C426.188868,175.590924 419.866947,174.254818 417.54756,168.592274 C417.95127,166.152229 418.200478,163.689123 418.293697,161.217664 C418.293697,161.217664 445.530592,160.801215 439.891184,168.395618 Z" id="Shape" fill="#000000" fill-rule="nonzero" opacity="0.1"></path>
                    <circle id="Oval" fill="#F7C4A7" fill-rule="nonzero" cx="431.926604" cy="161.200312" r="15.5300623"></circle>
                    <path d="M353.900332,163.849387 C353.900332,163.849387 339.127975,171.426438 334.963489,169.529283 L345.189616,197.558588 C345.189616,197.558588 345.947321,204.377934 359.204268,207.391402 C372.461215,210.40487 378.898816,213.071298 378.898816,213.071298 L403.515556,183.908328 L391.016314,187.315109 C391.016314,187.315109 384.578712,196.40757 380.026698,193.37675 C375.474683,190.345929 361.477383,191.872908 361.477383,191.872908 C361.477383,191.872908 353.524372,170.292773 353.900332,163.849387 Z" id="Shape" fill="#575988" fill-rule="nonzero"></path>
                    <path d="M353.900332,163.849387 C353.900332,163.849387 339.127975,171.426438 334.963489,169.529283 L345.189616,197.558588 C345.189616,197.558588 345.947321,204.377934 359.204268,207.391402 C372.461215,210.40487 378.898816,213.071298 378.898816,213.071298 L403.515556,183.908328 L391.016314,187.315109 C391.016314,187.315109 384.578712,196.40757 380.026698,193.37675 C375.474683,190.345929 361.477383,191.872908 361.477383,191.872908 C361.477383,191.872908 353.524372,170.292773 353.900332,163.849387 Z" id="Shape" fill="#000000" fill-rule="nonzero" opacity="0.05"></path>
                    <path d="M411.474351,181.733541 C411.474351,181.733541 431.498588,176.007373 433.603967,186.644164 C433.603967,186.644164 424.349553,182.132638 411.092606,190.114569 C410.097757,190.69297 409.126044,191.346563 408.200602,192.011724 C396.534258,200.184528 388.38459,212.834154 385.110841,227.20163 L376.648837,264.277124 L375.891132,274.24297 C375.891132,274.24297 363.744714,276.637549 361.500519,273.04568 C359.256324,269.453811 360.742814,257.492482 364.149595,253.5073 C367.556376,249.522118 372.84296,232.360966 372.84296,232.360966 L376.157196,222.412471 C378.93152,214.044849 383.341484,206.312173 389.130727,199.663967 L389.92892,198.698037 C394.918003,192.710761 401.244124,187.979544 408.397259,184.885826 C410.334901,184.047144 411.740415,182.988671 411.474351,181.733541 Z" id="Shape" fill="#000000" fill-rule="nonzero" opacity="0.1"></path>
                    <path d="M411.474351,180.975836 C411.474351,180.975836 431.498588,175.249668 433.603967,185.886459 C433.603967,185.886459 424.349553,181.374933 411.092606,189.356864 C410.097757,189.935265 409.126044,190.588858 408.200602,191.254019 C396.534258,199.426822 388.38459,212.076449 385.110841,226.443925 L376.648837,263.519418 L375.891132,273.485265 C375.891132,273.485265 363.744714,275.879844 361.500519,272.287975 C359.256324,268.696106 360.742814,256.734777 364.149595,252.749595 C367.556376,248.764413 372.860312,231.614829 372.860312,231.614829 L376.174548,221.666334 C378.948872,213.298712 383.358836,205.566036 389.148079,198.91783 L389.946272,197.9519 C394.935355,191.964624 401.261476,187.233407 408.414611,184.139688 C410.334901,183.289439 411.740415,182.230966 411.474351,180.975836 Z" id="Shape" fill="#E6E6F0" fill-rule="nonzero"></path>
                    <path d="M361.118775,257.324746 L361.286511,263.849107 L366.590447,260.442326 C366.590447,260.442326 376.035732,226.067965 382.687342,216.697871 C383.468183,215.593126 383.844143,213.944683 384.578712,213.667051 L411.659439,187.534901 L411.659439,181.461693 C411.659439,181.461693 397.835659,191.687819 396.69621,193.60811 C396.210353,194.412087 388.951423,198.379917 384.549792,204.597726 C380.629891,210.322159 377.149517,216.335471 374.138577,222.585992 L365.046116,243.038245 L361.118775,257.324746 Z" id="Shape" fill="#000000" fill-rule="nonzero" opacity="0.1"></path>
                    <path d="M411.665223,181.085732 L411.665223,186.956501 L384.202752,213.273738 C383.473967,213.551371 383.092222,215.199813 382.311381,216.304559 C375.653988,225.680436 366.214486,260.049013 366.214486,260.049013 L360.91055,263.455794 L360.742814,256.931433 L364.699076,242.633364 L373.791537,222.181111 C376.802359,215.930529 380.282738,209.917207 384.202752,204.192845 C388.575462,197.98082 395.840177,194.012991 396.349169,193.203229 C397.332451,191.572139 408.00973,183.75216 410.948006,181.635213 L411.665223,181.085732 Z" id="Shape" fill="#787C9C" fill-rule="nonzero"></path>
                    <path d="M426.755701,144.715888 C425.558411,144.137487 424.204953,143.240966 424.204953,141.90486 C424.204953,140.927362 424.974226,140.117601 425.783988,139.591256 C427.947207,138.116334 427.77947,135.449907 430.266594,136.282804 C431.932388,136.861205 433.384174,137.896542 435.003697,138.567487 C436.137711,139.036548 437.341728,139.314097 438.566646,139.388816 C439.34155,139.388693 440.115221,139.450586 440.880249,139.573904 C441.489348,139.733364 442.073334,139.976691 442.615452,140.296906 C446.068465,142.228844 448.632853,145.43018 449.764486,149.22163 C450.794039,152.738307 450.689927,156.902793 453.339003,159.430405 C453.818035,159.818075 454.259562,160.249919 454.657757,160.720239 C454.997187,161.246367 455.223687,161.837237 455.322918,162.455441 C455.800001,164.554852 455.618225,166.7503 454.802357,168.742658 C453.964084,170.738897 452.32453,172.29028 450.285047,173.01704 C449.388525,173.312025 448.445732,173.410353 447.531859,173.641713 C443.182285,174.740675 440.099408,178.55812 436.131578,180.663499 C435.814848,180.86204 435.452288,180.975589 435.078889,180.993188 C434.670167,180.947586 434.283924,180.782628 433.968359,180.518899 C432.435597,179.425722 431.174683,177.725223 431.215171,175.839637 C431.338654,174.662188 431.681997,173.518368 432.227373,172.46756 C433.057587,170.500378 433.693009,168.456567 434.124528,166.365431 C434.261747,165.885003 434.275672,165.377741 434.165016,164.890509 C433.875815,163.970852 432.85783,163.542835 432.152181,162.889242 C430.810291,161.64568 430.648339,159.528733 431.145763,157.764611 C431.643188,156.000488 432.684309,154.44459 433.459367,152.784579 C433.726271,152.285913 433.882147,151.735411 433.916303,151.170841 C433.916303,148.955566 430.920187,147.752492 429.659273,146.289138 C428.016615,144.287871 429.098224,145.87269 426.755701,144.715888 Z" id="Shape" fill="#000000" fill-rule="nonzero" opacity="0.1"></path>
                    <path d="M427.137445,144.715888 C425.940156,144.137487 424.586698,143.240966 424.586698,141.90486 C424.586698,140.927362 425.355971,140.117601 426.165732,139.591256 C428.328951,138.116334 428.161215,135.449907 430.648339,136.282804 C432.314133,136.861205 433.765919,137.896542 435.385441,138.567487 C436.519456,139.036548 437.723473,139.314097 438.94839,139.388816 C439.729232,139.435088 442.256843,138.232015 442.997196,138.417103 C443.606295,138.576562 444.190281,138.819889 444.732399,139.140104 C448.185412,141.072043 450.7498,144.273378 451.881433,148.064829 C452.910987,151.581506 452.193769,155.977352 454.842845,158.476044 C455.288214,158.90406 454.680893,160.211246 455.039502,160.691319 C455.378931,161.217447 455.605431,161.808317 455.704663,162.426521 C456.181745,164.525932 455.99997,166.72138 455.184102,168.713738 C454.345828,170.709977 452.706275,172.26136 450.666791,172.98812 C449.77027,173.283105 448.827477,173.381433 447.913603,173.612793 C443.564029,174.711755 440.481153,178.5292 436.513323,180.634579 C436.196592,180.83312 435.834033,180.946669 435.460633,180.964268 C435.051911,180.918666 434.665668,180.753708 434.350104,180.489979 C432.817342,179.396802 431.556428,177.696303 431.596916,175.810717 C431.720399,174.633268 432.063741,173.489448 432.609117,172.43864 C433.439332,170.471458 434.074754,168.427647 434.506272,166.336511 C434.643492,165.856083 434.657416,165.348821 434.54676,164.861589 C434.25756,163.941931 433.239574,163.513915 432.533925,162.860322 C431.192035,161.61676 431.030083,159.499813 431.527508,157.735691 C432.024933,155.971568 433.066054,154.41567 433.841111,152.755659 C434.108015,152.256993 434.263892,151.706491 434.298048,151.141921 C434.298048,148.926646 431.301931,147.723572 430.041018,146.260218 C428.398359,144.287871 429.479969,145.87269 427.137445,144.715888 Z" id="Shape" fill="#B96B6B" fill-rule="nonzero"></path>
                    <path d="M410.92487,296.644434 C403.98406,295.823105 395.23864,295.019128 391.398058,295.661153 C385.214953,296.690706 376.538941,291.178546 374.977259,290.148993 C378.193167,281.29946 380.790187,274.451194 380.790187,274.451194 C380.790187,274.451194 406.164631,275.607996 411.445431,284.677321 C413.903634,288.841807 412.816241,293.174029 410.92487,296.644434 Z" id="Shape" fill="#000000" fill-rule="nonzero" opacity="0.1"></path>
                    <path d="M444.049886,198.698037 C442.534476,211.954984 427.386158,230.510083 427.386158,230.510083 C427.386158,230.510083 416.778287,241.499699 420.190852,278.991641 L420.566812,297.170779 C420.566812,297.170779 398.217404,293.763998 391.403842,294.897664 C384.59028,296.031329 374.740114,289.217767 374.740114,289.217767 C374.740114,289.217767 370.945805,223.684953 387.256708,210.063614 C389.25827,206.962159 391.436658,203.978462 393.78107,201.127321 C398.15378,195.834953 404.09974,189.871641 409.663956,188.402503 C410.379863,188.209235 411.115154,188.096711 411.856096,188.06703 C411.856096,188.06703 428.901568,178.598609 433.447799,185.793915 C433.442015,185.822835 445.559512,185.44109 444.049886,198.698037 Z" id="Shape" fill="#575988" fill-rule="nonzero"></path>
                    <path d="M374.925202,269.338131 C374.925202,269.338131 380.986843,266.689055 391.21297,267.44676 C401.439097,268.204465 419.647155,259.112004 419.647155,259.112004" id="Shape" fill="#000000" fill-rule="nonzero" opacity="0.1"></path>
                    <path d="M385.909034,353.82514 C385.909034,353.82514 386.284995,354.981942 381.362804,356.474216 C376.440613,357.96649 374.925202,359.505036 374.925202,359.505036" id="Shape" fill="#000000" fill-rule="nonzero" opacity="0.05"></path>
                    <rect id="Rectangle-path" fill="#293855" fill-rule="nonzero" transform="translate(371.026781, 122.620976) rotate(-180.000000) translate(-371.026781, -122.620976) " x="343.841942" y="95.4361371" width="54.3696781" height="54.3696781" rx="11.85"></rect>
                    <path d="M400.941672,144.397767 C400.915622,146.187362 400.471967,147.94614 399.646054,149.533967 L397.459699,153.744725 L395.944289,156.636729 L386.475867,157.394434 C386.475867,157.394434 386.279211,156.613593 386.036282,155.323759 C385.330633,151.535234 384.21432,143.350862 386.475867,137.699886 C389.506687,130.122835 390.640353,115.350478 396.308681,118.763043 C400.831776,121.481526 401.045784,137.786646 400.941672,144.397767 Z" id="Shape" fill="#F7C4A7" fill-rule="nonzero"></path>
                    <path d="M397.459699,153.623261 L397.459699,153.738941 L395.944289,156.630945 L386.475867,157.38865 C386.475867,157.38865 386.279211,156.607809 386.036282,155.317975 C389.425711,154.028141 393.86783,152.825067 397.459699,153.623261 Z" id="Shape" fill="#000000" fill-rule="nonzero" opacity="0.1"></path>
                    <path d="M397.459699,154.380966 L397.459699,161.217664 L383.826791,168.41297 C383.826791,168.41297 383.670623,167.180976 383.381423,165.58459 C382.883998,162.848754 381.993261,159.042876 380.795971,158.568588 C380.795971,158.551236 390.640353,152.865556 397.459699,154.380966 Z" id="Shape" fill="#E6E6F0" fill-rule="nonzero"></path>
                    <path d="M434.338536,216.292991 C430.98063,219.251446 426.539722,220.67304 422.088006,220.214548 C398.107508,217.779481 397.459699,209.305909 397.459699,209.305909 L393.78107,201.127321 C398.15378,195.834953 404.09974,189.871641 409.663956,188.402503 C413.63757,194.8054 417.183167,199.426822 417.183167,199.426822 C417.183167,199.426822 434.986345,185.793915 440.29028,198.669117 C443.361589,206.194112 438.734382,212.411921 434.338536,216.292991 Z" id="Shape" fill="#000000" fill-rule="nonzero" opacity="0.05"></path>
                    <path d="M397.459699,158.55702 L397.459699,161.217664 L383.826791,168.41297 C383.826791,168.41297 383.670623,167.180976 383.381423,165.58459 C389.257975,163.681651 395.070903,160.112918 397.459699,158.55702 Z" id="Shape" fill="#000000" fill-rule="nonzero" opacity="0.1"></path>
                    <path d="M398.975109,158.551236 C398.975109,158.551236 388.748982,165.746542 380.038266,167.261952 L397.841443,206.651049 C397.841443,206.651049 398.495036,215.124621 422.469751,217.559688 C426.919459,218.015805 431.357656,216.594408 434.714496,213.638131 C439.110343,209.757061 443.725981,203.539252 440.637321,196.043178 C435.333385,183.167975 417.530208,196.800883 417.530208,196.800883 C417.530208,196.800883 399.35107,172.941848 398.975109,158.551236 Z" id="Shape" fill="#575988" fill-rule="nonzero"></path>
                    <rect id="Rectangle-path" fill="#293855" fill-rule="nonzero" x="457.919938" y="413.180633" width="90.2305296" height="8.09761163" rx="2.67"></rect>
                    <rect id="Rectangle-path" fill="#293855" fill-rule="nonzero" x="448.087124" y="405.083022" width="90.2305296" height="8.09761163" rx="2.67"></rect>
                    <rect id="Rectangle-path" fill="#000000" fill-rule="nonzero" opacity="0.05" x="448.087124" y="405.083022" width="90.2305296" height="8.09761163" rx="2.67"></rect>
                </g>
            </g>
        </g>
    </g>
</svg>