<?xml version="1.0" standalone="no"?>
<!DOCTYPE svg PUBLIC "-//W3C//DTD SVG 20010904//EN"
 "http://www.w3.org/TR/2001/REC-SVG-20010904/DTD/svg10.dtd">
<svg version="1.0" xmlns="http://www.w3.org/2000/svg"
 width="430.000000pt" height="430.000000pt" viewBox="0 0 430.000000 430.000000"
 preserveAspectRatio="xMidYMid meet">
<metadata>
Created by potrace 1.11, written by Peter Selinger 2001-2013
</metadata>
<g transform="translate(0.000000,430.000000) scale(0.100000,-0.100000)"
fill="#000000" stroke="none">
<path d="M1874 4266 c-23 -23 -34 -44 -35 -65 -1 -17 -2 -34 -3 -38 -1 -5 -6
-37 -11 -73 -4 -36 -9 -76 -11 -90 -2 -14 -7 -50 -10 -80 -6 -61 -18 -75 -72
-84 -112 -20 -331 -108 -452 -181 -35 -21 -65 -33 -72 -29 -14 9 -14 9 -158
132 -124 104 -136 112 -186 112 -35 0 -49 -11 -216 -177 -184 -183 -203 -210
-187 -266 4 -15 57 -97 118 -183 l110 -155 -43 -67 c-83 -129 -143 -277 -175
-431 -12 -55 -22 -85 -32 -86 -17 -3 -224 -16 -300 -20 -64 -3 -112 -26 -128
-62 -16 -35 -15 -510 2 -543 18 -36 71 -58 157 -66 41 -3 83 -8 92 -9 9 -2 47
-7 83 -10 109 -12 118 -16 127 -61 26 -125 97 -294 179 -427 27 -43 49 -81 49
-85 0 -6 -105 -145 -125 -166 -35 -36 -123 -155 -129 -174 -13 -40 5 -84 53
-131 190 -184 279 -269 301 -284 46 -32 91 -23 166 36 179 137 240 184 251
191 8 4 57 -18 120 -53 134 -75 259 -127 374 -155 87 -20 89 -22 90 -51 0 -16
2 -41 4 -55 1 -14 6 -70 9 -125 13 -184 18 -203 63 -232 23 -15 57 -17 262
-18 130 -1 248 3 263 8 38 12 65 62 72 127 7 80 17 164 30 254 l11 80 80 22
c156 43 333 118 447 190 20 13 42 24 47 24 5 0 64 -46 131 -102 182 -153 189
-158 230 -158 43 0 63 13 132 87 61 64 108 114 196 206 35 36 67 79 71 94 10
37 -3 84 -32 114 -20 21 -133 149 -203 231 -13 15 -24 31 -24 35 0 5 14 28 31
53 74 110 160 310 189 443 11 47 17 57 34 58 12 0 30 2 41 4 11 2 49 7 85 10
36 3 76 8 90 10 14 2 56 7 95 10 74 6 107 21 127 57 18 35 18 540 0 578 -20
42 -64 58 -182 64 -101 6 -145 10 -237 22 -36 4 -44 9 -49 32 -24 107 -111
331 -174 447 l-39 72 81 104 c45 57 101 130 126 162 36 46 45 65 44 94 -2 46
-14 63 -125 179 -255 267 -240 254 -281 254 -53 0 -73 -13 -222 -145 -43 -38
-119 -101 -128 -107 -6 -3 -36 9 -66 29 -112 71 -238 123 -450 185 l-45 13 -7
70 c-4 39 -9 95 -13 125 -3 30 -8 78 -11 105 -9 86 -15 104 -46 130 l-30 25
-260 0 -260 0 -34 -34z m412 -189 c5 -5 8 -23 19 -127 30 -295 25 -286 186
-324 192 -45 339 -106 459 -190 88 -62 126 -79 162 -71 23 6 171 113 198 145
3 3 31 27 62 54 l58 48 31 -33 c17 -19 55 -59 85 -90 l55 -55 -97 -125 c-125
-161 -146 -198 -139 -239 3 -18 22 -60 41 -93 86 -150 157 -322 199 -485 14
-51 29 -100 34 -110 29 -55 77 -67 341 -88 47 -3 88 -8 91 -10 5 -3 9 -262 5
-265 -1 0 -83 -11 -183 -24 -233 -30 -259 -44 -278 -150 -3 -16 -8 -43 -11
-60 -22 -123 -111 -317 -200 -440 -51 -70 -58 -85 -58 -126 1 -58 22 -89 213
-309 17 -19 31 -38 31 -41 0 -4 -33 -41 -73 -84 l-73 -78 -104 87 c-224 186
-239 191 -368 108 -162 -104 -320 -170 -522 -217 -105 -25 -124 -44 -144 -153
-18 -98 -23 -131 -32 -217 -4 -33 -8 -67 -9 -75 -2 -12 -22 -15 -115 -15 -93
0 -113 3 -115 15 -2 8 -5 56 -9 105 -15 222 -28 281 -71 309 -13 9 -49 18 -79
21 -134 13 -328 91 -516 205 -47 29 -102 55 -122 57 -46 7 -69 -6 -242 -136
-71 -53 -131 -95 -135 -93 -3 2 -41 37 -84 79 l-78 75 34 41 c93 114 182 236
198 273 24 52 16 79 -49 175 -116 173 -187 344 -207 500 -14 106 -57 131 -265
154 -60 7 -83 10 -147 20 -35 5 -43 11 -44 28 -2 50 1 210 5 214 4 4 54 9 181
18 136 9 177 16 206 32 45 26 49 38 64 177 4 32 13 76 20 97 8 22 12 39 10 39
-8 0 58 158 91 218 19 35 57 92 84 128 41 53 50 73 50 105 0 45 0 45 -129 227
l-94 134 84 84 c46 46 86 84 89 84 3 0 59 -45 125 -100 190 -158 209 -163 328
-82 163 109 358 185 557 217 82 14 101 46 124 215 10 69 19 134 21 145 2 11 4
32 4 47 1 20 7 27 24 30 35 5 217 1 223 -5z"/>
<path d="M2078 3235 c-2 -1 -31 -5 -64 -9 -280 -29 -566 -200 -736 -441 -128
-180 -195 -382 -202 -601 -15 -540 361 -1001 894 -1099 76 -14 310 -14 380 0
221 44 415 148 570 304 166 167 275 386 306 615 85 639 -398 1212 -1037 1230
-60 2 -109 2 -111 1z m287 -243 c166 -45 291 -119 408 -239 117 -121 204 -289
232 -449 11 -64 13 -216 3 -280 -56 -362 -333 -652 -688 -720 -100 -20 -275
-16 -368 7 -83 21 -218 82 -288 130 -115 79 -233 220 -292 350 -66 143 -94
348 -69 501 49 307 275 574 574 679 57 20 67 23 148 38 69 14 264 4 340 -17z"/>
</g>
</svg>
