<svg xmlns="http://www.w3.org/2000/svg" width="72" height="56" viewBox="0 0 72 56"><g fill="#007BFF"><path d="M71.38 19.35L36.58.15c-.36-.2-.8-.2-1.16 0L.62 19.35A1.2 1.2 0 0 0 0 20.4V54a1.2 1.2 0 0 0 1.2 1.2h69.6A1.2 1.2 0 0 0 72 54V20.4a1.2 1.2 0 0 0-.62-1.05zM6 52.8H2.4V26.4H6v26.4zm14.4 0h-12V48h12v4.8zm0-7.2h-12v-4.8h12v4.8zm0-7.2h-12v-4.8h12v4.8zm0-7.2h-12v-4.8h12v4.8zm14.4 21.6h-12V48h12v4.8zm0-7.2h-12v-4.8h12v4.8zm0-7.2h-12v-4.8h12v4.8zm0-7.2h-12v-4.8h12v4.8zm14.4 21.6h-12V48h12v4.8zm0-7.2h-12v-4.8h12v4.8zm0-7.2h-12v-4.8h12v4.8zm0-7.2h-12v-4.8h12v4.8zm14.4 21.6h-12V48h12v4.8zm0-7.2h-12v-4.8h12v4.8zm0-7.2h-12v-4.8h12v4.8zm0-7.2h-12v-4.8h12v4.8zm-12-7.2H5.858L36 7.37 66.142 24H51.6zm18 28.8H66V26.4h3.6v26.4zm0-29.633L36.58 4.95a1.2 1.2 0 0 0-1.16 0L2.4 23.167v-2.059L36 2.57l33.6 18.538v2.06z"/><path d="M39.6 12h-7.2a1.2 1.2 0 0 0-1.2 1.2v7.2a1.2 1.2 0 0 0 1.2 1.2h7.2a1.2 1.2 0 0 0 1.2-1.2v-7.2a1.2 1.2 0 0 0-1.2-1.2zm-1.2 7.2h-4.8v-4.8h4.8v4.8z"/></g></svg>