<svg xmlns="http://www.w3.org/2000/svg" width="72" height="78" viewBox="0 0 72 78"><g fill="#007BFF" fill-rule="evenodd"><path fill-rule="nonzero" d="M1.286 77.143h69.428c.71 0 1.286-.576 1.286-1.286v-5.143c0-.71-.576-1.285-1.286-1.285H69.43v-26.43A5.126 5.126 0 0 0 72 38.571v-1.285c0-.012-.006-.022-.006-.035a1.269 1.269 0 0 0-.06-.372l-2.505-7.515V7.714h1.285c.71 0 1.286-.575 1.286-1.285V1.286C72 .576 71.424 0 70.714 0H1.286C.576 0 0 .576 0 1.286v5.143c0 .71.576 1.285 1.286 1.285H2.57v21.65L.067 36.88c-.039.12-.059.246-.06.372v1.319A5.126 5.126 0 0 0 2.576 43v26.43H1.287c-.71 0-1.286.575-1.286 1.285v5.143c0 .71.576 1.286 1.286 1.286zm23.143-2.572H11.57V48.857h12.86v25.714zm1.285-28.285H10.286c-.71 0-1.286.575-1.286 1.285V69.43H5.143V43.714A5.11 5.11 0 0 0 9 41.937a5.075 5.075 0 0 0 7.714 0 5.075 5.075 0 0 0 7.715 0 5.075 5.075 0 0 0 7.714 0 5.075 5.075 0 0 0 7.714 0 5.075 5.075 0 0 0 7.714 0 5.075 5.075 0 0 0 7.715 0 5.075 5.075 0 0 0 7.714 0 5.11 5.11 0 0 0 3.857 1.777V69.43H27V47.57c0-.71-.576-1.285-1.286-1.285zm41.143-18H5.143V7.714h61.714v20.572zm.359 2.571L68.93 36h-4.841l-.536-3.214-.32-1.929h3.983zm-5.502 7.714a2.571 2.571 0 0 1-5.143 0h5.143zM56.571 36v-5.143h4.054l.536 3.214.32 1.929h-4.91zm-7.714 0v-5.143H54V36h-5.143zM54 38.571a2.571 2.571 0 0 1-5.143 0H54zM41.143 36v-5.143h5.143V36h-5.143zm5.143 2.571a2.571 2.571 0 0 1-5.143 0h5.143zM33.429 36v-5.143h5.142V36H33.43zm5.142 2.571a2.571 2.571 0 0 1-5.142 0h5.142zM25.714 36v-5.143h5.143V36h-5.143zm5.143 2.571a2.571 2.571 0 0 1-5.143 0h5.143zM18 36v-5.143h5.143V36H18zm5.143 2.571a2.571 2.571 0 1 1-5.143 0h5.143zM10.518 36l.32-1.929.537-3.214h4.054V36h-4.91zm4.91 2.571a2.571 2.571 0 1 1-5.142 0h5.143zm-6.66-7.714l-.32 1.929L7.91 36H3.07l1.713-5.143h3.983zm60.66 43.714H27V72h42.429v2.571zm-2.57-33.428a2.571 2.571 0 0 1-2.572-2.572h5.143a2.571 2.571 0 0 1-2.572 2.572zM2.57 2.57h66.86v2.572H2.57V2.57zm5.143 36a2.571 2.571 0 1 1-5.143 0h5.143zM2.571 72H9v2.571H2.571V72z"/><path fill-rule="nonzero" d="M30.857 66.857h30.857c.71 0 1.286-.575 1.286-1.286v-18c0-.71-.576-1.285-1.286-1.285H30.857c-.71 0-1.286.575-1.286 1.285v18c0 .71.576 1.286 1.286 1.286zm1.286-18h28.286v15.429H32.143V48.857zM10.286 25.714H18c.71 0 1.286-.575 1.286-1.285V11.57c0-.71-.576-1.285-1.286-1.285h-7.714c-.71 0-1.286.575-1.286 1.285v12.86c0 .71.576 1.285 1.286 1.285zm1.285-12.857h5.143v3.857h-5.143v-3.857zm0 6.429h5.143v3.857h-5.143v-3.857zm12.858 6.428h7.714c.71 0 1.286-.575 1.286-1.285V11.57c0-.71-.576-1.285-1.286-1.285h-7.714c-.71 0-1.286.575-1.286 1.285v12.86c0 .71.575 1.285 1.286 1.285zm1.285-12.857h5.143v3.857h-5.143v-3.857zm0 6.429h5.143v3.857h-5.143v-3.857zm14.143 6.428h7.714c.71 0 1.286-.575 1.286-1.285V11.57c0-.71-.575-1.285-1.286-1.285h-7.714c-.71 0-1.286.575-1.286 1.285v12.86c0 .71.576 1.285 1.286 1.285zm1.286-12.857h5.143v3.857h-5.143v-3.857zm0 6.429h5.143v3.857h-5.143v-3.857zM54 25.714h7.714c.71 0 1.286-.575 1.286-1.285V11.57c0-.71-.576-1.285-1.286-1.285H54c-.71 0-1.286.575-1.286 1.285v12.86c0 .71.576 1.285 1.286 1.285zm1.286-12.857h5.143v3.857h-5.143v-3.857zm0 6.429h5.143v3.857h-5.143v-3.857z"/><path d="M19.286 57.857h2.571v7.714h-2.571zm20.948 1.663l8.357-8.357 1.818 1.818-8.357 8.357zm-1.286-5.144l3.857-3.858 1.818 1.819-3.857 3.857zm7.714 5.143l3.858-3.858 1.818 1.818-3.858 3.858z"/></g></svg>