<svg xmlns="http://www.w3.org/2000/svg" width="79" height="78" viewBox="0 0 79 78"><g fill="#007BFF"><path d="M42.667 52h-5.334c-.736 0-1.333.597-1.333 1.333v5.334c0 .736.597 1.333 1.333 1.333h5.334c.736 0 1.333-.597 1.333-1.333v-5.334c0-.736-.597-1.333-1.333-1.333zm-1.334 5.333h-2.666v-2.666h2.666v2.666zM31.667 52h-5.334c-.736 0-1.333.597-1.333 1.333v5.334c0 .736.597 1.333 1.333 1.333h5.334c.736 0 1.333-.597 1.333-1.333v-5.334c0-.736-.597-1.333-1.333-1.333zm-1.334 5.333h-2.666v-2.666h2.666v2.666zM21.667 52h-5.334c-.736 0-1.333.597-1.333 1.333v5.334c0 .736.597 1.333 1.333 1.333h5.334c.736 0 1.333-.597 1.333-1.333v-5.334c0-.736-.597-1.333-1.333-1.333zm-1.334 5.333h-2.666v-2.666h2.666v2.666zM63.667 52h-5.334c-.736 0-1.333.597-1.333 1.333v5.334c0 .736.597 1.333 1.333 1.333h5.334c.736 0 1.333-.597 1.333-1.333v-5.334c0-.736-.597-1.333-1.333-1.333zm-1.334 5.333h-2.666v-2.666h2.666v2.666zM53.667 52h-5.334c-.736 0-1.333.597-1.333 1.333v5.334c0 .736.597 1.333 1.333 1.333h5.334c.736 0 1.333-.597 1.333-1.333v-5.334c0-.736-.597-1.333-1.333-1.333zm-1.334 5.333h-2.666v-2.666h2.666v2.666zM42.667 41h-5.334c-.736 0-1.333.597-1.333 1.333v5.334c0 .736.597 1.333 1.333 1.333h5.334c.736 0 1.333-.597 1.333-1.333v-5.334c0-.736-.597-1.333-1.333-1.333zm-1.334 5.333h-2.666v-2.666h2.666v2.666zM31.667 41h-5.334c-.736 0-1.333.597-1.333 1.333v5.334c0 .736.597 1.333 1.333 1.333h5.334c.736 0 1.333-.597 1.333-1.333v-5.334c0-.736-.597-1.333-1.333-1.333zm-1.334 5.333h-2.666v-2.666h2.666v2.666zM21.667 41h-5.334c-.736 0-1.333.597-1.333 1.333v5.334c0 .736.597 1.333 1.333 1.333h5.334c.736 0 1.333-.597 1.333-1.333v-5.334c0-.736-.597-1.333-1.333-1.333zm-1.334 5.333h-2.666v-2.666h2.666v2.666zM63.667 41h-5.334c-.736 0-1.333.597-1.333 1.333v5.334c0 .736.597 1.333 1.333 1.333h5.334c.736 0 1.333-.597 1.333-1.333v-5.334c0-.736-.597-1.333-1.333-1.333zm-1.334 5.333h-2.666v-2.666h2.666v2.666zM53.667 41h-5.334c-.736 0-1.333.597-1.333 1.333v5.334c0 .736.597 1.333 1.333 1.333h5.334c.736 0 1.333-.597 1.333-1.333v-5.334c0-.736-.597-1.333-1.333-1.333zm-1.334 5.333h-2.666v-2.666h2.666v2.666zM42.667 31h-5.334c-.736 0-1.333.597-1.333 1.333v5.334c0 .736.597 1.333 1.333 1.333h5.334c.736 0 1.333-.597 1.333-1.333v-5.334c0-.736-.597-1.333-1.333-1.333zm-1.334 5.333h-2.666v-2.666h2.666v2.666zM31.667 31h-5.334c-.736 0-1.333.597-1.333 1.333v5.334c0 .736.597 1.333 1.333 1.333h5.334c.736 0 1.333-.597 1.333-1.333v-5.334c0-.736-.597-1.333-1.333-1.333zm-1.334 5.333h-2.666v-2.666h2.666v2.666zM21.667 31h-5.334c-.736 0-1.333.597-1.333 1.333v5.334c0 .736.597 1.333 1.333 1.333h5.334c.736 0 1.333-.597 1.333-1.333v-5.334c0-.736-.597-1.333-1.333-1.333zm-1.334 5.333h-2.666v-2.666h2.666v2.666zM63.667 31h-5.334c-.736 0-1.333.597-1.333 1.333v5.334c0 .736.597 1.333 1.333 1.333h5.334c.736 0 1.333-.597 1.333-1.333v-5.334c0-.736-.597-1.333-1.333-1.333zm-1.334 5.333h-2.666v-2.666h2.666v2.666zM53.667 31h-5.334c-.736 0-1.333.597-1.333 1.333v5.334c0 .736.597 1.333 1.333 1.333h5.334c.736 0 1.333-.597 1.333-1.333v-5.334c0-.736-.597-1.333-1.333-1.333zm-1.334 5.333h-2.666v-2.666h2.666v2.666zM42.667 21h-5.334c-.736 0-1.333.597-1.333 1.333v5.334c0 .736.597 1.333 1.333 1.333h5.334c.736 0 1.333-.597 1.333-1.333v-5.334c0-.736-.597-1.333-1.333-1.333zm-1.334 5.333h-2.666v-2.666h2.666v2.666zM31.667 21h-5.334c-.736 0-1.333.597-1.333 1.333v5.334c0 .736.597 1.333 1.333 1.333h5.334c.736 0 1.333-.597 1.333-1.333v-5.334c0-.736-.597-1.333-1.333-1.333zm-1.334 5.333h-2.666v-2.666h2.666v2.666zM21.667 21h-5.334c-.736 0-1.333.597-1.333 1.333v5.334c0 .736.597 1.333 1.333 1.333h5.334c.736 0 1.333-.597 1.333-1.333v-5.334c0-.736-.597-1.333-1.333-1.333zm-1.334 5.333h-2.666v-2.666h2.666v2.666zM63.667 21h-5.334c-.736 0-1.333.597-1.333 1.333v5.334c0 .736.597 1.333 1.333 1.333h5.334c.736 0 1.333-.597 1.333-1.333v-5.334c0-.736-.597-1.333-1.333-1.333zm-1.334 5.333h-2.666v-2.666h2.666v2.666zM53.667 21h-5.334c-.736 0-1.333.597-1.333 1.333v5.334c0 .736.597 1.333 1.333 1.333h5.334c.736 0 1.333-.597 1.333-1.333v-5.334c0-.736-.597-1.333-1.333-1.333zm-1.334 5.333h-2.666v-2.666h2.666v2.666zM42.667 10h-5.334c-.736 0-1.333.597-1.333 1.333v5.334c0 .736.597 1.333 1.333 1.333h5.334c.736 0 1.333-.597 1.333-1.333v-5.334c0-.736-.597-1.333-1.333-1.333zm-1.334 5.333h-2.666v-2.666h2.666v2.666zM31.667 10h-5.334c-.736 0-1.333.597-1.333 1.333v5.334c0 .736.597 1.333 1.333 1.333h5.334c.736 0 1.333-.597 1.333-1.333v-5.334c0-.736-.597-1.333-1.333-1.333zm-1.334 5.333h-2.666v-2.666h2.666v2.666zM21.667 10h-5.334c-.736 0-1.333.597-1.333 1.333v5.334c0 .736.597 1.333 1.333 1.333h5.334c.736 0 1.333-.597 1.333-1.333v-5.334c0-.736-.597-1.333-1.333-1.333zm-1.334 5.333h-2.666v-2.666h2.666v2.666zM63.667 10h-5.334c-.736 0-1.333.597-1.333 1.333v5.334c0 .736.597 1.333 1.333 1.333h5.334c.736 0 1.333-.597 1.333-1.333v-5.334c0-.736-.597-1.333-1.333-1.333zm-1.334 5.333h-2.666v-2.666h2.666v2.666zM53.667 10h-5.334c-.736 0-1.333.597-1.333 1.333v5.334c0 .736.597 1.333 1.333 1.333h5.334c.736 0 1.333-.597 1.333-1.333v-5.334c0-.736-.597-1.333-1.333-1.333zm-1.334 5.333h-2.666v-2.666h2.666v2.666z"/><path d="M76.515 70.087A6.443 6.443 0 0 0 79 65a6.35 6.35 0 0 0-1.239-3.78 2.74 2.74 0 0 1-.317-2.476 5.179 5.179 0 0 0-2.902-6.31 5.289 5.289 0 0 0-4.758.289V7.8h2.633V5.2H67.15V1.3c0-.718-.59-1.3-1.316-1.3H13.168c-.727 0-1.317.582-1.317 1.3v3.9H6.585v2.6h2.633v44.905a5.153 5.153 0 0 0-1.656-.618 5.316 5.316 0 0 0-4.34 1.107A5.174 5.174 0 0 0 1.319 57.2a5.074 5.074 0 0 0 .247 1.57 2.716 2.716 0 0 1-.332 2.47 6.419 6.419 0 0 0-.82 6.049 6.543 6.543 0 0 0 4.629 4.043c.075.017.151.024.226.038v4.03H.002V78H79v-2.6h-5.267v-4.048a6.562 6.562 0 0 0 2.782-1.265zM9.218 75.4H7.902v-4.048a6.596 6.596 0 0 0 1.316-.419V75.4zm-.175-7.348a3.98 3.98 0 0 1-5.176-.208 3.856 3.856 0 0 1-.497-5.092 5.256 5.256 0 0 0 .704-4.772 2.51 2.51 0 0 1-.122-.78c0-.772.347-1.504.948-1.998a2.618 2.618 0 0 1 1.685-.602c.17 0 .341.016.51.045.732.143 1.37.587 1.752 1.22.382.634.474 1.398.253 2.102a5.285 5.285 0 0 0 .695 4.78c.483.654.742 1.443.74 2.253a3.864 3.864 0 0 1-1.492 3.052zM14.485 2.6h50.032v2.6H14.485V2.6zm23.7 72.8h-3.95v-5.2h3.95v5.2zm6.582 0h-3.95v-5.2h3.95v5.2zm5.267 0h-2.633v-6.5c0-.718-.59-1.3-1.317-1.3H32.918c-.727 0-1.317.582-1.317 1.3v6.5h-2.633V65h21.066v10.4zM67.15 61.077c-.031.05-.051.108-.085.157a6.454 6.454 0 0 0 .085 7.695V75.4H52.667V65h1.317v-2.6H25.018V65h1.316v10.4H11.851v-6.5a6.397 6.397 0 0 0 .085-7.68c-.033-.042-.049-.094-.078-.14V7.8H67.15v53.277zM71.1 75.4h-1.316v-4.44c.35.155.716.277 1.09.366.075.017.151.023.226.038V75.4zm.362-6.608a3.921 3.921 0 0 1-2.753-2.428 3.847 3.847 0 0 1 .493-3.612 5.256 5.256 0 0 0 .704-4.772 2.51 2.51 0 0 1-.122-.78c0-.772.347-1.504.947-1.998a2.618 2.618 0 0 1 1.686-.602c.17 0 .341.016.51.045.732.143 1.37.587 1.752 1.22.382.634.474 1.398.253 2.102a5.285 5.285 0 0 0 .695 4.78c.483.654.742 1.443.74 2.253a3.893 3.893 0 0 1-1.519 3.073 4 4 0 0 1-3.386.72z"/><path d="M21.667 62h-5.334c-.736 0-1.333.56-1.333 1.25v7.5c0 .69.597 1.25 1.333 1.25h5.334c.736 0 1.333-.56 1.333-1.25v-7.5c0-.69-.597-1.25-1.333-1.25zm-1.334 7.5h-2.666v-5h2.666v5zM63.667 62h-5.334c-.736 0-1.333.56-1.333 1.25v7.5c0 .69.597 1.25 1.333 1.25h5.334c.736 0 1.333-.56 1.333-1.25v-7.5c0-.69-.597-1.25-1.333-1.25zm-1.334 7.5h-2.666v-5h2.666v5z"/></g></svg>