<?xml version="1.0" encoding="UTF-8"?>
<svg width="128px" height="128px" viewBox="0 0 128 128" version="1.1" xmlns="http://www.w3.org/2000/svg" xmlns:xlink="http://www.w3.org/1999/xlink">
    <!-- Generator: Sketch 56 (81588) - https://sketch.com -->
    <title>Downtime</title>
    <desc>Created with Sketch.</desc>
    <g id="Other" stroke="none" stroke-width="1" fill="none" fill-rule="evenodd">
        <g id="Downtime" fill-rule="nonzero">
            <path d="M128,64.0028133 C128,99.3436195 99.3492461,128 64.0028133,128 C28.6563805,128 0,99.3436195 0,64.0028133 C0,28.6563805 28.6563805,0 64.0028133,0 C99.3492461,0 128,28.6563805 128,64.0028133 Z" id="Path" fill="#E4F1FA"></path>
            <g id="analytics" transform="translate(33.000000, 33.000000)">
                <path d="M60.3795714,59.0949791 L1.28471273,59.0949791 C0.575573465,59.0949791 0,59.6704322 0,60.3795714 C0,61.0887107 0.575573465,61.6642842 1.28471273,61.6642842 L60.3796919,61.6642842 C61.0888311,61.6642842 61.6644046,61.0887107 61.6644046,60.3795714 C61.6644046,59.6704322 61.0887107,59.0949791 60.3795714,59.0949791 Z" id="Path" fill="#5A5A5A"></path>
                <g id="1" transform="translate(2.569305, 43.678908)">
                    <path d="M8.99274825,7.10542736e-15 L1.28471273,7.10542736e-15 C0.575573465,7.10542736e-15 1.77635684e-15,0.575573465 1.77635684e-15,1.28471273 L1.77635684e-15,16.7007838 C1.77635684e-15,17.4098026 0.575573465,17.9853761 1.28471273,17.9853761 L8.99274825,17.9853761 C9.70188752,17.9853761 10.277461,17.4098026 10.277461,16.7006633 L10.277461,1.28459229 C10.277461,0.575453027 9.70188752,7.10542736e-15 8.99274825,7.10542736e-15 Z" id="Path" fill="#5A5A5A"></path>
                    <polygon id="Path" fill="#FFFFFF" points="7.70803552 15.416071 2.56942547 15.416071 2.56942547 2.56930503 7.70815596 2.56930503 7.70815596 15.416071"></polygon>
                </g>
                <g id="2" transform="translate(17.985376, 30.832142)">
                    <path d="M8.99274825,1.42108547e-14 L1.28471273,1.42108547e-14 C0.575573465,1.42108547e-14 8.8817842e-16,0.575573465 8.8817842e-16,1.28471273 L8.8817842e-16,29.5475498 C8.8817842e-16,30.2566891 0.575573465,30.8322625 1.28471273,30.8322625 L8.99274825,30.8322625 C9.70188752,30.8322625 10.277461,30.2566891 10.277461,29.5475498 L10.277461,1.28471273 C10.277461,0.575573465 9.70188752,1.42108547e-14 8.99274825,1.42108547e-14 Z" id="Path" fill="#5A5A5A"></path>
                    <polygon id="Path" fill="#FFFFFF" points="7.70803552 28.2628371 2.56930503 28.2628371 2.56930503 2.56930503 7.70803552 2.56930503"></polygon>
                </g>
                <g id="3" transform="translate(33.401447, 35.970873)">
                    <path d="M8.99274825,-5.32907052e-15 L1.28471273,-5.32907052e-15 C0.575573465,-5.32907052e-15 -2.66453526e-15,0.575573465 -2.66453526e-15,1.28471273 L-2.66453526e-15,24.4088193 C-2.66453526e-15,25.1179586 0.575573465,25.693532 1.28471273,25.693532 L8.99274825,25.693532 C9.70188752,25.693532 10.277461,25.1179586 10.277461,24.4088193 L10.277461,1.28471273 C10.277461,0.575453027 9.70188752,-5.32907052e-15 8.99274825,-5.32907052e-15 Z" id="Path" fill="#5A5A5A"></path>
                    <polygon id="Path" fill="#FFFFFF" points="7.70803552 23.1241066 2.56930503 23.1241066 2.56930503 2.56930503 7.70803552 2.56930503 7.70803552 23.1241066"></polygon>
                </g>
                <g id="4" transform="translate(48.817518, 20.554802)">
                    <path d="M8.99274825,7.10542736e-15 L1.28471273,7.10542736e-15 C0.575573465,7.10542736e-15 0,0.575573465 0,1.28471273 L0,39.8248903 C0,40.5340296 0.575573465,41.1096031 1.28471273,41.1096031 L8.99274825,41.1096031 C9.70188752,41.1096031 10.277461,40.5340296 10.277461,39.8248903 L10.277461,1.28471273 C10.277461,0.575453027 9.70188752,7.10542736e-15 8.99274825,7.10542736e-15 Z" id="Path" fill="#5A5A5A"></path>
                    <polygon id="Path" fill="#FFFFFF" points="7.70803552 38.5401776 2.56930503 38.5401776 2.56930503 2.56930503 7.70803552 2.56930503 7.70803552 38.5401776"></polygon>
                </g>
                <g id="1.1" transform="translate(2.569305, 23.124107)">
                    <path d="M5.13873049,-2.13162821e-14 C2.30470262,-2.13162821e-14 1.77635684e-15,2.30470262 1.77635684e-15,5.13873049 C1.77635684e-15,7.97275837 2.30470262,10.277461 5.13873049,10.277461 C7.97275837,10.277461 10.277461,7.97275837 10.277461,5.13873049 C10.277461,2.30470262 7.97275837,-2.13162821e-14 5.13873049,-2.13162821e-14 Z" id="Path" fill="#5A5A5A"></path>
                    <path d="M5.13873049,7.70803552 C3.72045196,7.70803552 2.56942547,6.55435939 2.56942547,5.13873049 C2.56942547,3.72298116 3.72045196,2.56942547 5.13873049,2.56942547 C6.55700903,2.56942547 7.70803552,3.72310159 7.70803552,5.13873049 C7.70803552,6.55435939 6.55700903,7.70803552 5.13873049,7.70803552 Z" id="Path" fill="#FFFFFF"></path>
                </g>
                <g id="1.2" transform="translate(17.985376, 10.277341)">
                    <path d="M5.13873049,-1.86517468e-14 C2.30470262,-1.86517468e-14 8.8817842e-16,2.30470262 8.8817842e-16,5.13873049 C8.8817842e-16,7.97275837 2.30470262,10.277461 5.13873049,10.277461 C7.97275837,10.277461 10.277461,7.97275837 10.277461,5.13873049 C10.277461,2.30470262 7.97275837,-1.86517468e-14 5.13873049,-1.86517468e-14 Z" id="Path" fill="#5A5A5A"></path>
                    <path d="M5.13873049,7.70803552 C3.72045196,7.70803552 2.56942547,6.55435939 2.56942547,5.13873049 C2.56942547,3.72298116 3.72045196,2.56942547 5.13873049,2.56942547 C6.55700903,2.56942547 7.70803552,3.72310159 7.70803552,5.13873049 C7.70803552,6.55447983 6.55700903,7.70803552 5.13873049,7.70803552 Z" id="Path" fill="#FFFFFF"></path>
                </g>
                <g id="1.3" transform="translate(33.401447, 15.416071)">
                    <path d="M5.13873049,-2.04281037e-14 C2.30470262,-2.04281037e-14 -1.77635684e-15,2.30470262 -1.77635684e-15,5.13873049 C-1.77635684e-15,7.97275837 2.30470262,10.277461 5.13873049,10.277461 C7.97275837,10.277461 10.277461,7.97275837 10.277461,5.13873049 C10.277461,2.30470262 7.97275837,-2.04281037e-14 5.13873049,-2.04281037e-14 Z" id="Path" fill="#5A5A5A"></path>
                    <path d="M5.13873049,7.70803552 C3.72045196,7.70803552 2.56942547,6.55435939 2.56942547,5.13873049 C2.56942547,3.72298116 3.72045196,2.56942547 5.13873049,2.56942547 C6.55700903,2.56942547 7.70803552,3.72310159 7.70803552,5.13873049 C7.70803552,6.55435939 6.55700903,7.70803552 5.13873049,7.70803552 Z" id="Path" fill="#FFFFFF"></path>
                </g>
                <g id="1.4" transform="translate(48.817518, 0.000000)">
                    <path d="M5.13873049,-1.95399252e-14 C2.30470262,-1.95399252e-14 -1.77635684e-15,2.30470262 -1.77635684e-15,5.13873049 C-1.77635684e-15,7.97275837 2.30470262,10.277461 5.13873049,10.277461 C7.97275837,10.277461 10.277461,7.97275837 10.277461,5.13873049 C10.277461,2.30470262 7.97275837,-1.95399252e-14 5.13873049,-1.95399252e-14 Z" id="Path" fill="#5A5A5A"></path>
                    <path d="M5.13873049,7.70803552 C3.72045196,7.70803552 2.56942547,6.55435939 2.56942547,5.13873049 C2.56942547,3.72298116 3.72045196,2.56942547 5.13873049,2.56942547 C6.55700903,2.56942547 7.70803552,3.72310159 7.70803552,5.13873049 C7.70803552,6.55435939 6.55700903,7.70803552 5.13873049,7.70803552 Z" id="Path" fill="#FFFFFF"></path>
                </g>
                <g id="Joints" transform="translate(9.145421, 6.576881)" fill="#5A5A5A">
                    <path d="M42.9969097,0.375766732 C42.4958873,-0.125255577 41.6813648,-0.125255577 41.1803425,0.375766732 L31.2113233,10.3447859 C30.710301,10.8458082 30.710301,11.6603307 31.2113233,12.161353 C31.4631593,12.4105394 31.7919552,12.5365176 32.1208715,12.5365176 C32.4471382,12.5365176 32.7760546,12.413189 33.0278905,12.161353 L42.9969097,2.19233392 C43.497932,1.69131161 43.497932,0.876789041 42.9969097,0.375766732 Z" id="Path"></path>
                    <path d="M26.2884178,11.0128558 L18.035641,8.65937572 C17.344447,8.45896679 16.6430158,8.85978464 16.4503149,9.5432706 C16.2550848,10.2267566 16.6507238,10.9358958 17.3315601,11.1311259 L25.584337,13.484606 C25.7024867,13.5179673 25.8207569,13.5333834 25.9363774,13.5333834 C26.4965348,13.5333834 27.0103235,13.1659269 27.1721923,12.6007111 C27.3675428,11.9198747 26.9719038,11.2080858 26.2884178,11.0128558 Z" id="Path"></path>
                    <path d="M11.9745959,10.4399319 C11.5327087,9.88495337 10.7258941,9.79498614 10.1709156,10.2343442 L0.484444123,17.9577958 C-0.0705344345,18.4023326 -0.163030861,19.2090267 0.281506,19.7640053 C0.535871172,20.0825639 0.911035714,20.2470823 1.28607982,20.2470823 C1.5660983,20.2470823 1.84876641,20.1545859 2.08518631,19.969593 L11.7716578,12.2461414 C12.3266363,11.8016046 12.4191327,10.9949105 11.9745959,10.4399319 Z" id="Path"></path>
                </g>
            </g>
        </g>
    </g>
</svg>