<?xml version="1.0" encoding="UTF-8"?>
<svg width="128px" height="128px" viewBox="0 0 128 128" version="1.1" xmlns="http://www.w3.org/2000/svg" xmlns:xlink="http://www.w3.org/1999/xlink">
    <!-- Generator: Sketch 56 (81588) - https://sketch.com -->
    <title>Asset Updates</title>
    <desc>Created with Sketch.</desc>
    <g id="Other" stroke="none" stroke-width="1" fill="none" fill-rule="evenodd">
        <g id="Asset-Updates" fill-rule="nonzero">
            <path d="M128,64.0028133 C128,99.3436195 99.3492461,128 64.0028133,128 C28.6563805,128 0,99.3436195 0,64.0028133 C0,28.6563805 28.6563805,0 64.0028133,0 C99.3492461,0 128,28.6563805 128,64.0028133 Z" id="Path" fill="#E4F1FA"></path>
            <g id="Illustration" transform="translate(31.000000, 29.000000)">
                <g id="Cube" transform="translate(0.000000, 0.000000)">
                    <path d="M47.0131954,5.82535332 C45.0660914,8.34932071 43.9078947,11.5130889 43.9078947,14.9473684 C43.9078947,23.202572 50.6000595,29.8947368 58.8552632,29.8947368 C61.8722952,29.8947368 64.6805544,29.000874 67.0296606,27.4635284 L67.0296606,54.6887034 C67.0242935,55.3808875 66.6147128,56.0060369 65.9822125,56.2872659 L34.2314549,70.3987137 C33.7752465,70.6015154 33.2544695,70.6015154 32.798261,70.3987137 L1.0475035,56.2872659 C0.415003154,56.0060369 0.0054225254,55.3808875 5.53562219e-05,54.6887034 L5.53562219e-05,15.8821955 C-0.00548893299,15.1800023 0.405853589,14.5413216 1.0475035,14.2560276 L32.798261,0.144579789 C32.982014,0.0662169087 33.177742,0.019633459 33.377095,0.00681677948 C33.6689026,-0.0189100183 33.9625236,0.0284355089 34.2314549,0.144579789 L47.0131954,5.82535332 Z" id="Combined-Shape" fill="#5A5A5A"></path>
                    <polygon id="Path" fill="#FFFFFF" points="33.514858 3.70004726 60.9109109 15.8546782 33.514858 28.0367383 6.11880505 15.8546782"></polygon>
                    <polygon id="Path" fill="#FFFFFF" points="3.52803143 18.5832148 31.750927 31.1236175 31.750927 66.0715264 3.52803143 53.5311237"></polygon>
                    <polygon id="Path" fill="#FFFFFF" points="63.5016845 18.5832148 63.5016845 53.5311237 35.278789 66.0715264 35.278789 31.1236175"></polygon>
                </g>
                <g id="update" transform="translate(46.710582, 2.802632)">
                    <circle id="Oval-Copy" stroke="#5A5A5A" stroke-width="3" fill="#FFFFFF" cx="12.1447368" cy="12.1447368" r="12.1447368"></circle>
                    <path d="M12.7290264,5.60526316 C10.0987013,5.60526316 7.83942323,7.21801041 6.84270123,9.51713243 L6.17936126,9.2512984 C6.02216431,9.18810834 5.84255513,9.22608463 5.72457961,9.34717297 C5.6062928,9.46857259 5.57236316,9.64880433 5.63897731,9.80413359 L6.69422016,12.2701023 C6.73811079,12.3718912 6.81997771,12.4528243 6.92332303,12.4939134 C7.02635706,12.535625 7.14153106,12.5343799 7.24331997,12.490178 L9.70928865,11.4349351 C9.86461791,11.3686323 9.96453913,11.2148594 9.96267145,11.0455225 C9.96049248,10.8764969 9.85683588,10.7252143 9.69995022,10.6623355 L8.86384925,10.3273971 C9.53683894,8.82920126 11.0132451,7.78423069 12.7287151,7.78423069 C15.076397,7.78423069 16.9864176,9.73658559 16.9864176,12.136874 C16.9864176,14.5371623 15.0757744,16.4898285 12.7287151,16.4898285 C11.6862348,16.4898285 10.7324695,16.10384 9.99286571,15.4644687 C9.56111886,15.0915539 8.91832344,15.109297 8.51645957,15.5145849 C8.51116779,15.520188 8.5061873,15.5248572 8.50089552,15.5304602 C8.05794255,15.9762147 8.0900045,16.7027448 8.5653307,17.1130132 C9.68812154,18.0823425 11.1418042,18.6687961 12.7287151,18.6687961 C16.2776306,18.6687961 19.1653853,15.7390186 19.1653853,12.136874 C19.1660077,8.53535192 16.2782532,5.60526316 12.7290264,5.60526316 Z" id="Path" fill="#5A5A5A"></path>
                </g>
            </g>
        </g>
    </g>
</svg>