<?xml version="1.0" encoding="UTF-8"?>
<svg width="128px" height="128px" viewBox="0 0 128 128" version="1.1" xmlns="http://www.w3.org/2000/svg" xmlns:xlink="http://www.w3.org/1999/xlink">
    <!-- Generator: Sketch 56 (81588) - https://sketch.com -->
    <title>Depreciation</title>
    <desc>Created with Sketch.</desc>
    <g id="Other" stroke="none" stroke-width="1" fill="none" fill-rule="evenodd">
        <g id="Depreciation" fill-rule="nonzero">
            <path d="M128,64.0028133 C128,99.3436195 99.3492461,128 64.0028133,128 C28.6563805,128 0,99.3436195 0,64.0028133 C0,28.6563805 28.6563805,0 64.0028133,0 C99.3492461,0 128,28.6563805 128,64.0028133 Z" id="Path" fill="#E4F1FA"></path>
            <g id="Illustration" transform="translate(34.000000, 35.000000)" fill="#FFFFFF" stroke="#5A5A5A" stroke-width="2">
                <path d="M3.02897381,55.3851191 C3.02897381,56.3112555 3.77749508,57.0597768 4.70363157,57.0597768 L11.8209271,57.0597768 C12.7470636,57.0597768 13.4955849,56.3112555 13.4955849,55.3851191 L13.4955849,25.5965097 L3.02897381,15.1298986 C3.02897381,15.1298986 3.02897381,55.3851191 3.02897381,55.3851191 Z" id="Path"></path>
                <path d="M17.5680481,29.6689729 L17.5680481,55.3851191 C17.5680481,56.3112555 18.3165693,57.0597768 19.2427058,57.0597768 L26.3600014,57.0597768 C27.2861378,57.0597768 28.0346591,56.3112555 28.0346591,55.3851191 L28.0346591,37.7504653 C26.2585069,37.5221029 24.6219096,36.7355212 23.3405427,35.4541542 L17.5680481,29.6689729 Z" id="Path"></path>
                <path d="M46.6588834,44.5125304 L46.6588834,55.3851191 C46.6588834,56.3112555 47.4074047,57.0597768 48.3335412,57.0597768 L55.4508367,57.0597768 C56.3769732,57.0597768 57.1254945,56.3112555 57.1254945,55.3851191 L57.1254945,45.045376 C53.9537941,44.8931344 50.7820938,44.7535796 47.6103935,44.601338 C47.3947179,44.5886512 47.0521742,44.5632776 46.6588834,44.5125304 Z" id="Path"></path>
                <path d="M42.4214918,33.2720244 L39.6938295,30.5443622 L34.7840374,35.4541542 C34.0101425,36.2280491 33.0966928,36.8243288 32.1071223,37.2303064 L32.1071223,55.3851191 C32.1071223,56.3112555 32.8556436,57.0597768 33.7817801,57.0597768 L40.8990756,57.0597768 C41.8252121,57.0597768 42.5737334,56.3112555 42.5737334,55.3851191 L42.5737334,42.4699554 C42.0535745,41.9244229 41.6222233,41.3027696 41.2923665,40.5923088 C40.746834,39.3743758 39.7826371,36.3041699 42.4214918,33.2720244 Z" id="Path"></path>
                <path d="M61.6673693,37.8900201 L61.4897541,34.1981609 C61.3755729,31.7369215 61.2613917,29.2883688 61.1472105,26.8271294 C61.1218369,26.2562233 61.0203424,25.5203888 60.4367496,24.9494828 C60.284508,24.7972412 60.094206,24.6449996 59.8785303,24.5308183 C59.5613603,24.3532031 59.2441903,24.2770823 58.939707,24.2770823 C58.2038726,24.2770823 57.7217741,24.7591808 57.3792305,25.1017244 L56.579962,25.9009929 C55.9329351,26.5480197 55.2985951,27.1823598 54.6515682,27.8293867 C54.5881342,27.8928207 54.5247002,27.9435679 54.4612662,28.0070019 L42.0155141,15.5612498 C41.3938609,14.9395966 40.5692188,14.5970529 39.7065163,14.5970529 C38.8438138,14.5970529 38.0064849,14.9395966 37.3975185,15.5612498 L29.0876636,23.8711047 L6.21336093,1.00948878 C5.59170766,0.387835515 4.77975238,0.0452918806 3.90436309,0.0452918806 C3.02897381,0.0452918806 2.20433172,0.387835515 1.58267846,1.00948878 L0.961025197,1.63114204 C-0.320341732,2.91250897 -0.320341732,4.98045758 0.961025197,6.26182451 L26.7532922,32.0540915 C27.3749455,32.6757448 28.1869007,33.0182884 29.06229,33.0182884 C29.9376793,33.0182884 30.7623214,32.6757448 31.3839747,32.0540915 L39.6938295,23.7442367 L49.2089305,33.2593376 C48.53653,33.9190513 47.8768163,34.578765 47.2171027,35.2511654 L46.2655926,36.2026755 C45.8849885,36.5832796 45.0984068,37.3698612 45.6693129,38.5751074 C45.7834941,38.8161566 45.9230489,39.0191454 46.0879773,39.1840738 C46.6335098,39.7296063 47.3312839,39.7676667 47.8260691,39.7803535 C51.6067359,39.9579687 55.4000895,40.1355839 59.1807563,40.3131991 C59.2441903,40.3131991 59.3203111,40.3131991 59.3964319,40.3131991 C60.1449532,40.3131991 60.728546,40.1102103 61.1218369,39.6915459 C61.5278145,39.2728814 61.7054297,38.6766018 61.6673693,37.8900201 Z" id="Path"></path>
            </g>
        </g>
    </g>
</svg>