<svg xmlns="http://www.w3.org/2000/svg" viewBox="0 0 128 128">
  <g fill="none" fill-rule="evenodd">
    <path fill="#E4F1FA" d="M128,64.0028133 C128,99.3436195 99.3492461,128 64.0028133,128 C28.6563805,128 0,99.3436195 0,64.0028133 C0,28.6563805 28.6563805,0 64.0028133,0 C99.3492461,0 128,28.6563805 128,64.0028133 Z"/>
    <g fill="#5A5A5A" transform="translate(32 44)">
      <path d="M32.2146397,9.7899774 C38.5975672,9.74945647 43.8009832,14.8894484 43.8428255,21.2692928 C43.8815846,27.6491372 38.7437949,32.8556364 32.3643909,32.8961573 C27.9423242,32.9247862 24.0813842,30.4609374 22.1205235,26.8237435 C20.1971006,30.4869237 16.3744793,32.9996618 11.952853,33.0282908 C5.63599221,33.0683712 0.473977982,28.034086 0.333035614,21.7405689 L0.327309831,21.7405689 L0.209711042,2.57460905 C0.22116261,1.3184602 1.24035211,0.303675148 2.50090541,0.296187585 C3.76013738,0.287819132 4.79077844,1.28983128 4.82689493,2.54598013 L4.88987855,12.2732057 C6.81065876,10.8118096 9.20403634,9.93796689 11.8075061,9.92211087 C16.2295729,9.89172017 20.0821445,12.3538072 22.0482905,15.9936438 C23.9659876,12.3335467 27.7886089,9.82168943 32.2146397,9.7899774 Z M32.3340003,28.2728072 C36.16499,28.249904 39.2472234,25.1275901 39.2212371,21.2979217 C39.1952509,17.4713365 36.072937,14.389103 32.2463517,14.417732 C28.4166833,14.4410755 25.3344499,17.5603063 25.3635193,21.3868916 C25.3833393,25.2139173 28.507415,28.2957103 32.3340003,28.2728072 Z M11.9251049,28.402298 C15.7490476,28.3820375 18.8326023,25.2570809 18.8110205,21.4274125 C18.7850342,17.6034699 15.6600777,14.5212365 11.8378968,14.5472228 C8.00646666,14.5705663 4.92467369,17.6924398 4.95065994,21.5221082 C4.97356308,25.3460508 8.09587697,28.4282842 11.9251049,28.402298 Z"/>
      <path fill-rule="nonzero" d="M62.2217089,13.3740008 L55.7357173,21.2429894 L62.1212874,29.1952221 L62.1182043,29.1952221 C62.9088029,30.2157329 62.6674391,31.6383699 61.5720526,32.388888 C60.4652146,33.136323 58.9183721,32.9350397 58.0846099,31.9427173 L58.0846099,31.9471218 L52.5671567,25.0810263 L46.9695424,31.8744484 L46.9695424,31.8687226 C46.1212456,32.8526765 44.5660346,33.0367825 43.4790166,32.2726106 C42.3840706,31.5075578 42.1651695,30.0862421 42.9703027,29.0683739 L49.4523303,21.2029089 L43.0694028,13.2528785 C42.2774829,12.2266419 42.5188467,10.8088497 43.6243634,10.0592125 C44.7210712,9.3086944 46.2723182,9.50997772 47.1060804,10.5040619 L52.616046,17.3644316 L58.2198265,10.5736521 C59.0663616,9.59013869 60.6176085,9.40867539 61.7143163,10.1710855 C62.8052984,10.9414236 63.023759,12.3587753 62.2217089,13.3740008" transform="matrix(1 0 0 -1 0 42.446)"/>
    </g>
  </g>
</svg>
