<svg xmlns="http://www.w3.org/2000/svg" viewBox="0 0 128 128">
  <g fill="none" fill-rule="evenodd">
    <path fill="#E4F1FA" d="M128,64.0028133 C128,99.3436195 99.3492461,128 64.0028133,128 C28.6563805,128 0,99.3436195 0,64.0028133 C0,28.6563805 28.6563805,0 64.0028133,0 C99.3492461,0 128,28.6563805 128,64.0028133 Z"/>
    <g stroke="#5A5A5A" stroke-linecap="round" stroke-linejoin="round" stroke-width="2" transform="translate(36 37)">
      <path fill="#FFFFFF" d="M13.5656904 40.5365148L2.07574261 40.5365148C1.1115687 40.5365148.310177391 41.372967.310177391 42.3396452L.310177391 51.3653148C.310177391 52.3294887 1.1115687 53.0557496 2.07574261 53.0557496L13.5656904 53.0557496C14.52736 53.0557496 15.3362643 52.3294887 15.3362643 51.3653148L15.3362643 42.3396452C15.3362643 41.372967 14.52736 40.5365148 13.5656904 40.5365148zM33.6029774 25.5091757L22.1130296 25.5091757C21.1463513 25.5091757 20.3474643 26.3456278 20.3474643 27.3123061L20.3474643 51.3640626C20.3474643 52.3282365 21.1463513 53.0570017 22.1130296 53.0570017L33.6029774 53.0570017C34.564647 53.0570017 35.3735513 52.3282365 35.3735513 51.3640626L35.3735513 27.3123061C35.3735513 26.3456278 34.564647 25.5091757 33.6029774 25.5091757zM53.6402643.463193043L42.1503165.463193043C41.1836383.463193043 40.382247 1.29964522 40.382247 2.26632348L40.382247 51.3640626C40.382247 52.3282365 41.1836383 53.0544974 42.1503165 53.0544974L53.6402643 53.0544974C54.5994296 53.0544974 55.4083339 52.3282365 55.4083339 51.3640626L55.4083339 2.26632348C55.4083339 1.29964522 54.5994296.463193043 53.6402643.463193043z"/>
      <path d="M25.2559861,2.98832696 L2.81452522,25.4297878"/>
      <polyline points="14.192 2.957 25.461 2.957 25.461 14.226"/>
    </g>
  </g>
</svg>
