<svg xmlns="http://www.w3.org/2000/svg" viewBox="0 0 128 128">
  <g fill="none" fill-rule="evenodd">
    <path fill="#E4F1FA" d="M128,64.0028133 C128,99.3436195 99.3492461,128 64.0028133,128 C28.6563805,128 0,99.3436195 0,64.0028133 C0,28.6563805 28.6563805,0 64.0028133,0 C99.3492461,0 128,28.6563805 128,64.0028133 Z"/>
    <g stroke="#5A5A5A" stroke-linecap="round" stroke-linejoin="round" stroke-width="2" transform="translate(36 35)">
      <path fill="#FFFFFF" d="M21.1645401,19.1739498 L10.4766222,19.1746963 L0.197345392,31.1249185 L0.195140741,50.3296593 C0.195140741,52.7521778 2.17914074,54.7338074 4.60165926,54.7338074 L50.3118815,54.7338074 C52.7344,54.7338074 54.7160296,52.7521778 54.7160296,50.3296593 L54.7160296,31.1249185 L44.4362074,19.1735111 L34.209837,19.1735111"/>
      <path fill="#DBDBDB" d="M38.0902519,31.1249185 L54.7160296,31.1249185 L44.4362074,19.1735111 L10.4766222,19.1746963 L0.199075984,31.1229066 L0.195140741,31.1249185 L0.197345392,31.1249185 L16.9441778,31.1249185 L16.9441778,36.5578074 C16.9441778,38.7551407 18.7266963,40.5400296 20.9264,40.5400296 L34.1080296,40.5400296 C36.3077333,40.5400296 38.0902519,38.7551407 38.0902519,36.5578074 L38.0902519,31.1249185 L38.0902519,31.1249185 Z"/>
      <path d="M27.4444444,0.436444444 L27.4444444,30.3718519"/>
      <polyline points="19.979 7.902 27.443 .437 34.91 7.902"/>
    </g>
  </g>
</svg>
