<?xml version="1.0" encoding="UTF-8"?>
<svg width="128px" height="128px" viewBox="0 0 128 128" version="1.1" xmlns="http://www.w3.org/2000/svg" xmlns:xlink="http://www.w3.org/1999/xlink">
    <!-- Generator: Sketch 56 (81588) - https://sketch.com -->
    <title>Floor Plans</title>
    <desc>Created with Sketch.</desc>
    <g id="Other" stroke="none" stroke-width="1" fill="none" fill-rule="evenodd">
        <g id="Floor-Plans" fill-rule="nonzero">
            <path d="M128,64.0028133 C128,99.3436195 99.3492461,128 64.0028133,128 C28.6563805,128 0,99.3436195 0,64.0028133 C0,28.6563805 28.6563805,0 64.0028133,0 C99.3492461,0 128,28.6563805 128,64.0028133 Z" id="Path" fill="#E4F1FA"></path>
            <g id="illustration" transform="translate(28.000000, 33.000000)" stroke="#5A5A5A" stroke-width="2">
                <path d="M71.1868419,48.6841577 L57.6501474,42.819084 L38.164779,50.6147989 C37.4633214,50.8943369 36.6429948,51.0314934 35.8226683,51.0314934 C35.0036479,51.0314934 34.1846276,50.8956432 33.4844763,50.6161051 L13.9938829,42.8203903 L0.458494624,48.6841577 C-0.158056551,48.949327 -0.151525289,49.368634 0.471557149,49.6194345 L34.6940661,63.3089606 C35.3171485,63.5584548 36.328188,63.5584548 36.9525767,63.3089606 L71.1750856,49.6194345 C71.7968618,49.3699403 71.8033931,48.949327 71.1868419,48.6841577 Z" id="Path" fill="#FFFFFF"></path>
                <path d="M71.1868419,31.8758901 L57.6488411,26.0095102 L38.164779,33.8026125 C37.4646276,34.0834568 36.6429948,34.2219196 35.8239745,34.2219196 C35.0036479,34.2219196 34.1833214,34.0834568 33.4818638,33.8026125 L13.9951892,26.0095102 L0.458494624,31.8758901 C-0.158056551,32.1410593 -0.151525289,32.5590601 0.471557149,32.8111669 L34.6940661,46.4980804 C35.3171485,46.7462684 36.328188,46.7462684 36.9525767,46.4980804 L71.1750856,32.8098606 C71.7968618,32.5603664 71.8033931,32.1423656 71.1868419,31.8758901 Z" id="Path" fill="#FFFFFF"></path>
                <path d="M45.0262668,26.4619005 C43.6788779,25.8470593 37.7419253,23.1452169 33.4007504,21.2875156 C30.0393706,19.849094 27.4598184,18.7343497 28.294763,19.05501 L45.0216665,26.4637405 L36.9525767,29.6911191 C36.328188,29.9406133 35.3171485,29.9406133 34.6940661,29.6911191 L18.3175787,23.1402628 L0.471557149,16.001593 C-0.151525289,15.753405 -0.158056551,15.334098 0.458494624,15.0676225 L34.7058224,0.225981681 C35.3223736,-0.0404938272 36.3216567,-0.0404938272 36.9369016,0.225981681 L71.1881481,15.0676225 C71.8020868,15.3354042 71.7981681,15.753405 71.1750856,16.0028992 L53.3342891,23.1389566 L45.0262668,26.4619005 Z" id="Combined-Shape" fill="#FFFFFF"></path>
                <path d="M27.8476776,4.3048743 C30.1621722,6.942184 32.8535941,8.26083885 35.9219434,8.26083885 C38.9902928,8.26083885 41.8246359,6.942184 44.4249728,4.3048743" id="Path-4"></path>
                <path d="M59.67127,14.8656061 C49.6905826,10.5416279 46.3949785,9.10579327 49.7844577,10.5581022 C53.1739368,12.010411 56.4695409,13.4462457 59.67127,14.8656061 Z" id="Path-5" fill="#878C90" transform="translate(54.083412, 12.437993) rotate(-49.000000) translate(-54.083412, -12.437993) "></path>
                <path d="M10.776583,11.2301429 C10.776583,11.2301429 23.8034754,16.4482039 17.9338485,14.0864522" id="Path-3" fill="#878C90"></path>
                <path d="M34.8385856,19.2107806 C34.8385856,19.2107806 45.3251281,23.4112773 40.6001261,21.5100864" id="Path-3-Copy" fill="#878C90" transform="translate(38.330997, 20.607385) rotate(-51.000000) translate(-38.330997, -20.607385) "></path>
            </g>
        </g>
    </g>
</svg>