<svg xmlns="http://www.w3.org/2000/svg" viewBox="0 0 128 128">
  <g fill="none" fill-rule="evenodd">
    <path fill="#E4F1FA" d="M128,64.0028133 C128,99.3436195 99.3492461,128 64.0028133,128 C28.6563805,128 0,99.3436195 0,64.0028133 C0,28.6563805 28.6563805,0 64.0028133,0 C99.3492461,0 128,28.6563805 128,64.0028133 Z"/>
    <g stroke="#5A5A5A" stroke-linecap="round" stroke-linejoin="round" stroke-width="2" transform="translate(52 54)">
      <path d="M20.8293333,8.0872 C19.712,4.26053333 16.184,1.4632 11.9973333,1.4632 C7.81066667,1.4632 4.28266667,4.26053333 3.16533333,8.0872"/>
      <polyline points="22.626 3.573 20.872 8.087 16.36 6.335"/>
      <path d="M3.2384,13.2448 C4.35306667,17.0714667 7.88373333,19.8688 12.0704,19.8688 C16.2570667,19.8688 19.7850667,17.0714667 20.8997333,13.2448"/>
      <polyline points="1.441 17.759 3.193 13.245 7.708 14.999"/>
    </g>
    <g stroke="#5A5A5A" stroke-linecap="round" stroke-linejoin="round" stroke-width="2" transform="translate(40 28)">
      <polyline fill="#FFFFFF" points="39.193 8.367 47.652 8.367 47.652 64.024 .348 64.024 .348 8.367 8.473 8.367"/>
      <path d="M22.5950609 25.1033043L39.1766261 25.1033043M22.5950609 39.0188522L39.1766261 39.0188522M22.5950609 52.9318957L39.1766261 52.9318957"/>
      <polyline points="8.652 25.07 11.017 27.764 17.125 20.117"/>
      <polyline points="8.652 38.984 11.017 41.68 17.125 34.033"/>
      <path fill="#DBDBDB" d="M27.9944348,5.65203478 L27.9944348,4.26073043 C27.9944348,1.95394783 26.1273043,0.0868173913 23.8205217,0.0868173913 C21.5165217,0.0868173913 19.6466087,1.95394783 19.6466087,4.26073043 L19.6466087,5.65203478 L16.864,5.65203478 C15.328,5.65203478 14.0813913,6.89586087 14.0813913,8.43464348 C14.0813913,9.97064348 15.328,11.2172522 16.864,11.2172522 L30.7770435,11.2172522 C32.3158261,11.2172522 33.5596522,9.97064348 33.5596522,8.43464348 C33.5596522,6.89586087 32.3158261,5.65203478 30.7770435,5.65203478 L27.9944348,5.65203478 Z"/>
      <polygon fill="#FFFFFF" points="8.518 55.738 14.083 55.738 14.083 50.173 8.518 50.173"/>
    </g>
  </g>
</svg>
