<svg xmlns="http://www.w3.org/2000/svg" viewBox="0 0 128 128">
  <g fill="none" fill-rule="evenodd">
    <path fill="#E4F1FA" d="M128,64.0028133 C128,99.3436195 99.3492461,128 64.0028133,128 C28.6563805,128 0,99.3436195 0,64.0028133 C0,28.6563805 28.6563805,0 64.0028133,0 C99.3492461,0 128,28.6563805 128,64.0028133 Z"/>
    <path fill="#FFFFFF" stroke="#5A5A5A" stroke-linecap="round" stroke-linejoin="round" stroke-width="2" d="M63.693551,41.0914286 C62.9467347,45.5613061 61.2642857,49.1965714 58.8001224,52.2499592 C58.5675918,52.5383265 63.9808163,58.4886122 63.9808163,58.4886122 L58.8001224,63.9477551 C58.8001224,63.9477551 52.6672653,58.6267347 52.3873469,58.833551 C49.0345714,61.3124082 45.0591429,62.9408571 40.7986531,63.7339592 C40.4485714,63.7989796 39.6319592,71.7461633 39.6319592,71.7461633 L32.1197143,71.7461633 C32.1197143,71.7461633 31.6307755,63.8232245 31.3684898,63.8037551 C27.0653878,63.4826939 23.2600408,61.3370204 19.7621633,59.1156735 C19.5057551,58.9525714 13.2105306,63.9477551 13.2105306,63.9477551 L7.77085714,58.7486939 C7.77085714,58.7486939 12.951551,52.4358367 12.7946939,52.2117551 C10.467551,48.8924082 8.33730612,45.1333469 8.028,40.9283265 C8.00412245,40.606898 0,39.7722857 0,39.7722857 L0,31.9735102 C0,31.9735102 7.88767347,31.5477551 7.89759184,31.3244082 C8.09485714,26.9507755 10.0333469,22.4478367 12.6022041,19.5483673 C12.6793469,19.4616735 8.02983673,12.9974694 8.02983673,12.9974694 L13.4695102,7.53832653 C13.4695102,7.53832653 19.3797551,12.6562041 19.6177959,12.4714286 C22.9154694,9.91138776 26.980898,8.31122449 31.2821633,7.69628571 C31.3894286,7.68085714 32.3790612,0 32.3790612,0 L40.1499184,0 C40.1499184,0 40.8820408,7.76644898 41.0106122,7.79032653 C45.207551,8.56469388 49.2509388,10.0425306 52.4130612,12.670898 C52.5247347,12.7638367 58.5411429,7.53832653 58.5411429,7.53832653 L63.9808163,13.2571837 C63.9808163,13.2571837 59.0726939,19.4190612 59.1762857,19.5869388 C61.3057959,23.0381633 62.6774694,26.3483265 63.7923673,30.9460408 C63.8537143,31.1980408 71.7520408,31.7137959 71.7520408,31.7137959 L71.7520408,40.032 C71.7520408,40.032 63.7523265,40.7387755 63.693551,41.0914286 Z M36.0091837,18.7196327 C26.5672653,18.7196327 18.9128571,26.3993878 18.9128571,35.872898 C18.9128571,45.3464082 26.5672653,53.0261633 36.0091837,53.0261633 C45.451102,53.0261633 53.1051429,45.3464082 53.1051429,35.872898 C53.1051429,26.3993878 45.451102,18.7196327 36.0091837,18.7196327 Z" transform="translate(28 28)"/>
  </g>
</svg>
