<svg xmlns="http://www.w3.org/2000/svg" viewBox="0 0 128 128">
  <g fill="none" fill-rule="evenodd">
    <path fill="#E4F1FA" d="M128,64.0028133 C128,99.3436195 99.3492461,128 64.0028133,128 C28.6563805,128 0,99.3436195 0,64.0028133 C0,28.6563805 28.6563805,0 64.0028133,0 C99.3492461,0 128,28.6563805 128,64.0028133 Z"/>
    <g stroke="#5A5A5A" stroke-linecap="round" stroke-linejoin="round" stroke-width="2" transform="translate(33 40)">
      <polyline fill="#DBDBDB" points="56.333 13.358 61.667 13.358 61.667 48.025 .333 48.025 .333 13.358 5.667 13.358"/>
      <polyline fill="#FFFFFF" points="50.943 8.023 56.332 8.023 56.332 42.69 5.665 42.69 5.665 8.023 10.999 8.023"/>
      <path d="M30.9725333,8.02346667 L30.9725333,42.6901333"/>
      <path fill="#FFFFFF" d="M11,0.0728 C21.6666667,0.0728 30.9733333,5.3208 30.9733333,5.3208 L30.9733333,42.6888 C30.9733333,42.6888 21.6666667,37.4434667 11,37.4434667 L11,0.0728"/>
      <path d="M25.9792 13.3541333C25.9792 13.3541333 21.3258667 10.7301333 15.9925333 10.7301333M25.9792 18.6874667C25.9792 18.6874667 21.3258667 16.0634667 15.9925333 16.0634667"/>
      <path fill="#FFFFFF" d="M50.9453333,0.0728 C40.2786667,0.0728 30.972,5.3208 30.972,5.3208 L30.972,42.6888 C30.972,42.6888 40.2786667,37.4434667 50.9453333,37.4434667 L50.9453333,0.0728"/>
      <path d="M35.9648 13.3541333C35.9648 13.3541333 40.6181333 10.7301333 45.9514667 10.7301333M35.9648 18.6874667C35.9648 18.6874667 40.6181333 16.0634667 45.9514667 16.0634667M35.9648 24.0221333C35.9648 24.0221333 40.6181333 21.3981333 45.9514667 21.3981333M35.9648 29.3554667C35.9648 29.3554667 40.6181333 26.7314667 45.9514667 26.7314667"/>
    </g>
  </g>
</svg>
