<svg xmlns="http://www.w3.org/2000/svg" viewBox="0 0 128 128">
  <g fill="none" fill-rule="evenodd">
    <path fill="#E4F1FA" d="M128,64.0028133 C128,99.3436195 99.3492461,128 64.0028133,128 C28.6563805,128 0,99.3436195 0,64.0028133 C0,28.6563805 28.6563805,0 64.0028133,0 C99.3492461,0 128,28.6563805 128,64.0028133 Z"/>
    <g stroke="#5A5A5A" stroke-linecap="round" stroke-linejoin="round" stroke-width="2" transform="translate(33 35)">
      <path fill="#FFFFFF" d="M.8672 31.1901333C.8672 13.5234667 15.4032-.668533333 32.9072.446133333 47.6165333 1.38213333 59.7045333 13.4221333 60.9792 28.4408 61.5765333 35.4728 59.8592 42.0674667 56.5205333 47.5154667 55.2192 49.6461333 52.8912 50.8914667 50.4325333 50.8914667L11.5312 50.8914667C9.0672 50.8914667 6.7392 49.6354667 5.43253333 47.5021333 2.5392 42.7714667.8672 37.1821333.8672 31.1901333zM52.2813333 32.1693333L54.612 32.1693333M46.5312 16.2709333L48.2858667 14.4762667M31.0312 9.164L31.0312 6.88133333M15.0416 16.2709333L13.3162667 14.5056M9.828 32.1706667L7.39866667 32.1706667"/>
      <path fill="#DBDBDB" d="M30.9322667,42.8373333 C28.4949333,42.864 26.5429333,40.912 26.5696,38.4746667 C26.5962667,36.04 28.5936,34.0426667 31.0309333,34.0133333 C33.4682667,33.9866667 35.4229333,35.9386667 35.3936,38.376 C35.3642667,40.8133333 33.3669333,42.8106667 30.9322667,42.8373333 Z"/>
      <path fill="#FFFFFF" d="M31.0312,33.9634667 L31.0312,17.1634667"/>
    </g>
  </g>
</svg>
