<svg xmlns="http://www.w3.org/2000/svg" viewBox="0 0 128 128">
  <g fill="none" fill-rule="evenodd">
    <path fill="#E4F1FA" d="M128,64.0028133 C128,99.3436195 99.3492461,128 64.0028133,128 C28.6563805,128 0,99.3436195 0,64.0028133 C0,28.6563805 28.6563805,0 64.0028133,0 C99.3492461,0 128,28.6563805 128,64.0028133 Z"/>
    <g stroke="#5A5A5A" stroke-linecap="round" stroke-linejoin="round" stroke-width="2" transform="translate(51 29)">
      <polygon fill="#FFFFFF" points="2.404 69.431 23.347 69.431 23.347 18.62 2.404 18.62"/>
      <path fill="#DBDBDB" d="M17.7109,31.8974 C17.7109,34.5734 15.5419,36.7424 12.8689,36.7424 C10.1929,36.7424 8.0239,34.5734 8.0239,31.8974 C8.0239,29.2244 10.1929,27.0554 12.8689,27.0554 C15.5419,27.0554 17.7109,29.2244 17.7109,31.8974 Z"/>
      <path d="M18.811 11.8526C15.649 8.4776 10.339 8.4836 7.183 11.8526M25.5991 6.0548C18.7141-1.1392 7.2871-1.1482.3931 6.0548"/>
    </g>
  </g>
</svg>
