<svg xmlns="http://www.w3.org/2000/svg" viewBox="0 0 128 128">
  <g fill="none" fill-rule="evenodd">
    <path fill="#E4F1FA" d="M128,64.0028133 C128,99.3436195 99.3492461,128 64.0028133,128 C28.6563805,128 0,99.3436195 0,64.0028133 C0,28.6563805 28.6563805,0 64.0028133,0 C99.3492461,0 128,28.6563805 128,64.0028133 Z"/>
    <g stroke="#5A5A5A" stroke-linecap="round" stroke-linejoin="round" stroke-width="2" transform="translate(40 32)">
      <path fill="#FFFFFF" d="M48,62.6829176 C48,63.9168 47.0004706,64.9417412 45.7637647,64.9417412 L2.22211765,64.9417412 C0.991058824,64.9417412 0,63.9168 0,62.6829176 L0,2.27350588 C0,1.04244706 0.991058824,0.000564705882 2.22211765,0.000564705882 L36.7058824,0.000564705882 C37.2931765,0.000564705882 37.5642353,0.251858824 37.9821176,0.664094118 L47.3336471,9.89138824 C47.7571765,10.3120941 48,10.6960941 48,11.2946824 L48,62.6829176 Z"/>
      <polyline fill="#DBDBDB" points="36.706 1.412 36.706 12.706 48 12.706"/>
    </g>
    <g stroke="#5A5A5A" stroke-linecap="round" stroke-linejoin="round" stroke-width="2" transform="translate(52 54)">
      <path d="M20.8293333,8.0872 C19.712,4.26053333 16.184,1.4632 11.9973333,1.4632 C7.81066667,1.4632 4.28266667,4.26053333 3.16533333,8.0872"/>
      <polyline points="22.626 3.573 20.872 8.087 16.36 6.335"/>
      <path d="M3.2384,13.2448 C4.35306667,17.0714667 7.88373333,19.8688 12.0704,19.8688 C16.2570667,19.8688 19.7850667,17.0714667 20.8997333,13.2448"/>
      <polyline points="1.441 17.759 3.193 13.245 7.708 14.999"/>
    </g>
  </g>
</svg>
