<svg xmlns="http://www.w3.org/2000/svg" viewBox="0 0 128 128">
  <g fill="none" fill-rule="evenodd">
    <path fill="#E4F1FA" d="M128,64.0028133 C128,99.3436195 99.3492461,128 64.0028133,128 C28.6563805,128 0,99.3436195 0,64.0028133 C0,28.6563805 28.6563805,0 64.0028133,0 C99.3492461,0 128,28.6563805 128,64.0028133 Z"/>
    <g stroke="#5A5A5A" stroke-linecap="round" stroke-linejoin="round" stroke-width="2" transform="translate(40 32)">
      <path fill="#FFFFFF" d="M48,62.6829176 C48,63.9168 47.0004706,64.9417412 45.7637647,64.9417412 L2.22211765,64.9417412 C0.991058824,64.9417412 0,63.9168 0,62.6829176 L0,2.27350588 C0,1.04244706 0.991058824,0.000564705882 2.22211765,0.000564705882 L36.7058824,0.000564705882 C37.2931765,0.000564705882 37.5642353,0.251858824 37.9821176,0.664094118 L47.3336471,9.89138824 C47.7571765,10.3120941 48,10.6960941 48,11.2946824 L48,62.6829176 Z"/>
      <polyline fill="#DBDBDB" points="36.706 1.412 36.706 12.706 48 12.706"/>
      <path fill="#FFFFFF" d="M20.2512,25.4141333 L38.5552,25.4141333"/>
      <polygon fill="#FFFFFF" points="9.376 28.056 14.528 28.056 14.528 22.597 9.376 22.597"/>
      <path fill="#FFFFFF" d="M20.2512,36.0821333 L38.5552,36.0821333"/>
      <polygon fill="#FFFFFF" points="9.376 38.723 14.528 38.723 14.528 33.264 9.376 33.264"/>
      <path fill="#FFFFFF" d="M20.2512,46.7488 L38.5552,46.7488"/>
      <polygon fill="#FFFFFF" points="9.376 49.389 14.528 49.389 14.528 43.931 9.376 43.931"/>
    </g>
  </g>
</svg>
