<svg xmlns="http://www.w3.org/2000/svg" viewBox="0 0 128 128">
  <g fill="none" fill-rule="evenodd">
    <path fill="#E4F1FA" d="M128,64.0028133 C128,99.3436195 99.3492461,128 64.0028133,128 C28.6563805,128 0,99.3436195 0,64.0028133 C0,28.6563805 28.6563805,0 64.0028133,0 C99.3492461,0 128,28.6563805 128,64.0028133 Z"/>
    <g stroke="#5A5A5A" stroke-linecap="round" stroke-linejoin="round" stroke-width="2" transform="rotate(30 17.644 120.71)">
      <g fill="#FFFFFF" transform="rotate(-45 35.984 8.185)">
        <path d="M37.3662714,48.7669734 C37.3662714,49.725034 36.5901765,50.5208601 35.6299236,50.5208601 L1.82156522,50.5208601 C0.86569697,50.5208601 0.0961791831,49.725034 0.0961791831,48.7669734 L0.0961791831,1.86146614 C0.0961791831,0.905597892 0.86569697,0.0966176548 1.82156522,0.0966176548 L28.5968379,0.0966176548 C29.0528485,0.0966176548 29.2633149,0.291737549 29.5877839,0.611821871 L36.8488748,7.77644901 C37.1777286,8.10311041 37.3662714,8.40127115 37.3662714,8.86605112 L37.3662714,48.7669734 Z"/>
        <polyline points="27.149 .932 27.149 9.701 35.919 9.701"/>
      </g>
      <g transform="matrix(-1 0 0 1 35.174 40.629)">
        <path fill="#DBDBDB" d="M11.6529311,6.14111304 C12.5823224,7.25415652 14.3137391,9.09815652 14.9398261,10.6174609 C16.9210435,15.4369391 16.5370435,20.7016348 10.2761739,17.5238957 L6.64486957,6.98337391 C5.22852174,2.69815652 -1.12973913,4.91589565 0.250434783,9.09537391 C4.63026087,22.3461565 5.60417391,28.2953739 15.0288696,38.1736348 L25.7978708,29.9522353 C25.9013565,30.6745043 24.92841,31.310696 25.0971826,15.9739826 C25.2335937,3.57802941 20.8482662,3.38262378 17.9811719,0.0325913043 L11.6529311,6.14111304 Z"/>
        <polygon fill="#FFFFFF" points="28.753 28.708 34.785 37.456 18.413 48.748 12.38 40"/>
      </g>
    </g>
  </g>
</svg>
