<svg xmlns="http://www.w3.org/2000/svg" viewBox="0 0 128 128">
  <g fill="none" fill-rule="evenodd">
    <path fill="#E4F1FA" d="M128,64.0028133 C128,99.3436195 99.3492461,128 64.0028133,128 C28.6563805,128 0,99.3436195 0,64.0028133 C0,28.6563805 28.6563805,0 64.0028133,0 C99.3492461,0 128,28.6563805 128,64.0028133 Z"/>
    <path fill="#DBDBDB" stroke="#DBDBDB" stroke-linecap="round" stroke-linejoin="round" stroke-width="2" d="M28,76 L100,76"/>
    <g fill="#5A5A5A" fill-rule="nonzero" stroke="#5A5A5A" stroke-width="2" transform="translate(29 47)">
      <path d="M7.55939652 25C6.89955166 25 6.25333842 24.5106556 5.58833564 23.5077019 3.88253902 21.087451 4.35559363 18.3730787 6.89439374 16.0748881 8.42297909 14.7425185 10.175197 13.6410341 11.8898357 12.923378 11.9642571 12.2380753 12.0007309 11.5520373 12.0007309 10.8546021 12.0007309 10.6273934 12.0088362 10.3196689 12.0184152 9.95164961 12.0814155 7.60309076 12.2472056 1.36551257 10.0234068 1.06771472 8.80319121.910727457 6.15828539 4.10341454 5.16796546 5.81189183 2.03379444 10.8534991.652946549 14.9961981 1.16910661 17.8057922 1.22179104 18.0955017 1.03131655 18.3734463.743210085 18.4274911.448103586 18.4712417.179155091 18.2899894.12499697 17.9995446-.446794899 14.8792849.945105667 10.5928341 4.26017218 5.26078198 4.28411965 5.21923735 7.72887092-.264654923 10.1556706.00998087248 13.3333154.435353852 13.1612621 6.88249349 13.078367 9.98069409 13.0691564 10.3369486 13.0606827 10.6354817 13.0606827 10.8549698 13.0606827 11.4156385 13.0389458 11.9700573 12.9932614 12.5196965 13.6777906 12.3082968 14.2462666 12.2292517 14.699058 12.5332996 15.2067443 12.8737451 15.3423239 13.5395622 15.3953767 14.501339 15.4211663 14.9564918 15.3891135 15.4638511 15.3589029 15.9542984 15.3246396 16.4947463 15.2690078 17.39439 15.403482 17.6050544 15.4137978 17.5778481 15.6602726 17.5359359 16.2722225 17.0675476 16.4037494 16.951002 16.5676974 16.7936471 16.736435 16.6318804 17.4769644 15.9226803 18.3147574 15.1197291 19.3898145 15.0219338 19.3909198 15.0219338 19.3931303 15.0219338 19.3949724 15.0219338 21.0410846 15.0219338 21.2459275 15.9822399 21.3951387 16.682984 21.4780338 17.0730624 21.5565078 17.4414494 21.8438774 17.7300559 22.6886704 18.5028597 23.5441477 17.9017493 25.1622597 16.4469516 26.3117382 15.4120122 27.5080064 14.3443517 28.7930644 14.6245023 29.5214359 14.7700924 30.0567539 15.4234094 30.5736508 16.0535643 30.9299154 16.4877609 31.2964959 16.9355607 31.660129 17.1182836 32.4017637 17.361669 33.4911893 17.361669 34.3009822 17.0899744 34.5787728 16.9929143 34.8797741 17.1458574 34.9722482 17.4252727 35.0654591 17.7043203 34.9162479 18.0072653 34.6388257 18.0999135 33.6112951 18.4480796 32.281658 18.4480796 31.2537589 18.0999135 30.6208089 17.7885125 30.1809123 17.2510058 29.7553842 16.732617 29.3563825 16.2451108 28.9433808 15.742531 28.5768003 15.6682654 27.7957444 15.4899543 26.8190561 16.3844508 25.8692627 17.2414469 24.4906253 18.4819036 22.7756181 20.0275112 21.1110849 18.5006538 20.5849774 17.972706 20.4586084 17.3811545 20.3583975 16.9061485 20.2206074 16.2601846 20.1830283 16.086653 19.437341 16.086653 18.7789698 16.1487861 18.0826511 16.8153386 17.4673854 17.4039489 17.288332 17.5767452 17.1133313 17.743659 16.9423832 17.8932933 16.3035384 18.3848436 15.5224825 18.8778644 14.8788482 18.5315366 14.1593189 18.1440317 14.2245297 17.098798 14.3000563 15.8877534 14.3280564 15.4281888 14.3578987 14.9524476 14.3365302 14.5608986 14.2834773 13.6079454 14.1501083 13.4465464 14.1099503 13.4200754 14.0351605 13.3671336 13.756633 13.3733837 12.8628398 13.6869905 12.5209436 16.0804029 11.7233087 18.4852125 10.367882 21.3010566 10.2525657 21.5448096 10.1357757 21.8142983 10.0167752 22.0896694 9.41919379 23.4698338 8.80061225 24.8952193 7.67913387 24.9952205 7.6389758 24.998897 7.59955459 25 7.55939652 25zM11.7104139 14.1700848C10.2945659 14.8384756 8.84150716 15.7895904 7.59660721 16.8745305 6.37454946 17.9818973 4.5899104 20.2458963 6.46223403 22.9032825 7.1220789 23.897045 7.48755412 23.9448397 7.58518611 23.9327072 8.08034607 23.8889567 8.66024324 22.549234 9.04450801 21.6631935 9.16866642 21.3778958 9.28987746 21.0966422 9.41108849 20.8392861 10.5970408 18.3774905 11.3383071 16.2509933 11.7104139 14.1700848zM36.5297957 22C36.4229527 22 36.3150044 21.9676271 36.2217931 21.8987881 35.9834226 21.7250161 35.9285274 21.3886352 36.0994762 21.1460242 37.3303815 19.3971412 38.4942335 17.509464 39.619401 15.6861605 41.6324708 12.4231915 43.7136991 9.0489637 46.3394584 6.16553948 46.5402496 5.94525465 46.9167791 5.94451044 47.116465 6.16516737 48.054473 7.19328728 47.6956278 9.55576765 47.3791515 11.6399152 47.2818875 12.2810482 47.1975183 12.8347371 47.1783603 13.2139098 47.1544127 13.5275924 47.101728 13.8836948 47.0442539 14.2665885 46.9112527 15.152193 46.7450934 16.2543614 46.9842007 16.8858198 47.0586224 17.0845226 47.1835182 17.3289941 47.3559407 17.3743907 47.859945 17.5072314 48.9644808 16.5379037 49.7683824 15.8323969 50.6758112 15.0349807 51.4594495 14.3465906 52.1705082 14.2706816 52.4107207 14.2476113 52.6409859 14.3904987 52.7242497 14.623435 52.9906204 15.3687569 52.8215137 16.050077 52.6726703 16.6499066 52.6476175 16.7507465 52.6214594 16.854191 52.5982486 16.9561472 53.49573 16.9416352 54.3751585 16.0820778 55.2984296 15.180845 56.559914 13.9480685 57.9927157 12.5560321 59.7125199 13.4323341 60.1682606 13.6648983 60.5381585 14.1434225 60.89553 14.6070625 61.1409005 14.9248383 61.3940079 15.2537771 61.6257468 15.4297817 62.2645943 15.9976105 62.8820733 16.2986416 63.5146576 16.5862771 65.5675172 17.2549457 68.2949616 17.0997789 70.2472414 16.1829177 70.5143489 16.0578911 70.8282464 16.1754756 70.9513 16.4467385 71.0736169 16.7176293 70.9575633 17.0383819 70.6922978 17.1630363 68.5134371 18.1859468 65.478727 18.3589746 63.1366544 17.5920708 62.402385 17.2642483 61.6762209 16.9077738 60.9585305 16.2681292 60.64537 16.0314719 60.3484201 15.6463455 60.0614176 15.2742428 59.7887837 14.9218614 59.4811495 14.521851 59.2379895 14.3979408 58.251718 13.8956021 57.3686052 14.6520869 56.0323306 15.959656 54.8360572 17.1269424 53.4817299 18.4523724 51.8271368 17.9184049 51.5891348 17.8421238 51.4355019 17.6088154 51.4579758 17.3557855 51.4889234 17.0108463 51.5677662 16.6923263 51.64403 16.3849695 51.7162411 16.093613 51.7836627 15.8234664 51.7991366 15.5641108 51.4001332 15.825699 50.8946552 16.2685013 50.4606515 16.6495345 49.3196417 17.6519793 48.1381053 18.6834482 47.0962017 18.4207436 46.6032501 18.2946008 46.2318785 17.9072418 45.9938765 17.2728066 45.6541894 16.3726901 45.8350857 15.1674493 45.9953502 14.1024912 46.0487717 13.7493657 46.0988774 13.4200547 46.1198776 13.1435824 46.1416146 12.7234784 46.2289311 12.1444865 46.3309846 11.4743294 46.5085651 10.3036942 46.7823043 8.50420528 46.5881447 7.49506261 44.2722302 10.1730861 42.365635 13.2645158 40.5168824 16.2599429 39.3832411 18.0977584 38.2109153 19.9984593 36.960852 21.7748778 36.8576932 21.9229747 36.6952182 22 36.5297957 22z"/>
    </g>
  </g>
</svg>
