<svg xmlns="http://www.w3.org/2000/svg" viewBox="0 0 128 128">
  <g fill="none" fill-rule="evenodd">
    <path fill="#E4F1FA" d="M128,64.0028133 C128,99.3436195 99.3492461,128 64.0028133,128 C28.6563805,128 0,99.3436195 0,64.0028133 C0,28.6563805 28.6563805,0 64.0028133,0 C99.3492461,0 128,28.6563805 128,64.0028133 Z"/>
    <path fill="#FFFFFF" fill-rule="nonzero" stroke="#5A5A5A" stroke-linecap="round" stroke-linejoin="round" stroke-width="2" d="M80.4172795,51.214066 C81.8311278,55.5702028 83.3391932,60.2179189 84.7555153,64.5853865 L91.2195122,62.4780488 C94.5560976,61.4243902 98.1268293,63.2390244 99.2390244,66.5756098 C100.292683,69.9121951 98.4780488,73.4829268 95.1414634,74.595122 C95.1414634,74.595122 92.6104881,75.4192286 88.6802581,76.6985168 C89.9741389,80.6976661 90.8097561,83.2906388 90.8097561,83.3170732 C91.9219512,86.595122 89.8731707,90.1658537 86.4780488,91.1609756 C83.2585366,92.097561 79.8634146,90.3414634 78.7512195,87.2390244 L76.6015134,80.629252 C72.2419632,82.0476145 67.592995,83.5597174 63.2256541,84.9794077 C64.5145165,88.9630921 65.3463415,91.5443574 65.3463415,91.5707317 C66.4585366,94.8487805 64.4097561,98.4195122 61.0146341,99.4146341 C57.795122,100.35122 54.4,98.595122 53.2878049,95.4926829 L51.144686,88.9031643 C47.1345535,90.2037358 44.5337761,91.0439024 44.5073171,91.0439024 C41.2292683,92.1560976 37.6585366,90.1073171 36.6634146,86.7121951 C35.7268293,83.4926829 37.4829268,80.097561 40.5853659,78.9853659 L47.2160585,76.8236834 L42.8501241,63.3996004 C38.8635193,64.6894105 36.2800442,65.5219512 36.2536585,65.5219512 C32.9756098,66.6341463 29.404878,64.5853659 28.4097561,61.1902439 C27.4731707,57.9707317 29.2292683,54.5756098 32.3317073,53.4634146 L38.9215226,51.3201993 L36.8390244,44.9170732 C35.7853659,41.5804878 37.6,38.0097561 40.9365854,36.897561 C44.2731707,35.8439024 47.8439024,37.6585366 48.9560976,40.995122 C48.9560976,40.995122 49.7679632,43.4945082 51.0303149,47.3820387 L64.3767473,43.0413588 L62.302439,36.6634146 C61.2487805,33.3268293 63.0634146,29.7560976 66.4,28.6439024 C69.7365854,27.5902439 73.3073171,29.404878 74.4195122,32.7414634 C74.4195122,32.7414634 75.2278724,35.230058 76.4855513,39.1031945 L82.9073171,37.0146341 C86.2439024,35.9609756 89.8146341,37.7756098 90.9268293,41.1121951 C91.9804878,44.4487805 90.1658537,48.0195122 86.8292683,49.1317073 C86.8292683,49.1317073 84.3191325,49.9470647 80.4172795,51.214066 Z M68.3128122,55.1437079 C63.9598699,56.5565166 59.3179504,58.0626975 54.9568586,59.4769483 C56.3744992,63.8447713 57.8867133,68.5052789 59.3060929,72.8821924 L72.6654441,68.5268895 L68.3128122,55.1437079 Z"/>
  </g>
</svg>
