<svg xmlns="http://www.w3.org/2000/svg" viewBox="0 0 128 128">
  <g fill="none" fill-rule="evenodd">
    <path fill="#E4F1FA" d="M128,64.0028133 C128,99.3436195 99.3492461,128 64.0028133,128 C28.6563805,128 0,99.3436195 0,64.0028133 C0,28.6563805 28.6563805,0 64.0028133,0 C99.3492461,0 128,28.6563805 128,64.0028133 Z"/>
    <g stroke="#5A5A5A" stroke-linecap="round" stroke-linejoin="round" stroke-width="2" transform="translate(34 29)">
      <path fill="#DBDBDB" d="M36.7213333,51.2408 C30.7506667,48.8808 24.1186667,45.9501333 23.564,44.1234667 L23.564,42.2088 C24.8013333,40.9128 25.7773333,39.1048 26.356,36.9901333 C27.748,35.9901333 28.092,33.9341333 26.9426667,32.4888 L26.9426667,28.2008 C26.9426667,23.7741333 24.532,20.7421333 19.02,20.7421333 C13.6546667,20.7421333 11.1,23.7741333 11.1,28.2008 L11.1,32.4888 C9.95066667,33.9341333 10.2946667,35.9901333 11.6813333,36.9874667 C12.26,39.1048 13.2386667,40.9128 14.4786667,42.2088 L14.4786667,44.1234667 C13.9213333,45.9474667 7.292,48.8781333 1.32133333,51.2408 C0.812,51.4434667 0.476,51.9501333 0.476,52.5154667 L0.476,57.3048 C0.476,58.0594667 1.06266667,58.6701333 1.788,58.6701333 L36.252,58.6701333 C36.98,58.6701333 37.5666667,58.0594667 37.5666667,57.3048 L37.5666667,52.5154667 C37.5666667,51.9501333 37.228,51.4408 36.7213333,51.2408 Z"/>
      <path fill="#FFFFFF" d="M24.3829333,16.0768 L24.3829333,2.74346667 C24.3829333,1.27146667 25.5749333,0.0768 27.0496,0.0768 L59.0496,0.0768 C60.5242667,0.0768 61.7162667,1.27146667 61.7162667,2.74346667 L61.7162667,24.0768 C61.7162667,25.5488 60.5242667,26.7434667 59.0496,26.7434667 L43.0496,26.7434667 L34.9669333,34.7434667 L35.0496,26.7434667"/>
      <path d="M53.6874667 8.0768L32.2981333 8.0768M37.6848 18.7448L32.2981333 18.7448M53.6874667 18.7448L42.9674667 18.7448M43.0208 13.4101333L32.2981333 13.4101333M53.6874667 13.4101333L48.2981333 13.4101333"/>
    </g>
  </g>
</svg>
