<svg width="128" height="128" viewBox="0 0 128 128" xmlns="http://www.w3.org/2000/svg"><g fill="none" fill-rule="evenodd"><path d="M128 64.003C128 99.343 99.35 128 64.003 128S0 99.344 0 64.003C0 28.656 28.656 0 64.003 0 99.349 0 128 28.656 128 64.003z" fill="#E4F1FA"/><g transform="translate(35 30)"><path d="M53.35 19.892l4.008-4.009.478-.475-4.794-5.075s-.397 0-.617.309l-4.008 4.008c-.309 0 4.933 5.242 4.933 5.242zM32.333 14.183V9.25h3.084V1.542C35.417.617 34.8 0 33.875 0H21.542C20.617 0 20 .617 20 1.542V9.25h3.083v4.933" stroke="#5A5A5A" stroke-width="2.5" fill="#FFF" stroke-linecap="round" stroke-linejoin="round"/><circle stroke="#5A5A5A" stroke-width="2.5" fill="#FFF" stroke-linecap="round" stroke-linejoin="round" cx="28" cy="41" r="28"/><path d="M28 18v23h23c-.014-12.697-10.303-22.986-23-23z" fill="#5A5A5A"/></g></g></svg>