<svg xmlns="http://www.w3.org/2000/svg" viewBox="0 0 128 128">
  <g fill="none" fill-rule="evenodd">
    <path fill="#E4F1FA" d="M128,64.0028133 C128,99.3436195 99.3492461,128 64.0028133,128 C28.6563805,128 0,99.3436195 0,64.0028133 C0,28.6563805 28.6563805,0 64.0028133,0 C99.3492461,0 128,28.6563805 128,64.0028133 Z"/>
    <g stroke="#5A5A5A" stroke-linecap="round" stroke-linejoin="round" stroke-width="2" transform="translate(32 34)">
      <polyline fill="#DBDBDB" points="17.156 54.695 .327 51.539 8.863 5.992 26.997 9.39"/>
      <polyline fill="#DBDBDB" points="46.99 54.132 45.876 60.077 24.749 56.116"/>
      <polygon fill="#FFFFFF" points="63.501 52.653 17.342 56.781 13.214 10.622 59.373 6.497"/>
      <path d="M28.0251422,14.9453015 L28.0251422,20.0466311 C28.0251422,22.2296325 29.7973947,24.001885 31.9803961,24.001885 C34.1662698,24.001885 35.9356499,22.2296325 35.9356499,20.0466311 L35.9356499,3.34092567 C35.9356499,1.70367461 34.6086149,0.376639551 32.9713638,0.376639551 C31.3312404,0.376639551 30.001333,1.70654698 30.001333,3.34379804 L30.001333,9.12300701"/>
    </g>
  </g>
</svg>
