<svg xmlns="http://www.w3.org/2000/svg" viewBox="0 0 128 128">
  <g fill="none" fill-rule="evenodd">
    <path fill="#E4F1FA" d="M128,64.0028133 C128,99.3436195 99.3492461,128 64.0028133,128 C28.6563805,128 0,99.3436195 0,64.0028133 C0,28.6563805 28.6563805,0 64.0028133,0 C99.3492461,0 128,28.6563805 128,64.0028133 Z"/>
    <g stroke="#5A5A5A" stroke-linecap="round" stroke-linejoin="round" stroke-width="2" transform="translate(32 32)">
      <path fill="#FFFFFF" d="M59.2513376,0.344086022 L4.77288602,0.344086022 C2.2651871,0.344086022 0.360326882,2.47191398 0.360326882,4.97686022 L0.360326882,40.1837419 C0.360326882,42.6914409 2.2651871,44.3870968 4.77288602,44.3870968 L59.2513376,44.3870968 C61.7617892,44.3870968 63.6721548,42.6914409 63.6721548,40.1837419 L63.6721548,4.97686022 C63.6721548,2.47191398 61.7617892,0.344086022 59.2513376,0.344086022 Z"/>
      <polygon fill="#FFFFFF" points="8.605 36.129 19.616 36.129 19.616 25.118 8.605 25.118"/>
      <polygon fill="#FFFFFF" points="8.605 19.613 19.616 19.613 19.616 8.602 8.605 8.602"/>
      <path d="M28.0832 11.3548387L52.6068989 11.3548387M28.0832 27.8709677L52.6068989 27.8709677M28.0832 16.8602151L38.755372 16.8602151M28.0832 33.3763441L38.755372 33.3763441"/>
      <path fill="#DBDBDB" d="M37.0269591,55.3978495 C42.2515613,55.3978495 43.4517333,59.4030108 45.0620559,62.6676989 C45.0620559,63.2099785 44.522529,63.655914 43.8563785,63.655914 L20.1694968,63.655914 C19.5033462,63.655914 18.9638194,63.1163871 18.9638194,62.5713548 C20.6209376,59.3507097 21.8981849,55.3978495 26.9989161,55.3978495 L37.0269591,55.3978495 Z"/>
      <path d="M32.0162409,55.3978495 L32.0162409,49.8924731"/>
    </g>
  </g>
</svg>
