<svg xmlns="http://www.w3.org/2000/svg" viewBox="0 0 128 128">
  <g fill="none" fill-rule="evenodd">
    <path fill="#E4F1FA" d="M128,64.0028133 C128,99.3436195 99.3492461,128 64.0028133,128 C28.6563805,128 0,99.3436195 0,64.0028133 C0,28.6563805 28.6563805,0 64.0028133,0 C99.3492461,0 128,28.6563805 128,64.0028133 Z"/>
    <ellipse cx="64" cy="57" fill="#DBDBDB" stroke="#979797" rx="9" ry="7"/>
    <g stroke="#5A5A5A" stroke-linecap="round" stroke-linejoin="round" stroke-width="2" transform="translate(37 33)">
      <polyline fill="#DBDBDB" points=".333 24.023 11 .023 43 .023 53.667 24.023"/>
      <path fill="#FFFFFF" d="M32.3333333,24.0234667 C32.3333333,26.9701333 29.944,29.3568 27,29.3568 C24.056,29.3568 21.6666667,26.9701333 21.6666667,24.0234667 L0.333333333,24.0234667 L3,61.3568 L51,61.3568 L53.6666667,24.0234667 L32.3333333,24.0234667 Z"/>
      <polyline points="35 40.023 35 42.69 19 42.69 19 40.023"/>
      <path d="M8.33333333 18.6901333C10.0426667 16.9834667 12.3573333 16.0234667 14.7706667 16.0234667L39.2293333 16.0234667C41.6426667 16.0234667 43.9573333 16.9834667 45.6666667 18.6901333M12.5389333 12.0234667C13.8616 11.1728 15.6562667 10.6901333 17.5256 10.6901333L36.4749333 10.6901333C38.3442667 10.6901333 40.1389333 11.1728 41.4616 12.0234667M15.9818667 6.13786667C16.9898667 5.6392 18.3578667 5.35653333 19.7818667 5.35653333L34.2192 5.35653333C35.6432 5.35653333 37.0112 5.6392 38.0192 6.13786667"/>
    </g>
  </g>
</svg>
