<svg xmlns="http://www.w3.org/2000/svg" viewBox="0 0 128 128">
  <g fill="none" fill-rule="evenodd">
    <path fill="#E4F1FA" d="M128,64.0028133 C128,99.3436195 99.3492461,128 64.0028133,128 C28.6563805,128 0,99.3436195 0,64.0028133 C0,28.6563805 28.6563805,0 64.0028133,0 C99.3492461,0 128,28.6563805 128,64.0028133 Z"/>
    <g stroke="#5A5A5A" stroke-linecap="round" stroke-linejoin="round" stroke-width="2" transform="translate(36 36)">
      <path fill="#FFFFFF" d="M55.56712,2.2984 C55.56712,1.2496 54.71752,0.4 53.66872,0.4 L2.26552,0.4 C1.21672,0.4 0.36712,1.2496 0.36712,2.2984 L0.36712,53.7016 C0.36712,54.748 1.21672,55.6 2.26552,55.6 L53.66872,55.6 C54.71752,55.6 55.56712,54.748 55.56712,53.7016 L55.56712,2.2984 Z"/>
      <path d="M48.36712 9.13504C48.36712 8.28544 47.68072 7.59904 46.83352 7.59904L9.10072 7.59904C8.25352 7.59904 7.56712 8.28544 7.56712 9.13504L7.56712 39.66784C7.56712 40.51264 8.25352 41.19904 9.10072 41.19904L46.83352 41.19904C47.68072 41.19904 48.36712 40.51264 48.36712 39.66784L48.36712 9.13504zM18.36712 48L37.56712 48"/>
      <path fill="#DBDBDB" d="M48.36712,9.13504 C48.36712,8.28544 47.68072,7.59904 46.83352,7.59904 L9.10072,7.59904 C8.25352,7.59904 7.56712,8.28544 7.56712,9.13504 L7.56712,39.66784 C7.56712,40.51264 8.25352,41.19904 9.10072,41.19904 L46.83352,41.19904 C47.68072,41.19904 48.36712,40.51264 48.36712,39.66784 L48.36712,9.13504 Z"/>
      <polyline fill="#FFFFFF" points="14.635 40.2 28.507 20.597 34.072 28.109 41.229 16.85 48.367 27.122 48.367 40.2"/>
      <path fill="#FFFFFF" d="M18.28408,21.98368 C20.30008,21.98368 21.93208,20.34688 21.93208,18.33328 C21.93208,16.31968 20.30008,14.68528 18.28408,14.68528 C16.26808,14.68528 14.63368,16.31968 14.63368,18.33328 C14.63368,20.34688 16.26808,21.98368 18.28408,21.98368 Z"/>
    </g>
  </g>
</svg>
