<svg xmlns="http://www.w3.org/2000/svg" xmlns:xlink="http://www.w3.org/1999/xlink" viewBox="0 0 128 128">
  <defs>
    <polygon id="zapier-a" points=".01 .054 .01 23.51 44.232 23.51 44.232 .054"/>
  </defs>
  <g fill="none" fill-rule="evenodd">
    <path fill="#E4F1FA" d="M128,64.0028133 C128,99.3436195 99.3492461,128 64.0028133,128 C28.6563805,128 0,99.3436195 0,64.0028133 C0,28.6563805 28.6563805,0 64.0028133,0 C99.3492461,0 128,28.6563805 128,64.0028133 Z"/>
    <g transform="translate(24 43)">
      <g transform="translate(0 13.12)">
        <mask id="zapier-b" fill="white">
          <use xlink:href="#zapier-a"/>
        </mask>
        <path fill="#5A5A5A" d="M0 15.72896L8.28224 2.84512.9816 2.84512C.92032 2.47712.88976 2.06848.88976 1.6184.88976 1.18912.92032.78992.9816.42176L12.79136.42176 12.94464.82112 4.60128 13.73504 12.4232 13.73504C12.48448 14.14416 12.51536 14.56304 12.51536 14.99232 12.51536 15.40192 12.48448 15.79024 12.4232 16.15824L.15344 16.15824 0 15.72896M23.89536 8.76528C23.58864 8.7248 23.2 8.68432 22.72976 8.64288 22.2592 8.6024 21.86016 8.5816 21.53344 8.5816 20.26528 8.5816 19.29904 8.8168 18.63488 9.28704 17.96992 9.75792 17.63792 10.47328 17.63792 11.43424 17.63792 12.04784 17.75008 12.52848 17.97536 12.87584 18.2 13.22416 18.48144 13.48944 18.81888 13.6736 19.15632 13.8576 19.52912 13.97024 19.9384 14.0112 20.3472 14.052 20.736 14.07232 21.104 14.07232 21.57408 14.07232 22.05984 14.04688 22.56096 13.99552 23.06192 13.9448 23.50672 13.86784 23.89536 13.7656L23.89536 8.76528zM23.89536 5.79024C23.89536 4.58368 23.58864 3.74528 22.9752 3.27488 22.3616 2.80464 21.47216 2.56944 20.3064 2.56944 19.59024 2.56944 18.92096 2.62592 18.29744 2.73824 17.67328 2.85088 17.06496 2.99872 16.47216 3.18256 16.08336 2.50768 15.88944 1.70048 15.88944.7592 16.58432.53456 17.35104.36064 18.18992.23808 19.02816.1152 19.83584.05376 20.61328.05376 22.65792.05376 24.21216.51936 25.27584 1.44976 26.33872 2.38048 26.87072 3.86816 26.87072 5.9128L26.87072 15.75952C26.15472 15.92304 25.28592 16.09168 24.26352 16.2656 23.24064 16.43904 22.1976 16.52624 21.13472 16.52624 20.13264 16.52624 19.22768 16.4344 18.42 16.25024 17.612 16.06576 16.92688 15.76992 16.36464 15.36032 15.80208 14.95168 15.368 14.43008 15.06112 13.79632 14.7544 13.1624 14.60096 12.39568 14.60096 11.49552 14.60096 10.61664 14.77984 9.84464 15.13776 9.17952 15.49552 8.51568 15.98128 7.96336 16.59488 7.5232 17.20832 7.084 17.91376 6.75632 18.71136 6.54192 19.50912 6.32704 20.3472 6.21952 21.22672 6.21952 21.88096 6.21952 22.41776 6.2352 22.83712 6.26576 23.256 6.29648 23.60896 6.33216 23.89536 6.37312L23.89536 5.79024 23.89536 5.79024zM33.22016 13.58128C33.60832 13.72464 34.00752 13.82688 34.41664 13.88816 34.8256 13.94944 35.3568 13.98 36.01184 13.98 36.748 13.98 37.4224 13.86272 38.036 13.62752 38.6496 13.3928 39.176 13.02944 39.61568 12.5384 40.05536 12.04784 40.40272 11.4296 40.65856 10.68256 40.91408 9.93648 41.04224 9.05232 41.04224 8.02928 41.04224 6.39344 40.74016 5.09504 40.13728 4.1336 39.5336 3.17264 38.54672 2.692 37.17728 2.692 36.66608 2.692 36.17488 2.78384 35.70512 2.96816 35.23424 3.15184 34.81536 3.42816 34.4472 3.79616 34.0792 4.16432 33.78272 4.62992 33.55792 5.192 33.33248 5.75488 33.22016 6.42416 33.22016 7.20128L33.22016 13.58128zM30.18352.42176C30.38768.38144 30.5976.35072 30.81232.32992 31.0272.30992 31.24656.29936 31.47184.29936 31.67616.29936 31.89072.30992 32.11616.32992 32.3408.35072 32.55552.38144 32.76032.42176 32.78032.46336 32.80624.59056 32.8368.80544 32.86752 1.02032 32.89808 1.2504 32.92896 1.49536 32.95968 1.74096 32.99024 1.97664 33.02096 2.20096 33.05152 2.42624 33.06688 2.56944 33.06688 2.63072 33.27088 2.30368 33.51648 1.9864 33.80304 1.67968 34.08912 1.3728 34.43216 1.0968 34.83088.85168 35.2296.60608 35.6792.412 36.18048.26864 36.68112.12592 37.23856.05376 37.85216.05376 38.77216.05376 39.62608.20752 40.4136.51424 41.20064.82112 41.87504 1.296 42.4376 1.94032 42.99984 2.58464 43.43952 3.40272 43.75664 4.39424 44.07392 5.38672 44.23216 6.55712 44.23216 7.90672 44.23216 10.60608 43.5008 12.71808 42.03888 14.24112 40.57664 15.7648 38.5064 16.52624 35.82752 16.52624 35.37744 16.52624 34.9176 16.49568 34.4472 16.4344 33.97648 16.37264 33.56784 16.29072 33.22016 16.18896L33.22016 23.3976C32.97504 23.43808 32.71408 23.46864 32.43824 23.48944 32.16208 23.5096 31.91136 23.52 31.68656 23.52 31.46128 23.52 31.2112 23.5096 30.93504 23.48944 30.65888 23.46864 30.40848 23.43808 30.18352 23.3976L30.18352.42176 30.18352.42176z" mask="url(#zapier-b)"/>
      </g>
      <path fill="#5A5A5A" d="M48.00528 15.93456L46.0112 15.93456C45.97024 15.77104 45.93968 15.58192 45.91936 15.36704 45.89872 15.15264 45.8888 14.94288 45.8888 14.7384 45.8888 14.5344 45.89872 14.32416 45.91936 14.10928 45.93968 13.89488 45.97024 13.70592 46.0112 13.54176L50.98096 13.54176 50.98096 29.27824C50.75568 29.31872 50.50528 29.34944 50.22928 29.37024 49.95312 29.3904 49.7024 29.4008 49.47744 29.4008 49.27296 29.4008 49.03264 29.3904 48.75696 29.37024 48.4808 29.34944 48.23008 29.31872 48.00528 29.27824L48.00528 15.93456M65.30576 19.89184C65.30576 19.3192 65.22896 18.77216 65.07584 18.2504 64.92208 17.72912 64.6968 17.2744 64.40096 16.88544 64.10384 16.49728 63.72592 16.18512 63.2656 15.95008 62.8056 15.71488 62.2584 15.59712 61.62448 15.59712 60.37712 15.59712 59.42096 15.976 58.75648 16.73232 58.09184 17.4888 57.68816 18.54208 57.5448 19.89184L65.30576 19.89184zM57.51424 22.1616C57.5552 23.87936 58 25.13728 58.8488 25.93456 59.69696 26.73184 60.94976 27.1312 62.60624 27.1312 64.05824 27.1312 65.43856 26.8752 66.74736 26.364 66.91088 26.67072 67.04368 27.044 67.14608 27.48368 67.24832 27.92384 67.3096 28.35792 67.33024 28.7872 66.65552 29.07424 65.9136 29.28816 65.1064 29.43152 64.29808 29.57424 63.40352 29.64624 62.42256 29.64624 60.99072 29.64624 59.76352 29.44688 58.74144 29.04832 57.71872 28.64912 56.8752 28.08688 56.21056 27.36112 55.54608 26.63536 55.06032 25.77632 54.75344 24.78432 54.4472 23.79264 54.29344 22.70352 54.29344 21.51744 54.29344 20.35184 54.44144 19.26272 54.73824 18.2504 55.0344 17.23856 55.49008 16.35904 56.1032 15.61264 56.71664 14.86608 57.48832 14.27328 58.41904 13.8336 59.34928 13.39392 60.44832 13.17376 61.71664 13.17376 62.80048 13.17376 63.75136 13.35808 64.5696 13.72608 65.3872 14.09424 66.07248 14.60032 66.6248 15.24464 67.17664 15.8888 67.59568 16.65552 67.88224 17.5448 68.16832 18.43472 68.312 19.4008 68.312 20.44384 68.312 20.7304 68.30112 21.03184 68.2808 21.34864 68.26064 21.66624 68.23984 21.9368 68.21952 22.1616L57.51424 22.1616 57.51424 22.1616zM71.65664 13.54176C71.88144 13.50144 72.09632 13.47072 72.3008 13.44992 72.5048 13.42992 72.71984 13.41936 72.94496 13.41936 73.16992 13.41936 73.39472 13.42992 73.61984 13.44992 73.84464 13.47072 74.04928 13.50144 74.23344 13.54176 74.29488 13.84864 74.35616 14.25296 74.41728 14.75344 74.47856 15.25504 74.50976 15.67904 74.50976 16.02688 74.93904 15.33184 75.5064 14.72816 76.21184 14.2168 76.91728 13.70592 77.82224 13.44992 78.9264 13.44992 79.09008 13.44992 79.25872 13.4552 79.43264 13.46544 79.60592 13.47584 79.75504 13.4912 79.87744 13.5112 79.91792 13.69552 79.94912 13.89008 79.96944 14.09424 79.98976 14.29872 80 14.5136 80 14.7384 80 14.984 79.9848 15.23984 79.95424 15.50512 79.92352 15.77104 79.88736 16.02688 79.84688 16.27184 79.68288 16.23152 79.51408 16.21072 79.34064 16.21072 79.16672 16.21072 79.0288 16.21072 78.9264 16.21072 78.37456 16.21072 77.84768 16.28752 77.34672 16.44064 76.84528 16.59424 76.39568 16.86528 75.99696 17.2536 75.59824 17.6424 75.28112 18.17408 75.0464 18.84896 74.81072 19.52384 74.69344 20.3928 74.69344 21.45616L74.69344 29.27824C74.46816 29.31872 74.21792 29.34944 73.94176 29.37024 73.66608 29.3904 73.41536 29.4008 73.19056 29.4008 72.96528 29.4008 72.71504 29.3904 72.43888 29.37024 72.16272 29.34944 71.90224 29.31872 71.65664 29.27824L71.65664 13.54176M50.12784 5.13904C50.12768 5.51744 50.0584 5.87952 49.93232 6.21408 49.59792 6.34016 49.23552 6.40944 48.85696 6.40992L48.85264 6.40992C48.4744 6.40944 48.112 6.34032 47.7776 6.21424 47.65152 5.87984 47.58208 5.51744 47.58192 5.13904L47.58192 5.13456C47.58208 4.75632 47.65136 4.39392 47.77728 4.05968 48.11168 3.93344 48.47424 3.864 48.85264 3.86384L48.85696 3.86384C49.23552 3.864 49.59792 3.93344 49.93232 4.05968 50.0584 4.39392 50.12768 4.75632 50.12784 5.13456L50.12784 5.13904zM53.87616 4.28816L50.90384 4.28816 53.00544 2.1864C52.84032 1.9544 52.65616 1.7368 52.45536 1.536L52.45536 1.53584C52.25456 1.3352 52.03696 1.15136 51.80512.98624L49.70336 3.088 49.70336.11568C49.42832.06944 49.14576.04496 48.85744.0448L48.85216.0448C48.56384.04496 48.28144.06944 48.00624.11568L48.00624 3.088 45.90448.98624C45.67248 1.15136 45.45504 1.33536 45.25456 1.53616L45.25344 1.53696C45.05296 1.73744 44.86928 1.95472 44.70416 2.1864L46.80608 4.28816 43.83376 4.28816C43.83376 4.28816 43.76288 4.8464 43.76288 5.13504L43.76288 5.13856C43.76288 5.4272 43.78736 5.71008 43.83376 5.98544L46.80608 5.98544 44.70416 8.0872C45.03472 8.55104 45.44064 8.95712 45.90448 9.28752L48.00624 7.1856 48.00624 10.15808C48.28128 10.20416 48.56336 10.22848 48.8512 10.2288L48.8584 10.2288C49.1464 10.22848 49.4288 10.20416 49.70336 10.15808L49.70336 7.1856 51.80528 9.28752C52.03712 9.1224 52.25456 8.9384 52.45536 8.73776L52.45584 8.73728C52.65632 8.53648 52.84048 8.31888 53.00544 8.0872L50.90352 5.98544 53.87616 5.98544C53.9224 5.71056 53.94656 5.42848 53.94688 5.14048L53.94688 5.13312C53.94656 4.84512 53.9224 4.56304 53.87616 4.28816L53.87616 4.28816z"/>
    </g>
  </g>
</svg>
